<?xml version="1.0" standalone="no"?>
<!DOCTYPE svg PUBLIC "-//W3C//DTD SVG 1.1//EN" "http://www.w3.org/Graphics/SVG/1.1/DTD/svg11.dtd" >
<svg>
<metadata>
Created by FontForge 20090914 at Sun Feb  3 12:46:39 2019
 By www-data
&#194;&#169; 2010 Klim Type Foundry. All rights reserved.
</metadata>
<defs>
<font id="FoundersGrotesk-Bold" horiz-adv-x="500" >
  <font-face 
    font-family="Founders Grotesk Bold"
    font-weight="700"
    font-stretch="normal"
    units-per-em="1000"
    panose-1="2 11 8 3 3 2 2 6 2 3"
    ascent="630"
    descent="-370"
    x-height="446"
    cap-height="630"
    bbox="-89.001 -218.003 1159 958"
    underline-thickness="40"
    underline-position="-30"
    unicode-range="U+000D-U+FB04"
  />
<missing-glyph horiz-adv-x="608" 
 />
    <glyph glyph-name="ff" unicode="ff" horiz-adv-x="620" 
d="M222 334l-0.000976562 -334.001h-160v334h-64v112h64v18c0 54 14 95.5 42 124.5s68 43.5 120 43.5c29.333 0 52.833 -3 70.5 -9s34.167 -13.667 49.5 -23l-30 -100c-7.33301 4 -15.333 7.5 -24 10.5s-17.667 4.5 -27 4.5c-14.667 0 -25.167 -4.16699 -31.5 -12.5
s-9.5 -19.5 -9.5 -33.5v-23h133v7c0 60.667 16.333 107.334 49 140.001s76 49 130 49c42 0 76.833 -10 104.5 -30s46.167 -48.667 55.5 -86l-99 -31c-5.33301 10 -11.166 17.667 -17.499 23s-14.833 8 -25.5 8c-13.333 0 -22.833 -4.83301 -28.5 -14.5
s-8.5 -21.5 -8.5 -35.5v-30h113v-112h-113v-334h-160v334h-133z" />
    <glyph glyph-name="fi" unicode="fi" horiz-adv-x="561" 
d="M-2 334l0.000976562 112.001h64v6c0 30 5.16699 56.833 15.5 80.5s25 43.5 44 59.5s41.667 28.333 68 37s55.166 13 86.499 13c52 0 92.833 -9.83301 122.5 -29.5s52.167 -47.834 67.5 -84.501l-118 -38c-5.33301 10 -12.5 18.5 -21.5 25.5s-21.833 10.5 -38.5 10.5
c-20 0 -36 -6.33301 -48 -19s-18 -30.667 -18 -54v-7h295v-446h-162v334h-133v-334h-160v334h-64z" />
    <glyph glyph-name="fl" unicode="fl" horiz-adv-x="561" 
d="M307 508c-7.33301 4 -14.168 6.99902 -20.501 8.99902s-14.166 3 -23.499 3c-13.333 0 -23.5 -4.66699 -30.5 -14s-10.5 -21 -10.5 -35v-25h86v-112h-86v-334h-160v334h-64v112h64v19c0 58.667 14 102.834 42 132.501s68 44.5 120 44.5c39.333 0 72.333 -7 99 -21z
M516.998 629.999v-630h-162v630h162z" />
    <glyph glyph-name="ffi" unicode="ffi" horiz-adv-x="854" 
d="M222 334l0.000976562 -333.999h-160v334h-64v112h64v18c0 54 14 95.5 42 124.5s68 43.5 120 43.5c29.333 0 52.833 -3 70.5 -9s34.167 -13.667 49.5 -23l-30 -100c-7.33301 4 -15.333 7.5 -24 10.5s-17.667 4.5 -27 4.5c-14.667 0 -25.167 -4.16699 -31.5 -12.5
s-9.5 -19.5 -9.5 -33.5v-23h133v6c0 30 5.16699 56.833 15.5 80.5s25 43.5 44 59.5s41.667 28.333 68 37s55.166 13 86.499 13c52 0 92.833 -9.83301 122.5 -29.5s52.167 -47.834 67.5 -84.501l-118 -38c-5.33301 10 -12.5 18.5 -21.5 25.5s-21.833 10.5 -38.5 10.5
c-20 0 -36 -6.33301 -48 -19s-18 -30.667 -18 -54v-7h295v-446h-162v334h-133v-334h-160v334h-133z" />
    <glyph glyph-name="ffl" unicode="ffl" horiz-adv-x="854" 
d="M222 334l-0.00195312 -334.001h-160v334h-64v112h64v18c0 54 14 95.5 42 124.5s68 43.5 120 43.5c29.333 0 52.833 -3 70.5 -9s34.167 -13.667 49.5 -23l-30 -100c-7.33301 4 -15.333 7.5 -24 10.5s-17.667 4.5 -27 4.5c-14.667 0 -25.167 -4.16699 -31.5 -12.5
s-9.5 -19.5 -9.5 -33.5v-23h133v19c0 58.667 14 102.834 42 132.501s68 44.5 120 44.5c39.333 0 72.333 -7 99 -21l-16 -113c-7.33301 4 -14.166 7 -20.499 9s-14.166 3 -23.499 3c-13.333 0 -23.5 -4.66699 -30.5 -14s-10.5 -21 -10.5 -35v-25h86v-112h-86v-334h-160v334
h-133zM809.998 629.999v-630h-162v630h162z" />
    <glyph glyph-name="f_b" unicode="fb" horiz-adv-x="882" 
d="M517 220c0 -32.667 8 -58.667 24 -78s38 -29 66 -29c32 0 55.333 10.167 70 30.5s22 46.833 22 79.5c0 32 -7.33301 58.167 -22 78.5s-38 30.5 -70 30.5c-28 0 -50 -9.66699 -66 -29s-24 -45 -24 -77v-6zM480 0l-125.001 0.00195312v630h162v-261
c11.333 26.667 29.166 48.167 53.499 64.5s55.5 24.5 93.5 24.5c32.667 0 61.334 -6.16699 86.001 -18.5s45.334 -29 62.001 -50s29.167 -45.833 37.5 -74.5s12.5 -59.334 12.5 -92.001s-4.16699 -63.334 -12.5 -92.001s-20.833 -53.667 -37.5 -75s-37.667 -38 -63 -50
s-54.666 -18 -87.999 -18c-36 0 -67.333 8 -94 24s-46.334 37.667 -59.001 65zM306.999 508.002c-7.33301 4 -14.168 6.99902 -20.501 8.99902s-14.166 3 -23.499 3c-13.333 0 -23.5 -4.66699 -30.5 -14s-10.5 -21 -10.5 -35v-25h86v-112h-86v-334h-160v334h-64v112h64v19
c0 58.667 14 102.834 42 132.501s68 44.5 120 44.5c39.333 0 72.333 -7 99 -21z" />
    <glyph glyph-name="f_f_b" unicode="ffb" horiz-adv-x="1175" 
d="M810 220c0 -32.667 8 -58.667 24 -78s38 -29 66 -29c32 0 55.333 10.167 70 30.5s22 46.833 22 79.5c0 32 -7.33301 58.167 -22 78.5s-38 30.5 -70 30.5c-28 0 -50 -9.66699 -66 -29s-24 -45 -24 -77v-6zM773 0l-125.001 0.00195312v630h162v-261
c11.333 26.667 29.166 48.167 53.499 64.5s55.5 24.5 93.5 24.5c32.667 0 61.334 -6.16699 86.001 -18.5s45.334 -29 62.001 -50s29.167 -45.833 37.5 -74.5s12.5 -59.334 12.5 -92.001s-4.16699 -63.334 -12.5 -92.001s-20.833 -53.667 -37.5 -75s-37.667 -38 -63 -50
s-54.666 -18 -87.999 -18c-36 0 -67.333 8 -94 24s-46.334 37.667 -59.001 65zM221.999 334.002l-0.00195312 -334.001h-160v334h-64v112h64v18c0 54 14 95.5 42 124.5s68 43.5 120 43.5c29.333 0 52.833 -3 70.5 -9s34.167 -13.667 49.5 -23l-30 -100
c-7.33301 4 -15.333 7.5 -24 10.5s-17.667 4.5 -27 4.5c-14.667 0 -25.167 -4.16699 -31.5 -12.5s-9.5 -19.5 -9.5 -33.5v-23h133v19c0 58.667 14 102.834 42 132.501s68 44.5 120 44.5c39.333 0 72.333 -7 99 -21l-16 -113c-7.33301 4 -14.166 7 -20.499 9
s-14.166 3 -23.499 3c-13.333 0 -23.5 -4.66699 -30.5 -14s-10.5 -21 -10.5 -35v-25h86v-112h-86v-334h-160v334h-133z" />
    <glyph glyph-name="f_f_h" unicode="ffh" horiz-adv-x="1154" 
d="M810 0l-161.999 -0.000976562v630h162v-251c12 24.667 30.5 44 55.5 58s54.5 21 88.5 21c30.667 0 56.334 -4.83301 77.001 -14.5s37.167 -22.834 49.5 -39.501s21.166 -35.667 26.499 -57s8 -43.666 8 -66.999v-280h-162v237c0 30.667 -4.83301 53.834 -14.5 69.501
s-26.834 23.5 -51.501 23.5c-28 0 -47.833 -10 -59.5 -30s-17.5 -47 -17.5 -81v-219zM222.001 333.999l-0.00195312 -334.001h-160v334h-64v112h64v18c0 54 14 95.5 42 124.5s68 43.5 120 43.5c29.333 0 52.833 -3 70.5 -9s34.167 -13.667 49.5 -23l-30 -100
c-7.33301 4 -15.333 7.5 -24 10.5s-17.667 4.5 -27 4.5c-14.667 0 -25.167 -4.16699 -31.5 -12.5s-9.5 -19.5 -9.5 -33.5v-23h133v19c0 58.667 14 102.834 42 132.501s68 44.5 120 44.5c39.333 0 72.333 -7 99 -21l-16 -113c-7.33301 4 -14.166 7 -20.499 9
s-14.166 3 -23.499 3c-13.333 0 -23.5 -4.66699 -30.5 -14s-10.5 -21 -10.5 -35v-25h86v-112h-86v-334h-160v334h-133z" />
    <glyph glyph-name="f_f_idieresis" unicode="ff&#xef;" horiz-adv-x="854" 
d="M222 334l0.000976562 -334.001h-160v334h-64v112h64v18c0 54 14 95.5 42 124.5s68 43.5 120 43.5c29.333 0 52.833 -3 70.5 -9s34.167 -13.667 49.5 -23l-30 -100c-7.33301 4 -15.333 7.5 -24 10.5s-17.667 4.5 -27 4.5c-14.667 0 -25.167 -4.16699 -31.5 -12.5
s-9.5 -19.5 -9.5 -33.5v-23h133v12c0 29.333 4.83301 55.333 14.5 78s23 41.834 40 57.501s37.333 27.667 61 36s49.167 12.5 76.5 12.5c46 0 83 -10 111 -30s46.667 -48.667 56 -86l-109 -34c-8.66699 22.667 -24.334 34 -47.001 34
c-13.333 0 -23.833 -4.83301 -31.5 -14.5s-11.5 -21.5 -11.5 -35.5v-30h295v-446h-162v334h-133v-334h-160v334h-133zM752.001 629.999h142v-142h-142v142z" />
    <glyph glyph-name="f_f_j" unicode="ffj" horiz-adv-x="854" 
d="M648 334l-132.999 0.00195312v-334h-160v334h-133v-334h-160v334h-64v112h64v18c0 54 14 95.5 42 124.5s68 43.5 120 43.5c29.333 0 52.833 -3 70.5 -9s34.167 -13.667 49.5 -23l-30 -100c-7.33301 4 -15.333 7.5 -24 10.5s-17.667 4.5 -27 4.5
c-14.667 0 -25.167 -4.16699 -31.5 -12.5s-9.5 -19.5 -9.5 -33.5v-23h133v6c0 30 5.16699 56.833 15.5 80.5s25 43.5 44 59.5s41.667 28.333 68 37s55.166 13 86.499 13c52 0 92.833 -9.83301 122.5 -29.5s52.167 -47.834 67.5 -84.501l-118 -38
c-5.33301 10 -12.5 18.5 -21.5 25.5s-21.833 10.5 -38.5 10.5c-20 0 -36 -6.33301 -48 -19s-18 -30.667 -18 -54v-7h295v-461c0 -55.333 -14.833 -95.333 -44.5 -120s-70.5 -37 -122.5 -37c-25.333 0 -49.333 2.66699 -72 8s-41.334 13.333 -56.001 24l25 98
c11.333 -7.33301 22.333 -12.333 33 -15s21.334 -4 32.001 -4c14 0 24.667 4.16699 32 12.5s11 22.166 11 41.499v341z" />
    <glyph glyph-name="f_f_k" unicode="ffk" horiz-adv-x="1151" 
d="M810 0h-162v630h162v-338l153 154h190l-184 -175l190 -271h-182l-128 181l-39 -40v-141zM222 334l-0.00195312 -334.001h-160v334h-64v112h64v18c0 54 14 95.5 42 124.5s68 43.5 120 43.5c29.333 0 52.833 -3 70.5 -9s34.167 -13.667 49.5 -23l-30 -100
c-7.33301 4 -15.333 7.5 -24 10.5s-17.667 4.5 -27 4.5c-14.667 0 -25.167 -4.16699 -31.5 -12.5s-9.5 -19.5 -9.5 -33.5v-23h133v19c0 58.667 14 102.834 42 132.501s68 44.5 120 44.5c39.333 0 72.333 -7 99 -21l-16 -113c-7.33301 4 -14.166 7 -20.499 9
s-14.166 3 -23.499 3c-13.333 0 -23.5 -4.66699 -30.5 -14s-10.5 -21 -10.5 -35v-25h86v-112h-86v-334h-160v334h-133z" />
    <glyph glyph-name="f_h" unicode="fh" horiz-adv-x="861" 
d="M517 0l-161.999 -0.000976562v630h162v-251c12 24.667 30.5 44 55.5 58s54.5 21 88.5 21c30.667 0 56.334 -4.83301 77.001 -14.5s37.167 -22.834 49.5 -39.501s21.166 -35.667 26.499 -57s8 -43.666 8 -66.999v-280h-162v237c0 30.667 -4.83301 53.834 -14.5 69.501
s-26.834 23.5 -51.501 23.5c-28 0 -47.833 -10 -59.5 -30s-17.5 -47 -17.5 -81v-219zM307.001 507.999c-7.33301 4 -14.168 6.99902 -20.501 8.99902s-14.166 3 -23.499 3c-13.333 0 -23.5 -4.66699 -30.5 -14s-10.5 -21 -10.5 -35v-25h86v-112h-86v-334h-160v334h-64v112
h64v19c0 58.667 14 102.834 42 132.501s68 44.5 120 44.5c39.333 0 72.333 -7 99 -21z" />
    <glyph glyph-name="f_idieresis" unicode="f&#xef;" horiz-adv-x="561" 
d="M-2 334l0.000976562 111.999h64v12c0 29.333 4.83301 55.333 14.5 78s23 41.834 40 57.501s37.333 27.667 61 36s49.167 12.5 76.5 12.5c46 0 83 -10 111 -30s46.667 -48.667 56 -86l-109 -34c-8.66699 22.667 -24.334 34 -47.001 34
c-13.333 0 -23.833 -4.83301 -31.5 -14.5s-11.5 -21.5 -11.5 -35.5v-30h295v-446h-162v334h-133v-334h-160v334h-64zM459.001 629.999h142v-142h-142v142z" />
    <glyph glyph-name="f_j" unicode="fj" horiz-adv-x="561" 
d="M355 334l-132.999 0.00195312v-334h-160v334h-64v112h64v6c0 30 5.16699 56.833 15.5 80.5s25 43.5 44 59.5s41.667 28.333 68 37s55.166 13 86.499 13c52 0 92.833 -9.83301 122.5 -29.5s52.167 -47.834 67.5 -84.501l-118 -38c-5.33301 10 -12.5 18.5 -21.5 25.5
s-21.833 10.5 -38.5 10.5c-20 0 -36 -6.33301 -48 -19s-18 -30.667 -18 -54v-7h295v-461c0 -55.333 -14.833 -95.333 -44.5 -120s-70.5 -37 -122.5 -37c-25.333 0 -49.333 2.66699 -72 8s-41.334 13.333 -56.001 24l25 98c11.333 -7.33301 22.333 -12.333 33 -15
s21.334 -4 32.001 -4c14 0 24.667 4.16699 32 12.5s11 22.166 11 41.499v341z" />
    <glyph glyph-name="f_k" unicode="fk" horiz-adv-x="858" 
d="M517 0h-162v630h162v-338l153 154h190l-184 -175l190 -271h-182l-128 181l-39 -40v-141zM307 508c-7.33301 4 -14.168 6.99902 -20.501 8.99902s-14.166 3 -23.499 3c-13.333 0 -23.5 -4.66699 -30.5 -14s-10.5 -21 -10.5 -35v-25h86v-112h-86v-334h-160v334h-64v112h64
v19c0 58.667 14 102.834 42 132.501s68 44.5 120 44.5c39.333 0 72.333 -7 99 -21z" />
    <glyph glyph-name=".notdef" horiz-adv-x="608" 
 />
    <glyph glyph-name=".null" horiz-adv-x="0" 
 />
    <glyph glyph-name=".null" horiz-adv-x="0" 
 />
    <glyph glyph-name="nonmarkingreturn" unicode="&#xd;" horiz-adv-x="250" 
 />
    <glyph glyph-name="space" unicode=" " horiz-adv-x="180" 
 />
    <glyph glyph-name="exclam" unicode="!" horiz-adv-x="232" 
d="M30 172h172v-172h-172v172zM202 630v-162l-34 -258h-104l-34 258v162h172z" />
    <glyph glyph-name="quotedbl" unicode="&#x22;" horiz-adv-x="367" 
d="M30 630h129v-260h-129v260zM208 630h129v-260h-129v260z" />
    <glyph glyph-name="numbersign" unicode="#" horiz-adv-x="616" 
d="M535 166h-99l-39 -166h-121l39 166h-86l-39 -166h-121l39 166h-88l21 100h91l24 98h-96l21 100h98l40 166h121l-40 -166h86l40 166h121l-40 -166h89l-21 -100h-91l-24 -98h96zM253 266h86l24 98h-86z" />
    <glyph glyph-name="dollar" unicode="$" horiz-adv-x="606" 
d="M174 228c2 -29.333 11.332 -52.333 27.999 -69s36.667 -28.334 60 -35.001v121l-50 9c-51.333 8.66699 -93.333 27.667 -126 57s-49 71.333 -49 126c0 60 20 107.5 60 142.5s95 55.167 165 60.5v77h80v-78c72 -7.33301 126.833 -30.333 164.5 -69
s57.167 -89.667 58.5 -153l-149 -3c-2 23.333 -9.66699 42.833 -23 58.5s-30.333 27.167 -51 34.5v-120l44 -8c66.667 -11.333 115.334 -32.833 146.001 -64.5s46 -73.5 46 -125.5c0 -31.333 -6 -59 -18 -83s-28.5 -44.333 -49.5 -61s-46 -29.667 -75 -39
s-60.167 -15 -93.5 -17v-89h-80v91c-36 4 -68.667 11.833 -98 23.5s-54.5 27.334 -75.5 47.001s-37.333 43 -49 70s-17.5 57.5 -17.5 91.5zM417.999 178c0 17.333 -7 29.667 -21 37s-32.333 13 -55 17v-114c24 2.66699 42.667 9 56 19s20 23.667 20 41zM195.999 452.001
c0 -16.667 6.16797 -28.5 18.501 -35.5s28.166 -12.167 47.499 -15.5v112c-44 -6 -66 -26.333 -66 -61z" />
    <glyph glyph-name="percent" unicode="%" horiz-adv-x="795" 
d="M129 466c0 -31.333 4.66699 -53.666 14 -66.999s23 -20 41 -20s31.667 6.66699 41 20s14 35.666 14 66.999s-4.66699 53.666 -14 66.999s-23 20 -41 20s-31.667 -6.66699 -41 -20s-14 -35.666 -14 -66.999zM20 466c0 27.333 4.5 52 13.5 74s21 40.5 36 55.5
s32.333 26.5 52 34.5s40.5 12 62.5 12s42.833 -4 62.5 -12s37 -19.5 52 -34.5s27 -33.5 36 -55.5s13.5 -46.667 13.5 -74s-4.5 -52 -13.5 -74s-21 -40.5 -36 -55.5s-32.333 -26.5 -52 -34.5s-40.5 -12 -62.5 -12s-42.833 4 -62.5 12s-37 19.5 -52 34.5s-27 33.5 -36 55.5
s-13.5 46.667 -13.5 74zM666 164c0 31.333 -4.66699 53.666 -14 66.999s-23 20 -41 20s-31.667 -6.66699 -41 -20s-14 -35.666 -14 -66.999s4.66699 -53.666 14 -66.999s23 -20 41 -20s31.667 6.66699 41 20s14 35.666 14 66.999zM287 0h-111l332 630h111zM775 164
c0 -27.333 -4.5 -52 -13.5 -74s-21 -40.5 -36 -55.5s-32.333 -26.5 -52 -34.5s-40.5 -12 -62.5 -12s-42.833 4 -62.5 12s-37 19.5 -52 34.5s-27 33.5 -36 55.5s-13.5 46.667 -13.5 74s4.5 52 13.5 74s21 40.5 36 55.5s32.333 26.5 52 34.5s40.5 12 62.5 12
s42.833 -4 62.5 -12s37 -19.5 52 -34.5s27 -33.5 36 -55.5s13.5 -46.667 13.5 -74z" />
    <glyph glyph-name="ampersand" unicode="&#x26;" horiz-adv-x="678" 
d="M644 322c-9.33301 -30 -21.9961 -60.5 -37.9961 -91.5s-35.333 -60.833 -58 -89.5c11.333 -11.333 21.666 -19.5 30.999 -24.5s21.666 -7.5 36.999 -7.5c8.66699 0 16.667 0.5 24 1.5s16.666 2.83301 27.999 5.5v-98c-9.33301 -7.33301 -22.833 -13.5 -40.5 -18.5
s-38.5 -7.5 -62.5 -7.5c-15.333 0 -33.833 2.66699 -55.5 8s-46.5 18.666 -74.5 39.999c-26.667 -16 -55.334 -28.667 -86.001 -38s-64 -14 -100 -14c-33.333 0 -64.166 3.66699 -92.499 11s-53 18.5 -74 33.5s-37.5 33.667 -49.5 56s-18 48.5 -18 78.5
c0 38 10.5 70 31.5 96s53.167 50 96.5 72c-18 20 -32.333 40 -43 60s-16 45 -16 75c0 27.333 5.66699 51.666 17 72.999s26.833 39.333 46.5 54s42.167 25.834 67.5 33.501s52 11.5 80 11.5c31.333 0 59.166 -4 83.499 -12s44.833 -18.833 61.5 -32.5
s29.167 -29.667 37.5 -48s12.5 -38.166 12.5 -59.499c0 -20.667 -2.33301 -39 -7 -55s-12 -30.667 -22 -44s-22.833 -25.833 -38.5 -37.5s-34.167 -23.167 -55.5 -34.5l87 -85c9.33301 14 17.5 28.833 24.5 44.5s13.5 32.167 19.5 49.5zM258.004 112
c15.333 0 30.001 1.66797 44.001 5.00098s27.667 7.66602 41 12.999l-117 120c-15.333 -9.33301 -27.333 -20 -36 -32s-13 -26 -13 -42c0 -22.667 7.66699 -39 23 -49s34.666 -15 57.999 -15zM239.005 475.001c0 -15.333 5 -29.168 15 -41.501s20.667 -24.166 32 -35.499
c23.333 12 39.333 23.833 48 35.5s13 26.167 13 43.5c0 14 -4.33301 26 -13 36s-21.667 15 -39 15s-31 -5 -41 -15s-15 -22.667 -15 -38z" />
    <glyph glyph-name="quotesingle" unicode="'" horiz-adv-x="199" 
d="M30 630h139v-260h-139v260z" />
    <glyph glyph-name="parenleft" unicode="(" horiz-adv-x="345" 
d="M45 288c0 68.667 12.667 135.667 38 201s60.333 122.333 105 171h147c-52 -59.333 -87.5 -120.333 -106.5 -183s-28.5 -125.667 -28.5 -189s9.5 -126.333 28.5 -189s54.5 -123.667 106.5 -183h-147c-44.667 48.667 -79.667 105.667 -105 171s-38 132.333 -38 201z" />
    <glyph glyph-name="parenright" unicode=")" horiz-adv-x="345" 
d="M300 288c0 -68.667 -12.667 -135.667 -38 -201s-60.333 -122.333 -105 -171h-147c52 59.333 87.5 120.333 106.5 183s28.5 125.667 28.5 189s-9.5 126.333 -28.5 189s-54.5 123.667 -106.5 183h147c44.667 -48.667 79.667 -105.667 105 -171s38 -132.333 38 -201z" />
    <glyph glyph-name="asterisk" unicode="*" horiz-adv-x="378" 
d="M40 558l100 -33v105h98v-104l99 32l31 -93l-99 -33l61 -84l-79 -58l-62 84l-61 -84l-80 57l61 85l-99 32z" />
    <glyph glyph-name="plus" unicode="+" horiz-adv-x="612" 
d="M373 574v-196h197v-135h-197v-196h-134v196h-197v135h197v196h134z" />
    <glyph glyph-name="comma" unicode="," horiz-adv-x="232" 
d="M30 172l172.001 -0.000976562v-161c0 -50 -14.667 -87.167 -44 -111.5s-72 -37.166 -128 -38.499v78c23.333 0.666992 41.666 6 54.999 16s20 25 20 45h-75v172z" />
    <glyph glyph-name="hyphen" unicode="-" horiz-adv-x="360" 
d="M46 327h268v-141h-268v141z" />
    <glyph glyph-name="period" unicode="." horiz-adv-x="232" 
d="M30 172h172v-172h-172v172z" />
    <glyph glyph-name="slash" unicode="/" horiz-adv-x="369" 
d="M220 659h149l-240 -742h-149z" />
    <glyph glyph-name="zero" unicode="0" horiz-adv-x="618" 
d="M594 315c0 -52 -6.66699 -98.333 -20 -139s-32.5 -75 -57.5 -103s-55 -49.167 -90 -63.5s-74.167 -21.5 -117.5 -21.5c-42.667 0 -81.667 7.16699 -117 21.5s-65.333 35.5 -90 63.5s-43.834 62.333 -57.501 103s-20.5 87 -20.5 139s6.83301 98.333 20.5 139
s32.834 75 57.501 103s54.667 49.167 90 63.5s74.333 21.5 117 21.5c43.333 0 82.5 -7.16699 117.5 -21.5s65 -35.5 90 -63.5s44.167 -62.333 57.5 -103s20 -87 20 -139zM415 315c0 65.333 -8 113.333 -24 144s-43.333 46 -82 46c-38 0 -65 -15.333 -81 -46
s-24 -78.667 -24 -144s8 -113.333 24 -144s43 -46 81 -46c38.667 0 66 15.333 82 46s24 78.667 24 144z" />
    <glyph glyph-name="one" unicode="1" horiz-adv-x="355" 
d="M11 534c44 0 78 7.66797 102 23.001s41.667 39.666 53 72.999h133v-630h-170v422h-118v112z" />
    <glyph glyph-name="two" unicode="2" horiz-adv-x="521" 
d="M512 141l-0.000976562 -140.999h-488v122l174 137c24 19.333 44.167 36.166 60.5 50.499s29.5 27.833 39.5 40.5s17.167 25.334 21.5 38.001s6.5 26.334 6.5 41.001c0 19.333 -5 35.666 -15 48.999s-27.667 20 -53 20c-26 0 -44.5 -8.83301 -55.5 -26.5
s-16.5 -39.167 -16.5 -64.5c0 -12 0.666992 -22 2 -30s3 -15.333 5 -22l-166 5c-2 10 -3.83301 20 -5.5 30s-2.5 19.667 -2.5 29c0 34 6 64.667 18 92s28.667 50.666 50 69.999s47.166 34.333 77.499 45s63.5 16 99.5 16c38 0 72 -5.16699 102 -15.5
s55.167 -24.5 75.5 -42.5s35.833 -39.333 46.5 -64s16 -51.667 16 -81c0 -27.333 -3.5 -51.5 -10.5 -72.5s-17.167 -40.5 -30.5 -58.5s-29.666 -35.5 -48.999 -52.5s-41.666 -35.167 -66.999 -54.5l-78 -60h243z" />
    <glyph glyph-name="three" unicode="3" horiz-adv-x="542" 
d="M349 185c0 23.333 -8.00098 40.5 -24.001 51.5s-36 16.5 -60 16.5h-21c-8 0 -16.333 -0.666992 -25 -2v121c5.33301 -1.33301 12.666 -2 21.999 -2h26c18.667 0 35.334 5.5 50.001 16.5s22 27.5 22 49.5c0 21.333 -6 38.166 -18 50.499s-29.667 18.5 -53 18.5
c-28 0 -48.833 -9.83301 -62.5 -29.5s-20.5 -44.5 -20.5 -74.5l-163 7c0 32.667 5.66699 63.167 17 91.5s27.833 53 49.5 74s48 37.667 79 50s66.167 18.5 105.5 18.5c74.667 0 132.334 -17.167 173.001 -51.5s61 -79.833 61 -136.5c0 -18.667 -3.16699 -36 -9.5 -52
s-14.666 -29.667 -24.999 -41s-22.333 -20.666 -36 -27.999s-27.834 -12 -42.501 -14c42 -7.33301 74 -24 96 -50s33 -58.333 33 -97c0 -29.333 -6 -55.5 -18 -78.5s-28.833 -42.333 -50.5 -58s-47.667 -27.5 -78 -35.5s-63.833 -12 -100.5 -12
c-83.333 0 -147.833 20.5 -193.5 61.5s-68.5 96.833 -68.5 167.5l167 -5c1.33301 -30 10.5 -52 27.5 -66s39.5 -21 67.5 -21c19.333 0 36.333 5 51 15s22 25 22 45z" />
    <glyph glyph-name="four" unicode="4" horiz-adv-x="588" 
d="M493 276h81v-143h-81v-133h-167v133h-308v155l271 342h204v-354zM163 276h163v206z" />
    <glyph glyph-name="five" unicode="5" horiz-adv-x="529" 
d="M466 482h-269.999c-1.33301 -13.333 -3.16602 -27.666 -5.49902 -42.999s-4.83301 -29 -7.5 -41c11.333 8.66699 25.666 16 42.999 22s40 9 68 9c36.667 0 68.667 -5.66699 96 -17s50.166 -26.666 68.499 -45.999s32 -42.333 41 -69s13.5 -55.334 13.5 -86.001
c0 -34.667 -6.16699 -65.834 -18.5 -93.501s-29.166 -51.167 -50.499 -70.5s-46.833 -34 -76.5 -44s-61.834 -15 -96.501 -15c-84 0 -147.333 20.667 -190 62s-62.667 98.333 -60 171l163 -11c0.666992 -27.333 8.66699 -48.333 24 -63s36.333 -22 63 -22
c25.333 0 46 7.5 62 22.5s24 36.167 24 63.5c0 24.667 -7.16699 46 -21.5 64s-35.5 27 -63.5 27c-20 0 -36.167 -3.66699 -48.5 -11s-22.5 -17 -30.5 -29l-163 12c4 21.333 8.16699 47 12.5 77s8.5 61.333 12.5 94s7.5 65.167 10.5 97.5s4.83301 61.5 5.5 87.5h395v-148z
" />
    <glyph glyph-name="six" unicode="6" horiz-adv-x="562" 
d="M297 507c-35.333 0 -62.835 -14.3311 -82.502 -42.998s-31.167 -66 -34.5 -112c14.667 18 34.334 32.167 59.001 42.5s52.334 15.5 83.001 15.5c34.667 0 65.5 -5 92.5 -15s50 -24 69 -42s33.5 -39.5 43.5 -64.5s15 -52.5 15 -82.5c0 -34 -6.16699 -64.5 -18.5 -91.5
s-29.333 -49.833 -51 -68.5s-47.5 -33 -77.5 -43s-63 -15 -99 -15c-44 0 -83 7.5 -117 22.5s-62.5 36.5 -85.5 64.5s-40.333 62 -52 102s-17.5 85 -17.5 135c0 48 5.83301 92.167 17.5 132.5s29 75.166 52 104.499s51.667 52.166 86 68.499s74.5 24.5 120.5 24.5
c68.667 0 123.667 -17 165 -51s65 -82.667 71 -146l-158 -3c-2.66699 21.333 -11 37.5 -25 48.5s-32.667 16.5 -56 16.5zM206.998 202.002c0 -23.333 7.5 -42.667 22.5 -58s36.167 -23 63.5 -23c28 0 49.667 7.5 65 22.5s23 34.5 23 58.5c0 25.333 -7.66699 45.5 -23 60.5
s-37 22.5 -65 22.5c-27.333 0 -48.5 -7.5 -63.5 -22.5s-22.5 -35.167 -22.5 -60.5z" />
    <glyph glyph-name="seven" unicode="7" horiz-adv-x="511" 
d="M15 478l0.000976562 152.002h481v-134c-41.333 -40.667 -73.333 -80.167 -96 -118.5s-39.5 -77.333 -50.5 -117s-17.833 -80.834 -20.5 -123.501s-4 -88.334 -4 -137.001h-186c0.666992 51.333 4.16699 98.5 10.5 141.5s16.166 83.667 29.499 122s30.833 75 52.5 110
s48.5 69.833 80.5 104.5h-297z" />
    <glyph glyph-name="eight" unicode="8" horiz-adv-x="559" 
d="M280 519c-23.333 0 -41.666 -6 -54.999 -18s-20 -29.333 -20 -52c0 -21.333 6.66699 -37.666 20 -48.999s31.666 -17 54.999 -17s42 5.66699 56 17s21 27.666 21 48.999c0 22.667 -7 40 -21 52s-32.667 18 -56 18zM280 266c-28 0 -50 -6.33301 -66 -19
s-24 -31.334 -24 -56.001s8 -43.5 24 -56.5s38 -19.5 66 -19.5s49.833 6.5 65.5 19.5s23.5 31.833 23.5 56.5s-7.83301 43.334 -23.5 56.001s-37.5 19 -65.5 19zM280 -12c-83.333 0 -147.498 16.5 -192.498 49.5s-67.5 77.833 -67.5 134.5c0 40 10.667 73.333 32 100
s49.333 44.667 84 54c-32 13.333 -56.167 31 -72.5 53s-24.5 51.333 -24.5 88c0 27.333 5.83301 51.833 17.5 73.5s28.167 40 49.5 55s46.833 26.5 76.5 34.5s62.167 12 97.5 12s67.666 -4 96.999 -12s54.666 -19.5 75.999 -34.5s37.833 -33.333 49.5 -55
s17.5 -46.167 17.5 -73.5c0 -36.667 -8.16699 -66 -24.5 -88s-40.5 -39.667 -72.5 -53c34.667 -9.33301 62.667 -27.333 84 -54s32 -60 32 -100c0 -56.667 -22.333 -101.5 -67 -134.5s-108.667 -49.5 -192 -49.5z" />
    <glyph glyph-name="nine" unicode="9" horiz-adv-x="562" 
d="M265 123c35.333 0 62.835 14.3311 82.502 42.998s31.167 66 34.5 112c-14.667 -18 -34.334 -32.167 -59.001 -42.5s-52.334 -15.5 -83.001 -15.5c-34.667 0 -65.5 5 -92.5 15s-50 24 -69 42s-33.5 39.5 -43.5 64.5s-15 52.5 -15 82.5c0 34 6.16699 64.5 18.5 91.5
s29.333 49.833 51 68.5s47.5 33 77.5 43s63 15 99 15c44 0 83 -7.5 117 -22.5s62.5 -36.5 85.5 -64.5s40.333 -62 52 -102s17.5 -85 17.5 -135c0 -48 -5.83301 -92.167 -17.5 -132.5s-29 -75.166 -52 -104.499s-51.667 -52.166 -86 -68.499s-74.5 -24.5 -120.5 -24.5
c-68.667 0 -123.667 17 -165 51s-65 82.667 -71 146l158 3c2.66699 -21.333 11 -37.5 25 -48.5s32.667 -16.5 56 -16.5zM355.002 427.998c0 23.333 -7.5 42.667 -22.5 58s-36.167 23 -63.5 23c-28 0 -49.667 -7.5 -65 -22.5s-23 -34.5 -23 -58.5
c0 -25.333 7.66699 -45.5 23 -60.5s37 -22.5 65 -22.5c27.333 0 48.5 7.5 63.5 22.5s22.5 35.167 22.5 60.5z" />
    <glyph glyph-name="colon" unicode=":" horiz-adv-x="232" 
d="M30 172h172v-172h-172v172zM30 438h172v-172h-172v172z" />
    <glyph glyph-name="semicolon" unicode=";" horiz-adv-x="232" 
d="M30 172l172.001 -0.000976562v-161c0 -50 -14.667 -87.167 -44 -111.5s-72 -37.166 -128 -38.499v78c23.333 0.666992 41.666 6 54.999 16s20 25 20 45h-75v172zM30.001 437.999h172v-172h-172v172z" />
    <glyph glyph-name="less" unicode="&#x3c;" horiz-adv-x="473" 
d="M31 400l402 170v-154l-280 -108l280 -108v-154l-402 170v184z" />
    <glyph glyph-name="equal" unicode="=" horiz-adv-x="634" 
d="M53 266h528v-122h-528v122zM53 482h528v-122h-528v122z" />
    <glyph glyph-name="greater" unicode="&#x3e;" horiz-adv-x="473" 
d="M442 216l-402 -170v154l279 108l-279 108v154l402 -170v-184z" />
    <glyph glyph-name="question" unicode="?" horiz-adv-x="524" 
d="M189 210c1.33301 24 7.16602 46.998 17.499 68.998s26.5 41.667 48.5 59c20 16 36.833 31.167 50.5 45.5s20.5 32.833 20.5 55.5c0 16 -5.16699 29.833 -15.5 41.5s-26.166 17.5 -47.499 17.5c-28.667 0 -48.667 -8.83301 -60 -26.5s-17 -39.167 -17 -64.5
c0 -12 0.666992 -22 2 -30s3 -15.333 5 -22l-166 5c-2 10 -3.83301 20 -5.5 30s-2.5 19.667 -2.5 29c0 34 6 64.667 18 92s28.667 50.666 50 69.999s47.166 34.333 77.499 45s63.5 16 99.5 16c38 0 72 -5 102 -15s55.167 -23.833 75.5 -41.5s35.833 -38.167 46.5 -61.5
s16 -48.666 16 -75.999c0 -20.667 -2.83301 -39.167 -8.5 -55.5s-13.5 -31.166 -23.5 -44.499s-21.5 -25.666 -34.5 -36.999s-26.5 -22.333 -40.5 -33c-16 -12 -28.167 -23.167 -36.5 -33.5s-13.166 -21.833 -14.499 -34.5h-157zM181 171.998h172v-172h-172v172z" />
    <glyph glyph-name="at" unicode="@" horiz-adv-x="778" 
d="M568 111c30 0 53.1631 13.0039 69.4961 39.0039s24.5 67.333 24.5 124c0 65.333 -19.5 116.166 -58.5 152.499s-97.833 54.5 -176.5 54.5c-46.667 0 -88.667 -7.16699 -126 -21.5s-69.166 -34.833 -95.499 -61.5s-46.666 -58.834 -60.999 -96.501
s-21.5 -80.167 -21.5 -127.5c0 -38.667 6.16699 -72.5 18.5 -101.5s29.833 -53.333 52.5 -73s49.667 -34.334 81 -44.001s66 -14.5 104 -14.5s73.333 3.33301 106 10s66 18.334 100 35.001l24 -72c-34 -20 -70.167 -34.5 -108.5 -43.5s-79.166 -13.5 -122.499 -13.5
c-51.333 0 -98.666 7 -141.999 21s-80.666 34.5 -111.999 61.5s-55.666 60.167 -72.999 99.5s-26 84.333 -26 135c0 56 9.5 108 28.5 156s46 89.5 81 124.5s77.333 62.5 127 82.5s104.834 30 165.501 30c51.333 0 97.166 -7.33301 137.499 -22s74.666 -35 102.999 -61
s50 -57 65 -93s22.5 -75 22.5 -117c0 -40.667 -6.16699 -76.167 -18.5 -106.5s-28.5 -55.333 -48.5 -75s-42.833 -34.334 -68.5 -44.001s-52.167 -14.5 -79.5 -14.5c-32.667 0 -58.167 5.83301 -76.5 17.5s-31.833 27.167 -40.5 46.5c-12 -21.333 -26.167 -37.333 -42.5 -48
s-37.166 -16 -62.499 -16c-40 0 -71.833 12.5 -95.5 37.5s-35.5 60.5 -35.5 106.5c0 29.333 4.16699 57 12.5 83s20.166 48.667 35.499 68s33.833 34.666 55.5 45.999s45.5 17 71.5 17s47.167 -5 63.5 -15s28.166 -23 35.499 -39l13 46h125l-56 -224
c-4.66699 -17.333 -4.66699 -29.833 0 -37.5s13 -11.5 25 -11.5zM426.996 224.004c5.33301 26 5.16895 45.667 -0.498047 59s-17.834 20 -36.501 20c-10 0 -19.167 -3.5 -27.5 -10.5s-15.5 -16.167 -21.5 -27.5s-10.667 -23.833 -14 -37.5s-5 -27.167 -5 -40.5
c0 -18 2.83301 -32.333 8.5 -43s15.834 -16 30.501 -16c13.333 0 25.666 5.66699 36.999 17s19.666 31.333 24.999 60z" />
    <glyph glyph-name="A" unicode="A" horiz-adv-x="692" 
d="M441 630l251 -630h-181l-47 122h-246l-47 -122h-171l251 630h190zM267 249h148l-72 186h-4z" />
    <glyph glyph-name="B" unicode="B" horiz-adv-x="633" 
d="M609 173c0 -54.667 -20.333 -97.168 -61 -127.501s-98 -45.5 -172 -45.5h-328v630h307c81.333 0 140.833 -15.667 178.5 -47s56.5 -73.666 56.5 -126.999c0 -35.333 -10.167 -64.333 -30.5 -87s-47.5 -36.667 -81.5 -42c37.333 -7.33301 68.5 -23.5 93.5 -48.5
s37.5 -60.167 37.5 -105.5zM213 252.999v-117h136c30 0 51.667 5.33301 65 16s20 24.667 20 42s-6.83301 31.5 -20.5 42.5s-35.5 16.5 -65.5 16.5h-135zM213 379.999h120c29.333 0 50.166 5.5 62.499 16.5s18.5 24.167 18.5 39.5c0 16.667 -6.16699 30.667 -18.5 42
s-33.166 17 -62.499 17h-120v-115z" />
    <glyph glyph-name="C" unicode="C" horiz-adv-x="669" 
d="M20 315c0 48.667 8.16699 93.002 24.5 133.002s39 74.333 68 103s63.167 51 102.5 67s82 24 128 24c48 0 90.5 -7.16699 127.5 -21.5s68.333 -34.166 94 -59.499s45.834 -55 60.501 -89s23.334 -70.667 26.001 -110l-163 -6
c-2.66699 17.333 -7.16699 34.166 -13.5 50.499s-15.166 30.833 -26.499 43.5s-25.666 22.667 -42.999 30s-38.333 11 -63 11c-46.667 0 -82.834 -15.833 -108.501 -47.5s-38.5 -74.5 -38.5 -128.5s12.833 -96.833 38.5 -128.5s61.834 -47.5 108.501 -47.5
c24.667 0 45.667 3.83301 63 11.5s31.666 17.667 42.999 30s20.166 26.666 26.499 42.999s10.833 33.166 13.5 50.499l163 -7c-2.66699 -39.333 -11.334 -76 -26.001 -110s-34.834 -63.5 -60.501 -88.5s-57 -44.667 -94 -59s-79.5 -21.5 -127.5 -21.5
c-46 0 -88.667 8 -128 24s-73.5 38.333 -102.5 67s-51.667 63 -68 103s-24.5 84.333 -24.5 133z" />
    <glyph glyph-name="D" unicode="D" horiz-adv-x="655" 
d="M285 134c55.333 0 98.333 15.668 129 47.001s46 76.333 46 135c0 57.333 -15.333 101.666 -46 132.999s-73.667 47 -129 47h-67v-362h67zM48 630.001h249c52 0 99 -7.16699 141 -21.5s77.5 -35 106.5 -62s51.333 -60 67 -99s23.5 -83.167 23.5 -132.5
s-7.83301 -93.5 -23.5 -132.5s-38 -72 -67 -99s-64.5 -47.667 -106.5 -62s-89 -21.5 -141 -21.5h-249v630z" />
    <glyph glyph-name="E" unicode="E" horiz-adv-x="572" 
d="M544 0h-496v630h487v-140h-320v-103h247v-138h-247v-109h329v-140z" />
    <glyph glyph-name="F" unicode="F" horiz-adv-x="549" 
d="M48 0v630h476v-140h-306v-121h230v-138h-230v-231h-170z" />
    <glyph glyph-name="G" unicode="G" horiz-adv-x="700" 
d="M326 -12c-43.333 0 -83.668 7.83203 -121.001 23.499s-69.666 37.834 -96.999 66.501s-48.833 63.167 -64.5 103.5s-23.5 84.833 -23.5 133.5s8.33301 93 25 133s39.667 74.333 69 103s63.833 51 103.5 67s82.167 24 127.5 24c46 0 87.333 -6 124 -18s68 -29.333 94 -52
s46.5 -49.834 61.5 -81.501s24.167 -67.167 27.5 -106.5l-165 -6c-4.66699 34.667 -18.667 62.167 -42 82.5s-55.333 30.5 -96 30.5c-50 0 -88.167 -15.833 -114.5 -47.5s-39.5 -74.5 -39.5 -128.5c0 -55.333 14.167 -99.666 42.5 -132.999s69.833 -50 124.5 -50
c28 0 54.167 5.83301 78.5 17.5s42.833 30.167 55.5 55.5h-139v122h300v-327h-148v70c-17.333 -29.333 -42 -50.333 -74 -63s-68.333 -19 -109 -19z" />
    <glyph glyph-name="H" unicode="H" horiz-adv-x="687" 
d="M48 0v630h170v-243h251v243h170v-630h-170v249h-251v-249h-170z" />
    <glyph glyph-name="I" unicode="I" horiz-adv-x="266" 
d="M218 630v-630h-170v630h170z" />
    <glyph glyph-name="J" unicode="J" horiz-adv-x="563" 
d="M524 630v-401.002c0 -42 -6.33301 -78.333 -19 -109s-30.334 -55.667 -53.001 -75s-49.667 -33.666 -81 -42.999s-65.666 -14 -102.999 -14c-81.333 0 -144.833 22.333 -190.5 67s-68.834 109.334 -69.501 194.001l164 6c2 -40 10.5 -70.5 25.5 -91.5
s38.167 -31.5 69.5 -31.5c30.667 0 52.834 9 66.501 27s20.5 46.333 20.5 85v386h170z" />
    <glyph glyph-name="K" unicode="K" horiz-adv-x="641" 
d="M448 0l-175 251l-55 -60v-191h-170v630h170v-255l226 255h195l-243 -268l255 -362h-203z" />
    <glyph glyph-name="L" unicode="L" horiz-adv-x="555" 
d="M218 630v-490h312v-140h-482v630h170z" />
    <glyph glyph-name="M" unicode="M" horiz-adv-x="801" 
d="M321 0l-113 443h-4v-443h-156v630h263l93 -396h3l89 396h257v-630h-170v443h-4l-113 -443h-145z" />
    <glyph glyph-name="N" unicode="N" horiz-adv-x="660" 
d="M456 281v349h156v-630h-136l-272 373v-373h-156v630h162z" />
    <glyph glyph-name="O" unicode="O" horiz-adv-x="694" 
d="M674 315c0 -48.667 -8.5 -93 -25.5 -133s-40.167 -74.333 -69.5 -103s-63.833 -51 -103.5 -67s-82.5 -24 -128.5 -24s-88.833 8 -128.5 24s-74.167 38.333 -103.5 67s-52.5 63 -69.5 103s-25.5 84.333 -25.5 133s8.5 93 25.5 133s40.167 74.333 69.5 103
s63.833 51 103.5 67s82.5 24 128.5 24s88.833 -8 128.5 -24s74.167 -38.333 103.5 -67s52.5 -63 69.5 -103s25.5 -84.333 25.5 -133zM499 315c0 54 -13.667 97 -41 129s-64.333 48 -111 48s-83.667 -16 -111 -48s-41 -75 -41 -129s13.667 -97 41 -129s64.333 -48 111 -48
s83.667 16 111 48s41 75 41 129z" />
    <glyph glyph-name="P" unicode="P" horiz-adv-x="593" 
d="M317 333c38 0 65 6.66602 81 19.999s24 33.333 24 60s-8 46.834 -24 60.501s-43 20.5 -81 20.5h-100v-161h100zM217 -0.000976562h-169v630h277c83.333 0 147.666 -18.5 192.999 -55.5s68 -90.5 68 -160.5c0 -70.667 -22.667 -124.5 -68 -161.5
s-109.666 -55.5 -192.999 -55.5h-108v-197z" />
    <glyph glyph-name="Q" unicode="Q" horiz-adv-x="694" 
d="M674 315c0 -44.667 -7.49902 -85.832 -22.499 -123.499s-35.833 -70.834 -62.5 -99.501l52 -61l-92 -72l-53 63c-46.667 -22.667 -96.334 -34 -149.001 -34c-46 0 -88.833 8 -128.5 24s-74.167 38.333 -103.5 67s-52.5 63 -69.5 103s-25.5 84.333 -25.5 133
s8.5 93 25.5 133s40.167 74.333 69.5 103s63.833 51 103.5 67s82.5 24 128.5 24s88.833 -8 128.5 -24s74.167 -38.333 103.5 -67s52.5 -63 69.5 -103s25.5 -84.333 25.5 -133zM501.001 315.002c0 54 -14 97 -42 129s-65.333 48 -112 48s-83.667 -16 -111 -48
s-41 -75 -41 -129c0 -26.667 3.5 -51 10.5 -73s17.167 -41 30.5 -57s29.333 -28.333 48 -37s39.667 -13 63 -13c9.33301 0 18 0.333008 26 1s15.667 2 23 4l-60 72l89 74l58 -70c12 27.333 18 60.333 18 99z" />
    <glyph glyph-name="R" unicode="R" horiz-adv-x="637" 
d="M447 0c-12.667 16 -21.333 56.332 -26 120.999c-2.66699 36 -11.667 59.667 -27 71s-37.333 17 -66 17h-113v-209h-167v630h318c82 0 143.167 -17.833 183.5 -53.5s60.5 -84.5 60.5 -146.5c0 -46 -12.667 -83.167 -38 -111.5s-57.333 -45.166 -96 -50.499
c32.667 -6.66699 58.334 -19.667 77.001 -39s29.667 -47.333 33 -84c2 -23.333 4 -43 6 -59s4 -29.333 6 -40s4.66699 -19.5 8 -26.5s7.66602 -13.5 12.999 -19.5h-172zM336.001 339.999c36 0 63 5.33301 81 16s27 30.667 27 60c0 52 -36 78 -108 78h-121v-154h121z" />
    <glyph glyph-name="S" unicode="S" horiz-adv-x="606" 
d="M176 228c1.33301 -20 6.00098 -36.6699 14.001 -50.0029s18.167 -24.166 30.5 -32.499s26.5 -14.333 42.5 -18s32.667 -5.5 50 -5.5c30 0 53.667 5 71 15s26 23.667 26 41c0 18.667 -8.16699 30.834 -24.5 36.501s-36.5 10.834 -60.5 15.501l-115 20
c-51.333 9.33301 -93.333 29.166 -126 59.499s-49 72.833 -49 127.5c0 32 6 60.667 18 86s29.167 46.833 51.5 64.5s49.333 31.167 81 40.5s67.167 14 106.5 14c87.333 0 154 -19.833 200 -59.5s69.667 -94.834 71 -165.501l-156 -3c-2.66699 32.667 -14.667 56.667 -36 72
s-48.333 23 -81 23c-28 0 -49.667 -5.16699 -65 -15.5s-23 -24.166 -23 -41.499c0 -14.667 5.66699 -25.334 17 -32.001s26.666 -11.667 45.999 -15l119 -21c66.667 -11.333 115.334 -33.666 146.001 -66.999s46 -76 46 -128c0 -33.333 -6.83301 -62.666 -20.5 -87.999
s-32.334 -46.333 -56.001 -63s-51.5 -29.167 -83.5 -37.5s-66.333 -12.5 -103 -12.5c-42.667 0 -82 5.16699 -118 15.5s-67 25.333 -93 45s-46.167 44.167 -60.5 73.5s-21.5 63 -21.5 101z" />
    <glyph glyph-name="T" unicode="T" horiz-adv-x="654" 
d="M241 0v490h-216v140h604v-140h-219v-490h-169z" />
    <glyph glyph-name="U" unicode="U" horiz-adv-x="660" 
d="M330 -12c-40.667 0 -78.3301 5 -112.997 15s-64.834 25.667 -90.501 47s-45.834 48.5 -60.501 81.5s-22 72.5 -22 118.5v380h169v-352c0 -48 8.5 -84.5 25.5 -109.5s47.5 -37.5 91.5 -37.5s74.5 12.5 91.5 37.5s25.5 61.5 25.5 109.5v352h170v-380
c0 -46 -7.33301 -85.5 -22 -118.5s-34.834 -60.167 -60.501 -81.5s-56 -37 -91 -47s-72.833 -15 -113.5 -15z" />
    <glyph glyph-name="V" unicode="V" horiz-adv-x="663" 
d="M242 0l-242 630h178l156 -419h4l156 419h169l-242 -630h-179z" />
    <glyph glyph-name="W" unicode="W" horiz-adv-x="903" 
d="M635 235h4l100 395h164l-165 -630h-181l-105 398h-4l-105 -398h-178l-165 630h170l100 -395h4l104 395h153z" />
    <glyph glyph-name="X" unicode="X" horiz-adv-x="676" 
d="M434 332l242 -332h-199l-146 201l-144 -201h-187l242 322l-224 308h199l127 -177l127 177h187z" />
    <glyph glyph-name="Y" unicode="Y" horiz-adv-x="649" 
d="M466 630h183l-242 -391v-239h-165v239l-242 391h189l142 -227z" />
    <glyph glyph-name="Z" unicode="Z" horiz-adv-x="594" 
d="M564 140v-140h-534v129l310 361h-307v140h523v-132l-312 -358h320z" />
    <glyph glyph-name="bracketleft" unicode="[" horiz-adv-x="324" 
d="M214 27h90v-111h-234v744h234v-111h-90v-522z" />
    <glyph glyph-name="backslash" unicode="\" horiz-adv-x="369" 
d="M389 -83h-149l-240 742h149z" />
    <glyph glyph-name="bracketright" unicode="]" horiz-adv-x="324" 
d="M110 549h-90v111h234v-744h-234v111h90v522z" />
    <glyph glyph-name="asciicircum" unicode="^" horiz-adv-x="408" 
d="M290 630l108 -210h-145l-49 109l-49 -109h-145l108 210h172z" />
    <glyph glyph-name="underscore" unicode="_" horiz-adv-x="381" 
d="M20 -28h341v-123h-341v123z" />
    <glyph glyph-name="grave" unicode="`" 
d="M240 488l-97 142h159l54 -142h-116z" />
    <glyph glyph-name="a" unicode="a" horiz-adv-x="527" 
d="M302 193l-65.999 -12c-19.333 -4 -34.5 -9.5 -45.5 -16.5s-16.5 -17.833 -16.5 -32.5c0 -11.333 4.16699 -20.5 12.5 -27.5s19.166 -10.5 32.499 -10.5c23.333 0 43 8 59 24s24 38.667 24 68v7zM461.001 131c0 -22 9 -33.001 27 -33.001c12 0 24 2.33301 36 7v-86
c-11.333 -8 -25.166 -14.833 -41.499 -20.5s-36.166 -8.5 -59.499 -8.5c-28 0 -52 6.83301 -72 20.5s-33.667 33.167 -41 58.5c-26 -52.667 -75.333 -79 -148 -79c-44 0 -79 10.667 -105 32s-39 51 -39 89c0 43.333 14.333 75.333 43 96s67.334 35.334 116.001 44.001
l125 21v7c0 18.667 -4.5 33.167 -13.5 43.5s-23.167 15.5 -42.5 15.5c-18 0 -31.833 -5.16699 -41.5 -15.5s-16.167 -23.833 -19.5 -40.5l-150 10c7.33301 49.333 29.166 89.333 65.499 120s88.166 46 155.499 46c29.333 0 56.5 -3.33301 81.5 -10s46.667 -17 65 -31
s32.666 -32 42.999 -54s15.5 -48.667 15.5 -80v-152z" />
    <glyph glyph-name="b" unicode="b" horiz-adv-x="571" 
d="M206 220c0 -32.667 8 -58.667 24 -78s38 -29 66 -29c32 0 55.333 10.167 70 30.5s22 46.833 22 79.5c0 32 -7.33301 58.167 -22 78.5s-38 30.5 -70 30.5c-28 0 -50 -9.66699 -66 -29s-24 -45 -24 -77v-6zM169 0l-125.001 0.00195312v630h162v-261
c11.333 26.667 29.166 48.167 53.499 64.5s55.5 24.5 93.5 24.5c32.667 0 61.334 -6.16699 86.001 -18.5s45.334 -29 62.001 -50s29.167 -45.833 37.5 -74.5s12.5 -59.334 12.5 -92.001s-4.16699 -63.334 -12.5 -92.001s-20.833 -53.667 -37.5 -75s-37.667 -38 -63 -50
s-54.666 -18 -87.999 -18c-36 0 -67.333 8 -94 24s-46.334 37.667 -59.001 65z" />
    <glyph glyph-name="c" unicode="c" horiz-adv-x="502" 
d="M20 223c0 35.333 6.16699 67.5039 18.5 96.5039s29.333 53.667 51 74s47.334 36.166 77.001 47.499s62.167 17 97.5 17c33.333 0 63 -5.16699 89 -15.5s48.333 -24.166 67 -41.499s33.334 -37.833 44.001 -61.5s17.334 -48.834 20.001 -75.501l-133 -9
c-10.667 54 -39 81 -85 81c-24.667 0 -44.667 -8.83301 -60 -26.5s-23 -46.5 -23 -86.5s7.66699 -68.833 23 -86.5s35.333 -26.5 60 -26.5c46 0 74.333 27.333 85 82l133 -10c-2.66699 -26.667 -9.33398 -51.834 -20.001 -75.501s-25.334 -44.334 -44.001 -62.001
s-41 -31.5 -67 -41.5s-55.667 -15 -89 -15c-35.333 0 -67.833 5.66699 -97.5 17s-55.334 27.166 -77.001 47.499s-38.667 45 -51 74s-18.5 61.167 -18.5 96.5z" />
    <glyph glyph-name="d" unicode="d" horiz-adv-x="570" 
d="M364 226c0 32 -8 57.667 -24 77s-37.667 29 -65 29c-32 0 -55.333 -10.167 -70 -30.5s-22 -46.5 -22 -78.5c0 -32.667 7.33301 -59.167 22 -79.5s38 -30.5 70 -30.5c27.333 0 49 9.66699 65 29s24 45.333 24 78v6zM364 76c-10.667 -26 -28.334 -47.1689 -53.001 -63.502
s-55.667 -24.5 -93 -24.5c-32.667 0 -61.5 6 -86.5 18s-45.667 28.667 -62 50s-28.666 46.333 -36.999 75s-12.5 59.334 -12.5 92.001s4.16699 63.334 12.5 92.001s20.666 53.5 36.999 74.5s37 37.667 62 50s53.833 18.5 86.5 18.5c37.333 0 68.333 -8.16699 93 -24.5
s42.334 -37.833 53.001 -64.5v261h162v-630h-162v76z" />
    <glyph glyph-name="e" unicode="e" horiz-adv-x="513" 
d="M488 147c-11.333 -51.333 -36.501 -90.666 -75.501 -117.999s-88.167 -41 -147.5 -41c-36 0 -69 5.16699 -99 15.5s-55.833 25.333 -77.5 45s-38.5 43.667 -50.5 72s-18 60.166 -18 95.499s6.16699 67.833 18.5 97.5s29.333 55.167 51 76.5s47.334 38 77.001 50
s61.834 18 96.501 18c37.333 0 70.166 -6 98.499 -18s52.166 -28.167 71.499 -48.5s33.833 -44 43.5 -71s14.5 -55.5 14.5 -85.5v-45h-313c2 -28 11.833 -48.5 29.5 -61.5s38.834 -19.5 63.501 -19.5c44 0 73 16.667 87 50zM336.999 268
c-1.33301 20 -8.33398 37.333 -21.001 52s-31 22 -55 22c-26 0 -45.167 -7 -57.5 -21s-20.166 -31.667 -23.499 -53h157z" />
    <glyph glyph-name="f" unicode="f" horiz-adv-x="327" 
d="M-2 334l-0.000976562 111.999h64v19c0 58.667 16.333 102.834 49 132.501s76 44.5 130 44.5c42 0 76.833 -10 104.5 -30s46.167 -48.667 55.5 -86l-99 -31c-5.33301 10 -11.166 17.667 -17.499 23s-14.833 8 -25.5 8c-13.333 0 -22.833 -4.83301 -28.5 -14.5
s-8.5 -21.5 -8.5 -35.5v-30h113v-112h-113v-334h-160v334h-64z" />
    <glyph glyph-name="g" unicode="g" horiz-adv-x="517" 
d="M465 305c0 -23.333 -5.33105 -44.5068 -15.998 -63.5068s-25.667 -35 -45 -48s-42.333 -23 -69 -30s-55.667 -10.5 -87 -10.5c-36.667 0 -69 4.33301 -97 13c-6 -4.66699 -9 -11.667 -9 -21c0 -7.33301 3 -13.666 9 -18.999s15.667 -8 29 -8h185
c50.667 0 88.667 -11.833 114 -35.5s38 -54.5 38 -92.5c0 -28 -7.83301 -52.167 -23.5 -72.5s-36.5 -37.166 -62.5 -50.499s-55.833 -23.166 -89.5 -29.499s-68.5 -9.5 -104.5 -9.5c-32 0 -62.333 1.66699 -91 5s-53.834 9.33301 -75.501 18s-38.834 19.834 -51.501 33.501
s-19 31.167 -19 52.5c-0 19.333 7.83301 36 23.5 50s36.167 22 61.5 24c-20 6.66699 -35.667 18 -47 34s-17 33.667 -17 53c0 21.333 6.66699 40 20 56s32 28.667 56 38c-20 13.333 -35.667 29.333 -47 48s-17 40.334 -17 65.001c0 24 5.33301 45.333 16 64
s25.5 34.667 44.5 48s41.667 23.5 68 30.5s55.166 10.5 86.499 10.5c27.333 0 53.166 -3.16699 77.499 -9.5s46.166 -15.166 65.499 -26.499c13.333 18.667 31.333 34.834 54 48.501s46.334 20.5 71.001 20.5v-122c-9.33301 0 -19.666 -0.5 -30.999 -1.5
s-22.666 -2.83301 -33.999 -5.5c9.33301 -17.333 14 -36.333 14 -57zM133.002 -47.0068c0 -16 9.99902 -26.8311 29.999 -32.498s45 -8.5 75 -8.5c38 0 69.167 3.66699 93.5 11s36.5 17.666 36.5 30.999c0 17.333 -13.667 26 -41 26h-164
c-9.33301 0 -16.666 -2.33301 -21.999 -7s-8 -11.334 -8 -20.001zM297.001 304.995c0 19.333 -4.5 34.833 -13.5 46.5s-20.167 17.5 -33.5 17.5s-24.5 -5.83301 -33.5 -17.5s-13.5 -27.167 -13.5 -46.5c0 -20 4.5 -35.833 13.5 -47.5s20.167 -17.5 33.5 -17.5
s24.5 5.83301 33.5 17.5s13.5 27.5 13.5 47.5z" />
    <glyph glyph-name="h" unicode="h" horiz-adv-x="550" 
d="M206 0l-161.999 -0.000976562v630h162v-251c12 24.667 30.5 44 55.5 58s54.5 21 88.5 21c30.667 0 56.334 -4.83301 77.001 -14.5s37.167 -22.834 49.5 -39.501s21.166 -35.667 26.499 -57s8 -43.666 8 -66.999v-280h-162v237c0 30.667 -4.83301 53.834 -14.5 69.501
s-26.834 23.5 -51.501 23.5c-28 0 -47.833 -10 -59.5 -30s-17.5 -47 -17.5 -81v-219z" />
    <glyph glyph-name="i" unicode="i" horiz-adv-x="250" 
d="M206 446v-446h-162v446h162zM43 630h164v-142h-164v142z" />
    <glyph glyph-name="j" unicode="j" horiz-adv-x="250" 
d="M206 -15c0 -55.333 -14.833 -95.332 -44.5 -119.999s-70.5 -37 -122.5 -37c-25.333 0 -49.333 2.66699 -72 8s-41.334 13.333 -56.001 24l25 98c11.333 -7.33301 22.333 -12.333 33 -15s21.334 -4 32.001 -4c14 0 24.667 4.16699 32 12.5s11 22.166 11 41.499v453h162
v-461zM43 630.001h164v-142h-164v142z" />
    <glyph glyph-name="k" unicode="k" horiz-adv-x="547" 
d="M206 0h-162v630h162v-338l153 154h190l-184 -175l190 -271h-182l-128 181l-39 -40v-141z" />
    <glyph glyph-name="l" unicode="l" horiz-adv-x="250" 
d="M206 630v-630h-162v630h162z" />
    <glyph glyph-name="m" unicode="m" horiz-adv-x="834" 
d="M484 370c12 25.333 30.835 46.3311 56.502 62.998s57.5 25 95.5 25c30.667 0 56.167 -4.83301 76.5 -14.5s36.666 -22.834 48.999 -39.501s21 -35.667 26 -57s7.5 -43.666 7.5 -66.999v-280h-162v237c0 30.667 -3.83301 53.834 -11.5 69.501s-23.834 23.5 -48.501 23.5
c-27.333 0 -46.166 -10 -56.499 -30s-15.5 -47 -15.5 -81v-219h-162v237c0 30.667 -4 53.834 -12 69.501s-24.333 23.5 -49 23.5c-26.667 0 -45.334 -10 -56.001 -30s-16 -47 -16 -81v-219h-162v446h162v-67c12 24.667 29.667 44 53 58s52 21 86 21
c40 0 70.833 -8.16699 92.5 -24.5s37.167 -37.5 46.5 -63.5z" />
    <glyph glyph-name="n" unicode="n" horiz-adv-x="550" 
d="M206 0l-161.999 -0.000976562v446h162v-67c12 24.667 30.5 44 55.5 58s54.5 21 88.5 21c30.667 0 56.334 -4.83301 77.001 -14.5s37.167 -22.834 49.5 -39.501s21.166 -35.667 26.499 -57s8 -43.666 8 -66.999v-280h-162v237c0 30.667 -4.83301 53.834 -14.5 69.501
s-26.834 23.5 -51.501 23.5c-28 0 -47.833 -10 -59.5 -30s-17.5 -47 -17.5 -81v-219z" />
    <glyph glyph-name="o" unicode="o" horiz-adv-x="528" 
d="M183 223c0 -34 6.33301 -61.333 19 -82s33.334 -31 62.001 -31c28 0 48.5 10.333 61.5 31s19.5 48 19.5 82s-6.5 61.333 -19.5 82s-33.5 31 -61.5 31c-28.667 0 -49.334 -10.333 -62.001 -31s-19 -48 -19 -82zM508 223c0 -34.667 -5.83301 -66.5 -17.5 -95.5
s-28.334 -53.833 -50.001 -74.5s-47.5 -36.667 -77.5 -48s-63 -17 -99 -17c-36.667 0 -70 5.66699 -100 17s-55.667 27.333 -77 48s-37.833 45.5 -49.5 74.5s-17.5 60.833 -17.5 95.5s5.83301 66.334 17.5 95.001s28.167 53.334 49.5 74.001s47 36.834 77 48.501
s63.333 17.5 100 17.5c36 0 69 -5.83301 99 -17.5s55.833 -27.834 77.5 -48.501s38.334 -45.334 50.001 -74.001s17.5 -60.334 17.5 -95.001z" />
    <glyph glyph-name="p" unicode="p" horiz-adv-x="571" 
d="M206 220c0 -32.667 8 -58.667 24 -78s38 -29 66 -29c32 0 55.333 10.167 70 30.5s22 46.833 22 79.5c0 32 -7.33301 58.167 -22 78.5s-38 30.5 -70 30.5c-28 0 -50 -9.66699 -66 -29s-24 -45 -24 -77v-6zM206 -160l-162 0.00195312v606h162v-77
c11.333 26.667 29.166 48.167 53.499 64.5s55.5 24.5 93.5 24.5c32.667 0 61.334 -6.16699 86.001 -18.5s45.334 -29 62.001 -50s29.167 -45.833 37.5 -74.5s12.5 -59.334 12.5 -92.001s-4.16699 -63.334 -12.5 -92.001s-20.833 -53.667 -37.5 -75s-37.334 -38 -62.001 -50
s-53.334 -18 -86.001 -18c-38 0 -69.167 8.16699 -93.5 24.5s-42.166 37.5 -53.499 63.5v-236z" />
    <glyph glyph-name="q" unicode="q" horiz-adv-x="570" 
d="M364 226c0 32 -8 57.667 -24 77s-37.667 29 -65 29c-32 0 -55.333 -10.167 -70 -30.5s-22 -46.5 -22 -78.5c0 -32.667 7.33301 -59.167 22 -79.5s38 -30.5 70 -30.5c27.333 0 49 9.66699 65 29s24 45.333 24 78v6zM364 76c-10.667 -26 -28.334 -47.1689 -53.001 -63.502
s-55.667 -24.5 -93 -24.5c-32.667 0 -61.5 6 -86.5 18s-45.667 28.667 -62 50s-28.666 46.333 -36.999 75s-12.5 59.334 -12.5 92.001s4.16699 63.334 12.5 92.001s20.666 53.5 36.999 74.5s37 37.667 62 50s53.833 18.5 86.5 18.5c37.333 0 68.333 -8.16699 93 -24.5
s42.334 -37.833 53.001 -64.5v77h162v-606h-162v236z" />
    <glyph glyph-name="r" unicode="r" horiz-adv-x="396" 
d="M380 288c-21.333 12.667 -46.998 19 -76.998 19s-53.667 -7.66699 -71 -23s-26 -42 -26 -80v-204h-162v446h162v-79c8 25.333 22.833 46.833 44.5 64.5s47.5 26.5 77.5 26.5c13.333 0 25.666 -1.66699 36.999 -5s19.666 -7.33301 24.999 -12z" />
    <glyph glyph-name="s" unicode="s" horiz-adv-x="461" 
d="M153 147c6 -38.667 34.332 -58.002 84.999 -58.002c18 0 31.667 2.83301 41 8.5s14 13.167 14 22.5c0 8.66699 -3 15.834 -9 21.501s-16.667 9.83398 -32 12.501l-66 10c-54 8.66699 -95 23.334 -123 44.001s-42 53.667 -42 99c0 44 18 80.167 54 108.5
s85.333 42.5 148 42.5c64.667 0 115.334 -13.333 152.001 -40s57.334 -63.334 62.001 -110.001l-133 -4c-3.33301 16 -11.833 28.667 -25.5 38s-33.167 14 -58.5 14c-32.667 0 -49 -10.667 -49 -32c0 -7.33301 2.66699 -13 8 -17s11.666 -6.66699 18.999 -8l87 -15
c50 -8 88.833 -23.667 116.5 -47s41.5 -57 41.5 -101c0 -47.333 -18.5 -83.833 -55.5 -109.5s-87.5 -38.5 -151.5 -38.5c-30.667 0 -59.167 3.16699 -85.5 9.5s-49.333 15.833 -69 28.5s-35.667 29 -48 49s-19.5 43.333 -21.5 70z" />
    <glyph glyph-name="t" unicode="t" horiz-adv-x="358" 
d="M60 334l-59.998 0.00195312v100l33 5c22.667 3.33301 38.667 11 48 23s16.666 28.333 21.999 49l15 58h102v-123h116v-112h-116v-163c0 -19.333 4.33301 -33 13 -41s21.334 -12 38.001 -12c10 0 20.667 1.16699 32 3.5s23.666 6.16602 36.999 11.499v-105
c-17.333 -12.667 -36.333 -22.5 -57 -29.5s-46.334 -10.5 -77.001 -10.5c-18.667 0 -36.834 2.16699 -54.501 6.5s-33.167 11.666 -46.5 21.999s-24.166 24.333 -32.499 42s-12.5 39.5 -12.5 65.5v210z" />
    <glyph glyph-name="u" unicode="u" horiz-adv-x="544" 
d="M338 446l161.998 0.00195312v-446h-162v67c-12 -25.333 -29.833 -44.833 -53.5 -58.5s-52.5 -20.5 -86.5 -20.5c-30.667 0 -56.167 4.83301 -76.5 14.5s-36.666 22.667 -48.999 39s-21 35.166 -26 56.499s-7.5 43.666 -7.5 66.999v281h162v-238
c0 -30 4.83301 -53 14.5 -69s26.834 -24 51.501 -24c25.333 0 43.5 10.167 54.5 30.5s16.5 47.5 16.5 81.5v219z" />
    <glyph glyph-name="v" unicode="v" horiz-adv-x="521" 
d="M164 0l-166 446h170l97 -277h4l97 277h157l-166 -446h-193z" />
    <glyph glyph-name="w" unicode="w" horiz-adv-x="730" 
d="M502 193h4l80 253h146l-141 -446h-159l-65 252h-4l-65 -252h-159l-141 446h161l80 -253h4l65 253h129z" />
    <glyph glyph-name="x" unicode="x" horiz-adv-x="520" 
d="M346 234l176 -234h-179l-89 121l-89 -121h-167l175 227l-161 219h179l74 -106l76 106h167z" />
    <glyph glyph-name="y" unicode="y" horiz-adv-x="529" 
d="M116 -160l64 154l-182 452h170l99 -261h4l101 261h159l-256 -606h-159z" />
    <glyph glyph-name="z" unicode="z" horiz-adv-x="452" 
d="M30 329v117h391v-110l-201 -219h206v-117h-400v111l198 218h-194z" />
    <glyph glyph-name="braceleft" unicode="{" horiz-adv-x="343" 
d="M35 343l25 -0.000976562c20.667 0 33.667 5.16699 39 15.5s8 29.5 8 57.5v106c0 46.667 12.167 81.334 36.5 104.001s56.5 34 96.5 34h83v-111h-40c-15.333 0 -24.333 -3.83301 -27 -11.5s-4 -16.167 -4 -25.5v-106c0 -36 -6.33301 -63.333 -19 -82s-35 -30.667 -67 -36
c32 -5.33301 54.333 -17.333 67 -36s19 -46.334 19 -83.001v-105c0 -9.33301 1.33301 -17.833 4 -25.5s11.667 -11.5 27 -11.5h40v-111h-83c-40 0 -72.167 11.333 -96.5 34s-36.5 57.334 -36.5 104.001v106c0 28 -2.66699 47.167 -8 57.5s-18.333 15.5 -39 15.5h-25v110z
" />
    <glyph glyph-name="bar" unicode="|" horiz-adv-x="237" 
d="M48 659h141v-742h-141v742z" />
    <glyph glyph-name="braceright" unicode="}" horiz-adv-x="343" 
d="M308 233l-25 0.000976562c-20.667 0 -33.667 -5.16699 -39 -15.5s-8 -29.5 -8 -57.5v-106c0 -46.667 -12.167 -81.334 -36.5 -104.001s-56.5 -34 -96.5 -34h-83v111h40c15.333 0 24.333 3.83301 27 11.5s4 16.167 4 25.5v105c0 36.667 6.33301 64.334 19 83.001
s35 30.667 67 36c-32 5.33301 -54.333 17.333 -67 36s-19 46 -19 82v106c0 9.33301 -1.33301 17.833 -4 25.5s-11.667 11.5 -27 11.5h-40v111h83c40 0 72.167 -11.333 96.5 -34s36.5 -57.334 36.5 -104.001v-106c0 -28 2.66699 -47.167 8 -57.5s18.333 -15.5 39 -15.5h25
v-110z" />
    <glyph glyph-name="asciitilde" unicode="~" horiz-adv-x="404" 
d="M35 204c0 46.667 8.33301 84.833 25 114.5s41.334 44.5 74.001 44.5c12.667 0 24.167 -2.16699 34.5 -6.5s20 -9 29 -14s17.833 -9.66699 26.5 -14s17.667 -6.5 27 -6.5c8.66699 0 16.5 2.66699 23.5 8s11.167 15.333 12.5 30h82c0 -47.333 -8.33301 -85.833 -25 -115.5
s-41.334 -44.5 -74.001 -44.5c-12.667 0 -24.167 2.16699 -34.5 6.5s-20 9 -29 14s-17.833 9.66699 -26.5 14s-17.667 6.5 -27 6.5c-8.66699 0 -16.5 -2.66699 -23.5 -8s-11.167 -15 -12.5 -29h-82z" />
    <glyph glyph-name="exclamdown" unicode="&#xa1;" horiz-adv-x="232" 
d="M30 518h172v-172h-172v172zM30 -112v162l34 258h104l34 -258v-162h-172z" />
    <glyph glyph-name="cent" unicode="&#xa2;" horiz-adv-x="520" 
d="M236 -10c-32 2.66699 -61.332 10.1709 -87.999 22.5039s-49.5 28.666 -68.5 48.999s-33.667 44.166 -44 71.499s-15.5 57.333 -15.5 90s5.16699 62.667 15.5 90s25 51 44 71s41.833 36.333 68.5 49s56 20.334 88 23.001v82h84v-85
c27.333 -4.66699 51.666 -12.834 72.999 -24.501s39.666 -25.834 54.999 -42.501s27.5 -35.334 36.5 -56.001s14.833 -42.667 17.5 -66l-131 -7c-8 36.667 -25 61.667 -51 75v-218c12.667 7.33301 23.334 17 32.001 29s15 27.667 19 47l131 -8
c-5.33301 -47.333 -23.5 -88.333 -54.5 -123s-73.5 -56.667 -127.5 -66v-86h-84v83zM177.001 223.004c0 -33.333 5.33301 -59.167 16 -77.5s25 -30.833 43 -37.5v230c-18 -6 -32.333 -18.167 -43 -36.5s-16 -44.5 -16 -78.5z" />
    <glyph glyph-name="sterling" unicode="&#xa3;" horiz-adv-x="616" 
d="M277 440c0 -17.333 1.99805 -32.666 5.99805 -45.999s8.66699 -26 14 -38h118v-91h-83c1.33301 -6.66699 2.33301 -13.5 3 -20.5s1 -14.5 1 -22.5c0 -23.333 -2.66699 -46.666 -8 -69.999c11.333 -4.66699 22.5 -8.33398 33.5 -11.001s22.833 -4 35.5 -4
c30 0 50.833 5.66699 62.5 17s17.5 33.333 17.5 66l116 -6c4 -40.667 3.16699 -75.334 -2.5 -104.001s-15.334 -52 -29.001 -70s-31 -31.167 -52 -39.5s-44.833 -12.5 -71.5 -12.5c-35.333 0 -66.666 5.33301 -93.999 16s-51.666 23.334 -72.999 38.001
c-34.667 -36 -79 -54 -133 -54c-38 0 -68.833 11.167 -92.5 33.5s-35.5 52.5 -35.5 90.5c0 36 11.833 64.5 35.5 85.5s54.167 31.5 91.5 31.5c9.33301 0 18.5 -0.833008 27.5 -2.5s18.167 -3.83398 27.5 -6.50098c-1.33301 8.66699 -3.16602 16.5 -5.49902 23.5
s-5.16602 14.167 -8.49902 21.5h-122v91h65c-7.33301 12 -13 25.167 -17 39.5s-6 30.833 -6 49.5c0 30 5.83301 57.167 17.5 81.5s27.667 45 48 62s44.5 30.167 72.5 39.5s58.333 14 91 14c39.333 0 74 -5.5 104 -16.5s55.167 -26.833 75.5 -47.5
s35.666 -45.334 45.999 -74.001s15.5 -60.667 15.5 -96l-142 -7c-1.33301 34 -9.33301 60.5 -24 79.5s-35 28.5 -61 28.5c-20.667 0 -36.5 -6.16699 -47.5 -18.5s-16.5 -29.166 -16.5 -50.499zM139.998 83c18.667 0 32.667 10.668 42 32.001
c-8.66699 6.66699 -16.667 12 -24 16s-14.333 6 -21 6c-19.333 0 -29 -9 -29 -27c0 -8.66699 3.16699 -15.334 9.5 -20.001s13.833 -7 22.5 -7z" />
    <glyph glyph-name="yen" unicode="&#xa5;" horiz-adv-x="649" 
d="M68 348h111l-179 282h189l142 -227l135 227h183l-179 -282h111v-99h-174v-49h174v-99h-174v-101h-165v101h-174v99h174v49h-174v99z" />
    <glyph glyph-name="section" unicode="&#xa7;" horiz-adv-x="520" 
d="M500 247c0 -23.333 -6 -45.1689 -18 -65.502s-26.667 -37.5 -44 -51.5c7.33301 -9.33301 13 -20 17 -32s6 -25.667 6 -41c0 -44 -18 -80.167 -54 -108.5s-85.333 -42.5 -148 -42.5c-64.667 0 -115.334 13.333 -152.001 40s-57.334 63.334 -62.001 110.001l133 4
c3.33301 -16 11.833 -28.667 25.5 -38s33.167 -14 58.5 -14c13.333 0 24.833 3.33301 34.5 10s14.5 16.667 14.5 30c0 7.33301 -2.83301 14.333 -8.5 21s-16.5 13.334 -32.5 20.001l-103 40c-47.333 18.667 -83.666 41 -108.999 67s-38 61 -38 105
c0 22.667 5.83301 44.334 17.5 65.001s26.5 37.667 44.5 51c-15.333 20.667 -23 45.334 -23 74.001c0 44 18 80.167 54 108.5s85.333 42.5 148 42.5c64.667 0 115.334 -13.333 152.001 -40s57.334 -63.334 62.001 -110.001l-133 -4c-3.33301 16 -11.833 28.667 -25.5 38
s-33.167 14 -58.5 14c-13.333 0 -24.833 -3.33301 -34.5 -10s-14.5 -16.667 -14.5 -30c0 -7.33301 2.83301 -14.333 8.5 -21s16.5 -13.334 32.5 -20.001l103 -40c47.333 -18.667 83.666 -41 108.999 -67s38 -61 38 -105zM192 340.997c-5.33301 2 -11 4.66699 -17 8
c-3.33301 -3.33301 -6.5 -7.66602 -9.5 -12.999s-4.5 -11.666 -4.5 -18.999c0 -12 2.66699 -21.5 8 -28.5s16.666 -14.5 33.999 -22.5l125 -59c6 -3.33301 11.667 -6 17 -8c3.33301 3.33301 6.5 7.66602 9.5 12.999s4.5 11.666 4.5 18.999c0 12 -2.66699 21.5 -8 28.5
s-16.666 14.5 -33.999 22.5z" />
    <glyph glyph-name="dieresis" unicode="&#xa8;" 
d="M85 630h142v-142h-142v142zM273 630h142v-142h-142v142z" />
    <glyph glyph-name="copyright" unicode="&#xa9;" horiz-adv-x="724" 
d="M35 315c0 47.333 8.66699 91 26 131s40.666 74.5 69.999 103.5s64 51.667 104 68s82.333 24.5 127 24.5c45.333 0 87.833 -8.16699 127.5 -24.5s74.167 -39 103.5 -68s52.666 -63.5 69.999 -103.5s26 -83.667 26 -131s-8.66699 -91 -26 -131
s-40.666 -74.5 -69.999 -103.5s-63.833 -51.667 -103.5 -68s-82.167 -24.5 -127.5 -24.5c-44.667 0 -87 8.16699 -127 24.5s-74.667 39 -104 68s-52.666 63.5 -69.999 103.5s-26 83.667 -26 131zM164 315c0 30 5 57.501 15 82.501s24 46.5 42 64.5s39.167 31.833 63.5 41.5
s50.833 14.5 79.5 14.5c30 0 56.333 -4.5 79 -13.5s41.834 -21.333 57.501 -37s28 -34 37 -55s14.5 -43.833 16.5 -68.5l-102 -3c-3.33301 20 -11.333 38 -24 54s-33 24 -61 24s-49.5 -9.33301 -64.5 -28s-22.5 -44 -22.5 -76c0 -30.667 7.5 -55.334 22.5 -74.001
s36.5 -28 64.5 -28s48.333 8 61 24s20.667 34 24 54l102 -5c-2 -24.667 -7.5 -47.5 -16.5 -68.5s-21.333 -39.167 -37 -54.5s-34.834 -27.5 -57.501 -36.5s-49 -13.5 -79 -13.5c-28.667 0 -55.167 4.83301 -79.5 14.5s-45.5 23.5 -63.5 41.5s-32 39.333 -42 64
s-15 52 -15 82zM85 315.001c0 -40 7.33301 -77.167 22 -111.5s34.5 -63.833 59.5 -88.5s54.333 -44 88 -58s69.5 -21 107.5 -21s73.833 7 107.5 21s63 33.333 88 58s44.833 54.167 59.5 88.5s22 71.5 22 111.5s-7.33301 77.167 -22 111.5s-34.5 63.833 -59.5 88.5
s-54.333 44 -88 58s-69.5 21 -107.5 21s-73.833 -7 -107.5 -21s-63 -33.333 -88 -58s-44.833 -54.167 -59.5 -88.5s-22 -71.5 -22 -111.5z" />
    <glyph glyph-name="ordfeminine" unicode="&#xaa;" horiz-adv-x="432" 
d="M244 434l-50.999 -11.0029c-14.667 -3.33301 -26.167 -7.66602 -34.5 -12.999s-12.5 -13.666 -12.5 -24.999c0 -9.33301 3.16699 -16.5 9.5 -21.5s14.833 -7.5 25.5 -7.5c17.333 0 32.166 6.33301 44.499 19s18.5 30.334 18.5 53.001v6zM377.001 385.997
c0 -18 7.00098 -27.002 21.001 -27.002c5.33301 0 10.166 0.5 14.499 1.5s9.16602 2.5 14.499 4.5v-72c-9.33301 -6.66699 -20.833 -12.167 -34.5 -16.5s-29.834 -6.5 -48.501 -6.5c-22.667 0 -42.167 5.33301 -58.5 16s-27.833 26.334 -34.5 47.001
c-20.667 -42 -60 -63 -118 -63c-35.333 0 -63.5 8.5 -84.5 25.5s-31.5 40.833 -31.5 71.5c0 35.333 11.333 61 34 77s53.667 27.333 93 34l100 18v6c0 14 -3.16699 25 -9.5 33s-17.166 12 -32.499 12c-14 0 -24.5 -3.83301 -31.5 -11.5s-12.167 -18.167 -15.5 -31.5l-125 8
c6 40 23.833 72.5 53.5 97.5s71.834 37.5 126.501 37.5c24 0 46.167 -2.66699 66.5 -8s38 -13.666 53 -24.999s26.667 -25.833 35 -43.5s12.5 -39.167 12.5 -64.5v-120z" />
    <glyph glyph-name="guillemotleft" unicode="&#xab;" horiz-adv-x="484" 
d="M30 298l193 125v-136l-96 -61l96 -61v-136l-193 125v144zM261 298l193 125v-136l-96 -61l96 -61v-136l-193 125v144z" />
    <glyph glyph-name="registered" unicode="&#xae;" horiz-adv-x="412" 
d="M245 354c-2.66699 3.33301 -4.49805 7 -5.49805 11s-2.16699 11.667 -3.5 23s-4.33301 18.666 -9 21.999s-11.667 5 -21 5h-23v-61h-59v199h101c25.333 0 44.5 -5.66699 57.5 -17s19.5 -26.666 19.5 -45.999c0 -14.667 -4 -26.5 -12 -35.5s-18.333 -14.5 -31 -16.5
c21.333 -4 33 -16.667 35 -38c1.33301 -15.333 2.66602 -25.833 3.99902 -31.5s3.66602 -10.5 6.99902 -14.5h-60zM208.002 461c21.333 0 32 7.33301 32 22c0 15.333 -10.667 23 -32 23h-25v-45h25zM392.002 454c0 -27.333 -4.83301 -52.5 -14.5 -75.5
s-23 -42.833 -40 -59.5s-36.833 -29.667 -59.5 -39s-46.667 -14 -72 -14s-49.333 4.66699 -72 14s-42.5 22.333 -59.5 39s-30.333 36.5 -40 59.5s-14.5 48.167 -14.5 75.5s4.83301 52.5 14.5 75.5s23 42.833 40 59.5s36.833 29.667 59.5 39s46.667 14 72 14
s49.333 -4.66699 72 -14s42.5 -22.333 59.5 -39s30.333 -36.5 40 -59.5s14.5 -48.167 14.5 -75.5zM358.002 454c0 22.667 -4 43.5 -12 62.5s-18.833 35.5 -32.5 49.5s-29.667 24.833 -48 32.5s-38.166 11.5 -59.499 11.5s-41.166 -3.83301 -59.499 -11.5
s-34.333 -18.5 -48 -32.5s-24.5 -30.5 -32.5 -49.5s-12 -39.833 -12 -62.5s4 -43.5 12 -62.5s18.833 -35.5 32.5 -49.5s29.667 -24.833 48 -32.5s38.166 -11.5 59.499 -11.5s41.166 3.83301 59.499 11.5s34.333 18.5 48 32.5s24.5 30.5 32.5 49.5s12 39.833 12 62.5z" />
    <glyph glyph-name="macron" unicode="&#xaf;" 
d="M112 600h275v-108h-275v108z" />
    <glyph glyph-name="degree" unicode="&#xb0;" horiz-adv-x="370" 
d="M124 493c0 -17.333 5.33301 -31.833 16 -43.5s25.667 -17.5 45 -17.5s34.333 5.83301 45 17.5s16 26.167 16 43.5s-5.33301 31.833 -16 43.5s-25.667 17.5 -45 17.5s-34.333 -5.83301 -45 -17.5s-16 -26.167 -16 -43.5zM30 493c0 21.333 4 41 12 59
s18.833 33.667 32.5 47s30 23.833 49 31.5s39.5 11.5 61.5 11.5s42.5 -3.83301 61.5 -11.5s35.333 -18.167 49 -31.5s24.5 -29 32.5 -47s12 -37.667 12 -59c0 -20.667 -4 -40.167 -12 -58.5s-18.833 -34.166 -32.5 -47.499s-30 -23.833 -49 -31.5s-39.5 -11.5 -61.5 -11.5
s-42.5 3.83301 -61.5 11.5s-35.333 18.167 -49 31.5s-24.5 29.166 -32.5 47.499s-12 37.833 -12 58.5z" />
    <glyph glyph-name="plusminus" unicode="&#xb1;" horiz-adv-x="629" 
d="M381 616v-139h185v-134h-185v-139h-134v139h-184v134h184v139h134zM63 149h503v-133h-503v133z" />
    <glyph glyph-name="twosuperior" unicode="&#xb2;" horiz-adv-x="345" 
d="M336 329l0.00195312 -102.997h-317v92l111 84c15.333 12 27.833 22.167 37.5 30.5s17.167 16 22.5 23s9 13.833 11 20.5s3 14 3 22c0 9.33301 -2.33301 17.333 -7 24s-13.334 10 -26.001 10c-14 0 -23.333 -4.83301 -28 -14.5s-7 -20.834 -7 -33.501
c0 -8.66699 0.333008 -15.334 1 -20.001s1.66699 -9 3 -13l-121 4c-1.33301 6.66699 -2.5 13 -3.5 19s-1.5 12.333 -1.5 19c0 44 14.833 79.167 44.5 105.5s68.5 39.5 116.5 39.5c50 0 89 -12.5 117 -37.5s42 -56.5 42 -94.5c0 -17.333 -1.83301 -32.333 -5.5 -45
s-9.33398 -24.334 -17.001 -35.001s-17.5 -21.167 -29.5 -31.5s-26.333 -21.833 -43 -34.5l-42 -31h139z" />
    <glyph glyph-name="threesuperior" unicode="&#xb3;" horiz-adv-x="360" 
d="M218 347c0 12 -4.16504 20.833 -12.498 26.5s-18.833 8.5 -31.5 8.5c-2.66699 0 -6.5 0.166992 -11.5 0.5s-10.167 -0.166992 -15.5 -1.5v87c3.33301 -0.666992 8 -1 14 -1h14c9.33301 0 17.666 3 24.999 9s11 14.667 11 26c0 23.333 -11.333 35 -34 35
c-14.667 0 -25.334 -5.5 -32.001 -16.5s-10 -24.167 -10 -39.5l-119 5c0 20.667 3.66699 40.167 11 58.5s18.166 34.5 32.499 48.5s31.666 25 51.999 33s43.5 12 69.5 12c48.667 0 86.334 -11.333 113.001 -34s40 -52.334 40 -89.001c0 -24 -7 -43.5 -21 -58.5
s-30.333 -23.5 -49 -25.5c27.333 -5.33301 47.666 -16.166 60.999 -32.499s20 -36.833 20 -61.5c0 -39.333 -15 -69 -45 -89s-69 -30 -117 -30c-54 0 -96 13.333 -126 40s-45 62.667 -45 108l122 -4c0.666992 -15.333 5.33398 -26.333 14.001 -33s20.334 -10 35.001 -10
c8.66699 0 16.667 2.33301 24 7s11 11.667 11 21z" />
    <glyph glyph-name="acute" unicode="&#xb4;" 
d="M143 488l54 142h159l-97 -142h-116z" />
    <glyph glyph-name="paragraph" unicode="&#xb6;" horiz-adv-x="581" 
d="M265 239c-78.667 0 -139.167 17.499 -181.5 52.499s-63.5 82.833 -63.5 143.5s21.167 108.334 63.5 143.001s102.833 52 181.5 52h267v-630h-104v527h-59v-527h-104v239z" />
    <glyph glyph-name="periodcentered" unicode="&#xb7;" horiz-adv-x="264" 
d="M46 342h172v-172h-172v172z" />
    <glyph glyph-name="cedilla" unicode="&#xb8;" horiz-adv-x="833" 
d="M533 -102c0 -13.333 -3.50098 -24.667 -10.501 -34s-16 -16.833 -27 -22.5s-23.667 -9.83398 -38 -12.501s-29.166 -4 -44.499 -4c-25.333 0 -47.833 3.16699 -67.5 9.5s-35.167 14.166 -46.5 23.499l17 39c11.333 -6.66699 23.833 -12 37.5 -16s29.167 -6 46.5 -6
c12.667 0 22.5 1.5 29.5 4.5s10.5 8.5 10.5 16.5c0 6.66699 -2.33301 11.667 -7 15s-10.5 5.33301 -17.5 6s-14.5 0.333984 -22.5 -0.999023s-15.333 -3.33301 -22 -6l-31 11l63 90h52l-37 -47c14.667 2.66699 29 3.33398 43 2.00098s26.333 -4.83301 37 -10.5
s19.167 -13.167 25.5 -22.5s9.5 -21 9.5 -35z" />
    <glyph glyph-name="onesuperior" unicode="&#xb9;" horiz-adv-x="248" 
d="M9 569c28 0 50 4.83301 66 14.5s27.667 25.167 35 46.5h99v-404h-124v260h-76v83z" />
    <glyph glyph-name="ordmasculine" unicode="&#xba;" horiz-adv-x="432" 
d="M154 458c0 -26.667 4.83301 -48 14.5 -64s25.5 -24 47.5 -24c21.333 0 37 8 47 24s15 37.333 15 64c0 26 -5 47.167 -15 63.5s-25.667 24.5 -47 24.5c-22 0 -37.833 -8.16699 -47.5 -24.5s-14.5 -37.5 -14.5 -63.5zM413 458c0 -28 -4.66699 -53.667 -14 -77
s-22.666 -43.333 -39.999 -60s-38.166 -29.667 -62.499 -39s-51.166 -14 -80.499 -14s-56.166 4.66699 -80.499 14s-45.166 22.333 -62.499 39s-30.666 36.667 -39.999 60s-14 49 -14 77s4.66699 53.5 14 76.5s22.666 42.833 39.999 59.5s38.166 29.667 62.499 39
s51.166 14 80.499 14s56.166 -4.66699 80.499 -14s45.166 -22.333 62.499 -39s30.666 -36.5 39.999 -59.5s14 -48.5 14 -76.5z" />
    <glyph glyph-name="guillemotright" unicode="&#xbb;" horiz-adv-x="484" 
d="M223 154l-193 -125v136l96 61l-96 61v136l193 -125v-144zM454 154l-193 -125v136l96 61l-96 61v136l193 -125v-144z" />
    <glyph glyph-name="onequarter" unicode="&#xbc;" horiz-adv-x="795" 
d="M15 569c28 0 50 4.83301 66 14.5s27.667 25.167 35 46.5h99v-404h-124v260h-76v83zM728 174h47v-95h-47v-79h-122v79h-193v103l166 222h149v-230zM519 174h87v122zM227 0h-109l378 630h109z" />
    <glyph glyph-name="onehalf" unicode="&#xbd;" horiz-adv-x="811" 
d="M15 569c28 0 50 4.83301 66 14.5s27.667 25.167 35 46.5h99v-404h-124v260h-76v83zM227 0h-109l378 630h109zM781 103l0.00195312 -102.997h-317v92l111 84c15.333 12 27.833 22.167 37.5 30.5s17.167 16 22.5 23s9 13.833 11 20.5s3 14 3 22
c0 9.33301 -2.33301 17.333 -7 24s-13.334 10 -26.001 10c-14 0 -23.333 -4.83301 -28 -14.5s-7 -20.834 -7 -33.501c0 -8.66699 0.333008 -15.334 1 -20.001s1.66699 -9 3 -13l-121 4c-1.33301 6.66699 -2.5 13 -3.5 19s-1.5 12.333 -1.5 19c0 44 14.833 79.167 44.5 105.5
s68.5 39.5 116.5 39.5c50 0 89 -12.5 117 -37.5s42 -56.5 42 -94.5c0 -17.333 -1.83301 -32.333 -5.5 -45s-9.33398 -24.334 -17.001 -35.001s-17.5 -21.167 -29.5 -31.5s-26.333 -21.833 -43 -34.5l-42 -31h139z" />
    <glyph glyph-name="threequarters" unicode="&#xbe;" horiz-adv-x="880" 
d="M813 174h47v-95h-47v-79h-122v79h-193v103l166 222h149v-230zM604 174h87v122zM218 347c0 12 -4.16504 20.833 -12.498 26.5s-18.833 8.5 -31.5 8.5c-2.66699 0 -6.5 0.166992 -11.5 0.5s-10.167 -0.166992 -15.5 -1.5v87c3.33301 -0.666992 8 -1 14 -1h14
c9.33301 0 17.666 3 24.999 9s11 14.667 11 26c0 23.333 -11.333 35 -34 35c-14.667 0 -25.334 -5.5 -32.001 -16.5s-10 -24.167 -10 -39.5l-119 5c0 20.667 3.66699 40.167 11 58.5s18.166 34.5 32.499 48.5s31.666 25 51.999 33s43.5 12 69.5 12
c48.667 0 86.334 -11.333 113.001 -34s40 -52.334 40 -89.001c0 -24 -7 -43.5 -21 -58.5s-30.333 -23.5 -49 -25.5c27.333 -5.33301 47.666 -16.166 60.999 -32.499s20 -36.833 20 -61.5c0 -39.333 -15 -69 -45 -89s-69 -30 -117 -30c-54 0 -96 13.333 -126 40
s-45 62.667 -45 108l122 -4c0.666992 -15.333 5.33398 -26.333 14.001 -33s20.334 -10 35.001 -10c8.66699 0 16.667 2.33301 24 7s11 11.667 11 21zM312.002 0h-109l378 630h109z" />
    <glyph glyph-name="questiondown" unicode="&#xbf;" horiz-adv-x="524" 
d="M334 308c-1.33301 -24 -7.16602 -47.001 -17.499 -69.001s-26.5 -41.667 -48.5 -59c-20 -16 -36.833 -31.167 -50.5 -45.5s-20.5 -32.833 -20.5 -55.5c0 -16 5.16699 -29.833 15.5 -41.5s26.166 -17.5 47.499 -17.5c28.667 0 48.667 8.83301 60 26.5s17 39.167 17 64.5
c0 12 -0.666992 22 -2 30s-3 15.333 -5 22l166 -5c2 -10 3.83301 -20 5.5 -30s2.5 -19.667 2.5 -29c0 -34 -6 -64.667 -18 -92s-28.667 -50.666 -50 -69.999s-47.166 -34.333 -77.499 -45s-63.5 -16 -99.5 -16c-38 0 -72 5 -102 15s-55.167 23.833 -75.5 41.5
s-35.833 38.334 -46.5 62.001s-16 48.834 -16 75.501c0 20.667 2.83301 39.167 8.5 55.5s13.5 31.166 23.5 44.499s21.5 25.666 34.5 36.999s26.5 22.333 40.5 33c16 12 28.167 23.167 36.5 33.5s13.166 21.833 14.499 34.5h157zM342 345.999h-172v172h172v-172z" />
    <glyph glyph-name="Agrave" unicode="&#xc0;" horiz-adv-x="692" 
d="M441 630l251 -630h-181l-47 122h-246l-47 -122h-171l251 630h190zM285 668l-97 142h159l54 -142h-116zM267 249h148l-72 186h-4z" />
    <glyph glyph-name="Aacute" unicode="&#xc1;" horiz-adv-x="692" 
d="M441 630l251 -630h-181l-47 122h-246l-47 -122h-171l251 630h190zM282 668l54 142h159l-97 -142h-116zM267 249h148l-72 186h-4z" />
    <glyph glyph-name="Acircumflex" unicode="&#xc2;" horiz-adv-x="692" 
d="M441 630l251 -630h-181l-47 122h-246l-47 -122h-171l251 630h190zM418 810l86 -142h-102l-60 55l-60 -55h-102l86 142h152zM267 249h148l-72 186h-4z" />
    <glyph glyph-name="Atilde" unicode="&#xc3;" horiz-adv-x="692" 
d="M441 630l251 -630h-181l-47 122h-246l-47 -122h-171l251 630h190zM190 668c0 42.667 7.5 77.5 22.5 104.5s37.5 40.5 67.5 40.5c11.333 0 21.666 -2 30.999 -6s18.333 -8.16699 27 -12.5l24.5 -12.5c7.66699 -4 15.834 -6 24.501 -6c7.33301 0 14.166 2.33301 20.499 7
s10.166 13.667 11.499 27h75c0 -42.667 -7.5 -77.5 -22.5 -104.5s-37.5 -40.5 -67.5 -40.5c-11.333 0 -21.666 2 -30.999 6s-18.333 8.16699 -27 12.5l-24.5 12.5c-7.66699 4 -15.834 6 -24.501 6c-7.33301 0 -14.166 -2.33301 -20.499 -7s-10.166 -13.667 -11.499 -27h-75z
M267 249h148l-72 186h-4z" />
    <glyph glyph-name="Adieresis" unicode="&#xc4;" horiz-adv-x="692" 
d="M441 630l251 -630h-181l-47 122h-246l-47 -122h-171l251 630h190zM177 810h142v-142h-142v142zM365 810h142v-142h-142v142zM267 249h148l-72 186h-4z" />
    <glyph glyph-name="Aring" unicode="&#xc5;" horiz-adv-x="692" 
d="M441 630l251 -630h-181l-47 122h-246l-47 -122h-171l251 630h190zM244 757c0 27.333 8.83301 49.833 26.5 67.5s41.5 26.5 71.5 26.5s53.833 -8.83301 71.5 -26.5s26.5 -40.167 26.5 -67.5s-8.83301 -49.833 -26.5 -67.5s-41.5 -26.5 -71.5 -26.5
s-53.833 8.83301 -71.5 26.5s-26.5 40.167 -26.5 67.5zM267 249h148l-72 186h-4zM308 757c0 -10 2.83301 -18.167 8.5 -24.5s14.167 -9.5 25.5 -9.5s19.833 3.16699 25.5 9.5s8.5 14.5 8.5 24.5s-2.83301 18.167 -8.5 24.5s-14.167 9.5 -25.5 9.5
s-19.833 -3.16699 -25.5 -9.5s-8.5 -14.5 -8.5 -24.5z" />
    <glyph glyph-name="AE" unicode="&#xc6;" horiz-adv-x="995" 
d="M958 630v-140h-320v-103h247v-138h-247v-109h329v-140h-496v142h-213l-80 -142h-178l365 630h593zM329 269h142v243h-4z" />
    <glyph glyph-name="Ccedilla" unicode="&#xc7;" horiz-adv-x="669" 
d="M470 -102c0 -13.333 -3.50293 -24.6631 -10.5029 -33.9961s-16 -16.833 -27 -22.5s-23.667 -9.83398 -38 -12.501s-29.166 -4 -44.499 -4c-25.333 0 -47.833 3.16699 -67.5 9.5s-35.167 14.166 -46.5 23.499l17 39c11.333 -6.66699 23.833 -12 37.5 -16
s29.167 -6 46.5 -6c12.667 0 22.5 1.5 29.5 4.5s10.5 8.5 10.5 16.5c0 6.66699 -2.33301 11.667 -7 15s-10.5 5.33301 -17.5 6s-14.5 0.333984 -22.5 -0.999023s-15.333 -3.33301 -22 -6l-31 11l47 68c-44 2 -84.5 11.5 -121.5 28.5s-69 39.667 -96 68s-48.167 62 -63.5 101
s-23 81.833 -23 128.5c0 48.667 8.16699 93 24.5 133s39 74.333 68 103s63.167 51 102.5 67s82 24 128 24c48 0 90.5 -7.16699 127.5 -21.5s68.333 -34.166 94 -59.499s45.834 -55 60.501 -89s23.334 -70.667 26.001 -110l-163 -6
c-2.66699 17.333 -7.16699 34.166 -13.5 50.499s-15.166 30.833 -26.499 43.5s-25.666 22.667 -42.999 30s-38.333 11 -63 11c-46.667 0 -82.834 -15.833 -108.501 -47.5s-38.5 -74.5 -38.5 -128.5s12.833 -96.833 38.5 -128.5s61.834 -47.5 108.501 -47.5
c24.667 0 45.667 3.83301 63 11.5s31.666 17.667 42.999 30s20.166 26.666 26.499 42.999s10.833 33.166 13.5 50.499l163 -7c-2.66699 -36.667 -10.5 -71.334 -23.5 -104.001s-31 -61.167 -54 -85.5s-51 -44.333 -84 -60s-71.167 -24.834 -114.5 -27.501l-20 -26
c14.667 2.66699 29 3.33398 43 2.00098s26.333 -4.83301 37 -10.5s19.167 -13.167 25.5 -22.5s9.5 -21 9.5 -35z" />
    <glyph glyph-name="Egrave" unicode="&#xc8;" horiz-adv-x="572" 
d="M544 0h-496v630h487v-140h-320v-103h247v-138h-247v-109h329v-140zM245 668l-97 142h159l54 -142h-116z" />
    <glyph glyph-name="Eacute" unicode="&#xc9;" horiz-adv-x="572" 
d="M544 0h-496v630h487v-140h-320v-103h247v-138h-247v-109h329v-140zM242 668l54 142h159l-97 -142h-116z" />
    <glyph glyph-name="Ecircumflex" unicode="&#xca;" horiz-adv-x="572" 
d="M544 0h-496v630h487v-140h-320v-103h247v-138h-247v-109h329v-140zM378 810l86 -142h-102l-60 55l-60 -55h-102l86 142h152z" />
    <glyph glyph-name="Edieresis" unicode="&#xcb;" horiz-adv-x="572" 
d="M544 0h-496v630h487v-140h-320v-103h247v-138h-247v-109h329v-140zM137 810h142v-142h-142v142zM325 810h142v-142h-142v142z" />
    <glyph glyph-name="Igrave" unicode="&#xcc;" horiz-adv-x="266" 
d="M218 630v-630h-170v630h170zM76 668l-97 142h159l54 -142h-116z" />
    <glyph glyph-name="Iacute" unicode="&#xcd;" horiz-adv-x="266" 
d="M218 630v-630h-170v630h170zM73 668l54 142h159l-97 -142h-116z" />
    <glyph glyph-name="Icircumflex" unicode="&#xce;" horiz-adv-x="266" 
d="M218 630v-630h-170v630h170zM209 810l86 -142h-102l-60 55l-60 -55h-102l86 142h152z" />
    <glyph glyph-name="Idieresis" unicode="&#xcf;" horiz-adv-x="266" 
d="M218 630v-630h-170v630h170zM-32 810h142v-142h-142v142zM156 810h142v-142h-142v142z" />
    <glyph glyph-name="Eth" unicode="&#xd0;" horiz-adv-x="675" 
d="M15 387h53v243h249c52 0 99 -7.16699 141 -21.5s77.5 -35 106.5 -62s51.333 -60 67 -99s23.5 -83.167 23.5 -132.5s-7.83301 -93.5 -23.5 -132.5s-38 -72 -67 -99s-64.5 -47.667 -106.5 -62s-89 -21.5 -141 -21.5h-249v249h-53v138zM305 134
c55.333 0 98.333 15.668 129 47.001s46 76.333 46 135c0 57.333 -15.333 101.666 -46 132.999s-73.667 47 -129 47h-67v-109h133v-138h-133v-115h67z" />
    <glyph glyph-name="Ntilde" unicode="&#xd1;" horiz-adv-x="660" 
d="M456 281v349h156v-630h-136l-272 373v-373h-156v630h162zM188 668c0 42.667 7.5 77.5 22.5 104.5s37.5 40.5 67.5 40.5c11.333 0 21.666 -2 30.999 -6s18.333 -8.16699 27 -12.5l24.5 -12.5c7.66699 -4 15.834 -6 24.501 -6c7.33301 0 14.166 2.33301 20.499 7
s10.166 13.667 11.499 27h75c0 -42.667 -7.5 -77.5 -22.5 -104.5s-37.5 -40.5 -67.5 -40.5c-11.333 0 -21.666 2 -30.999 6s-18.333 8.16699 -27 12.5l-24.5 12.5c-7.66699 4 -15.834 6 -24.501 6c-7.33301 0 -14.166 -2.33301 -20.499 -7s-10.166 -13.667 -11.499 -27h-75z
" />
    <glyph glyph-name="Ograve" unicode="&#xd2;" horiz-adv-x="694" 
d="M674 315c0 -48.667 -8.5 -93 -25.5 -133s-40.167 -74.333 -69.5 -103s-63.833 -51 -103.5 -67s-82.5 -24 -128.5 -24s-88.833 8 -128.5 24s-74.167 38.333 -103.5 67s-52.5 63 -69.5 103s-25.5 84.333 -25.5 133s8.5 93 25.5 133s40.167 74.333 69.5 103
s63.833 51 103.5 67s82.5 24 128.5 24s88.833 -8 128.5 -24s74.167 -38.333 103.5 -67s52.5 -63 69.5 -103s25.5 -84.333 25.5 -133zM499 315c0 54 -13.667 97 -41 129s-64.333 48 -111 48s-83.667 -16 -111 -48s-41 -75 -41 -129s13.667 -97 41 -129s64.333 -48 111 -48
s83.667 16 111 48s41 75 41 129zM290 668l-97 142h159l54 -142h-116z" />
    <glyph glyph-name="Oacute" unicode="&#xd3;" horiz-adv-x="694" 
d="M674 315c0 -48.667 -8.5 -93 -25.5 -133s-40.167 -74.333 -69.5 -103s-63.833 -51 -103.5 -67s-82.5 -24 -128.5 -24s-88.833 8 -128.5 24s-74.167 38.333 -103.5 67s-52.5 63 -69.5 103s-25.5 84.333 -25.5 133s8.5 93 25.5 133s40.167 74.333 69.5 103
s63.833 51 103.5 67s82.5 24 128.5 24s88.833 -8 128.5 -24s74.167 -38.333 103.5 -67s52.5 -63 69.5 -103s25.5 -84.333 25.5 -133zM499 315c0 54 -13.667 97 -41 129s-64.333 48 -111 48s-83.667 -16 -111 -48s-41 -75 -41 -129s13.667 -97 41 -129s64.333 -48 111 -48
s83.667 16 111 48s41 75 41 129zM287 668l54 142h159l-97 -142h-116z" />
    <glyph glyph-name="Ocircumflex" unicode="&#xd4;" horiz-adv-x="694" 
d="M674 315c0 -48.667 -8.5 -93 -25.5 -133s-40.167 -74.333 -69.5 -103s-63.833 -51 -103.5 -67s-82.5 -24 -128.5 -24s-88.833 8 -128.5 24s-74.167 38.333 -103.5 67s-52.5 63 -69.5 103s-25.5 84.333 -25.5 133s8.5 93 25.5 133s40.167 74.333 69.5 103
s63.833 51 103.5 67s82.5 24 128.5 24s88.833 -8 128.5 -24s74.167 -38.333 103.5 -67s52.5 -63 69.5 -103s25.5 -84.333 25.5 -133zM499 315c0 54 -13.667 97 -41 129s-64.333 48 -111 48s-83.667 -16 -111 -48s-41 -75 -41 -129s13.667 -97 41 -129s64.333 -48 111 -48
s83.667 16 111 48s41 75 41 129zM423 810l86 -142h-102l-60 55l-60 -55h-102l86 142h152z" />
    <glyph glyph-name="Otilde" unicode="&#xd5;" horiz-adv-x="694" 
d="M674 315c0 -48.667 -8.5 -93 -25.5 -133s-40.167 -74.333 -69.5 -103s-63.833 -51 -103.5 -67s-82.5 -24 -128.5 -24s-88.833 8 -128.5 24s-74.167 38.333 -103.5 67s-52.5 63 -69.5 103s-25.5 84.333 -25.5 133s8.5 93 25.5 133s40.167 74.333 69.5 103
s63.833 51 103.5 67s82.5 24 128.5 24s88.833 -8 128.5 -24s74.167 -38.333 103.5 -67s52.5 -63 69.5 -103s25.5 -84.333 25.5 -133zM499 315c0 54 -13.667 97 -41 129s-64.333 48 -111 48s-83.667 -16 -111 -48s-41 -75 -41 -129s13.667 -97 41 -129s64.333 -48 111 -48
s83.667 16 111 48s41 75 41 129zM195 668c0 42.667 7.5 77.5 22.5 104.5s37.5 40.5 67.5 40.5c11.333 0 21.666 -2 30.999 -6s18.333 -8.16699 27 -12.5l24.5 -12.5c7.66699 -4 15.834 -6 24.501 -6c7.33301 0 14.166 2.33301 20.499 7s10.166 13.667 11.499 27h75
c0 -42.667 -7.5 -77.5 -22.5 -104.5s-37.5 -40.5 -67.5 -40.5c-11.333 0 -21.666 2 -30.999 6s-18.333 8.16699 -27 12.5l-24.5 12.5c-7.66699 4 -15.834 6 -24.501 6c-7.33301 0 -14.166 -2.33301 -20.499 -7s-10.166 -13.667 -11.499 -27h-75z" />
    <glyph glyph-name="Odieresis" unicode="&#xd6;" horiz-adv-x="694" 
d="M674 315c0 -48.667 -8.5 -93 -25.5 -133s-40.167 -74.333 -69.5 -103s-63.833 -51 -103.5 -67s-82.5 -24 -128.5 -24s-88.833 8 -128.5 24s-74.167 38.333 -103.5 67s-52.5 63 -69.5 103s-25.5 84.333 -25.5 133s8.5 93 25.5 133s40.167 74.333 69.5 103
s63.833 51 103.5 67s82.5 24 128.5 24s88.833 -8 128.5 -24s74.167 -38.333 103.5 -67s52.5 -63 69.5 -103s25.5 -84.333 25.5 -133zM499 315c0 54 -13.667 97 -41 129s-64.333 48 -111 48s-83.667 -16 -111 -48s-41 -75 -41 -129s13.667 -97 41 -129s64.333 -48 111 -48
s83.667 16 111 48s41 75 41 129zM182 810h142v-142h-142v142zM370 810h142v-142h-142v142z" />
    <glyph glyph-name="multiply" unicode="&#xd7;" horiz-adv-x="531" 
d="M32 450l92 92l141 -142l142 142l92 -92l-142 -141l142 -141l-92 -91l-142 140l-141 -140l-92 91l142 141z" />
    <glyph glyph-name="Oslash" unicode="&#xd8;" horiz-adv-x="694" 
d="M674 315c0 -48.667 -8.5 -93 -25.5 -133s-40.167 -74.333 -69.5 -103s-63.833 -51 -103.5 -67s-82.5 -24 -128.5 -24c-62.667 0 -119 14.333 -169 43l-53 -68l-71 51l54 71c-28 28.667 -49.667 62.334 -65 101.001s-23 81.667 -23 129c0 48.667 8.5 93 25.5 133
s40.167 74.333 69.5 103s63.833 51 103.5 67s82.5 24 128.5 24c30 0 58.5 -3.33301 85.5 -10s52.167 -16.334 75.5 -29.001l50 64l71 -51l-50 -65c30 -28.667 53.333 -63 70 -103s25 -84.333 25 -133zM499 315c0 39.333 -7.66699 73.333 -23 102l-203 -262
c21.333 -11.333 46 -17 74 -17c46.667 0 83.667 16 111 48s41 75 41 129zM195 315c0 -35.333 6.33301 -66.667 19 -94l198 257c-20 9.33301 -41.667 14 -65 14c-46.667 0 -83.667 -16 -111 -48s-41 -75 -41 -129z" />
    <glyph glyph-name="Ugrave" unicode="&#xd9;" horiz-adv-x="660" 
d="M330 -12c-40.667 0 -78.3301 5 -112.997 15s-64.834 25.667 -90.501 47s-45.834 48.5 -60.501 81.5s-22 72.5 -22 118.5v380h169v-352c0 -48 8.5 -84.5 25.5 -109.5s47.5 -37.5 91.5 -37.5s74.5 12.5 91.5 37.5s25.5 61.5 25.5 109.5v352h170v-380
c0 -46 -7.33301 -85.5 -22 -118.5s-34.834 -60.167 -60.501 -81.5s-56 -37 -91 -47s-72.833 -15 -113.5 -15zM273.004 668l-97 142h159l54 -142h-116z" />
    <glyph glyph-name="Uacute" unicode="&#xda;" horiz-adv-x="660" 
d="M330 -12c-40.667 0 -78.3301 5 -112.997 15s-64.834 25.667 -90.501 47s-45.834 48.5 -60.501 81.5s-22 72.5 -22 118.5v380h169v-352c0 -48 8.5 -84.5 25.5 -109.5s47.5 -37.5 91.5 -37.5s74.5 12.5 91.5 37.5s25.5 61.5 25.5 109.5v352h170v-380
c0 -46 -7.33301 -85.5 -22 -118.5s-34.834 -60.167 -60.501 -81.5s-56 -37 -91 -47s-72.833 -15 -113.5 -15zM270.004 668l54 142h159l-97 -142h-116z" />
    <glyph glyph-name="Ucircumflex" unicode="&#xdb;" horiz-adv-x="660" 
d="M330 -12c-40.667 0 -78.3301 5 -112.997 15s-64.834 25.667 -90.501 47s-45.834 48.5 -60.501 81.5s-22 72.5 -22 118.5v380h169v-352c0 -48 8.5 -84.5 25.5 -109.5s47.5 -37.5 91.5 -37.5s74.5 12.5 91.5 37.5s25.5 61.5 25.5 109.5v352h170v-380
c0 -46 -7.33301 -85.5 -22 -118.5s-34.834 -60.167 -60.501 -81.5s-56 -37 -91 -47s-72.833 -15 -113.5 -15zM406.004 810l86 -142h-102l-60 55l-60 -55h-102l86 142h152z" />
    <glyph glyph-name="Udieresis" unicode="&#xdc;" horiz-adv-x="660" 
d="M330 -12c-40.667 0 -78.3301 5 -112.997 15s-64.834 25.667 -90.501 47s-45.834 48.5 -60.501 81.5s-22 72.5 -22 118.5v380h169v-352c0 -48 8.5 -84.5 25.5 -109.5s47.5 -37.5 91.5 -37.5s74.5 12.5 91.5 37.5s25.5 61.5 25.5 109.5v352h170v-380
c0 -46 -7.33301 -85.5 -22 -118.5s-34.834 -60.167 -60.501 -81.5s-56 -37 -91 -47s-72.833 -15 -113.5 -15zM165.004 810h142v-142h-142v142zM353.004 810h142v-142h-142v142z" />
    <glyph glyph-name="Yacute" unicode="&#xdd;" horiz-adv-x="649" 
d="M466 630h183l-242 -391v-239h-165v239l-242 391h189l142 -227zM264 668l54 142h159l-97 -142h-116z" />
    <glyph glyph-name="Thorn" unicode="&#xde;" horiz-adv-x="593" 
d="M317 245c38 0 65 6.66602 81 19.999s24 33.333 24 60s-8 46.834 -24 60.501s-43 20.5 -81 20.5h-100v-161h100zM217 -0.000976562h-169v630h169v-88h108c83.333 0 147.666 -18.5 192.999 -55.5s68 -90.5 68 -160.5c0 -70.667 -22.667 -124.5 -68 -161.5
s-109.666 -55.5 -192.999 -55.5h-108v-109z" />
    <glyph glyph-name="germandbls" unicode="&#xdf;" horiz-adv-x="542" 
d="M494 474c0 -60 -25 -100.998 -75 -122.998c28 -10.667 51.333 -29 70 -55s28 -63 28 -111c0 -30 -4.66699 -56.833 -14 -80.5s-22.166 -43.5 -38.499 -59.5s-35.833 -28.167 -58.5 -36.5s-47.667 -12.5 -75 -12.5c-18.667 0 -34 1.16699 -46 3.5
s-22.667 5.16602 -32 8.49902v121c6.66699 -2 13.667 -3.66699 21 -5s14.666 -2 21.999 -2c22 0 39.5 7.16699 52.5 21.5s19.5 34.5 19.5 60.5s-6.5 45.5 -19.5 58.5s-30.833 19.5 -53.5 19.5c-8 0 -14.833 -0.166992 -20.5 -0.5s-11.5 -0.833008 -17.5 -1.5v123
c4.66699 -0.666992 9.16699 -1 13.5 -1h14.5c18 0 32.167 5 42.5 15s15.5 26.333 15.5 49c0 17.333 -5 31.666 -15 42.999s-25 17 -45 17c-28 0 -47.833 -10.333 -59.5 -31s-17.5 -50 -17.5 -88v-407h-162v411c0 36 5.5 68.167 16.5 96.5s26.833 52.5 47.5 72.5
s45.5 35.333 74.5 46s61.5 16 97.5 16c32 0 61.167 -4 87.5 -12s48.833 -19.167 67.5 -33.5s33.167 -31.833 43.5 -52.5s15.5 -44 15.5 -70z" />
    <glyph glyph-name="agrave" unicode="&#xe0;" horiz-adv-x="527" 
d="M302 193l-65.999 -12c-19.333 -4 -34.5 -9.5 -45.5 -16.5s-16.5 -17.833 -16.5 -32.5c0 -11.333 4.16699 -20.5 12.5 -27.5s19.166 -10.5 32.499 -10.5c23.333 0 43 8 59 24s24 38.667 24 68v7zM461.001 131c0 -22 9 -33.001 27 -33.001c12 0 24 2.33301 36 7v-86
c-11.333 -8 -25.166 -14.833 -41.499 -20.5s-36.166 -8.5 -59.499 -8.5c-28 0 -52 6.83301 -72 20.5s-33.667 33.167 -41 58.5c-26 -52.667 -75.333 -79 -148 -79c-44 0 -79 10.667 -105 32s-39 51 -39 89c0 43.333 14.333 75.333 43 96s67.334 35.334 116.001 44.001
l125 21v7c0 18.667 -4.5 33.167 -13.5 43.5s-23.167 15.5 -42.5 15.5c-18 0 -31.833 -5.16699 -41.5 -15.5s-16.167 -23.833 -19.5 -40.5l-150 10c7.33301 49.333 29.166 89.333 65.499 120s88.166 46 155.499 46c29.333 0 56.5 -3.33301 81.5 -10s46.667 -17 65 -31
s32.666 -32 42.999 -54s15.5 -48.667 15.5 -80v-152zM202.001 487.999l-97 142h159l54 -142h-116z" />
    <glyph glyph-name="aacute" unicode="&#xe1;" horiz-adv-x="527" 
d="M302 193l-65.999 -12c-19.333 -4 -34.5 -9.5 -45.5 -16.5s-16.5 -17.833 -16.5 -32.5c0 -11.333 4.16699 -20.5 12.5 -27.5s19.166 -10.5 32.499 -10.5c23.333 0 43 8 59 24s24 38.667 24 68v7zM461.001 131c0 -22 9 -33.001 27 -33.001c12 0 24 2.33301 36 7v-86
c-11.333 -8 -25.166 -14.833 -41.499 -20.5s-36.166 -8.5 -59.499 -8.5c-28 0 -52 6.83301 -72 20.5s-33.667 33.167 -41 58.5c-26 -52.667 -75.333 -79 -148 -79c-44 0 -79 10.667 -105 32s-39 51 -39 89c0 43.333 14.333 75.333 43 96s67.334 35.334 116.001 44.001
l125 21v7c0 18.667 -4.5 33.167 -13.5 43.5s-23.167 15.5 -42.5 15.5c-18 0 -31.833 -5.16699 -41.5 -15.5s-16.167 -23.833 -19.5 -40.5l-150 10c7.33301 49.333 29.166 89.333 65.499 120s88.166 46 155.499 46c29.333 0 56.5 -3.33301 81.5 -10s46.667 -17 65 -31
s32.666 -32 42.999 -54s15.5 -48.667 15.5 -80v-152zM199.001 487.999l54 142h159l-97 -142h-116z" />
    <glyph glyph-name="acircumflex" unicode="&#xe2;" horiz-adv-x="527" 
d="M302 193l-65.999 -12c-19.333 -4 -34.5 -9.5 -45.5 -16.5s-16.5 -17.833 -16.5 -32.5c0 -11.333 4.16699 -20.5 12.5 -27.5s19.166 -10.5 32.499 -10.5c23.333 0 43 8 59 24s24 38.667 24 68v7zM461.001 131c0 -22 9 -33.001 27 -33.001c12 0 24 2.33301 36 7v-86
c-11.333 -8 -25.166 -14.833 -41.499 -20.5s-36.166 -8.5 -59.499 -8.5c-28 0 -52 6.83301 -72 20.5s-33.667 33.167 -41 58.5c-26 -52.667 -75.333 -79 -148 -79c-44 0 -79 10.667 -105 32s-39 51 -39 89c0 43.333 14.333 75.333 43 96s67.334 35.334 116.001 44.001
l125 21v7c0 18.667 -4.5 33.167 -13.5 43.5s-23.167 15.5 -42.5 15.5c-18 0 -31.833 -5.16699 -41.5 -15.5s-16.167 -23.833 -19.5 -40.5l-150 10c7.33301 49.333 29.166 89.333 65.499 120s88.166 46 155.499 46c29.333 0 56.5 -3.33301 81.5 -10s46.667 -17 65 -31
s32.666 -32 42.999 -54s15.5 -48.667 15.5 -80v-152zM335.001 629.999l86 -142h-102l-60 55l-60 -55h-102l86 142h152z" />
    <glyph glyph-name="atilde" unicode="&#xe3;" horiz-adv-x="527" 
d="M302 193l-65.999 -12c-19.333 -4 -34.5 -9.5 -45.5 -16.5s-16.5 -17.833 -16.5 -32.5c0 -11.333 4.16699 -20.5 12.5 -27.5s19.166 -10.5 32.499 -10.5c23.333 0 43 8 59 24s24 38.667 24 68v7zM461.001 131c0 -22 9 -33.001 27 -33.001c12 0 24 2.33301 36 7v-86
c-11.333 -8 -25.166 -14.833 -41.499 -20.5s-36.166 -8.5 -59.499 -8.5c-28 0 -52 6.83301 -72 20.5s-33.667 33.167 -41 58.5c-26 -52.667 -75.333 -79 -148 -79c-44 0 -79 10.667 -105 32s-39 51 -39 89c0 43.333 14.333 75.333 43 96s67.334 35.334 116.001 44.001
l125 21v7c0 18.667 -4.5 33.167 -13.5 43.5s-23.167 15.5 -42.5 15.5c-18 0 -31.833 -5.16699 -41.5 -15.5s-16.167 -23.833 -19.5 -40.5l-150 10c7.33301 49.333 29.166 89.333 65.499 120s88.166 46 155.499 46c29.333 0 56.5 -3.33301 81.5 -10s46.667 -17 65 -31
s32.666 -32 42.999 -54s15.5 -48.667 15.5 -80v-152zM109.001 487.999c0 42.667 7.5 77.5 22.5 104.5s37.5 40.5 67.5 40.5c11.333 0 21.666 -2 30.999 -6s18.333 -8.16699 27 -12.5l24.5 -12.5c7.66699 -4 15.834 -6 24.501 -6c7.33301 0 14.166 2.33301 20.499 7
s10.166 13.667 11.499 27h75c0 -42.667 -7.5 -77.5 -22.5 -104.5s-37.5 -40.5 -67.5 -40.5c-11.333 0 -21.666 2 -30.999 6s-18.333 8.16699 -27 12.5l-24.5 12.5c-7.66699 4 -15.834 6 -24.501 6c-7.33301 0 -14.166 -2.33301 -20.499 -7s-10.166 -13.667 -11.499 -27h-75z
" />
    <glyph glyph-name="adieresis" unicode="&#xe4;" horiz-adv-x="527" 
d="M302 193l-65.999 -12c-19.333 -4 -34.5 -9.5 -45.5 -16.5s-16.5 -17.833 -16.5 -32.5c0 -11.333 4.16699 -20.5 12.5 -27.5s19.166 -10.5 32.499 -10.5c23.333 0 43 8 59 24s24 38.667 24 68v7zM461.001 131c0 -22 9 -33.001 27 -33.001c12 0 24 2.33301 36 7v-86
c-11.333 -8 -25.166 -14.833 -41.499 -20.5s-36.166 -8.5 -59.499 -8.5c-28 0 -52 6.83301 -72 20.5s-33.667 33.167 -41 58.5c-26 -52.667 -75.333 -79 -148 -79c-44 0 -79 10.667 -105 32s-39 51 -39 89c0 43.333 14.333 75.333 43 96s67.334 35.334 116.001 44.001
l125 21v7c0 18.667 -4.5 33.167 -13.5 43.5s-23.167 15.5 -42.5 15.5c-18 0 -31.833 -5.16699 -41.5 -15.5s-16.167 -23.833 -19.5 -40.5l-150 10c7.33301 49.333 29.166 89.333 65.499 120s88.166 46 155.499 46c29.333 0 56.5 -3.33301 81.5 -10s46.667 -17 65 -31
s32.666 -32 42.999 -54s15.5 -48.667 15.5 -80v-152zM94.001 629.999h142v-142h-142v142zM282.001 629.999h142v-142h-142v142z" />
    <glyph glyph-name="aring" unicode="&#xe5;" horiz-adv-x="527" 
d="M302 193l-65.999 -12c-19.333 -4 -34.5 -9.5 -45.5 -16.5s-16.5 -17.833 -16.5 -32.5c0 -11.333 4.16699 -20.5 12.5 -27.5s19.166 -10.5 32.499 -10.5c23.333 0 43 8 59 24s24 38.667 24 68v7zM461.001 131c0 -22 9 -33.001 27 -33.001c12 0 24 2.33301 36 7v-86
c-11.333 -8 -25.166 -14.833 -41.499 -20.5s-36.166 -8.5 -59.499 -8.5c-28 0 -52 6.83301 -72 20.5s-33.667 33.167 -41 58.5c-26 -52.667 -75.333 -79 -148 -79c-44 0 -79 10.667 -105 32s-39 51 -39 89c0 43.333 14.333 75.333 43 96s67.334 35.334 116.001 44.001
l125 21v7c0 18.667 -4.5 33.167 -13.5 43.5s-23.167 15.5 -42.5 15.5c-18 0 -31.833 -5.16699 -41.5 -15.5s-16.167 -23.833 -19.5 -40.5l-150 10c7.33301 49.333 29.166 89.333 65.499 120s88.166 46 155.499 46c29.333 0 56.5 -3.33301 81.5 -10s46.667 -17 65 -31
s32.666 -32 42.999 -54s15.5 -48.667 15.5 -80v-152zM225.001 576.999c0 -10 2.83301 -18.167 8.5 -24.5s14.167 -9.5 25.5 -9.5s19.833 3.16699 25.5 9.5s8.5 14.5 8.5 24.5s-2.83301 18.167 -8.5 24.5s-14.167 9.5 -25.5 9.5s-19.833 -3.16699 -25.5 -9.5
s-8.5 -14.5 -8.5 -24.5zM161.001 576.999c0 27.333 8.83301 49.833 26.5 67.5s41.5 26.5 71.5 26.5s53.833 -8.83301 71.5 -26.5s26.5 -40.167 26.5 -67.5s-8.83301 -49.833 -26.5 -67.5s-41.5 -26.5 -71.5 -26.5s-53.833 8.83301 -71.5 26.5s-26.5 40.167 -26.5 67.5z" />
    <glyph glyph-name="ae" unicode="&#xe6;" horiz-adv-x="781" 
d="M240 458c31.333 0 58.833 -4.50098 82.5 -13.501s43.834 -23.5 60.501 -43.5c15.333 17.333 36.833 31.166 64.5 41.499s55.5 15.5 83.5 15.5c37.333 0 70.166 -6 98.499 -18s52.166 -28.167 71.499 -48.5s33.833 -44 43.5 -71s14.5 -55.5 14.5 -85.5v-43h-316
c5.33301 -32 17.333 -53.833 36 -65.5s38.667 -17.5 60 -17.5c44 0 73 16.667 87 50l130 -12c-11.333 -51.333 -36.5 -90.666 -75.5 -117.999s-88.167 -41 -147.5 -41c-42 0 -77.5 7 -106.5 21s-53.167 34.667 -72.5 62c-15.333 -23.333 -38.166 -42.666 -68.499 -57.999
s-66.5 -23 -108.5 -23c-50.667 0 -89.834 12.667 -117.501 38s-41.5 56.333 -41.5 93c0 50.667 20 87.834 60 111.501s93.667 35.5 161 35.5h71v7c0 19.333 -5.66699 34.666 -17 45.999s-26.666 17 -45.999 17c-18 0 -33 -4.66699 -45 -14s-20 -21.333 -24 -36l-140 8
c3.33301 24.667 10.833 47 22.5 67s26.5 37 44.5 51s38.5 24.833 61.5 32.5s47.5 11.5 73.5 11.5zM225 93.999c23.333 0 43.332 7.5 59.999 22.5s25 36.167 25 63.5v12h-62c-23.333 0 -41.5 -4.5 -54.5 -13.5s-19.5 -22.5 -19.5 -40.5c0 -13.333 4.33301 -24 13 -32
s21.334 -12 38.001 -12zM528.999 341.999c-21.333 0 -39.333 -6 -54 -18s-24.667 -30.667 -30 -56h160c-1.33301 20 -8.33301 37.333 -21 52s-31 22 -55 22z" />
    <glyph glyph-name="ccedilla" unicode="&#xe7;" horiz-adv-x="502" 
d="M379 -102c0 -13.333 -3.50293 -24.665 -10.5029 -33.998s-16 -16.833 -27 -22.5s-23.667 -9.83398 -38 -12.501s-29.166 -4 -44.499 -4c-25.333 0 -47.833 3.16699 -67.5 9.5s-35.167 14.166 -46.5 23.499l17 39c11.333 -6.66699 23.833 -12 37.5 -16s29.167 -6 46.5 -6
c12.667 0 22.5 1.5 29.5 4.5s10.5 8.5 10.5 16.5c0 6.66699 -2.33301 11.667 -7 15s-10.5 5.33301 -17.5 6s-14.5 0.333984 -22.5 -0.999023s-15.333 -3.33301 -22 -6l-31 11l48 69c-31.333 2.66699 -60.166 10.167 -86.499 22.5s-49 28.666 -68 48.999
s-33.667 44.166 -44 71.499s-15.5 57.333 -15.5 90c0 35.333 6.16699 67.5 18.5 96.5s29.333 53.667 51 74s47.334 36.166 77.001 47.499s62.167 17 97.5 17c33.333 0 63 -5.16699 89 -15.5s48.333 -24.166 67 -41.499s33.334 -37.833 44.001 -61.5
s17.334 -48.834 20.001 -75.501l-133 -9c-10.667 54 -39 81 -85 81c-24.667 0 -44.667 -8.83301 -60 -26.5s-23 -46.5 -23 -86.5s7.66699 -68.833 23 -86.5s35.333 -26.5 60 -26.5c46 0 74.333 27.333 85 82l133 -10c-2.66699 -26 -9 -50.167 -19 -72.5
s-23.333 -42.166 -40 -59.499s-36.834 -31.333 -60.501 -42s-50.834 -17 -81.501 -19l-19 -25c14.667 2.66699 29 3.33398 43 2.00098s26.333 -4.83301 37 -10.5s19.167 -13.167 25.5 -22.5s9.5 -21 9.5 -35z" />
    <glyph glyph-name="egrave" unicode="&#xe8;" horiz-adv-x="513" 
d="M488 147c-11.333 -51.333 -36.501 -90.666 -75.501 -117.999s-88.167 -41 -147.5 -41c-36 0 -69 5.16699 -99 15.5s-55.833 25.333 -77.5 45s-38.5 43.667 -50.5 72s-18 60.166 -18 95.499s6.16699 67.833 18.5 97.5s29.333 55.167 51 76.5s47.334 38 77.001 50
s61.834 18 96.501 18c37.333 0 70.166 -6 98.499 -18s52.166 -28.167 71.499 -48.5s33.833 -44 43.5 -71s14.5 -55.5 14.5 -85.5v-45h-313c2 -28 11.833 -48.5 29.5 -61.5s38.834 -19.5 63.501 -19.5c44 0 73 16.667 87 50zM336.999 268
c-1.33301 20 -8.33398 37.333 -21.001 52s-31 22 -55 22c-26 0 -45.167 -7 -57.5 -21s-20.166 -31.667 -23.499 -53h157zM207.998 488l-97 142h159l54 -142h-116z" />
    <glyph glyph-name="eacute" unicode="&#xe9;" horiz-adv-x="513" 
d="M488 147c-11.333 -51.333 -36.501 -90.666 -75.501 -117.999s-88.167 -41 -147.5 -41c-36 0 -69 5.16699 -99 15.5s-55.833 25.333 -77.5 45s-38.5 43.667 -50.5 72s-18 60.166 -18 95.499s6.16699 67.833 18.5 97.5s29.333 55.167 51 76.5s47.334 38 77.001 50
s61.834 18 96.501 18c37.333 0 70.166 -6 98.499 -18s52.166 -28.167 71.499 -48.5s33.833 -44 43.5 -71s14.5 -55.5 14.5 -85.5v-45h-313c2 -28 11.833 -48.5 29.5 -61.5s38.834 -19.5 63.501 -19.5c44 0 73 16.667 87 50zM336.999 268
c-1.33301 20 -8.33398 37.333 -21.001 52s-31 22 -55 22c-26 0 -45.167 -7 -57.5 -21s-20.166 -31.667 -23.499 -53h157zM204.998 488l54 142h159l-97 -142h-116z" />
    <glyph glyph-name="ecircumflex" unicode="&#xea;" horiz-adv-x="513" 
d="M488 147c-11.333 -51.333 -36.501 -90.666 -75.501 -117.999s-88.167 -41 -147.5 -41c-36 0 -69 5.16699 -99 15.5s-55.833 25.333 -77.5 45s-38.5 43.667 -50.5 72s-18 60.166 -18 95.499s6.16699 67.833 18.5 97.5s29.333 55.167 51 76.5s47.334 38 77.001 50
s61.834 18 96.501 18c37.333 0 70.166 -6 98.499 -18s52.166 -28.167 71.499 -48.5s33.833 -44 43.5 -71s14.5 -55.5 14.5 -85.5v-45h-313c2 -28 11.833 -48.5 29.5 -61.5s38.834 -19.5 63.501 -19.5c44 0 73 16.667 87 50zM336.999 268
c-1.33301 20 -8.33398 37.333 -21.001 52s-31 22 -55 22c-26 0 -45.167 -7 -57.5 -21s-20.166 -31.667 -23.499 -53h157zM340.998 630l86 -142h-102l-60 55l-60 -55h-102l86 142h152z" />
    <glyph glyph-name="edieresis" unicode="&#xeb;" horiz-adv-x="513" 
d="M488 147c-11.333 -51.333 -36.501 -90.666 -75.501 -117.999s-88.167 -41 -147.5 -41c-36 0 -69 5.16699 -99 15.5s-55.833 25.333 -77.5 45s-38.5 43.667 -50.5 72s-18 60.166 -18 95.499s6.16699 67.833 18.5 97.5s29.333 55.167 51 76.5s47.334 38 77.001 50
s61.834 18 96.501 18c37.333 0 70.166 -6 98.499 -18s52.166 -28.167 71.499 -48.5s33.833 -44 43.5 -71s14.5 -55.5 14.5 -85.5v-45h-313c2 -28 11.833 -48.5 29.5 -61.5s38.834 -19.5 63.501 -19.5c44 0 73 16.667 87 50zM336.999 268
c-1.33301 20 -8.33398 37.333 -21.001 52s-31 22 -55 22c-26 0 -45.167 -7 -57.5 -21s-20.166 -31.667 -23.499 -53h157zM99.998 630h142v-142h-142v142zM287.998 630h142v-142h-142v142z" />
    <glyph glyph-name="igrave" unicode="&#xec;" horiz-adv-x="250" 
d="M206 446v-446h-162v446h162zM68 488l-97 142h159l54 -142h-116z" />
    <glyph glyph-name="iacute" unicode="&#xed;" horiz-adv-x="250" 
d="M206 446v-446h-162v446h162zM65 488l54 142h159l-97 -142h-116z" />
    <glyph glyph-name="icircumflex" unicode="&#xee;" horiz-adv-x="250" 
d="M206 446v-446h-162v446h162zM201 630l86 -142h-102l-60 55l-60 -55h-102l86 142h152z" />
    <glyph glyph-name="idieresis" unicode="&#xef;" horiz-adv-x="250" 
d="M206 446v-446h-162v446h162zM-40 630h142v-142h-142v142zM148 630h142v-142h-142v142z" />
    <glyph glyph-name="eth" unicode="&#xf0;" horiz-adv-x="525" 
d="M78 503l99 29.998c-29.333 20.667 -59.666 40.334 -90.999 59.001l145 50c17.333 -9.33301 34.166 -19.166 50.499 -29.499s31.833 -21.166 46.5 -32.499l94 29l24 -68l-57 -18c37.333 -40.667 66 -85 86 -133s30 -98.333 30 -151c0 -39.333 -5.83301 -74.5 -17.5 -105.5
s-28 -57.333 -49 -79s-46.333 -38.167 -76 -49.5s-62.5 -17 -98.5 -17c-36.667 0 -70 5 -100 15s-55.667 24.667 -77 44s-37.833 42.833 -49.5 70.5s-17.5 59.5 -17.5 95.5c0 35.333 6 66 18 92s28 47.667 48 65s43 30.333 69 39s52.667 13 80 13c20 0 39 -3 57 -9
s33.667 -15.667 47 -29c-6 13.333 -17 28.166 -33 44.499s-35 33.5 -57 51.5l-147 -45zM264 112.998c25.333 0 45.166 9.5 59.499 28.5s21.5 42.5 21.5 70.5c0 28.667 -7.16699 52.5 -21.5 71.5s-34.166 28.5 -59.499 28.5s-45.166 -9.5 -59.499 -28.5
s-21.5 -42.833 -21.5 -71.5c0 -28 7.16699 -51.5 21.5 -70.5s34.166 -28.5 59.499 -28.5z" />
    <glyph glyph-name="ntilde" unicode="&#xf1;" horiz-adv-x="550" 
d="M206 0l-161.999 -0.000976562v446h162v-67c12 24.667 30.5 44 55.5 58s54.5 21 88.5 21c30.667 0 56.334 -4.83301 77.001 -14.5s37.167 -22.834 49.5 -39.501s21.166 -35.667 26.499 -57s8 -43.666 8 -66.999v-280h-162v237c0 30.667 -4.83301 53.834 -14.5 69.501
s-26.834 23.5 -51.501 23.5c-28 0 -47.833 -10 -59.5 -30s-17.5 -47 -17.5 -81v-219zM133.001 487.999c0 42.667 7.5 77.5 22.5 104.5s37.5 40.5 67.5 40.5c11.333 0 21.666 -2 30.999 -6s18.333 -8.16699 27 -12.5l24.5 -12.5c7.66699 -4 15.834 -6 24.501 -6
c7.33301 0 14.166 2.33301 20.499 7s10.166 13.667 11.499 27h75c0 -42.667 -7.5 -77.5 -22.5 -104.5s-37.5 -40.5 -67.5 -40.5c-11.333 0 -21.666 2 -30.999 6s-18.333 8.16699 -27 12.5l-24.5 12.5c-7.66699 4 -15.834 6 -24.501 6
c-7.33301 0 -14.166 -2.33301 -20.499 -7s-10.166 -13.667 -11.499 -27h-75z" />
    <glyph glyph-name="ograve" unicode="&#xf2;" horiz-adv-x="528" 
d="M183 223c0 -34 6.33301 -61.333 19 -82s33.334 -31 62.001 -31c28 0 48.5 10.333 61.5 31s19.5 48 19.5 82s-6.5 61.333 -19.5 82s-33.5 31 -61.5 31c-28.667 0 -49.334 -10.333 -62.001 -31s-19 -48 -19 -82zM508 223c0 -34.667 -5.83301 -66.5 -17.5 -95.5
s-28.334 -53.833 -50.001 -74.5s-47.5 -36.667 -77.5 -48s-63 -17 -99 -17c-36.667 0 -70 5.66699 -100 17s-55.667 27.333 -77 48s-37.833 45.5 -49.5 74.5s-17.5 60.833 -17.5 95.5s5.83301 66.334 17.5 95.001s28.167 53.334 49.5 74.001s47 36.834 77 48.501
s63.333 17.5 100 17.5c36 0 69 -5.83301 99 -17.5s55.833 -27.834 77.5 -48.501s38.334 -45.334 50.001 -74.001s17.5 -60.334 17.5 -95.001zM207 488l-97 142h159l54 -142h-116z" />
    <glyph glyph-name="oacute" unicode="&#xf3;" horiz-adv-x="528" 
d="M183 223c0 -34 6.33301 -61.333 19 -82s33.334 -31 62.001 -31c28 0 48.5 10.333 61.5 31s19.5 48 19.5 82s-6.5 61.333 -19.5 82s-33.5 31 -61.5 31c-28.667 0 -49.334 -10.333 -62.001 -31s-19 -48 -19 -82zM508 223c0 -34.667 -5.83301 -66.5 -17.5 -95.5
s-28.334 -53.833 -50.001 -74.5s-47.5 -36.667 -77.5 -48s-63 -17 -99 -17c-36.667 0 -70 5.66699 -100 17s-55.667 27.333 -77 48s-37.833 45.5 -49.5 74.5s-17.5 60.833 -17.5 95.5s5.83301 66.334 17.5 95.001s28.167 53.334 49.5 74.001s47 36.834 77 48.501
s63.333 17.5 100 17.5c36 0 69 -5.83301 99 -17.5s55.833 -27.834 77.5 -48.501s38.334 -45.334 50.001 -74.001s17.5 -60.334 17.5 -95.001zM204 488l54 142h159l-97 -142h-116z" />
    <glyph glyph-name="ocircumflex" unicode="&#xf4;" horiz-adv-x="528" 
d="M183 223c0 -34 6.33301 -61.333 19 -82s33.334 -31 62.001 -31c28 0 48.5 10.333 61.5 31s19.5 48 19.5 82s-6.5 61.333 -19.5 82s-33.5 31 -61.5 31c-28.667 0 -49.334 -10.333 -62.001 -31s-19 -48 -19 -82zM508 223c0 -34.667 -5.83301 -66.5 -17.5 -95.5
s-28.334 -53.833 -50.001 -74.5s-47.5 -36.667 -77.5 -48s-63 -17 -99 -17c-36.667 0 -70 5.66699 -100 17s-55.667 27.333 -77 48s-37.833 45.5 -49.5 74.5s-17.5 60.833 -17.5 95.5s5.83301 66.334 17.5 95.001s28.167 53.334 49.5 74.001s47 36.834 77 48.501
s63.333 17.5 100 17.5c36 0 69 -5.83301 99 -17.5s55.833 -27.834 77.5 -48.501s38.334 -45.334 50.001 -74.001s17.5 -60.334 17.5 -95.001zM340 630l86 -142h-102l-60 55l-60 -55h-102l86 142h152z" />
    <glyph glyph-name="otilde" unicode="&#xf5;" horiz-adv-x="528" 
d="M183 223c0 -34 6.33301 -61.333 19 -82s33.334 -31 62.001 -31c28 0 48.5 10.333 61.5 31s19.5 48 19.5 82s-6.5 61.333 -19.5 82s-33.5 31 -61.5 31c-28.667 0 -49.334 -10.333 -62.001 -31s-19 -48 -19 -82zM508 223c0 -34.667 -5.83301 -66.5 -17.5 -95.5
s-28.334 -53.833 -50.001 -74.5s-47.5 -36.667 -77.5 -48s-63 -17 -99 -17c-36.667 0 -70 5.66699 -100 17s-55.667 27.333 -77 48s-37.833 45.5 -49.5 74.5s-17.5 60.833 -17.5 95.5s5.83301 66.334 17.5 95.001s28.167 53.334 49.5 74.001s47 36.834 77 48.501
s63.333 17.5 100 17.5c36 0 69 -5.83301 99 -17.5s55.833 -27.834 77.5 -48.501s38.334 -45.334 50.001 -74.001s17.5 -60.334 17.5 -95.001zM114 488c0 42.667 7.5 77.5 22.5 104.5s37.5 40.5 67.5 40.5c11.333 0 21.666 -2 30.999 -6s18.333 -8.16699 27 -12.5l24.5 -12.5
c7.66699 -4 15.834 -6 24.501 -6c7.33301 0 14.166 2.33301 20.499 7s10.166 13.667 11.499 27h75c0 -42.667 -7.5 -77.5 -22.5 -104.5s-37.5 -40.5 -67.5 -40.5c-11.333 0 -21.666 2 -30.999 6s-18.333 8.16699 -27 12.5l-24.5 12.5c-7.66699 4 -15.834 6 -24.501 6
c-7.33301 0 -14.166 -2.33301 -20.499 -7s-10.166 -13.667 -11.499 -27h-75z" />
    <glyph glyph-name="odieresis" unicode="&#xf6;" horiz-adv-x="528" 
d="M183 223c0 -34 6.33301 -61.333 19 -82s33.334 -31 62.001 -31c28 0 48.5 10.333 61.5 31s19.5 48 19.5 82s-6.5 61.333 -19.5 82s-33.5 31 -61.5 31c-28.667 0 -49.334 -10.333 -62.001 -31s-19 -48 -19 -82zM508 223c0 -34.667 -5.83301 -66.5 -17.5 -95.5
s-28.334 -53.833 -50.001 -74.5s-47.5 -36.667 -77.5 -48s-63 -17 -99 -17c-36.667 0 -70 5.66699 -100 17s-55.667 27.333 -77 48s-37.833 45.5 -49.5 74.5s-17.5 60.833 -17.5 95.5s5.83301 66.334 17.5 95.001s28.167 53.334 49.5 74.001s47 36.834 77 48.501
s63.333 17.5 100 17.5c36 0 69 -5.83301 99 -17.5s55.833 -27.834 77.5 -48.501s38.334 -45.334 50.001 -74.001s17.5 -60.334 17.5 -95.001zM99 630h142v-142h-142v142zM287 630h142v-142h-142v142z" />
    <glyph glyph-name="divide" unicode="&#xf7;" horiz-adv-x="612" 
d="M42 378h528v-135h-528v135zM220 605h173v-163h-173v163zM220 178h173v-162h-173v162z" />
    <glyph glyph-name="oslash" unicode="&#xf8;" horiz-adv-x="528" 
d="M508 223c0 -34.667 -5.83203 -66.5039 -17.499 -95.5039s-28.334 -53.833 -50.001 -74.5s-47.5 -36.667 -77.5 -48s-63 -17 -99 -17c-46.667 0 -88.667 9.33301 -126 28l-42 -51l-56 44l41 50c-19.333 20.667 -34.333 44.667 -45 72s-16 58 -16 92
c0 34.667 5.83301 66.334 17.5 95.001s28.167 53.334 49.5 74.001s47 36.834 77 48.501s63.333 17.5 100 17.5c48 0 89.667 -9.66699 125 -29l43 51l56 -43l-42 -51c19.333 -20.667 34.5 -44.667 45.5 -72s16.5 -57.666 16.5 -90.999zM171.001 222.996
c0 -17.333 1.99902 -33.667 5.99902 -49l128 153c-12 6 -25.667 9 -41 9c-31.333 0 -54.666 -10.333 -69.999 -31s-23 -48 -23 -82zM357 222.995c0 18.667 -2.33398 34.667 -7.00098 48l-127 -153c10 -5.33301 23.667 -8 41 -8c30.667 0 53.834 10.333 69.501 31
s23.5 48 23.5 82z" />
    <glyph glyph-name="ugrave" unicode="&#xf9;" horiz-adv-x="544" 
d="M338 446l161.998 0.00195312v-446h-162v67c-12 -25.333 -29.833 -44.833 -53.5 -58.5s-52.5 -20.5 -86.5 -20.5c-30.667 0 -56.167 4.83301 -76.5 14.5s-36.666 22.667 -48.999 39s-21 35.166 -26 56.499s-7.5 43.666 -7.5 66.999v281h162v-238
c0 -30 4.83301 -53 14.5 -69s26.834 -24 51.501 -24c25.333 0 43.5 10.167 54.5 30.5s16.5 47.5 16.5 81.5v219zM211.998 488.002l-97 142h159l54 -142h-116z" />
    <glyph glyph-name="uacute" unicode="&#xfa;" horiz-adv-x="544" 
d="M338 446l161.998 0.00195312v-446h-162v67c-12 -25.333 -29.833 -44.833 -53.5 -58.5s-52.5 -20.5 -86.5 -20.5c-30.667 0 -56.167 4.83301 -76.5 14.5s-36.666 22.667 -48.999 39s-21 35.166 -26 56.499s-7.5 43.666 -7.5 66.999v281h162v-238
c0 -30 4.83301 -53 14.5 -69s26.834 -24 51.501 -24c25.333 0 43.5 10.167 54.5 30.5s16.5 47.5 16.5 81.5v219zM208.998 488.002l54 142h159l-97 -142h-116z" />
    <glyph glyph-name="ucircumflex" unicode="&#xfb;" horiz-adv-x="544" 
d="M338 446l161.998 0.00195312v-446h-162v67c-12 -25.333 -29.833 -44.833 -53.5 -58.5s-52.5 -20.5 -86.5 -20.5c-30.667 0 -56.167 4.83301 -76.5 14.5s-36.666 22.667 -48.999 39s-21 35.166 -26 56.499s-7.5 43.666 -7.5 66.999v281h162v-238
c0 -30 4.83301 -53 14.5 -69s26.834 -24 51.501 -24c25.333 0 43.5 10.167 54.5 30.5s16.5 47.5 16.5 81.5v219zM344.998 630.002l86 -142h-102l-60 55l-60 -55h-102l86 142h152z" />
    <glyph glyph-name="udieresis" unicode="&#xfc;" horiz-adv-x="544" 
d="M338 446l161.998 0.00195312v-446h-162v67c-12 -25.333 -29.833 -44.833 -53.5 -58.5s-52.5 -20.5 -86.5 -20.5c-30.667 0 -56.167 4.83301 -76.5 14.5s-36.666 22.667 -48.999 39s-21 35.166 -26 56.499s-7.5 43.666 -7.5 66.999v281h162v-238
c0 -30 4.83301 -53 14.5 -69s26.834 -24 51.501 -24c25.333 0 43.5 10.167 54.5 30.5s16.5 47.5 16.5 81.5v219zM103.998 630.002h142v-142h-142v142zM291.998 630.002h142v-142h-142v142z" />
    <glyph glyph-name="yacute" unicode="&#xfd;" horiz-adv-x="529" 
d="M116 -160l64 154l-182 452h170l99 -261h4l101 261h159l-256 -606h-159zM204 488l54 142h159l-97 -142h-116z" />
    <glyph glyph-name="thorn" unicode="&#xfe;" horiz-adv-x="571" 
d="M206 220c0 -32.667 8 -58.667 24 -78s38 -29 66 -29c32 0 55.333 10.167 70 30.5s22 46.833 22 79.5c0 32 -7.33301 58.167 -22 78.5s-38 30.5 -70 30.5c-28 0 -50 -9.66699 -66 -29s-24 -45 -24 -77v-6zM206 -160l-162 0.00195312v790h162v-261
c11.333 26.667 29.166 48.167 53.499 64.5s55.5 24.5 93.5 24.5c32.667 0 61.334 -6.16699 86.001 -18.5s45.334 -29 62.001 -50s29.167 -45.833 37.5 -74.5s12.5 -59.334 12.5 -92.001s-4.16699 -63.334 -12.5 -92.001s-20.833 -53.667 -37.5 -75s-37.334 -38 -62.001 -50
s-53.334 -18 -86.001 -18c-38 0 -69.167 8.16699 -93.5 24.5s-42.166 37.5 -53.499 63.5v-236z" />
    <glyph glyph-name="ydieresis" unicode="&#xff;" horiz-adv-x="529" 
d="M116 -160l64 154l-182 452h170l99 -261h4l101 261h159l-256 -606h-159zM99 630h142v-142h-142v142zM287 630h142v-142h-142v142z" />
    <glyph glyph-name="Amacron" unicode="&#x100;" horiz-adv-x="692" 
d="M441 630l251 -630h-181l-47 122h-246l-47 -122h-171l251 630h190zM200 780h285v-108h-285v108zM267 249h148l-72 186h-4z" />
    <glyph glyph-name="amacron" unicode="&#x101;" horiz-adv-x="527" 
d="M302 193l-65.999 -12c-19.333 -4 -34.5 -9.5 -45.5 -16.5s-16.5 -17.833 -16.5 -32.5c0 -11.333 4.16699 -20.5 12.5 -27.5s19.166 -10.5 32.499 -10.5c23.333 0 43 8 59 24s24 38.667 24 68v7zM461.001 131c0 -22 9 -33.001 27 -33.001c12 0 24 2.33301 36 7v-86
c-11.333 -8 -25.166 -14.833 -41.499 -20.5s-36.166 -8.5 -59.499 -8.5c-28 0 -52 6.83301 -72 20.5s-33.667 33.167 -41 58.5c-26 -52.667 -75.333 -79 -148 -79c-44 0 -79 10.667 -105 32s-39 51 -39 89c0 43.333 14.333 75.333 43 96s67.334 35.334 116.001 44.001
l125 21v7c0 18.667 -4.5 33.167 -13.5 43.5s-23.167 15.5 -42.5 15.5c-18 0 -31.833 -5.16699 -41.5 -15.5s-16.167 -23.833 -19.5 -40.5l-150 10c7.33301 49.333 29.166 89.333 65.499 120s88.166 46 155.499 46c29.333 0 56.5 -3.33301 81.5 -10s46.667 -17 65 -31
s32.666 -32 42.999 -54s15.5 -48.667 15.5 -80v-152zM122.001 599.999h275v-108h-275v108z" />
    <glyph glyph-name="Abreve" unicode="&#x102;" horiz-adv-x="692" 
d="M441 630l251 -630h-181l-47 122h-246l-47 -122h-171l251 630h190zM342 668c-44.667 0 -79.502 12.5 -104.502 37.5s-37.5 59.833 -37.5 104.5h91c0 -16 4.83301 -27.667 14.5 -35s21.834 -11 36.501 -11s26.834 3.66699 36.501 11s14.5 19 14.5 35h91
c0 -44.667 -12.5 -79.5 -37.5 -104.5s-59.833 -37.5 -104.5 -37.5zM266.998 249h148l-72 186h-4z" />
    <glyph glyph-name="abreve" unicode="&#x103;" horiz-adv-x="527" 
d="M302 193l-65.999 -12c-19.333 -4 -34.5 -9.5 -45.5 -16.5s-16.5 -17.833 -16.5 -32.5c0 -11.333 4.16699 -20.5 12.5 -27.5s19.166 -10.5 32.499 -10.5c23.333 0 43 8 59 24s24 38.667 24 68v7zM461.001 131c0 -22 9 -33.001 27 -33.001c12 0 24 2.33301 36 7v-86
c-11.333 -8 -25.166 -14.833 -41.499 -20.5s-36.166 -8.5 -59.499 -8.5c-28 0 -52 6.83301 -72 20.5s-33.667 33.167 -41 58.5c-26 -52.667 -75.333 -79 -148 -79c-44 0 -79 10.667 -105 32s-39 51 -39 89c0 43.333 14.333 75.333 43 96s67.334 35.334 116.001 44.001
l125 21v7c0 18.667 -4.5 33.167 -13.5 43.5s-23.167 15.5 -42.5 15.5c-18 0 -31.833 -5.16699 -41.5 -15.5s-16.167 -23.833 -19.5 -40.5l-150 10c7.33301 49.333 29.166 89.333 65.499 120s88.166 46 155.499 46c29.333 0 56.5 -3.33301 81.5 -10s46.667 -17 65 -31
s32.666 -32 42.999 -54s15.5 -48.667 15.5 -80v-152zM259.001 487.999c-44.667 0 -79.502 12.5 -104.502 37.5s-37.5 59.833 -37.5 104.5h91c0 -16 4.83301 -27.667 14.5 -35s21.834 -11 36.501 -11s26.834 3.66699 36.501 11s14.5 19 14.5 35h91
c0 -44.667 -12.5 -79.5 -37.5 -104.5s-59.833 -37.5 -104.5 -37.5z" />
    <glyph glyph-name="Aogonek" unicode="&#x104;" horiz-adv-x="692" 
d="M441 630l251 -629.998c-28 -15.333 -46.833 -27.333 -56.5 -36s-14.5 -18.334 -14.5 -29.001c0 -8.66699 2.5 -15.167 7.5 -19.5s11.5 -6.5 19.5 -6.5s15.5 1.16699 22.5 3.5s14.167 5.16602 21.5 8.49902v-72c-8.66699 -5.33301 -19 -10.666 -31 -15.999
s-28.667 -8 -50 -8c-30 0 -53.333 6.66699 -70 20s-25 30.666 -25 51.999c0 38.667 19.667 73 59 103h-64l-47 122h-246l-47 -122h-171l251 630h190zM267 249.002h148l-72 186h-4z" />
    <glyph glyph-name="aogonek" unicode="&#x105;" horiz-adv-x="527" 
d="M461 131c0 -22 9.00098 -33.001 27.001 -33.001c12 0 24 2.33301 36 7v-86c-26.667 -22 -45.167 -38.667 -55.5 -50s-15.5 -22.666 -15.5 -33.999c0 -8.66699 2.5 -15.167 7.5 -19.5s11.5 -6.5 19.5 -6.5s15.5 1.16699 22.5 3.5s14.167 5.16602 21.5 8.49902v-72
c-8.66699 -5.33301 -19 -10.666 -31 -15.999s-28.667 -8 -50 -8c-30 0 -53.333 6.66699 -70 20s-25 30.666 -25 51.999c0 17.333 4.33301 34 13 50s20.667 31 36 45c-21.333 4 -39.666 12.5 -54.999 25.5s-26 30.167 -32 51.5c-26 -52.667 -75.333 -79 -148 -79
c-44 0 -79 10.667 -105 32s-39 51 -39 89c0 43.333 14.333 75.333 43 96s67.334 35.334 116.001 44.001l125 21v7c0 18.667 -4.5 33.167 -13.5 43.5s-23.167 15.5 -42.5 15.5c-18 0 -31.833 -5.16699 -41.5 -15.5s-16.167 -23.833 -19.5 -40.5l-150 10
c7.33301 49.333 29.166 89.333 65.499 120s88.166 46 155.499 46c29.333 0 56.5 -3.33301 81.5 -10s46.667 -17 65 -31s32.666 -32 42.999 -54s15.5 -48.667 15.5 -80v-152zM302.001 193.999l-65.999 -12.999c-19.333 -4 -34.5 -9.5 -45.5 -16.5s-16.5 -17.833 -16.5 -32.5
c0 -11.333 4.16699 -20.5 12.5 -27.5s19.166 -10.5 32.499 -10.5c23.333 0 43 8.16699 59 24.5s24 39.166 24 68.499v7z" />
    <glyph glyph-name="Cacute" unicode="&#x106;" horiz-adv-x="669" 
d="M20 315c0 48.667 8.16699 93.002 24.5 133.002s39 74.333 68 103s63.167 51 102.5 67s82 24 128 24c48 0 90.5 -7.16699 127.5 -21.5s68.333 -34.166 94 -59.499s45.834 -55 60.501 -89s23.334 -70.667 26.001 -110l-163 -6
c-2.66699 17.333 -7.16699 34.166 -13.5 50.499s-15.166 30.833 -26.499 43.5s-25.666 22.667 -42.999 30s-38.333 11 -63 11c-46.667 0 -82.834 -15.833 -108.501 -47.5s-38.5 -74.5 -38.5 -128.5s12.833 -96.833 38.5 -128.5s61.834 -47.5 108.501 -47.5
c24.667 0 45.667 3.83301 63 11.5s31.666 17.667 42.999 30s20.166 26.666 26.499 42.999s10.833 33.166 13.5 50.499l163 -7c-2.66699 -39.333 -11.334 -76 -26.001 -110s-34.834 -63.5 -60.501 -88.5s-57 -44.667 -94 -59s-79.5 -21.5 -127.5 -21.5
c-46 0 -88.667 8 -128 24s-73.5 38.333 -102.5 67s-51.667 63 -68 103s-24.5 84.333 -24.5 133zM293 668.002l54 142h159l-97 -142h-116z" />
    <glyph glyph-name="cacute" unicode="&#x107;" horiz-adv-x="502" 
d="M20 223c0 35.333 6.16699 67.5039 18.5 96.5039s29.333 53.667 51 74s47.334 36.166 77.001 47.499s62.167 17 97.5 17c33.333 0 63 -5.16699 89 -15.5s48.333 -24.166 67 -41.499s33.334 -37.833 44.001 -61.5s17.334 -48.834 20.001 -75.501l-133 -9
c-10.667 54 -39 81 -85 81c-24.667 0 -44.667 -8.83301 -60 -26.5s-23 -46.5 -23 -86.5s7.66699 -68.833 23 -86.5s35.333 -26.5 60 -26.5c46 0 74.333 27.333 85 82l133 -10c-2.66699 -26.667 -9.33398 -51.834 -20.001 -75.501s-25.334 -44.334 -44.001 -62.001
s-41 -31.5 -67 -41.5s-55.667 -15 -89 -15c-35.333 0 -67.833 5.66699 -97.5 17s-55.334 27.166 -77.001 47.499s-38.667 45 -51 74s-18.5 61.167 -18.5 96.5zM202 488.004l54 142h159l-97 -142h-116z" />
    <glyph glyph-name="Ccircumflex" unicode="&#x108;" horiz-adv-x="669" 
d="M20 315c0 48.667 8.16699 93.002 24.5 133.002s39 74.333 68 103s63.167 51 102.5 67s82 24 128 24c48 0 90.5 -7.16699 127.5 -21.5s68.333 -34.166 94 -59.499s45.834 -55 60.501 -89s23.334 -70.667 26.001 -110l-163 -6
c-2.66699 17.333 -7.16699 34.166 -13.5 50.499s-15.166 30.833 -26.499 43.5s-25.666 22.667 -42.999 30s-38.333 11 -63 11c-46.667 0 -82.834 -15.833 -108.501 -47.5s-38.5 -74.5 -38.5 -128.5s12.833 -96.833 38.5 -128.5s61.834 -47.5 108.501 -47.5
c24.667 0 45.667 3.83301 63 11.5s31.666 17.667 42.999 30s20.166 26.666 26.499 42.999s10.833 33.166 13.5 50.499l163 -7c-2.66699 -39.333 -11.334 -76 -26.001 -110s-34.834 -63.5 -60.501 -88.5s-57 -44.667 -94 -59s-79.5 -21.5 -127.5 -21.5
c-46 0 -88.667 8 -128 24s-73.5 38.333 -102.5 67s-51.667 63 -68 103s-24.5 84.333 -24.5 133zM425 810.002l86 -142h-102l-60 55l-60 -55h-102l86 142h152z" />
    <glyph glyph-name="ccircumflex" unicode="&#x109;" horiz-adv-x="502" 
d="M20 223c0 35.333 6.16699 67.5039 18.5 96.5039s29.333 53.667 51 74s47.334 36.166 77.001 47.499s62.167 17 97.5 17c33.333 0 63 -5.16699 89 -15.5s48.333 -24.166 67 -41.499s33.334 -37.833 44.001 -61.5s17.334 -48.834 20.001 -75.501l-133 -9
c-10.667 54 -39 81 -85 81c-24.667 0 -44.667 -8.83301 -60 -26.5s-23 -46.5 -23 -86.5s7.66699 -68.833 23 -86.5s35.333 -26.5 60 -26.5c46 0 74.333 27.333 85 82l133 -10c-2.66699 -26.667 -9.33398 -51.834 -20.001 -75.501s-25.334 -44.334 -44.001 -62.001
s-41 -31.5 -67 -41.5s-55.667 -15 -89 -15c-35.333 0 -67.833 5.66699 -97.5 17s-55.334 27.166 -77.001 47.499s-38.667 45 -51 74s-18.5 61.167 -18.5 96.5zM338 630.004l86 -142h-102l-60 55l-60 -55h-102l86 142h152z" />
    <glyph glyph-name="Cdotaccent" unicode="&#x10a;" horiz-adv-x="669" 
d="M20 315c0 48.667 8.16699 93.002 24.5 133.002s39 74.333 68 103s63.167 51 102.5 67s82 24 128 24c48 0 90.5 -7.16699 127.5 -21.5s68.333 -34.166 94 -59.499s45.834 -55 60.501 -89s23.334 -70.667 26.001 -110l-163 -6
c-2.66699 17.333 -7.16699 34.166 -13.5 50.499s-15.166 30.833 -26.499 43.5s-25.666 22.667 -42.999 30s-38.333 11 -63 11c-46.667 0 -82.834 -15.833 -108.501 -47.5s-38.5 -74.5 -38.5 -128.5s12.833 -96.833 38.5 -128.5s61.834 -47.5 108.501 -47.5
c24.667 0 45.667 3.83301 63 11.5s31.666 17.667 42.999 30s20.166 26.666 26.499 42.999s10.833 33.166 13.5 50.499l163 -7c-2.66699 -39.333 -11.334 -76 -26.001 -110s-34.834 -63.5 -60.501 -88.5s-57 -44.667 -94 -59s-79.5 -21.5 -127.5 -21.5
c-46 0 -88.667 8 -128 24s-73.5 38.333 -102.5 67s-51.667 63 -68 103s-24.5 84.333 -24.5 133zM267 810.002h164v-142h-164v142z" />
    <glyph glyph-name="cdotaccent" unicode="&#x10b;" horiz-adv-x="502" 
d="M20 223c0 35.333 6.16699 67.5039 18.5 96.5039s29.333 53.667 51 74s47.334 36.166 77.001 47.499s62.167 17 97.5 17c33.333 0 63 -5.16699 89 -15.5s48.333 -24.166 67 -41.499s33.334 -37.833 44.001 -61.5s17.334 -48.834 20.001 -75.501l-133 -9
c-10.667 54 -39 81 -85 81c-24.667 0 -44.667 -8.83301 -60 -26.5s-23 -46.5 -23 -86.5s7.66699 -68.833 23 -86.5s35.333 -26.5 60 -26.5c46 0 74.333 27.333 85 82l133 -10c-2.66699 -26.667 -9.33398 -51.834 -20.001 -75.501s-25.334 -44.334 -44.001 -62.001
s-41 -31.5 -67 -41.5s-55.667 -15 -89 -15c-35.333 0 -67.833 5.66699 -97.5 17s-55.334 27.166 -77.001 47.499s-38.667 45 -51 74s-18.5 61.167 -18.5 96.5zM180 630.004h164v-142h-164v142z" />
    <glyph glyph-name="Ccaron" unicode="&#x10c;" horiz-adv-x="669" 
d="M20 315c0 48.667 8.16699 93.002 24.5 133.002s39 74.333 68 103s63.167 51 102.5 67s82 24 128 24c48 0 90.5 -7.16699 127.5 -21.5s68.333 -34.166 94 -59.499s45.834 -55 60.501 -89s23.334 -70.667 26.001 -110l-163 -6
c-2.66699 17.333 -7.16699 34.166 -13.5 50.499s-15.166 30.833 -26.499 43.5s-25.666 22.667 -42.999 30s-38.333 11 -63 11c-46.667 0 -82.834 -15.833 -108.501 -47.5s-38.5 -74.5 -38.5 -128.5s12.833 -96.833 38.5 -128.5s61.834 -47.5 108.501 -47.5
c24.667 0 45.667 3.83301 63 11.5s31.666 17.667 42.999 30s20.166 26.666 26.499 42.999s10.833 33.166 13.5 50.499l163 -7c-2.66699 -39.333 -11.334 -76 -26.001 -110s-34.834 -63.5 -60.501 -88.5s-57 -44.667 -94 -59s-79.5 -21.5 -127.5 -21.5
c-46 0 -88.667 8 -128 24s-73.5 38.333 -102.5 67s-51.667 63 -68 103s-24.5 84.333 -24.5 133zM273 668.002l-86 142h102l60 -55l60 55h102l-86 -142h-152z" />
    <glyph glyph-name="ccaron" unicode="&#x10d;" horiz-adv-x="502" 
d="M20 223c0 35.333 6.16699 67.5039 18.5 96.5039s29.333 53.667 51 74s47.334 36.166 77.001 47.499s62.167 17 97.5 17c33.333 0 63 -5.16699 89 -15.5s48.333 -24.166 67 -41.499s33.334 -37.833 44.001 -61.5s17.334 -48.834 20.001 -75.501l-133 -9
c-10.667 54 -39 81 -85 81c-24.667 0 -44.667 -8.83301 -60 -26.5s-23 -46.5 -23 -86.5s7.66699 -68.833 23 -86.5s35.333 -26.5 60 -26.5c46 0 74.333 27.333 85 82l133 -10c-2.66699 -26.667 -9.33398 -51.834 -20.001 -75.501s-25.334 -44.334 -44.001 -62.001
s-41 -31.5 -67 -41.5s-55.667 -15 -89 -15c-35.333 0 -67.833 5.66699 -97.5 17s-55.334 27.166 -77.001 47.499s-38.667 45 -51 74s-18.5 61.167 -18.5 96.5zM186 488.004l-86 142h102l60 -55l60 55h102l-86 -142h-152z" />
    <glyph glyph-name="Dcaron" unicode="&#x10e;" horiz-adv-x="655" 
d="M285 134c55.333 0 98.333 15.668 129 47.001s46 76.333 46 135c0 57.333 -15.333 101.666 -46 132.999s-73.667 47 -129 47h-67v-362h67zM48 630.001h249c52 0 99 -7.16699 141 -21.5s77.5 -35 106.5 -62s51.333 -60 67 -99s23.5 -83.167 23.5 -132.5
s-7.83301 -93.5 -23.5 -132.5s-38 -72 -67 -99s-64.5 -47.667 -106.5 -62s-89 -21.5 -141 -21.5h-249v630zM225 668.001l-86 142h102l60 -55l60 55h102l-86 -142h-152z" />
    <glyph glyph-name="dcaron" unicode="&#x10f;" horiz-adv-x="570" 
d="M364 226c0 32 -8 57.667 -24 77s-37.667 29 -65 29c-32 0 -55.333 -10.167 -70 -30.5s-22 -46.5 -22 -78.5c0 -32.667 7.33301 -59.167 22 -79.5s38 -30.5 70 -30.5c27.333 0 49 9.66699 65 29s24 45.333 24 78v6zM364 76c-10.667 -26 -28.334 -47.1689 -53.001 -63.502
s-55.667 -24.5 -93 -24.5c-32.667 0 -61.5 6 -86.5 18s-45.667 28.667 -62 50s-28.666 46.333 -36.999 75s-12.5 59.334 -12.5 92.001s4.16699 63.334 12.5 92.001s20.666 53.5 36.999 74.5s37 37.667 62 50s53.833 18.5 86.5 18.5c37.333 0 68.333 -8.16699 93 -24.5
s42.334 -37.833 53.001 -64.5v261h162v-630h-162v76zM557 480.998l13 149h155l-66 -149h-102z" />
    <glyph glyph-name="Dcroat" unicode="&#x110;" horiz-adv-x="675" 
d="M15 387h53v243h249c52 0 99 -7.16699 141 -21.5s77.5 -35 106.5 -62s51.333 -60 67 -99s23.5 -83.167 23.5 -132.5s-7.83301 -93.5 -23.5 -132.5s-38 -72 -67 -99s-64.5 -47.667 -106.5 -62s-89 -21.5 -141 -21.5h-249v249h-53v138zM305 134
c55.333 0 98.333 15.668 129 47.001s46 76.333 46 135c0 57.333 -15.333 101.666 -46 132.999s-73.667 47 -129 47h-67v-109h133v-138h-133v-115h67z" />
    <glyph glyph-name="dcroat" unicode="&#x111;" horiz-adv-x="570" 
d="M364 73c-10.667 -25.333 -28.334 -45.832 -53.001 -61.499s-55.667 -23.5 -93 -23.5c-32.667 0 -61.5 5.83301 -86.5 17.5s-45.667 27.667 -62 48s-28.666 44.166 -36.999 71.499s-12.5 57 -12.5 89c0 31.333 4.16699 60.833 12.5 88.5s20.666 51.667 36.999 72
s37 36.333 62 48s53.833 17.5 86.5 17.5c37.333 0 68.333 -8 93 -24s42.334 -36.667 53.001 -62v114h-124v99h124v63h162v-63h54v-99h-54v-468h-162v73zM364 221.001c0 30 -8 54.167 -24 72.5s-37.667 27.5 -65 27.5c-32 0 -55.333 -9.5 -70 -28.5s-22 -43.833 -22 -74.5
s7.33301 -55.5 22 -74.5s38 -28.5 70 -28.5c27.333 0 49 9.16699 65 27.5s24 42.833 24 73.5v5z" />
    <glyph glyph-name="Emacron" unicode="&#x112;" horiz-adv-x="572" 
d="M544 0h-496v630h487v-140h-320v-103h247v-138h-247v-109h329v-140zM160 780h285v-108h-285v108z" />
    <glyph glyph-name="emacron" unicode="&#x113;" horiz-adv-x="513" 
d="M488 147c-11.333 -51.333 -36.501 -90.666 -75.501 -117.999s-88.167 -41 -147.5 -41c-36 0 -69 5.16699 -99 15.5s-55.833 25.333 -77.5 45s-38.5 43.667 -50.5 72s-18 60.166 -18 95.499s6.16699 67.833 18.5 97.5s29.333 55.167 51 76.5s47.334 38 77.001 50
s61.834 18 96.501 18c37.333 0 70.166 -6 98.499 -18s52.166 -28.167 71.499 -48.5s33.833 -44 43.5 -71s14.5 -55.5 14.5 -85.5v-45h-313c2 -28 11.833 -48.5 29.5 -61.5s38.834 -19.5 63.501 -19.5c44 0 73 16.667 87 50zM336.999 268
c-1.33301 20 -8.33398 37.333 -21.001 52s-31 22 -55 22c-26 0 -45.167 -7 -57.5 -21s-20.166 -31.667 -23.499 -53h157zM127.998 600h275v-108h-275v108z" />
    <glyph glyph-name="Ebreve" unicode="&#x114;" horiz-adv-x="572" 
d="M544 0h-496v630h487v-140h-320v-103h247v-138h-247v-109h329v-140zM302 668c-44.667 0 -79.502 12.5 -104.502 37.5s-37.5 59.833 -37.5 104.5h91c0 -16 4.83301 -27.667 14.5 -35s21.834 -11 36.501 -11s26.834 3.66699 36.501 11s14.5 19 14.5 35h91
c0 -44.667 -12.5 -79.5 -37.5 -104.5s-59.833 -37.5 -104.5 -37.5z" />
    <glyph glyph-name="ebreve" unicode="&#x115;" horiz-adv-x="513" 
d="M488 147c-11.333 -51.333 -36.501 -90.666 -75.501 -117.999s-88.167 -41 -147.5 -41c-36 0 -69 5.16699 -99 15.5s-55.833 25.333 -77.5 45s-38.5 43.667 -50.5 72s-18 60.166 -18 95.499s6.16699 67.833 18.5 97.5s29.333 55.167 51 76.5s47.334 38 77.001 50
s61.834 18 96.501 18c37.333 0 70.166 -6 98.499 -18s52.166 -28.167 71.499 -48.5s33.833 -44 43.5 -71s14.5 -55.5 14.5 -85.5v-45h-313c2 -28 11.833 -48.5 29.5 -61.5s38.834 -19.5 63.501 -19.5c44 0 73 16.667 87 50zM336.999 268
c-1.33301 20 -8.33398 37.333 -21.001 52s-31 22 -55 22c-26 0 -45.167 -7 -57.5 -21s-20.166 -31.667 -23.499 -53h157zM264.998 488c-44.667 0 -79.502 12.5 -104.502 37.5s-37.5 59.833 -37.5 104.5h91c0 -16 4.83301 -27.667 14.5 -35s21.834 -11 36.501 -11
s26.834 3.66699 36.501 11s14.5 19 14.5 35h91c0 -44.667 -12.5 -79.5 -37.5 -104.5s-59.833 -37.5 -104.5 -37.5z" />
    <glyph glyph-name="Edotaccent" unicode="&#x116;" horiz-adv-x="572" 
d="M544 0h-496v630h487v-140h-320v-103h247v-138h-247v-109h329v-140zM220 810h164v-142h-164v142z" />
    <glyph glyph-name="edotaccent" unicode="&#x117;" horiz-adv-x="513" 
d="M488 147c-11.333 -51.333 -36.501 -90.666 -75.501 -117.999s-88.167 -41 -147.5 -41c-36 0 -69 5.16699 -99 15.5s-55.833 25.333 -77.5 45s-38.5 43.667 -50.5 72s-18 60.166 -18 95.499s6.16699 67.833 18.5 97.5s29.333 55.167 51 76.5s47.334 38 77.001 50
s61.834 18 96.501 18c37.333 0 70.166 -6 98.499 -18s52.166 -28.167 71.499 -48.5s33.833 -44 43.5 -71s14.5 -55.5 14.5 -85.5v-45h-313c2 -28 11.833 -48.5 29.5 -61.5s38.834 -19.5 63.501 -19.5c44 0 73 16.667 87 50zM336.999 268
c-1.33301 20 -8.33398 37.333 -21.001 52s-31 22 -55 22c-26 0 -45.167 -7 -57.5 -21s-20.166 -31.667 -23.499 -53h157zM182.998 630h164v-142h-164v142z" />
    <glyph glyph-name="Eogonek" unicode="&#x118;" horiz-adv-x="572" 
d="M544 0l-35 0.00195312c-17.333 -15.333 -30 -27.333 -38 -36s-12 -18.334 -12 -29.001c0 -8.66699 2.5 -15.167 7.5 -19.5s11.5 -6.5 19.5 -6.5s15.5 1.16699 22.5 3.5s14.167 5.16602 21.5 8.49902v-72c-8.66699 -5.33301 -19 -10.666 -31 -15.999s-28.667 -8 -50 -8
c-30 0 -53.333 6.66699 -70 20s-25 30.666 -25 51.999c0 38.667 19.667 73 59 103h-365v630h487v-140h-320v-103h247v-138h-247v-109h329v-140z" />
    <glyph glyph-name="eogonek" unicode="&#x119;" horiz-adv-x="513" 
d="M488 147c-6 -27.333 -16.168 -50.8301 -30.501 -70.4971s-31.5 -36.834 -51.5 -51.501c-26.667 -19.333 -46.167 -36.333 -58.5 -51s-18.5 -27.667 -18.5 -39c0 -8.66699 2.5 -15.167 7.5 -19.5s11.5 -6.5 19.5 -6.5s15.5 1.16699 22.5 3.5s14.167 5.16602 21.5 8.49902
v-72c-8.66699 -5.33301 -19 -10.666 -31 -15.999s-28.667 -8 -50 -8c-30 0 -53.333 6.66699 -70 20s-25 30.666 -25 51.999c0 32.667 15 63 45 91h-4c-36 0 -69 5.16699 -99 15.5s-55.833 25.333 -77.5 45s-38.5 43.667 -50.5 72s-18 60.166 -18 95.499
s6.16699 67.833 18.5 97.5s29.333 55.167 51 76.5s47.334 38 77.001 50s61.834 18 96.501 18c37.333 0 70.166 -6 98.499 -18s52.166 -28.167 71.499 -48.5s33.833 -44 43.5 -71s14.5 -55.5 14.5 -85.5v-45h-313c2 -28 11.833 -48.5 29.5 -61.5s38.834 -19.5 63.501 -19.5
c44 0 73 16.667 87 50zM336.999 268.003c-1.33301 20 -8.33398 37.333 -21.001 52s-31 22 -55 22c-26 0 -45.167 -7 -57.5 -21s-20.166 -31.667 -23.499 -53h157z" />
    <glyph glyph-name="Ecaron" unicode="&#x11a;" horiz-adv-x="572" 
d="M544 0h-496v630h487v-140h-320v-103h247v-138h-247v-109h329v-140zM226 668l-86 142h102l60 -55l60 55h102l-86 -142h-152z" />
    <glyph glyph-name="ecaron" unicode="&#x11b;" horiz-adv-x="513" 
d="M488 147c-11.333 -51.333 -36.501 -90.666 -75.501 -117.999s-88.167 -41 -147.5 -41c-36 0 -69 5.16699 -99 15.5s-55.833 25.333 -77.5 45s-38.5 43.667 -50.5 72s-18 60.166 -18 95.499s6.16699 67.833 18.5 97.5s29.333 55.167 51 76.5s47.334 38 77.001 50
s61.834 18 96.501 18c37.333 0 70.166 -6 98.499 -18s52.166 -28.167 71.499 -48.5s33.833 -44 43.5 -71s14.5 -55.5 14.5 -85.5v-45h-313c2 -28 11.833 -48.5 29.5 -61.5s38.834 -19.5 63.501 -19.5c44 0 73 16.667 87 50zM336.999 268
c-1.33301 20 -8.33398 37.333 -21.001 52s-31 22 -55 22c-26 0 -45.167 -7 -57.5 -21s-20.166 -31.667 -23.499 -53h157zM188.998 488l-86 142h102l60 -55l60 55h102l-86 -142h-152z" />
    <glyph glyph-name="Gcircumflex" unicode="&#x11c;" horiz-adv-x="700" 
d="M326 -12c-43.333 0 -83.668 7.83203 -121.001 23.499s-69.666 37.834 -96.999 66.501s-48.833 63.167 -64.5 103.5s-23.5 84.833 -23.5 133.5s8.33301 93 25 133s39.667 74.333 69 103s63.833 51 103.5 67s82.167 24 127.5 24c46 0 87.333 -6 124 -18s68 -29.333 94 -52
s46.5 -49.834 61.5 -81.501s24.167 -67.167 27.5 -106.5l-165 -6c-4.66699 34.667 -18.667 62.167 -42 82.5s-55.333 30.5 -96 30.5c-50 0 -88.167 -15.833 -114.5 -47.5s-39.5 -74.5 -39.5 -128.5c0 -55.333 14.167 -99.666 42.5 -132.999s69.833 -50 124.5 -50
c28 0 54.167 5.83301 78.5 17.5s42.833 30.167 55.5 55.5h-139v122h300v-327h-148v70c-17.333 -29.333 -42 -50.333 -74 -63s-68.333 -19 -109 -19zM430.998 809.999l86 -142h-102l-60 55l-60 -55h-102l86 142h152z" />
    <glyph glyph-name="gcircumflex" unicode="&#x11d;" horiz-adv-x="517" 
d="M465 305c0 -23.333 -5.33105 -44.5068 -15.998 -63.5068s-25.667 -35 -45 -48s-42.333 -23 -69 -30s-55.667 -10.5 -87 -10.5c-36.667 0 -69 4.33301 -97 13c-6 -4.66699 -9 -11.667 -9 -21c0 -7.33301 3 -13.666 9 -18.999s15.667 -8 29 -8h185
c50.667 0 88.667 -11.833 114 -35.5s38 -54.5 38 -92.5c0 -28 -7.83301 -52.167 -23.5 -72.5s-36.5 -37.166 -62.5 -50.499s-55.833 -23.166 -89.5 -29.499s-68.5 -9.5 -104.5 -9.5c-32 0 -62.333 1.66699 -91 5s-53.834 9.33301 -75.501 18s-38.834 19.834 -51.501 33.501
s-19 31.167 -19 52.5c-0 19.333 7.83301 36 23.5 50s36.167 22 61.5 24c-20 6.66699 -35.667 18 -47 34s-17 33.667 -17 53c0 21.333 6.66699 40 20 56s32 28.667 56 38c-20 13.333 -35.667 29.333 -47 48s-17 40.334 -17 65.001c0 24 5.33301 45.333 16 64
s25.5 34.667 44.5 48s41.667 23.5 68 30.5s55.166 10.5 86.499 10.5c27.333 0 53.166 -3.16699 77.499 -9.5s46.166 -15.166 65.499 -26.499c13.333 18.667 31.333 34.834 54 48.501s46.334 20.5 71.001 20.5v-122c-9.33301 0 -19.666 -0.5 -30.999 -1.5
s-22.666 -2.83301 -33.999 -5.5c9.33301 -17.333 14 -36.333 14 -57zM334.002 629.993l86 -142h-102l-60 55l-60 -55h-102l86 142h152zM133.002 -47.0068c0 -16 9.99902 -26.8311 29.999 -32.498s45 -8.5 75 -8.5c38 0 69.167 3.66699 93.5 11s36.5 17.666 36.5 30.999
c0 17.333 -13.667 26 -41 26h-164c-9.33301 0 -16.666 -2.33301 -21.999 -7s-8 -11.334 -8 -20.001zM297.001 304.995c0 19.333 -4.5 34.833 -13.5 46.5s-20.167 17.5 -33.5 17.5s-24.5 -5.83301 -33.5 -17.5s-13.5 -27.167 -13.5 -46.5c0 -20 4.5 -35.833 13.5 -47.5
s20.167 -17.5 33.5 -17.5s24.5 5.83301 33.5 17.5s13.5 27.5 13.5 47.5z" />
    <glyph glyph-name="Gbreve" unicode="&#x11e;" horiz-adv-x="700" 
d="M326 -12c-43.333 0 -83.668 7.83203 -121.001 23.499s-69.666 37.834 -96.999 66.501s-48.833 63.167 -64.5 103.5s-23.5 84.833 -23.5 133.5s8.33301 93 25 133s39.667 74.333 69 103s63.833 51 103.5 67s82.167 24 127.5 24c46 0 87.333 -6 124 -18s68 -29.333 94 -52
s46.5 -49.834 61.5 -81.501s24.167 -67.167 27.5 -106.5l-165 -6c-4.66699 34.667 -18.667 62.167 -42 82.5s-55.333 30.5 -96 30.5c-50 0 -88.167 -15.833 -114.5 -47.5s-39.5 -74.5 -39.5 -128.5c0 -55.333 14.167 -99.666 42.5 -132.999s69.833 -50 124.5 -50
c28 0 54.167 5.83301 78.5 17.5s42.833 30.167 55.5 55.5h-139v122h300v-327h-148v70c-17.333 -29.333 -42 -50.333 -74 -63s-68.333 -19 -109 -19zM354.998 667.999c-44.667 0 -79.502 12.5 -104.502 37.5s-37.5 59.833 -37.5 104.5h91c0 -16 4.83301 -27.667 14.5 -35
s21.834 -11 36.501 -11s26.834 3.66699 36.501 11s14.5 19 14.5 35h91c0 -44.667 -12.5 -79.5 -37.5 -104.5s-59.833 -37.5 -104.5 -37.5z" />
    <glyph glyph-name="gbreve" unicode="&#x11f;" horiz-adv-x="517" 
d="M465 305c0 -23.333 -5.33105 -44.5068 -15.998 -63.5068s-25.667 -35 -45 -48s-42.333 -23 -69 -30s-55.667 -10.5 -87 -10.5c-36.667 0 -69 4.33301 -97 13c-6 -4.66699 -9 -11.667 -9 -21c0 -7.33301 3 -13.666 9 -18.999s15.667 -8 29 -8h185
c50.667 0 88.667 -11.833 114 -35.5s38 -54.5 38 -92.5c0 -28 -7.83301 -52.167 -23.5 -72.5s-36.5 -37.166 -62.5 -50.499s-55.833 -23.166 -89.5 -29.499s-68.5 -9.5 -104.5 -9.5c-32 0 -62.333 1.66699 -91 5s-53.834 9.33301 -75.501 18s-38.834 19.834 -51.501 33.501
s-19 31.167 -19 52.5c-0 19.333 7.83301 36 23.5 50s36.167 22 61.5 24c-20 6.66699 -35.667 18 -47 34s-17 33.667 -17 53c0 21.333 6.66699 40 20 56s32 28.667 56 38c-20 13.333 -35.667 29.333 -47 48s-17 40.334 -17 65.001c0 24 5.33301 45.333 16 64
s25.5 34.667 44.5 48s41.667 23.5 68 30.5s55.166 10.5 86.499 10.5c27.333 0 53.166 -3.16699 77.499 -9.5s46.166 -15.166 65.499 -26.499c13.333 18.667 31.333 34.834 54 48.501s46.334 20.5 71.001 20.5v-122c-9.33301 0 -19.666 -0.5 -30.999 -1.5
s-22.666 -2.83301 -33.999 -5.5c9.33301 -17.333 14 -36.333 14 -57zM258.002 487.993c-44.667 0 -79.502 12.5 -104.502 37.5s-37.5 59.833 -37.5 104.5h91c0 -16 4.83301 -27.667 14.5 -35s21.834 -11 36.501 -11s26.834 3.66699 36.501 11s14.5 19 14.5 35h91
c0 -44.667 -12.5 -79.5 -37.5 -104.5s-59.833 -37.5 -104.5 -37.5zM133 -47.0068c0 -16 9.99902 -26.8311 29.999 -32.498s45 -8.5 75 -8.5c38 0 69.167 3.66699 93.5 11s36.5 17.666 36.5 30.999c0 17.333 -13.667 26 -41 26h-164c-9.33301 0 -16.666 -2.33301 -21.999 -7
s-8 -11.334 -8 -20.001zM296.999 304.995c0 19.333 -4.5 34.833 -13.5 46.5s-20.167 17.5 -33.5 17.5s-24.5 -5.83301 -33.5 -17.5s-13.5 -27.167 -13.5 -46.5c0 -20 4.5 -35.833 13.5 -47.5s20.167 -17.5 33.5 -17.5s24.5 5.83301 33.5 17.5s13.5 27.5 13.5 47.5z" />
    <glyph glyph-name="Gdotaccent" unicode="&#x120;" horiz-adv-x="700" 
d="M326 -12c-43.333 0 -83.668 7.83203 -121.001 23.499s-69.666 37.834 -96.999 66.501s-48.833 63.167 -64.5 103.5s-23.5 84.833 -23.5 133.5s8.33301 93 25 133s39.667 74.333 69 103s63.833 51 103.5 67s82.167 24 127.5 24c46 0 87.333 -6 124 -18s68 -29.333 94 -52
s46.5 -49.834 61.5 -81.501s24.167 -67.167 27.5 -106.5l-165 -6c-4.66699 34.667 -18.667 62.167 -42 82.5s-55.333 30.5 -96 30.5c-50 0 -88.167 -15.833 -114.5 -47.5s-39.5 -74.5 -39.5 -128.5c0 -55.333 14.167 -99.666 42.5 -132.999s69.833 -50 124.5 -50
c28 0 54.167 5.83301 78.5 17.5s42.833 30.167 55.5 55.5h-139v122h300v-327h-148v70c-17.333 -29.333 -42 -50.333 -74 -63s-68.333 -19 -109 -19zM272.998 809.999h164v-142h-164v142z" />
    <glyph glyph-name="gdotaccent" unicode="&#x121;" horiz-adv-x="517" 
d="M465 305c0 -23.333 -5.33105 -44.5068 -15.998 -63.5068s-25.667 -35 -45 -48s-42.333 -23 -69 -30s-55.667 -10.5 -87 -10.5c-36.667 0 -69 4.33301 -97 13c-6 -4.66699 -9 -11.667 -9 -21c0 -7.33301 3 -13.666 9 -18.999s15.667 -8 29 -8h185
c50.667 0 88.667 -11.833 114 -35.5s38 -54.5 38 -92.5c0 -28 -7.83301 -52.167 -23.5 -72.5s-36.5 -37.166 -62.5 -50.499s-55.833 -23.166 -89.5 -29.499s-68.5 -9.5 -104.5 -9.5c-32 0 -62.333 1.66699 -91 5s-53.834 9.33301 -75.501 18s-38.834 19.834 -51.501 33.501
s-19 31.167 -19 52.5c-0 19.333 7.83301 36 23.5 50s36.167 22 61.5 24c-20 6.66699 -35.667 18 -47 34s-17 33.667 -17 53c0 21.333 6.66699 40 20 56s32 28.667 56 38c-20 13.333 -35.667 29.333 -47 48s-17 40.334 -17 65.001c0 24 5.33301 45.333 16 64
s25.5 34.667 44.5 48s41.667 23.5 68 30.5s55.166 10.5 86.499 10.5c27.333 0 53.166 -3.16699 77.499 -9.5s46.166 -15.166 65.499 -26.499c13.333 18.667 31.333 34.834 54 48.501s46.334 20.5 71.001 20.5v-122c-9.33301 0 -19.666 -0.5 -30.999 -1.5
s-22.666 -2.83301 -33.999 -5.5c9.33301 -17.333 14 -36.333 14 -57zM176.002 629.993h164v-142h-164v142zM133.002 -47.0068c0 -16 9.99902 -26.8311 29.999 -32.498s45 -8.5 75 -8.5c38 0 69.167 3.66699 93.5 11s36.5 17.666 36.5 30.999c0 17.333 -13.667 26 -41 26
h-164c-9.33301 0 -16.666 -2.33301 -21.999 -7s-8 -11.334 -8 -20.001zM297.001 304.995c0 19.333 -4.5 34.833 -13.5 46.5s-20.167 17.5 -33.5 17.5s-24.5 -5.83301 -33.5 -17.5s-13.5 -27.167 -13.5 -46.5c0 -20 4.5 -35.833 13.5 -47.5s20.167 -17.5 33.5 -17.5
s24.5 5.83301 33.5 17.5s13.5 27.5 13.5 47.5z" />
    <glyph glyph-name="Gcommaaccent" unicode="&#x122;" horiz-adv-x="700" 
d="M326 -12c-43.333 0 -83.668 7.83203 -121.001 23.499s-69.666 37.834 -96.999 66.501s-48.833 63.167 -64.5 103.5s-23.5 84.833 -23.5 133.5s8.33301 93 25 133s39.667 74.333 69 103s63.833 51 103.5 67s82.167 24 127.5 24c46 0 87.333 -6 124 -18s68 -29.333 94 -52
s46.5 -49.834 61.5 -81.501s24.167 -67.167 27.5 -106.5l-165 -6c-4.66699 34.667 -18.667 62.167 -42 82.5s-55.333 30.5 -96 30.5c-50 0 -88.167 -15.833 -114.5 -47.5s-39.5 -74.5 -39.5 -128.5c0 -55.333 14.167 -99.666 42.5 -132.999s69.833 -50 124.5 -50
c28 0 54.167 5.83301 78.5 17.5s42.833 30.167 55.5 55.5h-139v122h300v-327h-148v70c-17.333 -29.333 -42 -50.333 -74 -63s-68.333 -19 -109 -19zM288.998 -34.001h141.998v-73c0 -40 -12.167 -68.5 -36.5 -85.5s-59.5 -25.5 -105.5 -25.5v53c18.667 0 32.334 2 41.001 6
s13.334 12.667 14.001 26h-55v99z" />
    <glyph glyph-name="gcommaaccent" unicode="&#x123;" horiz-adv-x="517" 
d="M465 305c0 -23.333 -5.33105 -44.5068 -15.998 -63.5068s-25.667 -35 -45 -48s-42.333 -23 -69 -30s-55.667 -10.5 -87 -10.5c-36.667 0 -69 4.33301 -97 13c-6 -4.66699 -9 -11.667 -9 -21c0 -7.33301 3 -13.666 9 -18.999s15.667 -8 29 -8h185
c50.667 0 88.667 -11.833 114 -35.5s38 -54.5 38 -92.5c0 -28 -7.83301 -52.167 -23.5 -72.5s-36.5 -37.166 -62.5 -50.499s-55.833 -23.166 -89.5 -29.499s-68.5 -9.5 -104.5 -9.5c-32 0 -62.333 1.66699 -91 5s-53.834 9.33301 -75.501 18s-38.834 19.834 -51.501 33.501
s-19 31.167 -19 52.5c-0 19.333 7.83301 36 23.5 50s36.167 22 61.5 24c-20 6.66699 -35.667 18 -47 34s-17 33.667 -17 53c0 21.333 6.66699 40 20 56s32 28.667 56 38c-20 13.333 -35.667 29.333 -47 48s-17 40.334 -17 65.001c0 24 5.33301 45.333 16 64
s25.5 34.667 44.5 48s41.667 23.5 68 30.5s55.166 10.5 86.499 10.5c27.333 0 53.166 -3.16699 77.499 -9.5s46.166 -15.166 65.499 -26.499c13.333 18.667 31.333 34.834 54 48.501s46.334 20.5 71.001 20.5v-122c-9.33301 0 -19.666 -0.5 -30.999 -1.5
s-22.666 -2.83301 -33.999 -5.5c9.33301 -17.333 14 -36.333 14 -57zM329.002 487.993h-141.998v73c0 40 12.167 68.5 36.5 85.5s59.5 25.5 105.5 25.5v-53c-18.667 0 -32.334 -2 -41.001 -6s-13.334 -12.667 -14.001 -26h55v-99zM133.004 -47.0068
c0 -16 9.99902 -26.8311 29.999 -32.498s45 -8.5 75 -8.5c38 0 69.167 3.66699 93.5 11s36.5 17.666 36.5 30.999c0 17.333 -13.667 26 -41 26h-164c-9.33301 0 -16.666 -2.33301 -21.999 -7s-8 -11.334 -8 -20.001zM297.003 304.995c0 19.333 -4.5 34.833 -13.5 46.5
s-20.167 17.5 -33.5 17.5s-24.5 -5.83301 -33.5 -17.5s-13.5 -27.167 -13.5 -46.5c0 -20 4.5 -35.833 13.5 -47.5s20.167 -17.5 33.5 -17.5s24.5 5.83301 33.5 17.5s13.5 27.5 13.5 47.5z" />
    <glyph glyph-name="Hcircumflex" unicode="&#x124;" horiz-adv-x="687" 
d="M48 0v630h170v-243h251v243h170v-630h-170v249h-251v-249h-170zM419 810l86 -142h-102l-60 55l-60 -55h-102l86 142h152z" />
    <glyph glyph-name="hcircumflex" unicode="&#x125;" horiz-adv-x="550" 
d="M206 0l-161.999 -0.000976562v630h162v-251c12 24.667 30.5 44 55.5 58s54.5 21 88.5 21c30.667 0 56.334 -4.83301 77.001 -14.5s37.167 -22.834 49.5 -39.501s21.166 -35.667 26.499 -57s8 -43.666 8 -66.999v-280h-162v237c0 30.667 -4.83301 53.834 -14.5 69.501
s-26.834 23.5 -51.501 23.5c-28 0 -47.833 -10 -59.5 -30s-17.5 -47 -17.5 -81v-219zM343.001 809.999l86 -142h-102l-60 55l-60 -55h-102l86 142h152z" />
    <glyph glyph-name="Hbar" unicode="&#x126;" horiz-adv-x="727" 
d="M15 541h53v89h170v-89h251v89h170v-89h53v-138h-53v-403h-170v199h-251v-199h-170v403h-53v138zM489 337v66h-251v-66h251z" />
    <glyph glyph-name="hbar" unicode="&#x127;" horiz-adv-x="550" 
d="M-10 567l54.001 -0.000976562v63h162v-63h124v-99h-124v-106c12 24.667 30.5 44 55.5 58s54.5 21 88.5 21c30.667 0 56.334 -4.83301 77.001 -14.5s37.167 -22.834 49.5 -39.501s21.166 -35.667 26.499 -57s8 -43.666 8 -66.999v-263h-162v220
c0 30.667 -4.83301 53.834 -14.5 69.501s-26.834 23.5 -51.501 23.5c-28 0 -47.833 -10 -59.5 -30s-17.5 -47 -17.5 -81v-202h-162v468h-54v99z" />
    <glyph glyph-name="Itilde" unicode="&#x128;" horiz-adv-x="266" 
d="M-19 668c0 42.667 7.5 77.5 22.5 104.5s37.5 40.5 67.5 40.5c11.333 0 21.666 -2 30.999 -6s18.333 -8.16699 27 -12.5l24.5 -12.5c7.66699 -4 15.834 -6 24.501 -6c7.33301 0 14.166 2.33301 20.499 7s10.166 13.667 11.499 27h75c0 -42.667 -7.5 -77.5 -22.5 -104.5
s-37.5 -40.5 -67.5 -40.5c-11.333 0 -21.666 2 -30.999 6s-18.333 8.16699 -27 12.5l-24.5 12.5c-7.66699 4 -15.834 6 -24.501 6c-7.33301 0 -14.166 -2.33301 -20.499 -7s-10.166 -13.667 -11.499 -27h-75zM218 630v-630h-170v630h170z" />
    <glyph glyph-name="itilde" unicode="&#x129;" horiz-adv-x="250" 
d="M-18 488c0 42.667 7.5 77.5 22.5 104.5s37.5 40.5 67.5 40.5c11.333 0 21 -2 29 -6s15.333 -8.16699 22 -12.5l19.5 -12.5c6.33301 -4 13.833 -6 22.5 -6c7.33301 0 14.166 2.33301 20.499 7s10.166 13.667 11.499 27h75c0 -42.667 -7.5 -77.5 -22.5 -104.5
s-37.5 -40.5 -67.5 -40.5c-11.333 0 -21 2 -29 6s-15.333 8.16699 -22 12.5l-19.5 12.5c-6.33301 4 -13.833 6 -22.5 6c-7.33301 0 -14.166 -2.33301 -20.499 -7s-10.166 -13.667 -11.499 -27h-75zM206 446v-446h-162v446h162z" />
    <glyph glyph-name="Imacron" unicode="&#x12a;" horiz-adv-x="266" 
d="M218 630v-630h-170v630h170zM-9 780h285v-108h-285v108z" />
    <glyph glyph-name="imacron" unicode="&#x12b;" horiz-adv-x="250" 
d="M206 446v-446h-162v446h162zM3 600h244v-108h-244v108z" />
    <glyph glyph-name="Ibreve" unicode="&#x12c;" horiz-adv-x="266" 
d="M218 630v-630h-170v630h170zM133 668c-44.667 0 -79.502 12.5 -104.502 37.5s-37.5 59.833 -37.5 104.5h91c0 -16 4.83301 -27.667 14.5 -35s21.834 -11 36.501 -11s26.834 3.66699 36.501 11s14.5 19 14.5 35h91c0 -44.667 -12.5 -79.5 -37.5 -104.5
s-59.833 -37.5 -104.5 -37.5z" />
    <glyph glyph-name="ibreve" unicode="&#x12d;" horiz-adv-x="250" 
d="M206 446v-446h-162v446h162zM125 488c-44.667 0 -79.502 12.5 -104.502 37.5s-37.5 59.833 -37.5 104.5h91c0 -16 4.83301 -27.667 14.5 -35s21.834 -11 36.501 -11s26.834 3.66699 36.501 11s14.5 19 14.5 35h91c0 -44.667 -12.5 -79.5 -37.5 -104.5
s-59.833 -37.5 -104.5 -37.5z" />
    <glyph glyph-name="Iogonek" unicode="&#x12e;" horiz-adv-x="266" 
d="M218 630v-629.998c-28 -15.333 -46.833 -27.333 -56.5 -36s-14.5 -18.334 -14.5 -29.001c0 -8.66699 2.5 -15.167 7.5 -19.5s11.5 -6.5 19.5 -6.5s15.5 1.16699 22.5 3.5s14.167 5.16602 21.5 8.49902v-72c-8.66699 -5.33301 -19 -10.666 -31 -15.999s-28.667 -8 -50 -8
c-30 0 -53.333 6.66699 -70 20s-25 30.666 -25 51.999c0 38.667 19.667 73 59 103h-53v630h170z" />
    <glyph glyph-name="iogonek" unicode="&#x12f;" horiz-adv-x="250" 
d="M206 446v-445.998c-28 -15.333 -46.833 -27.333 -56.5 -36s-14.5 -18.334 -14.5 -29.001c0 -8.66699 2.5 -15.167 7.5 -19.5s11.5 -6.5 19.5 -6.5s15.5 1.16699 22.5 3.5s14.167 5.16602 21.5 8.49902v-72c-8.66699 -5.33301 -19 -10.666 -31 -15.999s-28.667 -8 -50 -8
c-30 0 -53.333 6.66699 -70 20s-25 30.666 -25 51.999c0 38.667 19.667 73 59 103h-45v446h162zM43 630.002h164v-142h-164v142z" />
    <glyph glyph-name="Idotaccent" unicode="&#x130;" horiz-adv-x="266" 
d="M218 630v-630h-170v630h170zM51 810h164v-142h-164v142z" />
    <glyph glyph-name="dotlessi" unicode="&#x131;" horiz-adv-x="250" 
d="M206 446v-446h-162v446h162z" />
    <glyph glyph-name="IJ" unicode="&#x132;" horiz-adv-x="819" 
d="M218 630v-630h-170v630h170zM780 630v-401.002c0 -42 -6.33301 -78.333 -19 -109s-30.334 -55.667 -53.001 -75s-49.667 -33.666 -81 -42.999s-65.666 -14 -102.999 -14c-81.333 0 -144.833 22.333 -190.5 67s-68.834 109.334 -69.501 194.001l164 6
c2 -40 10.5 -70.5 25.5 -91.5s38.167 -31.5 69.5 -31.5c30.667 0 52.834 9 66.501 27s20.5 46.333 20.5 85v386h170z" />
    <glyph glyph-name="ij" unicode="&#x133;" 
d="M206 446v-446h-162v446h162zM43 630h164v-142h-164v142zM456 -15c0 -55.333 -14.833 -95.332 -44.5 -119.999s-70.5 -37 -122.5 -37c-25.333 0 -49.333 2.66699 -72 8s-41.334 13.333 -56.001 24l25 98c11.333 -7.33301 22.333 -12.333 33 -15s21.334 -4 32.001 -4
c14 0 24.667 4.16699 32 12.5s11 22.166 11 41.499v453h162v-461zM293 630.001h164v-142h-164v142z" />
    <glyph glyph-name="Jcircumflex" unicode="&#x134;" horiz-adv-x="563" 
d="M524 630v-401.002c0 -42 -6.33301 -78.333 -19 -109s-30.334 -55.667 -53.001 -75s-49.667 -33.666 -81 -42.999s-65.666 -14 -102.999 -14c-81.333 0 -144.833 22.333 -190.5 67s-68.834 109.334 -69.501 194.001l164 6c2 -40 10.5 -70.5 25.5 -91.5
s38.167 -31.5 69.5 -31.5c30.667 0 52.834 9 66.501 27s20.5 46.333 20.5 85v386h170zM512 809.998l86 -142h-102l-60 55l-60 -55h-102l86 142h152z" />
    <glyph glyph-name="jcircumflex" unicode="&#x135;" horiz-adv-x="250" 
d="M206 -15c0 -55.333 -14.833 -95.332 -44.5 -119.999s-70.5 -37 -122.5 -37c-25.333 0 -49.333 2.66699 -72 8s-41.334 13.333 -56.001 24l25 98c11.333 -7.33301 22.333 -12.333 33 -15s21.334 -4 32.001 -4c14 0 24.667 4.16699 32 12.5s11 22.166 11 41.499v453h162
v-461zM202 630.001l86 -142h-102l-60 55l-60 -55h-102l86 142h152z" />
    <glyph glyph-name="Kcommaaccent" unicode="&#x136;" horiz-adv-x="641" 
d="M448 0l-175 251l-55 -60v-191h-170v630h170v-255l226 255h195l-243 -268l255 -362h-203zM250 -34h141.998v-73c0 -40 -12.167 -68.5 -36.5 -85.5s-59.5 -25.5 -105.5 -25.5v53c18.667 0 32.334 2 41.001 6s13.334 12.667 14.001 26h-55v99z" />
    <glyph glyph-name="kcommaaccent" unicode="&#x137;" horiz-adv-x="547" 
d="M206 0h-162v630h162v-338l153 154h190l-184 -175l190 -271h-182l-128 181l-39 -40v-141zM210 -34h141.998v-73c0 -40 -12.167 -68.5 -36.5 -85.5s-59.5 -25.5 -105.5 -25.5v53c18.667 0 32.334 2 41.001 6s13.334 12.667 14.001 26h-55v99z" />
    <glyph glyph-name="kgreenlandic" unicode="&#x138;" horiz-adv-x="547" 
d="M206 0h-162v446h162v-154l153 154h190l-184 -175l190 -271h-182l-128 181l-39 -40v-141z" />
    <glyph glyph-name="Lacute" unicode="&#x139;" horiz-adv-x="555" 
d="M218 630v-490h312v-140h-482v630h170zM79 668l54 142h159l-97 -142h-116z" />
    <glyph glyph-name="lacute" unicode="&#x13a;" horiz-adv-x="250" 
d="M206 630v-630h-162v630h162zM65 668l54 142h159l-97 -142h-116z" />
    <glyph glyph-name="Lcommaaccent" unicode="&#x13b;" horiz-adv-x="555" 
d="M218 630v-490h312v-140h-482v630h170zM218 -34h141.998v-73c0 -40 -12.167 -68.5 -36.5 -85.5s-59.5 -25.5 -105.5 -25.5v53c18.667 0 32.334 2 41.001 6s13.334 12.667 14.001 26h-55v99z" />
    <glyph glyph-name="lcommaaccent" unicode="&#x13c;" horiz-adv-x="250" 
d="M206 630v-630h-162v630h162zM54 -34h141.998v-73c0 -40 -12.167 -68.5 -36.5 -85.5s-59.5 -25.5 -105.5 -25.5v53c18.667 0 32.334 2 41.001 6s13.334 12.667 14.001 26h-55v99z" />
    <glyph glyph-name="Lcaron" unicode="&#x13d;" horiz-adv-x="555" 
d="M218 630v-490h312v-140h-482v630h170zM295 481l13 149h155l-66 -149h-102z" />
    <glyph glyph-name="lcaron" unicode="&#x13e;" horiz-adv-x="250" 
d="M206 630v-630h-162v630h162zM235 481l13 149h155l-66 -149h-102z" />
    <glyph glyph-name="Ldot" unicode="&#x13f;" horiz-adv-x="555" 
d="M218 630v-490h312v-140h-482v630h170zM332 430h164v-142h-164v142z" />
    <glyph glyph-name="ldot" unicode="&#x140;" horiz-adv-x="415" 
d="M206 630v-630h-162v630h162zM249 386h164v-142h-164v142z" />
    <glyph glyph-name="Lslash" unicode="&#x141;" horiz-adv-x="575" 
d="M238 630v-221l163 61v-133l-163 -61v-136h312v-140h-482v217l-53 -20v133l53 19v281h170z" />
    <glyph glyph-name="lslash" unicode="&#x142;" horiz-adv-x="290" 
d="M226 630v-197l59 25v-117l-59 -25v-316h-162v254l-59 -25v117l59 25v259h162z" />
    <glyph glyph-name="Nacute" unicode="&#x143;" horiz-adv-x="660" 
d="M456 281v349h156v-630h-136l-272 373v-373h-156v630h162zM280 668l54 142h159l-97 -142h-116z" />
    <glyph glyph-name="nacute" unicode="&#x144;" horiz-adv-x="550" 
d="M206 0l-161.999 -0.000976562v446h162v-67c12 24.667 30.5 44 55.5 58s54.5 21 88.5 21c30.667 0 56.334 -4.83301 77.001 -14.5s37.167 -22.834 49.5 -39.501s21.166 -35.667 26.499 -57s8 -43.666 8 -66.999v-280h-162v237c0 30.667 -4.83301 53.834 -14.5 69.501
s-26.834 23.5 -51.501 23.5c-28 0 -47.833 -10 -59.5 -30s-17.5 -47 -17.5 -81v-219zM223.001 487.999l54 142h159l-97 -142h-116z" />
    <glyph glyph-name="Ncommaaccent" unicode="&#x145;" horiz-adv-x="660" 
d="M456 281v349h156v-630h-136l-272 373v-373h-156v630h162zM269 -34h141.998v-73c0 -40 -12.167 -68.5 -36.5 -85.5s-59.5 -25.5 -105.5 -25.5v53c18.667 0 32.334 2 41.001 6s13.334 12.667 14.001 26h-55v99z" />
    <glyph glyph-name="ncommaaccent" unicode="&#x146;" horiz-adv-x="550" 
d="M206 0l-161.999 -0.000976562v446h162v-67c12 24.667 30.5 44 55.5 58s54.5 21 88.5 21c30.667 0 56.334 -4.83301 77.001 -14.5s37.167 -22.834 49.5 -39.501s21.166 -35.667 26.499 -57s8 -43.666 8 -66.999v-280h-162v237c0 30.667 -4.83301 53.834 -14.5 69.501
s-26.834 23.5 -51.501 23.5c-28 0 -47.833 -10 -59.5 -30s-17.5 -47 -17.5 -81v-219zM212.001 -34.001h141.998v-73c0 -40 -12.167 -68.5 -36.5 -85.5s-59.5 -25.5 -105.5 -25.5v53c18.667 0 32.334 2 41.001 6s13.334 12.667 14.001 26h-55v99z" />
    <glyph glyph-name="Ncaron" unicode="&#x147;" horiz-adv-x="660" 
d="M456 281v349h156v-630h-136l-272 373v-373h-156v630h162zM264 668l-86 142h102l60 -55l60 55h102l-86 -142h-152z" />
    <glyph glyph-name="ncaron" unicode="&#x148;" horiz-adv-x="550" 
d="M206 0l-161.999 -0.000976562v446h162v-67c12 24.667 30.5 44 55.5 58s54.5 21 88.5 21c30.667 0 56.334 -4.83301 77.001 -14.5s37.167 -22.834 49.5 -39.501s21.166 -35.667 26.499 -57s8 -43.666 8 -66.999v-280h-162v237c0 30.667 -4.83301 53.834 -14.5 69.501
s-26.834 23.5 -51.501 23.5c-28 0 -47.833 -10 -59.5 -30s-17.5 -47 -17.5 -81v-219zM207.001 487.999l-86 142h102l60 -55l60 55h102l-86 -142h-152z" />
    <glyph glyph-name="Eng" unicode="&#x14a;" horiz-adv-x="660" 
d="M333 -6c8.66699 -8.66699 18.833 -15.833 30.5 -21.5s23.5 -8.5 35.5 -8.5c21.333 0 36 5.16699 44 15.5s12 26.5 12 48.5l-251 345v-373h-156v630h162l246 -349v349h156v-588c0 -71.333 -16.5 -124.833 -49.5 -160.5s-80.833 -53.5 -143.5 -53.5
c-32 0 -62.167 6.33301 -90.5 19s-49.833 27.667 -64.5 45z" />
    <glyph glyph-name="eng" unicode="&#x14b;" horiz-adv-x="550" 
d="M349 237c0 30.667 -4.83203 53.834 -14.499 69.501s-26.834 23.5 -51.501 23.5c-28 0 -47.833 -10 -59.5 -30s-17.5 -47 -17.5 -81v-219h-162v446h162v-67c12 24.667 30.5 44 55.5 58s54.5 21 88.5 21c30.667 0 56.334 -4.83301 77.001 -14.5
s37.167 -22.834 49.5 -39.501s21.166 -35.667 26.499 -57s8 -43.666 8 -66.999v-295c0 -55.333 -14.833 -95.333 -44.5 -120s-70.5 -37 -122.5 -37c-25.333 0 -49.333 2.66699 -72 8s-41.334 13.333 -56.001 24l25 98c11.333 -7.33301 22.333 -12.333 33 -15
s21.334 -4 32.001 -4c14 0 24.667 4.16699 32 12.5s11 22.166 11 41.499v244z" />
    <glyph glyph-name="Omacron" unicode="&#x14c;" horiz-adv-x="694" 
d="M674 315c0 -48.667 -8.5 -93 -25.5 -133s-40.167 -74.333 -69.5 -103s-63.833 -51 -103.5 -67s-82.5 -24 -128.5 -24s-88.833 8 -128.5 24s-74.167 38.333 -103.5 67s-52.5 63 -69.5 103s-25.5 84.333 -25.5 133s8.5 93 25.5 133s40.167 74.333 69.5 103
s63.833 51 103.5 67s82.5 24 128.5 24s88.833 -8 128.5 -24s74.167 -38.333 103.5 -67s52.5 -63 69.5 -103s25.5 -84.333 25.5 -133zM499 315c0 54 -13.667 97 -41 129s-64.333 48 -111 48s-83.667 -16 -111 -48s-41 -75 -41 -129s13.667 -97 41 -129s64.333 -48 111 -48
s83.667 16 111 48s41 75 41 129zM205 780h285v-108h-285v108z" />
    <glyph glyph-name="omacron" unicode="&#x14d;" horiz-adv-x="528" 
d="M183 223c0 -34 6.33301 -61.333 19 -82s33.334 -31 62.001 -31c28 0 48.5 10.333 61.5 31s19.5 48 19.5 82s-6.5 61.333 -19.5 82s-33.5 31 -61.5 31c-28.667 0 -49.334 -10.333 -62.001 -31s-19 -48 -19 -82zM508 223c0 -34.667 -5.83301 -66.5 -17.5 -95.5
s-28.334 -53.833 -50.001 -74.5s-47.5 -36.667 -77.5 -48s-63 -17 -99 -17c-36.667 0 -70 5.66699 -100 17s-55.667 27.333 -77 48s-37.833 45.5 -49.5 74.5s-17.5 60.833 -17.5 95.5s5.83301 66.334 17.5 95.001s28.167 53.334 49.5 74.001s47 36.834 77 48.501
s63.333 17.5 100 17.5c36 0 69 -5.83301 99 -17.5s55.833 -27.834 77.5 -48.501s38.334 -45.334 50.001 -74.001s17.5 -60.334 17.5 -95.001zM127 600h275v-108h-275v108z" />
    <glyph glyph-name="Obreve" unicode="&#x14e;" horiz-adv-x="694" 
d="M674 315c0 -48.667 -8.5 -93 -25.5 -133s-40.167 -74.333 -69.5 -103s-63.833 -51 -103.5 -67s-82.5 -24 -128.5 -24s-88.833 8 -128.5 24s-74.167 38.333 -103.5 67s-52.5 63 -69.5 103s-25.5 84.333 -25.5 133s8.5 93 25.5 133s40.167 74.333 69.5 103
s63.833 51 103.5 67s82.5 24 128.5 24s88.833 -8 128.5 -24s74.167 -38.333 103.5 -67s52.5 -63 69.5 -103s25.5 -84.333 25.5 -133zM499 315c0 54 -13.667 97 -41 129s-64.333 48 -111 48s-83.667 -16 -111 -48s-41 -75 -41 -129s13.667 -97 41 -129s64.333 -48 111 -48
s83.667 16 111 48s41 75 41 129zM347 668c-44.667 0 -79.502 12.5 -104.502 37.5s-37.5 59.833 -37.5 104.5h91c0 -16 4.83301 -27.667 14.5 -35s21.834 -11 36.501 -11s26.834 3.66699 36.501 11s14.5 19 14.5 35h91c0 -44.667 -12.5 -79.5 -37.5 -104.5
s-59.833 -37.5 -104.5 -37.5z" />
    <glyph glyph-name="obreve" unicode="&#x14f;" horiz-adv-x="528" 
d="M183 223c0 -34 6.33301 -61.333 19 -82s33.334 -31 62.001 -31c28 0 48.5 10.333 61.5 31s19.5 48 19.5 82s-6.5 61.333 -19.5 82s-33.5 31 -61.5 31c-28.667 0 -49.334 -10.333 -62.001 -31s-19 -48 -19 -82zM508 223c0 -34.667 -5.83301 -66.5 -17.5 -95.5
s-28.334 -53.833 -50.001 -74.5s-47.5 -36.667 -77.5 -48s-63 -17 -99 -17c-36.667 0 -70 5.66699 -100 17s-55.667 27.333 -77 48s-37.833 45.5 -49.5 74.5s-17.5 60.833 -17.5 95.5s5.83301 66.334 17.5 95.001s28.167 53.334 49.5 74.001s47 36.834 77 48.501
s63.333 17.5 100 17.5c36 0 69 -5.83301 99 -17.5s55.833 -27.834 77.5 -48.501s38.334 -45.334 50.001 -74.001s17.5 -60.334 17.5 -95.001zM264 488c-44.667 0 -79.502 12.5 -104.502 37.5s-37.5 59.833 -37.5 104.5h91c0 -16 4.83301 -27.667 14.5 -35
s21.834 -11 36.501 -11s26.834 3.66699 36.501 11s14.5 19 14.5 35h91c0 -44.667 -12.5 -79.5 -37.5 -104.5s-59.833 -37.5 -104.5 -37.5z" />
    <glyph glyph-name="Ohungarumlaut" unicode="&#x150;" horiz-adv-x="694" 
d="M674 315c0 -48.667 -8.5 -93 -25.5 -133s-40.167 -74.333 -69.5 -103s-63.833 -51 -103.5 -67s-82.5 -24 -128.5 -24s-88.833 8 -128.5 24s-74.167 38.333 -103.5 67s-52.5 63 -69.5 103s-25.5 84.333 -25.5 133s8.5 93 25.5 133s40.167 74.333 69.5 103
s63.833 51 103.5 67s82.5 24 128.5 24s88.833 -8 128.5 -24s74.167 -38.333 103.5 -67s52.5 -63 69.5 -103s25.5 -84.333 25.5 -133zM499 315c0 54 -13.667 97 -41 129s-64.333 48 -111 48s-83.667 -16 -111 -48s-41 -75 -41 -129s13.667 -97 41 -129s64.333 -48 111 -48
s83.667 16 111 48s41 75 41 129zM205 668l40 142h148l-83 -142h-105zM377 668l40 142h148l-83 -142h-105z" />
    <glyph glyph-name="ohungarumlaut" unicode="&#x151;" horiz-adv-x="528" 
d="M183 223c0 -34 6.33301 -61.333 19 -82s33.334 -31 62.001 -31c28 0 48.5 10.333 61.5 31s19.5 48 19.5 82s-6.5 61.333 -19.5 82s-33.5 31 -61.5 31c-28.667 0 -49.334 -10.333 -62.001 -31s-19 -48 -19 -82zM508 223c0 -34.667 -5.83301 -66.5 -17.5 -95.5
s-28.334 -53.833 -50.001 -74.5s-47.5 -36.667 -77.5 -48s-63 -17 -99 -17c-36.667 0 -70 5.66699 -100 17s-55.667 27.333 -77 48s-37.833 45.5 -49.5 74.5s-17.5 60.833 -17.5 95.5s5.83301 66.334 17.5 95.001s28.167 53.334 49.5 74.001s47 36.834 77 48.501
s63.333 17.5 100 17.5c36 0 69 -5.83301 99 -17.5s55.833 -27.834 77.5 -48.501s38.334 -45.334 50.001 -74.001s17.5 -60.334 17.5 -95.001zM120 488l40 142h148l-83 -142h-105zM292 488l40 142h148l-83 -142h-105z" />
    <glyph glyph-name="OE" unicode="&#x152;" horiz-adv-x="961" 
d="M933 0h-575c-52 0 -99 7.16699 -141 21.5s-77.5 35 -106.5 62s-51.333 60 -67 99s-23.5 83.167 -23.5 132.5s7.83301 93.5 23.5 132.5s38 72 67 99s64.5 47.667 106.5 62s89 21.5 141 21.5h566v-140h-320v-103h247v-138h-247v-109h329v-140zM370 496
c-55.333 0 -98.333 -15.668 -129 -47.001s-46 -76.333 -46 -135c0 -57.333 15.333 -101.666 46 -132.999s73.667 -47 129 -47h67v362h-67z" />
    <glyph glyph-name="oe" unicode="&#x153;" horiz-adv-x="835" 
d="M264 458c33.333 0 63.5029 -5.50391 90.5029 -16.5039s51.167 -25.833 72.5 -44.5c21.333 18.667 45.166 33.5 71.499 44.5s55.166 16.5 86.499 16.5c37.333 0 70.166 -6 98.499 -18s52.166 -28.167 71.499 -48.5s33.833 -44 43.5 -71s14.5 -55.5 14.5 -85.5v-43h-313
c2 -28 11.833 -48.833 29.5 -62.5s38.834 -20.5 63.501 -20.5c44 0 73 16.667 87 50l130 -12c-11.333 -51.333 -36.5 -90.666 -75.5 -117.999s-88.167 -41 -147.5 -41c-34 0 -64.667 5.16699 -92 15.5s-51.333 24.5 -72 42.5c-19.333 -17.333 -41.5 -31.333 -66.5 -42
s-55.833 -16 -92.5 -16s-70 5.66699 -100 17s-55.667 27.333 -77 48s-37.833 45.5 -49.5 74.5s-17.5 60.833 -17.5 95.5s5.83301 66.334 17.5 95.001s28.167 53.334 49.5 74.001s47 36.834 77 48.501s63.333 17.5 100 17.5zM183.003 222.996c0 -34 6.33301 -61.333 19 -82
s33.334 -31 62.001 -31c28 0 48.5 10.333 61.5 31s19.5 48 19.5 82s-6.5 61.333 -19.5 82s-33.5 31 -61.5 31c-28.667 0 -49.334 -10.333 -62.001 -31s-19 -48 -19 -82zM659.003 267.996c-1.33301 20 -8.33398 37.333 -21.001 52s-31 22 -55 22c-26 0 -45.167 -7 -57.5 -21
s-20.166 -31.667 -23.499 -53h157z" />
    <glyph glyph-name="Racute" unicode="&#x154;" horiz-adv-x="637" 
d="M447 0c-12.667 16 -21.333 56.332 -26 120.999c-2.66699 36 -11.667 59.667 -27 71s-37.333 17 -66 17h-113v-209h-167v630h318c82 0 143.167 -17.833 183.5 -53.5s60.5 -84.5 60.5 -146.5c0 -46 -12.667 -83.167 -38 -111.5s-57.333 -45.166 -96 -50.499
c32.667 -6.66699 58.334 -19.667 77.001 -39s29.667 -47.333 33 -84c2 -23.333 4 -43 6 -59s4 -29.333 6 -40s4.66699 -19.5 8 -26.5s7.66602 -13.5 12.999 -19.5h-172zM336.001 339.999c36 0 63 5.33301 81 16s27 30.667 27 60c0 52 -36 78 -108 78h-121v-154h121z
M261.001 667.999l54 142h159l-97 -142h-116z" />
    <glyph glyph-name="racute" unicode="&#x155;" horiz-adv-x="396" 
d="M380 288c-21.333 12.667 -46.998 19 -76.998 19s-53.667 -7.66699 -71 -23s-26 -42 -26 -80v-204h-162v446h162v-79c8 25.333 22.833 46.833 44.5 64.5s47.5 26.5 77.5 26.5c13.333 0 25.666 -1.66699 36.999 -5s19.666 -7.33301 24.999 -12zM157.002 488l54 142h159
l-97 -142h-116z" />
    <glyph glyph-name="Rcommaaccent" unicode="&#x156;" horiz-adv-x="637" 
d="M447 0c-12.667 16 -21.333 56.332 -26 120.999c-2.66699 36 -11.667 59.667 -27 71s-37.333 17 -66 17h-113v-209h-167v630h318c82 0 143.167 -17.833 183.5 -53.5s60.5 -84.5 60.5 -146.5c0 -46 -12.667 -83.167 -38 -111.5s-57.333 -45.166 -96 -50.499
c32.667 -6.66699 58.334 -19.667 77.001 -39s29.667 -47.333 33 -84c2 -23.333 4 -43 6 -59s4 -29.333 6 -40s4.66699 -19.5 8 -26.5s7.66602 -13.5 12.999 -19.5h-172zM336.001 339.999c36 0 63 5.33301 81 16s27 30.667 27 60c0 52 -36 78 -108 78h-121v-154h121z
M250.001 -34.001h141.998v-73c0 -40 -12.167 -68.5 -36.5 -85.5s-59.5 -25.5 -105.5 -25.5v53c18.667 0 32.334 2 41.001 6s13.334 12.667 14.001 26h-55v99z" />
    <glyph glyph-name="rcommaaccent" unicode="&#x157;" horiz-adv-x="396" 
d="M380 288c-21.333 12.667 -46.998 19 -76.998 19s-53.667 -7.66699 -71 -23s-26 -42 -26 -80v-204h-162v446h162v-79c8 25.333 22.833 46.833 44.5 64.5s47.5 26.5 77.5 26.5c13.333 0 25.666 -1.66699 36.999 -5s19.666 -7.33301 24.999 -12zM55.002 -34h141.998v-73
c0 -40 -12.167 -68.5 -36.5 -85.5s-59.5 -25.5 -105.5 -25.5v53c18.667 0 32.334 2 41.001 6s13.334 12.667 14.001 26h-55v99z" />
    <glyph glyph-name="Rcaron" unicode="&#x158;" horiz-adv-x="637" 
d="M447 0c-12.667 16 -21.333 56.332 -26 120.999c-2.66699 36 -11.667 59.667 -27 71s-37.333 17 -66 17h-113v-209h-167v630h318c82 0 143.167 -17.833 183.5 -53.5s60.5 -84.5 60.5 -146.5c0 -46 -12.667 -83.167 -38 -111.5s-57.333 -45.166 -96 -50.499
c32.667 -6.66699 58.334 -19.667 77.001 -39s29.667 -47.333 33 -84c2 -23.333 4 -43 6 -59s4 -29.333 6 -40s4.66699 -19.5 8 -26.5s7.66602 -13.5 12.999 -19.5h-172zM336.001 339.999c36 0 63 5.33301 81 16s27 30.667 27 60c0 52 -36 78 -108 78h-121v-154h121z
M245.001 667.999l-86 142h102l60 -55l60 55h102l-86 -142h-152z" />
    <glyph glyph-name="rcaron" unicode="&#x159;" horiz-adv-x="396" 
d="M380 288c-21.333 12.667 -46.998 19 -76.998 19s-53.667 -7.66699 -71 -23s-26 -42 -26 -80v-204h-162v446h162v-79c8 25.333 22.833 46.833 44.5 64.5s47.5 26.5 77.5 26.5c13.333 0 25.666 -1.66699 36.999 -5s19.666 -7.33301 24.999 -12zM141.002 488l-86 142h102
l60 -55l60 55h102l-86 -142h-152z" />
    <glyph glyph-name="Sacute" unicode="&#x15a;" horiz-adv-x="606" 
d="M176 228c1.33301 -20 6.00098 -36.6699 14.001 -50.0029s18.167 -24.166 30.5 -32.499s26.5 -14.333 42.5 -18s32.667 -5.5 50 -5.5c30 0 53.667 5 71 15s26 23.667 26 41c0 18.667 -8.16699 30.834 -24.5 36.501s-36.5 10.834 -60.5 15.501l-115 20
c-51.333 9.33301 -93.333 29.166 -126 59.499s-49 72.833 -49 127.5c0 32 6 60.667 18 86s29.167 46.833 51.5 64.5s49.333 31.167 81 40.5s67.167 14 106.5 14c87.333 0 154 -19.833 200 -59.5s69.667 -94.834 71 -165.501l-156 -3c-2.66699 32.667 -14.667 56.667 -36 72
s-48.333 23 -81 23c-28 0 -49.667 -5.16699 -65 -15.5s-23 -24.166 -23 -41.499c0 -14.667 5.66699 -25.334 17 -32.001s26.666 -11.667 45.999 -15l119 -21c66.667 -11.333 115.334 -33.666 146.001 -66.999s46 -76 46 -128c0 -33.333 -6.83301 -62.666 -20.5 -87.999
s-32.334 -46.333 -56.001 -63s-51.5 -29.167 -83.5 -37.5s-66.333 -12.5 -103 -12.5c-42.667 0 -82 5.16699 -118 15.5s-67 25.333 -93 45s-46.167 44.167 -60.5 73.5s-21.5 63 -21.5 101zM244.001 667.997l54 142h159l-97 -142h-116z" />
    <glyph glyph-name="sacute" unicode="&#x15b;" horiz-adv-x="461" 
d="M153 147c6 -38.667 34.332 -58.002 84.999 -58.002c18 0 31.667 2.83301 41 8.5s14 13.167 14 22.5c0 8.66699 -3 15.834 -9 21.501s-16.667 9.83398 -32 12.501l-66 10c-54 8.66699 -95 23.334 -123 44.001s-42 53.667 -42 99c0 44 18 80.167 54 108.5
s85.333 42.5 148 42.5c64.667 0 115.334 -13.333 152.001 -40s57.334 -63.334 62.001 -110.001l-133 -4c-3.33301 16 -11.833 28.667 -25.5 38s-33.167 14 -58.5 14c-32.667 0 -49 -10.667 -49 -32c0 -7.33301 2.66699 -13 8 -17s11.666 -6.66699 18.999 -8l87 -15
c50 -8 88.833 -23.667 116.5 -47s41.5 -57 41.5 -101c0 -47.333 -18.5 -83.833 -55.5 -109.5s-87.5 -38.5 -151.5 -38.5c-30.667 0 -59.167 3.16699 -85.5 9.5s-49.333 15.833 -69 28.5s-35.667 29 -48 49s-19.5 43.333 -21.5 70zM172.999 487.998l54 142h159l-97 -142h-116
z" />
    <glyph glyph-name="Scircumflex" unicode="&#x15c;" horiz-adv-x="606" 
d="M176 228c1.33301 -20 6.00098 -36.6699 14.001 -50.0029s18.167 -24.166 30.5 -32.499s26.5 -14.333 42.5 -18s32.667 -5.5 50 -5.5c30 0 53.667 5 71 15s26 23.667 26 41c0 18.667 -8.16699 30.834 -24.5 36.501s-36.5 10.834 -60.5 15.501l-115 20
c-51.333 9.33301 -93.333 29.166 -126 59.499s-49 72.833 -49 127.5c0 32 6 60.667 18 86s29.167 46.833 51.5 64.5s49.333 31.167 81 40.5s67.167 14 106.5 14c87.333 0 154 -19.833 200 -59.5s69.667 -94.834 71 -165.501l-156 -3c-2.66699 32.667 -14.667 56.667 -36 72
s-48.333 23 -81 23c-28 0 -49.667 -5.16699 -65 -15.5s-23 -24.166 -23 -41.499c0 -14.667 5.66699 -25.334 17 -32.001s26.666 -11.667 45.999 -15l119 -21c66.667 -11.333 115.334 -33.666 146.001 -66.999s46 -76 46 -128c0 -33.333 -6.83301 -62.666 -20.5 -87.999
s-32.334 -46.333 -56.001 -63s-51.5 -29.167 -83.5 -37.5s-66.333 -12.5 -103 -12.5c-42.667 0 -82 5.16699 -118 15.5s-67 25.333 -93 45s-46.167 44.167 -60.5 73.5s-21.5 63 -21.5 101zM380.001 809.997l86 -142h-102l-60 55l-60 -55h-102l86 142h152z" />
    <glyph glyph-name="scircumflex" unicode="&#x15d;" horiz-adv-x="461" 
d="M153 147c6 -38.667 34.332 -58.002 84.999 -58.002c18 0 31.667 2.83301 41 8.5s14 13.167 14 22.5c0 8.66699 -3 15.834 -9 21.501s-16.667 9.83398 -32 12.501l-66 10c-54 8.66699 -95 23.334 -123 44.001s-42 53.667 -42 99c0 44 18 80.167 54 108.5
s85.333 42.5 148 42.5c64.667 0 115.334 -13.333 152.001 -40s57.334 -63.334 62.001 -110.001l-133 -4c-3.33301 16 -11.833 28.667 -25.5 38s-33.167 14 -58.5 14c-32.667 0 -49 -10.667 -49 -32c0 -7.33301 2.66699 -13 8 -17s11.666 -6.66699 18.999 -8l87 -15
c50 -8 88.833 -23.667 116.5 -47s41.5 -57 41.5 -101c0 -47.333 -18.5 -83.833 -55.5 -109.5s-87.5 -38.5 -151.5 -38.5c-30.667 0 -59.167 3.16699 -85.5 9.5s-49.333 15.833 -69 28.5s-35.667 29 -48 49s-19.5 43.333 -21.5 70zM308.999 629.998l86 -142h-102l-60 55
l-60 -55h-102l86 142h152z" />
    <glyph glyph-name="Scedilla" unicode="&#x15e;" horiz-adv-x="606" 
d="M421 -102c0 -13.333 -3.50098 -24.668 -10.501 -34.001s-16 -16.833 -27 -22.5s-23.667 -9.83398 -38 -12.501s-29.166 -4 -44.499 -4c-25.333 0 -47.833 3.16699 -67.5 9.5s-35.167 14.166 -46.5 23.499l17 39c11.333 -6.66699 23.833 -12 37.5 -16s29.167 -6 46.5 -6
c12.667 0 22.5 1.5 29.5 4.5s10.5 8.5 10.5 16.5c0 6.66699 -2.33301 11.667 -7 15s-10.5 5.33301 -17.5 6s-14.5 0.333984 -22.5 -0.999023s-15.333 -3.33301 -22 -6l-31 11l48 69c-38 2.66699 -72.667 9.66699 -104 21s-58.333 26.833 -81 46.5
s-40.167 43.334 -52.5 71.001s-18.5 59.167 -18.5 94.5l156 5c1.33301 -20 6 -36.667 14 -50s18.167 -24.166 30.5 -32.499s26.5 -14.333 42.5 -18s32.667 -5.5 50 -5.5c30 0 53.667 5 71 15s26 23.667 26 41c0 18.667 -8.16699 30.834 -24.5 36.501
s-36.5 10.834 -60.5 15.501l-115 20c-51.333 9.33301 -93.333 29.166 -126 59.499s-49 72.833 -49 127.5c0 32 6 60.667 18 86s29.167 46.833 51.5 64.5s49.333 31.167 81 40.5s67.167 14 106.5 14c87.333 0 154 -19.833 200 -59.5s69.667 -94.834 71 -165.501l-156 -3
c-2.66699 32.667 -14.667 56.667 -36 72s-48.333 23 -81 23c-28 0 -49.667 -5.16699 -65 -15.5s-23 -24.166 -23 -41.499c0 -14.667 5.66699 -25.334 17 -32.001s26.666 -11.667 45.999 -15l119 -21c66.667 -11.333 115.334 -33.666 146.001 -66.999s46 -76 46 -128
c0 -32.667 -6.5 -61.334 -19.5 -86.001s-30.667 -45.334 -53 -62.001s-48.833 -29.5 -79.5 -38.5s-63.667 -13.833 -99 -14.5l-19 -24c14.667 2.66699 29 3.33398 43 2.00098s26.333 -4.83301 37 -10.5s19.167 -13.167 25.5 -22.5s9.5 -21 9.5 -35z" />
    <glyph glyph-name="scedilla" unicode="&#x15f;" horiz-adv-x="461" 
d="M350 -102c0 -13.333 -3.50098 -24.668 -10.501 -34.001s-16 -16.833 -27 -22.5s-23.667 -9.83398 -38 -12.501s-29.166 -4 -44.499 -4c-25.333 0 -47.833 3.16699 -67.5 9.5s-35.167 14.166 -46.5 23.499l17 39c11.333 -6.66699 23.833 -12 37.5 -16s29.167 -6 46.5 -6
c12.667 0 22.5 1.5 29.5 4.5s10.5 8.5 10.5 16.5c0 6.66699 -2.33301 11.667 -7 15s-10.5 5.33301 -17.5 6s-14.5 0.333984 -22.5 -0.999023s-15.333 -3.33301 -22 -6l-31 11l48 68c-53.333 4 -97.833 18.667 -133.5 44s-55.5 62.666 -59.5 111.999l141 2
c6 -38.667 34.333 -58 85 -58c18 0 31.667 2.83301 41 8.5s14 13.167 14 22.5c0 8.66699 -3 15.834 -9 21.501s-16.667 9.83398 -32 12.501l-66 10c-54 8.66699 -95 23.334 -123 44.001s-42 53.667 -42 99c0 44 18 80.167 54 108.5s85.333 42.5 148 42.5
c64.667 0 115.334 -13.333 152.001 -40s57.334 -63.334 62.001 -110.001l-133 -4c-3.33301 16 -11.833 28.667 -25.5 38s-33.167 14 -58.5 14c-32.667 0 -49 -10.667 -49 -32c0 -7.33301 2.66699 -13 8 -17s11.666 -6.66699 18.999 -8l87 -15
c50 -8 88.833 -23.667 116.5 -47s41.5 -57 41.5 -101c0 -45.333 -16.833 -80.5 -50.5 -105.5s-79.834 -38.833 -138.501 -41.5l-19 -25c14.667 2.66699 29 3.33398 43 2.00098s26.333 -4.83301 37 -10.5s19.167 -13.167 25.5 -22.5s9.5 -21 9.5 -35z" />
    <glyph glyph-name="Scaron" unicode="&#x160;" horiz-adv-x="606" 
d="M176 228c1.33301 -20 6.00098 -36.6699 14.001 -50.0029s18.167 -24.166 30.5 -32.499s26.5 -14.333 42.5 -18s32.667 -5.5 50 -5.5c30 0 53.667 5 71 15s26 23.667 26 41c0 18.667 -8.16699 30.834 -24.5 36.501s-36.5 10.834 -60.5 15.501l-115 20
c-51.333 9.33301 -93.333 29.166 -126 59.499s-49 72.833 -49 127.5c0 32 6 60.667 18 86s29.167 46.833 51.5 64.5s49.333 31.167 81 40.5s67.167 14 106.5 14c87.333 0 154 -19.833 200 -59.5s69.667 -94.834 71 -165.501l-156 -3c-2.66699 32.667 -14.667 56.667 -36 72
s-48.333 23 -81 23c-28 0 -49.667 -5.16699 -65 -15.5s-23 -24.166 -23 -41.499c0 -14.667 5.66699 -25.334 17 -32.001s26.666 -11.667 45.999 -15l119 -21c66.667 -11.333 115.334 -33.666 146.001 -66.999s46 -76 46 -128c0 -33.333 -6.83301 -62.666 -20.5 -87.999
s-32.334 -46.333 -56.001 -63s-51.5 -29.167 -83.5 -37.5s-66.333 -12.5 -103 -12.5c-42.667 0 -82 5.16699 -118 15.5s-67 25.333 -93 45s-46.167 44.167 -60.5 73.5s-21.5 63 -21.5 101zM228.001 667.997l-86 142h102l60 -55l60 55h102l-86 -142h-152z" />
    <glyph glyph-name="scaron" unicode="&#x161;" horiz-adv-x="461" 
d="M153 147c6 -38.667 34.332 -58.002 84.999 -58.002c18 0 31.667 2.83301 41 8.5s14 13.167 14 22.5c0 8.66699 -3 15.834 -9 21.501s-16.667 9.83398 -32 12.501l-66 10c-54 8.66699 -95 23.334 -123 44.001s-42 53.667 -42 99c0 44 18 80.167 54 108.5
s85.333 42.5 148 42.5c64.667 0 115.334 -13.333 152.001 -40s57.334 -63.334 62.001 -110.001l-133 -4c-3.33301 16 -11.833 28.667 -25.5 38s-33.167 14 -58.5 14c-32.667 0 -49 -10.667 -49 -32c0 -7.33301 2.66699 -13 8 -17s11.666 -6.66699 18.999 -8l87 -15
c50 -8 88.833 -23.667 116.5 -47s41.5 -57 41.5 -101c0 -47.333 -18.5 -83.833 -55.5 -109.5s-87.5 -38.5 -151.5 -38.5c-30.667 0 -59.167 3.16699 -85.5 9.5s-49.333 15.833 -69 28.5s-35.667 29 -48 49s-19.5 43.333 -21.5 70zM156.999 487.998l-86 142h102l60 -55l60 55
h102l-86 -142h-152z" />
    <glyph glyph-name="Tcedilla" unicode="&#x162;" horiz-adv-x="654" 
d="M241 0v490h-216v140h604v-140h-219v-490h-169zM256 -34h141.998v-73c0 -40 -12.167 -68.5 -36.5 -85.5s-59.5 -25.5 -105.5 -25.5v53c18.667 0 32.334 2 41.001 6s13.334 12.667 14.001 26h-55v99z" />
    <glyph glyph-name="tcedilla" unicode="&#x163;" horiz-adv-x="358" 
d="M60 334l-59.998 0.00195312v100l33 5c22.667 3.33301 38.667 11 48 23s16.666 28.333 21.999 49l15 58h102v-123h116v-112h-116v-163c0 -19.333 4.33301 -33 13 -41s21.334 -12 38.001 -12c10 0 20.667 1.16699 32 3.5s23.666 6.16602 36.999 11.499v-105
c-17.333 -12.667 -36.333 -22.5 -57 -29.5s-46.334 -10.5 -77.001 -10.5c-18.667 0 -36.834 2.16699 -54.501 6.5s-33.167 11.666 -46.5 21.999s-24.166 24.333 -32.499 42s-12.5 39.5 -12.5 65.5v210zM133.002 -33.998h141.998v-73c0 -40 -12.167 -68.5 -36.5 -85.5
s-59.5 -25.5 -105.5 -25.5v53c18.667 0 32.334 2 41.001 6s13.334 12.667 14.001 26h-55v99z" />
    <glyph glyph-name="Tcaron" unicode="&#x164;" horiz-adv-x="654" 
d="M241 0v490h-216v140h604v-140h-219v-490h-169zM251 668l-86 142h102l60 -55l60 55h102l-86 -142h-152z" />
    <glyph glyph-name="tcaron" unicode="&#x165;" horiz-adv-x="358" 
d="M60 334l-59.998 0.00195312v100l33 5c22.667 3.33301 38.667 11 48 23s16.666 28.333 21.999 49l15 58h102v-123h116v-112h-116v-163c0 -19.333 4.33301 -33 13 -41s21.334 -12 38.001 -12c10 0 20.667 1.16699 32 3.5s23.666 6.16602 36.999 11.499v-105
c-17.333 -12.667 -36.333 -22.5 -57 -29.5s-46.334 -10.5 -77.001 -10.5c-18.667 0 -36.834 2.16699 -54.501 6.5s-33.167 11.666 -46.5 21.999s-24.166 24.333 -32.499 42s-12.5 39.5 -12.5 65.5v210zM247.002 481.002l13 149h155l-66 -149h-102z" />
    <glyph glyph-name="Tbar" unicode="&#x166;" horiz-adv-x="654" 
d="M130 367h111v123h-216v140h604v-140h-219v-123h111v-138h-111v-229h-169v229h-111v138z" />
    <glyph glyph-name="tbar" unicode="&#x167;" horiz-adv-x="375" 
d="M14 283l60.002 0.00195312v51h-60v100l33 5c22.667 3.33301 38.667 11 48 23s16.666 28.333 21.999 49l15 58h102v-123h116v-112h-116v-51h116v-99h-116v-13c0 -19.333 4.33301 -33 13 -41s21.334 -12 38.001 -12c10 0 20.667 1.16699 32 3.5
s23.666 6.16602 36.999 11.499v-105c-17.333 -12.667 -36.333 -22.5 -57 -29.5s-46.334 -10.5 -77.001 -10.5c-18.667 0 -36.834 2.16699 -54.501 6.5s-33.167 11.666 -46.5 21.999s-24.166 24.333 -32.499 42s-12.5 39.5 -12.5 65.5v60h-60v99z" />
    <glyph glyph-name="Utilde" unicode="&#x168;" horiz-adv-x="660" 
d="M330 -12c-40.667 0 -78.3301 5 -112.997 15s-64.834 25.667 -90.501 47s-45.834 48.5 -60.501 81.5s-22 72.5 -22 118.5v380h169v-352c0 -48 8.5 -84.5 25.5 -109.5s47.5 -37.5 91.5 -37.5s74.5 12.5 91.5 37.5s25.5 61.5 25.5 109.5v352h170v-380
c0 -46 -7.33301 -85.5 -22 -118.5s-34.834 -60.167 -60.501 -81.5s-56 -37 -91 -47s-72.833 -15 -113.5 -15zM178.004 668c0 42.667 7.5 77.5 22.5 104.5s37.5 40.5 67.5 40.5c11.333 0 21.666 -2 30.999 -6s18.333 -8.16699 27 -12.5l24.5 -12.5
c7.66699 -4 15.834 -6 24.501 -6c7.33301 0 14.166 2.33301 20.499 7s10.166 13.667 11.499 27h75c0 -42.667 -7.5 -77.5 -22.5 -104.5s-37.5 -40.5 -67.5 -40.5c-11.333 0 -21.666 2 -30.999 6s-18.333 8.16699 -27 12.5l-24.5 12.5c-7.66699 4 -15.834 6 -24.501 6
c-7.33301 0 -14.166 -2.33301 -20.499 -7s-10.166 -13.667 -11.499 -27h-75z" />
    <glyph glyph-name="utilde" unicode="&#x169;" horiz-adv-x="544" 
d="M338 446l161.998 0.00195312v-446h-162v67c-12 -25.333 -29.833 -44.833 -53.5 -58.5s-52.5 -20.5 -86.5 -20.5c-30.667 0 -56.167 4.83301 -76.5 14.5s-36.666 22.667 -48.999 39s-21 35.166 -26 56.499s-7.5 43.666 -7.5 66.999v281h162v-238
c0 -30 4.83301 -53 14.5 -69s26.834 -24 51.501 -24c25.333 0 43.5 10.167 54.5 30.5s16.5 47.5 16.5 81.5v219zM118.998 488.002c0 42.667 7.5 77.5 22.5 104.5s37.5 40.5 67.5 40.5c11.333 0 21.666 -2 30.999 -6s18.333 -8.16699 27 -12.5l24.5 -12.5
c7.66699 -4 15.834 -6 24.501 -6c7.33301 0 14.166 2.33301 20.499 7s10.166 13.667 11.499 27h75c0 -42.667 -7.5 -77.5 -22.5 -104.5s-37.5 -40.5 -67.5 -40.5c-11.333 0 -21.666 2 -30.999 6s-18.333 8.16699 -27 12.5l-24.5 12.5c-7.66699 4 -15.834 6 -24.501 6
c-7.33301 0 -14.166 -2.33301 -20.499 -7s-10.166 -13.667 -11.499 -27h-75z" />
    <glyph glyph-name="Umacron" unicode="&#x16a;" horiz-adv-x="660" 
d="M330 -12c-40.667 0 -78.3301 5 -112.997 15s-64.834 25.667 -90.501 47s-45.834 48.5 -60.501 81.5s-22 72.5 -22 118.5v380h169v-352c0 -48 8.5 -84.5 25.5 -109.5s47.5 -37.5 91.5 -37.5s74.5 12.5 91.5 37.5s25.5 61.5 25.5 109.5v352h170v-380
c0 -46 -7.33301 -85.5 -22 -118.5s-34.834 -60.167 -60.501 -81.5s-56 -37 -91 -47s-72.833 -15 -113.5 -15zM188.004 780h285v-108h-285v108z" />
    <glyph glyph-name="umacron" unicode="&#x16b;" horiz-adv-x="544" 
d="M338 446l161.998 0.00195312v-446h-162v67c-12 -25.333 -29.833 -44.833 -53.5 -58.5s-52.5 -20.5 -86.5 -20.5c-30.667 0 -56.167 4.83301 -76.5 14.5s-36.666 22.667 -48.999 39s-21 35.166 -26 56.499s-7.5 43.666 -7.5 66.999v281h162v-238
c0 -30 4.83301 -53 14.5 -69s26.834 -24 51.501 -24c25.333 0 43.5 10.167 54.5 30.5s16.5 47.5 16.5 81.5v219zM131.998 600.002h275v-108h-275v108z" />
    <glyph glyph-name="Ubreve" unicode="&#x16c;" horiz-adv-x="660" 
d="M330 -12c-40.667 0 -78.3301 5 -112.997 15s-64.834 25.667 -90.501 47s-45.834 48.5 -60.501 81.5s-22 72.5 -22 118.5v380h169v-352c0 -48 8.5 -84.5 25.5 -109.5s47.5 -37.5 91.5 -37.5s74.5 12.5 91.5 37.5s25.5 61.5 25.5 109.5v352h170v-380
c0 -46 -7.33301 -85.5 -22 -118.5s-34.834 -60.167 -60.501 -81.5s-56 -37 -91 -47s-72.833 -15 -113.5 -15zM330.004 668c-44.667 0 -79.502 12.5 -104.502 37.5s-37.5 59.833 -37.5 104.5h91c0 -16 4.83301 -27.667 14.5 -35s21.834 -11 36.501 -11
s26.834 3.66699 36.501 11s14.5 19 14.5 35h91c0 -44.667 -12.5 -79.5 -37.5 -104.5s-59.833 -37.5 -104.5 -37.5z" />
    <glyph glyph-name="ubreve" unicode="&#x16d;" horiz-adv-x="544" 
d="M338 446l161.998 0.00195312v-446h-162v67c-12 -25.333 -29.833 -44.833 -53.5 -58.5s-52.5 -20.5 -86.5 -20.5c-30.667 0 -56.167 4.83301 -76.5 14.5s-36.666 22.667 -48.999 39s-21 35.166 -26 56.499s-7.5 43.666 -7.5 66.999v281h162v-238
c0 -30 4.83301 -53 14.5 -69s26.834 -24 51.501 -24c25.333 0 43.5 10.167 54.5 30.5s16.5 47.5 16.5 81.5v219zM268.998 488.002c-44.667 0 -79.502 12.5 -104.502 37.5s-37.5 59.833 -37.5 104.5h91c0 -16 4.83301 -27.667 14.5 -35s21.834 -11 36.501 -11
s26.834 3.66699 36.501 11s14.5 19 14.5 35h91c0 -44.667 -12.5 -79.5 -37.5 -104.5s-59.833 -37.5 -104.5 -37.5z" />
    <glyph glyph-name="Uring" unicode="&#x16e;" horiz-adv-x="660" 
d="M330 -12c-40.667 0 -78.3301 5 -112.997 15s-64.834 25.667 -90.501 47s-45.834 48.5 -60.501 81.5s-22 72.5 -22 118.5v380h169v-352c0 -48 8.5 -84.5 25.5 -109.5s47.5 -37.5 91.5 -37.5s74.5 12.5 91.5 37.5s25.5 61.5 25.5 109.5v352h170v-380
c0 -46 -7.33301 -85.5 -22 -118.5s-34.834 -60.167 -60.501 -81.5s-56 -37 -91 -47s-72.833 -15 -113.5 -15zM296.004 757c0 -10 2.83301 -18.167 8.5 -24.5s14.167 -9.5 25.5 -9.5s19.833 3.16699 25.5 9.5s8.5 14.5 8.5 24.5s-2.83301 18.167 -8.5 24.5
s-14.167 9.5 -25.5 9.5s-19.833 -3.16699 -25.5 -9.5s-8.5 -14.5 -8.5 -24.5zM232.004 757c0 27.333 8.83301 49.833 26.5 67.5s41.5 26.5 71.5 26.5s53.833 -8.83301 71.5 -26.5s26.5 -40.167 26.5 -67.5s-8.83301 -49.833 -26.5 -67.5s-41.5 -26.5 -71.5 -26.5
s-53.833 8.83301 -71.5 26.5s-26.5 40.167 -26.5 67.5z" />
    <glyph glyph-name="uring" unicode="&#x16f;" horiz-adv-x="544" 
d="M338 446l161.998 0.00195312v-446h-162v67c-12 -25.333 -29.833 -44.833 -53.5 -58.5s-52.5 -20.5 -86.5 -20.5c-30.667 0 -56.167 4.83301 -76.5 14.5s-36.666 22.667 -48.999 39s-21 35.166 -26 56.499s-7.5 43.666 -7.5 66.999v281h162v-238
c0 -30 4.83301 -53 14.5 -69s26.834 -24 51.501 -24c25.333 0 43.5 10.167 54.5 30.5s16.5 47.5 16.5 81.5v219zM234.998 577.002c0 -10 2.83301 -18.167 8.5 -24.5s14.167 -9.5 25.5 -9.5s19.833 3.16699 25.5 9.5s8.5 14.5 8.5 24.5s-2.83301 18.167 -8.5 24.5
s-14.167 9.5 -25.5 9.5s-19.833 -3.16699 -25.5 -9.5s-8.5 -14.5 -8.5 -24.5zM170.998 577.002c0 27.333 8.83301 49.833 26.5 67.5s41.5 26.5 71.5 26.5s53.833 -8.83301 71.5 -26.5s26.5 -40.167 26.5 -67.5s-8.83301 -49.833 -26.5 -67.5s-41.5 -26.5 -71.5 -26.5
s-53.833 8.83301 -71.5 26.5s-26.5 40.167 -26.5 67.5z" />
    <glyph glyph-name="Uhungarumlaut" unicode="&#x170;" horiz-adv-x="660" 
d="M330 -12c-40.667 0 -78.3301 5 -112.997 15s-64.834 25.667 -90.501 47s-45.834 48.5 -60.501 81.5s-22 72.5 -22 118.5v380h169v-352c0 -48 8.5 -84.5 25.5 -109.5s47.5 -37.5 91.5 -37.5s74.5 12.5 91.5 37.5s25.5 61.5 25.5 109.5v352h170v-380
c0 -46 -7.33301 -85.5 -22 -118.5s-34.834 -60.167 -60.501 -81.5s-56 -37 -91 -47s-72.833 -15 -113.5 -15zM188.004 668l40 142h148l-83 -142h-105zM360.004 668l40 142h148l-83 -142h-105z" />
    <glyph glyph-name="uhungarumlaut" unicode="&#x171;" horiz-adv-x="544" 
d="M338 446l161.998 0.00195312v-446h-162v67c-12 -25.333 -29.833 -44.833 -53.5 -58.5s-52.5 -20.5 -86.5 -20.5c-30.667 0 -56.167 4.83301 -76.5 14.5s-36.666 22.667 -48.999 39s-21 35.166 -26 56.499s-7.5 43.666 -7.5 66.999v281h162v-238
c0 -30 4.83301 -53 14.5 -69s26.834 -24 51.501 -24c25.333 0 43.5 10.167 54.5 30.5s16.5 47.5 16.5 81.5v219zM124.998 488.002l40 142h148l-83 -142h-105zM296.998 488.002l40 142h148l-83 -142h-105z" />
    <glyph glyph-name="Uogonek" unicode="&#x172;" horiz-adv-x="660" 
d="M330 -12c-40.667 0 -78.332 5.00098 -112.999 15.001s-64.834 25.667 -90.501 47s-45.834 48.5 -60.501 81.5s-22 72.5 -22 118.5v380h169v-352c0 -48 8.5 -84.5 25.5 -109.5s47.5 -37.5 91.5 -37.5s74.5 12.5 91.5 37.5s25.5 61.5 25.5 109.5v352h170v-380
c0 -64 -13.667 -115.333 -41 -154s-63.666 -67 -108.999 -85c-21.333 -19.333 -37 -34 -47 -44s-15 -20.667 -15 -32c0 -8.66699 2.5 -15.167 7.5 -19.5s11.5 -6.5 19.5 -6.5s15.5 1.16699 22.5 3.5s14.167 5.16602 21.5 8.49902v-72
c-8.66699 -5.33301 -19 -10.666 -31 -15.999s-28.667 -8 -50 -8c-30 0 -53.333 6.66699 -70 20s-25 30.666 -25 51.999c0 32.667 15 63 45 91h-15z" />
    <glyph glyph-name="uogonek" unicode="&#x173;" horiz-adv-x="544" 
d="M338 446l161.998 0.00390625v-446c-28 -15.333 -46.833 -27.333 -56.5 -36s-14.5 -18.334 -14.5 -29.001c0 -8.66699 2.5 -15.167 7.5 -19.5s11.5 -6.5 19.5 -6.5s15.5 1.16699 22.5 3.5s14.167 5.16602 21.5 8.49902v-72c-8.66699 -5.33301 -19 -10.666 -31 -15.999
s-28.667 -8 -50 -8c-30 0 -53.333 6.66699 -70 20s-25 30.666 -25 51.999c0 38.667 19.667 73 59 103h-45v67c-12 -25.333 -29.833 -44.833 -53.5 -58.5s-52.5 -20.5 -86.5 -20.5c-30.667 0 -56.167 4.83301 -76.5 14.5s-36.666 22.667 -48.999 39s-21 35.166 -26 56.499
s-7.5 43.666 -7.5 66.999v281h162v-238c0 -30 4.83301 -53 14.5 -69s26.834 -24 51.501 -24c25.333 0 43.5 10.167 54.5 30.5s16.5 47.5 16.5 81.5v219z" />
    <glyph glyph-name="Wcircumflex" unicode="&#x174;" horiz-adv-x="903" 
d="M635 235h4l100 395h164l-165 -630h-181l-105 398h-4l-105 -398h-178l-165 630h170l100 -395h4l104 395h153zM527 810l86 -142h-102l-60 55l-60 -55h-102l86 142h152z" />
    <glyph glyph-name="wcircumflex" unicode="&#x175;" horiz-adv-x="730" 
d="M502 193h4l80 253h146l-141 -446h-159l-65 252h-4l-65 -252h-159l-141 446h161l80 -253h4l65 253h129zM441 630l86 -142h-102l-60 55l-60 -55h-102l86 142h152z" />
    <glyph glyph-name="Ycircumflex" unicode="&#x176;" horiz-adv-x="649" 
d="M466 630h183l-242 -391v-239h-165v239l-242 391h189l142 -227zM400 810l86 -142h-102l-60 55l-60 -55h-102l86 142h152z" />
    <glyph glyph-name="ycircumflex" unicode="&#x177;" horiz-adv-x="529" 
d="M116 -160l64 154l-182 452h170l99 -261h4l101 261h159l-256 -606h-159zM340 630l86 -142h-102l-60 55l-60 -55h-102l86 142h152z" />
    <glyph glyph-name="Ydieresis" unicode="&#x178;" horiz-adv-x="649" 
d="M466 630h183l-242 -391v-239h-165v239l-242 391h189l142 -227zM159 810h142v-142h-142v142zM347 810h142v-142h-142v142z" />
    <glyph glyph-name="Zacute" unicode="&#x179;" horiz-adv-x="594" 
d="M564 140v-140h-534v129l310 361h-307v140h523v-132l-312 -358h320zM237 668l54 142h159l-97 -142h-116z" />
    <glyph glyph-name="zacute" unicode="&#x17a;" horiz-adv-x="452" 
d="M30 329v117h391v-110l-201 -219h206v-117h-400v111l198 218h-194zM166 488l54 142h159l-97 -142h-116z" />
    <glyph glyph-name="Zdotaccent" unicode="&#x17b;" horiz-adv-x="594" 
d="M564 140v-140h-534v129l310 361h-307v140h523v-132l-312 -358h320zM215 810h164v-142h-164v142z" />
    <glyph glyph-name="zdotaccent" unicode="&#x17c;" horiz-adv-x="452" 
d="M30 329v117h391v-110l-201 -219h206v-117h-400v111l198 218h-194zM144 630h164v-142h-164v142z" />
    <glyph glyph-name="Zcaron" unicode="&#x17d;" horiz-adv-x="594" 
d="M564 140v-140h-534v129l310 361h-307v140h523v-132l-312 -358h320zM221 668l-86 142h102l60 -55l60 55h102l-86 -142h-152z" />
    <glyph glyph-name="zcaron" unicode="&#x17e;" horiz-adv-x="452" 
d="M30 329v117h391v-110l-201 -219h206v-117h-400v111l198 218h-194zM150 488l-86 142h102l60 -55l60 55h102l-86 -142h-152z" />
    <glyph glyph-name="florin" unicode="&#x192;" horiz-adv-x="457" 
d="M323 376l85.998 0.00195312v-117h-111l-49 -237c-11.333 -54 -34.166 -93.5 -68.499 -118.5s-76.166 -37.5 -125.499 -37.5c-8.66699 0 -17.667 0.5 -27 1.5s-18.666 2.16699 -27.999 3.5v117c4.66699 -1.33301 9 -2 13 -2h11c24.667 0 41.5 7.66699 50.5 23
s16.167 36.666 21.5 63.999l39 186h-75v117h99l23 107c11.333 52 34.166 91.5 68.499 118.5s74.833 40.5 121.5 40.5c20 0 41.667 -2.66699 65 -8v-117c-4.66699 0.666992 -9 1.16699 -13 1.5s-7.66699 0.5 -11 0.5c-25.333 0 -43.333 -7.83301 -54 -23.5
s-18.667 -36.834 -24 -63.501z" />
    <glyph glyph-name="Aringacute" unicode="&#x1fa;" horiz-adv-x="692" 
d="M441 630l251 -630h-181l-47 122h-246l-47 -122h-171l251 630h190zM244 736c0 25.333 8.83301 46.166 26.5 62.499s41.5 24.5 71.5 24.5s54 -8.16699 72 -24.5s27 -37.166 27 -62.499s-9 -46.166 -27 -62.499s-42 -24.5 -72 -24.5s-53.833 8.16699 -71.5 24.5
s-26.5 37.166 -26.5 62.499zM286 843l41 115h159l-84 -115h-116zM267 249h148l-72 186h-4zM308 736c0 -20.667 11.333 -31 34 -31c23.333 0 35 10.333 35 31s-11.667 31 -35 31c-22.667 0 -34 -10.333 -34 -31z" />
    <glyph glyph-name="aringacute" unicode="&#x1fb;" horiz-adv-x="527" 
d="M203 668l41 115h159l-84 -115h-116zM225 561c0 -20.667 11.333 -31 34 -31c23.333 0 35 10.333 35 31s-11.667 31 -35 31c-22.667 0 -34 -10.333 -34 -31zM161 561c0 25.333 8.83301 46.166 26.5 62.499s41.5 24.5 71.5 24.5s54 -8.16699 72 -24.5s27 -37.166 27 -62.499
s-9 -46.166 -27 -62.499s-42 -24.5 -72 -24.5s-53.833 8.16699 -71.5 24.5s-26.5 37.166 -26.5 62.499zM302 193l-65.999 -12c-19.333 -4 -34.5 -9.5 -45.5 -16.5s-16.5 -17.833 -16.5 -32.5c0 -11.333 4.16699 -20.5 12.5 -27.5s19.166 -10.5 32.499 -10.5
c23.333 0 43 8 59 24s24 38.667 24 68v7zM461.001 131c0 -22 9 -33.001 27 -33.001c12 0 24 2.33301 36 7v-86c-11.333 -8 -25.166 -14.833 -41.499 -20.5s-36.166 -8.5 -59.499 -8.5c-28 0 -52 6.83301 -72 20.5s-33.667 33.167 -41 58.5c-26 -52.667 -75.333 -79 -148 -79
c-44 0 -79 10.667 -105 32s-39 51 -39 89c0 43.333 14.333 75.333 43 96s67.334 35.334 116.001 44.001l125 21v7c0 18.667 -4.5 33.167 -13.5 43.5s-23.167 15.5 -42.5 15.5c-18 0 -31.833 -5.16699 -41.5 -15.5s-16.167 -23.833 -19.5 -40.5l-150 10
c7.33301 49.333 29.166 89.333 65.499 120s88.166 46 155.499 46c29.333 0 56.5 -3.33301 81.5 -10s46.667 -17 65 -31s32.666 -32 42.999 -54s15.5 -48.667 15.5 -80v-152z" />
    <glyph glyph-name="AEacute" unicode="&#x1fc;" horiz-adv-x="995" 
d="M958 630v-140h-320v-103h247v-138h-247v-109h329v-140h-496v142h-213l-80 -142h-178l365 630h593zM597 668l54 142h159l-97 -142h-116zM329 269h142v243h-4z" />
    <glyph glyph-name="aeacute" unicode="&#x1fd;" horiz-adv-x="781" 
d="M240 458c31.333 0 58.833 -4.50098 82.5 -13.501s43.834 -23.5 60.501 -43.5c15.333 17.333 36.833 31.166 64.5 41.499s55.5 15.5 83.5 15.5c37.333 0 70.166 -6 98.499 -18s52.166 -28.167 71.499 -48.5s33.833 -44 43.5 -71s14.5 -55.5 14.5 -85.5v-43h-316
c5.33301 -32 17.333 -53.833 36 -65.5s38.667 -17.5 60 -17.5c44 0 73 16.667 87 50l130 -12c-11.333 -51.333 -36.5 -90.666 -75.5 -117.999s-88.167 -41 -147.5 -41c-42 0 -77.5 7 -106.5 21s-53.167 34.667 -72.5 62c-15.333 -23.333 -38.166 -42.666 -68.499 -57.999
s-66.5 -23 -108.5 -23c-50.667 0 -89.834 12.667 -117.501 38s-41.5 56.333 -41.5 93c0 50.667 20 87.834 60 111.501s93.667 35.5 161 35.5h71v7c0 19.333 -5.66699 34.666 -17 45.999s-26.666 17 -45.999 17c-18 0 -33 -4.66699 -45 -14s-20 -21.333 -24 -36l-140 8
c3.33301 24.667 10.833 47 22.5 67s26.5 37 44.5 51s38.5 24.833 61.5 32.5s47.5 11.5 73.5 11.5zM225 93.999c23.333 0 43.332 7.5 59.999 22.5s25 36.167 25 63.5v12h-62c-23.333 0 -41.5 -4.5 -54.5 -13.5s-19.5 -22.5 -19.5 -40.5c0 -13.333 4.33301 -24 13 -32
s21.334 -12 38.001 -12zM528.999 341.999c-21.333 0 -39.333 -6 -54 -18s-24.667 -30.667 -30 -56h160c-1.33301 20 -8.33301 37.333 -21 52s-31 22 -55 22zM327.999 487.999l54 142h159l-97 -142h-116z" />
    <glyph glyph-name="Oslashacute" unicode="&#x1fe;" horiz-adv-x="694" 
d="M674 315c0 -48.667 -8.5 -93 -25.5 -133s-40.167 -74.333 -69.5 -103s-63.833 -51 -103.5 -67s-82.5 -24 -128.5 -24c-62.667 0 -119 14.333 -169 43l-53 -68l-71 51l54 71c-28 28.667 -49.667 62.334 -65 101.001s-23 81.667 -23 129c0 48.667 8.5 93 25.5 133
s40.167 74.333 69.5 103s63.833 51 103.5 67s82.5 24 128.5 24c30 0 58.5 -3.33301 85.5 -10s52.167 -16.334 75.5 -29.001l50 64l71 -51l-50 -65c30 -28.667 53.333 -63 70 -103s25 -84.333 25 -133zM499 315c0 39.333 -7.66699 73.333 -23 102l-203 -262
c21.333 -11.333 46 -17 74 -17c46.667 0 83.667 16 111 48s41 75 41 129zM195 315c0 -35.333 6.33301 -66.667 19 -94l198 257c-20 9.33301 -41.667 14 -65 14c-46.667 0 -83.667 -16 -111 -48s-41 -75 -41 -129zM287 667.999l54 142h159l-97 -142h-116z" />
    <glyph glyph-name="oslashacute" unicode="&#x1ff;" horiz-adv-x="528" 
d="M508 223c0 -34.667 -5.83203 -66.5039 -17.499 -95.5039s-28.334 -53.833 -50.001 -74.5s-47.5 -36.667 -77.5 -48s-63 -17 -99 -17c-46.667 0 -88.667 9.33301 -126 28l-42 -51l-56 44l41 50c-19.333 20.667 -34.333 44.667 -45 72s-16 58 -16 92
c0 34.667 5.83301 66.334 17.5 95.001s28.167 53.334 49.5 74.001s47 36.834 77 48.501s63.333 17.5 100 17.5c48 0 89.667 -9.66699 125 -29l43 51l56 -43l-42 -51c19.333 -20.667 34.5 -44.667 45.5 -72s16.5 -57.666 16.5 -90.999zM204.001 487.996l54 142h159l-97 -142
h-116zM171.001 222.996c0 -17.333 1.99902 -33.667 5.99902 -49l128 153c-12 6 -25.667 9 -41 9c-31.333 0 -54.666 -10.333 -69.999 -31s-23 -48 -23 -82zM357 222.995c0 18.667 -2.33398 34.667 -7.00098 48l-127 -153c10 -5.33301 23.667 -8 41 -8
c30.667 0 53.834 10.333 69.501 31s23.5 48 23.5 82z" />
    <glyph glyph-name="Scommaaccent" unicode="&#x218;" horiz-adv-x="606" 
d="M176 228c1.33301 -20 6.00098 -36.6699 14.001 -50.0029s18.167 -24.166 30.5 -32.499s26.5 -14.333 42.5 -18s32.667 -5.5 50 -5.5c30 0 53.667 5 71 15s26 23.667 26 41c0 18.667 -8.16699 30.834 -24.5 36.501s-36.5 10.834 -60.5 15.501l-115 20
c-51.333 9.33301 -93.333 29.166 -126 59.499s-49 72.833 -49 127.5c0 32 6 60.667 18 86s29.167 46.833 51.5 64.5s49.333 31.167 81 40.5s67.167 14 106.5 14c87.333 0 154 -19.833 200 -59.5s69.667 -94.834 71 -165.501l-156 -3c-2.66699 32.667 -14.667 56.667 -36 72
s-48.333 23 -81 23c-28 0 -49.667 -5.16699 -65 -15.5s-23 -24.166 -23 -41.499c0 -14.667 5.66699 -25.334 17 -32.001s26.666 -11.667 45.999 -15l119 -21c66.667 -11.333 115.334 -33.666 146.001 -66.999s46 -76 46 -128c0 -33.333 -6.83301 -62.666 -20.5 -87.999
s-32.334 -46.333 -56.001 -63s-51.5 -29.167 -83.5 -37.5s-66.333 -12.5 -103 -12.5c-42.667 0 -82 5.16699 -118 15.5s-67 25.333 -93 45s-46.167 44.167 -60.5 73.5s-21.5 63 -21.5 101zM233.001 -34.0029h141.998v-73c0 -40 -12.167 -68.5 -36.5 -85.5
s-59.5 -25.5 -105.5 -25.5v53c18.667 0 32.334 2 41.001 6s13.334 12.667 14.001 26h-55v99z" />
    <glyph glyph-name="scommaaccent" unicode="&#x219;" horiz-adv-x="461" 
d="M153 147c6 -38.667 34.332 -58.002 84.999 -58.002c18 0 31.667 2.83301 41 8.5s14 13.167 14 22.5c0 8.66699 -3 15.834 -9 21.501s-16.667 9.83398 -32 12.501l-66 10c-54 8.66699 -95 23.334 -123 44.001s-42 53.667 -42 99c0 44 18 80.167 54 108.5
s85.333 42.5 148 42.5c64.667 0 115.334 -13.333 152.001 -40s57.334 -63.334 62.001 -110.001l-133 -4c-3.33301 16 -11.833 28.667 -25.5 38s-33.167 14 -58.5 14c-32.667 0 -49 -10.667 -49 -32c0 -7.33301 2.66699 -13 8 -17s11.666 -6.66699 18.999 -8l87 -15
c50 -8 88.833 -23.667 116.5 -47s41.5 -57 41.5 -101c0 -47.333 -18.5 -83.833 -55.5 -109.5s-87.5 -38.5 -151.5 -38.5c-30.667 0 -59.167 3.16699 -85.5 9.5s-49.333 15.833 -69 28.5s-35.667 29 -48 49s-19.5 43.333 -21.5 70zM161.999 -34.002h141.998v-73
c0 -40 -12.167 -68.5 -36.5 -85.5s-59.5 -25.5 -105.5 -25.5v53c18.667 0 32.334 2 41.001 6s13.334 12.667 14.001 26h-55v99z" />
    <glyph glyph-name="uni0237" unicode="&#x237;" horiz-adv-x="250" 
d="M206 -15c0 -55.333 -14.833 -95.332 -44.5 -119.999s-70.5 -37 -122.5 -37c-25.333 0 -49.333 2.66699 -72 8s-41.334 13.333 -56.001 24l25 98c11.333 -7.33301 22.333 -12.333 33 -15s21.334 -4 32.001 -4c14 0 24.667 4.16699 32 12.5s11 22.166 11 41.499v453h162
v-461z" />
    <glyph glyph-name="circumflex" unicode="&#x2c6;" 
d="M326 630l86 -142h-102l-60 55l-60 -55h-102l86 142h152z" />
    <glyph glyph-name="caron" unicode="&#x2c7;" 
d="M174 488l-86 142h102l60 -55l60 55h102l-86 -142h-152z" />
    <glyph glyph-name="breve" unicode="&#x2d8;" 
d="M250 488c-44.667 0 -79.502 12.5 -104.502 37.5s-37.5 59.833 -37.5 104.5h91c0 -16 4.83301 -27.667 14.5 -35s21.834 -11 36.501 -11s26.834 3.66699 36.501 11s14.5 19 14.5 35h91c0 -44.667 -12.5 -79.5 -37.5 -104.5s-59.833 -37.5 -104.5 -37.5z" />
    <glyph glyph-name="dotaccent" unicode="&#x2d9;" 
d="M168 630h164v-142h-164v142z" />
    <glyph glyph-name="ring" unicode="&#x2da;" 
d="M216 577c0 -10 2.83301 -18.167 8.5 -24.5s14.167 -9.5 25.5 -9.5s19.833 3.16699 25.5 9.5s8.5 14.5 8.5 24.5s-2.83301 18.167 -8.5 24.5s-14.167 9.5 -25.5 9.5s-19.833 -3.16699 -25.5 -9.5s-8.5 -14.5 -8.5 -24.5zM152 577c0 27.333 8.83301 49.833 26.5 67.5
s41.5 26.5 71.5 26.5s53.833 -8.83301 71.5 -26.5s26.5 -40.167 26.5 -67.5s-8.83301 -49.833 -26.5 -67.5s-41.5 -26.5 -71.5 -26.5s-53.833 8.83301 -71.5 26.5s-26.5 40.167 -26.5 67.5z" />
    <glyph glyph-name="ogonek" unicode="&#x2db;" 
d="M326 12c-21.333 -19.333 -37.167 -34.167 -47.5 -44.5s-15.5 -21.166 -15.5 -32.499c0 -8.66699 2.5 -15.167 7.5 -19.5s11.5 -6.5 19.5 -6.5s15.5 1.16699 22.5 3.5s14.167 5.16602 21.5 8.49902v-72c-8.66699 -5.33301 -19 -10.666 -31 -15.999s-28.667 -8 -50 -8
c-30 0 -53.333 6.66699 -70 20s-25 30.666 -25 51.999c0 22 6.66699 42.667 20 62s32 37 56 53h92z" />
    <glyph glyph-name="tilde" unicode="&#x2dc;" 
d="M98 488c0 42.667 7.5 77.5 22.5 104.5s37.5 40.5 67.5 40.5c11.333 0 21.666 -2 30.999 -6s18.333 -8.16699 27 -12.5l24.5 -12.5c7.66699 -4 15.834 -6 24.501 -6c7.33301 0 14.166 2.33301 20.499 7s10.166 13.667 11.499 27h75c0 -42.667 -7.5 -77.5 -22.5 -104.5
s-37.5 -40.5 -67.5 -40.5c-11.333 0 -21.666 2 -30.999 6s-18.333 8.16699 -27 12.5l-24.5 12.5c-7.66699 4 -15.834 6 -24.501 6c-7.33301 0 -14.166 -2.33301 -20.499 -7s-10.166 -13.667 -11.499 -27h-75z" />
    <glyph glyph-name="hungarumlaut" unicode="&#x2dd;" 
d="M70 488l40 142h148l-83 -142h-105zM242 488l40 142h148l-83 -142h-105z" />
    <glyph glyph-name="Wgrave" unicode="&#x1e80;" horiz-adv-x="903" 
d="M635 235h4l100 395h164l-165 -630h-181l-105 398h-4l-105 -398h-178l-165 630h170l100 -395h4l104 395h153zM394 668l-97 142h159l54 -142h-116z" />
    <glyph glyph-name="wgrave" unicode="&#x1e81;" horiz-adv-x="730" 
d="M502 193h4l80 253h146l-141 -446h-159l-65 252h-4l-65 -252h-159l-141 446h161l80 -253h4l65 253h129zM308 488l-97 142h159l54 -142h-116z" />
    <glyph glyph-name="Wacute" unicode="&#x1e82;" horiz-adv-x="903" 
d="M635 235h4l100 395h164l-165 -630h-181l-105 398h-4l-105 -398h-178l-165 630h170l100 -395h4l104 395h153zM391 668l54 142h159l-97 -142h-116z" />
    <glyph glyph-name="wacute" unicode="&#x1e83;" horiz-adv-x="730" 
d="M502 193h4l80 253h146l-141 -446h-159l-65 252h-4l-65 -252h-159l-141 446h161l80 -253h4l65 253h129zM305 488l54 142h159l-97 -142h-116z" />
    <glyph glyph-name="Wdieresis" unicode="&#x1e84;" horiz-adv-x="903" 
d="M635 235h4l100 395h164l-165 -630h-181l-105 398h-4l-105 -398h-178l-165 630h170l100 -395h4l104 395h153zM286 810h142v-142h-142v142zM474 810h142v-142h-142v142z" />
    <glyph glyph-name="wdieresis" unicode="&#x1e85;" horiz-adv-x="730" 
d="M502 193h4l80 253h146l-141 -446h-159l-65 252h-4l-65 -252h-159l-141 446h161l80 -253h4l65 253h129zM200 630h142v-142h-142v142zM388 630h142v-142h-142v142z" />
    <glyph glyph-name="Ygrave" unicode="&#x1ef2;" horiz-adv-x="649" 
d="M466 630h183l-242 -391v-239h-165v239l-242 391h189l142 -227zM267 668l-97 142h159l54 -142h-116z" />
    <glyph glyph-name="ygrave" unicode="&#x1ef3;" horiz-adv-x="529" 
d="M116 -160l64 154l-182 452h170l99 -261h4l101 261h159l-256 -606h-159zM207 488l-97 142h159l54 -142h-116z" />
    <glyph glyph-name="endash" unicode="&#x2013;" 
d="M46 308h406v-107h-406v107z" />
    <glyph glyph-name="emdash" unicode="&#x2014;" horiz-adv-x="1000" 
d="M46 308h908v-107h-908v107z" />
    <glyph glyph-name="quoteleft" unicode="&#x2018;" horiz-adv-x="229" 
d="M199 348h-169v140c0 49.333 14 85 42 107s70.333 33.667 127 35v-77c-24 -1.33301 -42.5 -5.83301 -55.5 -13.5s-19.833 -21.5 -20.5 -41.5h76v-150z" />
    <glyph glyph-name="quoteright" unicode="&#x2019;" horiz-adv-x="229" 
d="M30 630h169v-140c0 -49.333 -14 -85 -42 -107s-70.333 -33.667 -127 -35v77c24 1.33301 42.5 5.83301 55.5 13.5s19.833 21.5 20.5 41.5h-76v150z" />
    <glyph glyph-name="quotesinglbase" unicode="&#x201a;" horiz-adv-x="229" 
d="M30 150h169v-140c0 -49.333 -14 -85 -42 -107s-70.333 -33.667 -127 -35v77c24 1.33301 42.5 5.83301 55.5 13.5s19.833 21.5 20.5 41.5h-76v150z" />
    <glyph glyph-name="quotedblleft" unicode="&#x201c;" horiz-adv-x="442" 
d="M199 348h-169v140c0 49.333 14 85 42 107s70.333 33.667 127 35v-77c-24 -1.33301 -42.5 -5.83301 -55.5 -13.5s-19.833 -21.5 -20.5 -41.5h76v-150zM412 348h-168.001v140c0 49.333 14 85 42 107s70 33.667 126 35v-77c-23.333 -1.33301 -41.666 -5.83301 -54.999 -13.5
s-20 -21.5 -20 -41.5h75v-150z" />
    <glyph glyph-name="quotedblright" unicode="&#x201d;" horiz-adv-x="442" 
d="M244 630h168v-140c0 -49.333 -14 -85 -42 -107s-70 -33.667 -126 -35v77c24 1.33301 42.5 5.83301 55.5 13.5s19.833 21.5 20.5 41.5h-76v150zM30 630h169v-140c0 -49.333 -14 -85 -42 -107s-70.333 -33.667 -127 -35v77c24 1.33301 42.5 5.83301 55.5 13.5
s19.833 21.5 20.5 41.5h-76v150z" />
    <glyph glyph-name="quotedblbase" unicode="&#x201e;" horiz-adv-x="442" 
d="M244 150h168v-140c0 -49.333 -14 -85 -42 -107s-70 -33.667 -126 -35v77c24 1.33301 42.5 5.83301 55.5 13.5s19.833 21.5 20.5 41.5h-76v150zM30 150h169v-140c0 -49.333 -14 -85 -42 -107s-70.333 -33.667 -127 -35v77c24 1.33301 42.5 5.83301 55.5 13.5
s19.833 21.5 20.5 41.5h-76v150z" />
    <glyph glyph-name="dagger" unicode="&#x2020;" horiz-adv-x="344" 
d="M30 545h92v85h100v-85h92v-97h-92v-181h-100v181h-92v97z" />
    <glyph glyph-name="daggerdbl" unicode="&#x2021;" horiz-adv-x="354" 
d="M35 419h95v59h-95v87h95v65h94v-65h95v-87h-95v-59h95v-87h-95v-65h-94v65h-95v87z" />
    <glyph glyph-name="bullet" unicode="&#x2022;" horiz-adv-x="400" 
d="M370 259c0 -25.333 -4.5 -48.333 -13.5 -69s-21.167 -38.5 -36.5 -53.5s-33.333 -26.667 -54 -35s-42.667 -12.5 -66 -12.5s-45.333 4.16699 -66 12.5s-38.667 20 -54 35s-27.5 32.833 -36.5 53.5s-13.5 43.667 -13.5 69s4.5 48.333 13.5 69s21.167 38.5 36.5 53.5
s33.333 26.667 54 35s42.667 12.5 66 12.5s45.333 -4.16699 66 -12.5s38.667 -20 54 -35s27.5 -32.833 36.5 -53.5s13.5 -43.667 13.5 -69z" />
    <glyph glyph-name="ellipsis" unicode="&#x2026;" horiz-adv-x="696" 
d="M30 172h172v-172h-172v172zM262 172h172v-172h-172v172zM494 172h172v-172h-172v172z" />
    <glyph glyph-name="perthousand" unicode="&#x2030;" horiz-adv-x="1133" 
d="M129 466c0 -31.333 4.66699 -53.666 14 -66.999s23 -20 41 -20s31.667 6.66699 41 20s14 35.666 14 66.999s-4.66699 53.666 -14 66.999s-23 20 -41 20s-31.667 -6.66699 -41 -20s-14 -35.666 -14 -66.999zM20 466c0 27.333 4.5 52 13.5 74s21 40.5 36 55.5
s32.333 26.5 52 34.5s40.5 12 62.5 12s42.833 -4 62.5 -12s37 -19.5 52 -34.5s27 -33.5 36 -55.5s13.5 -46.667 13.5 -74s-4.5 -52 -13.5 -74s-21 -40.5 -36 -55.5s-32.333 -26.5 -52 -34.5s-40.5 -12 -62.5 -12s-42.833 4 -62.5 12s-37 19.5 -52 34.5s-27 33.5 -36 55.5
s-13.5 46.667 -13.5 74zM666 164c0 31.333 -4.66699 53.666 -14 66.999s-23 20 -41 20s-31.667 -6.66699 -41 -20s-14 -35.666 -14 -66.999s4.66699 -53.666 14 -66.999s23 -20 41 -20s31.667 6.66699 41 20s14 35.666 14 66.999zM775 164c0 -27.333 -4.5 -52 -13.5 -74
s-21 -40.5 -36 -55.5s-32.333 -26.5 -52 -34.5s-40.5 -12 -62.5 -12s-42.833 4 -62.5 12s-37 19.5 -52 34.5s-27 33.5 -36 55.5s-13.5 46.667 -13.5 74s4.5 52 13.5 74s21 40.5 36 55.5s32.333 26.5 52 34.5s40.5 12 62.5 12s42.833 -4 62.5 -12s37 -19.5 52 -34.5
s27 -33.5 36 -55.5s13.5 -46.667 13.5 -74zM1022 164c0 31.333 -4.66699 53.666 -14 66.999s-23 20 -41 20s-31.667 -6.66699 -41 -20s-14 -35.666 -14 -66.999s4.66699 -53.666 14 -66.999s23 -20 41 -20s31.667 6.66699 41 20s14 35.666 14 66.999zM1131 164
c0 -27.333 -4.5 -52 -13.5 -74s-21 -40.5 -36 -55.5s-32.333 -26.5 -52 -34.5s-40.5 -12 -62.5 -12s-42.833 4 -62.5 12s-37 19.5 -52 34.5s-27 33.5 -36 55.5s-13.5 46.667 -13.5 74s4.5 52 13.5 74s21 40.5 36 55.5s32.333 26.5 52 34.5s40.5 12 62.5 12
s42.833 -4 62.5 -12s37 -19.5 52 -34.5s27 -33.5 36 -55.5s13.5 -46.667 13.5 -74zM287 0h-111l332 630h111z" />
    <glyph glyph-name="guilsinglleft" unicode="&#x2039;" horiz-adv-x="253" 
d="M30 298l193 125v-136l-96 -61l96 -61v-136l-193 125v144z" />
    <glyph glyph-name="guilsinglright" unicode="&#x203a;" horiz-adv-x="253" 
d="M223 154l-193 -125v136l96 61l-96 61v136l193 -125v-144z" />
    <glyph glyph-name="fraction" unicode="&#x2044;" horiz-adv-x="501" 
d="M117 0h-109l378 630h109z" />
    <glyph glyph-name="Euro" unicode="&#x20ac;" horiz-adv-x="641" 
d="M15 289l48.002 0.00195312v48h-48v80h58c15.333 71.333 46.833 126.666 94.5 165.999s109.5 59 185.5 59c42 0 79 -7 111 -21s59.167 -33.167 81.5 -57.5s39.5 -52.833 51.5 -85.5s18.667 -68 20 -106l-155 -6c-0.666992 17.333 -3.33398 33.833 -8.00098 49.5
s-11.667 29.5 -21 41.5s-20.666 21.5 -33.999 28.5s-28.666 10.5 -45.999 10.5c-29.333 0 -52.833 -6.83301 -70.5 -20.5s-30.834 -33.167 -39.501 -58.5h137l-10 -80h-140v-48h134l-10 -80h-110c18.667 -50 55 -75 109 -75c35.333 0 62 11.667 80 35s27.667 55 29 95
l155 -7c-0.666992 -38.667 -7.33398 -74.334 -20.001 -107.001s-30.334 -61 -53.001 -85s-50.167 -42.833 -82.5 -56.5s-68.5 -20.5 -108.5 -20.5c-75.333 0 -136.833 19.167 -184.5 57.5s-79.167 92.833 -94.5 163.5h-59v80z" />
    <glyph glyph-name="uni2117" unicode="&#x2117;" horiz-adv-x="724" 
d="M35 315c0 47.333 8.66699 91 26 131s40.666 74.5 69.999 103.5s64 51.667 104 68s82.333 24.5 127 24.5c45.333 0 87.833 -8.16699 127.5 -24.5s74.167 -39 103.5 -68s52.666 -63.5 69.999 -103.5s26 -83.667 26 -131s-8.66699 -91 -26 -131
s-40.666 -74.5 -69.999 -103.5s-63.833 -51.667 -103.5 -68s-82.167 -24.5 -127.5 -24.5c-44.667 0 -87 8.16699 -127 24.5s-74.667 39 -104 68s-52.666 63.5 -69.999 103.5s-26 83.667 -26 131zM85 315c0 -40 7.33301 -77.167 22 -111.5s34.5 -63.833 59.5 -88.5
s54.333 -44 88 -58s69.5 -21 107.5 -21s73.833 7 107.5 21s63 33.333 88 58s44.833 54.167 59.5 88.5s22 71.5 22 111.5s-7.33301 77.167 -22 111.5s-34.5 63.833 -59.5 88.5s-54.333 44 -88 58s-69.5 21 -107.5 21s-73.833 -7 -107.5 -21s-63 -33.333 -88 -58
s-44.833 -54.167 -59.5 -88.5s-22 -71.5 -22 -111.5zM380 327c23.333 0 39.833 3.83301 49.5 11.5s14.5 18.5 14.5 32.5c0 15.333 -4.83301 26.833 -14.5 34.5s-26.167 11.5 -49.5 11.5h-50v-90h50zM330 122l-105 0.000976562v381h167c50 0 88.833 -11.167 116.5 -33.5
s41.5 -54.5 41.5 -96.5c0 -42.667 -13.833 -75.334 -41.5 -98.001s-66.5 -34 -116.5 -34h-62v-119z" />
    <glyph glyph-name="trademark" unicode="&#x2122;" horiz-adv-x="681" 
d="M104 370v185h-84v75h256v-75h-86v-185h-86zM418 370l-37 157h-2v-157h-80v260h119l34 -154h2l32 154h115v-260h-85v157h-2l-37 -157h-59z" />
    <glyph glyph-name="uni2153" unicode="&#x2153;" horiz-adv-x="816" 
d="M15 569c28 0 50 4.83301 66 14.5s27.667 25.167 35 46.5h99v-404h-124v260h-76v83zM659 121c0 12 -4.16504 20.833 -12.498 26.5s-18.833 8.5 -31.5 8.5c-2.66699 0 -6.5 0.166992 -11.5 0.5s-10.167 -0.166992 -15.5 -1.5v87c3.33301 -0.666992 8 -1 14 -1h14
c9.33301 0 17.666 3 24.999 9s11 14.667 11 26c0 23.333 -11.333 35 -34 35c-14.667 0 -25.334 -5.5 -32.001 -16.5s-10 -24.167 -10 -39.5l-119 5c0 20.667 3.66699 40.167 11 58.5s18.166 34.5 32.499 48.5s31.666 25 51.999 33s43.5 12 69.5 12
c48.667 0 86.334 -11.333 113.001 -34s40 -52.334 40 -89.001c0 -24 -7 -43.5 -21 -58.5s-30.333 -23.5 -49 -25.5c27.333 -5.33301 47.666 -16.166 60.999 -32.499s20 -36.833 20 -61.5c0 -39.333 -15 -69 -45 -89s-69 -30 -117 -30c-54 0 -96 13.333 -126 40
s-45 62.667 -45 108l122 -4c0.666992 -15.333 5.33398 -26.333 14.001 -33s20.334 -10 35.001 -10c8.66699 0 16.667 2.33301 24 7s11 11.667 11 21zM227.002 0h-109l378 630h109z" />
    <glyph glyph-name="uni2154" unicode="&#x2154;" horiz-adv-x="927" 
d="M770 121c0 12 -4.16504 20.833 -12.498 26.5s-18.833 8.5 -31.5 8.5c-2.66699 0 -6.5 0.166992 -11.5 0.5s-10.167 -0.166992 -15.5 -1.5v87c3.33301 -0.666992 8 -1 14 -1h14c9.33301 0 17.666 3 24.999 9s11 14.667 11 26c0 23.333 -11.333 35 -34 35
c-14.667 0 -25.334 -5.5 -32.001 -16.5s-10 -24.167 -10 -39.5l-119 5c0 20.667 3.66699 40.167 11 58.5s18.166 34.5 32.499 48.5s31.666 25 51.999 33s43.5 12 69.5 12c48.667 0 86.334 -11.333 113.001 -34s40 -52.334 40 -89.001c0 -24 -7 -43.5 -21 -58.5
s-30.333 -23.5 -49 -25.5c27.333 -5.33301 47.666 -16.166 60.999 -32.499s20 -36.833 20 -61.5c0 -39.333 -15 -69 -45 -89s-69 -30 -117 -30c-54 0 -96 13.333 -126 40s-45 62.667 -45 108l122 -4c0.666992 -15.333 5.33398 -26.333 14.001 -33s20.334 -10 35.001 -10
c8.66699 0 16.667 2.33301 24 7s11 11.667 11 21zM342.002 329l0.00195312 -102.997h-317v92l111 84c15.333 12 27.833 22.167 37.5 30.5s17.167 16 22.5 23s9 13.833 11 20.5s3 14 3 22c0 9.33301 -2.33301 17.333 -7 24s-13.334 10 -26.001 10
c-14 0 -23.333 -4.83301 -28 -14.5s-7 -20.834 -7 -33.501c0 -8.66699 0.333008 -15.334 1 -20.001s1.66699 -9 3 -13l-121 4c-1.33301 6.66699 -2.5 13 -3.5 19s-1.5 12.333 -1.5 19c0 44 14.833 79.167 44.5 105.5s68.5 39.5 116.5 39.5c50 0 89 -12.5 117 -37.5
s42 -56.5 42 -94.5c0 -17.333 -1.83301 -32.333 -5.5 -45s-9.33398 -24.334 -17.001 -35.001s-17.5 -21.167 -29.5 -31.5s-26.333 -21.833 -43 -34.5l-42 -31h139zM338.004 0.00292969h-109l378 630h109z" />
    <glyph glyph-name="uni215B" unicode="&#x215b;" horiz-adv-x="830" 
d="M15 569c28 0 50 4.83301 66 14.5s27.667 25.167 35 46.5h99v-404h-124v260h-76v83zM631 322c-12 0 -21.333 -3.16699 -28 -9.5s-10 -15.166 -10 -26.499c0 -22.667 12.667 -34 38 -34c12 0 21.5 2.83301 28.5 8.5s10.5 14.167 10.5 25.5s-3.5 20.166 -10.5 26.499
s-16.5 9.5 -28.5 9.5zM631 167c-14.667 0 -26.167 -3.5 -34.5 -10.5s-12.5 -17.167 -12.5 -30.5s4.16699 -23.5 12.5 -30.5s19.833 -10.5 34.5 -10.5c14 0 25.167 3.5 33.5 10.5s12.5 17.167 12.5 30.5s-4.16699 23.5 -12.5 30.5s-19.5 10.5 -33.5 10.5zM631 -8
c-55.333 0 -97.6689 10.667 -127.002 32s-44 50.333 -44 87c0 25.333 6.33301 46.666 19 63.999s30.334 29 53.001 35c-20 9.33301 -35.167 20.666 -45.5 33.999s-15.5 31.666 -15.5 54.999c0 35.333 14.667 63 44 83s68 30 116 30c46.667 0 84.667 -10 114 -30
s44 -47.667 44 -83c0 -23.333 -5.16699 -41.666 -15.5 -54.999s-25.166 -24.666 -44.499 -33.999c22 -6 39.333 -17.667 52 -35s19 -38.666 19 -63.999c0 -36.667 -14.667 -65.667 -44 -87s-71 -32 -125 -32zM226.997 0h-109l378 630h109z" />
    <glyph glyph-name="uni215C" unicode="&#x215c;" horiz-adv-x="923" 
d="M724 322c-12 0 -21.333 -3.16699 -28 -9.5s-10 -15.166 -10 -26.499c0 -22.667 12.667 -34 38 -34c12 0 21.5 2.83301 28.5 8.5s10.5 14.167 10.5 25.5s-3.5 20.166 -10.5 26.499s-16.5 9.5 -28.5 9.5zM724 167c-14.667 0 -26.167 -3.5 -34.5 -10.5
s-12.5 -17.167 -12.5 -30.5s4.16699 -23.5 12.5 -30.5s19.833 -10.5 34.5 -10.5c14 0 25.167 3.5 33.5 10.5s12.5 17.167 12.5 30.5s-4.16699 23.5 -12.5 30.5s-19.5 10.5 -33.5 10.5zM724 -8c-55.333 0 -97.6689 10.667 -127.002 32s-44 50.333 -44 87
c0 25.333 6.33301 46.666 19 63.999s30.334 29 53.001 35c-20 9.33301 -35.167 20.666 -45.5 33.999s-15.5 31.666 -15.5 54.999c0 35.333 14.667 63 44 83s68 30 116 30c46.667 0 84.667 -10 114 -30s44 -47.667 44 -83c0 -23.333 -5.16699 -41.666 -15.5 -54.999
s-25.166 -24.666 -44.499 -33.999c22 -6 39.333 -17.667 52 -35s19 -38.666 19 -63.999c0 -36.667 -14.667 -65.667 -44 -87s-71 -32 -125 -32zM225.997 347c0 12 -4.16504 20.833 -12.498 26.5s-18.833 8.5 -31.5 8.5c-2.66699 0 -6.5 0.166992 -11.5 0.5
s-10.167 -0.166992 -15.5 -1.5v87c3.33301 -0.666992 8 -1 14 -1h14c9.33301 0 17.666 3 24.999 9s11 14.667 11 26c0 23.333 -11.333 35 -34 35c-14.667 0 -25.334 -5.5 -32.001 -16.5s-10 -24.167 -10 -39.5l-119 5c0 20.667 3.66699 40.167 11 58.5
s18.166 34.5 32.499 48.5s31.666 25 51.999 33s43.5 12 69.5 12c48.667 0 86.334 -11.333 113.001 -34s40 -52.334 40 -89.001c0 -24 -7 -43.5 -21 -58.5s-30.333 -23.5 -49 -25.5c27.333 -5.33301 47.666 -16.166 60.999 -32.499s20 -36.833 20 -61.5
c0 -39.333 -15 -69 -45 -89s-69 -30 -117 -30c-54 0 -96 13.333 -126 40s-45 62.667 -45 108l122 -4c0.666992 -15.333 5.33398 -26.333 14.001 -33s20.334 -10 35.001 -10c8.66699 0 16.667 2.33301 24 7s11 11.667 11 21zM319.999 0h-109l378 630h109z" />
    <glyph glyph-name="uni215D" unicode="&#x215d;" horiz-adv-x="923" 
d="M724 322c-12 0 -21.333 -3.16699 -28 -9.5s-10 -15.166 -10 -26.499c0 -22.667 12.667 -34 38 -34c12 0 21.5 2.83301 28.5 8.5s10.5 14.167 10.5 25.5s-3.5 20.166 -10.5 26.499s-16.5 9.5 -28.5 9.5zM724 167c-14.667 0 -26.167 -3.5 -34.5 -10.5
s-12.5 -17.167 -12.5 -30.5s4.16699 -23.5 12.5 -30.5s19.833 -10.5 34.5 -10.5c14 0 25.167 3.5 33.5 10.5s12.5 17.167 12.5 30.5s-4.16699 23.5 -12.5 30.5s-19.5 10.5 -33.5 10.5zM724 -8c-55.333 0 -97.6689 10.667 -127.002 32s-44 50.333 -44 87
c0 25.333 6.33301 46.666 19 63.999s30.334 29 53.001 35c-20 9.33301 -35.167 20.666 -45.5 33.999s-15.5 31.666 -15.5 54.999c0 35.333 14.667 63 44 83s68 30 116 30c46.667 0 84.667 -10 114 -30s44 -47.667 44 -83c0 -23.333 -5.16699 -41.666 -15.5 -54.999
s-25.166 -24.666 -44.499 -33.999c22 -6 39.333 -17.667 52 -35s19 -38.666 19 -63.999c0 -36.667 -14.667 -65.667 -44 -87s-71 -32 -125 -32zM315.997 532l-168.002 -0.00292969c-0.666992 -8 -1.5 -15.333 -2.5 -22s-2.16699 -13.667 -3.5 -21
c6.66699 3.33301 14.834 6.33301 24.501 9s22.834 4 39.501 4c47.333 0 82.666 -13.333 105.999 -40s35 -60 35 -100c0 -22.667 -4 -43 -12 -61s-19 -33.167 -33 -45.5s-30.667 -21.666 -50 -27.999s-40.333 -9.5 -63 -9.5c-55.333 0 -96.666 13 -123.999 39
s-40.333 62.667 -39 110l119 -8c0.666992 -13.333 4.83398 -23.333 12.501 -30s18.167 -10 31.5 -10c12.667 0 23.167 3.66699 31.5 11s12.5 18 12.5 32c0 12.667 -3.5 23.834 -10.5 33.501s-18.167 14.5 -33.5 14.5c-10 0 -17.833 -1.5 -23.5 -4.5
s-10.834 -7.5 -15.501 -13.5l-119 9l7.5 50c3 19.333 5.83301 39.5 8.5 60.5s5 41.833 7 62.5s3 39.334 3 56.001h259v-98zM319.995 -0.00292969h-109l378 630h109z" />
    <glyph glyph-name="uni215E" unicode="&#x215e;" horiz-adv-x="843" 
d="M644 322c-12 0 -21.333 -3.16699 -28 -9.5s-10 -15.166 -10 -26.499c0 -22.667 12.667 -34 38 -34c12 0 21.5 2.83301 28.5 8.5s10.5 14.167 10.5 25.5s-3.5 20.166 -10.5 26.499s-16.5 9.5 -28.5 9.5zM644 167c-14.667 0 -26.167 -3.5 -34.5 -10.5
s-12.5 -17.167 -12.5 -30.5s4.16699 -23.5 12.5 -30.5s19.833 -10.5 34.5 -10.5c14 0 25.167 3.5 33.5 10.5s12.5 17.167 12.5 30.5s-4.16699 23.5 -12.5 30.5s-19.5 10.5 -33.5 10.5zM644 -8c-55.333 0 -97.6689 10.667 -127.002 32s-44 50.333 -44 87
c0 25.333 6.33301 46.666 19 63.999s30.334 29 53.001 35c-20 9.33301 -35.167 20.666 -45.5 33.999s-15.5 31.666 -15.5 54.999c0 35.333 14.667 63 44 83s68 30 116 30c46.667 0 84.667 -10 114 -30s44 -47.667 44 -83c0 -23.333 -5.16699 -41.666 -15.5 -54.999
s-25.166 -24.666 -44.499 -33.999c22 -6 39.333 -17.667 52 -35s19 -38.666 19 -63.999c0 -36.667 -14.667 -65.667 -44 -87s-71 -32 -125 -32zM9.99707 519v111.002h315v-101c-26.667 -26 -47 -50.667 -61 -74s-24 -46.833 -30 -70.5s-9.33301 -48.334 -10 -74.001
s-1 -53.834 -1 -84.501h-137c0.666992 32 2.66699 61 6 87s9 50.5 17 73.5s18.667 45.167 32 66.5s30 43.333 50 66h-181zM239.997 0.00195312h-109l378 630h109z" />
    <glyph glyph-name="minus" unicode="&#x2212;" horiz-adv-x="612" 
d="M42 378h528v-135h-528v135z" />
    <glyph glyph-name="approxequal" unicode="&#x2248;" horiz-adv-x="634" 
d="M53 451c26 16.667 50.833 28.668 74.5 36.001s46.167 11 67.5 11c22.667 0 43.667 -2.33301 63 -7s38.5 -10 57.5 -16s38.167 -11.333 57.5 -16s40.333 -7 63 -7c21.333 0 44.166 3.66699 68.499 11s49.833 19.666 76.5 36.999v-124
c-26.667 -17.333 -52.167 -29.5 -76.5 -36.5s-47.166 -10.5 -68.499 -10.5c-22.667 0 -43.667 2.33301 -63 7s-38.5 10 -57.5 16s-38.167 11.333 -57.5 16s-40.333 7 -63 7c-21.333 0 -43.833 -3.66699 -67.5 -11s-48.5 -19.333 -74.5 -36v123zM53 250.001
c26 17.333 50.833 29.668 74.5 37.001s46.167 11 67.5 11c22.667 0 43.667 -2.5 63 -7.5s38.5 -10.333 57.5 -16s38.167 -11 57.5 -16s40.333 -7.5 63 -7.5c21.333 0 44.166 3.66699 68.499 11s49.833 19.666 76.5 36.999v-124c-26.667 -17.333 -52.167 -29.5 -76.5 -36.5
s-47.166 -10.5 -68.499 -10.5c-22.667 0 -43.667 2.33301 -63 7s-38.5 10 -57.5 16s-38.167 11.333 -57.5 16s-40.333 7 -63 7c-21.333 0 -43.833 -3.66699 -67.5 -11s-48.5 -19.333 -74.5 -36v123z" />
    <glyph glyph-name="notequal" unicode="&#x2260;" horiz-adv-x="634" 
d="M53 480h314l73 115h111l-73 -115h103v-118h-177l-62 -98h239v-118h-314l-72 -115h-112l73 115h-103v118h177l62 98h-239v118z" />
    <glyph glyph-name="lessequal" unicode="&#x2264;" horiz-adv-x="484" 
d="M41 150h402v-134h-402v134zM41 482l402 133v-148l-268 -74l268 -75v-147l-402 132v179z" />
    <glyph glyph-name="greaterequal" unicode="&#x2265;" horiz-adv-x="484" 
d="M443 16h-402v134h402v-134zM443 303l-402 -132v147l267 75l-267 74v148l402 -133v-179z" />
    <glyph glyph-name="Euro.lt" horiz-adv-x="600" 
d="M15 289l42 0.00292969v26c0 3.33301 -0.166992 6.83301 -0.5 10.5s-0.166016 7.5 0.500977 11.5h-42v80h51c14 71.333 43.667 126.666 89 165.999s106 59 182 59c42 0 78.5 -7 109.5 -21s57 -33.167 78 -57.5s37 -52.833 48 -85.5s17.167 -68 18.5 -106l-155 -6
c-0.666992 17.333 -2.83398 33.833 -6.50098 49.5s-9.5 29.5 -17.5 41.5s-18.167 21.5 -30.5 28.5s-27.166 10.5 -44.499 10.5c-29.333 0 -52 -6.83301 -68 -20.5s-27.667 -33.167 -35 -58.5h130l-10 -80h-130v-22v-26h124l-10 -80h-103
c7.33301 -24.667 19.166 -43.334 35.499 -56.001s38.5 -19 66.5 -19c35.333 0 60.333 11.667 75 35s22.667 55 24 95l155 -7c-0.666992 -38.667 -6.66699 -74.334 -18 -107.001s-27.833 -61 -49.5 -85s-48.167 -42.833 -79.5 -56.5s-67 -20.5 -107 -20.5
c-75.333 0 -135.5 19.167 -180.5 57.5s-74.833 92.833 -89.5 163.5h-52v80z" />
    <glyph glyph-name="acute.cap" 
d="M143 668l54 142h159l-97 -142h-116z" />
    <glyph glyph-name="approxequal.lt" horiz-adv-x="600" 
d="M36 451c26 16.667 50.833 28.668 74.5 36.001s46.167 11 67.5 11c22.667 0 43.667 -2.33301 63 -7s38.5 -10 57.5 -16s38.167 -11.333 57.5 -16s40.333 -7 63 -7c21.333 0 44.166 3.66699 68.499 11s49.833 19.666 76.5 36.999v-124
c-26.667 -17.333 -52.167 -29.5 -76.5 -36.5s-47.166 -10.5 -68.499 -10.5c-22.667 0 -43.667 2.33301 -63 7s-38.5 10 -57.5 16s-38.167 11.333 -57.5 16s-40.333 7 -63 7c-21.333 0 -43.833 -3.66699 -67.5 -11s-48.5 -19.333 -74.5 -36v123zM36 250.001
c26 17.333 50.833 29.668 74.5 37.001s46.167 11 67.5 11c22.667 0 43.667 -2.5 63 -7.5s38.5 -10.333 57.5 -16s38.167 -11 57.5 -16s40.333 -7.5 63 -7.5c21.333 0 44.166 3.66699 68.499 11s49.833 19.666 76.5 36.999v-124c-26.667 -17.333 -52.167 -29.5 -76.5 -36.5
s-47.166 -10.5 -68.499 -10.5c-22.667 0 -43.667 2.33301 -63 7s-38.5 10 -57.5 16s-38.167 11.333 -57.5 16s-40.333 7 -63 7c-21.333 0 -43.833 -3.66699 -67.5 -11s-48.5 -19.333 -74.5 -36v123z" />
    </font>
</defs>
</svg>
