<?xml version="1.0" standalone="no"?>
<!DOCTYPE svg PUBLIC "-//W3C//DTD SVG 1.1//EN" "http://www.w3.org/Graphics/SVG/1.1/DTD/svg11.dtd" >
<svg>
<metadata>
Created by FontForge 20090914 at Sun Feb  3 12:46:47 2019
 By www-data
&#194;&#169; 2010 Klim Type Foundry. All rights reserved.
</metadata>
<defs>
<font id="FoundersGrotesk-Regular" horiz-adv-x="500" >
  <font-face 
    font-family="Founders Grotesk Regular"
    font-weight="400"
    font-stretch="normal"
    units-per-em="1000"
    panose-1="2 11 5 3 3 2 2 6 2 3"
    ascent="630"
    descent="-370"
    x-height="437"
    cap-height="630"
    bbox="-73.998 -193 1105 931"
    underline-thickness="40"
    underline-position="-30"
    unicode-range="U+000D-U+FB04"
  />
<missing-glyph horiz-adv-x="608" 
 />
    <glyph glyph-name="ff" unicode="ff" horiz-adv-x="549" 
d="M156 377l-0.000976562 -377h-82v377h-67v60h67v47c0 46 12.833 82.167 38.5 108.5s59.5 39.5 101.5 39.5c25.333 0 46.333 -3.33301 63 -10s31 -14 43 -22l-22 -55c-10.667 7.33301 -22 13.333 -34 18s-25 7 -39 7c-23.333 0 -40.666 -7.5 -51.999 -22.5
s-17 -35.833 -17 -62.5v-48h182v49c0 46.667 12.667 84.334 38 113.001s61 43 107 43c38 0 67.833 -8.33301 89.5 -25s37.5 -41.667 47.5 -75l-57 -20c-5.33301 17.333 -14.333 31.666 -27 42.999s-29 17 -49 17c-23.333 0 -40.333 -7.66699 -51 -23s-16 -36 -16 -62v-60
h123v-60h-123v-377h-82v377h-182z" />
    <glyph glyph-name="fi" unicode="fi" horiz-adv-x="477" 
d="M7 377l-0.000976562 60.002h67v31c0 53.333 14.667 95.666 44 126.999s71 47 125 47c44 0 78.333 -8.83301 103 -26.5s43.334 -44.5 56.001 -80.5l-67 -23c-6 19.333 -16.333 35.166 -31 47.499s-34 18.5 -58 18.5c-28 0 -50 -8.5 -66 -25.5s-24 -42.5 -24 -76.5v-39h265
v-437h-83v377h-182v-377h-82v377h-67z" />
    <glyph glyph-name="fl" unicode="fl" horiz-adv-x="477" 
d="M282 560c-8.66699 6 -17.668 10.666 -27.001 13.999s-19.666 5 -30.999 5c-23.333 0 -40.5 -7.66699 -51.5 -23s-16.5 -36 -16.5 -62v-57h117v-60h-117v-377h-82v377h-67v60h67v55c0 46.667 12 83.334 36 110.001s58 40 102 40c18 0 34.5 -2.33301 49.5 -7
s28.167 -10.667 39.5 -18zM420.999 629.999v-630h-83v630h83z" />
    <glyph glyph-name="ffi" unicode="ffi" horiz-adv-x="741" 
d="M156 377l-0.000976562 -376.998h-82v377h-67v60h67v47c0 46 12.833 82.167 38.5 108.5s59.5 39.5 101.5 39.5c25.333 0 46.333 -3.33301 63 -10s31 -14 43 -22l-22 -55c-10.667 7.33301 -22 13.333 -34 18s-25 7 -39 7c-23.333 0 -40.666 -7.5 -51.999 -22.5
s-17 -35.833 -17 -62.5v-48h182v31c0 53.333 14.667 95.666 44 126.999s71 47 125 47c44 0 78.333 -8.83301 103 -26.5s43.334 -44.5 56.001 -80.5l-66 -23c-6.66699 19.333 -17.334 35.166 -32.001 47.499s-34 18.5 -58 18.5c-28 0 -50 -8.5 -66 -25.5s-24 -42.5 -24 -76.5
v-39h265v-437h-83v377h-182v-377h-82v377h-182z" />
    <glyph glyph-name="ffl" unicode="ffl" horiz-adv-x="741" 
d="M156 377l-0.000976562 -377.001h-82v377h-67v60h67v47c0 46 12.833 82.167 38.5 108.5s59.5 39.5 101.5 39.5c25.333 0 46.333 -3.33301 63 -10s31 -14 43 -22l-22 -55c-10.667 7.33301 -22 13.333 -34 18s-25 7 -39 7c-23.333 0 -40.666 -7.5 -51.999 -22.5
s-17 -35.833 -17 -62.5v-48h182v55c0 46.667 12.167 83.334 36.5 110.001s58.166 40 101.499 40c18 0 34.5 -2.33301 49.5 -7s28.167 -10.667 39.5 -18l-19 -57c-8.66699 6 -17.667 10.667 -27 14s-19.666 5 -30.999 5c-23.333 0 -40.5 -7.66699 -51.5 -23
s-16.5 -36 -16.5 -62v-57h117v-60h-117v-377h-82v377h-182zM684.999 629.999v-630h-83v630h83z" />
    <glyph glyph-name="f_b" unicode="fb" horiz-adv-x="807" 
d="M419 206c0 -24 3.66699 -45.333 11 -64s17.166 -34.5 29.499 -47.5s27 -23 44 -30s35.5 -10.5 55.5 -10.5c43.333 0 76.5 14.833 99.5 44.5s34.5 69.5 34.5 119.5s-11.5 89.833 -34.5 119.5s-56.167 44.5 -99.5 44.5c-20 0 -38.5 -3.33301 -55.5 -10
s-31.667 -16.5 -44 -29.5s-22.166 -28.833 -29.499 -47.5s-11 -40 -11 -64v-25zM401 0l-62.999 -0.00195312v630h83v-285c4.66699 13.333 11.667 26.333 21 39s20.666 23.834 33.999 33.501s28.5 17.334 45.5 23.001s35.833 8.5 56.5 8.5c32 0 60.5 -6 85.5 -18
s46 -28.333 63 -49s29.833 -45.167 38.5 -73.5s13 -58.5 13 -90.5s-4.33301 -62 -13 -90s-21.5 -52.333 -38.5 -73s-38 -37 -63 -49s-53.833 -18 -86.5 -18c-40.667 0 -74.667 10.167 -102 30.5s-46 44.5 -56 72.5zM282.001 559.998
c-8.66699 6 -17.668 10.666 -27.001 13.999s-19.666 5 -30.999 5c-23.333 0 -40.5 -7.66699 -51.5 -23s-16.5 -36 -16.5 -62v-57h117v-60h-117v-377h-82v377h-67v60h67v55c0 46.667 12 83.334 36 110.001s58 40 102 40c18 0 34.5 -2.33301 49.5 -7s28.167 -10.667 39.5 -18z
" />
    <glyph glyph-name="f_f_b" unicode="ffb" horiz-adv-x="1071" 
d="M683 206c0 -24 3.66699 -45.333 11 -64s17.166 -34.5 29.499 -47.5s27 -23 44 -30s35.5 -10.5 55.5 -10.5c43.333 0 76.5 14.833 99.5 44.5s34.5 69.5 34.5 119.5s-11.5 89.833 -34.5 119.5s-56.167 44.5 -99.5 44.5c-20 0 -38.5 -3.33301 -55.5 -10
s-31.667 -16.5 -44 -29.5s-22.166 -28.833 -29.499 -47.5s-11 -40 -11 -64v-25zM665 0l-63 -0.00195312v630h83v-285c5.33301 13.333 12.5 26.333 21.5 39s20.167 23.834 33.5 33.501s28.5 17.334 45.5 23.001s35.833 8.5 56.5 8.5c32 0 60.5 -6 85.5 -18s46 -28.333 63 -49
s29.833 -45.167 38.5 -73.5s13 -58.5 13 -90.5s-4.33301 -62 -13 -90s-21.5 -52.333 -38.5 -73s-38 -37 -63 -49s-53.833 -18 -86.5 -18c-40.667 0 -74.667 10.167 -102 30.5s-46 44.5 -56 72.5zM156 376.998l-0.000976562 -377.001h-82v377h-67v60h67v47
c0 46 12.833 82.167 38.5 108.5s59.5 39.5 101.5 39.5c25.333 0 46.333 -3.33301 63 -10s31 -14 43 -22l-22 -55c-10.667 7.33301 -22 13.333 -34 18s-25 7 -39 7c-23.333 0 -40.666 -7.5 -51.999 -22.5s-17 -35.833 -17 -62.5v-48h182v55
c0 46.667 12.167 83.334 36.5 110.001s58.166 40 101.499 40c18 0 34.5 -2.33301 49.5 -7s28.167 -10.667 39.5 -18l-19 -57c-8.66699 6 -17.667 10.667 -27 14s-19.666 5 -30.999 5c-23.333 0 -40.5 -7.66699 -51.5 -23s-16.5 -36 -16.5 -62v-57h117v-60h-117v-377h-82v377
h-182z" />
    <glyph glyph-name="f_f_h" unicode="ffh" horiz-adv-x="1041" 
d="M685 0l-82.999 -0.000976562v630h83v-271c11.333 26.667 30.166 48.334 56.499 65.001s55.833 25 88.5 25c28.667 0 53.167 -4.5 73.5 -13.5s36.833 -21.5 49.5 -37.5s22 -34.833 28 -56.5s9 -45.167 9 -70.5v-271h-83v264c0 36.667 -8.66699 65.667 -26 87
s-43.333 32 -78 32c-33.333 0 -61.333 -12 -84 -36s-34 -56 -34 -96v-251zM156.001 376.999l-0.000976562 -377.001h-82v377h-67v60h67v47c0 46 12.833 82.167 38.5 108.5s59.5 39.5 101.5 39.5c25.333 0 46.333 -3.33301 63 -10s31 -14 43 -22l-22 -55
c-10.667 7.33301 -22 13.333 -34 18s-25 7 -39 7c-23.333 0 -40.666 -7.5 -51.999 -22.5s-17 -35.833 -17 -62.5v-48h182v55c0 46.667 12.167 83.334 36.5 110.001s58.166 40 101.499 40c18 0 34.5 -2.33301 49.5 -7s28.167 -10.667 39.5 -18l-19 -57
c-8.66699 6 -17.667 10.667 -27 14s-19.666 5 -30.999 5c-23.333 0 -40.5 -7.66699 -51.5 -23s-16.5 -36 -16.5 -62v-57h117v-60h-117v-377h-82v377h-182z" />
    <glyph glyph-name="f_f_idieresis" unicode="ff&#xef;" horiz-adv-x="741" 
d="M156 377l-0.00292969 -377h-82v377h-67v60h67v47c0 46 12.833 82.167 38.5 108.5s59.5 39.5 101.5 39.5c25.333 0 46.333 -3.33301 63 -10s31 -14 43 -22l-22 -55c-10.667 7.33301 -22 13.333 -34 18s-25 7 -39 7c-23.333 0 -40.666 -7.5 -51.999 -22.5
s-17 -35.833 -17 -62.5v-48h182v50c0 46 13 83.333 39 112s62.333 43 109 43c38.667 0 69 -8.66699 91 -26s37.667 -42 47 -74l-65 -23c-5.33301 17.333 -13.666 31.833 -24.999 43.5s-26.666 17.5 -45.999 17.5c-22.667 0 -39.667 -7.33301 -51 -22s-17 -35 -17 -61v-60
h265v-437h-83v377h-182v-377h-82v377h-182zM670.997 622h82v-94h-82v94z" />
    <glyph glyph-name="f_f_j" unicode="ffj" horiz-adv-x="741" 
d="M602 377l-182.001 0.00292969v-377h-82v377h-182v-377h-82v377h-67v60h67v47c0 46 12.833 82.167 38.5 108.5s59.5 39.5 101.5 39.5c25.333 0 46.333 -3.33301 63 -10s31 -14 43 -22l-22 -55c-10.667 7.33301 -22 13.333 -34 18s-25 7 -39 7
c-23.333 0 -40.666 -7.5 -51.999 -22.5s-17 -35.833 -17 -62.5v-48h182v31c0 53.333 14.667 95.666 44 126.999s71 47 125 47c44 0 78.333 -8.83301 103 -26.5s43.334 -44.5 56.001 -80.5l-66 -23c-6.66699 19.333 -17.334 35.166 -32.001 47.499s-34 18.5 -58 18.5
c-28 0 -50 -8.5 -66 -25.5s-24 -42.5 -24 -76.5v-39h265v-497c0 -38.667 -9.66699 -68.334 -29 -89.001s-48.333 -31 -87 -31c-19.333 0 -37.666 3 -54.999 9s-31.666 13.667 -42.999 23l21 53c11.333 -7.33301 22.166 -12.833 32.499 -16.5s22.166 -5.5 35.499 -5.5
c28 0 42 17 42 51v443z" />
    <glyph glyph-name="f_f_k" unicode="ffk" horiz-adv-x="1024" 
d="M685 0h-83v630h83v-391l220 198h104l-201 -179l210 -258h-97l-174 212l-62 -54v-158zM156 377l-0.000976562 -377.001h-82v377h-67v60h67v47c0 46 12.833 82.167 38.5 108.5s59.5 39.5 101.5 39.5c25.333 0 46.333 -3.33301 63 -10s31 -14 43 -22l-22 -55
c-10.667 7.33301 -22 13.333 -34 18s-25 7 -39 7c-23.333 0 -40.666 -7.5 -51.999 -22.5s-17 -35.833 -17 -62.5v-48h182v55c0 46.667 12.167 83.334 36.5 110.001s58.166 40 101.499 40c18 0 34.5 -2.33301 49.5 -7s28.167 -10.667 39.5 -18l-19 -57
c-8.66699 6 -17.667 10.667 -27 14s-19.666 5 -30.999 5c-23.333 0 -40.5 -7.66699 -51.5 -23s-16.5 -36 -16.5 -62v-57h117v-60h-117v-377h-82v377h-182z" />
    <glyph glyph-name="f_h" unicode="fh" horiz-adv-x="777" 
d="M421 0l-83.002 -0.000976562v630h83v-271c10.667 26.667 29.334 48.334 56.001 65.001s56.334 25 89.001 25c28.667 0 53.167 -4.5 73.5 -13.5s36.833 -21.5 49.5 -37.5s22 -34.833 28 -56.5s9 -45.167 9 -70.5v-271h-83v264c0 36.667 -8.66699 65.667 -26 87
s-43.333 32 -78 32c-33.333 0 -61.333 -12 -84 -36s-34 -56 -34 -96v-251zM281.998 559.999c-8.66699 6 -17.668 10.666 -27.001 13.999s-19.666 5 -30.999 5c-23.333 0 -40.5 -7.66699 -51.5 -23s-16.5 -36 -16.5 -62v-57h117v-60h-117v-377h-82v377h-67v60h67v55
c0 46.667 12 83.334 36 110.001s58 40 102 40c18 0 34.5 -2.33301 49.5 -7s28.167 -10.667 39.5 -18z" />
    <glyph glyph-name="f_idieresis" unicode="f&#xef;" horiz-adv-x="477" 
d="M7 377l-0.00195312 60h67v50c0 46 13 83.333 39 112s62.333 43 109 43c38.667 0 69 -8.66699 91 -26s37.667 -42 47 -74l-65 -23c-5.33301 17.333 -13.666 31.833 -24.999 43.5s-26.666 17.5 -45.999 17.5c-22.667 0 -39.667 -7.33301 -51 -22s-17 -35 -17 -61v-60h265
v-437h-83v377h-182v-377h-82v377h-67zM406.998 622h82v-94h-82v94z" />
    <glyph glyph-name="f_j" unicode="fj" horiz-adv-x="477" 
d="M338 377l-182.003 0.00292969v-377h-82v377h-67v60h67v31c0 53.333 14.667 95.666 44 126.999s71 47 125 47c44 0 78.333 -8.83301 103 -26.5s43.334 -44.5 56.001 -80.5l-67 -23c-6 19.333 -16.333 35.166 -31 47.499s-34 18.5 -58 18.5c-28 0 -50 -8.5 -66 -25.5
s-24 -42.5 -24 -76.5v-39h265v-497c0 -38.667 -9.66699 -68.334 -29 -89.001s-48.333 -31 -87 -31c-19.333 0 -37.666 3 -54.999 9s-31.666 13.667 -42.999 23l20 53c11.333 -7.33301 22.333 -12.833 33 -16.5s22.667 -5.5 36 -5.5c28 0 42 17 42 51v443z" />
    <glyph glyph-name="f_k" unicode="fk" horiz-adv-x="760" 
d="M421 0h-83v630h83v-391l220 198h104l-201 -179l210 -258h-97l-175 212l-61 -54v-158zM282 560c-8.66699 6 -17.668 10.666 -27.001 13.999s-19.666 5 -30.999 5c-23.333 0 -40.5 -7.66699 -51.5 -23s-16.5 -36 -16.5 -62v-57h117v-60h-117v-377h-82v377h-67v60h67v55
c0 46.667 12 83.334 36 110.001s58 40 102 40c18 0 34.5 -2.33301 49.5 -7s28.167 -10.667 39.5 -18z" />
    <glyph glyph-name=".notdef" horiz-adv-x="608" 
 />
    <glyph glyph-name=".null" horiz-adv-x="0" 
 />
    <glyph glyph-name=".null" horiz-adv-x="0" 
 />
    <glyph glyph-name="nonmarkingreturn" unicode="&#xd;" horiz-adv-x="250" 
 />
    <glyph glyph-name="space" unicode=" " horiz-adv-x="180" 
 />
    <glyph glyph-name="exclam" unicode="!" horiz-adv-x="191" 
d="M46 100h100v-100h-100v100zM140 630v-176l-24 -289h-40l-25 289v176h89z" />
    <glyph glyph-name="quotedbl" unicode="&#x22;" horiz-adv-x="289" 
d="M46 630h71v-223h-71v223zM172 630h71v-223h-71v223z" />
    <glyph glyph-name="numbersign" unicode="#" horiz-adv-x="608" 
d="M535 167h-121l-40 -167h-71l40 167h-148l-40 -167h-70l40 167h-105l11 58h108l42 180h-119l11 59h122l40 166h70l-40 -166h148l40 166h71l-40 -166h104l-11 -59h-107l-42 -180h118zM209 225h148l42 180h-148z" />
    <glyph glyph-name="dollar" unicode="$" horiz-adv-x="554" 
d="M99 230c2 -50.667 16.8311 -90.498 44.498 -119.498s62.834 -46.833 105.501 -53.5v224l-53 11c-46 8.66699 -83.5 26.5 -112.5 53.5s-43.5 65.167 -43.5 114.5c0 54 18.5 97.333 55.5 130s88.167 50 153.5 52v87h56v-90c64 -7.33301 113.5 -30.333 148.5 -69
s52.833 -90 53.5 -154l-77 -4c-1.33301 44 -13 79.667 -35 107s-52 44.666 -90 51.999v-221l43 -8c57.333 -11.333 100.333 -30 129 -56s43 -64.333 43 -115c0 -28 -5.33301 -52.833 -16 -74.5s-25.5 -40.334 -44.5 -56.001s-41.667 -27.834 -68 -36.501
s-55.166 -13.667 -86.499 -15v-91h-56v92c-33.333 3.33301 -63.833 10.833 -91.5 22.5s-51.5 27.5 -71.5 47.5s-35.667 43.833 -47 71.5s-17 58.834 -17 93.501zM304.998 271.002v-217c40 2.66699 72.167 13.667 96.5 33s36.5 45.333 36.5 78
c0 29.333 -9.5 51.833 -28.5 67.5s-48.833 27.5 -89.5 35.5zM120.998 465.002c0 -32 10.167 -55 30.5 -69s48.5 -24.667 84.5 -32l13 -3v215c-42 -1.33301 -73.833 -11.5 -95.5 -30.5s-32.5 -45.833 -32.5 -80.5z" />
    <glyph glyph-name="percent" unicode="%" horiz-adv-x="732" 
d="M99 476c0 -40 6.83301 -68.5 20.5 -85.5s32.167 -25.5 55.5 -25.5s42 8.5 56 25.5s21 45.5 21 85.5s-7 68.5 -21 85.5s-32.667 25.5 -56 25.5s-41.833 -8.5 -55.5 -25.5s-20.5 -45.5 -20.5 -85.5zM28 476c0 26 3.83301 49.333 11.5 70s18.167 38 31.5 52
s28.833 24.833 46.5 32.5s36.834 11.5 57.501 11.5s40 -3.83301 58 -11.5s33.667 -18.5 47 -32.5s23.833 -31.333 31.5 -52s11.5 -44 11.5 -70s-3.83301 -49.333 -11.5 -70s-18.167 -38 -31.5 -52s-29 -24.833 -47 -32.5s-37.333 -11.5 -58 -11.5
s-39.834 3.83301 -57.501 11.5s-33.167 18.5 -46.5 32.5s-23.833 31.333 -31.5 52s-11.5 44 -11.5 70zM633 154c0 40 -6.83301 68.5 -20.5 85.5s-32.167 25.5 -55.5 25.5s-41.833 -8.5 -55.5 -25.5s-20.5 -45.5 -20.5 -85.5s6.83301 -68.5 20.5 -85.5
s32.167 -25.5 55.5 -25.5s41.833 8.5 55.5 25.5s20.5 45.5 20.5 85.5zM239 0h-68l323 630h67zM705 154c0 -26 -3.83301 -49.333 -11.5 -70s-18.167 -38 -31.5 -52s-29 -24.833 -47 -32.5s-37.333 -11.5 -58 -11.5s-40 3.83301 -58 11.5s-33.667 18.5 -47 32.5
s-23.833 31.333 -31.5 52s-11.5 44 -11.5 70s3.83301 49.333 11.5 70s18.167 38 31.5 52s29 24.833 47 32.5s37.333 11.5 58 11.5s40 -3.83301 58 -11.5s33.667 -18.5 47 -32.5s23.833 -31.333 31.5 -52s11.5 -44 11.5 -70z" />
    <glyph glyph-name="ampersand" unicode="&#x26;" horiz-adv-x="622" 
d="M575 315c-9.33301 -38 -22.498 -74.5059 -39.498 -109.506s-37.167 -66.833 -60.5 -95.5c15.333 -16.667 30.166 -29.667 44.499 -39s31.5 -14 51.5 -14c7.33301 0 15 0.333008 23 1s16.667 2.33398 26 5.00098v-54c-18.667 -11.333 -41.334 -17 -68.001 -17
c-22.667 0 -43.667 4.83301 -63 14.5s-41.666 26.834 -66.999 51.501c-26.667 -22 -55.834 -39.167 -87.501 -51.5s-65.834 -18.5 -102.501 -18.5c-28.667 0 -55.5 3.83301 -80.5 11.5s-46.667 19 -65 34s-32.833 33.167 -43.5 54.5s-16 45.666 -16 72.999
c0 42.667 12.167 77.834 36.5 105.501s57.5 52.834 99.5 75.501c-19.333 22.667 -35.166 45.334 -47.499 68.001s-18.5 48.334 -18.5 77.001c0 23.333 4.16699 44.5 12.5 63.5s20 35.167 35 48.5s32.667 23.833 53 31.5s42.833 11.5 67.5 11.5
c50.667 0 89.334 -13.167 116.001 -39.5s40 -59.833 40 -100.5c0 -40 -12.333 -72.667 -37 -98s-60.334 -49.666 -107.001 -72.999l154 -171c34.667 45.333 58.667 98.333 72 159zM234.002 54.9941c27.333 0 52.833 4.49805 76.5 13.498s45.834 21.167 66.501 36.5l-2 3
l-170 187c-30 -15.333 -53.167 -32.666 -69.5 -51.999s-24.5 -46 -24.5 -80c0 -33.333 11.667 -59.666 35 -78.999s52.666 -29 87.999 -29zM176.002 487.992c0 -21.333 6.00098 -40.832 18.001 -58.499s26 -35.167 42 -52.5c41.333 19.333 70.166 37.666 86.499 54.999
s24.5 40 24.5 68c0 20.667 -6.66699 39.167 -20 55.5s-34 24.5 -62 24.5c-24.667 0 -45.667 -7.66699 -63 -23s-26 -38.333 -26 -69z" />
    <glyph glyph-name="quotesingle" unicode="'" horiz-adv-x="165" 
d="M46 630h73v-223h-73v223z" />
    <glyph glyph-name="parenleft" unicode="(" horiz-adv-x="289" 
d="M41 288c0 68.667 12 135.667 36 201s58.333 122.333 103 171h83c-52 -59.333 -87.5 -120.333 -106.5 -183s-28.5 -125.667 -28.5 -189s9.5 -126.333 28.5 -189s54.5 -123.667 106.5 -183h-83c-44.667 48.667 -79 105.667 -103 171s-36 132.333 -36 201z" />
    <glyph glyph-name="parenright" unicode=")" horiz-adv-x="289" 
d="M248 288c0 -68.667 -12 -135.667 -36 -201s-58.333 -122.333 -103 -171h-83c52 59.333 87.5 120.333 106.5 183s28.5 125.667 28.5 189s-9.5 126.333 -28.5 189s-54.5 123.667 -106.5 183h83c44.667 -48.667 79 -105.667 103 -171s36 -132.333 36 -201z" />
    <glyph glyph-name="asterisk" unicode="*" horiz-adv-x="358" 
d="M33 553l117 -41v127h58v-126l119 41l18 -55l-120 -38l75 -101l-47 -34l-73 100l-73 -102l-46 36l73 99l-120 39z" />
    <glyph glyph-name="plus" unicode="+" horiz-adv-x="618" 
d="M344 568v-221h221v-70h-221v-221h-70v221h-220v70h220v221h70z" />
    <glyph glyph-name="comma" unicode="," horiz-adv-x="176" 
d="M38 100l100 -0.000976562v-98c0 -35.333 -6.66699 -62.666 -20 -81.999s-40 -29.333 -80 -30v49c18.667 1.33301 31.167 6.33301 37.5 15s9.5 24 9.5 46h-47v100z" />
    <glyph glyph-name="hyphen" unicode="-" horiz-adv-x="344" 
d="M57 292h230v-74h-230v74z" />
    <glyph glyph-name="period" unicode="." horiz-adv-x="176" 
d="M38 100h100v-100h-100v100z" />
    <glyph glyph-name="slash" unicode="/" horiz-adv-x="317" 
d="M236 659h78l-255 -742h-79z" />
    <glyph glyph-name="zero" unicode="0" horiz-adv-x="588" 
d="M556 315c0 -105.333 -22.833 -186.166 -68.5 -242.499s-110.167 -84.5 -193.5 -84.5s-147.666 28.167 -192.999 84.5s-68 137.166 -68 242.499s22.667 186.166 68 242.499s109.666 84.5 192.999 84.5s147.833 -28.167 193.5 -84.5s68.5 -137.166 68.5 -242.499zM465 315
c0 86 -13.833 150.333 -41.5 193s-70.834 64 -129.501 64s-101.834 -21.333 -129.501 -64s-41.5 -107 -41.5 -193s13.833 -150.333 41.5 -193s70.834 -64 129.501 -64s101.834 21.333 129.501 64s41.5 107 41.5 193z" />
    <glyph glyph-name="one" unicode="1" horiz-adv-x="289" 
d="M10 538c44 0 76.833 7.83203 98.5 23.499s38.167 39.834 49.5 72.501h57v-634h-87v482h-118v56z" />
    <glyph glyph-name="two" unicode="2" horiz-adv-x="505" 
d="M489 75l0.00195312 -74.998h-463v50l178 153l68.5 61c21 19.333 39.333 38.5 55 57.5s27.834 38.667 36.501 59s13 41.833 13 64.5c0 37.333 -10.333 67.666 -31 90.999s-52 35 -94 35c-43.333 0 -76.5 -13 -99.5 -39s-34.5 -62 -34.5 -108c0 -20 2.33301 -39 7 -57
l-86 4c-2 10 -3.66699 20 -5 30s-2 19.667 -2 29c0 32 5.16699 61.167 15.5 87.5s25.166 48.666 44.499 66.999s42.666 32.5 69.999 42.5s57.666 15 90.999 15c36.667 0 68.5 -5 95.5 -15s49.167 -23.833 66.5 -41.5s30.333 -38.167 39 -61.5s13 -48.333 13 -75
c0 -28.667 -5.5 -55.667 -16.5 -81s-25.5 -49.333 -43.5 -72s-38.167 -44.167 -60.5 -64.5s-44.833 -39.833 -67.5 -58.5l-119 -98h329z" />
    <glyph glyph-name="three" unicode="3" horiz-adv-x="516" 
d="M404 173c0 36 -13.165 63.498 -39.498 82.498s-59.5 28.5 -99.5 28.5c-24.667 0 -44.667 -1 -60 -3v71c7.33301 -1.33301 15.666 -2.16602 24.999 -2.49902s21 -0.5 35 -0.5c16.667 0 32.667 1.83301 48 5.5s28.833 9.66699 40.5 18s21 19.5 28 33.5s10.5 31 10.5 51
c0 34 -10.833 61.667 -32.5 83s-54.5 32 -98.5 32c-44.667 0 -79.834 -13.833 -105.501 -41.5s-38.5 -66.5 -38.5 -116.5l-84 3c0 32.667 5.33301 62.667 16 90s25.834 51 45.501 71s43.667 35.667 72 47s60.166 17 95.499 17c70 0 123.5 -16.333 160.5 -49
s55.5 -75.667 55.5 -129c0 -20 -3.5 -38.5 -10.5 -55.5s-16.167 -31.667 -27.5 -44s-24.333 -22.5 -39 -30.5s-29.667 -13.333 -45 -16c38.667 -5.33301 70.834 -21.5 96.501 -48.5s38.5 -61.167 38.5 -102.5c0 -26 -5.33301 -50 -16 -72s-25.834 -41 -45.501 -57
s-43.5 -28.333 -71.5 -37s-59.333 -13 -94 -13c-75.333 0 -134.5 19.833 -177.5 59.5s-64.5 94.834 -64.5 165.501l85 -4c1.33301 -50 16 -87.667 44 -113s66 -38 114 -38c41.333 0 74.833 9.66699 100.5 29s38.5 48 38.5 86z" />
    <glyph glyph-name="four" unicode="4" horiz-adv-x="547" 
d="M432 239h108v-71h-108v-168h-85v168h-331v82l311 380h105v-391zM91 239h256v313z" />
    <glyph glyph-name="five" unicode="5" horiz-adv-x="525" 
d="M456 552l-302.002 0.000976562c0 -8.66699 -1 -22.167 -3 -40.5l-6.5 -58c-2.33301 -20.333 -4.66602 -39.5 -6.99902 -57.5s-4.5 -31 -6.5 -39c14.667 17.333 34.5 32.333 59.5 45s55.167 19 90.5 19c36 0 67.5 -5.66699 94.5 -17s49.5 -26.5 67.5 -45.5
s31.667 -41.333 41 -67s14 -53.167 14 -82.5c0 -32.667 -5.5 -62.5 -16.5 -89.5s-26.5 -50.333 -46.5 -70s-44.167 -34.834 -72.5 -45.501s-59.5 -16 -93.5 -16c-38 0 -71.833 5.66699 -101.5 17s-54.5 27.333 -74.5 48s-34.833 45.5 -44.5 74.5s-13.5 60.833 -11.5 95.5
l84 -7c0 -48 12.5 -86.5 37.5 -115.5s62.5 -43.5 112.5 -43.5c44.667 0 79.667 13.667 105 41s38 64 38 110c0 42 -12.667 76.5 -38 103.5s-60.333 40.5 -105 40.5c-35.333 0 -64.333 -8 -87 -24s-39.667 -34.667 -51 -56l-86 6c4 22 8.16699 47.833 12.5 77.5
s8.5 60.5 12.5 92.5s7.33301 63.833 10 95.5s4.33398 60.5 5.00098 86.5h369v-78z" />
    <glyph glyph-name="six" unicode="6" horiz-adv-x="548" 
d="M292 573c-32 0 -59.499 -6.99902 -82.499 -20.999s-42 -33.5 -57 -58.5s-25.833 -54.667 -32.5 -89s-10 -72.166 -10 -113.499c11.333 36.667 32.666 67.334 63.999 92.001s72.666 37 123.999 37c34 0 64.667 -5.33301 92 -16s50.5 -25.334 69.5 -44.001
s33.667 -41 44 -67s15.5 -54.667 15.5 -86c0 -32.667 -5.33301 -62.334 -16 -89.001s-26 -49.667 -46 -69s-44.167 -34.333 -72.5 -45s-60.166 -16 -95.499 -16c-42 0 -79 7.33301 -111 22s-58.667 35.667 -80 63s-37.5 60.5 -48.5 99.5s-16.5 82.5 -16.5 130.5
c0 49.333 5.16699 94.666 15.5 135.999s26.333 77 48 107s48.834 53.5 81.501 70.5s71 25.5 115 25.5c62.667 0 113.667 -16.833 153 -50.5s61.666 -80.167 66.999 -139.5l-83 -3c-5.33301 37.333 -19 67.333 -41 90s-54.333 34 -97 34zM135.001 204.001
c0 -44 13.668 -79.333 41.001 -106s64.666 -40 111.999 -40c46.667 0 83 13.333 109 40s39 62 39 106c0 44.667 -13.167 80.334 -39.5 107.001s-63.5 40 -111.5 40s-85 -13.333 -111 -40s-39 -62.334 -39 -107.001z" />
    <glyph glyph-name="seven" unicode="7" horiz-adv-x="482" 
d="M19 552l0.00195312 77.998h444v-53c-39.333 -40.667 -72.333 -83.667 -99 -129s-48.167 -92.166 -64.5 -140.499s-28 -98.333 -35 -150s-10.833 -104.167 -11.5 -157.5h-94c1.33301 112 20.166 215.333 56.499 310s86.166 175.334 149.499 242.001h-346z" />
    <glyph glyph-name="eight" unicode="8" horiz-adv-x="527" 
d="M264 578c-39.333 0 -71 -9.66699 -95 -29s-36 -48.666 -36 -87.999c0 -36 12 -63.667 36 -83s55.667 -29 95 -29c38.667 0 70.167 9.66699 94.5 29s36.5 47 36.5 83c0 39.333 -12.167 68.666 -36.5 87.999s-55.833 29 -94.5 29zM264 284c-48 0 -84.833 -9.5 -110.5 -28.5
s-38.5 -47.167 -38.5 -84.5s12.833 -66.333 38.5 -87s62.5 -31 110.5 -31s84.667 10.333 110 31s38 49.667 38 87s-12.667 65.5 -38 84.5s-62 28.5 -110 28.5zM264 -12c-74.667 0 -133.167 16 -175.5 48s-63.5 75.667 -63.5 131c0 20.667 3.66699 39.5 11 56.5s17 32 29 45
s25.833 23.667 41.5 32s31.834 14.166 48.501 17.499c-33.333 12 -59.5 30.5 -78.5 55.5s-28.5 56.167 -28.5 93.5c0 27.333 5.5 51.833 16.5 73.5s26 40 45 55s41.833 26.5 68.5 34.5s55.334 12 86.001 12s59.167 -4 85.5 -12s49 -19.5 68 -34.5s34 -33.333 45 -55
s16.5 -46.167 16.5 -73.5c0 -37.333 -9.5 -68.5 -28.5 -93.5s-45.167 -43.5 -78.5 -55.5c17.333 -3.33301 33.666 -9.16602 48.999 -17.499s29 -19 41 -32s21.5 -28 28.5 -45s10.5 -35.833 10.5 -56.5c0 -55.333 -20.833 -99 -62.5 -131s-99.834 -48 -174.501 -48z" />
    <glyph glyph-name="nine" unicode="9" horiz-adv-x="548" 
d="M256 57c32 0 59.499 6.99902 82.499 20.999s42 33.5 57 58.5s25.833 54.667 32.5 89s10 72.166 10 113.499c-11.333 -36.667 -32.666 -67.334 -63.999 -92.001s-72.666 -37 -123.999 -37c-34 0 -64.667 5.33301 -92 16s-50.5 25.334 -69.5 44.001
s-33.667 41.167 -44 67.5s-15.5 54.833 -15.5 85.5c0 32.667 5.33301 62.334 16 89.001s26 49.667 46 69s44.167 34.333 72.5 45s60.166 16 95.499 16c42 0 79 -7.33301 111 -22s58.667 -35.667 80 -63s37.5 -60.5 48.5 -99.5s16.5 -82.5 16.5 -130.5
c0 -49.333 -5.16699 -94.666 -15.5 -135.999s-26.333 -77 -48 -107s-48.834 -53.5 -81.501 -70.5s-71 -25.5 -115 -25.5c-62.667 0 -113.667 16.833 -153 50.5s-61.666 80.167 -66.999 139.5l83 3c5.33301 -37.333 19 -67.333 41 -90s54.333 -34 97 -34zM412.999 425.999
c0 44 -13.668 79.333 -41.001 106s-64.666 40 -111.999 40c-46.667 0 -83 -13.333 -109 -40s-39 -62 -39 -106c0 -44.667 13.167 -80.334 39.5 -107.001s63.5 -40 111.5 -40s85 13.333 111 40s39 62.334 39 107.001z" />
    <glyph glyph-name="colon" unicode=":" horiz-adv-x="176" 
d="M38 100h100v-100h-100v100zM38 417h100v-100h-100v100z" />
    <glyph glyph-name="semicolon" unicode=";" horiz-adv-x="176" 
d="M38 100l100 -0.000976562v-98c0 -35.333 -6.66699 -62.666 -20 -81.999s-40 -29.333 -80 -30v49c18.667 1.33301 31.167 6.33301 37.5 15s9.5 24 9.5 46h-47v100zM38 416.999h100v-100h-100v100z" />
    <glyph glyph-name="less" unicode="&#x3c;" horiz-adv-x="463" 
d="M40 355l390 208v-81l-326 -172l326 -172v-82l-390 209v90z" />
    <glyph glyph-name="equal" unicode="=" horiz-adv-x="632" 
d="M60 264h512v-68h-512v68zM60 425h512v-68h-512v68z" />
    <glyph glyph-name="greater" unicode="&#x3e;" horiz-adv-x="463" 
d="M422 265l-389 -209v82l325 172l-325 172v81l389 -208v-90z" />
    <glyph glyph-name="question" unicode="?" horiz-adv-x="488" 
d="M198 168c0 28.667 5.50293 53.502 16.5029 74.502s29.833 42.167 56.5 63.5l35.5 28.5c11.667 9.66699 22.167 20.167 31.5 31.5s17 24 23 38s9 30.333 9 49c0 33.333 -10 61.333 -30 84s-50.667 34 -92 34c-44 0 -77.5 -13 -100.5 -39s-34.5 -62 -34.5 -108
c0 -20 2.33301 -39 7 -57l-86 4c-4 20 -6 39.667 -6 59c0 32 5.16699 61.167 15.5 87.5s25 48.666 44 66.999s42.167 32.5 69.5 42.5s57.666 15 90.999 15c36.667 0 68.334 -5 95.001 -15s48.667 -23.5 66 -40.5s30.166 -36.833 38.499 -59.5s12.5 -46.667 12.5 -72
c0 -22 -3.5 -41.833 -10.5 -59.5s-16.5 -34.334 -28.5 -50.001s-26 -30.667 -42 -45s-33 -28.5 -51 -42.5c-18.667 -15.333 -31.834 -29.333 -39.501 -42s-11.834 -28.667 -12.501 -48h-78zM184.003 100.002h100v-100h-100v100z" />
    <glyph glyph-name="at" unicode="@" horiz-adv-x="760" 
d="M555 89c32 0 59.0059 14.6689 81.0059 44.002s33 76.333 33 141c0 34.667 -5.66699 66.667 -17 96s-27.833 54.5 -49.5 75.5s-48.334 37.333 -80.001 49s-67.834 17.5 -108.501 17.5c-48 0 -91.5 -8 -130.5 -24s-72.5 -38.333 -100.5 -67s-49.5 -62.834 -64.5 -102.501
s-22.5 -83.5 -22.5 -131.5c0 -42.667 7.33301 -80.834 22 -114.501s35 -62.334 61 -86.001s56.5 -41.667 91.5 -54s72.5 -18.5 112.5 -18.5c38 0 73.333 3.33301 106 10s66 18.334 100 35.001l22 -43c-34 -20 -69.833 -34.5 -107.5 -43.5s-78.167 -13.5 -121.5 -13.5
c-48.667 0 -94.334 7.16699 -137.001 21.5s-79.667 35.5 -111 63.5s-56 62.667 -74 104s-27 88.333 -27 141c0 54 9 104 27 150s43.667 85.833 77 119.5s73.333 60.167 120 79.5s99 29 157 29c50 0 94.667 -7.33301 134 -22s72.666 -35 99.999 -61s48.166 -57 62.499 -93
s21.5 -75 21.5 -117c0 -40.667 -5.16699 -76.167 -15.5 -106.5s-24.333 -55.333 -42 -75s-37.834 -34.334 -60.501 -44.001s-46 -14.5 -70 -14.5c-28 0 -50 6.83301 -66 20.5s-26.667 30.5 -32 50.5c-12 -21.333 -28.5 -38.5 -49.5 -51.5s-45.5 -19.5 -73.5 -19.5
c-38.667 0 -69.667 12.333 -93 37s-35 59 -35 103c0 26.667 4.16699 53 12.5 79s20.5 49.333 36.5 70s35.5 37.334 58.5 50.001s49.167 19 78.5 19c28 0 51.333 -6 70 -18s31.667 -27 39 -45l15 55h74l-60 -237c-5.33301 -22 -4.5 -37.167 2.5 -45.5
s18.167 -12.5 33.5 -12.5zM463.006 226.002c7.33301 33.333 4.33301 60.1641 -9 80.4971s-34.333 30.5 -63 30.5c-18 0 -34.333 -4.83301 -49 -14.5s-27 -22.167 -37 -37.5s-17.667 -32.666 -23 -51.999s-8 -38.666 -8 -57.999c0 -54 22.333 -81 67 -81
c24 0 47 8.83301 69 26.5s37.667 44.834 47 81.501z" />
    <glyph glyph-name="A" unicode="A" horiz-adv-x="638" 
d="M364 630l262 -630h-92l-76 185h-287l-74 -185h-85l257 630h95zM198 254h232l-115 280h-4z" />
    <glyph glyph-name="B" unicode="B" horiz-adv-x="591" 
d="M556 173c0 -54.667 -19.334 -97.168 -58.001 -127.501s-95 -45.5 -169 -45.5h-268v630h257c39.333 0 72.833 -4 100.5 -12s50.334 -19.5 68.001 -34.5s30.667 -32.667 39 -53s12.5 -43.166 12.5 -68.499c0 -36.667 -11.333 -66.834 -34 -90.501s-51 -38.5 -85 -44.5
c38.667 -6.66699 71.167 -22.667 97.5 -48s39.5 -60.666 39.5 -105.999zM144.999 290.999v-220.001h182c47.333 0 83 9.66699 107 29s36 46 36 80c0 34.667 -12 61.834 -36 81.501s-59.667 29.5 -107 29.5h-182zM144.999 357.998h176c46 0 79.167 9 99.5 27
s30.5 42.333 30.5 73c0 30 -10.167 54.333 -30.5 73s-53.5 28 -99.5 28h-176v-201z" />
    <glyph glyph-name="C" unicode="C" horiz-adv-x="666" 
d="M32 315c0 48.667 8 93 24 133s37.833 74.333 65.5 103s60.334 51 98.001 67s78.167 24 121.5 24c45.333 0 85.5 -6.66699 120.5 -20s64.833 -32 89.5 -56s44.167 -52.667 58.5 -86s22.833 -70.333 25.5 -111l-84 -4c-2 29.333 -7.83301 56.333 -17.5 81
s-23.334 46 -41.001 64s-39.167 32.167 -64.5 42.5s-54.333 15.5 -87 15.5c-32 0 -61.5 -5.83301 -88.5 -17.5s-50.167 -28.5 -69.5 -50.5s-34.5 -48.667 -45.5 -80s-16.5 -66.333 -16.5 -105s5.5 -73.667 16.5 -105s26.167 -58 45.5 -80s42.5 -38.833 69.5 -50.5
s56.5 -17.5 88.5 -17.5c32.667 0 61.667 5.16699 87 15.5s46.833 24.5 64.5 42.5s31.334 39.5 41.001 64.5s15.5 51.833 17.5 80.5l84 -4c-2.66699 -40.667 -11.167 -77.667 -25.5 -111s-33.833 -62 -58.5 -86s-54.5 -42.667 -89.5 -56s-75.167 -20 -120.5 -20
c-43.333 0 -83.833 8 -121.5 24s-70.334 38.333 -98.001 67s-49.5 63 -65.5 103s-24 84.333 -24 133z" />
    <glyph glyph-name="D" unicode="D" horiz-adv-x="643" 
d="M284 71c77.333 0 136.333 21.5 177 64.5s61 102.833 61 179.5s-20.333 136.5 -61 179.5s-99.667 64.5 -177 64.5h-136v-488h136zM61 630h228c49.333 0 94 -7.16699 134 -21.5s74 -35 102 -62s49.5 -60 64.5 -99s22.5 -83.167 22.5 -132.5s-7.5 -93.5 -22.5 -132.5
s-36.5 -72 -64.5 -99s-62 -47.667 -102 -62s-84.667 -21.5 -134 -21.5h-228v630z" />
    <glyph glyph-name="E" unicode="E" horiz-adv-x="548" 
d="M510 0h-449v630h440v-72h-356v-198h283v-71h-283v-217h365v-72z" />
    <glyph glyph-name="F" unicode="F" horiz-adv-x="516" 
d="M61 0v630h430v-72h-344v-209h270v-72h-270v-277h-86z" />
    <glyph glyph-name="G" unicode="G" horiz-adv-x="688" 
d="M339 -12c-44.667 0 -85.6689 7.83105 -123.002 23.498s-69.666 37.834 -96.999 66.501s-48.666 63.167 -63.999 103.5s-23 84.833 -23 133.5s7.83301 93 23.5 133s37.334 74.333 65.001 103s60.334 51 98.001 67s78.167 24 121.5 24c89.333 0 159 -23.167 209 -69.5
s77.667 -109.833 83 -190.5l-83 -5c-3.33301 58 -22.833 104.333 -58.5 139s-85.5 52 -149.5 52c-32 0 -61.5 -5.83301 -88.5 -17.5s-50.333 -28.5 -70 -50.5s-34.834 -48.667 -45.501 -80s-16 -66.666 -16 -105.999c0 -38.667 5.5 -73.667 16.5 -105s26.5 -58 46.5 -80
s44 -38.833 72 -50.5s59 -17.5 93 -17.5c59.333 0 107 16.833 143 50.5s56.667 77.5 62 131.5h-192v68h271v-311h-79v112c-6.66699 -20 -17.167 -37.667 -31.5 -53s-31 -28.333 -50 -39s-39.833 -18.667 -62.5 -24s-46.334 -8 -71.001 -8z" />
    <glyph glyph-name="H" unicode="H" horiz-adv-x="658" 
d="M61 0v630h87v-270h362v270h87v-630h-87v289h-362v-289h-87z" />
    <glyph glyph-name="I" unicode="I" horiz-adv-x="209" 
d="M148 630v-630h-87v630h87z" />
    <glyph glyph-name="J" unicode="J" horiz-adv-x="510" 
d="M458 630l-0.000976562 -415c0 -75.333 -19.833 -132 -59.5 -170s-93.167 -57 -160.5 -57c-66.667 0 -120.167 19.333 -160.5 58s-62.166 95.667 -65.499 171l82 5c3.33301 -51.333 17 -91.333 41 -120s59 -43 105 -43c88 0 132 52.667 132 158v413h86z" />
    <glyph glyph-name="K" unicode="K" horiz-adv-x="584" 
d="M481 0l-260 299l-73 -74v-225h-87v630h87v-311l305 311h103l-271 -277l301 -353h-105z" />
    <glyph glyph-name="L" unicode="L" horiz-adv-x="524" 
d="M148 630v-558h351v-72h-438v630h87z" />
    <glyph glyph-name="M" unicode="M" horiz-adv-x="746" 
d="M337 0l-191 542h-4v-542h-81v630h139l177 -513h3l168 513h137v-630h-87v542h-4l-184 -542h-73z" />
    <glyph glyph-name="N" unicode="N" horiz-adv-x="638" 
d="M496 148v482h81v-630h-69l-366 506v-506h-81v630h90z" />
    <glyph glyph-name="O" unicode="O" horiz-adv-x="689" 
d="M658 315c0 -48.667 -7.66699 -93 -23 -133s-36.833 -74.333 -64.5 -103s-60.667 -51 -99 -67s-80.5 -24 -126.5 -24s-88.167 8 -126.5 24s-71.333 38.333 -99 67s-49.167 63 -64.5 103s-23 84.333 -23 133s7.66699 93 23 133s36.833 74.333 64.5 103s60.667 51 99 67
s80.5 24 126.5 24s88.167 -8 126.5 -24s71.333 -38.333 99 -67s49.167 -63 64.5 -103s23 -84.333 23 -133zM568 315c0 38.667 -5.16699 73.5 -15.5 104.5s-25.333 57.5 -45 79.5s-43.167 39 -70.5 51s-58 18 -92 18s-64.833 -6 -92.5 -18s-51.167 -29 -70.5 -51
s-34.333 -48.5 -45 -79.5s-16 -65.833 -16 -104.5s5.33301 -73.5 16 -104.5s25.667 -57.5 45 -79.5s42.833 -39 70.5 -51s58.5 -18 92.5 -18s64.667 6 92 18s50.833 29 70.5 51s34.667 48.5 45 79.5s15.5 65.833 15.5 104.5z" />
    <glyph glyph-name="P" unicode="P" horiz-adv-x="556" 
d="M288 306c55.333 0 96.333 10.832 123 32.499s40 53.167 40 94.5c0 40.667 -13.333 71.834 -40 93.501s-67.667 32.5 -123 32.5h-141v-253h141zM147 -0.000976562l-86 0.000976562v630h229c78.667 0 139.167 -17.333 181.5 -52s63.5 -83 63.5 -145
c0 -62.667 -21.167 -111.334 -63.5 -146.001s-102.833 -52 -181.5 -52h-143v-235z" />
    <glyph glyph-name="Q" unicode="Q" horiz-adv-x="689" 
d="M658 315c0 -46 -7 -88.332 -21 -126.999s-33.667 -72.334 -59 -101.001l61 -67l-50 -43l-61 66c-25.333 -17.333 -53.333 -30.833 -84 -40.5s-63.667 -14.5 -99 -14.5c-46 0 -88.167 8 -126.5 24s-71.333 38.333 -99 67s-49.167 63 -64.5 103s-23 84.333 -23 133
s7.66699 93 23 133s36.833 74.333 64.5 103s60.667 51 99 67s80.5 24 126.5 24s88.167 -8 126.5 -24s71.333 -38.333 99 -67s49.167 -63 64.5 -103s23 -84.333 23 -133zM568 315.001c0 38.667 -5.16699 73.5 -15.5 104.5s-25.333 57.5 -45 79.5s-43.167 39 -70.5 51
s-58 18 -92 18s-64.833 -6 -92.5 -18s-51.167 -29 -70.5 -51s-34.333 -48.5 -45 -79.5s-16 -65.833 -16 -104.5s5.33301 -73.667 16 -105s25.667 -58 45 -80s42.833 -39 70.5 -51s58.5 -18 92.5 -18c52.667 0 96.667 12.667 132 38l-72 80l51 44l68 -76
c29.333 42.667 44 98.667 44 168z" />
    <glyph glyph-name="R" unicode="R" horiz-adv-x="599" 
d="M473 0c-12.667 17.333 -21.334 63.0039 -26.001 137.004c-2 35.333 -12.167 63.666 -30.5 84.999s-49.166 32 -92.499 32h-178v-254h-85v630h256c80 0 139.5 -17 178.5 -51s58.5 -79 58.5 -135c0 -24 -3.83301 -45.333 -11.5 -64s-18 -34.5 -31 -47.5
s-28.167 -23.333 -45.5 -31s-35.666 -12.5 -54.999 -14.5c38.667 -7.33301 67.5 -22.5 86.5 -45.5s30.167 -53.167 33.5 -90.5c2 -22.667 3.83301 -42.334 5.5 -59.001s3.5 -30.834 5.5 -42.501s4.66699 -21.334 8 -29.001s7.66602 -14.5 12.999 -20.5h-90zM312 323.004
c54 0 93.333 9.83301 118 29.5s37 49.167 37 88.5c0 36 -12.333 64.667 -37 86s-64 32 -118 32h-166v-236h166z" />
    <glyph glyph-name="S" unicode="S" horiz-adv-x="561" 
d="M100 230c1.33301 -28.667 6.99805 -53.8281 16.998 -75.4951s23.333 -39.834 40 -54.501s36.334 -25.667 59.001 -33s47.334 -11 74.001 -11c47.333 0 84.666 9.5 111.999 28.5s41 45.833 41 80.5c0 29.333 -9.66699 51.666 -29 66.999s-49.666 27 -90.999 35l-125 24
c-46.667 9.33301 -84.5 27.166 -113.5 53.499s-43.5 63.833 -43.5 112.5c0 27.333 5.33301 52.333 16 75s25.667 42.167 45 58.5s42.833 29 70.5 38s58.834 13.5 93.501 13.5c79.333 0 140.666 -19.833 183.999 -59.5s65.333 -95.167 66 -166.5l-79 -4
c-1.33301 52 -17 92.167 -47 120.5s-71 42.5 -123 42.5c-46 0 -81.167 -10 -105.5 -30s-36.5 -47.667 -36.5 -83c0 -31.333 9.83301 -53.333 29.5 -66s47.834 -22.667 84.501 -30l114 -22c58 -11.333 101.333 -30.333 130 -57s43 -65.334 43 -116.001
c0 -28.667 -5.83301 -54.5 -17.5 -77.5s-28 -42.167 -49 -57.5s-46 -27.166 -75 -35.499s-60.5 -12.5 -94.5 -12.5c-38.667 0 -74.334 5.16699 -107.001 15.5s-61 25.666 -85 45.999s-42.667 45.166 -56 74.499s-20 63 -20 101z" />
    <glyph glyph-name="T" unicode="T" horiz-adv-x="590" 
d="M250 0v558h-229v72h548v-72h-233v-558h-86z" />
    <glyph glyph-name="U" unicode="U" horiz-adv-x="616" 
d="M308 -12c-35.333 0 -68.5 4.5 -99.5 13.5s-58 23.667 -81 44s-41.167 46.5 -54.5 78.5s-20 71 -20 117v389h86v-390c0 -60.667 14.333 -105.667 43 -135s70.667 -44 126 -44s97.666 14.667 126.999 44s44 74 44 134v391h85v-389c0 -46 -6.66699 -85 -20 -117
s-31.5 -58.167 -54.5 -78.5s-50.167 -35 -81.5 -44s-64.666 -13.5 -99.999 -13.5z" />
    <glyph glyph-name="V" unicode="V" horiz-adv-x="625" 
d="M265 0l-253 630h89l213 -530h4l207 530h88l-254 -630h-94z" />
    <glyph glyph-name="W" unicode="W" horiz-adv-x="816" 
d="M590 106h4l129 524h81l-161 -630h-101l-131 503h-4l-134 -503h-100l-161 630h84l132 -522h4l137 522h81z" />
    <glyph glyph-name="X" unicode="X" horiz-adv-x="608" 
d="M352 330l244 -330h-102l-194 261l-191 -261h-97l243 324l-222 306h102l171 -239l171 239h97z" />
    <glyph glyph-name="Y" unicode="Y" horiz-adv-x="598" 
d="M494 630h92l-245 -383v-247h-83v247l-246 383h95l197 -302z" />
    <glyph glyph-name="Z" unicode="Z" horiz-adv-x="560" 
d="M530 72v-72h-500v61l380 497h-375v72h485v-64l-380 -494h390z" />
    <glyph glyph-name="bracketleft" unicode="[" horiz-adv-x="278" 
d="M144 -21h90v-63h-168v744h168v-63h-90v-618z" />
    <glyph glyph-name="backslash" unicode="\" horiz-adv-x="317" 
d="M337 -83h-78l-256 742h79z" />
    <glyph glyph-name="bracketright" unicode="]" horiz-adv-x="278" 
d="M133 597h-90v63h169v-744h-169v63h90v618z" />
    <glyph glyph-name="asciicircum" unicode="^" horiz-adv-x="377" 
d="M227 630l140 -202h-83l-96 140l-96 -140h-82l139 202h78z" />
    <glyph glyph-name="underscore" unicode="_" horiz-adv-x="381" 
d="M20 -55h341v-65h-341v65z" />
    <glyph glyph-name="grave" unicode="`" 
d="M269 504l-97 126h101l54 -126h-58z" />
    <glyph glyph-name="a" unicode="a" horiz-adv-x="489" 
d="M329 216l-97.999 -21c-17.333 -4 -33 -7.83301 -47 -11.5s-25.833 -8.5 -35.5 -14.5s-17.167 -13.333 -22.5 -22s-8 -19.667 -8 -33c0 -18.667 6.16699 -34.167 18.5 -46.5s31.166 -18.5 56.499 -18.5c19.333 0 37.333 3.5 54 10.5s31 16.833 43 29.5s21.5 28 28.5 46
s10.5 38 10.5 60v21zM409.001 86c0 -22.667 11.335 -33.999 34.002 -33.999c5.33301 0 11.5 0.833008 18.5 2.5s13.5 4.16699 19.5 7.5v-45c-7.33301 -7.33301 -16 -13.5 -26 -18.5s-23.667 -7.5 -41 -7.5c-22.667 0 -41.334 7.83301 -56.001 23.5
s-23.334 36.5 -26.001 62.5c-12 -25.333 -32.167 -46.5 -60.5 -63.5s-60.5 -25.5 -96.5 -25.5c-42.667 0 -76.667 10.667 -102 32s-38 51 -38 89c0 20.667 4.16699 38.5 12.5 53.5s20.333 27.833 36 38.5s34.334 19.667 56.001 27s45.5 13.666 71.5 18.999l118 24v17
c0 30 -8.33301 53.667 -25 71s-40.334 26 -71.001 26c-32 0 -56.667 -8.33301 -74 -25s-29.333 -37.667 -36 -63l-74 10c8.66699 41.333 28.667 75.333 60 102s73 40 125 40c55.333 0 98.333 -13.833 129 -41.5s46 -69.5 46 -125.5v-196z" />
    <glyph glyph-name="b" unicode="b" horiz-adv-x="526" 
d="M138 206c0 -24 3.66699 -45.333 11 -64s17.166 -34.5 29.499 -47.5s27 -23 44 -30s35.5 -10.5 55.5 -10.5c43.333 0 76.333 14.833 99 44.5s34 69.5 34 119.5s-11.333 89.833 -34 119.5s-55.667 44.5 -99 44.5c-20 0 -38.5 -3.33301 -55.5 -10s-31.667 -16.5 -44 -29.5
s-22.166 -28.833 -29.499 -47.5s-11 -40 -11 -64v-25zM120 0l-62.999 -0.00195312v630h83v-285c4.66699 13.333 11.667 26.333 21 39s20.666 23.834 33.999 33.501s28.5 17.334 45.5 23.001s35.833 8.5 56.5 8.5c32 0 60.5 -6 85.5 -18s46 -28.333 63 -49
s29.833 -45.167 38.5 -73.5s13 -58.5 13 -90.5s-4.33301 -62 -13 -90s-21.5 -52.333 -38.5 -73s-38 -37 -63 -49s-53.833 -18 -86.5 -18c-40.667 0 -74.667 10.167 -102 30.5s-46 44.5 -56 72.5z" />
    <glyph glyph-name="c" unicode="c" horiz-adv-x="487" 
d="M29 218c0 34.667 5.5 66.165 16.5 94.498s26.333 52.666 46 72.999s43.334 36 71.001 47s57.834 16.5 90.501 16.5c32 0 60.333 -5 85 -15s45.5 -23.667 62.5 -41s30.5 -37.666 40.5 -60.999s16 -48 18 -74l-73 -5c-3.33301 38.667 -16.333 69.834 -39 93.501
s-54.334 35.5 -95.001 35.5c-41.333 0 -74.666 -14.667 -99.999 -44s-38 -69.333 -38 -120s12.667 -90.667 38 -120s58.666 -44 99.999 -44c40.667 0 72.334 12.333 95.001 37s35.667 56.334 39 95.001l73 -7c-2 -26.667 -8 -51.5 -18 -74.5s-23.5 -43.167 -40.5 -60.5
s-37.833 -31 -62.5 -41s-53 -15 -85 -15c-32.667 0 -62.834 5.5 -90.501 16.5s-51.334 26.5 -71.001 46.5s-35 44.167 -46 72.5s-16.5 59.833 -16.5 94.5z" />
    <glyph glyph-name="d" unicode="d" horiz-adv-x="525" 
d="M387 231c0 48 -13.167 85.167 -39.5 111.5s-59.5 39.5 -99.5 39.5c-43.333 0 -76.5 -14.833 -99.5 -44.5s-34.5 -69.5 -34.5 -119.5s11.5 -89.833 34.5 -119.5s56.167 -44.5 99.5 -44.5c40 0 73.167 13.333 99.5 40s39.5 64 39.5 112v25zM386 91
c-10 -26.667 -28.332 -50.498 -54.999 -71.498s-60.667 -31.5 -102 -31.5c-32.667 0 -61.334 6 -86.001 18s-45.5 28.333 -62.5 49s-29.833 45 -38.5 73s-13 58 -13 90s4.33301 62.167 13 90.5s21.5 52.833 38.5 73.5s37.833 37 62.5 49s53.334 18 86.001 18
c20.667 0 39.5 -2.83301 56.5 -8.5s32.167 -13.334 45.5 -23.001s24.666 -20.834 33.999 -33.501s16.333 -25.667 21 -39v285h83v-630h-83v91z" />
    <glyph glyph-name="e" unicode="e" horiz-adv-x="489" 
d="M458 147c-11.333 -50 -34.501 -88.999 -69.501 -116.999s-79.833 -42 -134.5 -42c-32.667 0 -62.667 5.33301 -90 16s-51 25.667 -71 45s-35.667 42.833 -47 70.5s-17 58.5 -17 92.5c0 34.667 5.66699 66.5 17 95.5s26.833 54 46.5 75s43 37.333 70 49
s56.167 17.5 87.5 17.5c34.667 0 65.167 -5.83301 91.5 -17.5s48.166 -27.334 65.499 -47.001s30.5 -42.667 39.5 -69s13.5 -54.5 13.5 -84.5v-33h-348c1.33301 -21.333 5.83301 -40.833 13.5 -58.5s17.834 -33 30.501 -46s27.5 -23 44.5 -30s35.167 -10.5 54.5 -10.5
c36.667 0 65.834 8.5 87.501 25.5s37.167 42.5 46.5 76.5zM374.999 252.001c-0.666992 17.333 -3.66895 34.1689 -9.00195 50.502s-13.166 30.666 -23.499 42.999s-23.166 22.166 -38.499 29.499s-33.333 11 -54 11c-20 0 -37.833 -3.66699 -53.5 -11s-29.167 -17 -40.5 -29
s-20.5 -26.167 -27.5 -42.5s-11.833 -33.5 -14.5 -51.5h261z" />
    <glyph glyph-name="f" unicode="f" horiz-adv-x="285" 
d="M7 377v60.001h67v51c0 46.667 12.667 84 38 112s61 42 107 42c38 0 67.833 -8.33301 89.5 -25s37.5 -41.667 47.5 -75l-57 -20c-5.33301 17.333 -14.333 31.666 -27 42.999s-29 17 -49 17c-23.333 0 -40.333 -7.66699 -51 -23s-16 -36 -16 -62v-60h123v-60h-123v-377h-82
v377h-67z" />
    <glyph glyph-name="g" unicode="g" horiz-adv-x="480" 
d="M417 300c0 -22.667 -4.50098 -43.1641 -13.501 -61.4971s-21.833 -33.833 -38.5 -46.5s-36.167 -22.5 -58.5 -29.5s-47.166 -10.5 -74.499 -10.5c-36.667 0 -68.667 6 -96 18c-7.33301 -4.66699 -14 -10.5 -20 -17.5s-9 -15.5 -9 -25.5c0 -12 4 -21.333 12 -28
s21.667 -10 41 -10h171c48 0 84.167 -11.167 108.5 -33.5s36.5 -50.5 36.5 -84.5c0 -27.333 -7 -50.5 -21 -69.5s-32.667 -34.5 -56 -46.5s-50.166 -20.833 -80.499 -26.5s-61.833 -8.5 -94.5 -8.5c-29.333 0 -57.166 2.33301 -83.499 7s-49.333 11.834 -69 21.501
s-35.167 22 -46.5 37s-17 32.5 -17 52.5c0 25.333 8.16699 45.666 24.5 60.999s38.166 25.666 65.499 30.999c-20 6.66699 -34.667 16.667 -44 30s-14 28.333 -14 45c0 19.333 6.16699 35.666 18.5 48.999s28.166 24.333 47.499 33c-18 13.333 -32 29.5 -42 48.5
s-15 40.5 -15 64.5c0 23.333 4.5 44.166 13.5 62.499s21.667 33.833 38 46.5s35.666 22.5 57.999 29.5s46.833 10.5 73.5 10.5c28 0 53.667 -4 77 -12s43.333 -19 60 -33c11.333 17.333 26.833 31.666 46.5 42.999s41.167 17 64.5 17v-72c-14.667 0 -29.5 -1.66699 -44.5 -5
s-28.167 -7.66602 -39.5 -12.999c6.66699 -10.667 11.834 -22.167 15.501 -34.5s5.5 -25.5 5.5 -39.5zM86.999 -45.9971c0 -28 12.667 -48.167 38 -60.5s58.333 -18.5 99 -18.5c25.333 0 48.5 1.5 69.5 4.5s39 8 54 15s26.833 16 35.5 27s13 24.5 13 40.5
c0 20 -7.66699 34 -23 42s-35.666 12 -60.999 12h-141c-22.667 0 -42.334 -4.5 -59.001 -13.5s-25 -25.167 -25 -48.5zM332.999 299.003c0 31.333 -8.83301 55.166 -26.5 71.499s-42.167 24.5 -73.5 24.5c-30.667 0 -54.834 -8.16699 -72.501 -24.5
s-26.5 -40.166 -26.5 -71.499c0 -30 8.83301 -53.167 26.5 -69.5s41.834 -24.5 72.501 -24.5c31.333 0 55.833 8.16699 73.5 24.5s26.5 39.5 26.5 69.5z" />
    <glyph glyph-name="h" unicode="h" horiz-adv-x="496" 
d="M140 0l-83.002 -0.000976562v630h83v-271c10.667 26.667 29.334 48.334 56.001 65.001s56.334 25 89.001 25c28.667 0 53 -4.5 73 -13.5s36.5 -21.5 49.5 -37.5s22.5 -34.833 28.5 -56.5s9 -45.167 9 -70.5v-271h-83v264c0 36.667 -8.66699 65.667 -26 87
s-43.333 32 -78 32c-33.333 0 -61.333 -12 -84 -36s-34 -56 -34 -96v-251z" />
    <glyph glyph-name="i" unicode="i" horiz-adv-x="196" 
d="M140 437v-437h-83v437h83zM55 630h86v-94h-86v94z" />
    <glyph glyph-name="j" unicode="j" horiz-adv-x="196" 
d="M140 -60c0 -38.667 -9.66699 -68.333 -29 -89s-48.666 -31 -87.999 -31c-18.667 0 -36.667 3 -54 9s-31.666 13.667 -42.999 23l20 53c11.333 -7.33301 22.166 -12.833 32.499 -16.5s22.166 -5.5 35.499 -5.5c28.667 0 43 17 43 51v503h83v-497zM55 630.001h86v-94h-86
v94z" />
    <glyph glyph-name="k" unicode="k" horiz-adv-x="479" 
d="M140 0h-83v630h83v-391l220 198h104l-201 -179l210 -258h-98l-174 212l-61 -54v-158z" />
    <glyph glyph-name="l" unicode="l" horiz-adv-x="196" 
d="M140 630v-630h-83v630h83z" />
    <glyph glyph-name="m" unicode="m" horiz-adv-x="775" 
d="M422 354c11.333 27.333 29.833 50 55.5 68s56.167 27 91.5 27c28.667 0 52.834 -4.66699 72.501 -14s35.5 -22 47.5 -38s20.667 -34.833 26 -56.5s8 -44.834 8 -69.501v-271h-83v264c0 36.667 -7.66699 65.667 -23 87s-40 32 -74 32c-31.333 0 -57.833 -12 -79.5 -36
s-32.5 -56 -32.5 -96v-251h-83v264c0 36.667 -7.66699 65.667 -23 87s-40 32 -74 32c-31.333 0 -57.666 -12 -78.999 -36s-32 -56 -32 -96v-251h-83v437h83v-78c10.667 26.667 28 48.334 52 65.001s53 25 87 25c39.333 0 70.666 -8.66699 93.999 -26
s39.666 -40.333 48.999 -69z" />
    <glyph glyph-name="n" unicode="n" horiz-adv-x="496" 
d="M140 0l-83.002 -0.000976562v437h83v-78c10.667 26.667 29.334 48.334 56.001 65.001s56.334 25 89.001 25c28.667 0 53 -4.5 73 -13.5s36.5 -21.5 49.5 -37.5s22.5 -34.833 28.5 -56.5s9 -45.167 9 -70.5v-271h-83v264c0 36.667 -8.66699 65.667 -26 87
s-43.333 32 -78 32c-33.333 0 -61.333 -12 -84 -36s-34 -56 -34 -96v-251z" />
    <glyph glyph-name="o" unicode="o" horiz-adv-x="504" 
d="M114 218c0 -48.667 11.833 -88.5 35.5 -119.5s57.5 -46.5 101.5 -46.5c44.667 0 79 15.5 103 46.5s36 70.833 36 119.5c0 49.333 -12 89.333 -36 120s-58.333 46 -103 46c-44 0 -77.833 -15.333 -101.5 -46s-35.5 -70.667 -35.5 -120zM475 218
c0 -34 -5.66699 -65.167 -17 -93.5s-27 -52.5 -47 -72.5s-43.667 -35.667 -71 -47s-57 -17 -89 -17s-61.5 5.66699 -88.5 17s-50.5 27 -70.5 47s-35.5 44.167 -46.5 72.5s-16.5 59.5 -16.5 93.5s5.5 65.167 16.5 93.5s26.5 52.666 46.5 72.999s43.5 36.166 70.5 47.499
s56.5 17 88.5 17s61.667 -5.66699 89 -17s51 -27.166 71 -47.499s35.667 -44.666 47 -72.999s17 -59.5 17 -93.5z" />
    <glyph glyph-name="p" unicode="p" horiz-adv-x="526" 
d="M138 206c0 -24 3.66699 -45.333 11 -64s17.166 -34.5 29.499 -47.5s27 -23 44 -30s35.5 -10.5 55.5 -10.5c43.333 0 76.333 14.833 99 44.5s34 69.5 34 119.5s-11.333 89.833 -34 119.5s-55.667 44.5 -99 44.5c-20 0 -38.5 -3.33301 -55.5 -10s-31.667 -16.5 -44 -29.5
s-22.166 -28.833 -29.499 -47.5s-11 -40 -11 -64v-25zM140 -168l-83 -0.00195312v605h83v-92c4.66699 13.333 11.667 26.333 21 39s20.666 23.834 33.999 33.501s28.5 17.334 45.5 23.001s35.833 8.5 56.5 8.5c32 0 60.5 -6 85.5 -18s46 -28.333 63 -49
s29.833 -45.167 38.5 -73.5s13 -58.5 13 -90.5s-4.33301 -62 -13 -90s-21.5 -52.333 -38.5 -73s-38 -37 -63 -49s-53.5 -18 -85.5 -18c-20.667 0 -39.5 2.83301 -56.5 8.5s-32.167 13.334 -45.5 23.001s-24.666 20.667 -33.999 33s-16.333 25.166 -21 38.499v-259z" />
    <glyph glyph-name="q" unicode="q" horiz-adv-x="525" 
d="M387 231c0 48 -13.167 85.167 -39.5 111.5s-59.5 39.5 -99.5 39.5c-43.333 0 -76.5 -14.833 -99.5 -44.5s-34.5 -69.5 -34.5 -119.5s11.5 -89.833 34.5 -119.5s56.167 -44.5 99.5 -44.5c40 0 73.167 13.333 99.5 40s39.5 64 39.5 112v25zM386 91
c-10 -26.667 -28.332 -50.498 -54.999 -71.498s-60.667 -31.5 -102 -31.5c-32.667 0 -61.334 6 -86.001 18s-45.5 28.333 -62.5 49s-29.833 45 -38.5 73s-13 58 -13 90s4.33301 62.167 13 90.5s21.5 52.833 38.5 73.5s37.833 37 62.5 49s53.334 18 86.001 18
c20.667 0 39.5 -2.83301 56.5 -8.5s32.167 -13.334 45.5 -23.001s24.666 -20.834 33.999 -33.501s16.333 -25.667 21 -39v92h83v-605h-83v259z" />
    <glyph glyph-name="r" unicode="r" horiz-adv-x="331" 
d="M318 354c-12 6.66699 -22.999 11.332 -32.999 13.999s-21.667 4 -35 4c-32 0 -58.333 -13 -79 -39s-31 -60 -31 -102v-231h-83v437h83v-89c4 12.667 9.83301 25 17.5 37s16.667 22.833 27 32.5s22.166 17.334 35.499 23.001s28 8.5 44 8.5c26 0 46.667 -6.66699 62 -20z
" />
    <glyph glyph-name="s" unicode="s" horiz-adv-x="433" 
d="M95 152c4 -34 17.1641 -59.668 39.4971 -77.001s52.5 -26 90.5 -26c29.333 0 53.5 5.33301 72.5 16s28.5 27 28.5 49c0 20.667 -7 35.334 -21 44.001s-34.667 15.667 -62 21l-74 13c-41.333 6.66699 -73.5 19.334 -96.5 38.001s-34.5 47 -34.5 85
c0 40 15.333 72.333 46 97s71.334 37 122.001 37c58.667 0 104.334 -13.167 137.001 -39.5s51 -64.833 55 -115.5l-67 -4c-10 65.333 -51.667 98 -125 98c-28 0 -50.167 -5.83301 -66.5 -17.5s-24.5 -27.5 -24.5 -47.5c0 -17.333 5.5 -30.833 16.5 -40.5
s27.833 -16.5 50.5 -20.5l82 -13c44 -7.33301 78.333 -20.333 103 -39s37 -48 37 -88c0 -22 -4.5 -41.333 -13.5 -58s-21.5 -30.667 -37.5 -42s-35 -19.833 -57 -25.5s-45.667 -8.5 -71 -8.5c-27.333 0 -52.666 3.16699 -75.999 9.5s-43.833 16.166 -61.5 29.499
s-32 30 -43 50s-17.5 43.333 -19.5 70z" />
    <glyph glyph-name="t" unicode="t" horiz-adv-x="306" 
d="M72 377l-65.999 -0.00195312v45l28 5c20.667 4 34.5 11.333 41.5 22s13.167 26.667 18.5 48l13 61h47v-121h123v-60h-123v-265c0 -19.333 4.16699 -33.666 12.5 -42.999s22.166 -14 41.499 -14c14 0 28 2.5 42 7.5s27.333 11.167 40 18.5v-56
c-16 -12 -32.667 -21.167 -50 -27.5s-38 -9.5 -62 -9.5c-30.667 0 -56 8.33301 -76 25s-30 46.334 -30 89.001v275z" />
    <glyph glyph-name="u" unicode="u" horiz-adv-x="491" 
d="M351 437h83.002v-437h-83v77c-10.667 -26 -28.834 -47.333 -54.501 -64s-55.167 -25 -88.5 -25c-28.667 0 -52.834 4.5 -72.501 13.5s-35.667 21.333 -48 37s-21.333 34.334 -27 56.001s-8.5 45.167 -8.5 70.5v272h83v-264c0 -36.667 8.16699 -65.834 24.5 -87.501
s41.833 -32.5 76.5 -32.5c32.667 0 60 12 82 36s33 56.333 33 97v251z" />
    <glyph glyph-name="v" unicode="v" horiz-adv-x="455" 
d="M187 0l-180 437h87l136 -336h4l133 336h81l-180 -437h-81z" />
    <glyph glyph-name="w" unicode="w" horiz-adv-x="642" 
d="M453 106h4l101 331h77l-139 -437h-80l-93 326h-4l-92 -326h-80l-140 437h83l103 -331h4l92 331h70z" />
    <glyph glyph-name="x" unicode="x" horiz-adv-x="467" 
d="M277 229l182 -229h-96l-134 170l-132 -170h-90l179 225l-165 212h96l117 -151l115 151h89z" />
    <glyph glyph-name="y" unicode="y" horiz-adv-x="460" 
d="M120 -168l71 169l-184 436h87l139 -336h4l134 336h82l-252 -605h-81z" />
    <glyph glyph-name="z" unicode="z" horiz-adv-x="428" 
d="M38 373v64h355v-57l-262 -316h268v-64h-369v57l257 316h-249z" />
    <glyph glyph-name="braceleft" unicode="{" horiz-adv-x="293" 
d="M27 320l25 -0.00195312c20.667 0 33.667 5.16699 39 15.5s8 29.5 8 57.5v166c0 32.667 7.16699 57.667 21.5 75s37.5 26 69.5 26h59v-63h-40c-11.333 0 -19.333 -3.33301 -24 -10s-7 -15.667 -7 -27v-170c0 -28 -4.83301 -50.667 -14.5 -68
s-28.167 -28.666 -55.5 -33.999c27.333 -5.33301 45.833 -16.666 55.5 -33.999s14.5 -40.333 14.5 -69v-169c0 -11.333 2.33301 -20.333 7 -27s12.667 -10 24 -10h40v-63h-59c-32 0 -55.167 8.66699 -69.5 26s-21.5 42.333 -21.5 75v166c0 28 -2.66699 47.167 -8 57.5
s-18.333 15.5 -39 15.5h-25v64z" />
    <glyph glyph-name="bar" unicode="|" horiz-adv-x="197" 
d="M61 659h75v-742h-75v742z" />
    <glyph glyph-name="braceright" unicode="}" horiz-adv-x="293" 
d="M266 256l-25 0.00195312c-20.667 0 -33.667 -5.16699 -39 -15.5s-8 -29.5 -8 -57.5v-166c0 -32.667 -7.16699 -57.667 -21.5 -75s-37.5 -26 -69.5 -26h-60v63h40c12 0 20.167 3.33301 24.5 10s6.5 15.667 6.5 27v169c0 28.667 5 51.667 15 69s28.667 28.666 56 33.999
c-27.333 5.33301 -46 16.666 -56 33.999s-15 40 -15 68v170c0 11.333 -2.16699 20.333 -6.5 27s-12.5 10 -24.5 10h-40v63h60c32 0 55.167 -8.66699 69.5 -26s21.5 -42.333 21.5 -75v-166c0 -28 2.66699 -47.167 8 -57.5s18.333 -15.5 39 -15.5h25v-64z" />
    <glyph glyph-name="asciitilde" unicode="~" horiz-adv-x="392" 
d="M47 207c0 37.333 6.83301 67.166 20.5 89.499s35.167 33.5 64.5 33.5c13.333 0 25.5 -3 36.5 -9s21.333 -12.833 31 -20.5s19 -14.5 28 -20.5s18.5 -9 28.5 -9c14 0 23.5 4.83301 28.5 14.5s8.16699 23.5 9.5 41.5h52c0 -37.333 -7 -67.166 -21 -89.499
s-35.333 -33.5 -64 -33.5c-14 0 -26.5 3 -37.5 9s-21.333 12.833 -31 20.5s-19 14.5 -28 20.5s-18.5 9 -28.5 9c-14 0 -23.5 -4.83301 -28.5 -14.5s-8.16699 -23.5 -9.5 -41.5h-51z" />
    <glyph glyph-name="exclamdown" unicode="&#xa1;" horiz-adv-x="191" 
d="M46 518h100v-100h-100v100zM51 -112v176l25 289h40l24 -289v-176h-89z" />
    <glyph glyph-name="cent" unicode="&#xa2;" 
d="M231 -10c-29.333 2.66699 -56.335 10.002 -81.002 22.002s-46 27.833 -64 47.5s-32 43 -42 70s-15 56.5 -15 88.5s5.16699 61.5 15.5 88.5s24.5 50.333 42.5 70s39.333 35.667 64 48s51.334 19.833 80.001 22.5v95h56v-95c28.667 -2.66699 54 -9.5 76 -20.5
s40.667 -25 56 -42s27.333 -36.333 36 -58s14 -44.5 16 -68.5l-71 -5c-3.33301 34.667 -14.666 63.5 -33.999 86.5s-45.666 37.167 -78.999 42.5v-327c33.333 5.33301 59.666 19 78.999 41s31.333 51.667 36 89l69 -6c-2 -24.667 -7.33301 -47.834 -16 -69.501
s-20.667 -40.834 -36 -57.501s-34 -30.5 -56 -41.5s-47.333 -17.833 -76 -20.5v-88h-56v88zM110.998 218.002c0 -46 10.833 -83.167 32.5 -111.5s50.834 -45.5 87.501 -51.5v326c-36.667 -6 -65.834 -23.167 -87.501 -51.5s-32.5 -65.5 -32.5 -111.5z" />
    <glyph glyph-name="sterling" unicode="&#xa3;" horiz-adv-x="565" 
d="M196 449c0 -19.333 2.00488 -37.502 6.00488 -54.502s9 -33.833 15 -50.5h156v-57h-134c6.66699 -17.333 12.167 -35.166 16.5 -53.499s6.5 -38.166 6.5 -59.499c0 -18.667 -1.33301 -35 -4 -49c21.333 -16 43.166 -30.667 65.499 -44s47.833 -20 76.5 -20
c30 0 50.833 10.167 62.5 30.5s17.5 48.5 17.5 84.5l68 -3c1.33301 -58.667 -10.334 -104.167 -35.001 -136.5s-60 -48.5 -106 -48.5c-36.667 0 -68.334 7.66699 -95.001 23s-51 32.333 -73 51c-11.333 -22 -26.833 -39.833 -46.5 -53.5s-44.167 -20.5 -73.5 -20.5
c-30 0 -55.333 8.5 -76 25.5s-31 41.5 -31 73.5c0 29.333 10.167 53.333 30.5 72s46.833 28 79.5 28c12.667 0 24.5 -1.5 35.5 -4.5s21.833 -7.16699 32.5 -12.5c-0.666992 23.333 -3.83398 44.333 -9.50098 63s-12.5 36.667 -20.5 54h-102v57h76
c-6.66699 15.333 -12.167 31.5 -16.5 48.5s-6.5 36.167 -6.5 57.5c0 28.667 4.5 54.667 13.5 78s21.833 43.5 38.5 60.5s37.167 30.167 61.5 39.5s51.833 14 82.5 14c64.667 0 115.167 -18.333 151.5 -55s54.5 -88 54.5 -154l-76 -4c-0.666992 48 -12 84 -34 108
s-53 36 -93 36c-40.667 0 -69.834 -11.833 -87.501 -35.5s-26.5 -53.167 -26.5 -88.5zM120.005 41.998c18 0 32.168 5.83301 42.501 17.5s17.5 27.5 21.5 47.5c-10 7.33301 -20.167 13.5 -30.5 18.5s-20.833 7.5 -31.5 7.5c-15.333 0 -27.5 -4 -36.5 -12
s-13.5 -19.333 -13.5 -34c0 -14 4.66699 -25 14 -33s20.666 -12 33.999 -12z" />
    <glyph glyph-name="yen" unicode="&#xa5;" horiz-adv-x="575" 
d="M75 326h132l-199 304h95l189 -292l183 292h92l-200 -304h133v-59h-171v-71h171v-59h-171v-137h-83v137h-171v59h171v71h-171v59z" />
    <glyph glyph-name="section" unicode="&#xa7;" horiz-adv-x="446" 
d="M426 239c0 -23.333 -6.83203 -44.832 -20.499 -64.499s-30.834 -35.167 -51.501 -46.5c11.333 -11.333 20.5 -24.333 27.5 -39s10.5 -32 10.5 -52c0 -18.667 -4 -36.167 -12 -52.5s-19.333 -30.5 -34 -42.5s-32.5 -21.333 -53.5 -28s-44.167 -10 -69.5 -10
c-50.667 0 -93.5 13.167 -128.5 39.5s-54.5 64.833 -58.5 115.5l66 4c5.33301 -34 19.833 -59 43.5 -75s49.834 -24 78.501 -24c25.333 0 47 5.66699 65 17s27 29 27 53c0 15.333 -3.33301 28 -10 38s-20.334 19.667 -41.001 29l-128 57c-36.667 16 -65.5 35.167 -86.5 57.5
s-31.5 52.833 -31.5 91.5c0 23.333 6.66699 44.833 20 64.5s30.666 35.167 51.999 46.5c-11.333 11.333 -20.5 24.166 -27.5 38.499s-10.5 32.166 -10.5 53.499c0 18.667 4 36 12 52s19.333 30 34 42s32.5 21.333 53.5 28s44.167 10 69.5 10
c51.333 0 94.333 -13.167 129 -39.5s54 -64.833 58 -115.5l-66 -4c-4.66699 34 -19 59 -43 75s-50.333 24 -79 24c-26 0 -47.833 -5.66699 -65.5 -17s-26.5 -28.666 -26.5 -51.999c0 -15.333 3.33301 -28 10 -38s20.334 -19.667 41.001 -29l128 -58
c36.667 -16 65.5 -35.167 86.5 -57.5s31.5 -52.833 31.5 -91.5zM154.001 379.001c-1.33301 0 -2.66602 0.669922 -3.99902 2.00293c-16.667 -6.66699 -30.334 -15.334 -41.001 -26.001s-16 -25.334 -16 -44.001c0 -21.333 6.66699 -38 20 -50s31.666 -23.667 54.999 -35
l123 -58c1.33301 -1.33301 2.66602 -2 3.99902 -2c16.667 5.33301 30.334 13.666 41.001 24.999s16 26.333 16 45c0 21.333 -6.66699 37.833 -20 49.5s-31.666 23.167 -54.999 34.5z" />
    <glyph glyph-name="dieresis" unicode="&#xa8;" 
d="M140 622h82v-94h-82v94zM278 622h81v-94h-81v94z" />
    <glyph glyph-name="copyright" unicode="&#xa9;" horiz-adv-x="724" 
d="M35 315c0 47.333 8.66699 91 26 131s40.666 74.5 69.999 103.5s64 51.667 104 68s82.333 24.5 127 24.5c45.333 0 87.833 -8.16699 127.5 -24.5s74.167 -39 103.5 -68s52.666 -63.5 69.999 -103.5s26 -83.667 26 -131s-8.66699 -91 -26 -131
s-40.666 -74.5 -69.999 -103.5s-63.833 -51.667 -103.5 -68s-82.167 -24.5 -127.5 -24.5c-44.667 0 -87 8.16699 -127 24.5s-74.667 39 -104 68s-52.666 63.5 -69.999 103.5s-26 83.667 -26 131zM173 314c0 29.333 4.83301 56.333 14.5 81s23 45.667 40 63
s37 30.833 60 40.5s47.833 14.5 74.5 14.5c56.667 0 100.167 -15.5 130.5 -46.5s47.166 -71.167 50.499 -120.5l-64 -3c-2 32 -12.5 58.333 -31.5 79s-46.5 31 -82.5 31s-64.833 -12.333 -86.5 -37s-32.5 -58.667 -32.5 -102c0 -42 10.833 -75.333 32.5 -100
s50.5 -37 86.5 -37s63.5 10.333 82.5 31s29.5 46.667 31.5 78l64 -4c-3.33301 -49.333 -20.166 -89.5 -50.499 -120.5s-73.833 -46.5 -130.5 -46.5c-26.667 0 -51.5 4.83301 -74.5 14.5s-43 23.334 -60 41.001s-30.333 38.667 -40 63s-14.5 51.166 -14.5 80.499zM82 315
c0 -40.667 7.33301 -78.167 22 -112.5s34.667 -64 60 -89s55 -44.5 89 -58.5s70.333 -21 109 -21s75 7 109 21s63.667 33.5 89 58.5s45.333 54.667 60 89s22 71.833 22 112.5s-7.33301 78.167 -22 112.5s-34.667 64 -60 89s-55 44.5 -89 58.5s-70.333 21 -109 21
s-75 -7 -109 -21s-63.667 -33.5 -89 -58.5s-45.333 -54.667 -60 -89s-22 -71.833 -22 -112.5z" />
    <glyph glyph-name="ordfeminine" unicode="&#xaa;" horiz-adv-x="389" 
d="M253 460l-71 -15.001c-24.667 -5.33301 -44.167 -11.833 -58.5 -19.5s-21.5 -20.5 -21.5 -38.5c0 -13.333 4.5 -24.666 13.5 -33.999s22.5 -14 40.5 -14c28 0 51.167 9.5 69.5 28.5s27.5 44.5 27.5 76.5v16zM326 367.999c0 -17.333 8.33105 -25.998 24.998 -25.998
c8.66699 0 18.667 2.33301 30 7v-40c-7.33301 -6 -15.166 -11 -23.499 -15s-19.5 -6 -33.5 -6c-18.667 0 -34.167 6 -46.5 18s-19.833 28.667 -22.5 50c-9.33301 -20 -24.666 -36.667 -45.999 -50s-46 -20 -74 -20c-32.667 0 -58.667 8.16699 -78 24.5s-29 39.5 -29 69.5
c0 32 12.167 55.667 36.5 71s56.5 26.666 96.5 33.999l92 18v14c0 21.333 -5.83301 38 -17.5 50s-28.5 18 -50.5 18c-22.667 0 -40.167 -5.83301 -52.5 -17.5s-20.833 -26.834 -25.5 -45.501l-68 8c6 33.333 21.667 60.5 47 81.5s59 31.5 101 31.5
c43.333 0 77.333 -10.667 102 -32s37 -54 37 -98v-145z" />
    <glyph glyph-name="guillemotleft" unicode="&#xab;" horiz-adv-x="406" 
d="M46 251l150 129v-81l-93 -81l93 -80v-82l-150 129v66zM210 251l150 129v-81l-93 -81l93 -80v-82l-150 129v66z" />
    <glyph glyph-name="registered" unicode="&#xae;" horiz-adv-x="403" 
d="M245 372c-3.33301 4 -5.99805 16.3301 -7.99805 36.9971c-0.666992 11.333 -3.33398 19 -8.00098 23s-12.334 6 -23.001 6h-38v-66h-41v186h87c23.333 0 41 -5.16699 53 -15.5s18 -24.166 18 -41.499c0 -13.333 -4 -24.166 -12 -32.499s-18 -13.166 -30 -14.499
c21.333 -4 33 -16.667 35 -38c1.33301 -14 2.5 -24 3.5 -30s3.16699 -10.667 6.5 -14h-43zM206.002 469.997c24.667 0 37 9.33301 37 28s-12.333 28 -37 28h-38v-56h38zM379.002 462.997c0 -26 -4.66699 -49.833 -14 -71.5s-22 -40.334 -38 -56.001s-34.833 -28 -56.5 -37
s-44.834 -13.5 -69.501 -13.5c-24 0 -46.833 4.5 -68.5 13.5s-40.5 21.333 -56.5 37s-28.667 34.334 -38 56.001s-14 45.5 -14 71.5s4.66699 50 14 72s22 40.833 38 56.5s34.833 28 56.5 37s44.5 13.5 68.5 13.5c24.667 0 47.834 -4.5 69.501 -13.5s40.5 -21.333 56.5 -37
s28.667 -34.5 38 -56.5s14 -46 14 -72zM346.002 462.997c0 22 -3.83301 42 -11.5 60s-18 33.667 -31 47s-28.333 23.666 -46 30.999s-36.5 11 -56.5 11s-38.833 -3.66699 -56.5 -11s-33 -17.666 -46 -30.999s-23.333 -29 -31 -47s-11.5 -38 -11.5 -60
c0 -21.333 3.83301 -41.166 11.5 -59.499s18 -34 31 -47s28.333 -23.167 46 -30.5s36.5 -11 56.5 -11s38.833 3.66699 56.5 11s33 17.5 46 30.5s23.333 28.667 31 47s11.5 38.166 11.5 59.499z" />
    <glyph glyph-name="macron" unicode="&#xaf;" 
d="M121 579h257v-64h-257v64z" />
    <glyph glyph-name="degree" unicode="&#xb0;" horiz-adv-x="339" 
d="M91 506c0 -22.667 7.16699 -41.834 21.5 -57.501s33.166 -23.5 56.499 -23.5c24 0 43.167 7.83301 57.5 23.5s21.5 34.834 21.5 57.501c0 22 -7.16699 40.833 -21.5 56.5s-33.5 23.5 -57.5 23.5c-23.333 0 -42.166 -7.83301 -56.499 -23.5s-21.5 -34.5 -21.5 -56.5z
M30 506c0 19.333 3.66699 37.166 11 53.499s17.166 30.666 29.499 42.999s27 22 44 29s35.167 10.5 54.5 10.5c20 0 38.5 -3.5 55.5 -10.5s31.667 -16.667 44 -29s22.166 -26.666 29.499 -42.999s11 -34.166 11 -53.499s-3.66699 -37.333 -11 -54
s-17.166 -31.167 -29.499 -43.5s-27 -22 -44 -29s-35.5 -10.5 -55.5 -10.5c-19.333 0 -37.5 3.5 -54.5 10.5s-31.667 16.667 -44 29s-22.166 26.833 -29.499 43.5s-11 34.667 -11 54z" />
    <glyph glyph-name="plusminus" unicode="&#xb1;" horiz-adv-x="618" 
d="M343 606v-187h222v-69h-222v-187h-69v187h-221v69h221v187h69zM53 109h512v-70h-512v70z" />
    <glyph glyph-name="twosuperior" unicode="&#xb2;" horiz-adv-x="332" 
d="M314 300v-59.998h-290v46l108 91c30.667 25.333 54.667 47.666 72 66.999s26 41.666 26 66.999c0 19.333 -5.33301 35.166 -16 47.499s-27 18.5 -49 18.5c-23.333 0 -40.833 -7 -52.5 -21s-17.5 -33.333 -17.5 -58c0 -6.66699 0.333008 -12.667 1 -18
s1.66699 -10.666 3 -15.999l-70 3c-1.33301 6 -2.33301 12 -3 18s-1 12 -1 18c0 40.667 13 73 39 97s60 36 102 36c46 0 80.333 -11.667 103 -35s34 -52 34 -86c0 -17.333 -3 -33.333 -9 -48s-14 -28.5 -24 -41.5s-21.5 -25.5 -34.5 -37.5s-26.833 -24 -41.5 -36l-64 -52
h184z" />
    <glyph glyph-name="threesuperior" unicode="&#xb3;" horiz-adv-x="339" 
d="M248 349c0 19.333 -6.99902 34.1641 -20.999 44.4971s-31.667 15.5 -53 15.5c-6.66699 0 -12.834 -0.166992 -18.501 -0.5s-10.834 -0.833008 -15.501 -1.5v54c4 -0.666992 8.83301 -1 14.5 -1h19.5c17.333 0 32.833 4.33301 46.5 13s20.5 23.667 20.5 45
c0 18.667 -5.66699 33.5 -17 44.5s-28.666 16.5 -51.999 16.5s-41.666 -7.66699 -54.999 -23s-20 -36.333 -20 -63l-68 2c0 40.667 12.667 74.334 38 101.001s61 40 107 40c44 0 77.833 -10.167 101.5 -30.5s35.5 -47.5 35.5 -81.5c0 -24 -7.5 -43.833 -22.5 -59.5
s-31.833 -25.167 -50.5 -28.5c24.667 -3.33301 44.5 -13.166 59.5 -29.499s22.5 -37.166 22.5 -62.499c0 -34 -13 -61 -39 -81s-61 -30 -105 -30c-48 0 -85.667 12.333 -113 37s-41 58.667 -41 102l70 -2c1.33301 -27.333 9.33301 -47.5 24 -60.5s34.667 -19.5 60 -19.5
c21.333 0 38.666 5 51.999 15s20 24.667 20 44z" />
    <glyph glyph-name="acute" unicode="&#xb4;" 
d="M172 504l54 126h101l-97 -126h-58z" />
    <glyph glyph-name="paragraph" unicode="&#xb6;" horiz-adv-x="502" 
d="M243 274c-72 0 -127.167 15.833 -165.5 47.5s-57.5 75.167 -57.5 130.5s19.167 98.833 57.5 130.5s93.5 47.5 165.5 47.5h197v-630h-65v566h-67v-566h-65v274z" />
    <glyph glyph-name="periodcentered" unicode="&#xb7;" horiz-adv-x="183" 
d="M41 305h100v-100h-100v100z" />
    <glyph glyph-name="cedilla" unicode="&#xb8;" horiz-adv-x="573" 
d="M397 -102c0 -13.333 -3.16992 -24.667 -9.50293 -34s-14.666 -16.833 -24.999 -22.5s-22.333 -9.83398 -36 -12.501s-27.5 -4 -41.5 -4c-24 0 -45.667 4 -65 12s-34.333 16.667 -45 26l17 32c10.667 -8 23.834 -15.333 39.501 -22s32.5 -10 50.5 -10
c15.333 0 27.5 2.33301 36.5 7s13.5 12.334 13.5 23.001c0 10 -2.83301 17.333 -8.5 22s-12.834 7.5 -21.501 8.5s-18 0.666992 -28 -1s-19 -4.5 -27 -8.5l-20 11l59 86h39l-42 -56c14 4 27.833 5.83301 41.5 5.5s25.834 -2.83301 36.501 -7.5s19.334 -11.5 26.001 -20.5
s10 -20.5 10 -34.5z" />
    <glyph glyph-name="onesuperior" unicode="&#xb9;" horiz-adv-x="200" 
d="M8 571c28 0 48.668 4.83203 62.001 14.499s23.666 24.834 30.999 45.501h51v-391h-71v285h-73v46z" />
    <glyph glyph-name="ordmasculine" unicode="&#xba;" horiz-adv-x="398" 
d="M101 464c0 -36 8.33301 -65 25 -87s41 -33 73 -33s56.5 11 73.5 33s25.5 51 25.5 87s-8.5 65.167 -25.5 87.5s-41.5 33.5 -73.5 33.5s-56.333 -11.167 -73 -33.5s-25 -51.5 -25 -87.5zM375 464c0 -26 -4.5 -50 -13.5 -72s-21.333 -40.833 -37 -56.5
s-34.167 -27.834 -55.5 -36.501s-44.666 -13 -69.999 -13s-48.666 4.33301 -69.999 13s-39.833 20.834 -55.5 36.501s-27.834 34.5 -36.501 56.5s-13 46 -13 72c0 26.667 4.33301 51 13 73s20.834 40.833 36.501 56.5s34.167 27.834 55.5 36.501s44.666 13 69.999 13
s48.666 -4.33301 69.999 -13s39.833 -20.834 55.5 -36.501s28 -34.5 37 -56.5s13.5 -46.333 13.5 -73z" />
    <glyph glyph-name="guillemotright" unicode="&#xbb;" horiz-adv-x="406" 
d="M196 185l-150 -129v82l93 80l-93 81v81l150 -129v-66zM360 185l-150 -129v82l93 80l-93 81v81l150 -129v-66z" />
    <glyph glyph-name="onequarter" unicode="&#xbc;" horiz-adv-x="709" 
d="M27 573c27.333 0 47.668 4.66699 61.001 14s23.666 24.333 30.999 45h51v-390h-70v285h-73v46zM621.002 153h60v-57h-60v-96h-70v96h-199v64l183 228h86v-235zM413.002 153h138v173zM152.002 0h-68l406 630h68z" />
    <glyph glyph-name="onehalf" unicode="&#xbd;" horiz-adv-x="741" 
d="M27 573c27.333 0 47.668 4.66699 61.001 14s23.666 24.333 30.999 45h51v-390h-70v285h-73v46zM152.002 0h-68l406 630h68zM711.002 60v-59.9971h-291v46l109 91c30.667 25.333 54.5 47.666 71.5 66.999s25.5 41.666 25.5 66.999c0 19.333 -5.16699 35.166 -15.5 47.499
s-26.833 18.5 -49.5 18.5c-23.333 0 -40.833 -7.16699 -52.5 -21.5s-17.5 -33.5 -17.5 -57.5c0 -6.66699 0.5 -12.667 1.5 -18s2.16699 -11 3.5 -17l-70 4c-1.33301 6 -2.5 12 -3.5 18s-1.5 12 -1.5 18c0 40.667 13 73 39 97s60.333 36 103 36c46 0 80.333 -11.667 103 -35
s34 -52 34 -86c0 -17.333 -3 -33.333 -9 -48s-14 -28.5 -24 -41.5s-21.5 -25.5 -34.5 -37.5s-26.833 -24 -41.5 -36l-65 -52h185z" />
    <glyph glyph-name="threequarters" unicode="&#xbe;" horiz-adv-x="816" 
d="M728 153h60v-57h-60v-96h-70v96h-199v64l183 228h86v-235zM520 153h138v173zM252 350c0 19.333 -7 33.9971 -21 43.9971s-31.667 15 -53 15h-18.5c-5.66699 0 -10.834 -0.333008 -15.501 -1v54c3.33301 -0.666992 8 -1 14 -1h20c17.333 0 32.833 4.16699 46.5 12.5
s20.5 23.166 20.5 44.499c0 18.667 -5.66699 33.667 -17 45s-28.666 17 -51.999 17s-41.666 -7.66699 -54.999 -23s-20 -36.333 -20 -63l-69 2c0 40.667 12.833 74.334 38.5 101.001s61.5 40 107.5 40c44 0 77.833 -10.167 101.5 -30.5s35.5 -47.5 35.5 -81.5
c0 -24.667 -7.5 -44.667 -22.5 -60s-31.833 -24.666 -50.5 -27.999c24.667 -3.33301 44.5 -13.166 59.5 -29.499s22.5 -37.166 22.5 -62.499c0 -34 -13 -61 -39 -81s-61 -30 -105 -30c-48 0 -85.667 12.333 -113 37s-41 58.667 -41 102l70 -2
c0.666992 -27.333 8.5 -47.5 23.5 -60.5s35.167 -19.5 60.5 -19.5c21.333 0 38.666 5 51.999 15s20 24.667 20 44zM259 -0.00292969h-69l407 630h68z" />
    <glyph glyph-name="questiondown" unicode="&#xbf;" horiz-adv-x="488" 
d="M290 350c0 -28.667 -5.50293 -53.502 -16.5029 -74.502s-29.833 -42.167 -56.5 -63.5l-35.5 -28.5c-11.667 -9.66699 -22.167 -20.167 -31.5 -31.5s-17 -24 -23 -38s-9 -30.333 -9 -49c0 -33.333 10 -61.333 30 -84s50.667 -34 92 -34c44 0 77.5 13 100.5 39
s34.5 62 34.5 108c0 20 -2.33301 39 -7 57l86 -4c4 -20 6 -39.667 6 -59c0 -32 -5.16699 -61.167 -15.5 -87.5s-25 -48.666 -44 -66.999s-42.167 -32.5 -69.5 -42.5s-57.666 -15 -90.999 -15c-36.667 0 -68.334 5 -95.001 15s-48.667 23.5 -66 40.5
s-30.166 36.833 -38.499 59.5s-12.5 46.667 -12.5 72c0 22 3.5 41.833 10.5 59.5s16.5 34.334 28.5 50.001s26 30.667 42 45s33 28.5 51 42.5c18.667 15.333 31.834 29.333 39.501 42s11.834 28.667 12.501 48h78zM303.997 417.998h-100v100h100v-100z" />
    <glyph glyph-name="Agrave" unicode="&#xc0;" horiz-adv-x="638" 
d="M364 630l262 -630h-92l-76 185h-287l-74 -185h-85l257 630h95zM198 254h232l-115 280h-4zM291 676l-97 126h101l54 -126h-58z" />
    <glyph glyph-name="Aacute" unicode="&#xc1;" horiz-adv-x="638" 
d="M364 630l262 -630h-92l-76 185h-287l-74 -185h-85l257 630h95zM198 254h232l-115 280h-4zM282 676l54 126h101l-97 -126h-58z" />
    <glyph glyph-name="Acircumflex" unicode="&#xc2;" horiz-adv-x="638" 
d="M364 630l262 -630h-92l-76 185h-287l-74 -185h-85l257 630h95zM198 254h232l-115 280h-4zM359 802l80 -126h-60l-68 74l-68 -74h-60l80 126h96z" />
    <glyph glyph-name="Atilde" unicode="&#xc3;" horiz-adv-x="638" 
d="M364 630l262 -630h-92l-76 185h-287l-74 -185h-85l257 630h95zM198 254h232l-115 280h-4zM172 675c0 36.667 6.83301 65.833 20.5 87.5s34.5 32.5 62.5 32.5c13.333 0 25.5 -3 36.5 -9s21.167 -12.667 30.5 -20s18.5 -14 27.5 -20s18.5 -9 28.5 -9
c14 0 23.333 4.83301 28 14.5s7.66699 23.167 9 40.5h50c0 -36 -6.83301 -65 -20.5 -87s-34.5 -33 -62.5 -33c-13.333 0 -25.5 3 -36.5 9s-21.167 12.667 -30.5 20s-18.5 14 -27.5 20s-18.5 9 -28.5 9c-13.333 0 -22.5 -4.83301 -27.5 -14.5s-8.16699 -23.167 -9.5 -40.5
h-50z" />
    <glyph glyph-name="Adieresis" unicode="&#xc4;" horiz-adv-x="638" 
d="M364 630l262 -630h-92l-76 185h-287l-74 -185h-85l257 630h95zM198 254h232l-115 280h-4zM202 775h82v-94h-82v94zM340 775h81v-94h-81v94z" />
    <glyph glyph-name="Aring" unicode="&#xc5;" horiz-adv-x="638" 
d="M364 630l262 -630h-92l-76 185h-287l-74 -185h-85l257 630h95zM198 254h232l-115 280h-4zM223 744c0 23.333 8 43.166 24 59.499s37.333 24.5 64 24.5s48 -8.16699 64 -24.5s24 -36.166 24 -59.499c0 -24 -8 -44.167 -24 -60.5s-37.333 -24.5 -64 -24.5
s-48 8.16699 -64 24.5s-24 36.5 -24 60.5zM268 744c0 -13.333 3.66699 -24 11 -32s18 -12 32 -12s24.667 4 32 12s11 18.667 11 32c0 12.667 -3.66699 23 -11 31s-18 12 -32 12s-24.667 -4 -32 -12s-11 -18.333 -11 -31z" />
    <glyph glyph-name="AE" unicode="&#xc6;" horiz-adv-x="979" 
d="M932 630v-72h-356v-198h283v-71h-283v-217h365v-72h-449v190h-259l-129 -190h-92l430 630h490zM280 259h212v305h-4z" />
    <glyph glyph-name="Ccedilla" unicode="&#xc7;" horiz-adv-x="666" 
d="M461 -102c0 -13.333 -3.16992 -24.667 -9.50293 -34s-14.666 -16.833 -24.999 -22.5s-22.333 -9.83398 -36 -12.501s-27.5 -4 -41.5 -4c-24 0 -45.667 4 -65 12s-34.333 16.667 -45 26l17 32c10.667 -8 23.834 -15.333 39.501 -22s32.5 -10 50.5 -10
c15.333 0 27.5 2.33301 36.5 7s13.5 12.334 13.5 23.001c0 10 -2.83301 17.333 -8.5 22s-12.834 7.5 -21.501 8.5s-18 0.666992 -28 -1s-19 -4.5 -27 -8.5l-20 11l43 63c-42.667 0.666992 -82.5 9.16699 -119.5 25.5s-69 38.833 -96 67.5s-48.167 62.834 -63.5 102.501
s-23 83.5 -23 131.5c0 48.667 8 93 24 133s37.833 74.333 65.5 103s60.334 51 98.001 67s78.167 24 121.5 24c45.333 0 85.5 -6.66699 120.5 -20s64.833 -32 89.5 -56s44.167 -52.667 58.5 -86s22.833 -70.333 25.5 -111l-84 -4c-2 29.333 -7.83301 56.333 -17.5 81
s-23.334 46 -41.001 64s-39.167 32.167 -64.5 42.5s-54.333 15.5 -87 15.5c-32 0 -61.5 -5.83301 -88.5 -17.5s-50.167 -28.5 -69.5 -50.5s-34.5 -48.667 -45.5 -80s-16.5 -66.333 -16.5 -105s5.5 -73.667 16.5 -105s26.167 -58 45.5 -80s42.5 -38.833 69.5 -50.5
s56.5 -17.5 88.5 -17.5c32.667 0 61.667 5.16699 87 15.5s46.833 24.5 64.5 42.5s31.334 39.5 41.001 64.5s15.5 51.833 17.5 80.5l84 -4c-2.66699 -38 -10.334 -73 -23.001 -105s-30 -59.667 -52 -83s-48.667 -42.333 -80 -57s-67 -23.334 -107 -26.001l-26 -35
c14 4 27.833 5.83301 41.5 5.5s25.834 -2.83301 36.501 -7.5s19.334 -11.5 26.001 -20.5s10 -20.5 10 -34.5z" />
    <glyph glyph-name="Egrave" unicode="&#xc8;" horiz-adv-x="548" 
d="M267 676l-97 126h101l54 -126h-58zM510 0h-449v630h440v-72h-356v-198h283v-71h-283v-217h365v-72z" />
    <glyph glyph-name="Eacute" unicode="&#xc9;" horiz-adv-x="548" 
d="M258 676l54 126h101l-97 -126h-58zM510 0h-449v630h440v-72h-356v-198h283v-71h-283v-217h365v-72z" />
    <glyph glyph-name="Ecircumflex" unicode="&#xca;" horiz-adv-x="548" 
d="M510 0h-449v630h440v-72h-356v-198h283v-71h-283v-217h365v-72zM335 802l80 -126h-60l-68 74l-68 -74h-60l80 126h96z" />
    <glyph glyph-name="Edieresis" unicode="&#xcb;" horiz-adv-x="548" 
d="M178 775h82v-94h-82v94zM316 775h81v-94h-81v94zM510 0h-449v630h440v-72h-356v-198h283v-71h-283v-217h365v-72z" />
    <glyph glyph-name="Igrave" unicode="&#xcc;" horiz-adv-x="209" 
d="M148 630v-630h-87v630h87zM84 676l-97 126h101l54 -126h-58z" />
    <glyph glyph-name="Iacute" unicode="&#xcd;" horiz-adv-x="209" 
d="M148 630v-630h-87v630h87zM75 676l54 126h101l-97 -126h-58z" />
    <glyph glyph-name="Icircumflex" unicode="&#xce;" horiz-adv-x="209" 
d="M148 630v-630h-87v630h87zM152 802l80 -126h-60l-68 74l-68 -74h-60l80 126h96z" />
    <glyph glyph-name="Idieresis" unicode="&#xcf;" horiz-adv-x="209" 
d="M148 630v-630h-87v630h87zM-5 775h82v-94h-82v94zM133 775h81v-94h-81v94z" />
    <glyph glyph-name="Eth" unicode="&#xd0;" horiz-adv-x="662" 
d="M8 360h71v270h228c49.333 0 94 -7.16699 134 -21.5s74 -35 102 -62s49.5 -60 64.5 -99s22.5 -83.167 22.5 -132.5s-7.5 -93.5 -22.5 -132.5s-36.5 -72 -64.5 -99s-62 -47.667 -102 -62s-84.667 -21.5 -134 -21.5h-228v289h-71v71zM302 71c77.333 0 136.333 21.5 177 64.5
s61 102.833 61 179.5s-20.333 136.5 -61 179.5s-99.667 64.5 -177 64.5h-136v-199h171v-71h-171v-218h136z" />
    <glyph glyph-name="Ntilde" unicode="&#xd1;" horiz-adv-x="638" 
d="M181 675c0 36.667 6.83301 65.833 20.5 87.5s34.5 32.5 62.5 32.5c13.333 0 25.5 -3 36.5 -9s21.167 -12.667 30.5 -20s18.5 -14 27.5 -20s18.5 -9 28.5 -9c14 0 23.333 4.83301 28 14.5s7.66699 23.167 9 40.5h50c0 -36 -6.83301 -65 -20.5 -87s-34.5 -33 -62.5 -33
c-13.333 0 -25.5 3 -36.5 9s-21.167 12.667 -30.5 20s-18.5 14 -27.5 20s-18.5 9 -28.5 9c-13.333 0 -22.5 -4.83301 -27.5 -14.5s-8.16699 -23.167 -9.5 -40.5h-50zM496 147.999v482h81v-630h-69l-366 506v-506h-81v630h90z" />
    <glyph glyph-name="Ograve" unicode="&#xd2;" horiz-adv-x="689" 
d="M324 676l-97 126h101l54 -126h-58zM658 315c0 -48.667 -7.66699 -93 -23 -133s-36.833 -74.333 -64.5 -103s-60.667 -51 -99 -67s-80.5 -24 -126.5 -24s-88.167 8 -126.5 24s-71.333 38.333 -99 67s-49.167 63 -64.5 103s-23 84.333 -23 133s7.66699 93 23 133
s36.833 74.333 64.5 103s60.667 51 99 67s80.5 24 126.5 24s88.167 -8 126.5 -24s71.333 -38.333 99 -67s49.167 -63 64.5 -103s23 -84.333 23 -133zM568 315c0 38.667 -5.16699 73.5 -15.5 104.5s-25.333 57.5 -45 79.5s-43.167 39 -70.5 51s-58 18 -92 18
s-64.833 -6 -92.5 -18s-51.167 -29 -70.5 -51s-34.333 -48.5 -45 -79.5s-16 -65.833 -16 -104.5s5.33301 -73.5 16 -104.5s25.667 -57.5 45 -79.5s42.833 -39 70.5 -51s58.5 -18 92.5 -18s64.667 6 92 18s50.833 29 70.5 51s34.667 48.5 45 79.5s15.5 65.833 15.5 104.5z
" />
    <glyph glyph-name="Oacute" unicode="&#xd3;" horiz-adv-x="689" 
d="M315 676l54 126h101l-97 -126h-58zM658 315c0 -48.667 -7.66699 -93 -23 -133s-36.833 -74.333 -64.5 -103s-60.667 -51 -99 -67s-80.5 -24 -126.5 -24s-88.167 8 -126.5 24s-71.333 38.333 -99 67s-49.167 63 -64.5 103s-23 84.333 -23 133s7.66699 93 23 133
s36.833 74.333 64.5 103s60.667 51 99 67s80.5 24 126.5 24s88.167 -8 126.5 -24s71.333 -38.333 99 -67s49.167 -63 64.5 -103s23 -84.333 23 -133zM568 315c0 38.667 -5.16699 73.5 -15.5 104.5s-25.333 57.5 -45 79.5s-43.167 39 -70.5 51s-58 18 -92 18
s-64.833 -6 -92.5 -18s-51.167 -29 -70.5 -51s-34.333 -48.5 -45 -79.5s-16 -65.833 -16 -104.5s5.33301 -73.5 16 -104.5s25.667 -57.5 45 -79.5s42.833 -39 70.5 -51s58.5 -18 92.5 -18s64.667 6 92 18s50.833 29 70.5 51s34.667 48.5 45 79.5s15.5 65.833 15.5 104.5z
" />
    <glyph glyph-name="Ocircumflex" unicode="&#xd4;" horiz-adv-x="689" 
d="M658 315c0 -48.667 -7.66699 -93 -23 -133s-36.833 -74.333 -64.5 -103s-60.667 -51 -99 -67s-80.5 -24 -126.5 -24s-88.167 8 -126.5 24s-71.333 38.333 -99 67s-49.167 63 -64.5 103s-23 84.333 -23 133s7.66699 93 23 133s36.833 74.333 64.5 103s60.667 51 99 67
s80.5 24 126.5 24s88.167 -8 126.5 -24s71.333 -38.333 99 -67s49.167 -63 64.5 -103s23 -84.333 23 -133zM568 315c0 38.667 -5.16699 73.5 -15.5 104.5s-25.333 57.5 -45 79.5s-43.167 39 -70.5 51s-58 18 -92 18s-64.833 -6 -92.5 -18s-51.167 -29 -70.5 -51
s-34.333 -48.5 -45 -79.5s-16 -65.833 -16 -104.5s5.33301 -73.5 16 -104.5s25.667 -57.5 45 -79.5s42.833 -39 70.5 -51s58.5 -18 92.5 -18s64.667 6 92 18s50.833 29 70.5 51s34.667 48.5 45 79.5s15.5 65.833 15.5 104.5zM393 802l80 -126h-60l-68 74l-68 -74h-60l80 126
h96z" />
    <glyph glyph-name="Otilde" unicode="&#xd5;" horiz-adv-x="689" 
d="M198 675c0 36.667 6.83301 65.833 20.5 87.5s34.5 32.5 62.5 32.5c13.333 0 25.5 -3 36.5 -9s21.167 -12.667 30.5 -20s18.5 -14 27.5 -20s18.5 -9 28.5 -9c14 0 23.333 4.83301 28 14.5s7.66699 23.167 9 40.5h50c0 -36 -6.83301 -65 -20.5 -87s-34.5 -33 -62.5 -33
c-13.333 0 -25.5 3 -36.5 9s-21.167 12.667 -30.5 20s-18.5 14 -27.5 20s-18.5 9 -28.5 9c-13.333 0 -22.5 -4.83301 -27.5 -14.5s-8.16699 -23.167 -9.5 -40.5h-50zM658 314.999c0 -48.667 -7.66699 -93 -23 -133s-36.833 -74.333 -64.5 -103s-60.667 -51 -99 -67
s-80.5 -24 -126.5 -24s-88.167 8 -126.5 24s-71.333 38.333 -99 67s-49.167 63 -64.5 103s-23 84.333 -23 133s7.66699 93 23 133s36.833 74.333 64.5 103s60.667 51 99 67s80.5 24 126.5 24s88.167 -8 126.5 -24s71.333 -38.333 99 -67s49.167 -63 64.5 -103
s23 -84.333 23 -133zM568 314.999c0 38.667 -5.16699 73.5 -15.5 104.5s-25.333 57.5 -45 79.5s-43.167 39 -70.5 51s-58 18 -92 18s-64.833 -6 -92.5 -18s-51.167 -29 -70.5 -51s-34.333 -48.5 -45 -79.5s-16 -65.833 -16 -104.5s5.33301 -73.5 16 -104.5
s25.667 -57.5 45 -79.5s42.833 -39 70.5 -51s58.5 -18 92.5 -18s64.667 6 92 18s50.833 29 70.5 51s34.667 48.5 45 79.5s15.5 65.833 15.5 104.5z" />
    <glyph glyph-name="Odieresis" unicode="&#xd6;" horiz-adv-x="689" 
d="M235 775h82v-94h-82v94zM373 775h81v-94h-81v94zM658 315c0 -48.667 -7.66699 -93 -23 -133s-36.833 -74.333 -64.5 -103s-60.667 -51 -99 -67s-80.5 -24 -126.5 -24s-88.167 8 -126.5 24s-71.333 38.333 -99 67s-49.167 63 -64.5 103s-23 84.333 -23 133
s7.66699 93 23 133s36.833 74.333 64.5 103s60.667 51 99 67s80.5 24 126.5 24s88.167 -8 126.5 -24s71.333 -38.333 99 -67s49.167 -63 64.5 -103s23 -84.333 23 -133zM568 315c0 38.667 -5.16699 73.5 -15.5 104.5s-25.333 57.5 -45 79.5s-43.167 39 -70.5 51
s-58 18 -92 18s-64.833 -6 -92.5 -18s-51.167 -29 -70.5 -51s-34.333 -48.5 -45 -79.5s-16 -65.833 -16 -104.5s5.33301 -73.5 16 -104.5s25.667 -57.5 45 -79.5s42.833 -39 70.5 -51s58.5 -18 92.5 -18s64.667 6 92 18s50.833 29 70.5 51s34.667 48.5 45 79.5
s15.5 65.833 15.5 104.5z" />
    <glyph glyph-name="multiply" unicode="&#xd7;" horiz-adv-x="529" 
d="M55 470l49 49l159 -164l160 164l49 -49l-161 -162l161 -161l-49 -49l-160 163l-159 -163l-49 49l161 161z" />
    <glyph glyph-name="Oslash" unicode="&#xd8;" horiz-adv-x="689" 
d="M658 315c0 -48.667 -7.66699 -93 -23 -133s-36.833 -74.333 -64.5 -103s-60.667 -51 -99 -67s-80.5 -24 -126.5 -24c-35.333 0 -68.166 4.5 -98.499 13.5s-58.166 22.167 -83.499 39.5l-59 -74l-46 35l61 77c-28 28.667 -49.5 63 -64.5 103s-22.5 84.333 -22.5 133
s7.66699 93 23 133s36.833 74.333 64.5 103s60.667 51 99 67s80.5 24 126.5 24c35.333 0 68.166 -4.83301 98.499 -14.5s58.166 -23.167 83.499 -40.5l54 67l46 -35l-56 -69c28 -29.333 49.5 -63.833 64.5 -103.5s22.5 -83.5 22.5 -131.5zM121 315
c0 -35.333 4.33301 -67.333 13 -96s21 -53.667 37 -75l307 382c-36 28 -80.333 42 -133 42c-34 0 -64.833 -6 -92.5 -18s-51.167 -29 -70.5 -51s-34.333 -48.5 -45 -79.5s-16 -65.833 -16 -104.5zM568 315c0 34.667 -4.33301 66.168 -13 94.501s-20.667 53.166 -36 74.499
l-307 -381c36.667 -27.333 81 -41 133 -41c34 0 64.667 6 92 18s50.833 29 70.5 51s34.667 48.5 45 79.5s15.5 65.833 15.5 104.5z" />
    <glyph glyph-name="Ugrave" unicode="&#xd9;" horiz-adv-x="616" 
d="M288 676l-97 126h101l54 -126h-58zM308 -12c-35.333 0 -68.5 4.5 -99.5 13.5s-58 23.667 -81 44s-41.167 46.5 -54.5 78.5s-20 71 -20 117v389h86v-390c0 -60.667 14.333 -105.667 43 -135s70.667 -44 126 -44s97.666 14.667 126.999 44s44 74 44 134v391h85v-389
c0 -46 -6.66699 -85 -20 -117s-31.5 -58.167 -54.5 -78.5s-50.167 -35 -81.5 -44s-64.666 -13.5 -99.999 -13.5z" />
    <glyph glyph-name="Uacute" unicode="&#xda;" horiz-adv-x="616" 
d="M279 676l54 126h101l-97 -126h-58zM308 -12c-35.333 0 -68.5 4.5 -99.5 13.5s-58 23.667 -81 44s-41.167 46.5 -54.5 78.5s-20 71 -20 117v389h86v-390c0 -60.667 14.333 -105.667 43 -135s70.667 -44 126 -44s97.666 14.667 126.999 44s44 74 44 134v391h85v-389
c0 -46 -6.66699 -85 -20 -117s-31.5 -58.167 -54.5 -78.5s-50.167 -35 -81.5 -44s-64.666 -13.5 -99.999 -13.5z" />
    <glyph glyph-name="Ucircumflex" unicode="&#xdb;" horiz-adv-x="616" 
d="M308 -12c-35.333 0 -68.5 4.5 -99.5 13.5s-58 23.667 -81 44s-41.167 46.5 -54.5 78.5s-20 71 -20 117v389h86v-390c0 -60.667 14.333 -105.667 43 -135s70.667 -44 126 -44s97.666 14.667 126.999 44s44 74 44 134v391h85v-389c0 -46 -6.66699 -85 -20 -117
s-31.5 -58.167 -54.5 -78.5s-50.167 -35 -81.5 -44s-64.666 -13.5 -99.999 -13.5zM356 802l80 -126h-60l-68 74l-68 -74h-60l80 126h96z" />
    <glyph glyph-name="Udieresis" unicode="&#xdc;" horiz-adv-x="616" 
d="M199 775h82v-94h-82v94zM337 775h81v-94h-81v94zM308 -12c-35.333 0 -68.5 4.5 -99.5 13.5s-58 23.667 -81 44s-41.167 46.5 -54.5 78.5s-20 71 -20 117v389h86v-390c0 -60.667 14.333 -105.667 43 -135s70.667 -44 126 -44s97.666 14.667 126.999 44s44 74 44 134v391
h85v-389c0 -46 -6.66699 -85 -20 -117s-31.5 -58.167 -54.5 -78.5s-50.167 -35 -81.5 -44s-64.666 -13.5 -99.999 -13.5z" />
    <glyph glyph-name="Yacute" unicode="&#xdd;" horiz-adv-x="598" 
d="M494 630h92l-245 -383v-247h-83v247l-246 383h95l197 -302zM270 676l54 126h101l-97 -126h-58z" />
    <glyph glyph-name="Thorn" unicode="&#xde;" horiz-adv-x="548" 
d="M280 200c55.333 0 96.333 10.8311 123 32.498s40 52.834 40 93.501s-13.333 71.834 -40 93.501s-67.667 32.5 -123 32.5h-133v-252h133zM147 -0.00195312h-86v630h86v-107h135c78.667 0 139.167 -17.333 181.5 -52s63.5 -83 63.5 -145
c0 -62.667 -21.167 -111.167 -63.5 -145.5s-102.833 -51.5 -181.5 -51.5h-135v-129z" />
    <glyph glyph-name="germandbls" unicode="&#xdf;" horiz-adv-x="486" 
d="M422 486c0 -38 -9.83105 -68.166 -29.498 -90.499s-42.834 -36.5 -69.501 -42.5c42 -7.33301 75 -25.833 99 -55.5s36 -66.834 36 -111.501c0 -31.333 -5 -58.833 -15 -82.5s-23.5 -43.5 -40.5 -59.5s-36.833 -28 -59.5 -36s-46.334 -12 -71.001 -12
c-15.333 0 -28 1.16699 -38 3.5s-19.667 5.16602 -29 8.49902v64c9.33301 -3.33301 18.666 -6 27.999 -8s18.666 -3 27.999 -3c33.333 0 61.166 10.5 83.499 31.5s33.5 53.5 33.5 97.5c0 39.333 -12 70.333 -36 93s-56 33.667 -96 33h-21c-4.66699 0 -11 -0.333008 -19 -1
v67c6 -1.33301 11.667 -2 17 -2h21c32.667 0 57.334 8.83301 74.001 26.5s25 43.167 25 76.5c0 28 -8.16699 51.167 -24.5 69.5s-40.833 27.5 -73.5 27.5c-35.333 0 -61.666 -12.167 -78.999 -36.5s-26 -58.5 -26 -102.5v-441h-83v445c0 28.667 4.16699 55 12.5 79
s20.5 44.833 36.5 62.5s35.667 31.334 59 41.001s50 14.5 80 14.5c54.667 0 97.834 -14 129.501 -42s47.5 -66 47.5 -114z" />
    <glyph glyph-name="agrave" unicode="&#xe0;" horiz-adv-x="489" 
d="M329 216l-97.999 -21c-17.333 -4 -33 -7.83301 -47 -11.5s-25.833 -8.5 -35.5 -14.5s-17.167 -13.333 -22.5 -22s-8 -19.667 -8 -33c0 -18.667 6.16699 -34.167 18.5 -46.5s31.166 -18.5 56.499 -18.5c19.333 0 37.333 3.5 54 10.5s31 16.833 43 29.5s21.5 28 28.5 46
s10.5 38 10.5 60v21zM409.001 86c0 -22.667 11.335 -33.999 34.002 -33.999c5.33301 0 11.5 0.833008 18.5 2.5s13.5 4.16699 19.5 7.5v-45c-7.33301 -7.33301 -16 -13.5 -26 -18.5s-23.667 -7.5 -41 -7.5c-22.667 0 -41.334 7.83301 -56.001 23.5
s-23.334 36.5 -26.001 62.5c-12 -25.333 -32.167 -46.5 -60.5 -63.5s-60.5 -25.5 -96.5 -25.5c-42.667 0 -76.667 10.667 -102 32s-38 51 -38 89c0 20.667 4.16699 38.5 12.5 53.5s20.333 27.833 36 38.5s34.334 19.667 56.001 27s45.5 13.666 71.5 18.999l118 24v17
c0 30 -8.33301 53.667 -25 71s-40.334 26 -71.001 26c-32 0 -56.667 -8.33301 -74 -25s-29.333 -37.667 -36 -63l-74 10c8.66699 41.333 28.667 75.333 60 102s73 40 125 40c55.333 0 98.333 -13.833 129 -41.5s46 -69.5 46 -125.5v-196zM218.003 504.001l-97 126h101
l54 -126h-58z" />
    <glyph glyph-name="aacute" unicode="&#xe1;" horiz-adv-x="489" 
d="M329 216l-97.999 -21c-17.333 -4 -33 -7.83301 -47 -11.5s-25.833 -8.5 -35.5 -14.5s-17.167 -13.333 -22.5 -22s-8 -19.667 -8 -33c0 -18.667 6.16699 -34.167 18.5 -46.5s31.166 -18.5 56.499 -18.5c19.333 0 37.333 3.5 54 10.5s31 16.833 43 29.5s21.5 28 28.5 46
s10.5 38 10.5 60v21zM409.001 86c0 -22.667 11.335 -33.999 34.002 -33.999c5.33301 0 11.5 0.833008 18.5 2.5s13.5 4.16699 19.5 7.5v-45c-7.33301 -7.33301 -16 -13.5 -26 -18.5s-23.667 -7.5 -41 -7.5c-22.667 0 -41.334 7.83301 -56.001 23.5
s-23.334 36.5 -26.001 62.5c-12 -25.333 -32.167 -46.5 -60.5 -63.5s-60.5 -25.5 -96.5 -25.5c-42.667 0 -76.667 10.667 -102 32s-38 51 -38 89c0 20.667 4.16699 38.5 12.5 53.5s20.333 27.833 36 38.5s34.334 19.667 56.001 27s45.5 13.666 71.5 18.999l118 24v17
c0 30 -8.33301 53.667 -25 71s-40.334 26 -71.001 26c-32 0 -56.667 -8.33301 -74 -25s-29.333 -37.667 -36 -63l-74 10c8.66699 41.333 28.667 75.333 60 102s73 40 125 40c55.333 0 98.333 -13.833 129 -41.5s46 -69.5 46 -125.5v-196zM212.003 504.001l54 126h101
l-97 -126h-58z" />
    <glyph glyph-name="acircumflex" unicode="&#xe2;" horiz-adv-x="489" 
d="M329 216l-97.999 -21c-17.333 -4 -33 -7.83301 -47 -11.5s-25.833 -8.5 -35.5 -14.5s-17.167 -13.333 -22.5 -22s-8 -19.667 -8 -33c0 -18.667 6.16699 -34.167 18.5 -46.5s31.166 -18.5 56.499 -18.5c19.333 0 37.333 3.5 54 10.5s31 16.833 43 29.5s21.5 28 28.5 46
s10.5 38 10.5 60v21zM409.001 86c0 -22.667 11.335 -33.999 34.002 -33.999c5.33301 0 11.5 0.833008 18.5 2.5s13.5 4.16699 19.5 7.5v-45c-7.33301 -7.33301 -16 -13.5 -26 -18.5s-23.667 -7.5 -41 -7.5c-22.667 0 -41.334 7.83301 -56.001 23.5
s-23.334 36.5 -26.001 62.5c-12 -25.333 -32.167 -46.5 -60.5 -63.5s-60.5 -25.5 -96.5 -25.5c-42.667 0 -76.667 10.667 -102 32s-38 51 -38 89c0 20.667 4.16699 38.5 12.5 53.5s20.333 27.833 36 38.5s34.334 19.667 56.001 27s45.5 13.666 71.5 18.999l118 24v17
c0 30 -8.33301 53.667 -25 71s-40.334 26 -71.001 26c-32 0 -56.667 -8.33301 -74 -25s-29.333 -37.667 -36 -63l-74 10c8.66699 41.333 28.667 75.333 60 102s73 40 125 40c55.333 0 98.333 -13.833 129 -41.5s46 -69.5 46 -125.5v-196zM287.003 630.001l80 -126h-60
l-68 74l-68 -74h-60l80 126h96z" />
    <glyph glyph-name="atilde" unicode="&#xe3;" horiz-adv-x="489" 
d="M329 216l-97.999 -21c-17.333 -4 -33 -7.83301 -47 -11.5s-25.833 -8.5 -35.5 -14.5s-17.167 -13.333 -22.5 -22s-8 -19.667 -8 -33c0 -18.667 6.16699 -34.167 18.5 -46.5s31.166 -18.5 56.499 -18.5c19.333 0 37.333 3.5 54 10.5s31 16.833 43 29.5s21.5 28 28.5 46
s10.5 38 10.5 60v21zM409.001 86c0 -22.667 11.335 -33.999 34.002 -33.999c5.33301 0 11.5 0.833008 18.5 2.5s13.5 4.16699 19.5 7.5v-45c-7.33301 -7.33301 -16 -13.5 -26 -18.5s-23.667 -7.5 -41 -7.5c-22.667 0 -41.334 7.83301 -56.001 23.5
s-23.334 36.5 -26.001 62.5c-12 -25.333 -32.167 -46.5 -60.5 -63.5s-60.5 -25.5 -96.5 -25.5c-42.667 0 -76.667 10.667 -102 32s-38 51 -38 89c0 20.667 4.16699 38.5 12.5 53.5s20.333 27.833 36 38.5s34.334 19.667 56.001 27s45.5 13.666 71.5 18.999l118 24v17
c0 30 -8.33301 53.667 -25 71s-40.334 26 -71.001 26c-32 0 -56.667 -8.33301 -74 -25s-29.333 -37.667 -36 -63l-74 10c8.66699 41.333 28.667 75.333 60 102s73 40 125 40c55.333 0 98.333 -13.833 129 -41.5s46 -69.5 46 -125.5v-196zM96.0029 506.001
c0 36 6.83301 65.001 20.5 87.001s34.5 33 62.5 33c13.333 0 25.5 -3 36.5 -9s21.167 -12.667 30.5 -20s18.5 -14 27.5 -20s18.5 -9 28.5 -9c14 0 23.333 4.83301 28 14.5s7.66699 23.167 9 40.5h50c0 -36.667 -6.83301 -65.834 -20.5 -87.501s-34.5 -32.5 -62.5 -32.5
c-13.333 0 -25.5 3 -36.5 9s-21.167 12.667 -30.5 20s-18.5 14 -27.5 20s-18.5 9 -28.5 9c-13.333 0 -22.5 -4.83301 -27.5 -14.5s-8.16699 -23.167 -9.5 -40.5h-50z" />
    <glyph glyph-name="adieresis" unicode="&#xe4;" horiz-adv-x="489" 
d="M329 216l-97.999 -21c-17.333 -4 -33 -7.83301 -47 -11.5s-25.833 -8.5 -35.5 -14.5s-17.167 -13.333 -22.5 -22s-8 -19.667 -8 -33c0 -18.667 6.16699 -34.167 18.5 -46.5s31.166 -18.5 56.499 -18.5c19.333 0 37.333 3.5 54 10.5s31 16.833 43 29.5s21.5 28 28.5 46
s10.5 38 10.5 60v21zM409.001 86c0 -22.667 11.335 -33.999 34.002 -33.999c5.33301 0 11.5 0.833008 18.5 2.5s13.5 4.16699 19.5 7.5v-45c-7.33301 -7.33301 -16 -13.5 -26 -18.5s-23.667 -7.5 -41 -7.5c-22.667 0 -41.334 7.83301 -56.001 23.5
s-23.334 36.5 -26.001 62.5c-12 -25.333 -32.167 -46.5 -60.5 -63.5s-60.5 -25.5 -96.5 -25.5c-42.667 0 -76.667 10.667 -102 32s-38 51 -38 89c0 20.667 4.16699 38.5 12.5 53.5s20.333 27.833 36 38.5s34.334 19.667 56.001 27s45.5 13.666 71.5 18.999l118 24v17
c0 30 -8.33301 53.667 -25 71s-40.334 26 -71.001 26c-32 0 -56.667 -8.33301 -74 -25s-29.333 -37.667 -36 -63l-74 10c8.66699 41.333 28.667 75.333 60 102s73 40 125 40c55.333 0 98.333 -13.833 129 -41.5s46 -69.5 46 -125.5v-196zM130.003 622.001h82v-94h-82v94z
M268.003 622.001h81v-94h-81v94z" />
    <glyph glyph-name="aring" unicode="&#xe5;" horiz-adv-x="489" 
d="M329 216l-97.999 -21c-17.333 -4 -33 -7.83301 -47 -11.5s-25.833 -8.5 -35.5 -14.5s-17.167 -13.333 -22.5 -22s-8 -19.667 -8 -33c0 -18.667 6.16699 -34.167 18.5 -46.5s31.166 -18.5 56.499 -18.5c19.333 0 37.333 3.5 54 10.5s31 16.833 43 29.5s21.5 28 28.5 46
s10.5 38 10.5 60v21zM409.001 86c0 -22.667 11.335 -33.999 34.002 -33.999c5.33301 0 11.5 0.833008 18.5 2.5s13.5 4.16699 19.5 7.5v-45c-7.33301 -7.33301 -16 -13.5 -26 -18.5s-23.667 -7.5 -41 -7.5c-22.667 0 -41.334 7.83301 -56.001 23.5
s-23.334 36.5 -26.001 62.5c-12 -25.333 -32.167 -46.5 -60.5 -63.5s-60.5 -25.5 -96.5 -25.5c-42.667 0 -76.667 10.667 -102 32s-38 51 -38 89c0 20.667 4.16699 38.5 12.5 53.5s20.333 27.833 36 38.5s34.334 19.667 56.001 27s45.5 13.666 71.5 18.999l118 24v17
c0 30 -8.33301 53.667 -25 71s-40.334 26 -71.001 26c-32 0 -56.667 -8.33301 -74 -25s-29.333 -37.667 -36 -63l-74 10c8.66699 41.333 28.667 75.333 60 102s73 40 125 40c55.333 0 98.333 -13.833 129 -41.5s46 -69.5 46 -125.5v-196zM196.003 572.001
c0 -13.333 3.66699 -24 11 -32s18 -12 32 -12s24.667 4 32 12s11 18.667 11 32c0 12.667 -3.66699 23 -11 31s-18 12 -32 12s-24.667 -4 -32 -12s-11 -18.333 -11 -31zM151.003 572.001c0 23.333 8 43.166 24 59.499s37.333 24.5 64 24.5s48 -8.16699 64 -24.5
s24 -36.166 24 -59.499c0 -24 -8 -44.167 -24 -60.5s-37.333 -24.5 -64 -24.5s-48 8.16699 -64 24.5s-24 36.5 -24 60.5z" />
    <glyph glyph-name="ae" unicode="&#xe6;" horiz-adv-x="776" 
d="M231 449c72.667 0 121.333 -25.999 146 -77.999c18 23.333 40.833 42.166 68.5 56.499s58.167 21.5 91.5 21.5c34.667 0 65 -5.83301 91 -17.5s47.833 -27.334 65.5 -47.001s30.834 -42.667 39.501 -69s13 -54.5 13 -84.5v-33h-348
c1.33301 -23.333 6.16602 -44 14.499 -62s19 -33.167 32 -45.5s27.833 -21.666 44.5 -27.999s34.334 -9.5 53.001 -9.5c72 0 116.667 34.333 134 103l69 -8c-10.667 -50 -33.834 -89.167 -69.501 -117.5s-80.5 -42.5 -134.5 -42.5c-42.667 0 -79.167 8.83301 -109.5 26.5
s-54.5 42.5 -72.5 74.5c-6.66699 -12.667 -15.167 -25.167 -25.5 -37.5s-22.833 -23.166 -37.5 -32.499s-31.167 -16.833 -49.5 -22.5s-38.5 -8.5 -60.5 -8.5c-48 0 -85.167 11 -111.5 33s-39.5 52 -39.5 90c0 43.333 17.333 77.666 52 102.999s92.334 38 173.001 38h72v29
c0 34 -8.83301 59.833 -26.5 77.5s-41.834 26.5 -72.501 26.5c-32 0 -57 -8.16699 -75 -24.5s-30.333 -37.166 -37 -62.499l-71 10c8 41.333 28 75.166 60 101.499s72.333 39.5 121 39.5zM194.999 48.001c18 0 35.166 2.83203 51.499 8.49902s30.833 14.334 43.5 26.001
s22.834 26 30.501 43s11.5 36.5 11.5 58.5v14h-69c-28 0 -51.333 -1.83301 -70 -5.5s-33.5 -9 -44.5 -16s-18.833 -15.5 -23.5 -25.5s-7 -21.667 -7 -35c0 -19.333 6.33301 -35.5 19 -48.5s32 -19.5 58 -19.5zM536.998 386c-36 0 -66.332 -12.3301 -90.999 -36.9971
s-40 -57 -46 -97h262c-0.666992 17.333 -3.83398 34.166 -9.50098 50.499s-13.667 30.666 -24 42.999s-23 22.166 -38 29.499s-32.833 11 -53.5 11z" />
    <glyph glyph-name="ccedilla" unicode="&#xe7;" horiz-adv-x="487" 
d="M358 -102c0 -13.333 -3.17188 -24.6699 -9.50488 -34.0029s-14.666 -16.833 -24.999 -22.5s-22.333 -9.83398 -36 -12.501s-27.5 -4 -41.5 -4c-24 0 -45.667 4 -65 12s-34.333 16.667 -45 26l17 32c10.667 -8 23.834 -15.333 39.501 -22s32.5 -10 50.5 -10
c15.333 0 27.5 2.33301 36.5 7s13.5 12.334 13.5 23.001c0 10 -2.83301 17.333 -8.5 22s-12.834 7.5 -21.501 8.5s-18 0.666992 -28 -1s-19 -4.5 -27 -8.5l-20 11l43 64c-30 2 -57.333 9 -82 21s-46 27.833 -64 47.5s-31.833 43.167 -41.5 70.5s-14.5 57.333 -14.5 90
c0 34.667 5.5 66.167 16.5 94.5s26.333 52.666 46 72.999s43.334 36 71.001 47s57.834 16.5 90.501 16.5c32 0 60.333 -5 85 -15s45.5 -23.667 62.5 -41s30.5 -37.666 40.5 -60.999s16 -48 18 -74l-73 -5c-3.33301 38.667 -16.333 69.834 -39 93.501
s-54.334 35.5 -95.001 35.5c-41.333 0 -74.666 -14.667 -99.999 -44s-38 -69.333 -38 -120s12.667 -90.667 38 -120s58.666 -44 99.999 -44c40.667 0 72.334 12.333 95.001 37s35.667 56.334 39 95.001l73 -7c-2 -25.333 -7.5 -49.166 -16.5 -71.499s-21.5 -42 -37.5 -59
s-35.333 -30.667 -58 -41s-48.667 -16.5 -78 -18.5l-25 -34c14 4 27.833 5.83301 41.5 5.5s25.834 -2.83301 36.501 -7.5s19.334 -11.5 26.001 -20.5s10 -20.5 10 -34.5z" />
    <glyph glyph-name="egrave" unicode="&#xe8;" horiz-adv-x="489" 
d="M458 147c-11.333 -50 -34.501 -88.999 -69.501 -116.999s-79.833 -42 -134.5 -42c-32.667 0 -62.667 5.33301 -90 16s-51 25.667 -71 45s-35.667 42.833 -47 70.5s-17 58.5 -17 92.5c0 34.667 5.66699 66.5 17 95.5s26.833 54 46.5 75s43 37.333 70 49
s56.167 17.5 87.5 17.5c34.667 0 65.167 -5.83301 91.5 -17.5s48.166 -27.334 65.499 -47.001s30.5 -42.667 39.5 -69s13.5 -54.5 13.5 -84.5v-33h-348c1.33301 -21.333 5.83301 -40.833 13.5 -58.5s17.834 -33 30.501 -46s27.5 -23 44.5 -30s35.167 -10.5 54.5 -10.5
c36.667 0 65.834 8.5 87.501 25.5s37.167 42.5 46.5 76.5zM374.999 252.001c-0.666992 17.333 -3.66895 34.1689 -9.00195 50.502s-13.166 30.666 -23.499 42.999s-23.166 22.166 -38.499 29.499s-33.333 11 -54 11c-20 0 -37.833 -3.66699 -53.5 -11s-29.167 -17 -40.5 -29
s-20.5 -26.167 -27.5 -42.5s-11.833 -33.5 -14.5 -51.5h261zM230.997 504.004l-97 126h101l54 -126h-58z" />
    <glyph glyph-name="eacute" unicode="&#xe9;" horiz-adv-x="489" 
d="M218 504l54 126h101l-97 -126h-58zM458 147c-11.333 -50 -34.501 -88.999 -69.501 -116.999s-79.833 -42 -134.5 -42c-32.667 0 -62.667 5.33301 -90 16s-51 25.667 -71 45s-35.667 42.833 -47 70.5s-17 58.5 -17 92.5c0 34.667 5.66699 66.5 17 95.5s26.833 54 46.5 75
s43 37.333 70 49s56.167 17.5 87.5 17.5c34.667 0 65.167 -5.83301 91.5 -17.5s48.166 -27.334 65.499 -47.001s30.5 -42.667 39.5 -69s13.5 -54.5 13.5 -84.5v-33h-348c1.33301 -21.333 5.83301 -40.833 13.5 -58.5s17.834 -33 30.501 -46s27.5 -23 44.5 -30
s35.167 -10.5 54.5 -10.5c36.667 0 65.834 8.5 87.501 25.5s37.167 42.5 46.5 76.5zM374.999 252.001c-0.666992 17.333 -3.66895 34.1689 -9.00195 50.502s-13.166 30.666 -23.499 42.999s-23.166 22.166 -38.499 29.499s-33.333 11 -54 11
c-20 0 -37.833 -3.66699 -53.5 -11s-29.167 -17 -40.5 -29s-20.5 -26.167 -27.5 -42.5s-11.833 -33.5 -14.5 -51.5h261z" />
    <glyph glyph-name="ecircumflex" unicode="&#xea;" horiz-adv-x="489" 
d="M299 630l80 -126h-60l-68 74l-68 -74h-60l80 126h96zM458 147c-11.333 -50 -34.501 -88.999 -69.501 -116.999s-79.833 -42 -134.5 -42c-32.667 0 -62.667 5.33301 -90 16s-51 25.667 -71 45s-35.667 42.833 -47 70.5s-17 58.5 -17 92.5c0 34.667 5.66699 66.5 17 95.5
s26.833 54 46.5 75s43 37.333 70 49s56.167 17.5 87.5 17.5c34.667 0 65.167 -5.83301 91.5 -17.5s48.166 -27.334 65.499 -47.001s30.5 -42.667 39.5 -69s13.5 -54.5 13.5 -84.5v-33h-348c1.33301 -21.333 5.83301 -40.833 13.5 -58.5s17.834 -33 30.501 -46
s27.5 -23 44.5 -30s35.167 -10.5 54.5 -10.5c36.667 0 65.834 8.5 87.501 25.5s37.167 42.5 46.5 76.5zM374.999 252.001c-0.666992 17.333 -3.66895 34.1689 -9.00195 50.502s-13.166 30.666 -23.499 42.999s-23.166 22.166 -38.499 29.499s-33.333 11 -54 11
c-20 0 -37.833 -3.66699 -53.5 -11s-29.167 -17 -40.5 -29s-20.5 -26.167 -27.5 -42.5s-11.833 -33.5 -14.5 -51.5h261z" />
    <glyph glyph-name="edieresis" unicode="&#xeb;" horiz-adv-x="489" 
d="M142 622h82v-94h-82v94zM280 622h81v-94h-81v94zM458 147c-11.333 -50 -34.501 -88.999 -69.501 -116.999s-79.833 -42 -134.5 -42c-32.667 0 -62.667 5.33301 -90 16s-51 25.667 -71 45s-35.667 42.833 -47 70.5s-17 58.5 -17 92.5c0 34.667 5.66699 66.5 17 95.5
s26.833 54 46.5 75s43 37.333 70 49s56.167 17.5 87.5 17.5c34.667 0 65.167 -5.83301 91.5 -17.5s48.166 -27.334 65.499 -47.001s30.5 -42.667 39.5 -69s13.5 -54.5 13.5 -84.5v-33h-348c1.33301 -21.333 5.83301 -40.833 13.5 -58.5s17.834 -33 30.501 -46
s27.5 -23 44.5 -30s35.167 -10.5 54.5 -10.5c36.667 0 65.834 8.5 87.501 25.5s37.167 42.5 46.5 76.5zM374.999 252.001c-0.666992 17.333 -3.66895 34.1689 -9.00195 50.502s-13.166 30.666 -23.499 42.999s-23.166 22.166 -38.499 29.499s-33.333 11 -54 11
c-20 0 -37.833 -3.66699 -53.5 -11s-29.167 -17 -40.5 -29s-20.5 -26.167 -27.5 -42.5s-11.833 -33.5 -14.5 -51.5h261z" />
    <glyph glyph-name="igrave" unicode="&#xec;" horiz-adv-x="196" 
d="M140 437v-437h-83v437h83zM76 504l-97 126h101l54 -126h-58z" />
    <glyph glyph-name="iacute" unicode="&#xed;" horiz-adv-x="196" 
d="M70 504l54 126h101l-97 -126h-58zM140 437v-437h-83v437h83z" />
    <glyph glyph-name="icircumflex" unicode="&#xee;" horiz-adv-x="196" 
d="M146 630l80 -126h-60l-68 74l-68 -74h-60l80 126h96zM140 437v-437h-83v437h83z" />
    <glyph glyph-name="idieresis" unicode="&#xef;" horiz-adv-x="196" 
d="M-12 622h82v-94h-82v94zM126 622h81v-94h-81v94zM140 437v-437h-83v437h83z" />
    <glyph glyph-name="eth" unicode="&#xf0;" 
d="M123 508l103.998 38c-13.333 10 -27.166 19.667 -41.499 29l-44.5 28l55 40c39.333 -20.667 74.333 -43.667 105 -69l80 30l22 -44l-61 -23c42 -41.333 74.167 -87.166 96.5 -137.499s33.5 -106.833 33.5 -169.5c0 -39.333 -5.5 -74 -16.5 -104
s-26.167 -55.333 -45.5 -76s-42.666 -36.167 -69.999 -46.5s-57 -15.5 -89 -15.5s-61.667 5.33301 -89 16s-50.833 25.834 -70.5 45.501s-35.167 43.167 -46.5 70.5s-17 58 -17 92s5.66699 64.667 17 92s26.666 50.666 45.999 69.999s42.333 34.166 69 44.499
s55 15.5 85 15.5c28 0 54 -6.66699 78 -20s44.333 -32 61 -56c-9.33301 25.333 -23.666 51 -42.999 77s-43 51.333 -71 76l-127 -47zM250.998 53c44 0 78.167 14.667 102.5 44s36.5 67.666 36.5 114.999c0 48 -12.167 86.667 -36.5 116s-58.5 44 -102.5 44
s-78 -14.667 -102 -44s-36 -68 -36 -116c0 -47.333 12 -85.666 36 -114.999s58 -44 102 -44z" />
    <glyph glyph-name="ntilde" unicode="&#xf1;" horiz-adv-x="496" 
d="M140 0l-83.002 -0.000976562v437h83v-78c10.667 26.667 29.334 48.334 56.001 65.001s56.334 25 89.001 25c28.667 0 53 -4.5 73 -13.5s36.5 -21.5 49.5 -37.5s22.5 -34.833 28.5 -56.5s9 -45.167 9 -70.5v-271h-83v264c0 36.667 -8.66699 65.667 -26 87
s-43.333 32 -78 32c-33.333 0 -61.333 -12 -84 -36s-34 -56 -34 -96v-251zM109.998 505.999c0 36 6.83301 65.001 20.5 87.001s34.5 33 62.5 33c13.333 0 25.5 -3 36.5 -9s21.167 -12.667 30.5 -20s18.5 -14 27.5 -20s18.5 -9 28.5 -9c14 0 23.333 4.83301 28 14.5
s7.66699 23.167 9 40.5h50c0 -36.667 -6.83301 -65.834 -20.5 -87.501s-34.5 -32.5 -62.5 -32.5c-13.333 0 -25.5 3 -36.5 9s-21.167 12.667 -30.5 20s-18.5 14 -27.5 20s-18.5 9 -28.5 9c-13.333 0 -22.5 -4.83301 -27.5 -14.5s-8.16699 -23.167 -9.5 -40.5h-50z" />
    <glyph glyph-name="ograve" unicode="&#xf2;" horiz-adv-x="504" 
d="M114 218c0 -48.667 11.833 -88.5 35.5 -119.5s57.5 -46.5 101.5 -46.5c44.667 0 79 15.5 103 46.5s36 70.833 36 119.5c0 49.333 -12 89.333 -36 120s-58.333 46 -103 46c-44 0 -77.833 -15.333 -101.5 -46s-35.5 -70.667 -35.5 -120zM475 218
c0 -34 -5.66699 -65.167 -17 -93.5s-27 -52.5 -47 -72.5s-43.667 -35.667 -71 -47s-57 -17 -89 -17s-61.5 5.66699 -88.5 17s-50.5 27 -70.5 47s-35.5 44.167 -46.5 72.5s-16.5 59.5 -16.5 93.5s5.5 65.167 16.5 93.5s26.5 52.666 46.5 72.999s43.5 36.166 70.5 47.499
s56.5 17 88.5 17s61.667 -5.66699 89 -17s51 -27.166 71 -47.499s35.667 -44.666 47 -72.999s17 -59.5 17 -93.5zM230 504l-97 126h101l54 -126h-58z" />
    <glyph glyph-name="oacute" unicode="&#xf3;" horiz-adv-x="504" 
d="M224 504l54 126h101l-97 -126h-58zM114 218c0 -48.667 11.833 -88.5 35.5 -119.5s57.5 -46.5 101.5 -46.5c44.667 0 79 15.5 103 46.5s36 70.833 36 119.5c0 49.333 -12 89.333 -36 120s-58.333 46 -103 46c-44 0 -77.833 -15.333 -101.5 -46s-35.5 -70.667 -35.5 -120z
M475 218c0 -34 -5.66699 -65.167 -17 -93.5s-27 -52.5 -47 -72.5s-43.667 -35.667 -71 -47s-57 -17 -89 -17s-61.5 5.66699 -88.5 17s-50.5 27 -70.5 47s-35.5 44.167 -46.5 72.5s-16.5 59.5 -16.5 93.5s5.5 65.167 16.5 93.5s26.5 52.666 46.5 72.999
s43.5 36.166 70.5 47.499s56.5 17 88.5 17s61.667 -5.66699 89 -17s51 -27.166 71 -47.499s35.667 -44.666 47 -72.999s17 -59.5 17 -93.5z" />
    <glyph glyph-name="ocircumflex" unicode="&#xf4;" horiz-adv-x="504" 
d="M299 630l80 -126h-60l-68 74l-68 -74h-60l80 126h96zM114 218c0 -48.667 11.833 -88.5 35.5 -119.5s57.5 -46.5 101.5 -46.5c44.667 0 79 15.5 103 46.5s36 70.833 36 119.5c0 49.333 -12 89.333 -36 120s-58.333 46 -103 46c-44 0 -77.833 -15.333 -101.5 -46
s-35.5 -70.667 -35.5 -120zM475 218c0 -34 -5.66699 -65.167 -17 -93.5s-27 -52.5 -47 -72.5s-43.667 -35.667 -71 -47s-57 -17 -89 -17s-61.5 5.66699 -88.5 17s-50.5 27 -70.5 47s-35.5 44.167 -46.5 72.5s-16.5 59.5 -16.5 93.5s5.5 65.167 16.5 93.5
s26.5 52.666 46.5 72.999s43.5 36.166 70.5 47.499s56.5 17 88.5 17s61.667 -5.66699 89 -17s51 -27.166 71 -47.499s35.667 -44.666 47 -72.999s17 -59.5 17 -93.5z" />
    <glyph glyph-name="otilde" unicode="&#xf5;" horiz-adv-x="504" 
d="M114 218c0 -48.667 11.833 -88.5 35.5 -119.5s57.5 -46.5 101.5 -46.5c44.667 0 79 15.5 103 46.5s36 70.833 36 119.5c0 49.333 -12 89.333 -36 120s-58.333 46 -103 46c-44 0 -77.833 -15.333 -101.5 -46s-35.5 -70.667 -35.5 -120zM475 218
c0 -34 -5.66699 -65.167 -17 -93.5s-27 -52.5 -47 -72.5s-43.667 -35.667 -71 -47s-57 -17 -89 -17s-61.5 5.66699 -88.5 17s-50.5 27 -70.5 47s-35.5 44.167 -46.5 72.5s-16.5 59.5 -16.5 93.5s5.5 65.167 16.5 93.5s26.5 52.666 46.5 72.999s43.5 36.166 70.5 47.499
s56.5 17 88.5 17s61.667 -5.66699 89 -17s51 -27.166 71 -47.499s35.667 -44.666 47 -72.999s17 -59.5 17 -93.5zM110 506c0 36 6.83301 65.001 20.5 87.001s34.5 33 62.5 33c13.333 0 25.5 -3 36.5 -9s21.167 -12.667 30.5 -20s18.5 -14 27.5 -20s18.5 -9 28.5 -9
c14 0 23.333 4.83301 28 14.5s7.66699 23.167 9 40.5h50c0 -36.667 -6.83301 -65.834 -20.5 -87.501s-34.5 -32.5 -62.5 -32.5c-13.333 0 -25.5 3 -36.5 9s-21.167 12.667 -30.5 20s-18.5 14 -27.5 20s-18.5 9 -28.5 9c-13.333 0 -22.5 -4.83301 -27.5 -14.5
s-8.16699 -23.167 -9.5 -40.5h-50z" />
    <glyph glyph-name="odieresis" unicode="&#xf6;" horiz-adv-x="504" 
d="M142 622h82v-94h-82v94zM280 622h81v-94h-81v94zM114 218c0 -48.667 11.833 -88.5 35.5 -119.5s57.5 -46.5 101.5 -46.5c44.667 0 79 15.5 103 46.5s36 70.833 36 119.5c0 49.333 -12 89.333 -36 120s-58.333 46 -103 46c-44 0 -77.833 -15.333 -101.5 -46
s-35.5 -70.667 -35.5 -120zM475 218c0 -34 -5.66699 -65.167 -17 -93.5s-27 -52.5 -47 -72.5s-43.667 -35.667 -71 -47s-57 -17 -89 -17s-61.5 5.66699 -88.5 17s-50.5 27 -70.5 47s-35.5 44.167 -46.5 72.5s-16.5 59.5 -16.5 93.5s5.5 65.167 16.5 93.5
s26.5 52.666 46.5 72.999s43.5 36.166 70.5 47.499s56.5 17 88.5 17s61.667 -5.66699 89 -17s51 -27.166 71 -47.499s35.667 -44.666 47 -72.999s17 -59.5 17 -93.5z" />
    <glyph glyph-name="divide" unicode="&#xf7;" horiz-adv-x="618" 
d="M54 347h511v-70h-511v70zM258 571h104v-102h-104v102zM258 154h104v-101h-104v101z" />
    <glyph glyph-name="oslash" unicode="&#xf8;" horiz-adv-x="504" 
d="M475 218c0 -34 -5.66699 -65.165 -17 -93.498s-27 -52.5 -47 -72.5s-43.667 -35.667 -71 -47s-57 -17 -89 -17c-50 0 -92.667 12.667 -128 38l-50 -59l-39 32l51 60c-18 20 -31.833 43.5 -41.5 70.5s-14.5 56.5 -14.5 88.5c0 34 5.5 65.167 16.5 93.5
s26.5 52.666 46.5 72.999s43.5 36.166 70.5 47.499s56.5 17 88.5 17c25.333 0 48.833 -3.5 70.5 -10.5s41.5 -16.833 59.5 -29.5l51 60l39 -31l-52 -62c17.333 -20 31 -43.333 41 -70s15 -56 15 -88zM112 218.002c0 -39.333 7.66699 -72.667 23 -100l201 238
c-22.667 18.667 -51 28 -85 28c-44.667 0 -79 -15.333 -103 -46s-36 -70.667 -36 -120zM392 218.001c0 38.667 -7.66406 71.668 -22.9971 99.001l-201 -238c11.333 -8.66699 23.666 -15.334 36.999 -20.001s28.666 -7 45.999 -7c45.333 0 80.166 15.5 104.499 46.5
s36.5 70.833 36.5 119.5z" />
    <glyph glyph-name="ugrave" unicode="&#xf9;" horiz-adv-x="491" 
d="M351 437h83.002v-437h-83v77c-10.667 -26 -28.834 -47.333 -54.501 -64s-55.167 -25 -88.5 -25c-28.667 0 -52.834 4.5 -72.501 13.5s-35.667 21.333 -48 37s-21.333 34.334 -27 56.001s-8.5 45.167 -8.5 70.5v272h83v-264c0 -36.667 8.16699 -65.834 24.5 -87.501
s41.833 -32.5 76.5 -32.5c32.667 0 60 12 82 36s33 56.333 33 97v251zM224.002 504l-97 126h101l54 -126h-58z" />
    <glyph glyph-name="uacute" unicode="&#xfa;" horiz-adv-x="491" 
d="M218 504l54 126h101l-97 -126h-58zM351 437h83.002v-437h-83v77c-10.667 -26 -28.834 -47.333 -54.501 -64s-55.167 -25 -88.5 -25c-28.667 0 -52.834 4.5 -72.501 13.5s-35.667 21.333 -48 37s-21.333 34.334 -27 56.001s-8.5 45.167 -8.5 70.5v272h83v-264
c0 -36.667 8.16699 -65.834 24.5 -87.501s41.833 -32.5 76.5 -32.5c32.667 0 60 12 82 36s33 56.333 33 97v251z" />
    <glyph glyph-name="ucircumflex" unicode="&#xfb;" horiz-adv-x="491" 
d="M294 630l80 -126h-60l-68 74l-68 -74h-60l80 126h96zM351 437h83.002v-437h-83v77c-10.667 -26 -28.834 -47.333 -54.501 -64s-55.167 -25 -88.5 -25c-28.667 0 -52.834 4.5 -72.501 13.5s-35.667 21.333 -48 37s-21.333 34.334 -27 56.001s-8.5 45.167 -8.5 70.5v272h83
v-264c0 -36.667 8.16699 -65.834 24.5 -87.501s41.833 -32.5 76.5 -32.5c32.667 0 60 12 82 36s33 56.333 33 97v251z" />
    <glyph glyph-name="udieresis" unicode="&#xfc;" horiz-adv-x="491" 
d="M136 622h82v-94h-82v94zM274 622h81v-94h-81v94zM351 437h83.002v-437h-83v77c-10.667 -26 -28.834 -47.333 -54.501 -64s-55.167 -25 -88.5 -25c-28.667 0 -52.834 4.5 -72.501 13.5s-35.667 21.333 -48 37s-21.333 34.334 -27 56.001s-8.5 45.167 -8.5 70.5v272h83
v-264c0 -36.667 8.16699 -65.834 24.5 -87.501s41.833 -32.5 76.5 -32.5c32.667 0 60 12 82 36s33 56.333 33 97v251z" />
    <glyph glyph-name="yacute" unicode="&#xfd;" horiz-adv-x="460" 
d="M120 -168l71 169l-184 436h87l139 -336h4l134 336h82l-252 -605h-81zM202 504l54 126h101l-97 -126h-58z" />
    <glyph glyph-name="thorn" unicode="&#xfe;" horiz-adv-x="526" 
d="M138 206c0 -24 3.66699 -45.333 11 -64s17.166 -34.5 29.499 -47.5s27 -23 44 -30s35.5 -10.5 55.5 -10.5c43.333 0 76.333 14.833 99 44.5s34 69.5 34 119.5s-11.333 89.833 -34 119.5s-55.667 44.5 -99 44.5c-20 0 -38.5 -3.33301 -55.5 -10s-31.667 -16.5 -44 -29.5
s-22.166 -28.833 -29.499 -47.5s-11 -40 -11 -64v-25zM140 -168l-83 -0.00195312v798h83v-285c4.66699 13.333 11.667 26.333 21 39s20.666 23.834 33.999 33.501s28.5 17.334 45.5 23.001s35.833 8.5 56.5 8.5c32 0 60.5 -6 85.5 -18s46 -28.333 63 -49
s29.833 -45.167 38.5 -73.5s13 -58.5 13 -90.5s-4.33301 -62 -13 -90s-21.5 -52.333 -38.5 -73s-38 -37 -63 -49s-53.5 -18 -85.5 -18c-20.667 0 -39.5 2.83301 -56.5 8.5s-32.167 13.334 -45.5 23.001s-24.666 20.667 -33.999 33s-16.333 25.166 -21 38.499v-259z" />
    <glyph glyph-name="ydieresis" unicode="&#xff;" horiz-adv-x="460" 
d="M120 -168l71 169l-184 436h87l139 -336h4l134 336h82l-252 -605h-81zM120 622h82v-94h-82v94zM258 622h81v-94h-81v94z" />
    <glyph glyph-name="Amacron" unicode="&#x100;" horiz-adv-x="638" 
d="M364 630l262 -630h-92l-76 185h-287l-74 -185h-85l257 630h95zM198 254h232l-115 280h-4zM182 746h259v-63h-259v63z" />
    <glyph glyph-name="amacron" unicode="&#x101;" horiz-adv-x="489" 
d="M329 216l-97.999 -21c-17.333 -4 -33 -7.83301 -47 -11.5s-25.833 -8.5 -35.5 -14.5s-17.167 -13.333 -22.5 -22s-8 -19.667 -8 -33c0 -18.667 6.16699 -34.167 18.5 -46.5s31.166 -18.5 56.499 -18.5c19.333 0 37.333 3.5 54 10.5s31 16.833 43 29.5s21.5 28 28.5 46
s10.5 38 10.5 60v21zM409.001 86c0 -22.667 11.335 -33.999 34.002 -33.999c5.33301 0 11.5 0.833008 18.5 2.5s13.5 4.16699 19.5 7.5v-45c-7.33301 -7.33301 -16 -13.5 -26 -18.5s-23.667 -7.5 -41 -7.5c-22.667 0 -41.334 7.83301 -56.001 23.5
s-23.334 36.5 -26.001 62.5c-12 -25.333 -32.167 -46.5 -60.5 -63.5s-60.5 -25.5 -96.5 -25.5c-42.667 0 -76.667 10.667 -102 32s-38 51 -38 89c0 20.667 4.16699 38.5 12.5 53.5s20.333 27.833 36 38.5s34.334 19.667 56.001 27s45.5 13.666 71.5 18.999l118 24v17
c0 30 -8.33301 53.667 -25 71s-40.334 26 -71.001 26c-32 0 -56.667 -8.33301 -74 -25s-29.333 -37.667 -36 -63l-74 10c8.66699 41.333 28.667 75.333 60 102s73 40 125 40c55.333 0 98.333 -13.833 129 -41.5s46 -69.5 46 -125.5v-196zM111.003 579.001h257v-64h-257v64z
" />
    <glyph glyph-name="Abreve" unicode="&#x102;" horiz-adv-x="638" 
d="M364 630l262 -630h-92l-76 185h-287l-74 -185h-85l257 630h95zM198 254h232l-115 280h-4zM311 673c-36.667 0 -65.167 10.667 -85.5 32s-30.5 53.666 -30.5 96.999h58c0 -22 4.33301 -39.167 13 -51.5s23.667 -18.5 45 -18.5s36.333 6.16699 45 18.5s13 29.5 13 51.5h58
c0 -43.333 -10.167 -75.666 -30.5 -96.999s-48.833 -32 -85.5 -32z" />
    <glyph glyph-name="abreve" unicode="&#x103;" horiz-adv-x="489" 
d="M329 216l-97.999 -21c-17.333 -4 -33 -7.83301 -47 -11.5s-25.833 -8.5 -35.5 -14.5s-17.167 -13.333 -22.5 -22s-8 -19.667 -8 -33c0 -18.667 6.16699 -34.167 18.5 -46.5s31.166 -18.5 56.499 -18.5c19.333 0 37.333 3.5 54 10.5s31 16.833 43 29.5s21.5 28 28.5 46
s10.5 38 10.5 60v21zM409.001 86c0 -22.667 11.335 -33.999 34.002 -33.999c5.33301 0 11.5 0.833008 18.5 2.5s13.5 4.16699 19.5 7.5v-45c-7.33301 -7.33301 -16 -13.5 -26 -18.5s-23.667 -7.5 -41 -7.5c-22.667 0 -41.334 7.83301 -56.001 23.5
s-23.334 36.5 -26.001 62.5c-12 -25.333 -32.167 -46.5 -60.5 -63.5s-60.5 -25.5 -96.5 -25.5c-42.667 0 -76.667 10.667 -102 32s-38 51 -38 89c0 20.667 4.16699 38.5 12.5 53.5s20.333 27.833 36 38.5s34.334 19.667 56.001 27s45.5 13.666 71.5 18.999l118 24v17
c0 30 -8.33301 53.667 -25 71s-40.334 26 -71.001 26c-32 0 -56.667 -8.33301 -74 -25s-29.333 -37.667 -36 -63l-74 10c8.66699 41.333 28.667 75.333 60 102s73 40 125 40c55.333 0 98.333 -13.833 129 -41.5s46 -69.5 46 -125.5v-196zM239.003 501.001
c-36.667 0 -65.167 10.667 -85.5 32s-30.5 53.666 -30.5 96.999h58c0 -22 4.33301 -39.167 13 -51.5s23.667 -18.5 45 -18.5s36.333 6.16699 45 18.5s13 29.5 13 51.5h58c0 -43.333 -10.167 -75.666 -30.5 -96.999s-48.833 -32 -85.5 -32z" />
    <glyph glyph-name="Aogonek" unicode="&#x104;" horiz-adv-x="638" 
d="M364 630l261.999 -630.002c-32 -19.333 -55.167 -36.166 -69.5 -50.499s-21.5 -28.5 -21.5 -42.5c0 -9.33301 2.83301 -16.666 8.5 -21.999s14.834 -8 27.501 -8c9.33301 0 18.5 1.66699 27.5 5s17.5 7 25.5 11v-46c-8.66699 -5.33301 -18.834 -10.333 -30.501 -15
s-26.5 -7 -44.5 -7c-22 0 -40.167 5.66699 -54.5 17s-21.5 28 -21.5 50c0 21.333 7.33301 40.833 22 58.5s32.334 34.167 53.001 49.5l-14 2l-76 183h-287l-74 -185h-85l257 630h95zM198.999 253.998h231l-115 280h-4z" />
    <glyph glyph-name="aogonek" unicode="&#x105;" horiz-adv-x="489" 
d="M409 86c0 -22.667 11.3369 -34 34.0039 -34c5.33301 0 11.5 0.833008 18.5 2.5s13.5 4.16699 19.5 7.5v-47c-9.33301 -8 -19.333 -16 -30 -24s-20.334 -16.333 -29.001 -25s-15.834 -18 -21.501 -28s-8.5 -20.333 -8.5 -31c0 -9.33301 2.83301 -16.666 8.5 -21.999
s14.834 -8 27.501 -8c9.33301 0 18.5 1.66699 27.5 5s17.5 7 25.5 11v-46c-8.66699 -5.33301 -18.834 -10.333 -30.501 -15s-26.5 -7 -44.5 -7c-22 0 -40.167 5.66699 -54.5 17s-21.5 28 -21.5 50c0 19.333 6.16699 37.5 18.5 54.5s28.166 32.5 47.499 46.5
c-18 3.33301 -32.667 12.5 -44 27.5s-18 33.833 -20 56.5c-12 -25.333 -32.333 -46.5 -61 -63.5s-61 -25.5 -97 -25.5c-42 0 -75.667 10.667 -101 32s-38 51 -38 89c0 20.667 4.16699 38.5 12.5 53.5s20.166 27.833 35.499 38.5s33.833 19.667 55.5 27
s45.834 13.666 72.501 18.999l118 24v17c0 30 -8.33301 53.667 -25 71s-40.334 26 -71.001 26c-32 0 -56.667 -8.33301 -74 -25s-29.333 -37.667 -36 -63l-74 10c8.66699 41.333 28.667 75.333 60 102s73 40 125 40c55.333 0 98.333 -13.833 129 -41.5s46 -69.5 46 -125.5
v-196zM329.004 216l-98.001 -21c-36 -7.33301 -63.833 -16.333 -83.5 -27s-29.5 -28.667 -29.5 -54c0 -19.333 6.33301 -35 19 -47s31.334 -18 56.001 -18c19.333 0 37.333 3.5 54 10.5s31 16.833 43 29.5s21.5 28 28.5 46s10.5 38 10.5 60v21z" />
    <glyph glyph-name="Cacute" unicode="&#x106;" horiz-adv-x="666" 
d="M32 315c0 48.667 8 93 24 133s37.833 74.333 65.5 103s60.334 51 98.001 67s78.167 24 121.5 24c45.333 0 85.5 -6.66699 120.5 -20s64.833 -32 89.5 -56s44.167 -52.667 58.5 -86s22.833 -70.333 25.5 -111l-84 -4c-2 29.333 -7.83301 56.333 -17.5 81
s-23.334 46 -41.001 64s-39.167 32.167 -64.5 42.5s-54.333 15.5 -87 15.5c-32 0 -61.5 -5.83301 -88.5 -17.5s-50.167 -28.5 -69.5 -50.5s-34.5 -48.667 -45.5 -80s-16.5 -66.333 -16.5 -105s5.5 -73.667 16.5 -105s26.167 -58 45.5 -80s42.5 -38.833 69.5 -50.5
s56.5 -17.5 88.5 -17.5c32.667 0 61.667 5.16699 87 15.5s46.833 24.5 64.5 42.5s31.334 39.5 41.001 64.5s15.5 51.833 17.5 80.5l84 -4c-2.66699 -40.667 -11.167 -77.667 -25.5 -111s-33.833 -62 -58.5 -86s-54.5 -42.667 -89.5 -56s-75.167 -20 -120.5 -20
c-43.333 0 -83.833 8 -121.5 24s-70.334 38.333 -98.001 67s-49.5 63 -65.5 103s-24 84.333 -24 133zM320 676l54 126h101l-97 -126h-58z" />
    <glyph glyph-name="cacute" unicode="&#x107;" horiz-adv-x="487" 
d="M225 504l54 126h101l-97 -126h-58zM29 218c0 34.667 5.5 66.165 16.5 94.498s26.333 52.666 46 72.999s43.334 36 71.001 47s57.834 16.5 90.501 16.5c32 0 60.333 -5 85 -15s45.5 -23.667 62.5 -41s30.5 -37.666 40.5 -60.999s16 -48 18 -74l-73 -5
c-3.33301 38.667 -16.333 69.834 -39 93.501s-54.334 35.5 -95.001 35.5c-41.333 0 -74.666 -14.667 -99.999 -44s-38 -69.333 -38 -120s12.667 -90.667 38 -120s58.666 -44 99.999 -44c40.667 0 72.334 12.333 95.001 37s35.667 56.334 39 95.001l73 -7
c-2 -26.667 -8 -51.5 -18 -74.5s-23.5 -43.167 -40.5 -60.5s-37.833 -31 -62.5 -41s-53 -15 -85 -15c-32.667 0 -62.834 5.5 -90.501 16.5s-51.334 26.5 -71.001 46.5s-35 44.167 -46 72.5s-16.5 59.833 -16.5 94.5z" />
    <glyph glyph-name="Ccircumflex" unicode="&#x108;" horiz-adv-x="666" 
d="M32 315c0 48.667 8 93 24 133s37.833 74.333 65.5 103s60.334 51 98.001 67s78.167 24 121.5 24c45.333 0 85.5 -6.66699 120.5 -20s64.833 -32 89.5 -56s44.167 -52.667 58.5 -86s22.833 -70.333 25.5 -111l-84 -4c-2 29.333 -7.83301 56.333 -17.5 81
s-23.334 46 -41.001 64s-39.167 32.167 -64.5 42.5s-54.333 15.5 -87 15.5c-32 0 -61.5 -5.83301 -88.5 -17.5s-50.167 -28.5 -69.5 -50.5s-34.5 -48.667 -45.5 -80s-16.5 -66.333 -16.5 -105s5.5 -73.667 16.5 -105s26.167 -58 45.5 -80s42.5 -38.833 69.5 -50.5
s56.5 -17.5 88.5 -17.5c32.667 0 61.667 5.16699 87 15.5s46.833 24.5 64.5 42.5s31.334 39.5 41.001 64.5s15.5 51.833 17.5 80.5l84 -4c-2.66699 -40.667 -11.167 -77.667 -25.5 -111s-33.833 -62 -58.5 -86s-54.5 -42.667 -89.5 -56s-75.167 -20 -120.5 -20
c-43.333 0 -83.833 8 -121.5 24s-70.334 38.333 -98.001 67s-49.5 63 -65.5 103s-24 84.333 -24 133zM396 802l80 -126h-60l-68 74l-68 -74h-60l80 126h96z" />
    <glyph glyph-name="ccircumflex" unicode="&#x109;" horiz-adv-x="487" 
d="M301 630l80 -126h-60l-68 74l-68 -74h-60l80 126h96zM29 218c0 34.667 5.5 66.165 16.5 94.498s26.333 52.666 46 72.999s43.334 36 71.001 47s57.834 16.5 90.501 16.5c32 0 60.333 -5 85 -15s45.5 -23.667 62.5 -41s30.5 -37.666 40.5 -60.999s16 -48 18 -74l-73 -5
c-3.33301 38.667 -16.333 69.834 -39 93.501s-54.334 35.5 -95.001 35.5c-41.333 0 -74.666 -14.667 -99.999 -44s-38 -69.333 -38 -120s12.667 -90.667 38 -120s58.666 -44 99.999 -44c40.667 0 72.334 12.333 95.001 37s35.667 56.334 39 95.001l73 -7
c-2 -26.667 -8 -51.5 -18 -74.5s-23.5 -43.167 -40.5 -60.5s-37.833 -31 -62.5 -41s-53 -15 -85 -15c-32.667 0 -62.834 5.5 -90.501 16.5s-51.334 26.5 -71.001 46.5s-35 44.167 -46 72.5s-16.5 59.833 -16.5 94.5z" />
    <glyph glyph-name="Cdotaccent" unicode="&#x10a;" horiz-adv-x="666" 
d="M305 775h87v-94h-87v94zM32 315c0 48.667 8 93 24 133s37.833 74.333 65.5 103s60.334 51 98.001 67s78.167 24 121.5 24c45.333 0 85.5 -6.66699 120.5 -20s64.833 -32 89.5 -56s44.167 -52.667 58.5 -86s22.833 -70.333 25.5 -111l-84 -4
c-2 29.333 -7.83301 56.333 -17.5 81s-23.334 46 -41.001 64s-39.167 32.167 -64.5 42.5s-54.333 15.5 -87 15.5c-32 0 -61.5 -5.83301 -88.5 -17.5s-50.167 -28.5 -69.5 -50.5s-34.5 -48.667 -45.5 -80s-16.5 -66.333 -16.5 -105s5.5 -73.667 16.5 -105
s26.167 -58 45.5 -80s42.5 -38.833 69.5 -50.5s56.5 -17.5 88.5 -17.5c32.667 0 61.667 5.16699 87 15.5s46.833 24.5 64.5 42.5s31.334 39.5 41.001 64.5s15.5 51.833 17.5 80.5l84 -4c-2.66699 -40.667 -11.167 -77.667 -25.5 -111s-33.833 -62 -58.5 -86
s-54.5 -42.667 -89.5 -56s-75.167 -20 -120.5 -20c-43.333 0 -83.833 8 -121.5 24s-70.334 38.333 -98.001 67s-49.5 63 -65.5 103s-24 84.333 -24 133z" />
    <glyph glyph-name="cdotaccent" unicode="&#x10b;" horiz-adv-x="487" 
d="M29 218c0 34.667 5.5 66.165 16.5 94.498s26.333 52.666 46 72.999s43.334 36 71.001 47s57.834 16.5 90.501 16.5c32 0 60.333 -5 85 -15s45.5 -23.667 62.5 -41s30.5 -37.666 40.5 -60.999s16 -48 18 -74l-73 -5c-3.33301 38.667 -16.333 69.834 -39 93.501
s-54.334 35.5 -95.001 35.5c-41.333 0 -74.666 -14.667 -99.999 -44s-38 -69.333 -38 -120s12.667 -90.667 38 -120s58.666 -44 99.999 -44c40.667 0 72.334 12.333 95.001 37s35.667 56.334 39 95.001l73 -7c-2 -26.667 -8 -51.5 -18 -74.5s-23.5 -43.167 -40.5 -60.5
s-37.833 -31 -62.5 -41s-53 -15 -85 -15c-32.667 0 -62.834 5.5 -90.501 16.5s-51.334 26.5 -71.001 46.5s-35 44.167 -46 72.5s-16.5 59.833 -16.5 94.5zM209 629.998h87v-94h-87v94z" />
    <glyph glyph-name="Ccaron" unicode="&#x10c;" horiz-adv-x="666" 
d="M32 315c0 48.667 8 93 24 133s37.833 74.333 65.5 103s60.334 51 98.001 67s78.167 24 121.5 24c45.333 0 85.5 -6.66699 120.5 -20s64.833 -32 89.5 -56s44.167 -52.667 58.5 -86s22.833 -70.333 25.5 -111l-84 -4c-2 29.333 -7.83301 56.333 -17.5 81
s-23.334 46 -41.001 64s-39.167 32.167 -64.5 42.5s-54.333 15.5 -87 15.5c-32 0 -61.5 -5.83301 -88.5 -17.5s-50.167 -28.5 -69.5 -50.5s-34.5 -48.667 -45.5 -80s-16.5 -66.333 -16.5 -105s5.5 -73.667 16.5 -105s26.167 -58 45.5 -80s42.5 -38.833 69.5 -50.5
s56.5 -17.5 88.5 -17.5c32.667 0 61.667 5.16699 87 15.5s46.833 24.5 64.5 42.5s31.334 39.5 41.001 64.5s15.5 51.833 17.5 80.5l84 -4c-2.66699 -40.667 -11.167 -77.667 -25.5 -111s-33.833 -62 -58.5 -86s-54.5 -42.667 -89.5 -56s-75.167 -20 -120.5 -20
c-43.333 0 -83.833 8 -121.5 24s-70.334 38.333 -98.001 67s-49.5 63 -65.5 103s-24 84.333 -24 133zM300 676l-80 126h60l68 -74l68 74h60l-80 -126h-96z" />
    <glyph glyph-name="ccaron" unicode="&#x10d;" horiz-adv-x="487" 
d="M205 504l-80 126h60l68 -75l68 75h60l-80 -126h-96zM29 218c0 34.667 5.5 66.165 16.5 94.498s26.333 52.666 46 72.999s43.334 36 71.001 47s57.834 16.5 90.501 16.5c32 0 60.333 -5 85 -15s45.5 -23.667 62.5 -41s30.5 -37.666 40.5 -60.999s16 -48 18 -74l-73 -5
c-3.33301 38.667 -16.333 69.834 -39 93.501s-54.334 35.5 -95.001 35.5c-41.333 0 -74.666 -14.667 -99.999 -44s-38 -69.333 -38 -120s12.667 -90.667 38 -120s58.666 -44 99.999 -44c40.667 0 72.334 12.333 95.001 37s35.667 56.334 39 95.001l73 -7
c-2 -26.667 -8 -51.5 -18 -74.5s-23.5 -43.167 -40.5 -60.5s-37.833 -31 -62.5 -41s-53 -15 -85 -15c-32.667 0 -62.834 5.5 -90.501 16.5s-51.334 26.5 -71.001 46.5s-35 44.167 -46 72.5s-16.5 59.833 -16.5 94.5z" />
    <glyph glyph-name="Dcaron" unicode="&#x10e;" horiz-adv-x="643" 
d="M250 676l-80 126h60l68 -74l68 74h60l-80 -126h-96zM284 71c77.333 0 136.333 21.5 177 64.5s61 102.833 61 179.5s-20.333 136.5 -61 179.5s-99.667 64.5 -177 64.5h-136v-488h136zM61 630h228c49.333 0 94 -7.16699 134 -21.5s74 -35 102 -62s49.5 -60 64.5 -99
s22.5 -83.167 22.5 -132.5s-7.5 -93.5 -22.5 -132.5s-36.5 -72 -64.5 -99s-62 -47.667 -102 -62s-84.667 -21.5 -134 -21.5h-228v630z" />
    <glyph glyph-name="dcaron" unicode="&#x10f;" horiz-adv-x="525" 
d="M510 498l15 132h92l-60 -132h-47zM387 231c0 48 -13.167 85.167 -39.5 111.5s-59.5 39.5 -99.5 39.5c-43.333 0 -76.5 -14.833 -99.5 -44.5s-34.5 -69.5 -34.5 -119.5s11.5 -89.833 34.5 -119.5s56.167 -44.5 99.5 -44.5c40 0 73.167 13.333 99.5 40s39.5 64 39.5 112v25
zM386 91c-10 -26.667 -28.332 -50.498 -54.999 -71.498s-60.667 -31.5 -102 -31.5c-32.667 0 -61.334 6 -86.001 18s-45.5 28.333 -62.5 49s-29.833 45 -38.5 73s-13 58 -13 90s4.33301 62.167 13 90.5s21.5 52.833 38.5 73.5s37.833 37 62.5 49s53.334 18 86.001 18
c20.667 0 39.5 -2.83301 56.5 -8.5s32.167 -13.334 45.5 -23.001s24.666 -20.834 33.999 -33.501s16.333 -25.667 21 -39v285h83v-630h-83v91z" />
    <glyph glyph-name="Dcroat" unicode="&#x110;" horiz-adv-x="662" 
d="M8 360h71v270h228c49.333 0 94 -7.16699 134 -21.5s74 -35 102 -62s49.5 -60 64.5 -99s22.5 -83.167 22.5 -132.5s-7.5 -93.5 -22.5 -132.5s-36.5 -72 -64.5 -99s-62 -47.667 -102 -62s-84.667 -21.5 -134 -21.5h-228v289h-71v71zM302 71c77.333 0 136.333 21.5 177 64.5
s61 102.833 61 179.5s-20.333 136.5 -61 179.5s-99.667 64.5 -177 64.5h-136v-199h171v-71h-171v-218h136z" />
    <glyph glyph-name="dcroat" unicode="&#x111;" horiz-adv-x="525" 
d="M386 90c-10 -27.333 -28.333 -51.167 -55 -71.5s-60.667 -30.5 -102 -30.5c-32.667 0 -61.334 6 -86.001 18s-45.5 28.167 -62.5 48.5s-29.833 44.333 -38.5 72s-13 57.5 -13 89.5s4.33301 62 13 90s21.5 52.167 38.5 72.5s37.833 36.5 62.5 48.5s53.334 18 86.001 18
c41.333 0 75.333 -10.333 102 -31s45 -45 55 -73v152h-144v56h144v81h83v-81h59v-56h-59v-493h-83v90zM387 229.999c0 47.333 -13.167 84.167 -39.5 110.5s-59.5 39.5 -99.5 39.5c-43.333 0 -76.5 -14.667 -99.5 -44s-34.5 -69 -34.5 -119s11.5 -89.5 34.5 -118.5
s56.167 -43.5 99.5 -43.5c40 0 73.167 13 99.5 39s39.5 63 39.5 111v25z" />
    <glyph glyph-name="Emacron" unicode="&#x112;" horiz-adv-x="548" 
d="M158 746h259v-63h-259v63zM510 0h-449v630h440v-72h-356v-198h283v-71h-283v-217h365v-72z" />
    <glyph glyph-name="emacron" unicode="&#x113;" horiz-adv-x="489" 
d="M458 147c-11.333 -50 -34.501 -88.999 -69.501 -116.999s-79.833 -42 -134.5 -42c-32.667 0 -62.667 5.33301 -90 16s-51 25.667 -71 45s-35.667 42.833 -47 70.5s-17 58.5 -17 92.5c0 34.667 5.66699 66.5 17 95.5s26.833 54 46.5 75s43 37.333 70 49
s56.167 17.5 87.5 17.5c34.667 0 65.167 -5.83301 91.5 -17.5s48.166 -27.334 65.499 -47.001s30.5 -42.667 39.5 -69s13.5 -54.5 13.5 -84.5v-33h-348c1.33301 -21.333 5.83301 -40.833 13.5 -58.5s17.834 -33 30.501 -46s27.5 -23 44.5 -30s35.167 -10.5 54.5 -10.5
c36.667 0 65.834 8.5 87.501 25.5s37.167 42.5 46.5 76.5zM374.999 252.001c-0.666992 17.333 -3.66895 34.1689 -9.00195 50.502s-13.166 30.666 -23.499 42.999s-23.166 22.166 -38.499 29.499s-33.333 11 -54 11c-20 0 -37.833 -3.66699 -53.5 -11s-29.167 -17 -40.5 -29
s-20.5 -26.167 -27.5 -42.5s-11.833 -33.5 -14.5 -51.5h261zM122.997 579.004h257v-64h-257v64z" />
    <glyph glyph-name="Ebreve" unicode="&#x114;" horiz-adv-x="548" 
d="M287 673c-36.667 0 -65.167 10.667 -85.5 32s-30.5 53.666 -30.5 96.999h58c0 -22 4.33301 -39.167 13 -51.5s23.667 -18.5 45 -18.5s36.333 6.16699 45 18.5s13 29.5 13 51.5h58c0 -43.333 -10.167 -75.666 -30.5 -96.999s-48.833 -32 -85.5 -32zM510 0h-449v630h440
v-72h-356v-198h283v-71h-283v-217h365v-72z" />
    <glyph glyph-name="ebreve" unicode="&#x115;" horiz-adv-x="489" 
d="M458 147c-11.333 -50 -34.501 -88.999 -69.501 -116.999s-79.833 -42 -134.5 -42c-32.667 0 -62.667 5.33301 -90 16s-51 25.667 -71 45s-35.667 42.833 -47 70.5s-17 58.5 -17 92.5c0 34.667 5.66699 66.5 17 95.5s26.833 54 46.5 75s43 37.333 70 49
s56.167 17.5 87.5 17.5c34.667 0 65.167 -5.83301 91.5 -17.5s48.166 -27.334 65.499 -47.001s30.5 -42.667 39.5 -69s13.5 -54.5 13.5 -84.5v-33h-348c1.33301 -21.333 5.83301 -40.833 13.5 -58.5s17.834 -33 30.501 -46s27.5 -23 44.5 -30s35.167 -10.5 54.5 -10.5
c36.667 0 65.834 8.5 87.501 25.5s37.167 42.5 46.5 76.5zM374.999 252.001c-0.666992 17.333 -3.66895 34.1689 -9.00195 50.502s-13.166 30.666 -23.499 42.999s-23.166 22.166 -38.499 29.499s-33.333 11 -54 11c-20 0 -37.833 -3.66699 -53.5 -11s-29.167 -17 -40.5 -29
s-20.5 -26.167 -27.5 -42.5s-11.833 -33.5 -14.5 -51.5h261zM249.997 501.004c-36.667 0 -65.167 10.667 -85.5 32s-30.5 53.666 -30.5 96.999h58c0 -22 4.33301 -39.167 13 -51.5s23.667 -18.5 45 -18.5s36.333 6.16699 45 18.5s13 29.5 13 51.5h58
c0 -43.333 -10.167 -75.666 -30.5 -96.999s-48.833 -32 -85.5 -32z" />
    <glyph glyph-name="Edotaccent" unicode="&#x116;" horiz-adv-x="548" 
d="M244 775h87v-94h-87v94zM510 0h-449v630h440v-72h-356v-198h283v-71h-283v-217h365v-72z" />
    <glyph glyph-name="edotaccent" unicode="&#x117;" horiz-adv-x="489" 
d="M458 147c-11.333 -50 -34.501 -88.999 -69.501 -116.999s-79.833 -42 -134.5 -42c-32.667 0 -62.667 5.33301 -90 16s-51 25.667 -71 45s-35.667 42.833 -47 70.5s-17 58.5 -17 92.5c0 34.667 5.66699 66.5 17 95.5s26.833 54 46.5 75s43 37.333 70 49
s56.167 17.5 87.5 17.5c34.667 0 65.167 -5.83301 91.5 -17.5s48.166 -27.334 65.499 -47.001s30.5 -42.667 39.5 -69s13.5 -54.5 13.5 -84.5v-33h-348c1.33301 -21.333 5.83301 -40.833 13.5 -58.5s17.834 -33 30.501 -46s27.5 -23 44.5 -30s35.167 -10.5 54.5 -10.5
c36.667 0 65.834 8.5 87.501 25.5s37.167 42.5 46.5 76.5zM374.999 252.001c-0.666992 17.333 -3.66895 34.1689 -9.00195 50.502s-13.166 30.666 -23.499 42.999s-23.166 22.166 -38.499 29.499s-33.333 11 -54 11c-20 0 -37.833 -3.66699 -53.5 -11s-29.167 -17 -40.5 -29
s-20.5 -26.167 -27.5 -42.5s-11.833 -33.5 -14.5 -51.5h261zM207.997 630.004h87v-94h-87v94z" />
    <glyph glyph-name="Eogonek" unicode="&#x118;" horiz-adv-x="548" 
d="M510 0l-56.001 -0.00195312c-23.333 -21.333 -40.333 -38.666 -51 -51.999s-16 -27 -16 -41c0 -9.33301 2.83301 -16.666 8.5 -21.999s14.834 -8 27.501 -8c9.33301 0 18.5 1.66699 27.5 5s17.5 7 25.5 11v-46c-8.66699 -5.33301 -18.834 -10.333 -30.501 -15
s-26.5 -7 -44.5 -7c-22 0 -40.167 5.66699 -54.5 17s-21.5 28 -21.5 50c0 21.333 7.33301 40.833 22 58.5s32.334 34.167 53.001 49.5h-339v630h440v-72h-356v-198h283v-71h-283v-217h365v-72z" />
    <glyph glyph-name="eogonek" unicode="&#x119;" horiz-adv-x="489" 
d="M458 147c-7.33301 -31.333 -19.3291 -57.502 -35.9961 -78.502s-36.334 -39.167 -59.001 -54.5c-32 -21.333 -53.833 -40.666 -65.5 -57.999s-17.5 -33.666 -17.5 -48.999c0 -9.33301 2.83301 -16.666 8.5 -21.999s15.167 -8 28.5 -8c9.33301 0 18.5 1.66699 27.5 5
s17.5 7 25.5 11v-46c-8.66699 -5.33301 -18.834 -10.333 -30.501 -15s-26.5 -7 -44.5 -7c-22.667 0 -41.167 5.66699 -55.5 17s-21.5 28 -21.5 50c0 19.333 6.16699 37 18.5 53s27.5 31 45.5 45c-4.66699 -0.666992 -9.33398 -1.16699 -14.001 -1.5
s-9.33398 -0.5 -14.001 -0.5c-32.667 0 -62.667 5.33301 -90 16s-51 25.667 -71 45s-35.667 42.833 -47 70.5s-17 58.5 -17 92.5c0 34.667 5.66699 66.5 17 95.5s26.833 54 46.5 75s43 37.333 70 49s56.167 17.5 87.5 17.5c34.667 0 65.167 -5.83301 91.5 -17.5
s48.166 -27.334 65.499 -47.001s30.5 -42.667 39.5 -69s13.5 -54.5 13.5 -84.5v-33h-348c1.33301 -21.333 5.83301 -40.833 13.5 -58.5s17.834 -33 30.501 -46s27.5 -23 44.5 -30s35.167 -10.5 54.5 -10.5c71.333 0 116 34 134 102zM375.004 251.998
c-0.666992 17.333 -3.66895 34.1689 -9.00195 50.502s-13.166 30.666 -23.499 42.999s-23.166 22.166 -38.499 29.499s-33.333 11 -54 11c-20 0 -37.833 -3.66699 -53.5 -11s-29.167 -17 -40.5 -29s-20.5 -26.167 -27.5 -42.5s-11.833 -33.5 -14.5 -51.5h261z" />
    <glyph glyph-name="Ecaron" unicode="&#x11a;" horiz-adv-x="548" 
d="M239 676l-80 126h60l68 -74l68 74h60l-80 -126h-96zM510 0h-449v630h440v-72h-356v-198h283v-71h-283v-217h365v-72z" />
    <glyph glyph-name="ecaron" unicode="&#x11b;" horiz-adv-x="489" 
d="M203 504l-80 126h60l68 -75l68 75h60l-80 -126h-96zM458 147c-11.333 -50 -34.501 -88.999 -69.501 -116.999s-79.833 -42 -134.5 -42c-32.667 0 -62.667 5.33301 -90 16s-51 25.667 -71 45s-35.667 42.833 -47 70.5s-17 58.5 -17 92.5c0 34.667 5.66699 66.5 17 95.5
s26.833 54 46.5 75s43 37.333 70 49s56.167 17.5 87.5 17.5c34.667 0 65.167 -5.83301 91.5 -17.5s48.166 -27.334 65.499 -47.001s30.5 -42.667 39.5 -69s13.5 -54.5 13.5 -84.5v-33h-348c1.33301 -21.333 5.83301 -40.833 13.5 -58.5s17.834 -33 30.501 -46
s27.5 -23 44.5 -30s35.167 -10.5 54.5 -10.5c36.667 0 65.834 8.5 87.501 25.5s37.167 42.5 46.5 76.5zM374.999 252.001c-0.666992 17.333 -3.66895 34.1689 -9.00195 50.502s-13.166 30.666 -23.499 42.999s-23.166 22.166 -38.499 29.499s-33.333 11 -54 11
c-20 0 -37.833 -3.66699 -53.5 -11s-29.167 -17 -40.5 -29s-20.5 -26.167 -27.5 -42.5s-11.833 -33.5 -14.5 -51.5h261z" />
    <glyph glyph-name="Gcircumflex" unicode="&#x11c;" horiz-adv-x="688" 
d="M339 -12c-44.667 0 -85.6689 7.83105 -123.002 23.498s-69.666 37.834 -96.999 66.501s-48.666 63.167 -63.999 103.5s-23 84.833 -23 133.5s7.83301 93 23.5 133s37.334 74.333 65.001 103s60.334 51 98.001 67s78.167 24 121.5 24c89.333 0 159 -23.167 209 -69.5
s77.667 -109.833 83 -190.5l-83 -5c-3.33301 58 -22.833 104.333 -58.5 139s-85.5 52 -149.5 52c-32 0 -61.5 -5.83301 -88.5 -17.5s-50.333 -28.5 -70 -50.5s-34.834 -48.667 -45.501 -80s-16 -66.666 -16 -105.999c0 -38.667 5.5 -73.667 16.5 -105s26.5 -58 46.5 -80
s44 -38.833 72 -50.5s59 -17.5 93 -17.5c59.333 0 107 16.833 143 50.5s56.667 77.5 62 131.5h-192v68h271v-311h-79v112c-6.66699 -20 -17.167 -37.667 -31.5 -53s-31 -28.333 -50 -39s-39.833 -18.667 -62.5 -24s-46.334 -8 -71.001 -8zM397.998 801.998l80 -126h-60
l-68 74l-68 -74h-60l80 126h96z" />
    <glyph glyph-name="gcircumflex" unicode="&#x11d;" horiz-adv-x="480" 
d="M417 300c0 -22.667 -4.50098 -43.1641 -13.501 -61.4971s-21.833 -33.833 -38.5 -46.5s-36.167 -22.5 -58.5 -29.5s-47.166 -10.5 -74.499 -10.5c-36.667 0 -68.667 6 -96 18c-7.33301 -4.66699 -14 -10.5 -20 -17.5s-9 -15.5 -9 -25.5c0 -12 4 -21.333 12 -28
s21.667 -10 41 -10h171c48 0 84.167 -11.167 108.5 -33.5s36.5 -50.5 36.5 -84.5c0 -27.333 -7 -50.5 -21 -69.5s-32.667 -34.5 -56 -46.5s-50.166 -20.833 -80.499 -26.5s-61.833 -8.5 -94.5 -8.5c-29.333 0 -57.166 2.33301 -83.499 7s-49.333 11.834 -69 21.501
s-35.167 22 -46.5 37s-17 32.5 -17 52.5c0 25.333 8.16699 45.666 24.5 60.999s38.166 25.666 65.499 30.999c-20 6.66699 -34.667 16.667 -44 30s-14 28.333 -14 45c0 19.333 6.16699 35.666 18.5 48.999s28.166 24.333 47.499 33c-18 13.333 -32 29.5 -42 48.5
s-15 40.5 -15 64.5c0 23.333 4.5 44.166 13.5 62.499s21.667 33.833 38 46.5s35.666 22.5 57.999 29.5s46.833 10.5 73.5 10.5c28 0 53.667 -4 77 -12s43.333 -19 60 -33c11.333 17.333 26.833 31.666 46.5 42.999s41.167 17 64.5 17v-72c-14.667 0 -29.5 -1.66699 -44.5 -5
s-28.167 -7.66602 -39.5 -12.999c6.66699 -10.667 11.834 -22.167 15.501 -34.5s5.5 -25.5 5.5 -39.5zM86.999 -45.9971c0 -28 12.667 -48.167 38 -60.5s58.333 -18.5 99 -18.5c25.333 0 48.5 1.5 69.5 4.5s39 8 54 15s26.833 16 35.5 27s13 24.5 13 40.5
c0 20 -7.66699 34 -23 42s-35.666 12 -60.999 12h-141c-22.667 0 -42.334 -4.5 -59.001 -13.5s-25 -25.167 -25 -48.5zM332.999 299.003c0 31.333 -8.83301 55.166 -26.5 71.499s-42.167 24.5 -73.5 24.5c-30.667 0 -54.834 -8.16699 -72.501 -24.5
s-26.5 -40.166 -26.5 -71.499c0 -30 8.83301 -53.167 26.5 -69.5s41.834 -24.5 72.501 -24.5c31.333 0 55.833 8.16699 73.5 24.5s26.5 39.5 26.5 69.5zM291.999 630.003l80 -126h-60l-68 74l-68 -74h-60l80 126h96z" />
    <glyph glyph-name="Gbreve" unicode="&#x11e;" horiz-adv-x="688" 
d="M350 673c-36.667 0 -65.167 10.667 -85.5 32s-30.5 53.666 -30.5 96.999h58c0 -22 4.33301 -39.167 13 -51.5s23.667 -18.5 45 -18.5s36.333 6.16699 45 18.5s13 29.5 13 51.5h58c0 -43.333 -10.167 -75.666 -30.5 -96.999s-48.833 -32 -85.5 -32zM339 -12
c-44.667 0 -85.6689 7.83105 -123.002 23.498s-69.666 37.834 -96.999 66.501s-48.666 63.167 -63.999 103.5s-23 84.833 -23 133.5s7.83301 93 23.5 133s37.334 74.333 65.001 103s60.334 51 98.001 67s78.167 24 121.5 24c89.333 0 159 -23.167 209 -69.5
s77.667 -109.833 83 -190.5l-83 -5c-3.33301 58 -22.833 104.333 -58.5 139s-85.5 52 -149.5 52c-32 0 -61.5 -5.83301 -88.5 -17.5s-50.333 -28.5 -70 -50.5s-34.834 -48.667 -45.501 -80s-16 -66.666 -16 -105.999c0 -38.667 5.5 -73.667 16.5 -105s26.5 -58 46.5 -80
s44 -38.833 72 -50.5s59 -17.5 93 -17.5c59.333 0 107 16.833 143 50.5s56.667 77.5 62 131.5h-192v68h271v-311h-79v112c-6.66699 -20 -17.167 -37.667 -31.5 -53s-31 -28.333 -50 -39s-39.833 -18.667 -62.5 -24s-46.334 -8 -71.001 -8z" />
    <glyph glyph-name="gbreve" unicode="&#x11f;" horiz-adv-x="480" 
d="M417 300c0 -22.667 -4.50098 -43.1641 -13.501 -61.4971s-21.833 -33.833 -38.5 -46.5s-36.167 -22.5 -58.5 -29.5s-47.166 -10.5 -74.499 -10.5c-36.667 0 -68.667 6 -96 18c-7.33301 -4.66699 -14 -10.5 -20 -17.5s-9 -15.5 -9 -25.5c0 -12 4 -21.333 12 -28
s21.667 -10 41 -10h171c48 0 84.167 -11.167 108.5 -33.5s36.5 -50.5 36.5 -84.5c0 -27.333 -7 -50.5 -21 -69.5s-32.667 -34.5 -56 -46.5s-50.166 -20.833 -80.499 -26.5s-61.833 -8.5 -94.5 -8.5c-29.333 0 -57.166 2.33301 -83.499 7s-49.333 11.834 -69 21.501
s-35.167 22 -46.5 37s-17 32.5 -17 52.5c0 25.333 8.16699 45.666 24.5 60.999s38.166 25.666 65.499 30.999c-20 6.66699 -34.667 16.667 -44 30s-14 28.333 -14 45c0 19.333 6.16699 35.666 18.5 48.999s28.166 24.333 47.499 33c-18 13.333 -32 29.5 -42 48.5
s-15 40.5 -15 64.5c0 23.333 4.5 44.166 13.5 62.499s21.667 33.833 38 46.5s35.666 22.5 57.999 29.5s46.833 10.5 73.5 10.5c28 0 53.667 -4 77 -12s43.333 -19 60 -33c11.333 17.333 26.833 31.666 46.5 42.999s41.167 17 64.5 17v-72c-14.667 0 -29.5 -1.66699 -44.5 -5
s-28.167 -7.66602 -39.5 -12.999c6.66699 -10.667 11.834 -22.167 15.501 -34.5s5.5 -25.5 5.5 -39.5zM86.999 -45.9971c0 -28 12.667 -48.167 38 -60.5s58.333 -18.5 99 -18.5c25.333 0 48.5 1.5 69.5 4.5s39 8 54 15s26.833 16 35.5 27s13 24.5 13 40.5
c0 20 -7.66699 34 -23 42s-35.666 12 -60.999 12h-141c-22.667 0 -42.334 -4.5 -59.001 -13.5s-25 -25.167 -25 -48.5zM332.999 299.003c0 31.333 -8.83301 55.166 -26.5 71.499s-42.167 24.5 -73.5 24.5c-30.667 0 -54.834 -8.16699 -72.501 -24.5
s-26.5 -40.166 -26.5 -71.499c0 -30 8.83301 -53.167 26.5 -69.5s41.834 -24.5 72.501 -24.5c31.333 0 55.833 8.16699 73.5 24.5s26.5 39.5 26.5 69.5zM243.999 501.003c-36.667 0 -65.167 10.667 -85.5 32s-30.5 53.666 -30.5 96.999h58c0 -22 4.33301 -39.167 13 -51.5
s23.667 -18.5 45 -18.5s36.333 6.16699 45 18.5s13 29.5 13 51.5h58c0 -43.333 -10.167 -75.666 -30.5 -96.999s-48.833 -32 -85.5 -32z" />
    <glyph glyph-name="Gdotaccent" unicode="&#x120;" horiz-adv-x="688" 
d="M307 775h87v-94h-87v94zM339 -12c-44.667 0 -85.6689 7.83105 -123.002 23.498s-69.666 37.834 -96.999 66.501s-48.666 63.167 -63.999 103.5s-23 84.833 -23 133.5s7.83301 93 23.5 133s37.334 74.333 65.001 103s60.334 51 98.001 67s78.167 24 121.5 24
c89.333 0 159 -23.167 209 -69.5s77.667 -109.833 83 -190.5l-83 -5c-3.33301 58 -22.833 104.333 -58.5 139s-85.5 52 -149.5 52c-32 0 -61.5 -5.83301 -88.5 -17.5s-50.333 -28.5 -70 -50.5s-34.834 -48.667 -45.501 -80s-16 -66.666 -16 -105.999
c0 -38.667 5.5 -73.667 16.5 -105s26.5 -58 46.5 -80s44 -38.833 72 -50.5s59 -17.5 93 -17.5c59.333 0 107 16.833 143 50.5s56.667 77.5 62 131.5h-192v68h271v-311h-79v112c-6.66699 -20 -17.167 -37.667 -31.5 -53s-31 -28.333 -50 -39s-39.833 -18.667 -62.5 -24
s-46.334 -8 -71.001 -8z" />
    <glyph glyph-name="gdotaccent" unicode="&#x121;" horiz-adv-x="480" 
d="M417 300c0 -22.667 -4.50098 -43.1641 -13.501 -61.4971s-21.833 -33.833 -38.5 -46.5s-36.167 -22.5 -58.5 -29.5s-47.166 -10.5 -74.499 -10.5c-36.667 0 -68.667 6 -96 18c-7.33301 -4.66699 -14 -10.5 -20 -17.5s-9 -15.5 -9 -25.5c0 -12 4 -21.333 12 -28
s21.667 -10 41 -10h171c48 0 84.167 -11.167 108.5 -33.5s36.5 -50.5 36.5 -84.5c0 -27.333 -7 -50.5 -21 -69.5s-32.667 -34.5 -56 -46.5s-50.166 -20.833 -80.499 -26.5s-61.833 -8.5 -94.5 -8.5c-29.333 0 -57.166 2.33301 -83.499 7s-49.333 11.834 -69 21.501
s-35.167 22 -46.5 37s-17 32.5 -17 52.5c0 25.333 8.16699 45.666 24.5 60.999s38.166 25.666 65.499 30.999c-20 6.66699 -34.667 16.667 -44 30s-14 28.333 -14 45c0 19.333 6.16699 35.666 18.5 48.999s28.166 24.333 47.499 33c-18 13.333 -32 29.5 -42 48.5
s-15 40.5 -15 64.5c0 23.333 4.5 44.166 13.5 62.499s21.667 33.833 38 46.5s35.666 22.5 57.999 29.5s46.833 10.5 73.5 10.5c28 0 53.667 -4 77 -12s43.333 -19 60 -33c11.333 17.333 26.833 31.666 46.5 42.999s41.167 17 64.5 17v-72c-14.667 0 -29.5 -1.66699 -44.5 -5
s-28.167 -7.66602 -39.5 -12.999c6.66699 -10.667 11.834 -22.167 15.501 -34.5s5.5 -25.5 5.5 -39.5zM86.999 -45.9971c0 -28 12.667 -48.167 38 -60.5s58.333 -18.5 99 -18.5c25.333 0 48.5 1.5 69.5 4.5s39 8 54 15s26.833 16 35.5 27s13 24.5 13 40.5
c0 20 -7.66699 34 -23 42s-35.666 12 -60.999 12h-141c-22.667 0 -42.334 -4.5 -59.001 -13.5s-25 -25.167 -25 -48.5zM332.999 299.003c0 31.333 -8.83301 55.166 -26.5 71.499s-42.167 24.5 -73.5 24.5c-30.667 0 -54.834 -8.16699 -72.501 -24.5
s-26.5 -40.166 -26.5 -71.499c0 -30 8.83301 -53.167 26.5 -69.5s41.834 -24.5 72.501 -24.5c31.333 0 55.833 8.16699 73.5 24.5s26.5 39.5 26.5 69.5zM200.999 630.003h87v-94h-87v94z" />
    <glyph glyph-name="Gcommaaccent" unicode="&#x122;" horiz-adv-x="688" 
d="M306 -51h90v-54c0 -25.333 -6.33301 -46.333 -19 -63s-36.334 -25 -71.001 -25v35c14 0 23.833 3 29.5 9s8.83398 15.667 9.50098 29h-39v69zM339 -12c-44.667 0 -85.6689 7.83105 -123.002 23.498s-69.666 37.834 -96.999 66.501s-48.666 63.167 -63.999 103.5
s-23 84.833 -23 133.5s7.83301 93 23.5 133s37.334 74.333 65.001 103s60.334 51 98.001 67s78.167 24 121.5 24c89.333 0 159 -23.167 209 -69.5s77.667 -109.833 83 -190.5l-83 -5c-3.33301 58 -22.833 104.333 -58.5 139s-85.5 52 -149.5 52
c-32 0 -61.5 -5.83301 -88.5 -17.5s-50.333 -28.5 -70 -50.5s-34.834 -48.667 -45.501 -80s-16 -66.666 -16 -105.999c0 -38.667 5.5 -73.667 16.5 -105s26.5 -58 46.5 -80s44 -38.833 72 -50.5s59 -17.5 93 -17.5c59.333 0 107 16.833 143 50.5s56.667 77.5 62 131.5h-192
v68h271v-311h-79v112c-6.66699 -20 -17.167 -37.667 -31.5 -53s-31 -28.333 -50 -39s-39.833 -18.667 -62.5 -24s-46.334 -8 -71.001 -8z" />
    <glyph glyph-name="gcommaaccent" unicode="&#x123;" horiz-adv-x="480" 
d="M417 300c0 -22.667 -4.50098 -43.1641 -13.501 -61.4971s-21.833 -33.833 -38.5 -46.5s-36.167 -22.5 -58.5 -29.5s-47.166 -10.5 -74.499 -10.5c-36.667 0 -68.667 6 -96 18c-7.33301 -4.66699 -14 -10.5 -20 -17.5s-9 -15.5 -9 -25.5c0 -12 4 -21.333 12 -28
s21.667 -10 41 -10h171c48 0 84.167 -11.167 108.5 -33.5s36.5 -50.5 36.5 -84.5c0 -27.333 -7 -50.5 -21 -69.5s-32.667 -34.5 -56 -46.5s-50.166 -20.833 -80.499 -26.5s-61.833 -8.5 -94.5 -8.5c-29.333 0 -57.166 2.33301 -83.499 7s-49.333 11.834 -69 21.501
s-35.167 22 -46.5 37s-17 32.5 -17 52.5c0 25.333 8.16699 45.666 24.5 60.999s38.166 25.666 65.499 30.999c-20 6.66699 -34.667 16.667 -44 30s-14 28.333 -14 45c0 19.333 6.16699 35.666 18.5 48.999s28.166 24.333 47.499 33c-18 13.333 -32 29.5 -42 48.5
s-15 40.5 -15 64.5c0 23.333 4.5 44.166 13.5 62.499s21.667 33.833 38 46.5s35.666 22.5 57.999 29.5s46.833 10.5 73.5 10.5c28 0 53.667 -4 77 -12s43.333 -19 60 -33c11.333 17.333 26.833 31.666 46.5 42.999s41.167 17 64.5 17v-72c-14.667 0 -29.5 -1.66699 -44.5 -5
s-28.167 -7.66602 -39.5 -12.999c6.66699 -10.667 11.834 -22.167 15.501 -34.5s5.5 -25.5 5.5 -39.5zM86.999 -45.9971c0 -28 12.667 -48.167 38 -60.5s58.333 -18.5 99 -18.5c25.333 0 48.5 1.5 69.5 4.5s39 8 54 15s26.833 16 35.5 27s13 24.5 13 40.5
c0 20 -7.66699 34 -23 42s-35.666 12 -60.999 12h-141c-22.667 0 -42.334 -4.5 -59.001 -13.5s-25 -25.167 -25 -48.5zM332.999 299.003c0 31.333 -8.83301 55.166 -26.5 71.499s-42.167 24.5 -73.5 24.5c-30.667 0 -54.834 -8.16699 -72.501 -24.5
s-26.5 -40.166 -26.5 -71.499c0 -30 8.83301 -53.167 26.5 -69.5s41.834 -24.5 72.501 -24.5c31.333 0 55.833 8.16699 73.5 24.5s26.5 39.5 26.5 69.5zM288.999 520.003h-90v54c0 25.333 6.33301 46.333 19 63s36.334 25 71.001 25v-35c-14 0 -23.833 -3 -29.5 -9
s-8.83398 -15.667 -9.50098 -29h39v-69z" />
    <glyph glyph-name="Hcircumflex" unicode="&#x124;" horiz-adv-x="658" 
d="M61 0v630h87v-270h362v270h87v-630h-87v289h-362v-289h-87zM377 802l80 -126h-60l-68 74l-68 -74h-60l80 126h96z" />
    <glyph glyph-name="hcircumflex" unicode="&#x125;" horiz-adv-x="496" 
d="M140 0l-83.002 -0.000976562v630h83v-271c10.667 26.667 29.334 48.334 56.001 65.001s56.334 25 89.001 25c28.667 0 53 -4.5 73 -13.5s36.5 -21.5 49.5 -37.5s22.5 -34.833 28.5 -56.5s9 -45.167 9 -70.5v-271h-83v264c0 36.667 -8.66699 65.667 -26 87
s-43.333 32 -78 32c-33.333 0 -61.333 -12 -84 -36s-34 -56 -34 -96v-251zM297.998 801.999l80 -126h-60l-68 74l-68 -74h-60l80 126h96z" />
    <glyph glyph-name="Hbar" unicode="&#x126;" horiz-adv-x="695" 
d="M8 508h72v122h86v-122h363v122h86v-122h72v-71h-72v-437h-86v262h-363v-262h-86v437h-72v71zM529 334v103h-363v-103h363z" />
    <glyph glyph-name="hbar" unicode="&#x127;" horiz-adv-x="496" 
d="M-2 549l58.998 0.00195312v81h83v-81h143v-56h-143v-137c10.667 26 29.334 47.333 56.001 64s56.334 25 89.001 25c28.667 0 53 -4.5 73 -13.5s36.5 -21.333 49.5 -37s22.5 -34.334 28.5 -56.001s9 -45.167 9 -70.5v-268h-83v260c0 36.667 -8.66699 65.667 -26 87
s-43.333 32 -78 32c-33.333 0 -61.333 -11.833 -84 -35.5s-34 -55.834 -34 -96.501v-247h-83v493h-59v56z" />
    <glyph glyph-name="Itilde" unicode="&#x128;" horiz-adv-x="209" 
d="M-29 674c0 36.667 6.33398 66 19.001 88s32 33 58 33c12 0 23 -3 33 -9s19.333 -12.833 28 -20.5s17.167 -14.5 25.5 -20.5s16.833 -9 25.5 -9c12 0 19.667 4.83301 23 14.5s5.66602 23.5 6.99902 41.5h50c0 -36.667 -6.33301 -66 -19 -88s-31.667 -33 -57 -33
c-12.667 0 -24 3 -34 9s-19.333 12.667 -28 20s-17 14 -25 20s-16.667 9 -26 9c-12.667 0 -20.667 -4.66699 -24 -14s-5.33301 -23 -6 -41h-50zM148.001 630v-630h-87v630h87z" />
    <glyph glyph-name="itilde" unicode="&#x129;" horiz-adv-x="196" 
d="M-31 512c0 37.333 6 66.833 18 88.5s30.667 32.5 56 32.5c12 0 22.667 -3 32 -9s18 -12.667 26 -20s15.833 -14 23.5 -20s15.834 -9 24.501 -9c12.667 0 20.5 4.83301 23.5 14.5s5.16699 23.167 6.5 40.5h48c0 -36 -6 -65.167 -18 -87.5s-30.667 -33.5 -56 -33.5
c-12 0 -22.667 3 -32 9s-18 12.833 -26 20.5s-15.833 14.5 -23.5 20.5s-15.834 9 -24.501 9c-12.667 0 -20.5 -4.83301 -23.5 -14.5s-5.16699 -23.5 -6.5 -41.5h-48zM140 437v-437h-83v437h83z" />
    <glyph glyph-name="Imacron" unicode="&#x12a;" horiz-adv-x="209" 
d="M148 630v-630h-87v630h87zM-16 746h241v-63h-241v63z" />
    <glyph glyph-name="imacron" unicode="&#x12b;" horiz-adv-x="196" 
d="M140 437v-437h-83v437h83zM-10 579h216v-64h-216v64z" />
    <glyph glyph-name="Ibreve" unicode="&#x12c;" horiz-adv-x="209" 
d="M148 630v-630h-87v630h87zM104 673c-36.667 0 -65.167 10.667 -85.5 32s-30.5 53.666 -30.5 96.999h58c0 -22 4.33301 -39.167 13 -51.5s23.667 -18.5 45 -18.5s36.333 6.16699 45 18.5s13 29.5 13 51.5h58c0 -43.333 -10.167 -75.666 -30.5 -96.999
s-48.833 -32 -85.5 -32z" />
    <glyph glyph-name="ibreve" unicode="&#x12d;" horiz-adv-x="196" 
d="M140 437v-437h-83v437h83zM98 501c-36.667 0 -65.167 10.667 -85.5 32s-30.5 53.666 -30.5 96.999h58c0 -22 4.33301 -39.167 13 -51.5s23.667 -18.5 45 -18.5s36.333 6.16699 45 18.5s13 29.5 13 51.5h58c0 -43.333 -10.167 -75.666 -30.5 -96.999
s-48.833 -32 -85.5 -32z" />
    <glyph glyph-name="Iogonek" unicode="&#x12e;" horiz-adv-x="209" 
d="M148 630l0.000976562 -630.002c-34 -21.333 -57.333 -38.666 -70 -51.999s-19 -27 -19 -41c0 -9.33301 2.83301 -16.666 8.5 -21.999s15.167 -8 28.5 -8c9.33301 0 18.5 1.66699 27.5 5s17.167 7 24.5 11v-46c-8.66699 -5.33301 -18.834 -10.333 -30.501 -15
s-26.167 -7 -43.5 -7c-22.667 0 -41.167 5.66699 -55.5 17s-21.5 28 -21.5 50c0 21.333 7.5 40.833 22.5 58.5s32.833 34.167 53.5 49.5l-12 2v628h87z" />
    <glyph glyph-name="iogonek" unicode="&#x12f;" horiz-adv-x="196" 
d="M140 437l-0.00195312 -437.002c-33.333 -21.333 -56.166 -38.666 -68.499 -51.999s-18.5 -27 -18.5 -41c0 -9.33301 2.83301 -16.666 8.5 -21.999s14.834 -8 27.501 -8c9.33301 0 18.5 1.66699 27.5 5s17.5 7 25.5 11v-46c-8.66699 -5.33301 -18.834 -10.333 -30.501 -15
s-26.5 -7 -44.5 -7c-22 0 -40.167 5.66699 -54.5 17s-21.5 28 -21.5 50c0 21.333 7.33301 40.833 22 58.5s32.334 34.167 53.001 49.5l-9 2v435h83zM54.998 629.998h86v-94h-86v94z" />
    <glyph glyph-name="Idotaccent" unicode="&#x130;" horiz-adv-x="209" 
d="M148 630v-630h-87v630h87zM61 775h87v-94h-87v94z" />
    <glyph glyph-name="dotlessi" unicode="&#x131;" horiz-adv-x="196" 
d="M140 437v-437h-83v437h83z" />
    <glyph glyph-name="IJ" unicode="&#x132;" horiz-adv-x="717" 
d="M148 630v-630h-87v630h87zM665 630l-0.000976562 -415c0 -75.333 -19.833 -132 -59.5 -170s-93.167 -57 -160.5 -57c-66.667 0 -120.167 19.333 -160.5 58s-62.166 95.667 -65.499 171l82 5c3.33301 -51.333 17 -91.333 41 -120s59 -43 105 -43c88 0 132 52.667 132 158
v413h86z" />
    <glyph glyph-name="ij" unicode="&#x133;" horiz-adv-x="392" 
d="M140 437v-437h-83v437h83zM55 630h86v-94h-86v94zM336 -60c0 -38.667 -9.66699 -68.333 -29 -89s-48.666 -31 -87.999 -31c-18.667 0 -36.667 3 -54 9s-31.666 13.667 -42.999 23l20 53c11.333 -7.33301 22.166 -12.833 32.499 -16.5s22.166 -5.5 35.499 -5.5
c28.667 0 43 17 43 51v503h83v-497zM251 630.001h86v-94h-86v94z" />
    <glyph glyph-name="Jcircumflex" unicode="&#x134;" horiz-adv-x="510" 
d="M458 630l-0.000976562 -415c0 -75.333 -19.833 -132 -59.5 -170s-93.167 -57 -160.5 -57c-66.667 0 -120.167 19.333 -160.5 58s-62.166 95.667 -65.499 171l82 5c3.33301 -51.333 17 -91.333 41 -120s59 -43 105 -43c88 0 132 52.667 132 158v413h86zM463.999 802
l80 -126h-60l-68 74l-68 -74h-60l80 126h96z" />
    <glyph glyph-name="jcircumflex" unicode="&#x135;" horiz-adv-x="196" 
d="M140 -60c0 -38.667 -9.66699 -68.333 -29 -89s-48.666 -31 -87.999 -31c-18.667 0 -36.667 3 -54 9s-31.666 13.667 -42.999 23l20 53c11.333 -7.33301 22.166 -12.833 32.499 -16.5s22.166 -5.5 35.499 -5.5c28.667 0 43 17 43 51v503h83v-497zM145 630.001l80 -126h-60
l-68 74l-68 -74h-60l80 126h96z" />
    <glyph glyph-name="Kcommaaccent" unicode="&#x136;" horiz-adv-x="584" 
d="M252 -51h90v-54c0 -25.333 -6.33301 -46.333 -19 -63s-36.334 -25 -71.001 -25v35c14 0 23.833 3 29.5 9s8.83398 15.667 9.50098 29h-39v69zM481 0l-260 299l-73 -74v-225h-87v630h87v-311l305 311h103l-271 -277l301 -353h-105z" />
    <glyph glyph-name="kcommaaccent" unicode="&#x137;" horiz-adv-x="479" 
d="M202 -51h90v-54c0 -25.333 -6.33301 -46.333 -19 -63s-36.334 -25 -71.001 -25v35c14 0 23.833 3 29.5 9s8.83398 15.667 9.50098 29h-39v69zM140 0h-83v630h83v-391l220 198h104l-201 -179l210 -258h-98l-174 212l-61 -54v-158z" />
    <glyph glyph-name="kgreenlandic" unicode="&#x138;" horiz-adv-x="479" 
d="M140 0h-83v437h83v-198l220 198h104l-201 -179l210 -258h-98l-174 212l-61 -54v-158z" />
    <glyph glyph-name="Lacute" unicode="&#x139;" horiz-adv-x="524" 
d="M77 676l54 126h101l-97 -126h-58zM148 630v-558h351v-72h-438v630h87z" />
    <glyph glyph-name="lacute" unicode="&#x13a;" horiz-adv-x="196" 
d="M68 676l54 126h101l-97 -126h-58zM140 630v-630h-83v630h83z" />
    <glyph glyph-name="Lcommaaccent" unicode="&#x13b;" horiz-adv-x="524" 
d="M235 -51h90v-54c0 -25.333 -6.33301 -46.333 -19 -63s-36.334 -25 -71.001 -25v35c14 0 23.833 3 29.5 9s8.83398 15.667 9.50098 29h-39v69zM148 630v-558h351v-72h-438v630h87z" />
    <glyph glyph-name="lcommaaccent" unicode="&#x13c;" horiz-adv-x="196" 
d="M53 -51h90v-54c0 -25.333 -6.33301 -46.333 -19 -63s-36.334 -25 -71.001 -25v35c14 0 23.833 3 29.5 9s8.83398 15.667 9.50098 29h-39v69zM140 630v-630h-83v630h83z" />
    <glyph glyph-name="Lcaron" unicode="&#x13d;" horiz-adv-x="524" 
d="M277 498l15 132h92l-60 -132h-47zM148 630v-558h351v-72h-438v630h87z" />
    <glyph glyph-name="lcaron" unicode="&#x13e;" horiz-adv-x="196" 
d="M178 498l15 132h92l-60 -132h-47zM140 630v-630h-83v630h83z" />
    <glyph glyph-name="Ldot" unicode="&#x13f;" horiz-adv-x="524" 
d="M148 630v-558h351v-72h-438v630h87zM354 380h87v-94h-87v94z" />
    <glyph glyph-name="ldot" unicode="&#x140;" horiz-adv-x="308" 
d="M140 630v-630h-83v630h83zM205 363h87v-94h-87v94z" />
    <glyph glyph-name="Lslash" unicode="&#x141;" horiz-adv-x="528" 
d="M162 630v-294l182 82v-72l-182 -82v-192h351v-72h-438v229l-72 -32v73l72 32v328h87z" />
    <glyph glyph-name="lslash" unicode="&#x142;" horiz-adv-x="236" 
d="M160 630v-231l67 40v-68l-67 -41v-330h-83v289l-68 -41v68l68 41v273h83z" />
    <glyph glyph-name="Nacute" unicode="&#x143;" horiz-adv-x="638" 
d="M298 676l54 126h101l-97 -126h-58zM496 148v482h81v-630h-69l-366 506v-506h-81v630h90z" />
    <glyph glyph-name="nacute" unicode="&#x144;" horiz-adv-x="496" 
d="M224 504l54 126h101l-97 -126h-58zM140 0l-83.002 -0.000976562v437h83v-78c10.667 26.667 29.334 48.334 56.001 65.001s56.334 25 89.001 25c28.667 0 53 -4.5 73 -13.5s36.5 -21.5 49.5 -37.5s22.5 -34.833 28.5 -56.5s9 -45.167 9 -70.5v-271h-83v264
c0 36.667 -8.66699 65.667 -26 87s-43.333 32 -78 32c-33.333 0 -61.333 -12 -84 -36s-34 -56 -34 -96v-251z" />
    <glyph glyph-name="Ncommaaccent" unicode="&#x145;" horiz-adv-x="638" 
d="M282 -51h90v-54c0 -25.333 -6.33301 -46.333 -19 -63s-36.334 -25 -71.001 -25v35c14 0 23.833 3 29.5 9s8.83398 15.667 9.50098 29h-39v69zM496 148v482h81v-630h-69l-366 506v-506h-81v630h90z" />
    <glyph glyph-name="ncommaaccent" unicode="&#x146;" horiz-adv-x="496" 
d="M215 -51h90v-54c0 -25.333 -6.33301 -46.333 -19 -63s-36.334 -25 -71.001 -25v35c14 0 23.833 3 29.5 9s8.83398 15.667 9.50098 29h-39v69zM140 0l-83.002 -0.000976562v437h83v-78c10.667 26.667 29.334 48.334 56.001 65.001s56.334 25 89.001 25
c28.667 0 53 -4.5 73 -13.5s36.5 -21.5 49.5 -37.5s22.5 -34.833 28.5 -56.5s9 -45.167 9 -70.5v-271h-83v264c0 36.667 -8.66699 65.667 -26 87s-43.333 32 -78 32c-33.333 0 -61.333 -12 -84 -36s-34 -56 -34 -96v-251z" />
    <glyph glyph-name="Ncaron" unicode="&#x147;" horiz-adv-x="638" 
d="M279 676l-80 126h60l68 -74l68 74h60l-80 -126h-96zM496 148v482h81v-630h-69l-366 506v-506h-81v630h90z" />
    <glyph glyph-name="ncaron" unicode="&#x148;" horiz-adv-x="496" 
d="M206 504l-80 126h60l68 -75l68 75h60l-80 -126h-96zM140 0l-83.002 -0.000976562v437h83v-78c10.667 26.667 29.334 48.334 56.001 65.001s56.334 25 89.001 25c28.667 0 53 -4.5 73 -13.5s36.5 -21.5 49.5 -37.5s22.5 -34.833 28.5 -56.5s9 -45.167 9 -70.5v-271h-83
v264c0 36.667 -8.66699 65.667 -26 87s-43.333 32 -78 32c-33.333 0 -61.333 -12 -84 -36s-34 -56 -34 -96v-251z" />
    <glyph glyph-name="Eng" unicode="&#x14a;" horiz-adv-x="638" 
d="M320 -54c11.333 -16 24.666 -29.333 39.999 -40s35 -16 59 -16c30 0 50.333 8.83301 61 26.5s16 48.5 16 92.5l-354 497v-506h-81v630h90l345 -490v490h81v-640c0 -61.333 -14.167 -105 -42.5 -131s-65.166 -39 -110.499 -39c-36 0 -67 7.33301 -93 22
s-45.667 33.667 -59 57z" />
    <glyph glyph-name="eng" unicode="&#x14b;" horiz-adv-x="496" 
d="M362 264c0 36.667 -8.66895 65.667 -26.002 87s-43.333 32 -78 32c-33.333 0 -61.333 -12 -84 -36s-34 -56 -34 -96v-251h-83v437h83v-78c10.667 26.667 29.334 48.334 56.001 65.001s56.334 25 89.001 25c28.667 0 53 -4.5 73 -13.5s36.5 -21.5 49.5 -37.5
s22.5 -34.833 28.5 -56.5s9 -45.167 9 -70.5v-331c0 -38.667 -9.66699 -68.334 -29 -89.001s-48.666 -31 -87.999 -31c-18.667 0 -36.667 3 -54 9s-31.666 13.667 -42.999 23l20 53c11.333 -7.33301 22.166 -12.833 32.499 -16.5s22.166 -5.5 35.499 -5.5
c28.667 0 43 17 43 51v330z" />
    <glyph glyph-name="Omacron" unicode="&#x14c;" horiz-adv-x="689" 
d="M216 746h259v-63h-259v63zM658 315c0 -48.667 -7.66699 -93 -23 -133s-36.833 -74.333 -64.5 -103s-60.667 -51 -99 -67s-80.5 -24 -126.5 -24s-88.167 8 -126.5 24s-71.333 38.333 -99 67s-49.167 63 -64.5 103s-23 84.333 -23 133s7.66699 93 23 133
s36.833 74.333 64.5 103s60.667 51 99 67s80.5 24 126.5 24s88.167 -8 126.5 -24s71.333 -38.333 99 -67s49.167 -63 64.5 -103s23 -84.333 23 -133zM568 315c0 38.667 -5.16699 73.5 -15.5 104.5s-25.333 57.5 -45 79.5s-43.167 39 -70.5 51s-58 18 -92 18
s-64.833 -6 -92.5 -18s-51.167 -29 -70.5 -51s-34.333 -48.5 -45 -79.5s-16 -65.833 -16 -104.5s5.33301 -73.5 16 -104.5s25.667 -57.5 45 -79.5s42.833 -39 70.5 -51s58.5 -18 92.5 -18s64.667 6 92 18s50.833 29 70.5 51s34.667 48.5 45 79.5s15.5 65.833 15.5 104.5z
" />
    <glyph glyph-name="omacron" unicode="&#x14d;" horiz-adv-x="504" 
d="M123 579h257v-64h-257v64zM114 218c0 -48.667 11.833 -88.5 35.5 -119.5s57.5 -46.5 101.5 -46.5c44.667 0 79 15.5 103 46.5s36 70.833 36 119.5c0 49.333 -12 89.333 -36 120s-58.333 46 -103 46c-44 0 -77.833 -15.333 -101.5 -46s-35.5 -70.667 -35.5 -120zM475 218
c0 -34 -5.66699 -65.167 -17 -93.5s-27 -52.5 -47 -72.5s-43.667 -35.667 -71 -47s-57 -17 -89 -17s-61.5 5.66699 -88.5 17s-50.5 27 -70.5 47s-35.5 44.167 -46.5 72.5s-16.5 59.5 -16.5 93.5s5.5 65.167 16.5 93.5s26.5 52.666 46.5 72.999s43.5 36.166 70.5 47.499
s56.5 17 88.5 17s61.667 -5.66699 89 -17s51 -27.166 71 -47.499s35.667 -44.666 47 -72.999s17 -59.5 17 -93.5z" />
    <glyph glyph-name="Obreve" unicode="&#x14e;" horiz-adv-x="689" 
d="M345 673c-36.667 0 -65.167 10.667 -85.5 32s-30.5 53.666 -30.5 96.999h58c0 -22 4.33301 -39.167 13 -51.5s23.667 -18.5 45 -18.5s36.333 6.16699 45 18.5s13 29.5 13 51.5h58c0 -43.333 -10.167 -75.666 -30.5 -96.999s-48.833 -32 -85.5 -32zM658 315
c0 -48.667 -7.66699 -93 -23 -133s-36.833 -74.333 -64.5 -103s-60.667 -51 -99 -67s-80.5 -24 -126.5 -24s-88.167 8 -126.5 24s-71.333 38.333 -99 67s-49.167 63 -64.5 103s-23 84.333 -23 133s7.66699 93 23 133s36.833 74.333 64.5 103s60.667 51 99 67
s80.5 24 126.5 24s88.167 -8 126.5 -24s71.333 -38.333 99 -67s49.167 -63 64.5 -103s23 -84.333 23 -133zM568 315c0 38.667 -5.16699 73.5 -15.5 104.5s-25.333 57.5 -45 79.5s-43.167 39 -70.5 51s-58 18 -92 18s-64.833 -6 -92.5 -18s-51.167 -29 -70.5 -51
s-34.333 -48.5 -45 -79.5s-16 -65.833 -16 -104.5s5.33301 -73.5 16 -104.5s25.667 -57.5 45 -79.5s42.833 -39 70.5 -51s58.5 -18 92.5 -18s64.667 6 92 18s50.833 29 70.5 51s34.667 48.5 45 79.5s15.5 65.833 15.5 104.5z" />
    <glyph glyph-name="obreve" unicode="&#x14f;" horiz-adv-x="504" 
d="M114 218c0 -48.667 11.833 -88.5 35.5 -119.5s57.5 -46.5 101.5 -46.5c44.667 0 79 15.5 103 46.5s36 70.833 36 119.5c0 49.333 -12 89.333 -36 120s-58.333 46 -103 46c-44 0 -77.833 -15.333 -101.5 -46s-35.5 -70.667 -35.5 -120zM475 218
c0 -34 -5.66699 -65.167 -17 -93.5s-27 -52.5 -47 -72.5s-43.667 -35.667 -71 -47s-57 -17 -89 -17s-61.5 5.66699 -88.5 17s-50.5 27 -70.5 47s-35.5 44.167 -46.5 72.5s-16.5 59.5 -16.5 93.5s5.5 65.167 16.5 93.5s26.5 52.666 46.5 72.999s43.5 36.166 70.5 47.499
s56.5 17 88.5 17s61.667 -5.66699 89 -17s51 -27.166 71 -47.499s35.667 -44.666 47 -72.999s17 -59.5 17 -93.5zM251 501c-36.667 0 -65.167 10.667 -85.5 32s-30.5 53.666 -30.5 96.999h58c0 -22 4.33301 -39.167 13 -51.5s23.667 -18.5 45 -18.5s36.333 6.16699 45 18.5
s13 29.5 13 51.5h58c0 -43.333 -10.167 -75.666 -30.5 -96.999s-48.833 -32 -85.5 -32z" />
    <glyph glyph-name="Ohungarumlaut" unicode="&#x150;" horiz-adv-x="689" 
d="M658 315c0 -48.667 -7.66699 -93 -23 -133s-36.833 -74.333 -64.5 -103s-60.667 -51 -99 -67s-80.5 -24 -126.5 -24s-88.167 8 -126.5 24s-71.333 38.333 -99 67s-49.167 63 -64.5 103s-23 84.333 -23 133s7.66699 93 23 133s36.833 74.333 64.5 103s60.667 51 99 67
s80.5 24 126.5 24s88.167 -8 126.5 -24s71.333 -38.333 99 -67s49.167 -63 64.5 -103s23 -84.333 23 -133zM568 315c0 38.667 -5.16699 73.5 -15.5 104.5s-25.333 57.5 -45 79.5s-43.167 39 -70.5 51s-58 18 -92 18s-64.833 -6 -92.5 -18s-51.167 -29 -70.5 -51
s-34.333 -48.5 -45 -79.5s-16 -65.833 -16 -104.5s5.33301 -73.5 16 -104.5s25.667 -57.5 45 -79.5s42.833 -39 70.5 -51s58.5 -18 92.5 -18s64.667 6 92 18s50.833 29 70.5 51s34.667 48.5 45 79.5s15.5 65.833 15.5 104.5zM256 676l51 126h95l-94 -126h-52zM388 676
l51 126h95l-94 -126h-52z" />
    <glyph glyph-name="ohungarumlaut" unicode="&#x151;" horiz-adv-x="504" 
d="M158 504l51 126h95l-94 -126h-52zM290 504l51 126h95l-94 -126h-52zM114 218c0 -48.667 11.833 -88.5 35.5 -119.5s57.5 -46.5 101.5 -46.5c44.667 0 79 15.5 103 46.5s36 70.833 36 119.5c0 49.333 -12 89.333 -36 120s-58.333 46 -103 46
c-44 0 -77.833 -15.333 -101.5 -46s-35.5 -70.667 -35.5 -120zM475 218c0 -34 -5.66699 -65.167 -17 -93.5s-27 -52.5 -47 -72.5s-43.667 -35.667 -71 -47s-57 -17 -89 -17s-61.5 5.66699 -88.5 17s-50.5 27 -70.5 47s-35.5 44.167 -46.5 72.5s-16.5 59.5 -16.5 93.5
s5.5 65.167 16.5 93.5s26.5 52.666 46.5 72.999s43.5 36.166 70.5 47.499s56.5 17 88.5 17s61.667 -5.66699 89 -17s51 -27.166 71 -47.499s35.667 -44.666 47 -72.999s17 -59.5 17 -93.5z" />
    <glyph glyph-name="OE" unicode="&#x152;" horiz-adv-x="951" 
d="M913 0h-559c-49.333 0 -93.833 7.16699 -133.5 21.5s-73.5 35 -101.5 62s-49.5 60 -64.5 99s-22.5 83.167 -22.5 132.5s7.5 93.5 22.5 132.5s36.5 72 64.5 99s61.833 47.667 101.5 62s84.167 21.5 133.5 21.5h550v-72h-356v-198h283v-71h-283v-217h365v-72zM359 559
c-77.333 0 -136.333 -21.5 -177 -64.5s-61 -102.833 -61 -179.5s20.333 -136.5 61 -179.5s99.667 -64.5 177 -64.5h105v488h-105z" />
    <glyph glyph-name="oe" unicode="&#x153;" horiz-adv-x="844" 
d="M609 -12c-40 0 -75.3359 8.00293 -106.003 24.0029s-55.667 38 -75 66c-20 -28 -44.667 -50 -74 -66s-63.666 -24 -102.999 -24c-32 0 -61.5 5.66699 -88.5 17s-50.5 27 -70.5 47s-35.5 44.167 -46.5 72.5s-16.5 59.5 -16.5 93.5s5.5 65.167 16.5 93.5
s26.5 52.666 46.5 72.999s43.5 36.166 70.5 47.499s56.5 17 88.5 17c38.667 0 73.334 -8.33301 104.001 -25s56 -39.334 76 -68.001c19.333 28.667 43.833 51.334 73.5 68.001s63.167 25 100.5 25c34.667 0 65.167 -5.83301 91.5 -17.5s48.166 -27.334 65.499 -47.001
s30.5 -42.667 39.5 -69s13.5 -54.5 13.5 -84.5v-33h-348c1.33301 -21.333 5.83301 -40.833 13.5 -58.5s17.834 -33 30.501 -46s27.5 -23 44.5 -30s35.167 -10.5 54.5 -10.5c36.667 0 65.834 8.5 87.501 25.5s37.167 42.5 46.5 76.5l69 -8c-11.333 -50 -34.5 -89 -69.5 -117
s-79.833 -42 -134.5 -42zM113.997 218.003c0 -48.667 11.833 -88.5 35.5 -119.5s57.5 -46.5 101.5 -46.5c44.667 0 79 15.5 103 46.5s36 70.833 36 119.5c0 49.333 -12 89.333 -36 120s-58.333 46 -103 46c-44 0 -77.833 -15.333 -101.5 -46s-35.5 -70.667 -35.5 -120z
M729.997 252.003c-0.666992 17.333 -3.66895 34.1689 -9.00195 50.502s-13.166 30.666 -23.499 42.999s-23.166 22.166 -38.499 29.499s-33.333 11 -54 11c-20 0 -37.833 -3.66699 -53.5 -11s-29.167 -17 -40.5 -29s-20.5 -26.167 -27.5 -42.5s-11.833 -33.5 -14.5 -51.5
h261z" />
    <glyph glyph-name="Racute" unicode="&#x154;" horiz-adv-x="599" 
d="M473 0c-12.667 17.333 -21.334 63.0039 -26.001 137.004c-2 35.333 -12.167 63.666 -30.5 84.999s-49.166 32 -92.499 32h-178v-254h-85v630h256c80 0 139.5 -17 178.5 -51s58.5 -79 58.5 -135c0 -24 -3.83301 -45.333 -11.5 -64s-18 -34.5 -31 -47.5
s-28.167 -23.333 -45.5 -31s-35.666 -12.5 -54.999 -14.5c38.667 -7.33301 67.5 -22.5 86.5 -45.5s30.167 -53.167 33.5 -90.5c2 -22.667 3.83301 -42.334 5.5 -59.001s3.5 -30.834 5.5 -42.501s4.66699 -21.334 8 -29.001s7.66602 -14.5 12.999 -20.5h-90zM312 323.004
c54 0 93.333 9.83301 118 29.5s37 49.167 37 88.5c0 36 -12.333 64.667 -37 86s-64 32 -118 32h-166v-236h166zM270 676.004l54 126h101l-97 -126h-58z" />
    <glyph glyph-name="racute" unicode="&#x155;" horiz-adv-x="331" 
d="M160 504l54 126h101l-97 -126h-58zM318 354c-12 6.66699 -22.999 11.332 -32.999 13.999s-21.667 4 -35 4c-32 0 -58.333 -13 -79 -39s-31 -60 -31 -102v-231h-83v437h83v-89c4 12.667 9.83301 25 17.5 37s16.667 22.833 27 32.5s22.166 17.334 35.499 23.001
s28 8.5 44 8.5c26 0 46.667 -6.66699 62 -20z" />
    <glyph glyph-name="Rcommaaccent" unicode="&#x156;" horiz-adv-x="599" 
d="M255 -51h90v-54c0 -25.333 -6.33301 -46.333 -19 -63s-36.334 -25 -71.001 -25v35c14 0 23.833 3 29.5 9s8.83398 15.667 9.50098 29h-39v69zM473 0c-12.667 17.333 -21.334 63.0039 -26.001 137.004c-2 35.333 -12.167 63.666 -30.5 84.999s-49.166 32 -92.499 32h-178
v-254h-85v630h256c80 0 139.5 -17 178.5 -51s58.5 -79 58.5 -135c0 -24 -3.83301 -45.333 -11.5 -64s-18 -34.5 -31 -47.5s-28.167 -23.333 -45.5 -31s-35.666 -12.5 -54.999 -14.5c38.667 -7.33301 67.5 -22.5 86.5 -45.5s30.167 -53.167 33.5 -90.5
c2 -22.667 3.83301 -42.334 5.5 -59.001s3.5 -30.834 5.5 -42.501s4.66699 -21.334 8 -29.001s7.66602 -14.5 12.999 -20.5h-90zM312 323.004c54 0 93.333 9.83301 118 29.5s37 49.167 37 88.5c0 36 -12.333 64.667 -37 86s-64 32 -118 32h-166v-236h166z" />
    <glyph glyph-name="rcommaaccent" unicode="&#x157;" horiz-adv-x="331" 
d="M53 -51h90v-54c0 -25.333 -6.33301 -46.333 -19 -63s-36.334 -25 -71.001 -25v35c14 0 23.833 3 29.5 9s8.83398 15.667 9.50098 29h-39v69zM318 354c-12 6.66699 -22.999 11.332 -32.999 13.999s-21.667 4 -35 4c-32 0 -58.333 -13 -79 -39s-31 -60 -31 -102v-231h-83
v437h83v-89c4 12.667 9.83301 25 17.5 37s16.667 22.833 27 32.5s22.166 17.334 35.499 23.001s28 8.5 44 8.5c26 0 46.667 -6.66699 62 -20z" />
    <glyph glyph-name="Rcaron" unicode="&#x158;" horiz-adv-x="599" 
d="M252 676l-80 126h60l68 -74l68 74h60l-80 -126h-96zM473 0c-12.667 17.333 -21.334 63.0039 -26.001 137.004c-2 35.333 -12.167 63.666 -30.5 84.999s-49.166 32 -92.499 32h-178v-254h-85v630h256c80 0 139.5 -17 178.5 -51s58.5 -79 58.5 -135
c0 -24 -3.83301 -45.333 -11.5 -64s-18 -34.5 -31 -47.5s-28.167 -23.333 -45.5 -31s-35.666 -12.5 -54.999 -14.5c38.667 -7.33301 67.5 -22.5 86.5 -45.5s30.167 -53.167 33.5 -90.5c2 -22.667 3.83301 -42.334 5.5 -59.001s3.5 -30.834 5.5 -42.501
s4.66699 -21.334 8 -29.001s7.66602 -14.5 12.999 -20.5h-90zM312 323.004c54 0 93.333 9.83301 118 29.5s37 49.167 37 88.5c0 36 -12.333 64.667 -37 86s-64 32 -118 32h-166v-236h166z" />
    <glyph glyph-name="rcaron" unicode="&#x159;" horiz-adv-x="331" 
d="M140 504l-80 126h60l68 -75l68 75h60l-80 -126h-96zM318 354c-12 6.66699 -22.999 11.332 -32.999 13.999s-21.667 4 -35 4c-32 0 -58.333 -13 -79 -39s-31 -60 -31 -102v-231h-83v437h83v-89c4 12.667 9.83301 25 17.5 37s16.667 22.833 27 32.5
s22.166 17.334 35.499 23.001s28 8.5 44 8.5c26 0 46.667 -6.66699 62 -20z" />
    <glyph glyph-name="Sacute" unicode="&#x15a;" horiz-adv-x="561" 
d="M100 230c1.33301 -28.667 6.99805 -53.8281 16.998 -75.4951s23.333 -39.834 40 -54.501s36.334 -25.667 59.001 -33s47.334 -11 74.001 -11c47.333 0 84.666 9.5 111.999 28.5s41 45.833 41 80.5c0 29.333 -9.66699 51.666 -29 66.999s-49.666 27 -90.999 35l-125 24
c-46.667 9.33301 -84.5 27.166 -113.5 53.499s-43.5 63.833 -43.5 112.5c0 27.333 5.33301 52.333 16 75s25.667 42.167 45 58.5s42.833 29 70.5 38s58.834 13.5 93.501 13.5c79.333 0 140.666 -19.833 183.999 -59.5s65.333 -95.167 66 -166.5l-79 -4
c-1.33301 52 -17 92.167 -47 120.5s-71 42.5 -123 42.5c-46 0 -81.167 -10 -105.5 -30s-36.5 -47.667 -36.5 -83c0 -31.333 9.83301 -53.333 29.5 -66s47.834 -22.667 84.501 -30l114 -22c58 -11.333 101.333 -30.333 130 -57s43 -65.334 43 -116.001
c0 -28.667 -5.83301 -54.5 -17.5 -77.5s-28 -42.167 -49 -57.5s-46 -27.166 -75 -35.499s-60.5 -12.5 -94.5 -12.5c-38.667 0 -74.334 5.16699 -107.001 15.5s-61 25.666 -85 45.999s-42.667 45.166 -56 74.499s-20 63 -20 101zM249.998 676.006l54 126h101l-97 -126h-58z
" />
    <glyph glyph-name="sacute" unicode="&#x15b;" horiz-adv-x="433" 
d="M185 504l54 126h101l-97 -126h-58zM95 152c4 -34 17.1641 -59.668 39.4971 -77.001s52.5 -26 90.5 -26c29.333 0 53.5 5.33301 72.5 16s28.5 27 28.5 49c0 20.667 -7 35.334 -21 44.001s-34.667 15.667 -62 21l-74 13c-41.333 6.66699 -73.5 19.334 -96.5 38.001
s-34.5 47 -34.5 85c0 40 15.333 72.333 46 97s71.334 37 122.001 37c58.667 0 104.334 -13.167 137.001 -39.5s51 -64.833 55 -115.5l-67 -4c-10 65.333 -51.667 98 -125 98c-28 0 -50.167 -5.83301 -66.5 -17.5s-24.5 -27.5 -24.5 -47.5c0 -17.333 5.5 -30.833 16.5 -40.5
s27.833 -16.5 50.5 -20.5l82 -13c44 -7.33301 78.333 -20.333 103 -39s37 -48 37 -88c0 -22 -4.5 -41.333 -13.5 -58s-21.5 -30.667 -37.5 -42s-35 -19.833 -57 -25.5s-45.667 -8.5 -71 -8.5c-27.333 0 -52.666 3.16699 -75.999 9.5s-43.833 16.166 -61.5 29.499
s-32 30 -43 50s-17.5 43.333 -19.5 70z" />
    <glyph glyph-name="Scircumflex" unicode="&#x15c;" horiz-adv-x="561" 
d="M100 230c1.33301 -28.667 6.99805 -53.8281 16.998 -75.4951s23.333 -39.834 40 -54.501s36.334 -25.667 59.001 -33s47.334 -11 74.001 -11c47.333 0 84.666 9.5 111.999 28.5s41 45.833 41 80.5c0 29.333 -9.66699 51.666 -29 66.999s-49.666 27 -90.999 35l-125 24
c-46.667 9.33301 -84.5 27.166 -113.5 53.499s-43.5 63.833 -43.5 112.5c0 27.333 5.33301 52.333 16 75s25.667 42.167 45 58.5s42.833 29 70.5 38s58.834 13.5 93.501 13.5c79.333 0 140.666 -19.833 183.999 -59.5s65.333 -95.167 66 -166.5l-79 -4
c-1.33301 52 -17 92.167 -47 120.5s-71 42.5 -123 42.5c-46 0 -81.167 -10 -105.5 -30s-36.5 -47.667 -36.5 -83c0 -31.333 9.83301 -53.333 29.5 -66s47.834 -22.667 84.501 -30l114 -22c58 -11.333 101.333 -30.333 130 -57s43 -65.334 43 -116.001
c0 -28.667 -5.83301 -54.5 -17.5 -77.5s-28 -42.167 -49 -57.5s-46 -27.166 -75 -35.499s-60.5 -12.5 -94.5 -12.5c-38.667 0 -74.334 5.16699 -107.001 15.5s-61 25.666 -85 45.999s-42.667 45.166 -56 74.499s-20 63 -20 101zM327.998 802.006l80 -126h-60l-68 74l-68 -74
h-60l80 126h96z" />
    <glyph glyph-name="scircumflex" unicode="&#x15d;" horiz-adv-x="433" 
d="M268 630l80 -126h-60l-68 74l-68 -74h-60l80 126h96zM95 152c4 -34 17.1641 -59.668 39.4971 -77.001s52.5 -26 90.5 -26c29.333 0 53.5 5.33301 72.5 16s28.5 27 28.5 49c0 20.667 -7 35.334 -21 44.001s-34.667 15.667 -62 21l-74 13
c-41.333 6.66699 -73.5 19.334 -96.5 38.001s-34.5 47 -34.5 85c0 40 15.333 72.333 46 97s71.334 37 122.001 37c58.667 0 104.334 -13.167 137.001 -39.5s51 -64.833 55 -115.5l-67 -4c-10 65.333 -51.667 98 -125 98c-28 0 -50.167 -5.83301 -66.5 -17.5
s-24.5 -27.5 -24.5 -47.5c0 -17.333 5.5 -30.833 16.5 -40.5s27.833 -16.5 50.5 -20.5l82 -13c44 -7.33301 78.333 -20.333 103 -39s37 -48 37 -88c0 -22 -4.5 -41.333 -13.5 -58s-21.5 -30.667 -37.5 -42s-35 -19.833 -57 -25.5s-45.667 -8.5 -71 -8.5
c-27.333 0 -52.666 3.16699 -75.999 9.5s-43.833 16.166 -61.5 29.499s-32 30 -43 50s-17.5 43.333 -19.5 70z" />
    <glyph glyph-name="Scedilla" unicode="&#x15e;" horiz-adv-x="561" 
d="M391 -102c0 -13.333 -3.17285 -24.6602 -9.50586 -33.9932s-14.666 -16.833 -24.999 -22.5s-22.333 -9.83398 -36 -12.501s-27.5 -4 -41.5 -4c-24 0 -45.667 4 -65 12s-34.333 16.667 -45 26l17 32c10.667 -8 23.834 -15.333 39.501 -22s32.5 -10 50.5 -10
c15.333 0 27.5 2.33301 36.5 7s13.5 12.334 13.5 23.001c0 10 -2.83301 17.333 -8.5 22s-12.834 7.5 -21.501 8.5s-18 0.666992 -28 -1s-19 -4.5 -27 -8.5l-20 11l43 64c-35.333 2 -67.833 8.66699 -97.5 20s-55.167 27 -76.5 47s-38 44.167 -50 72.5s-18 60.5 -18 96.5
l78 5c1.33301 -28.667 7 -53.834 17 -75.501s23.333 -39.834 40 -54.501s36.334 -25.667 59.001 -33s47.334 -11 74.001 -11c47.333 0 84.666 9.5 111.999 28.5s41 45.833 41 80.5c0 29.333 -9.66699 51.666 -29 66.999s-49.666 27 -90.999 35l-125 24
c-46.667 9.33301 -84.5 27.166 -113.5 53.499s-43.5 63.833 -43.5 112.5c0 27.333 5.33301 52.333 16 75s25.667 42.167 45 58.5s42.833 29 70.5 38s58.834 13.5 93.501 13.5c79.333 0 140.666 -19.833 183.999 -59.5s65.333 -95.167 66 -166.5l-79 -4
c-1.33301 52 -17 92.167 -47 120.5s-71 42.5 -123 42.5c-46 0 -81.167 -10 -105.5 -30s-36.5 -47.667 -36.5 -83c0 -31.333 9.83301 -53.333 29.5 -66s47.834 -22.667 84.501 -30l114 -22c58 -11.333 101.333 -30.333 130 -57s43 -65.334 43 -116.001
c0 -28 -5.5 -53.167 -16.5 -75.5s-26.5 -41.333 -46.5 -57s-43.667 -27.834 -71 -36.501s-57.333 -13.334 -90 -14.001l-25 -33c14 4 27.833 5.83301 41.5 5.5s25.834 -2.83301 36.501 -7.5s19.334 -11.5 26.001 -20.5s10 -20.5 10 -34.5z" />
    <glyph glyph-name="scedilla" unicode="&#x15f;" horiz-adv-x="433" 
d="M332 -102c0 -13.333 -3.17188 -24.667 -9.50488 -34s-14.666 -16.833 -24.999 -22.5s-22.333 -9.83398 -36 -12.501s-27.5 -4 -41.5 -4c-24 0 -45.667 4 -65 12s-34.333 16.667 -45 26l17 32c10.667 -8 23.834 -15.333 39.501 -22s32.5 -10 50.5 -10
c15.333 0 27.5 2.33301 36.5 7s13.5 12.334 13.5 23.001c0 10 -2.83301 17.333 -8.5 22s-12.834 7.5 -21.501 8.5s-18 0.666992 -28 -1s-19 -4.5 -27 -8.5l-20 11l43 64c-49.333 2.66699 -90.833 17 -124.5 43s-52.167 64.333 -55.5 115l70 5c4 -34 17.167 -59.667 39.5 -77
s52.5 -26 90.5 -26c29.333 0 53.5 5.33301 72.5 16s28.5 27 28.5 49c0 20.667 -7 35.334 -21 44.001s-34.667 15.667 -62 21l-74 13c-41.333 6.66699 -73.5 19.334 -96.5 38.001s-34.5 47 -34.5 85c0 40 15.333 72.333 46 97s71.334 37 122.001 37
c58.667 0 104.334 -13.167 137.001 -39.5s51 -64.833 55 -115.5l-67 -4c-10 65.333 -51.667 98 -125 98c-28 0 -50.167 -5.83301 -66.5 -17.5s-24.5 -27.5 -24.5 -47.5c0 -17.333 5.5 -30.833 16.5 -40.5s27.833 -16.5 50.5 -20.5l82 -13
c44 -7.33301 78.333 -20.333 103 -39s37 -48 37 -88c0 -40.667 -15.167 -72.334 -45.5 -95.001s-68.833 -35.334 -115.5 -38.001l-25 -34c14 4 27.833 5.83301 41.5 5.5s25.834 -2.83301 36.501 -7.5s19.334 -11.5 26.001 -20.5s10 -20.5 10 -34.5z" />
    <glyph glyph-name="Scaron" unicode="&#x160;" horiz-adv-x="561" 
d="M100 230c1.33301 -28.667 6.99805 -53.8281 16.998 -75.4951s23.333 -39.834 40 -54.501s36.334 -25.667 59.001 -33s47.334 -11 74.001 -11c47.333 0 84.666 9.5 111.999 28.5s41 45.833 41 80.5c0 29.333 -9.66699 51.666 -29 66.999s-49.666 27 -90.999 35l-125 24
c-46.667 9.33301 -84.5 27.166 -113.5 53.499s-43.5 63.833 -43.5 112.5c0 27.333 5.33301 52.333 16 75s25.667 42.167 45 58.5s42.833 29 70.5 38s58.834 13.5 93.501 13.5c79.333 0 140.666 -19.833 183.999 -59.5s65.333 -95.167 66 -166.5l-79 -4
c-1.33301 52 -17 92.167 -47 120.5s-71 42.5 -123 42.5c-46 0 -81.167 -10 -105.5 -30s-36.5 -47.667 -36.5 -83c0 -31.333 9.83301 -53.333 29.5 -66s47.834 -22.667 84.501 -30l114 -22c58 -11.333 101.333 -30.333 130 -57s43 -65.334 43 -116.001
c0 -28.667 -5.83301 -54.5 -17.5 -77.5s-28 -42.167 -49 -57.5s-46 -27.166 -75 -35.499s-60.5 -12.5 -94.5 -12.5c-38.667 0 -74.334 5.16699 -107.001 15.5s-61 25.666 -85 45.999s-42.667 45.166 -56 74.499s-20 63 -20 101zM231.998 676.006l-80 126h60l68 -74l68 74h60
l-80 -126h-96z" />
    <glyph glyph-name="scaron" unicode="&#x161;" horiz-adv-x="433" 
d="M169 504l-80 126h60l68 -75l68 75h60l-80 -126h-96zM95 152c4 -34 17.1641 -59.668 39.4971 -77.001s52.5 -26 90.5 -26c29.333 0 53.5 5.33301 72.5 16s28.5 27 28.5 49c0 20.667 -7 35.334 -21 44.001s-34.667 15.667 -62 21l-74 13
c-41.333 6.66699 -73.5 19.334 -96.5 38.001s-34.5 47 -34.5 85c0 40 15.333 72.333 46 97s71.334 37 122.001 37c58.667 0 104.334 -13.167 137.001 -39.5s51 -64.833 55 -115.5l-67 -4c-10 65.333 -51.667 98 -125 98c-28 0 -50.167 -5.83301 -66.5 -17.5
s-24.5 -27.5 -24.5 -47.5c0 -17.333 5.5 -30.833 16.5 -40.5s27.833 -16.5 50.5 -20.5l82 -13c44 -7.33301 78.333 -20.333 103 -39s37 -48 37 -88c0 -22 -4.5 -41.333 -13.5 -58s-21.5 -30.667 -37.5 -42s-35 -19.833 -57 -25.5s-45.667 -8.5 -71 -8.5
c-27.333 0 -52.666 3.16699 -75.999 9.5s-43.833 16.166 -61.5 29.499s-32 30 -43 50s-17.5 43.333 -19.5 70z" />
    <glyph glyph-name="Tcedilla" unicode="&#x162;" horiz-adv-x="590" 
d="M250 -51h90v-54c0 -25.333 -6.33301 -46.333 -19 -63s-36.334 -25 -71.001 -25v35c14 0 23.833 3 29.5 9s8.83398 15.667 9.50098 29h-39v69zM250 0v558h-229v72h548v-72h-233v-558h-86z" />
    <glyph glyph-name="tcedilla" unicode="&#x163;" horiz-adv-x="306" 
d="M136 -51h90v-54c0 -25.333 -6.33301 -46.333 -19 -63s-36.334 -25 -71.001 -25v35c14 0 23.833 3 29.5 9s8.83398 15.667 9.50098 29h-39v69zM72 377l-65.999 -0.00195312v45l28 5c20.667 4 34.5 11.333 41.5 22s13.167 26.667 18.5 48l13 61h47v-121h123v-60h-123v-265
c0 -19.333 4.16699 -33.666 12.5 -42.999s22.166 -14 41.499 -14c14 0 28 2.5 42 7.5s27.333 11.167 40 18.5v-56c-16 -12 -32.667 -21.167 -50 -27.5s-38 -9.5 -62 -9.5c-30.667 0 -56 8.33301 -76 25s-30 46.334 -30 89.001v275z" />
    <glyph glyph-name="Tcaron" unicode="&#x164;" horiz-adv-x="590" 
d="M247 676l-80 126h60l68 -74l68 74h60l-80 -126h-96zM250 0v558h-229v72h548v-72h-233v-558h-86z" />
    <glyph glyph-name="tcaron" unicode="&#x165;" horiz-adv-x="306" 
d="M218 498l15 132h92l-60 -132h-47zM72 377l-65.999 -0.00195312v45l28 5c20.667 4 34.5 11.333 41.5 22s13.167 26.667 18.5 48l13 61h47v-121h123v-60h-123v-265c0 -19.333 4.16699 -33.666 12.5 -42.999s22.166 -14 41.499 -14c14 0 28 2.5 42 7.5
s27.333 11.167 40 18.5v-56c-16 -12 -32.667 -21.167 -50 -27.5s-38 -9.5 -62 -9.5c-30.667 0 -56 8.33301 -76 25s-30 46.334 -30 89.001v275z" />
    <glyph glyph-name="Tbar" unicode="&#x166;" horiz-adv-x="590" 
d="M114 356h136v202h-229v72h548v-72h-233v-202h137v-70h-137v-286h-86v286h-136v70z" />
    <glyph glyph-name="tbar" unicode="&#x167;" horiz-adv-x="319" 
d="M15 268l66.001 -0.00195312v109h-66v45l28 5c20.667 4 34.5 11.333 41.5 22s13.167 26.667 18.5 48l13 61h47v-121h123v-60h-123v-109h115v-56h-115v-100c0 -19.333 4.16699 -33.666 12.5 -42.999s22.166 -14 41.499 -14c14 0 28 2.5 42 7.5s27.333 11.167 40 18.5v-56
c-16 -12 -32.667 -21.167 -50 -27.5s-38 -9.5 -62 -9.5c-30.667 0 -56 8.33301 -76 25s-30 46.334 -30 89.001v110h-66v56z" />
    <glyph glyph-name="Utilde" unicode="&#x168;" horiz-adv-x="616" 
d="M162 675c0 36.667 6.83301 65.833 20.5 87.5s34.5 32.5 62.5 32.5c13.333 0 25.5 -3 36.5 -9s21.167 -12.667 30.5 -20s18.5 -14 27.5 -20s18.5 -9 28.5 -9c14 0 23.333 4.83301 28 14.5s7.66699 23.167 9 40.5h50c0 -36 -6.83301 -65 -20.5 -87s-34.5 -33 -62.5 -33
c-13.333 0 -25.5 3 -36.5 9s-21.167 12.667 -30.5 20s-18.5 14 -27.5 20s-18.5 9 -28.5 9c-13.333 0 -22.5 -4.83301 -27.5 -14.5s-8.16699 -23.167 -9.5 -40.5h-50zM308 -12.001c-35.333 0 -68.5 4.5 -99.5 13.5s-58 23.667 -81 44s-41.167 46.5 -54.5 78.5s-20 71 -20 117
v389h86v-390c0 -60.667 14.333 -105.667 43 -135s70.667 -44 126 -44s97.666 14.667 126.999 44s44 74 44 134v391h85v-389c0 -46 -6.66699 -85 -20 -117s-31.5 -58.167 -54.5 -78.5s-50.167 -35 -81.5 -44s-64.666 -13.5 -99.999 -13.5z" />
    <glyph glyph-name="utilde" unicode="&#x169;" horiz-adv-x="491" 
d="M351 437h83.002v-437h-83v77c-10.667 -26 -28.834 -47.333 -54.501 -64s-55.167 -25 -88.5 -25c-28.667 0 -52.834 4.5 -72.501 13.5s-35.667 21.333 -48 37s-21.333 34.334 -27 56.001s-8.5 45.167 -8.5 70.5v272h83v-264c0 -36.667 8.16699 -65.834 24.5 -87.501
s41.833 -32.5 76.5 -32.5c32.667 0 60 12 82 36s33 56.333 33 97v251zM100.002 506c0 36 6.83301 65.001 20.5 87.001s34.5 33 62.5 33c13.333 0 25.5 -3 36.5 -9s21.167 -12.667 30.5 -20s18.5 -14 27.5 -20s18.5 -9 28.5 -9c14 0 23.333 4.83301 28 14.5
s7.66699 23.167 9 40.5h50c0 -36.667 -6.83301 -65.834 -20.5 -87.501s-34.5 -32.5 -62.5 -32.5c-13.333 0 -25.5 3 -36.5 9s-21.167 12.667 -30.5 20s-18.5 14 -27.5 20s-18.5 9 -28.5 9c-13.333 0 -22.5 -4.83301 -27.5 -14.5s-8.16699 -23.167 -9.5 -40.5h-50z" />
    <glyph glyph-name="Umacron" unicode="&#x16a;" horiz-adv-x="616" 
d="M179 746h259v-63h-259v63zM308 -12c-35.333 0 -68.5 4.5 -99.5 13.5s-58 23.667 -81 44s-41.167 46.5 -54.5 78.5s-20 71 -20 117v389h86v-390c0 -60.667 14.333 -105.667 43 -135s70.667 -44 126 -44s97.666 14.667 126.999 44s44 74 44 134v391h85v-389
c0 -46 -6.66699 -85 -20 -117s-31.5 -58.167 -54.5 -78.5s-50.167 -35 -81.5 -44s-64.666 -13.5 -99.999 -13.5z" />
    <glyph glyph-name="umacron" unicode="&#x16b;" horiz-adv-x="491" 
d="M351 437h83.002v-437h-83v77c-10.667 -26 -28.834 -47.333 -54.501 -64s-55.167 -25 -88.5 -25c-28.667 0 -52.834 4.5 -72.501 13.5s-35.667 21.333 -48 37s-21.333 34.334 -27 56.001s-8.5 45.167 -8.5 70.5v272h83v-264c0 -36.667 8.16699 -65.834 24.5 -87.501
s41.833 -32.5 76.5 -32.5c32.667 0 60 12 82 36s33 56.333 33 97v251zM118.002 579h257v-64h-257v64z" />
    <glyph glyph-name="Ubreve" unicode="&#x16c;" horiz-adv-x="616" 
d="M308 673c-36.667 0 -65.167 10.667 -85.5 32s-30.5 53.666 -30.5 96.999h58c0 -22 4.33301 -39.167 13 -51.5s23.667 -18.5 45 -18.5s36.333 6.16699 45 18.5s13 29.5 13 51.5h58c0 -43.333 -10.167 -75.666 -30.5 -96.999s-48.833 -32 -85.5 -32zM308 -12
c-35.333 0 -68.5 4.5 -99.5 13.5s-58 23.667 -81 44s-41.167 46.5 -54.5 78.5s-20 71 -20 117v389h86v-390c0 -60.667 14.333 -105.667 43 -135s70.667 -44 126 -44s97.666 14.667 126.999 44s44 74 44 134v391h85v-389c0 -46 -6.66699 -85 -20 -117
s-31.5 -58.167 -54.5 -78.5s-50.167 -35 -81.5 -44s-64.666 -13.5 -99.999 -13.5z" />
    <glyph glyph-name="ubreve" unicode="&#x16d;" horiz-adv-x="491" 
d="M351 437h83.002v-437h-83v77c-10.667 -26 -28.834 -47.333 -54.501 -64s-55.167 -25 -88.5 -25c-28.667 0 -52.834 4.5 -72.501 13.5s-35.667 21.333 -48 37s-21.333 34.334 -27 56.001s-8.5 45.167 -8.5 70.5v272h83v-264c0 -36.667 8.16699 -65.834 24.5 -87.501
s41.833 -32.5 76.5 -32.5c32.667 0 60 12 82 36s33 56.333 33 97v251zM246.002 501c-36.667 0 -65.167 10.667 -85.5 32s-30.5 53.666 -30.5 96.999h58c0 -22 4.33301 -39.167 13 -51.5s23.667 -18.5 45 -18.5s36.333 6.16699 45 18.5s13 29.5 13 51.5h58
c0 -43.333 -10.167 -75.666 -30.5 -96.999s-48.833 -32 -85.5 -32z" />
    <glyph glyph-name="Uring" unicode="&#x16e;" horiz-adv-x="616" 
d="M308 -12c-35.333 0 -68.5 4.5 -99.5 13.5s-58 23.667 -81 44s-41.167 46.5 -54.5 78.5s-20 71 -20 117v389h86v-390c0 -60.667 14.333 -105.667 43 -135s70.667 -44 126 -44s97.666 14.667 126.999 44s44 74 44 134v391h85v-389c0 -46 -6.66699 -85 -20 -117
s-31.5 -58.167 -54.5 -78.5s-50.167 -35 -81.5 -44s-64.666 -13.5 -99.999 -13.5zM265 744c0 -13.333 3.66699 -24 11 -32s18 -12 32 -12s24.667 4 32 12s11 18.667 11 32c0 12.667 -3.66699 23 -11 31s-18 12 -32 12s-24.667 -4 -32 -12s-11 -18.333 -11 -31zM220 744
c0 23.333 8 43.166 24 59.499s37.333 24.5 64 24.5s48 -8.16699 64 -24.5s24 -36.166 24 -59.499c0 -24 -8 -44.167 -24 -60.5s-37.333 -24.5 -64 -24.5s-48 8.16699 -64 24.5s-24 36.5 -24 60.5z" />
    <glyph glyph-name="uring" unicode="&#x16f;" horiz-adv-x="491" 
d="M203 572c0 -13.333 3.66699 -24 11 -32s18 -12 32 -12s24.667 4 32 12s11 18.667 11 32c0 12.667 -3.66699 23 -11 31s-18 12 -32 12s-24.667 -4 -32 -12s-11 -18.333 -11 -31zM158 572c0 23.333 8 43.166 24 59.499s37.333 24.5 64 24.5s48 -8.16699 64 -24.5
s24 -36.166 24 -59.499c0 -24 -8 -44.167 -24 -60.5s-37.333 -24.5 -64 -24.5s-48 8.16699 -64 24.5s-24 36.5 -24 60.5zM351 437h83.002v-437h-83v77c-10.667 -26 -28.834 -47.333 -54.501 -64s-55.167 -25 -88.5 -25c-28.667 0 -52.834 4.5 -72.501 13.5
s-35.667 21.333 -48 37s-21.333 34.334 -27 56.001s-8.5 45.167 -8.5 70.5v272h83v-264c0 -36.667 8.16699 -65.834 24.5 -87.501s41.833 -32.5 76.5 -32.5c32.667 0 60 12 82 36s33 56.333 33 97v251z" />
    <glyph glyph-name="Uhungarumlaut" unicode="&#x170;" horiz-adv-x="616" 
d="M308 -12c-35.333 0 -68.5 4.5 -99.5 13.5s-58 23.667 -81 44s-41.167 46.5 -54.5 78.5s-20 71 -20 117v389h86v-390c0 -60.667 14.333 -105.667 43 -135s70.667 -44 126 -44s97.666 14.667 126.999 44s44 74 44 134v391h85v-389c0 -46 -6.66699 -85 -20 -117
s-31.5 -58.167 -54.5 -78.5s-50.167 -35 -81.5 -44s-64.666 -13.5 -99.999 -13.5zM220 676l51 126h95l-94 -126h-52zM352 676l51 126h95l-94 -126h-52z" />
    <glyph glyph-name="uhungarumlaut" unicode="&#x171;" horiz-adv-x="491" 
d="M351 437h83.002v-437h-83v77c-10.667 -26 -28.834 -47.333 -54.501 -64s-55.167 -25 -88.5 -25c-28.667 0 -52.834 4.5 -72.501 13.5s-35.667 21.333 -48 37s-21.333 34.334 -27 56.001s-8.5 45.167 -8.5 70.5v272h83v-264c0 -36.667 8.16699 -65.834 24.5 -87.501
s41.833 -32.5 76.5 -32.5c32.667 0 60 12 82 36s33 56.333 33 97v251zM152.002 504l51 126h95l-94 -126h-52zM284.002 504l51 126h95l-94 -126h-52z" />
    <glyph glyph-name="Uogonek" unicode="&#x172;" horiz-adv-x="616" 
d="M308 -12c-35.333 0 -68.498 4.49902 -99.498 13.499s-58 23.667 -81 44s-41.167 46.5 -54.5 78.5s-20 71 -20 117v389h86v-390c0 -60.667 14.333 -105.667 43 -135s70.667 -44 126 -44s97.666 14.667 126.999 44s44 74 44 134v391h85v-389
c0 -63.333 -12 -113.5 -36 -150.5s-56 -63.833 -96 -80.5c-28 -24 -48.167 -43.333 -60.5 -58s-18.5 -29.667 -18.5 -45c0 -9.33301 2.83301 -16.666 8.5 -21.999s14.834 -8 27.501 -8c9.33301 0 18.5 1.66699 27.5 5s17.5 7 25.5 11v-46
c-8.66699 -5.33301 -18.834 -10.333 -30.501 -15s-26.5 -7 -44.5 -7c-22 0 -40.167 5.66699 -54.5 17s-21.5 28 -21.5 50c0 19.333 6.16699 37 18.5 53s27.166 31.333 44.499 46c-14.667 -2 -30 -3 -46 -3z" />
    <glyph glyph-name="uogonek" unicode="&#x173;" horiz-adv-x="491" 
d="M351 437l83.001 -0.00195312v-437c-33.333 -21.333 -56 -38.666 -68 -51.999s-18 -27 -18 -41c0 -9.33301 2.83301 -16.666 8.5 -21.999s14.834 -8 27.501 -8c9.33301 0 18.5 1.66699 27.5 5s17.5 7 25.5 11v-46c-8.66699 -5.33301 -18.834 -10.333 -30.501 -15
s-26.5 -7 -44.5 -7c-22 0 -40.167 5.66699 -54.5 17s-21.5 28 -21.5 50c0 21.333 7.33301 40.833 22 58.5s32.334 34.167 53.001 49.5l-10 2v75c-10.667 -26 -28.834 -47.333 -54.501 -64s-55.167 -25 -88.5 -25c-28.667 0 -52.834 4.5 -72.501 13.5s-35.667 21.333 -48 37
s-21.333 34.334 -27 56.001s-8.5 45.167 -8.5 70.5v272h83v-264c0 -36.667 8.16699 -65.834 24.5 -87.501s41.833 -32.5 76.5 -32.5c32.667 0 60 12 82 36s33 56.333 33 97v251z" />
    <glyph glyph-name="Wcircumflex" unicode="&#x174;" horiz-adv-x="816" 
d="M590 106h4l129 524h81l-161 -630h-101l-131 503h-4l-134 -503h-100l-161 630h84l132 -522h4l137 522h81zM456 802l80 -126h-60l-68 74l-68 -74h-60l80 126h96z" />
    <glyph glyph-name="wcircumflex" unicode="&#x175;" horiz-adv-x="642" 
d="M369 630l80 -126h-60l-68 74l-68 -74h-60l80 126h96zM453 106h4l101 331h77l-139 -437h-80l-93 326h-4l-92 -326h-80l-140 437h83l103 -331h4l92 331h70z" />
    <glyph glyph-name="Ycircumflex" unicode="&#x176;" horiz-adv-x="598" 
d="M494 630h92l-245 -383v-247h-83v247l-246 383h95l197 -302zM347 802l80 -126h-60l-68 74l-68 -74h-60l80 126h96z" />
    <glyph glyph-name="ycircumflex" unicode="&#x177;" horiz-adv-x="460" 
d="M120 -168l71 169l-184 436h87l139 -336h4l134 336h82l-252 -605h-81zM278 630l80 -126h-60l-68 74l-68 -74h-60l80 126h96z" />
    <glyph glyph-name="Ydieresis" unicode="&#x178;" horiz-adv-x="598" 
d="M494 630h92l-245 -383v-247h-83v247l-246 383h95l197 -302zM190 775h82v-94h-82v94zM328 775h81v-94h-81v94z" />
    <glyph glyph-name="Zacute" unicode="&#x179;" horiz-adv-x="560" 
d="M530 72v-72h-500v61l380 497h-375v72h485v-64l-380 -494h390zM260 676l54 126h101l-97 -126h-58z" />
    <glyph glyph-name="zacute" unicode="&#x17a;" horiz-adv-x="428" 
d="M191 504l54 126h101l-97 -126h-58zM38 373v64h355v-57l-262 -316h268v-64h-369v57l257 316h-249z" />
    <glyph glyph-name="Zdotaccent" unicode="&#x17b;" horiz-adv-x="560" 
d="M246 775h87v-94h-87v94zM530 72v-72h-500v61l380 497h-375v72h485v-64l-380 -494h390z" />
    <glyph glyph-name="zdotaccent" unicode="&#x17c;" horiz-adv-x="428" 
d="M38 373v64h355v-57l-262 -316h268v-64h-369v57l257 316h-249zM176 630h87v-94h-87v94z" />
    <glyph glyph-name="Zcaron" unicode="&#x17d;" horiz-adv-x="560" 
d="M241 676l-80 126h60l68 -74l68 74h60l-80 -126h-96zM530 72v-72h-500v61l380 497h-375v72h485v-64l-380 -494h390z" />
    <glyph glyph-name="zcaron" unicode="&#x17e;" horiz-adv-x="428" 
d="M171 504l-80 126h60l68 -75l68 75h60l-80 -126h-96zM38 373v64h355v-57l-262 -316h268v-64h-369v57l257 316h-249z" />
    <glyph glyph-name="florin" unicode="&#x192;" horiz-adv-x="413" 
d="M258 376h100.999v-61h-114l-58 -279c-8.66699 -42 -24.167 -75.667 -46.5 -101s-55.5 -38 -99.5 -38c-6 0 -12.5 0.333008 -19.5 1s-14.167 1.66699 -21.5 3v63c10 -2 18.667 -3 26 -3c24.667 0 43.167 7.83301 55.5 23.5s21.5 38.167 27.5 67.5l54 263h-78v61h91l26 126
c8.66699 40 25.5 73 50.5 99s57.5 39 97.5 39c8 0 16 -0.666992 24 -2s16.333 -3 25 -5v-61c-6 1.33301 -11.667 2.33301 -17 3s-10.666 1 -15.999 1c-24.667 0 -43.5 -8 -56.5 -24s-22.5 -38 -28.5 -66z" />
    <glyph glyph-name="Aringacute" unicode="&#x1fa;" horiz-adv-x="638" 
d="M364 630l262 -630h-92l-76 185h-287l-74 -185h-85l257 630h95zM198 254h232l-115 280h-4zM229 733c0 22.667 8 41.667 24 57s37.333 23 64 23c27.333 0 49 -7.66699 65 -23s24 -34.333 24 -57s-8 -41.5 -24 -56.5s-37.667 -22.5 -65 -22.5c-26.667 0 -48 7.5 -64 22.5
s-24 33.833 -24 56.5zM289 834l41 97h101l-84 -97h-58zM274 733c0 -12 3.5 -21.667 10.5 -29s17.833 -11 32.5 -11s25.667 3.66699 33 11s11 17 11 29s-3.66699 21.667 -11 29s-18.333 11 -33 11s-25.5 -3.66699 -32.5 -11s-10.5 -17 -10.5 -29z" />
    <glyph glyph-name="aringacute" unicode="&#x1fb;" horiz-adv-x="489" 
d="M212 657l41 98h101l-84 -98h-58zM196 551c0 -12 3.66699 -21.667 11 -29s18 -11 32 -11c15.333 0 26.666 3.66699 33.999 11s11 17 11 29s-3.66699 21.667 -11 29s-18.666 11 -33.999 11c-14 0 -24.667 -3.66699 -32 -11s-11 -17 -11 -29zM152 551
c0 22.667 8 41.667 24 57s37 23 63 23c27.333 0 49 -7.66699 65 -23s24 -34.333 24 -57s-8 -41.5 -24 -56.5s-37.667 -22.5 -65 -22.5c-26 0 -47 7.5 -63 22.5s-24 33.833 -24 56.5zM329 216l-97.999 -21c-17.333 -4 -33 -7.83301 -47 -11.5s-25.833 -8.5 -35.5 -14.5
s-17.167 -13.333 -22.5 -22s-8 -19.667 -8 -33c0 -18.667 6.16699 -34.167 18.5 -46.5s31.166 -18.5 56.499 -18.5c19.333 0 37.333 3.5 54 10.5s31 16.833 43 29.5s21.5 28 28.5 46s10.5 38 10.5 60v21zM409.001 86c0 -22.667 11.335 -33.999 34.002 -33.999
c5.33301 0 11.5 0.833008 18.5 2.5s13.5 4.16699 19.5 7.5v-45c-7.33301 -7.33301 -16 -13.5 -26 -18.5s-23.667 -7.5 -41 -7.5c-22.667 0 -41.334 7.83301 -56.001 23.5s-23.334 36.5 -26.001 62.5c-12 -25.333 -32.167 -46.5 -60.5 -63.5s-60.5 -25.5 -96.5 -25.5
c-42.667 0 -76.667 10.667 -102 32s-38 51 -38 89c0 20.667 4.16699 38.5 12.5 53.5s20.333 27.833 36 38.5s34.334 19.667 56.001 27s45.5 13.666 71.5 18.999l118 24v17c0 30 -8.33301 53.667 -25 71s-40.334 26 -71.001 26c-32 0 -56.667 -8.33301 -74 -25
s-29.333 -37.667 -36 -63l-74 10c8.66699 41.333 28.667 75.333 60 102s73 40 125 40c55.333 0 98.333 -13.833 129 -41.5s46 -69.5 46 -125.5v-196z" />
    <glyph glyph-name="AEacute" unicode="&#x1fc;" horiz-adv-x="979" 
d="M932 630v-72h-356v-198h283v-71h-283v-217h365v-72h-449v190h-259l-129 -190h-92l430 630h490zM280 259h212v305h-4zM636 676l54 126h101l-97 -126h-58z" />
    <glyph glyph-name="aeacute" unicode="&#x1fd;" horiz-adv-x="776" 
d="M362 504l54 126h101l-97 -126h-58zM231 449c72.667 0 121.333 -25.999 146 -77.999c18 23.333 40.833 42.166 68.5 56.499s58.167 21.5 91.5 21.5c34.667 0 65 -5.83301 91 -17.5s47.833 -27.334 65.5 -47.001s30.834 -42.667 39.501 -69s13 -54.5 13 -84.5v-33h-348
c1.33301 -23.333 6.16602 -44 14.499 -62s19 -33.167 32 -45.5s27.833 -21.666 44.5 -27.999s34.334 -9.5 53.001 -9.5c72 0 116.667 34.333 134 103l69 -8c-10.667 -50 -33.834 -89.167 -69.501 -117.5s-80.5 -42.5 -134.5 -42.5c-42.667 0 -79.167 8.83301 -109.5 26.5
s-54.5 42.5 -72.5 74.5c-6.66699 -12.667 -15.167 -25.167 -25.5 -37.5s-22.833 -23.166 -37.5 -32.499s-31.167 -16.833 -49.5 -22.5s-38.5 -8.5 -60.5 -8.5c-48 0 -85.167 11 -111.5 33s-39.5 52 -39.5 90c0 43.333 17.333 77.666 52 102.999s92.334 38 173.001 38h72v29
c0 34 -8.83301 59.833 -26.5 77.5s-41.834 26.5 -72.501 26.5c-32 0 -57 -8.16699 -75 -24.5s-30.333 -37.166 -37 -62.499l-71 10c8 41.333 28 75.166 60 101.499s72.333 39.5 121 39.5zM194.999 48.001c18 0 35.166 2.83203 51.499 8.49902s30.833 14.334 43.5 26.001
s22.834 26 30.501 43s11.5 36.5 11.5 58.5v14h-69c-28 0 -51.333 -1.83301 -70 -5.5s-33.5 -9 -44.5 -16s-18.833 -15.5 -23.5 -25.5s-7 -21.667 -7 -35c0 -19.333 6.33301 -35.5 19 -48.5s32 -19.5 58 -19.5zM536.998 386c-36 0 -66.332 -12.3301 -90.999 -36.9971
s-40 -57 -46 -97h262c-0.666992 17.333 -3.83398 34.166 -9.50098 50.499s-13.667 30.666 -24 42.999s-23 22.166 -38 29.499s-32.833 11 -53.5 11z" />
    <glyph glyph-name="Oslashacute" unicode="&#x1fe;" horiz-adv-x="689" 
d="M658 315c0 -48.667 -7.66699 -93 -23 -133s-36.833 -74.333 -64.5 -103s-60.667 -51 -99 -67s-80.5 -24 -126.5 -24c-35.333 0 -68.166 4.5 -98.499 13.5s-58.166 22.167 -83.499 39.5l-59 -74l-46 35l61 77c-28 28.667 -49.5 63 -64.5 103s-22.5 84.333 -22.5 133
s7.66699 93 23 133s36.833 74.333 64.5 103s60.667 51 99 67s80.5 24 126.5 24c35.333 0 68.166 -4.83301 98.499 -14.5s58.166 -23.167 83.499 -40.5l54 67l46 -35l-56 -69c28 -29.333 49.5 -63.833 64.5 -103.5s22.5 -83.5 22.5 -131.5zM121 315
c0 -35.333 4.33301 -67.333 13 -96s21 -53.667 37 -75l307 382c-36 28 -80.333 42 -133 42c-34 0 -64.833 -6 -92.5 -18s-51.167 -29 -70.5 -51s-34.333 -48.5 -45 -79.5s-16 -65.833 -16 -104.5zM568 315c0 34.667 -4.33301 66.168 -13 94.501s-20.667 53.166 -36 74.499
l-307 -381c36.667 -27.333 81 -41 133 -41c34 0 64.667 6 92 18s50.833 29 70.5 51s34.667 48.5 45 79.5s15.5 65.833 15.5 104.5zM315 676.001l54 126h101l-97 -126h-58z" />
    <glyph glyph-name="oslashacute" unicode="&#x1ff;" horiz-adv-x="504" 
d="M475 218c0 -34 -5.66699 -65.165 -17 -93.498s-27 -52.5 -47 -72.5s-43.667 -35.667 -71 -47s-57 -17 -89 -17c-50 0 -92.667 12.667 -128 38l-50 -59l-39 32l51 60c-18 20 -31.833 43.5 -41.5 70.5s-14.5 56.5 -14.5 88.5c0 34 5.5 65.167 16.5 93.5
s26.5 52.666 46.5 72.999s43.5 36.166 70.5 47.499s56.5 17 88.5 17c25.333 0 48.833 -3.5 70.5 -10.5s41.5 -16.833 59.5 -29.5l51 60l39 -31l-52 -62c17.333 -20 31 -43.333 41 -70s15 -56 15 -88zM112 218.002c0 -39.333 7.66699 -72.667 23 -100l201 238
c-22.667 18.667 -51 28 -85 28c-44.667 0 -79 -15.333 -103 -46s-36 -70.667 -36 -120zM392 218.001c0 38.667 -7.66406 71.668 -22.9971 99.001l-201 -238c11.333 -8.66699 23.666 -15.334 36.999 -20.001s28.666 -7 45.999 -7c45.333 0 80.166 15.5 104.499 46.5
s36.5 70.833 36.5 119.5zM224.003 504.002l54 126h101l-97 -126h-58z" />
    <glyph glyph-name="Scommaaccent" unicode="&#x218;" horiz-adv-x="561" 
d="M235 -51h90v-54c0 -25.333 -6.33301 -46.333 -19 -63s-36.334 -25 -71.001 -25v35c14 0 23.833 3 29.5 9s8.83398 15.667 9.50098 29h-39v69zM100 230c1.33301 -28.667 6.99805 -53.8281 16.998 -75.4951s23.333 -39.834 40 -54.501s36.334 -25.667 59.001 -33
s47.334 -11 74.001 -11c47.333 0 84.666 9.5 111.999 28.5s41 45.833 41 80.5c0 29.333 -9.66699 51.666 -29 66.999s-49.666 27 -90.999 35l-125 24c-46.667 9.33301 -84.5 27.166 -113.5 53.499s-43.5 63.833 -43.5 112.5c0 27.333 5.33301 52.333 16 75
s25.667 42.167 45 58.5s42.833 29 70.5 38s58.834 13.5 93.501 13.5c79.333 0 140.666 -19.833 183.999 -59.5s65.333 -95.167 66 -166.5l-79 -4c-1.33301 52 -17 92.167 -47 120.5s-71 42.5 -123 42.5c-46 0 -81.167 -10 -105.5 -30s-36.5 -47.667 -36.5 -83
c0 -31.333 9.83301 -53.333 29.5 -66s47.834 -22.667 84.501 -30l114 -22c58 -11.333 101.333 -30.333 130 -57s43 -65.334 43 -116.001c0 -28.667 -5.83301 -54.5 -17.5 -77.5s-28 -42.167 -49 -57.5s-46 -27.166 -75 -35.499s-60.5 -12.5 -94.5 -12.5
c-38.667 0 -74.334 5.16699 -107.001 15.5s-61 25.666 -85 45.999s-42.667 45.166 -56 74.499s-20 63 -20 101z" />
    <glyph glyph-name="scommaaccent" unicode="&#x219;" horiz-adv-x="433" 
d="M180 -51h90v-54c0 -25.333 -6.33301 -46.333 -19 -63s-36.334 -25 -71.001 -25v35c14 0 23.833 3 29.5 9s8.83398 15.667 9.50098 29h-39v69zM95 152c4 -34 17.1641 -59.668 39.4971 -77.001s52.5 -26 90.5 -26c29.333 0 53.5 5.33301 72.5 16s28.5 27 28.5 49
c0 20.667 -7 35.334 -21 44.001s-34.667 15.667 -62 21l-74 13c-41.333 6.66699 -73.5 19.334 -96.5 38.001s-34.5 47 -34.5 85c0 40 15.333 72.333 46 97s71.334 37 122.001 37c58.667 0 104.334 -13.167 137.001 -39.5s51 -64.833 55 -115.5l-67 -4
c-10 65.333 -51.667 98 -125 98c-28 0 -50.167 -5.83301 -66.5 -17.5s-24.5 -27.5 -24.5 -47.5c0 -17.333 5.5 -30.833 16.5 -40.5s27.833 -16.5 50.5 -20.5l82 -13c44 -7.33301 78.333 -20.333 103 -39s37 -48 37 -88c0 -22 -4.5 -41.333 -13.5 -58
s-21.5 -30.667 -37.5 -42s-35 -19.833 -57 -25.5s-45.667 -8.5 -71 -8.5c-27.333 0 -52.666 3.16699 -75.999 9.5s-43.833 16.166 -61.5 29.499s-32 30 -43 50s-17.5 43.333 -19.5 70z" />
    <glyph glyph-name="uni0237" unicode="&#x237;" horiz-adv-x="196" 
d="M140 -60c0 -38.667 -9.66699 -68.333 -29 -89s-48.666 -31 -87.999 -31c-18.667 0 -36.667 3 -54 9s-31.666 13.667 -42.999 23l20 53c11.333 -7.33301 22.166 -12.833 32.499 -16.5s22.166 -5.5 35.499 -5.5c28.667 0 43 17 43 51v503h83v-497z" />
    <glyph glyph-name="circumflex" unicode="&#x2c6;" 
d="M298 630l80 -126h-60l-68 74l-68 -74h-60l80 126h96z" />
    <glyph glyph-name="caron" unicode="&#x2c7;" 
d="M202 504l-80 126h60l68 -75l68 75h60l-80 -126h-96z" />
    <glyph glyph-name="breve" unicode="&#x2d8;" 
d="M250 501c-36.667 0 -65.167 10.667 -85.5 32s-30.5 53.666 -30.5 96.999h58c0 -22 4.33301 -39.167 13 -51.5s23.667 -18.5 45 -18.5s36.333 6.16699 45 18.5s13 29.5 13 51.5h58c0 -43.333 -10.167 -75.666 -30.5 -96.999s-48.833 -32 -85.5 -32z" />
    <glyph glyph-name="dotaccent" unicode="&#x2d9;" 
d="M206 630h87v-94h-87v94z" />
    <glyph glyph-name="ring" unicode="&#x2da;" 
d="M207 572c0 -13.333 3.66699 -24 11 -32s18 -12 32 -12s24.667 4 32 12s11 18.667 11 32c0 12.667 -3.66699 23 -11 31s-18 12 -32 12s-24.667 -4 -32 -12s-11 -18.333 -11 -31zM162 572c0 23.333 8 43.166 24 59.499s37.333 24.5 64 24.5s48 -8.16699 64 -24.5
s24 -36.166 24 -59.499c0 -24 -8 -44.167 -24 -60.5s-37.333 -24.5 -64 -24.5s-48 8.16699 -64 24.5s-24 36.5 -24 60.5z" />
    <glyph glyph-name="ogonek" unicode="&#x2db;" 
d="M317 12c-28.667 -25.333 -49.333 -45.333 -62 -60s-19 -29.667 -19 -45c0 -9.33301 2.83301 -16.666 8.5 -21.999s14.834 -8 27.501 -8c9.33301 0 18.5 1.66699 27.5 5s17.5 7 25.5 11v-46c-8.66699 -5.33301 -18.834 -10.333 -30.501 -15s-26.5 -7 -44.5 -7
c-22 0 -40.167 5.66699 -54.5 17s-21.5 28 -21.5 50c0 24 9.33301 45.667 28 65s39.667 37.666 63 54.999h52z" />
    <glyph glyph-name="tilde" unicode="&#x2dc;" 
d="M103 506c0 36 6.83301 65.001 20.5 87.001s34.5 33 62.5 33c13.333 0 25.5 -3 36.5 -9s21.167 -12.667 30.5 -20s18.5 -14 27.5 -20s18.5 -9 28.5 -9c14 0 23.333 4.83301 28 14.5s7.66699 23.167 9 40.5h50c0 -36.667 -6.83301 -65.834 -20.5 -87.501
s-34.5 -32.5 -62.5 -32.5c-13.333 0 -25.5 3 -36.5 9s-21.167 12.667 -30.5 20s-18.5 14 -27.5 20s-18.5 9 -28.5 9c-13.333 0 -22.5 -4.83301 -27.5 -14.5s-8.16699 -23.167 -9.5 -40.5h-50z" />
    <glyph glyph-name="hungarumlaut" unicode="&#x2dd;" 
d="M111 504l51 126h95l-94 -126h-52zM243 504l51 126h95l-94 -126h-52z" />
    <glyph glyph-name="Wgrave" unicode="&#x1e80;" horiz-adv-x="816" 
d="M388 676l-97 126h101l54 -126h-58zM590 106h4l129 524h81l-161 -630h-101l-131 503h-4l-134 -503h-100l-161 630h84l132 -522h4l137 522h81z" />
    <glyph glyph-name="wgrave" unicode="&#x1e81;" horiz-adv-x="642" 
d="M453 106h4l101 331h77l-139 -437h-80l-93 326h-4l-92 -326h-80l-140 437h83l103 -331h4l92 331h70zM299 504l-97 126h101l54 -126h-58z" />
    <glyph glyph-name="Wacute" unicode="&#x1e82;" horiz-adv-x="816" 
d="M379 676l54 126h101l-97 -126h-58zM590 106h4l129 524h81l-161 -630h-101l-131 503h-4l-134 -503h-100l-161 630h84l132 -522h4l137 522h81z" />
    <glyph glyph-name="wacute" unicode="&#x1e83;" horiz-adv-x="642" 
d="M293 504l54 126h101l-97 -126h-58zM453 106h4l101 331h77l-139 -437h-80l-93 326h-4l-92 -326h-80l-140 437h83l103 -331h4l92 331h70z" />
    <glyph glyph-name="Wdieresis" unicode="&#x1e84;" horiz-adv-x="816" 
d="M299 775h82v-94h-82v94zM437 775h81v-94h-81v94zM590 106h4l129 524h81l-161 -630h-101l-131 503h-4l-134 -503h-100l-161 630h84l132 -522h4l137 522h81z" />
    <glyph glyph-name="wdieresis" unicode="&#x1e85;" horiz-adv-x="642" 
d="M212 622h82v-94h-82v94zM350 622h81v-94h-81v94zM453 106h4l101 331h77l-139 -437h-80l-93 326h-4l-92 -326h-80l-140 437h83l103 -331h4l92 331h70z" />
    <glyph glyph-name="Ygrave" unicode="&#x1ef2;" horiz-adv-x="598" 
d="M494 630h92l-245 -383v-247h-83v247l-246 383h95l197 -302zM279 676l-97 126h101l54 -126h-58z" />
    <glyph glyph-name="ygrave" unicode="&#x1ef3;" horiz-adv-x="460" 
d="M120 -168l71 169l-184 436h87l139 -336h4l134 336h82l-252 -605h-81zM208 504l-97 126h101l54 -126h-58z" />
    <glyph glyph-name="endash" unicode="&#x2013;" 
d="M57 285h386v-61h-386v61z" />
    <glyph glyph-name="emdash" unicode="&#x2014;" horiz-adv-x="1000" 
d="M57 285h886v-61h-886v61z" />
    <glyph glyph-name="quoteleft" unicode="&#x2018;" horiz-adv-x="175" 
d="M137 436l-99 -0.000976562v93c0 17.333 1.33301 32.833 4 46.5s7.66699 25.167 15 34.5s17.5 16.5 30.5 21.5s29.5 7.5 49.5 7.5v-48c-19.333 -1.33301 -32 -6.16602 -38 -14.499s-9 -23.5 -9 -45.5h47v-95z" />
    <glyph glyph-name="quoteright" unicode="&#x2019;" horiz-adv-x="175" 
d="M38 630l99 0.000976562v-94c0 -17.333 -1.33301 -32.833 -4 -46.5s-7.66699 -25.167 -15 -34.5s-17.5 -16.5 -30.5 -21.5s-29.5 -7.5 -49.5 -7.5v49c19.333 1.33301 32 6.16602 38 14.499s9 23.5 9 45.5h-47v95z" />
    <glyph glyph-name="quotesinglbase" unicode="&#x201a;" horiz-adv-x="175" 
d="M38 95h99v-94c0 -17.333 -1.33301 -32.666 -4 -45.999s-7.66699 -24.833 -15 -34.5s-17.5 -17 -30.5 -22s-29.5 -7.5 -49.5 -7.5v49c19.333 1.33301 32 6.16602 38 14.499s9 23.5 9 45.5h-47v95z" />
    <glyph glyph-name="quotedblleft" unicode="&#x201c;" horiz-adv-x="323" 
d="M137 436l-99 -0.000976562v93c0 17.333 1.33301 32.833 4 46.5s7.66699 25.167 15 34.5s17.5 16.5 30.5 21.5s29.5 7.5 49.5 7.5v-48c-19.333 -1.33301 -32 -6.16602 -38 -14.499s-9 -23.5 -9 -45.5h47v-95zM285 435.999l-99 -0.000976562v93
c0 35.333 6.5 62.5 19.5 81.5s39.5 28.5 79.5 28.5v-48c-18.667 -1.33301 -31.167 -6.16602 -37.5 -14.499s-9.5 -23.5 -9.5 -45.5h47v-95z" />
    <glyph glyph-name="quotedblright" unicode="&#x201d;" horiz-adv-x="323" 
d="M186 630l99 0.000976562v-94c0 -17.333 -1.33301 -32.833 -4 -46.5s-7.66699 -25.167 -15 -34.5s-17.5 -16.5 -30.5 -21.5s-29.5 -7.5 -49.5 -7.5v49c19.333 1.33301 32 6.16602 38 14.499s9 23.5 9 45.5h-47v95zM38 630.001l99 0.000976562v-94
c0 -17.333 -1.33301 -32.833 -4 -46.5s-7.66699 -25.167 -15 -34.5s-17.5 -16.5 -30.5 -21.5s-29.5 -7.5 -49.5 -7.5v49c19.333 1.33301 32 6.16602 38 14.499s9 23.5 9 45.5h-47v95z" />
    <glyph glyph-name="quotedblbase" unicode="&#x201e;" horiz-adv-x="323" 
d="M186 95h99v-94c0 -17.333 -1.33301 -32.666 -4 -45.999s-7.66699 -24.833 -15 -34.5s-17.5 -17 -30.5 -22s-29.5 -7.5 -49.5 -7.5v49c19.333 1.33301 32 6.16602 38 14.499s9 23.5 9 45.5h-47v95zM38 95h99v-94c0 -17.333 -1.33301 -32.666 -4 -45.999
s-7.66699 -24.833 -15 -34.5s-17.5 -17 -30.5 -22s-29.5 -7.5 -49.5 -7.5v49c19.333 1.33301 32 6.16602 38 14.499s9 23.5 9 45.5h-47v95z" />
    <glyph glyph-name="dagger" unicode="&#x2020;" horiz-adv-x="313" 
d="M22 541h105v98h60v-98h104v-58h-104v-228h-60v228h-105v58z" />
    <glyph glyph-name="daggerdbl" unicode="&#x2021;" horiz-adv-x="323" 
d="M27 405h105v85h-105v55h105v94h59v-94h105v-55h-105v-85h105v-56h-105v-94h-59v94h-105v56z" />
    <glyph glyph-name="bullet" unicode="&#x2022;" horiz-adv-x="334" 
d="M288 256c0 -18 -3.16699 -34.333 -9.5 -49s-15 -27.334 -26 -38.001s-23.833 -19 -38.5 -25s-30.667 -9 -48 -9c-16.667 0 -32.334 3 -47.001 9s-27.334 14.333 -38.001 25s-19.167 23.334 -25.5 38.001s-9.5 31 -9.5 49c0 17.333 3.16699 33.5 9.5 48.5
s14.833 27.833 25.5 38.5s23.334 19 38.001 25s30.334 9 47.001 9c17.333 0 33.333 -3 48 -9s27.5 -14.333 38.5 -25s19.667 -23.5 26 -38.5s9.5 -31.167 9.5 -48.5z" />
    <glyph glyph-name="ellipsis" unicode="&#x2026;" horiz-adv-x="527" 
d="M38 100h100v-100h-100v100zM214 100h100v-100h-100v100zM389 100h100v-100h-100v100z" />
    <glyph glyph-name="perthousand" unicode="&#x2030;" horiz-adv-x="1062" 
d="M99 476c0 -40 6.83301 -68.5 20.5 -85.5s32.167 -25.5 55.5 -25.5s42 8.5 56 25.5s21 45.5 21 85.5s-7 68.5 -21 85.5s-32.667 25.5 -56 25.5s-41.833 -8.5 -55.5 -25.5s-20.5 -45.5 -20.5 -85.5zM28 476c0 26 3.83301 49.333 11.5 70s18.167 38 31.5 52
s28.833 24.833 46.5 32.5s36.834 11.5 57.501 11.5s40 -3.83301 58 -11.5s33.667 -18.5 47 -32.5s23.833 -31.333 31.5 -52s11.5 -44 11.5 -70s-3.83301 -49.333 -11.5 -70s-18.167 -38 -31.5 -52s-29 -24.833 -47 -32.5s-37.333 -11.5 -58 -11.5
s-39.834 3.83301 -57.501 11.5s-33.167 18.5 -46.5 32.5s-23.833 31.333 -31.5 52s-11.5 44 -11.5 70zM633 154c0 40 -6.83301 68.5 -20.5 85.5s-32.167 25.5 -55.5 25.5s-41.833 -8.5 -55.5 -25.5s-20.5 -45.5 -20.5 -85.5s6.83301 -68.5 20.5 -85.5
s32.167 -25.5 55.5 -25.5s41.833 8.5 55.5 25.5s20.5 45.5 20.5 85.5zM705 154c0 -26 -3.83301 -49.333 -11.5 -70s-18.167 -38 -31.5 -52s-29 -24.833 -47 -32.5s-37.333 -11.5 -58 -11.5s-40 3.83301 -58 11.5s-33.667 18.5 -47 32.5s-23.833 31.333 -31.5 52
s-11.5 44 -11.5 70s3.83301 49.333 11.5 70s18.167 38 31.5 52s29 24.833 47 32.5s37.333 11.5 58 11.5s40 -3.83301 58 -11.5s33.667 -18.5 47 -32.5s23.833 -31.333 31.5 -52s11.5 -44 11.5 -70zM966 154c0 40 -6.83301 68.5 -20.5 85.5s-32.167 25.5 -55.5 25.5
s-41.833 -8.5 -55.5 -25.5s-20.5 -45.5 -20.5 -85.5s6.83301 -68.5 20.5 -85.5s32.167 -25.5 55.5 -25.5s41.833 8.5 55.5 25.5s20.5 45.5 20.5 85.5zM1038 154c0 -26 -3.83301 -49.333 -11.5 -70s-18.167 -38 -31.5 -52s-29 -24.833 -47 -32.5s-37.333 -11.5 -58 -11.5
s-39.834 3.83301 -57.501 11.5s-33.167 18.5 -46.5 32.5s-23.833 31.333 -31.5 52s-11.5 44 -11.5 70s3.83301 49.333 11.5 70s18.167 38 31.5 52s28.833 24.833 46.5 32.5s36.834 11.5 57.501 11.5s40 -3.83301 58 -11.5s33.667 -18.5 47 -32.5s23.833 -31.333 31.5 -52
s11.5 -44 11.5 -70zM239 0h-68l323 630h67z" />
    <glyph glyph-name="guilsinglleft" unicode="&#x2039;" horiz-adv-x="242" 
d="M46 251l150 129v-81l-93 -81l93 -80v-82l-150 129v66z" />
    <glyph glyph-name="guilsinglright" unicode="&#x203a;" horiz-adv-x="242" 
d="M196 185l-150 -129v82l93 80l-93 81v81l150 -129v-66z" />
    <glyph glyph-name="fraction" unicode="&#x2044;" horiz-adv-x="490" 
d="M78 0h-68l406 630h68z" />
    <glyph glyph-name="Euro" unicode="&#x20ac;" horiz-adv-x="613" 
d="M15 278l59.998 -0.000976562c-0.666992 6 -1 12 -1 18v19v17c0 6 0.333008 11.667 1 17h-60v54h66c6.66699 36.667 17.167 69.667 31.5 99s32.333 54.333 54 75s46.5 36.667 74.5 48s59 17 93 17c38 0 71.833 -6.66699 101.5 -20s54.834 -31.666 75.501 -54.999
s36.834 -51 48.501 -83s18.5 -67 20.5 -105l-81 -4c-2 27.333 -6.66699 52.833 -14 76.5s-17.833 44.167 -31.5 61.5s-30.5 31 -50.5 41s-43 15 -69 15c-46.667 0 -83.834 -14.667 -111.501 -44s-46.167 -70 -55.5 -122h193l-10 -54h-189c-0.666992 -5.33301 -1 -11 -1 -17
v-17v-19c0 -6 0.333008 -12 1 -18h180l-10 -54h-163c9.33301 -50.667 27.833 -90.5 55.5 -119.5s64.5 -43.5 110.5 -43.5c52.667 0 92.334 17.833 119.001 53.5s42 82.5 46 140.5l81 -4c-2.66699 -38.667 -9.83398 -74 -21.501 -106s-28 -59.667 -49 -83
s-46.167 -41.5 -75.5 -54.5s-62.666 -19.5 -99.999 -19.5c-67.333 0 -122.833 21.167 -166.5 63.5s-72.167 99.833 -85.5 172.5h-67v54z" />
    <glyph glyph-name="uni2117" unicode="&#x2117;" horiz-adv-x="724" 
d="M35 315c0 47.333 8.66699 91 26 131s40.666 74.5 69.999 103.5s64 51.667 104 68s82.333 24.5 127 24.5c45.333 0 87.833 -8.16699 127.5 -24.5s74.167 -39 103.5 -68s52.666 -63.5 69.999 -103.5s26 -83.667 26 -131s-8.66699 -91 -26 -131
s-40.666 -74.5 -69.999 -103.5s-63.833 -51.667 -103.5 -68s-82.167 -24.5 -127.5 -24.5c-44.667 0 -87 8.16699 -127 24.5s-74.667 39 -104 68s-52.666 63.5 -69.999 103.5s-26 83.667 -26 131zM82 315c0 -40.667 7.33301 -78.167 22 -112.5s34.667 -64 60 -89
s55 -44.5 89 -58.5s70.333 -21 109 -21s75 7 109 21s63.667 33.5 89 58.5s45.333 54.667 60 89s22 71.833 22 112.5s-7.33301 78.167 -22 112.5s-34.667 64 -60 89s-55 44.5 -89 58.5s-70.333 21 -109 21s-75 -7 -109 -21s-63.667 -33.5 -89 -58.5s-45.333 -54.667 -60 -89
s-22 -71.833 -22 -112.5zM378 314c30 0 52.333 5.66895 67 17.002s22 27.666 22 48.999s-7.33301 37.666 -22 48.999s-37 17 -67 17h-75v-132h75zM303 127.002h-65v374h150c48 0 84.167 -11.167 108.5 -33.5s36.5 -51.5 36.5 -87.5s-12.167 -65.167 -36.5 -87.5
s-60.5 -33.5 -108.5 -33.5h-85v-132z" />
    <glyph glyph-name="trademark" unicode="&#x2122;" horiz-adv-x="631" 
d="M110 370v212h-90v48h238v-48h-92v-212h-56zM406 370l-63 205h-2v-205h-51v260h84l56 -191h2l56 191h81v-260h-55v205h-2l-62 -205h-44z" />
    <glyph glyph-name="uni2153" unicode="&#x2153;" horiz-adv-x="735" 
d="M27 573c27.333 0 47.668 4.66699 61.001 14s23.666 24.333 30.999 45h51v-390h-70v285h-73v46zM632.002 109c0 19.333 -6.83008 34.1641 -20.4971 44.4971s-31.167 15.5 -52.5 15.5c-6.66699 0 -12.834 -0.166992 -18.501 -0.5s-10.834 -0.833008 -15.501 -1.5v54
c3.33301 -0.666992 8 -1 14 -1h20c17.333 0 32.666 4.33301 45.999 13s20 23.667 20 45c0 18 -5.5 32.667 -16.5 44s-28.167 17 -51.5 17s-41.833 -7.66699 -55.5 -23s-20.5 -36.333 -20.5 -63l-68 2c0 40.667 12.833 74.334 38.5 101.001s61.5 40 107.5 40
c44 0 77.833 -10.167 101.5 -30.5s35.5 -47.5 35.5 -81.5c0 -24 -7.5 -43.833 -22.5 -59.5s-31.833 -25.167 -50.5 -28.5c24 -3.33301 43.667 -13.166 59 -29.499s23 -37.166 23 -62.499c0 -34 -13 -61 -39 -81s-61 -30 -105 -30c-48 0 -85.667 12.333 -113 37
s-41 58.667 -41 102l69 -2c1.33301 -27.333 9.5 -47.5 24.5 -60.5s35.167 -19.5 60.5 -19.5c21.333 0 38.5 5 51.5 15s19.5 24.667 19.5 44zM152.005 -0.00195312h-68l406 630h68z" />
    <glyph glyph-name="uni2154" unicode="&#x2154;" horiz-adv-x="850" 
d="M748 109c0 19.333 -6.99805 34.1641 -20.998 44.4971s-31.667 15.5 -53 15.5c-6 0 -11.833 -0.166992 -17.5 -0.5s-11.167 -0.833008 -16.5 -1.5v54c4 -0.666992 9 -1 15 -1h20c17.333 0 32.666 4.33301 45.999 13s20 23.667 20 45c0 18 -5.66699 32.667 -17 44
s-28.333 17 -51 17c-23.333 0 -41.833 -7.66699 -55.5 -23s-20.5 -36.333 -20.5 -63l-68 2c0 40.667 12.833 74.334 38.5 101.001s61.167 40 106.5 40c44 0 78 -10.167 102 -30.5s36 -47.5 36 -81.5c0 -24 -7.5 -43.833 -22.5 -59.5s-31.833 -25.167 -50.5 -28.5
c24 -3.33301 43.5 -13.166 58.5 -29.499s22.5 -37.166 22.5 -62.499c0 -34 -13 -61 -39 -81s-61 -30 -105 -30c-48 0 -85.5 12.333 -112.5 37s-40.5 58.667 -40.5 102l69 -2c1.33301 -27.333 9.33301 -47.5 24 -60.5s34.667 -19.5 60 -19.5c21.333 0 38.666 5 51.999 15
s20 24.667 20 44zM319.002 299.998v-59.998h-290v46l109 91c30.667 25.333 54.5 47.666 71.5 66.999s25.5 41.666 25.5 66.999c0 19.333 -5.16699 35.166 -15.5 47.499s-26.833 18.5 -49.5 18.5c-23.333 0 -40.833 -7 -52.5 -21s-17.5 -33.333 -17.5 -58
c0 -6.66699 0.5 -12.667 1.5 -18s2.16699 -10.666 3.5 -15.999l-71 3c-1.33301 6 -2.33301 12 -3 18s-1 12 -1 18c0 40.667 13 73 39 97s60.333 36 103 36c46 0 80.333 -11.667 103 -35s34 -52 34 -86c0 -17.333 -3 -33.333 -9 -48s-14 -28.5 -24 -41.5
s-21.667 -25.5 -35 -37.5l-41 -36l-65 -52h184zM268.002 0h-69l406 630h69z" />
    <glyph glyph-name="uni215B" unicode="&#x215b;" horiz-adv-x="747" 
d="M27 573c27.333 0 47.668 4.66699 61.001 14s23.666 24.333 30.999 45h51v-390h-70v285h-73v46zM566.002 344c-20.667 0 -37.167 -5.16699 -49.5 -15.5s-18.5 -25.833 -18.5 -46.5c0 -19.333 6.16699 -34.166 18.5 -44.499s28.833 -15.5 49.5 -15.5
c21.333 0 38.333 5.16699 51 15.5s19 25.166 19 44.499c0 20.667 -6.33301 36.167 -19 46.5s-29.667 15.5 -51 15.5zM566.002 172c-25.333 0 -44.833 -5.16699 -58.5 -15.5s-20.5 -25.833 -20.5 -46.5s6.83301 -36.5 20.5 -47.5s33.167 -16.5 58.5 -16.5s45 5.5 59 16.5
s21 26.833 21 47.5s-7 36.167 -21 46.5s-33.667 15.5 -59 15.5zM566.002 -7c-48 0 -85.167 10 -111.5 30s-39.5 47 -39.5 81c0 25.333 7.5 46.166 22.5 62.499s33.167 26.5 54.5 30.5c-42.667 16.667 -64 47 -64 91c0 34 13 60.5 39 79.5s59 28.5 99 28.5
c40.667 0 74 -9.5 100 -28.5s39 -45.5 39 -79.5c0 -22.667 -5.83301 -41.5 -17.5 -56.5s-27.167 -26.5 -46.5 -34.5c21.333 -4 39.333 -14.167 54 -30.5s22 -37.166 22 -62.499c0 -34 -13.167 -61 -39.5 -81s-63.5 -30 -111.5 -30zM152.002 0h-68l406 630h68z" />
    <glyph glyph-name="uni215C" unicode="&#x215c;" horiz-adv-x="856" 
d="M675 344c-20.667 0 -37.334 -5.16699 -50.001 -15.5s-19 -25.833 -19 -46.5c0 -19.333 6.33301 -34.166 19 -44.499s29.334 -15.5 50.001 -15.5c21.333 0 38.166 5.16699 50.499 15.5s18.5 25.166 18.5 44.499c0 20.667 -6.16699 36.167 -18.5 46.5
s-29.166 15.5 -50.499 15.5zM675 172c-25.333 0 -44.833 -5.16699 -58.5 -15.5s-20.5 -25.833 -20.5 -46.5s6.83301 -36.5 20.5 -47.5s33.167 -16.5 58.5 -16.5s44.833 5.5 58.5 16.5s20.5 26.833 20.5 47.5s-6.83301 36.167 -20.5 46.5s-33.167 15.5 -58.5 15.5zM675 -7
c-48 0 -85.332 10 -111.999 30s-40 47 -40 81c0 25.333 7.66699 46.166 23 62.499s33.666 26.5 54.999 30.5c-42.667 16.667 -64 47 -64 91c0 34 13 60.5 39 79.5s59 28.5 99 28.5s73 -9.5 99 -28.5s39 -45.5 39 -79.5c0 -22.667 -5.66699 -41.5 -17 -56.5
s-27 -26.5 -47 -34.5c21.333 -4 39.5 -14.167 54.5 -30.5s22.5 -37.166 22.5 -62.499c0 -34 -13.167 -61 -39.5 -81s-63.5 -30 -111.5 -30zM253.001 350c0 19.333 -6.83105 33.9971 -20.498 43.9971s-31.167 15 -52.5 15h-18.5c-5.66699 0 -10.834 -0.333008 -15.501 -1v54
c3.33301 -0.666992 8 -1 14 -1h20c17.333 0 32.666 4.16699 45.999 12.5s20 23.166 20 44.499c0 18.667 -5.5 33.667 -16.5 45s-28.167 17 -51.5 17s-41.833 -7.66699 -55.5 -23s-20.5 -36.333 -20.5 -63l-68 2c0 40.667 12.833 74.334 38.5 101.001s61.5 40 107.5 40
c44 0 77.833 -10.167 101.5 -30.5s35.5 -47.5 35.5 -81.5c0 -24.667 -7.5 -44.667 -22.5 -60s-31.833 -24.666 -50.5 -27.999c24 -3.33301 43.667 -13.166 59 -29.499s23 -37.166 23 -62.499c0 -34 -13 -61 -39 -81s-61 -30 -105 -30c-48 0 -85.667 12.333 -113 37
s-41 58.667 -41 102l69 -2c1.33301 -27.333 9.5 -47.5 24.5 -60.5s35.167 -19.5 60.5 -19.5c21.333 0 38.5 5 51.5 15s19.5 24.667 19.5 44zM261.003 -0.00292969h-69l406 630h69z" />
    </font>
</defs>
</svg>
