<?xml version="1.0" standalone="no"?>
<!DOCTYPE svg PUBLIC "-//W3C//DTD SVG 1.1//EN" "http://www.w3.org/Graphics/SVG/1.1/DTD/svg11.dtd" >
<svg>
<metadata>
Created by FontForge 20090914 at Tue Feb 14 18:14:28 2017
 By www-data
&#194;&#169; Copyright (c) 2010. All rights reserved. Fakt is a design by Thomas Thiemich, published by OurType. www.ourtype.com
</metadata>
<defs>
<font id="FaktPro-Normal" horiz-adv-x="568" >
  <font-face 
    font-family="Fakt Pro Nor"
    font-weight="400"
    font-stretch="normal"
    units-per-em="1000"
    panose-1="2 0 0 0 0 0 0 0 0 0"
    ascent="748"
    descent="-252"
    x-height="488"
    cap-height="688"
    bbox="-172 -313 1164 1012"
    underline-thickness="0"
    underline-position="0"
    unicode-range="U+0020-U+FB04"
  />
<missing-glyph horiz-adv-x="712" 
d="M0 0v720h712v-720h-712zM232 184l126 129l126 -129l52 52l-127 130l127 130l-52 52l-126 -129l-126 129l-52 -52l126 -130l-126 -130z" />
    <glyph glyph-name="ff" unicode="ff" horiz-adv-x="608" 
d="M96 0l-0.00390625 415.994h-92v72h92v80c0 26.667 3.5 50.334 10.5 71.001s17.333 37.834 31 51.501s30.834 24 51.501 31s44.334 10.5 71.001 10.5h56v-76h-48c-16 0 -29.333 -2 -40 -6s-19.167 -9.83301 -25.5 -17.5s-11 -17.167 -14 -28.5s-4.5 -24.666 -4.5 -39.999
v-76h212v80c0 26.667 3.5 50.334 10.5 71.001s17.333 37.834 31 51.501s30.834 24 51.501 31s44.334 10.5 71.001 10.5h60v-76h-52c-16 0 -29.333 -2 -40 -6s-19.167 -9.83301 -25.5 -17.5s-11 -17.167 -14 -28.5s-4.5 -24.666 -4.5 -39.999v-76h120v-72h-120v-416h-88v416
h-212v-416h-88z" />
    <glyph glyph-name="fi" unicode="fi" horiz-adv-x="560" 
d="M396 0l-0.00195312 415.997h-212v-416h-88v416h-92v72h92v80c0 26.667 3.5 50.334 10.5 71.001s17.333 37.834 31 51.501s30.834 24 51.501 31s44.334 10.5 71.001 10.5h56v-76h-48c-16 0 -29.333 -2 -40 -6s-19.167 -9.83301 -25.5 -17.5s-11 -17.167 -14 -28.5
s-4.5 -24.666 -4.5 -39.999v-76h300v-488h-88zM391.998 631.997v100h96v-100h-96z" />
    <glyph glyph-name="fl" unicode="fl" horiz-adv-x="560" 
d="M96 0l-0.00195312 415.997h-92v72h92v80c0 26.667 3.5 50.334 10.5 71.001s17.333 37.834 31 51.501s30.834 24 51.501 31s44.334 10.5 71.001 10.5h224v-732h-88v656h-128c-16 0 -29.333 -2 -40 -6s-19.167 -9.83301 -25.5 -17.5s-11 -17.167 -14 -28.5
s-4.5 -24.666 -4.5 -39.999v-76h108v-72h-108v-416h-88z" />
    <glyph glyph-name="ffi" unicode="ffi" horiz-adv-x="860" 
d="M396 0l-0.00390625 415.994h-212v-416h-88v416h-92v72h92v80c0 26.667 3.5 50.334 10.5 71.001s17.333 37.834 31 51.501s30.834 24 51.501 31s44.334 10.5 71.001 10.5h64v-76h-56c-16 0 -29.333 -2 -40 -6s-19.167 -9.83301 -25.5 -17.5s-11 -17.167 -14 -28.5
s-4.5 -24.666 -4.5 -39.999v-76h212v80c0 26.667 3.5 50.334 10.5 71.001s17.333 37.834 31 51.501s30.834 24 51.501 31s44.334 10.5 71.001 10.5h56v-76h-48c-16 0 -29.333 -2 -40 -6s-19.167 -9.83301 -25.5 -17.5s-11 -17.167 -14 -28.5s-4.5 -24.666 -4.5 -39.999v-76
h300v-488h-88v416h-212v-416h-88zM691.996 631.994v100h96v-100h-96z" />
    <glyph glyph-name="ffl" unicode="ffl" horiz-adv-x="860" 
d="M396 0l-0.00390625 415.994h-212v-416h-88v416h-92v72h92v80c0 26.667 3.5 50.334 10.5 71.001s17.333 37.834 31 51.501s30.834 24 51.501 31s44.334 10.5 71.001 10.5h56v-76h-48c-16 0 -29.333 -2 -40 -6s-19.167 -9.83301 -25.5 -17.5s-11 -17.167 -14 -28.5
s-4.5 -24.666 -4.5 -39.999v-76h212v80c0 26.667 3.5 50.334 10.5 71.001s17.333 37.834 31 51.501s30.834 24 51.501 31s44.334 10.5 71.001 10.5h224v-732h-88v656h-128c-16 0 -29.333 -2 -40 -6s-19.167 -9.83301 -25.5 -17.5s-11 -17.167 -14 -28.5
s-4.5 -24.666 -4.5 -39.999v-76h132v-72h-132v-416h-88z" />
    <glyph glyph-name="f_b" unicode="fb" horiz-adv-x="904" 
d="M396 0l0.000976562 655.997h-128c-16 0 -29.333 -2 -40 -6s-19.167 -9.83301 -25.5 -17.5s-11 -17.167 -14 -28.5s-4.5 -24.666 -4.5 -39.999v-76h108v-72h-108v-416h-88v416h-92v72h92v80c0 26.667 3.5 50.334 10.5 71.001s17.333 37.834 31 51.501s30.834 24 51.501 31
s44.334 10.5 71.001 10.5h224v-156v-35c0 -10.667 -0.166992 -23.167 -0.5 -37.5s-0.833008 -29.5 -1.5 -45.5l-2 -46h4c8 15.333 17.667 28.666 29 39.999s24.166 20.5 38.499 27.5s29.666 12.167 45.999 15.5s33.166 5 50.499 5c31.333 0 60.166 -5.66699 86.499 -17
s49.166 -27.833 68.499 -49.5s34.333 -48.167 45 -79.5s16 -66.666 16 -105.999s-5.66699 -75 -17 -107s-27.333 -59.5 -48 -82.5s-44.667 -40.5 -72 -52.5s-56.333 -18 -87 -18c-17.333 0 -33.666 1.66699 -48.999 5s-29.666 8.5 -42.999 15.5s-25.333 16 -36 27
s-20 24.5 -28 40.5h-4v-76h-84zM484.001 243.997c0 -28 3.66699 -53.334 11 -76.001s17.5 -41.667 30.5 -57s28.333 -27 46 -35s36.5 -12 56.5 -12s38.833 4.16699 56.5 12.5s33 20.5 46 36.5s23.167 35.5 30.5 58.5s11 48.5 11 76.5s-3.66699 53.167 -11 75.5
s-17.5 40.833 -30.5 55.5s-28.333 25.834 -46 33.501s-36.5 11.5 -56.5 11.5c-19.333 0 -37.666 -3.83301 -54.999 -11.5s-32.5 -18.834 -45.5 -33.501s-23.333 -32.667 -31 -54s-11.834 -45.666 -12.501 -72.999v-8z" />
    <glyph glyph-name="f_h" unicode="fh" horiz-adv-x="884" 
d="M396 0l0.000976562 655.995h-128c-16 0 -29.333 -2 -40 -6s-19.167 -9.83301 -25.5 -17.5s-11 -17.167 -14 -28.5s-4.5 -24.666 -4.5 -39.999v-76h108v-72h-108v-416h-88v416h-92v72h92v80c0 26.667 3.5 50.334 10.5 71.001s17.333 37.834 31 51.501s30.834 24 51.501 31
s44.334 10.5 71.001 10.5h224v-152v-35c0 -10.667 -0.166992 -23.167 -0.5 -37.5s-0.833008 -29.5 -1.5 -45.5l-2 -46h4c6.66699 14 15 26.167 25 36.5s21.5 19 34.5 26s27.167 12.333 42.5 16s32 5.5 50 5.5c25.333 0 48.666 -3.66699 69.999 -11s40.333 -19 57 -35
s29.667 -37.167 39 -63.5s14 -57.833 14 -94.5v-296h-88v284c0 25.333 -2.66699 47 -8 65s-12.833 32.5 -22.5 43.5s-21.334 19 -35.001 24s-29.167 7.5 -46.5 7.5c-18.667 0 -36.167 -4 -52.5 -12s-30.333 -19.667 -42 -35s-20.834 -33.666 -27.501 -54.999
s-10 -44.666 -10 -69.999v-252h-88z" />
    <glyph glyph-name="f_j" unicode="fj" horiz-adv-x="560" 
d="M316 -144l23.998 -0.00390625c10.667 0 19.5 1.5 26.5 4.5s12.667 7.5 17 13.5s7.5 13.333 9.5 22s3 19.334 3 32.001v488h-212v-416h-88v416h-92v72h92v80c0 26.667 3.5 50.334 10.5 71.001s17.333 37.834 31 51.501s30.834 24 51.501 31s44.334 10.5 71.001 10.5h56
v-76h-48c-16 0 -29.333 -2 -40 -6s-19.167 -9.83301 -25.5 -17.5s-11 -17.167 -14 -28.5s-4.5 -24.666 -4.5 -39.999v-76h300v-576c0 -19.333 -2.5 -37 -7.5 -53s-12.833 -30 -23.5 -42s-24.667 -21.167 -42 -27.5s-38.333 -9.5 -63 -9.5h-32v76zM391.998 631.996v100h96
v-100h-96z" />
    <glyph glyph-name="f_k" unicode="fk" horiz-adv-x="824" 
d="M396 0l-0.00195312 655.997h-128c-16 0 -29.333 -2 -40 -6s-19.167 -9.83301 -25.5 -17.5s-11 -17.167 -14 -28.5s-4.5 -24.666 -4.5 -39.999v-76h108v-72h-108v-416h-88v416h-92v72h92v80c0 26.667 3.5 50.334 10.5 71.001s17.333 37.834 31 51.501s30.834 24 51.501 31
s44.334 10.5 71.001 10.5h224v-479l212 235h104l-181 -195l201 -293h-104l-157 229l-75 -82v-147h-88z" />
    <glyph glyph-name="f_t" unicode="ft" horiz-adv-x="628" 
d="M388 144l-0.00195312 271.998h-204v-416h-88v416h-92v72h92v80c0 26.667 3.5 50.334 10.5 71.001s17.333 37.834 31 51.501s30.834 24 51.501 31s44.334 10.5 71.001 10.5h56v-76h-48c-16 0 -29.333 -2 -40 -6s-19.167 -9.83301 -25.5 -17.5s-11 -17.167 -14 -28.5
s-4.5 -24.666 -4.5 -39.999v-76h204v148h88v-148h128v-72h-128v-268c0 -12.667 1.5 -23.667 4.5 -33s7.16699 -16.833 12.5 -22.5s12 -9.83398 20 -12.501s17 -4 27 -4h64v-76h-72c-24 0 -45 3 -63 9s-33 15 -45 27s-21 27 -27 45s-9 39 -9 63v0z" />
    <glyph glyph-name="f_f_b" unicode="ffb" horiz-adv-x="1204" 
d="M396 0l-0.000976562 415.994h-212v-416h-88v416h-92v72h92v80c0 26.667 3.5 50.334 10.5 71.001s17.333 37.834 31 51.501s30.834 24 51.501 31s44.334 10.5 71.001 10.5h56v-76h-48c-16 0 -29.333 -2 -40 -6s-19.167 -9.83301 -25.5 -17.5s-11 -17.167 -14 -28.5
s-4.5 -24.666 -4.5 -39.999v-76h212v80c0 26.667 3.5 50.334 10.5 71.001s17.333 37.834 31 51.501s30.834 24 51.501 31s44.334 10.5 71.001 10.5h224v-156v-35c0 -10.667 -0.166992 -23.167 -0.5 -37.5s-0.833008 -29.5 -1.5 -45.5l-2 -46h4
c8 15.333 17.667 28.666 29 39.999s24.166 20.5 38.499 27.5s29.666 12.167 45.999 15.5s33.166 5 50.499 5c31.333 0 60.166 -5.66699 86.499 -17s49.166 -27.833 68.499 -49.5s34.333 -48.167 45 -79.5s16 -66.666 16 -105.999s-5.66699 -75 -17 -107
s-27.333 -59.5 -48 -82.5s-44.667 -40.5 -72 -52.5s-56.333 -18 -87 -18c-17.333 0 -33.666 1.66699 -48.999 5s-29.666 8.5 -42.999 15.5s-25.333 16 -36 27s-20 24.5 -28 40.5h-4v-76h-84v656h-128c-16 0 -29.333 -2 -40 -6s-19.167 -9.83301 -25.5 -17.5
s-11 -17.167 -14 -28.5s-4.5 -24.666 -4.5 -39.999v-76h132v-72h-132v-416h-88zM783.999 243.994c0 -28 3.66699 -53.334 11 -76.001s17.5 -41.667 30.5 -57s28.333 -27 46 -35s36.5 -12 56.5 -12s38.833 4.16699 56.5 12.5s33 20.5 46 36.5s23.167 35.5 30.5 58.5
s11 48.5 11 76.5s-3.66699 53.167 -11 75.5s-17.5 40.833 -30.5 55.5s-28.333 25.834 -46 33.501s-36.5 11.5 -56.5 11.5c-19.333 0 -37.666 -3.83301 -54.999 -11.5s-32.5 -18.834 -45.5 -33.501s-23.333 -32.667 -31 -54s-11.834 -45.666 -12.501 -72.999v-8z" />
    <glyph glyph-name="f_f_h" unicode="ffh" horiz-adv-x="1184" 
d="M396 0l-0.00195312 415.994h-212v-416h-88v416h-92v72h92v80c0 26.667 3.5 50.334 10.5 71.001s17.333 37.834 31 51.501s30.834 24 51.501 31s44.334 10.5 71.001 10.5h56v-76h-48c-16 0 -29.333 -2 -40 -6s-19.167 -9.83301 -25.5 -17.5s-11 -17.167 -14 -28.5
s-4.5 -24.666 -4.5 -39.999v-76h212v80c0 26.667 3.5 50.334 10.5 71.001s17.333 37.834 31 51.501s30.834 24 51.501 31s44.334 10.5 71.001 10.5h224v-152v-35c0 -10.667 -0.166992 -23.167 -0.5 -37.5s-0.833008 -29.5 -1.5 -45.5l-2 -46h4c6.66699 14 15 26.167 25 36.5
s21.5 19 34.5 26s27.167 12.333 42.5 16s32 5.5 50 5.5c25.333 0 48.666 -3.66699 69.999 -11s40.333 -19 57 -35s29.667 -37.167 39 -63.5s14 -57.833 14 -94.5v-296h-88v284c0 25.333 -2.66699 47 -8 65s-12.833 32.5 -22.5 43.5s-21.334 19 -35.001 24
s-29.167 7.5 -46.5 7.5c-18.667 0 -36 -3.83301 -52 -11.5s-30 -19 -42 -34s-21.333 -32.833 -28 -53.5s-10 -43.667 -10 -69v-256h-88v656h-128c-16 0 -29.333 -2 -40 -6s-19.167 -9.83301 -25.5 -17.5s-11 -17.167 -14 -28.5s-4.5 -24.666 -4.5 -39.999v-76h132v-72h-132
v-416h-88z" />
    <glyph glyph-name="f_f_j" unicode="ffj" horiz-adv-x="860" 
d="M396 0l-0.00390625 415.993h-212v-416h-88v416h-92v72h92v80c0 26.667 3.5 50.334 10.5 71.001s17.333 37.834 31 51.501s30.834 24 51.501 31s44.334 10.5 71.001 10.5h64v-76h-56c-16 0 -29.333 -2 -40 -6s-19.167 -9.83301 -25.5 -17.5s-11 -17.167 -14 -28.5
s-4.5 -24.666 -4.5 -39.999v-76h212v80c0 26.667 3.5 50.334 10.5 71.001s17.333 37.834 31 51.501s30.834 24 51.501 31s44.334 10.5 71.001 10.5h56v-76h-48c-16 0 -29.333 -2 -40 -6s-19.167 -9.83301 -25.5 -17.5s-11 -17.167 -14 -28.5s-4.5 -24.666 -4.5 -39.999v-76
h300v-576c0 -19.333 -2.5 -37 -7.5 -53s-12.833 -30 -23.5 -42s-24.667 -21.167 -42 -27.5s-38.333 -9.5 -63 -9.5h-32v76h24c10.667 0 19.5 1.5 26.5 4.5s12.667 7.5 17 13.5s7.5 13.333 9.5 22s3 19.334 3 32.001v488h-212v-416h-88zM691.996 631.993v100h96v-100h-96z
" />
    <glyph glyph-name="f_f_k" unicode="ffk" horiz-adv-x="1124" 
d="M396 0l-0.00390625 415.994h-212v-416h-88v416h-92v72h92v80c0 26.667 3.5 50.334 10.5 71.001s17.333 37.834 31 51.501s30.834 24 51.501 31s44.334 10.5 71.001 10.5h56v-76h-48c-16 0 -29.333 -2 -40 -6s-19.167 -9.83301 -25.5 -17.5s-11 -17.167 -14 -28.5
s-4.5 -24.666 -4.5 -39.999v-76h212v80c0 26.667 3.5 50.334 10.5 71.001s17.333 37.834 31 51.501s30.834 24 51.501 31s44.334 10.5 71.001 10.5h224v-479l212 235h104l-181 -195l201 -293h-104l-157 229l-75 -82v-147h-88v656h-128c-16 0 -29.333 -2 -40 -6
s-19.167 -9.83301 -25.5 -17.5s-11 -17.167 -14 -28.5s-4.5 -24.666 -4.5 -39.999v-76h132v-72h-132v-416h-88z" />
    <glyph glyph-name="f_f_t" unicode="fft" horiz-adv-x="928" 
d="M396 0l-0.00390625 415.995h-212v-416h-88v416h-92v72h92v80c0 26.667 3.5 50.334 10.5 71.001s17.333 37.834 31 51.501s30.834 24 51.501 31s44.334 10.5 71.001 10.5h56v-76h-48c-16 0 -29.333 -2 -40 -6s-19.167 -9.83301 -25.5 -17.5s-11 -17.167 -14 -28.5
s-4.5 -24.666 -4.5 -39.999v-76h212v80c0 26.667 3.5 50.334 10.5 71.001s17.333 37.834 31 51.501s30.834 24 51.501 31s44.334 10.5 71.001 10.5h56v-76h-48c-16 0 -29.333 -2 -40 -6s-19.167 -9.83301 -25.5 -17.5s-11 -17.167 -14 -28.5s-4.5 -24.666 -4.5 -39.999v-76
h204v148h88v-148h128v-72h-128v-268c0 -12.667 1.5 -23.667 4.5 -33s7.16699 -16.833 12.5 -22.5s12 -9.83398 20 -12.501s17 -4 27 -4h64v-76h-72c-24 0 -45 3 -63 9s-33 15 -45 27s-21 27 -27 45s-9 39 -9 63v272h-204v-416h-88z" />
    <glyph glyph-name=".notdef" horiz-adv-x="712" 
d="M0 0v720h712v-720h-712zM232 184l126 129l126 -129l52 52l-127 130l127 130l-52 52l-126 -129l-126 129l-52 -52l126 -130l-126 -130z" />
    <glyph glyph-name="space" unicode=" " horiz-adv-x="220" 
 />
    <glyph glyph-name="exclam" unicode="!" horiz-adv-x="280" 
d="M116 192l-28 304v192h104v-192l-28 -304h-48zM88 0v108h104v-108h-104z" />
    <glyph glyph-name="quotedbl" unicode="&#x22;" horiz-adv-x="392" 
d="M80 436l-16 168v84h88v-84l-16 -168h-56zM256 436l-16 168v84h88v-84l-16 -168h-56z" />
    <glyph glyph-name="numbersign" unicode="#" horiz-adv-x="616" 
d="M60 456v68h127l29 164h80l-29 -164h144l29 164h80l-29 -164h105v-68h-117l-38 -220h115v-68h-127l-29 -168h-80l29 168h-144l-29 -168h-80l29 168h-105v68h117l38 220h-115zM255 456l-38 -220h144l38 220h-144z" />
    <glyph glyph-name="dollar" unicode="$" 
d="M44 192l88.001 -0.00195312c1.33301 -20.667 5.83301 -39.167 13.5 -55.5s18.167 -30.166 31.5 -41.499s28.666 -20 45.999 -26s36.333 -9 57 -9c22 0 41.833 2.83301 59.5 8.5s32.834 13.834 45.501 24.501s22.334 23.667 29.001 39s10 32.666 10 51.999
c0 16.667 -2.83301 31 -8.5 43s-13.667 22.333 -24 31s-22.833 16.167 -37.5 22.5s-32.667 12.833 -54 19.5l-88 28c-19.333 6 -37.666 13.833 -54.999 23.5s-33.333 21.834 -48 36.501s-26.5 32.334 -35.5 53.001s-13.5 44.334 -13.5 71.001
c0 24.667 4.33301 47.334 13 68.001s20.834 39 36.501 55s34.334 29.167 56.001 39.5s45.167 17.5 70.5 21.5v108h88v-108c24 -4 46.333 -10.833 67 -20.5s38.834 -22.334 54.501 -38.001s28.167 -33.667 37.5 -54s15 -42.833 17 -67.5h-88
c-2.66699 18.667 -7.83398 35.167 -15.501 49.5s-17.334 26 -29.001 35s-24.834 15.833 -39.501 20.5s-30.667 7 -48 7s-33.833 -2.16699 -49.5 -6.5s-29.334 -11.166 -41.001 -20.499s-20.834 -20.666 -27.501 -33.999s-10 -29 -10 -47
c0 -16.667 2.33301 -30.834 7 -42.501s11.834 -21.834 21.501 -30.501s21.5 -16.334 35.5 -23.001s31.333 -13.334 52 -20.001l88 -28c27.333 -8.66699 50.833 -18.834 70.5 -30.501s36.167 -25.167 49.5 -40.5s23.333 -32.666 30 -51.999s10 -41 10 -65
c0 -27.333 -4.66699 -52.333 -14 -75s-22.5 -42.5 -39.5 -59.5s-37.333 -30.833 -61 -41.5s-49.5 -17.667 -77.5 -21v-111h-88v111c-28 4 -53.667 11.333 -77 22s-43.333 24.667 -60 42s-29.834 37.5 -39.501 60.5s-14.834 48.5 -15.501 76.5v0z" />
    <glyph glyph-name="percent" unicode="%" horiz-adv-x="776" 
d="M176 336c-25.333 0 -47.333 4.5 -66 13.5s-34 21.667 -46 38s-21 35.5 -27 57.5s-9 45.667 -9 71s3 49 9 71s15 41.167 27 57.5s27.333 29 46 38s40.667 13.5 66 13.5s47.333 -4.5 66 -13.5s34.167 -21.667 46.5 -38s21.333 -35.5 27 -57.5s8.5 -45.667 8.5 -71
s-2.83301 -49 -8.5 -71s-14.667 -41.167 -27 -57.5s-27.833 -29 -46.5 -38s-40.667 -13.5 -66 -13.5v0zM600 -8c-25.333 0 -47.333 4.5 -66 13.5s-34 21.667 -46 38s-21 35.5 -27 57.5s-9 45.667 -9 71s3 49 9 71s15 41.167 27 57.5s27.333 29 46 38s40.667 13.5 66 13.5
s47.333 -4.5 66 -13.5s34.167 -21.667 46.5 -38s21.333 -35.5 27 -57.5s8.5 -45.667 8.5 -71s-2.83301 -49 -8.5 -71s-14.667 -41.167 -27 -57.5s-27.833 -29 -46.5 -38s-40.667 -13.5 -66 -13.5v0zM180 -12l348 712h68l-348 -712h-68zM176 396c12 0 22.5 2.66699 31.5 8
s16.5 13 22.5 23s10.5 22.5 13.5 37.5s4.5 32.167 4.5 51.5s-1.5 36.5 -4.5 51.5s-7.5 27.667 -13.5 38s-13.5 18 -22.5 23s-19.5 7.5 -31.5 7.5s-22.5 -2.66699 -31.5 -8s-16.5 -13 -22.5 -23s-10.5 -22.5 -13.5 -37.5s-4.5 -32.167 -4.5 -51.5s1.66699 -36.5 5 -51.5
s8 -27.5 14 -37.5s13.5 -17.667 22.5 -23s19.167 -8 30.5 -8v0zM600 52c12 0 22.5 2.66699 31.5 8s16.5 13 22.5 23s10.5 22.5 13.5 37.5s4.5 32.167 4.5 51.5s-1.5 36.5 -4.5 51.5s-7.5 27.667 -13.5 38s-13.5 18 -22.5 23s-19.5 7.5 -31.5 7.5s-22.5 -2.66699 -31.5 -8
s-16.5 -13 -22.5 -23s-10.5 -22.5 -13.5 -37.5s-4.5 -32.167 -4.5 -51.5s1.66699 -36.5 5 -51.5s8 -27.5 14 -37.5s13.5 -17.667 22.5 -23s19.167 -8 30.5 -8v0z" />
    <glyph glyph-name="ampersand" unicode="&#x26;" horiz-adv-x="712" 
d="M48 180c0 25.333 4.16504 48.3301 12.498 68.9971s19.833 38.834 34.5 54.501s31.167 29.5 49.5 41.5s39.166 23.667 62.499 35c-15.333 16 -28.166 30.333 -38.499 43s-18.666 24.834 -24.999 36.501s-11.166 23.667 -14.499 36s-5 25.833 -5 40.5
c0 21.333 4.16699 41.833 12.5 61.5s20.5 37.167 36.5 52.5s35.833 27.5 59.5 36.5s50.167 13.5 79.5 13.5c28.667 0 54.667 -3.83301 78 -11.5s43.166 -18.334 59.499 -32.001s28.833 -30.167 37.5 -49.5s13 -40.333 13 -63c0 -23.333 -4.5 -44.166 -13.5 -62.499
s-21 -34.5 -36 -48.5s-32 -26.167 -51 -36.5s-41.167 -21.166 -66.5 -32.499l180 -182c5.33301 11.333 9.83301 23 13.5 35s6.83398 24.5 9.50098 37.5s4.66699 26.333 6 40s2 27.5 2 41.5v8h80v-20c0 -12.667 -0.833008 -26.834 -2.5 -42.501s-4.66699 -32.334 -9 -50.001
s-10 -35.667 -17 -54s-15.833 -36.166 -26.5 -53.499l123 -124h-104l-66 66c-12.667 -12 -26.334 -22.667 -41.001 -32s-31 -17.5 -49 -24.5s-37.667 -12.333 -59 -16s-44.333 -5.5 -69 -5.5c-40 0 -75.833 4.5 -107.5 13.5s-58.667 22 -81 39s-39.166 37.333 -50.499 61
s-17 49.834 -17 78.501v0zM303.998 59.9971c18 0 34.833 1.33398 50.5 4.00098s30.334 6.5 44.001 11.5s26.334 11.167 38.001 18.5s22.167 15.666 31.5 24.999l-210 211c-18.667 -9.33301 -35.167 -18.5 -49.5 -27.5s-27 -19 -38 -30s-19.5 -23.5 -25.5 -37.5
s-9 -29.667 -9 -47c0 -20 4.16699 -38 12.5 -54s20.166 -29.5 35.499 -40.5s33.166 -19.333 53.499 -25s42.5 -8.5 66.5 -8.5v0zM203.998 539.998c0 -10 1.66895 -19.832 5.00195 -29.499s8.16602 -19.334 14.499 -29.001s14.166 -19.667 23.499 -30l35 -37.5
c21.333 10 39.666 19 54.999 27s29 17 41 27s21.333 21.333 28 34s10 26.667 10 42c0 12 -2.16699 23.333 -6.5 34s-11 20 -20 28s-20 14.333 -33 19s-27.833 7 -44.5 7c-17.333 0 -32.833 -2.5 -46.5 -7.5s-25.167 -11.833 -34.5 -20.5s-16.166 -18.5 -20.499 -29.5
s-6.5 -22.5 -6.5 -34.5v0z" />
    <glyph glyph-name="quotesingle" unicode="'" horiz-adv-x="216" 
d="M80 436l-16 168v84h88v-84l-16 -168h-56z" />
    <glyph glyph-name="parenleft" unicode="(" horiz-adv-x="284" 
d="M24 260c0 50.667 5.00098 99.998 15.001 147.998s23 92.833 39 134.5s33.5 79.167 52.5 112.5s38.167 63 57.5 89h80c-16 -20.667 -33 -47.5 -51 -80.5s-35.333 -71 -52 -114s-30.334 -89.5 -41.001 -139.5s-16 -100 -16 -150s5.5 -100 16.5 -150
s24.833 -96.833 41.5 -140.5s34 -82.167 52 -115.5s34.667 -60.666 50 -81.999h-80c-19.333 25.333 -38.5 55 -57.5 89s-36.5 72 -52.5 114s-29 87.333 -39 136s-15 98.334 -15 149.001v0z" />
    <glyph glyph-name="parenright" unicode=")" horiz-adv-x="284" 
d="M16 -228c15.333 21.333 32.001 48.668 50.001 82.001s35.333 71.833 52 115.5s30.5 90.5 41.5 140.5s16.5 100 16.5 150s-5.33301 100 -16 150s-24.334 96.5 -41.001 139.5s-34 81 -52 114s-35 59.833 -51 80.5h80c19.333 -26 38.5 -55.667 57.5 -89
s36.5 -70.833 52.5 -112.5s29 -86.5 39 -134.5s15 -97.333 15 -148s-5 -100.334 -15 -149.001s-23 -94 -39 -136s-33.5 -80 -52.5 -114s-38.167 -63.667 -57.5 -89h-80z" />
    <glyph glyph-name="asterisk" unicode="*" horiz-adv-x="456" 
d="M192 696h72l-17 -134l122 58l22 -69l-131 -26l91 -97l-58 -42l-66 116l-64 -116l-58 42l90 98l-130 25l22 69l121 -57z" />
    <glyph glyph-name="plus" unicode="+" 
d="M56 216v76h188v188h80v-188h188v-76h-188v-188h-80v188h-188z" />
    <glyph glyph-name="comma" unicode="," horiz-adv-x="264" 
d="M124 0h-48v116h112v-108l-44 -164h-52z" />
    <glyph glyph-name="hyphen" unicode="-" horiz-adv-x="396" 
d="M60 212v80h276v-80h-276z" />
    <glyph glyph-name="period" unicode="." horiz-adv-x="264" 
d="M76 0v116h112v-116h-112z" />
    <glyph glyph-name="slash" unicode="/" horiz-adv-x="400" 
d="M8 -12l308 712h76l-308 -712h-76z" />
    <glyph glyph-name="zero" unicode="0" 
d="M284 -12c-42 0 -78.333 8.83301 -109 26.5s-55.667 42.667 -75 75s-33.5 70 -42.5 113s-13.5 90.167 -13.5 141.5s4.5 98.5 13.5 141.5s23.167 80.667 42.5 113s44.333 57.333 75 75s67 26.5 109 26.5s78.333 -8.83301 109 -26.5s55.667 -42.667 75 -75
s33.5 -70 42.5 -113s13.5 -90.167 13.5 -141.5s-4.5 -98.5 -13.5 -141.5s-23.167 -80.667 -42.5 -113s-44.333 -57.333 -75 -75s-67 -26.5 -109 -26.5v0zM284 68c24.667 0 46.333 6 65 18s34.167 29.833 46.5 53.5s21.5 52.667 27.5 87s9 73.5 9 117.5s-3 83.167 -9 117.5
s-15.167 63.333 -27.5 87s-27.833 41.5 -46.5 53.5s-40.334 18 -65.001 18c-25.333 0 -47.333 -6 -66 -18s-34.167 -29.833 -46.5 -53.5s-21.333 -52.5 -27 -86.5s-8.5 -73.333 -8.5 -118c0 -44 3 -83.167 9 -117.5s15.167 -63.333 27.5 -87s27.833 -41.5 46.5 -53.5
s40.334 -18 65.001 -18v0z" />
    <glyph glyph-name="one" unicode="1" 
d="M100 468l-40 68l220 152h68v-612h164v-76h-428v76h176v503z" />
    <glyph glyph-name="two" unicode="2" 
d="M56 0c1.33301 38 5.83301 71.498 13.5 100.498s18.5 54.667 32.5 77s30.833 42.833 50.5 61.5s43.5 37.667 71.5 57l76 52c25.333 17.333 43.5 30.166 54.5 38.499s21.333 18 31 29s17.167 23.667 22.5 38s8 31.166 8 50.499c0 14.667 -2.5 29 -7.5 43
s-12.667 26.833 -23 38.5s-23.666 21 -39.999 28s-35.5 10.5 -57.5 10.5s-41.333 -3 -58 -9s-30.667 -14.833 -42 -26.5s-20.333 -26.167 -27 -43.5s-11 -37.666 -13 -60.999h-80c2 39.333 9.33301 73 22 101s29.167 50.5 49.5 67.5s43 29.167 68 36.5s51.833 11 80.5 11
c31.333 0 60.166 -4.5 86.499 -13.5s49.166 -22 68.499 -39s34.333 -37.667 45 -62s16 -51.5 16 -81.5c0 -28.667 -4.16699 -53.667 -12.5 -75s-19.333 -39.666 -33 -54.999s-26.167 -27.333 -37.5 -36s-33 -24 -65 -46l-76 -52c-24.667 -16.667 -45.167 -32.667 -61.5 -48
s-28.833 -29.666 -37.5 -42.999s-14.667 -25.666 -18 -36.999s-5.66602 -23.333 -6.99902 -36h356v-76h-456z" />
    <glyph glyph-name="three" unicode="3" 
d="M48 208l84 -0.00292969c0 -24 3.66699 -45 11 -63s17.666 -33 30.999 -45s29 -21 47 -27s37.667 -9 59 -9s41.166 2.83301 59.499 8.5s34 14 47 25s23.167 24.333 30.5 40s11 33.5 11 53.5c0 19.333 -3.83301 36.833 -11.5 52.5s-18.334 29 -32.001 40
s-29.5 19.5 -47.5 25.5s-37 9 -57 9h-52v76h52c16.667 0 32.667 2.83301 48 8.5s28.666 13.834 39.999 24.501s20.166 23.334 26.499 38.001s9.5 30.667 9.5 48s-3.16699 33 -9.5 47s-15.166 25.667 -26.499 35s-24.5 16.5 -39.5 21.5s-31.167 7.5 -48.5 7.5
s-33.5 -2.5 -48.5 -7.5s-28.167 -12.667 -39.5 -23s-20.166 -23.333 -26.499 -39s-9.5 -33.834 -9.5 -54.501h-80c0 30 4.83301 57.333 14.5 82s23.5 45.834 41.5 63.501s39.667 31.167 65 40.5s53 14 83 14c30.667 0 59 -4.5 85 -13.5s48.167 -21.833 66.5 -38.5
s32.333 -36.5 42 -59.5s14.5 -47.833 14.5 -74.5c0 -16 -2.66699 -32.167 -8 -48.5s-12.666 -31.666 -21.999 -45.999s-20.166 -26.666 -32.499 -36.999s-24.833 -17.833 -37.5 -22.5v-4c18 -4.66699 34.833 -12.334 50.5 -23.001s29.334 -23.667 41.001 -39
s20.667 -32.333 27 -51s9.5 -38.334 9.5 -59.001c0 -30 -6 -57.167 -18 -81.5s-28.833 -45 -50.5 -62s-46.834 -30 -75.501 -39s-59.334 -13.5 -92.001 -13.5c-35.333 0 -67.166 4.5 -95.499 13.5s-52.666 22.667 -72.999 41s-36 41.333 -47 69s-16.5 59.834 -16.5 96.501v0
z" />
    <glyph glyph-name="four" unicode="4" 
d="M32 172v64l332 452h72v-440h100v-76h-100v-172h-88v172h-316zM122 248h226v303z" />
    <glyph glyph-name="five" unicode="5" 
d="M48 184l88 -0.00195312c2 -15.333 6.5 -30.166 13.5 -44.499s16.5 -27.166 28.5 -38.499s27 -20.333 45 -27s38.333 -10 61 -10c19.333 0 37.833 3.16699 55.5 9.5s33.5 15.833 47.5 28.5s25 28.334 33 47.001s12 39.667 12 63s-3.66699 44.5 -11 63.5
s-17.666 35 -30.999 48s-29.166 23 -47.499 30s-37.833 10.5 -58.5 10.5c-13.333 0 -26 -1.5 -38 -4.5s-23.333 -7.33301 -34 -13s-20.834 -12.667 -30.501 -21s-19.5 -18.166 -29.5 -29.499l-80 4l20 388h388v-80h-308l-12 -216h4c7.33301 7.33301 15.5 13.833 24.5 19.5
s19 10.667 30 15s23 7.66602 36 9.99902s26.833 3.5 41.5 3.5c30.667 0 59.667 -5 87 -15s51.166 -24.5 71.499 -43.5s36.333 -42.333 48 -70s17.5 -58.167 17.5 -91.5c0 -37.333 -6.5 -70.666 -19.5 -99.999s-30.5 -53.833 -52.5 -73.5s-47.167 -34.334 -75.5 -44.001
s-57.833 -14.5 -88.5 -14.5c-34.667 0 -66 4.66699 -94 14s-52 22.5 -72 39.5s-36 37.667 -48 62s-19.333 51.166 -22 80.499v0z" />
    <glyph glyph-name="six" unicode="6" 
d="M48 328c0 66.667 7.16797 124 21.501 172s33.666 86.667 57.999 116s51.833 50.666 82.5 63.999s63.334 20 98.001 20c32 0 60.5 -4.5 85.5 -13.5s46 -21.5 63 -37.5s30.333 -35.333 40 -58s16.167 -47.667 19.5 -75h-88c-2 16 -5.66699 30.333 -11 43
s-12.833 24 -22.5 34s-21.667 17.667 -36 23s-31.166 8 -50.499 8c-21.333 0 -41.666 -5 -60.999 -15s-36.833 -25.833 -52.5 -47.5s-28.334 -50.167 -38.001 -85.5s-15.167 -77.666 -16.5 -126.999c6.66699 14 16.167 26.5 28.5 37.5s26.5 20.5 42.5 28.5
s33 14.167 51 18.5s36 6.5 54 6.5c32 0 61.167 -5.16699 87.5 -15.5s49.166 -25.5 68.499 -45.5s34.166 -43.833 44.499 -71.5s15.5 -58.167 15.5 -91.5c0 -35.333 -6.33301 -67.333 -19 -96s-29.834 -52.834 -51.501 -72.501s-46.5 -34.5 -74.5 -44.5s-57 -15 -87 -15
c-35.333 0 -68.166 6.16699 -98.499 18.5s-57 31.833 -80 58.5s-41 61.834 -54 105.501s-19.5 96.167 -19.5 157.5v0zM304.001 364c-21.333 0 -41.168 -3.66504 -59.501 -10.998s-34.5 -17.833 -48.5 -31.5s-24.833 -29.667 -32.5 -48s-11.5 -37.833 -11.5 -58.5
c0 -21.333 3.5 -41.166 10.5 -59.499s17 -34.333 30 -48s28.333 -24.334 46 -32.001s36.834 -11.5 57.501 -11.5s40 3.33301 58 10s33.667 16.5 47 29.5s23.833 29 31.5 48s11.5 40.5 11.5 64.5c0 21.333 -3.66699 41.166 -11 59.499s-17.5 34.166 -30.5 47.499
s-28 23.5 -45 30.5s-34.833 10.5 -53.5 10.5v0z" />
    <glyph glyph-name="seven" unicode="7" 
d="M140 0l288 608h-376v80h472v-64l-292 -624h-92z" />
    <glyph glyph-name="eight" unicode="8" 
d="M44 184c0 20.667 3.16504 40.334 9.49805 59.001s15.333 35.667 27 51s25.334 28.333 41.001 39s32.5 18.334 50.5 23.001v4c-14 4.66699 -27 12.167 -39 22.5s-22.667 22.5 -32 36.5s-16.5 29.167 -21.5 45.5s-7.5 32.833 -7.5 49.5c0 26.667 5 51.5 15 74.5
s24.167 42.833 42.5 59.5s40.666 29.5 66.999 38.5s55.5 13.5 87.5 13.5s61.167 -4.5 87.5 -13.5s48.666 -21.833 66.999 -38.5s32.5 -36.5 42.5 -59.5s15 -47.833 15 -74.5c0 -16.667 -2.5 -33.167 -7.5 -49.5s-12.167 -31.5 -21.5 -45.5s-20 -26.167 -32 -36.5
s-25 -17.833 -39 -22.5v-4c18 -4.66699 34.833 -12.334 50.5 -23.001s29.334 -23.667 41.001 -39s20.667 -32.333 27 -51s9.5 -38.334 9.5 -59.001c0 -30 -5.66699 -57.333 -17 -82s-27.666 -45.334 -48.999 -62.001s-46.833 -29.5 -76.5 -38.5s-62.167 -13.5 -97.5 -13.5
s-67.833 4.5 -97.5 13.5s-55.167 21.833 -76.5 38.5s-37.666 37.334 -48.999 62.001s-17 52 -17 82v0zM131.998 191c0 -20 3.66309 -37.833 10.9961 -53.5s17.833 -29 31.5 -40s29.834 -19.333 48.501 -25s39 -8.5 61 -8.5s42.333 2.83301 61 8.5s34.834 14 48.501 25
s24.167 24.333 31.5 40s11 33.5 11 53.5c0 18.667 -3.83301 35.834 -11.5 51.501s-18.5 29.167 -32.5 40.5s-30.167 20 -48.5 26s-38.166 9 -59.499 9s-41.166 -3 -59.499 -9s-34.5 -14.667 -48.5 -26s-24.833 -24.833 -32.5 -40.5s-11.5 -32.834 -11.5 -51.501v0z
M283.994 394c18 0 34.833 2.83301 50.5 8.5s29.334 13.834 41.001 24.501s20.667 23.334 27 38.001s9.5 30.667 9.5 48s-3.16699 33.166 -9.5 47.499s-15.333 26.5 -27 36.5s-25.334 17.667 -41.001 23s-32.5 8 -50.5 8s-34.833 -2.66699 -50.5 -8s-29.334 -13 -41.001 -23
s-20.667 -22.167 -27 -36.5s-9.5 -30.166 -9.5 -47.499s3.16699 -33.333 9.5 -48s15.333 -27.334 27 -38.001s25.334 -18.834 41.001 -24.501s32.5 -8.5 50.5 -8.5v0z" />
    <glyph glyph-name="nine" unicode="9" 
d="M520 360c0 -67.333 -6.1709 -125 -18.5039 -173s-29.833 -86.5 -52.5 -115.5s-49.167 -50.167 -79.5 -63.5s-64.166 -20 -101.499 -20c-33.333 0 -62.666 4.33301 -87.999 13s-46.833 21.167 -64.5 37.5s-31.667 35.666 -42 57.999s-17.5 47.5 -21.5 75.5h88
c3.33301 -15.333 8 -29.333 14 -42s14 -24 24 -34s22.5 -17.833 37.5 -23.5s32.5 -8.5 52.5 -8.5c24 0 45.5 4.83301 64.5 14.5s35.5 25.334 49.5 47.001s25 50.167 33 85.5s12.333 77.666 13 126.999c-6.66699 -13.333 -16.167 -25.666 -28.5 -36.999
s-26.5 -20.833 -42.5 -28.5s-33 -13.667 -51 -18s-36 -6.5 -54 -6.5c-32 0 -61.167 5.16699 -87.5 15.5s-49.166 25.5 -68.499 45.5s-34.166 43.833 -44.499 71.5s-15.5 58.167 -15.5 91.5c0 35.333 6.33301 67.333 19 96s29.834 52.834 51.501 72.501s46.5 34.5 74.5 44.5
s57 15 87 15c35.333 0 68.166 -6.16699 98.499 -18.5s57 -31.833 80 -58.5s41 -61.834 54 -105.501s19.5 -96.167 19.5 -157.5v0zM263.996 324c21.333 0 41.168 3.66211 59.501 10.9951s34.5 17.833 48.5 31.5s24.833 29.667 32.5 48s11.5 37.833 11.5 58.5
s-3.66699 40.334 -11 59.001s-17.5 34.834 -30.5 48.501s-28.333 24.334 -46 32.001s-36.5 11.5 -56.5 11.5s-38.833 -3.33301 -56.5 -10s-33.334 -16.5 -47.001 -29.5s-24.5 -29 -32.5 -48s-12 -40.5 -12 -64.5c0 -21.333 3.66699 -41.166 11 -59.499
s17.5 -34.166 30.5 -47.499s28 -23.5 45 -30.5s34.833 -10.5 53.5 -10.5v0z" />
    <glyph glyph-name="colon" unicode=":" horiz-adv-x="264" 
d="M76 372v116h112v-116h-112zM76 0v116h112v-116h-112z" />
    <glyph glyph-name="semicolon" unicode=";" horiz-adv-x="264" 
d="M76 372v116h112v-116h-112zM124 0h-48v116h112v-108l-44 -164h-52z" />
    <glyph glyph-name="less" unicode="&#x3c;" 
d="M72 216v76l424 180v-80l-335 -136l335 -136v-84z" />
    <glyph glyph-name="equal" unicode="=" 
d="M56 320v76h456v-76h-456zM56 112v76h456v-76h-456z" />
    <glyph glyph-name="greater" unicode="&#x3e;" 
d="M496 292v-76l-424 -180v80l335 136l-335 136v84z" />
    <glyph glyph-name="question" unicode="?" horiz-adv-x="504" 
d="M204 196l-0.00390625 27.9961c0 42 7.5 75.667 22.5 101s37.5 50 67.5 74s51.167 43 63.5 57s18.5 34 18.5 60c0 15.333 -2.66699 29.5 -8 42.5s-13.166 24.5 -23.499 34.5s-22.666 17.667 -36.999 23s-30.166 8 -47.499 8c-22 0 -41.333 -3.66699 -58 -11
s-30.5 -17.666 -41.5 -30.999s-19.167 -28.666 -24.5 -45.999s-8 -36 -8 -56h-88c0 28.667 4.5 56.167 13.5 82.5s22.667 49.833 41 70.5s41.333 37 69 49s59.834 18 96.501 18c30 0 57.833 -4.16699 83.5 -12.5s47.834 -20.333 66.501 -36s33 -34.667 43 -57
s15 -47.166 15 -74.499c0 -36.667 -7.66699 -66.167 -23 -88.5s-37.833 -45.166 -67.5 -68.499s-51.334 -43.333 -65.001 -60s-20.5 -39 -20.5 -67v-40h-88zM195.996 -0.00390625v108h104v-108h-104z" />
    <glyph glyph-name="at" unicode="@" horiz-adv-x="1032" 
d="M300 128c0 19.333 2.99512 36.9971 8.99512 52.9971s15.5 30.333 28.5 43s29.667 23.334 50 32.001s44.5 15.334 72.5 20.001l96 16c14 2 24.667 4 32 6s13.333 4.16699 18 6.5s8.16699 5.33301 10.5 9s3.5 8.5 3.5 14.5c0 16 -2 30.167 -6 42.5s-10.333 22.833 -19 31.5
s-19.5 15.167 -32.5 19.5s-28.5 6.5 -46.5 6.5s-33.667 -2 -47 -6s-24.666 -10 -33.999 -18s-16.5 -17.667 -21.5 -29s-8.16699 -24.333 -9.5 -39h-84c1.33301 23.333 6.5 44.833 15.5 64.5s21.667 37 38 52s36.166 26.667 59.499 35s49.666 12.5 78.999 12.5
c32.667 0 61.334 -4.16699 86.001 -12.5s45.167 -20.333 61.5 -36s28.5 -34.834 36.5 -57.501s12 -48.667 12 -78v-151c0 -22 2.16699 -40.5 6.5 -55.5s10.333 -26.667 18 -35s16.167 -14.166 25.5 -17.499s19.333 -5 30 -5c15.333 0 30 4.33301 44 13s26.833 22 38.5 40
s20.834 41.167 27.501 69.5s10 60.833 10 97.5c0 55.333 -9.66699 105.666 -29 150.999s-46.5 83.833 -81.5 115.5s-76.167 55.834 -123.5 72.501s-98.666 25 -153.999 25c-59.333 0 -113.5 -10.167 -162.5 -30.5s-91 -49 -126 -86s-61.667 -80.167 -80 -129.5
s-27.5 -102 -27.5 -158s9.16699 -108.167 27.5 -156.5s44.5 -90.5 78.5 -126.5s74.667 -63.833 122 -83.5s99.333 -29.5 156 -29.5c20 0 39.833 1.5 59.5 4.5s38.667 7.66699 57 14s35.666 14.333 51.999 24s30.833 20.834 43.5 33.501h100
c-18 -22.667 -38.167 -42.667 -60.5 -60s-46.666 -32 -72.999 -44s-54.5 -21 -84.5 -27s-61.333 -9 -94 -9c-67.333 0 -129.333 11.5 -186 34.5s-105.5 55.5 -146.5 97.5s-72.5 91 -94.5 147s-33 116.333 -33 181s11.167 125.5 33.5 182.5s54.333 106.833 96 149.5
s91.667 76 150 100s122.5 36 192.5 36c66 0 127.333 -10 184 -30s106 -48.833 148 -86.5s74.5 -83 97.5 -136s34.5 -111.5 34.5 -175.5c0 -48 -5.5 -90 -16.5 -126s-26.167 -65.333 -45.5 -88s-41.166 -39.334 -65.499 -50.001s-49.833 -16 -76.5 -16
c-16 0 -31 1.33301 -45 4s-27.167 7.16699 -39.5 13.5s-23.166 14.833 -32.499 25.5s-17 23.667 -23 39c-8.66699 -15.333 -19.167 -28.5 -31.5 -39.5s-26 -20 -41 -27s-31.167 -12 -48.5 -15s-35.666 -4.5 -54.999 -4.5c-25.333 0 -48.333 3.33301 -69 10
s-38 16.334 -52 29.001s-24.667 27.5 -32 44.5s-11 35.833 -11 56.5v0zM619.995 203.997l-0.000976562 47.0039c-2.66699 -2.66699 -5.66699 -5.33398 -9 -8.00098s-7.16602 -4.83398 -11.499 -6.50098s-9.16602 -3.16699 -14.499 -4.5s-11 -2.66602 -17 -3.99902l-96 -16
c-15.333 -2.66699 -28.333 -6.33398 -39 -11.001s-19.334 -10.334 -26.001 -17.001s-11.5 -14.334 -14.5 -23.001s-4.5 -18.334 -4.5 -29.001c0 -11.333 2 -21.666 6 -30.999s10 -17.333 18 -24s17.833 -11.834 29.5 -15.501s24.5 -5.5 38.5 -5.5c19.333 0 37.5 3 54.5 9
s31.833 15.333 44.5 28s22.667 28.334 30 47.001s11 40 11 64v0z" />
    <glyph glyph-name="A" unicode="A" horiz-adv-x="644" 
d="M12 0l256 688h108l256 -688h-96l-65 180h-302l-65 -180h-92zM322 592h-4l-120 -332h244z" />
    <glyph glyph-name="B" unicode="B" horiz-adv-x="664" 
d="M84 0l-0.00292969 688.003h284c36.667 0 68.834 -4 96.501 -12s50.667 -19.833 69 -35.5s32 -34.5 41 -56.5s13.5 -47.333 13.5 -76c0 -16.667 -2.33301 -32.334 -7 -47.001s-11.5 -28.334 -20.5 -41.001s-20.167 -23.834 -33.5 -33.501s-29 -17.167 -47 -22.5v-4
c20.667 -4 39.334 -10.5 56.001 -19.5s31 -20.333 43 -34s21.167 -29.167 27.5 -46.5s9.5 -36 9.5 -56c0 -29.333 -5 -56.5 -15 -81.5s-24.667 -46.667 -44 -65s-43.166 -32.5 -71.499 -42.5s-60.833 -15 -97.5 -15h-304zM387.997 316.003h-212v-236h212
c22.667 0 42.5 3 59.5 9s31.167 14.5 42.5 25.5s19.833 24 25.5 39s8.5 31.5 8.5 49.5c0 16 -2.83301 31 -8.5 45s-14.167 26 -25.5 36s-25.5 17.833 -42.5 23.5s-36.833 8.5 -59.5 8.5v0zM367.997 608.003l-192.001 -0.000976562v-212h192c20.667 0 39 2.83301 55 8.5
s29.5 13.667 40.5 24s19.167 22.333 24.5 36s8 28.5 8 44.5c0 15.333 -2.33301 29 -7 41s-12.167 22.333 -22.5 31s-23.666 15.334 -39.999 20.001s-35.833 7 -58.5 7v0z" />
    <glyph glyph-name="C" unicode="C" horiz-adv-x="712" 
d="M44 344c0 50.667 7.99414 97.833 23.9941 141.5s38.833 81.5 68.5 113.5s64.834 56.833 105.501 74.5s85.334 26.5 134.001 26.5c39.333 0 75.5 -5.5 108.5 -16.5s62 -26.5 87 -46.5s45.5 -44 61.5 -72s27.667 -59 35 -93h-95c-6.66699 23.333 -15.667 44 -27 62
s-25.166 33 -41.499 45s-35.333 21.167 -57 27.5s-45.5 9.5 -71.5 9.5c-34.667 0 -66.5 -6.5 -95.5 -19.5s-54 -31.667 -75 -56s-37.167 -53.333 -48.5 -87s-17 -70.167 -17 -109.5c0 -38.667 5.66699 -74.667 17 -108s27.333 -62.333 48 -87s45.167 -43.667 73.5 -57
s59.5 -20 93.5 -20c28 0 53.167 3.16699 75.5 9.5s41.666 15.5 57.999 27.5s30 27 41 45s19.833 38.667 26.5 62h95c-7.33301 -34 -19.166 -65 -35.499 -93s-37.333 -52 -63 -72s-55.167 -35.5 -88.5 -46.5s-69.666 -16.5 -108.999 -16.5
c-47.333 0 -91.166 8.66699 -131.499 26s-75.166 41.833 -104.499 73.5s-52 69.5 -68 113.5s-24 91.667 -24 143v0z" />
    <glyph glyph-name="D" unicode="D" horiz-adv-x="704" 
d="M88 0v688.002h212c58 0 109.667 -8.33301 155 -25s83.166 -40.334 113.499 -71.001s53.166 -67 68.499 -109s23 -88.333 23 -139s-7.66699 -97 -23 -139s-38.166 -78.333 -68.499 -109s-68.166 -54.334 -113.499 -71.001s-97 -25 -155 -25h-212zM300 608.002
l-120 0.00195312v-528h120c46.667 0 87 7 121 21s61.5 33.167 82.5 57.5s36.333 52.166 46 83.499s14.5 65.333 14.5 102s-4.83301 70.667 -14.5 102s-25 59.166 -46 83.499s-48.5 43.5 -82.5 57.5s-74.333 21 -121 21v0z" />
    <glyph glyph-name="E" unicode="E" horiz-adv-x="612" 
d="M88 0v688h464v-80h-372v-218h296v-80h-296v-230h380v-80h-472z" />
    <glyph glyph-name="F" unicode="F" horiz-adv-x="576" 
d="M88 0v688h456v-80h-364v-240h288v-80h-288v-288h-92z" />
    <glyph glyph-name="G" unicode="G" horiz-adv-x="760" 
d="M624 0l-16.001 99.9971h-3c-12 -19.333 -25.667 -36 -41 -50s-32.333 -25.667 -51 -35s-39 -16.166 -61 -20.499s-46 -6.5 -72 -6.5c-48.667 0 -93.667 8.83301 -135 26.5s-77 42.5 -107 74.5s-53.167 69.833 -69.5 113.5s-24.5 90.834 -24.5 141.501
s8.16699 97.834 24.5 141.501s39.666 81.5 69.999 113.5s66.5 56.833 108.5 74.5s87.667 26.5 137 26.5c40 0 76.833 -5.33301 110.5 -16s63.334 -25.834 89.001 -45.501s47 -42.667 64 -69s29.167 -54.833 36.5 -85.5h-96c-6 18.667 -14.5 35.834 -25.5 51.501
s-25 29.5 -42 41.5s-37 21.5 -60 28.5s-48.5 10.5 -76.5 10.5c-36.667 0 -70 -6.66699 -100 -20s-55.833 -32.333 -77.5 -57s-38.167 -53.667 -49.5 -87s-17 -69.333 -17 -108s5.83301 -74.667 17.5 -108s28.167 -62.333 49.5 -87s46.833 -43.667 76.5 -57
s61.834 -20 96.501 -20c29.333 0 57.166 4.16699 83.499 12.5s49.833 20.833 70.5 37.5s36.834 37 48.501 61s17.5 51 17.5 81v20h-216v80h300v-364h-60z" />
    <glyph glyph-name="H" unicode="H" horiz-adv-x="728" 
d="M88 0v688h92v-300h368v300h92v-688h-92v308h-368v-308h-92z" />
    <glyph glyph-name="I" unicode="I" horiz-adv-x="268" 
d="M88 0v688h92v-688h-92z" />
    <glyph glyph-name="J" unicode="J" horiz-adv-x="512" 
d="M36 196l0.00195312 32h92v-24c0 -24 2.66699 -44.667 8 -62s12.833 -31.5 22.5 -42.5s21 -19 34 -24s27.5 -7.5 43.5 -7.5s30.5 2.5 43.5 7.5s24.333 13 34 24s17.167 25.167 22.5 42.5s8 38 8 62v484h92v-492c0 -36.667 -4.83301 -68.334 -14.5 -95.001
s-23.334 -48.334 -41.001 -65.001s-38.667 -28.834 -63 -36.501s-51.5 -11.5 -81.5 -11.5s-57.167 3.83301 -81.5 11.5s-45.333 19.834 -63 36.501s-31.334 38.334 -41.001 65.001s-14.5 58.334 -14.5 95.001v0z" />
    <glyph glyph-name="K" unicode="K" horiz-adv-x="652" 
d="M88 0v688h92v-370l344 370h108l-283 -299l295 -389h-104l-252 325l-108 -115v-210h-92z" />
    <glyph glyph-name="L" unicode="L" horiz-adv-x="544" 
d="M88 0v688h92v-608h336v-80h-428z" />
    <glyph glyph-name="M" unicode="M" horiz-adv-x="904" 
d="M88 0v688h112l253 -564h2l249 564h112v-688h-92l8 544h-4l-240 -544h-72l-240 532h-4l8 -532h-92z" />
    <glyph glyph-name="N" unicode="N" horiz-adv-x="736" 
d="M88 0v688h88l380 -532h4l-4 532h92v-688h-88l-380 528h-4l4 -528h-92z" />
    <glyph glyph-name="O" unicode="O" horiz-adv-x="760" 
d="M44 344c0 50.667 8 97.834 24 141.501s39 81.5 69 113.5s65.667 56.833 107 74.5s86.666 26.5 135.999 26.5c48.667 0 93.667 -8.83301 135 -26.5s77 -42.5 107 -74.5s53.167 -69.833 69.5 -113.5s24.5 -90.834 24.5 -141.501s-8.16699 -97.834 -24.5 -141.501
s-39.5 -81.5 -69.5 -113.5s-65.667 -56.833 -107 -74.5s-86.333 -26.5 -135 -26.5c-49.333 0 -94.666 8.83301 -135.999 26.5s-77 42.5 -107 74.5s-53 69.833 -69 113.5s-24 90.834 -24 141.501v0zM140 344c0 -38.667 5.66699 -74.667 17 -108s27.666 -62.333 48.999 -87
s46.833 -43.667 76.5 -57s62.167 -20 97.5 -20s67.833 6.66699 97.5 20s55.167 32.333 76.5 57s37.666 53.667 48.999 87s17 69.333 17 108s-5.66699 74.667 -17 108s-27.666 62.333 -48.999 87s-46.833 43.667 -76.5 57s-62.167 20 -97.5 20s-67.833 -6.66699 -97.5 -20
s-55.167 -32.333 -76.5 -57s-37.666 -53.667 -48.999 -87s-17 -69.333 -17 -108v0z" />
    <glyph glyph-name="P" unicode="P" horiz-adv-x="636" 
d="M88 0v688.003h260c38.667 0 73.167 -5.33301 103.5 -16s56 -25.834 77 -45.501s36.833 -43 47.5 -70s16 -56.5 16 -88.5c0 -32.667 -5.33301 -62.834 -16 -90.501s-26.5 -51.834 -47.5 -72.501s-46.667 -36.667 -77 -48s-64.833 -17 -103.5 -17h-168v-240h-92z
M352 608.003l-172 -0.00292969v-288h172c24 0 45.333 3.83301 64 11.5s34.334 18.334 47.001 32.001s22 29.334 28 47.001s9 36.834 9 57.501c0 20 -3 38.5 -9 55.5s-15.167 31.833 -27.5 44.5s-27.833 22.5 -46.5 29.5s-40.334 10.5 -65.001 10.5v0z" />
    <glyph glyph-name="Q" unicode="Q" horiz-adv-x="764" 
d="M44 344c0 50.667 7.99902 97.833 23.999 141.5s39 81.5 69 113.5s65.667 56.833 107 74.5s86.666 26.5 135.999 26.5c48.667 0 93.667 -8.83301 135 -26.5s77 -42.5 107 -74.5s53.167 -69.833 69.5 -113.5s24.5 -90.834 24.5 -141.501
c0 -27.333 -2.33301 -53.666 -7 -78.999s-11.667 -49.333 -21 -72s-20.666 -43.834 -33.999 -63.501s-28.333 -37.5 -45 -53.5l131 -136l-64 -64l-140 148c-11.333 -6 -23.166 -11.167 -35.499 -15.5s-25 -8 -38 -11s-26.333 -5.33301 -40 -7s-27.834 -2.5 -42.501 -2.5
c-49.333 0 -94.666 8.83301 -135.999 26.5s-77 42.5 -107 74.5s-53 69.833 -69 113.5s-24 90.834 -24 141.501v0zM139.999 343.999c0 -38.667 5.66699 -74.667 17 -108s27.666 -62.333 48.999 -87s46.833 -43.667 76.5 -57s62.167 -20 97.5 -20s67.833 6.66699 97.5 20
s55.167 32.333 76.5 57s37.666 53.667 48.999 87s17 69.333 17 108s-5.66699 74.667 -17 108s-27.666 62.333 -48.999 87s-46.833 43.667 -76.5 57s-62.167 20 -97.5 20s-67.833 -6.66699 -97.5 -20s-55.167 -32.333 -76.5 -57s-37.666 -53.667 -48.999 -87
s-17 -69.333 -17 -108v0z" />
    <glyph glyph-name="R" unicode="R" horiz-adv-x="652" 
d="M88 0l0.00195312 688.002h260c38.667 0 73 -4.5 103 -13.5s55.167 -22.333 75.5 -40s35.666 -39.167 45.999 -64.5s15.5 -54 15.5 -86c0 -25.333 -3.16699 -49 -9.5 -71s-16 -41.833 -29 -59.5s-28.833 -32.834 -47.5 -45.501s-40.334 -22.334 -65.001 -29.001l175 -279
h-100l-171 268h-161v-268h-92zM352.002 608.002l-172.001 0.00195312v-260h172c23.333 0 44 3.5 62 10.5s33.167 16.667 45.5 29s21.5 26.666 27.5 42.999s9 34.166 9 53.499c0 18.667 -3.16699 35.667 -9.5 51s-15.666 28.5 -27.999 39.5s-27.5 19.333 -45.5 25
s-38.333 8.5 -61 8.5v0z" />
    <glyph glyph-name="S" unicode="S" horiz-adv-x="648" 
d="M56 196l92.001 0.00390625c0 -18.667 3.83301 -36 11.5 -52s19 -30 34 -42s33.167 -21.333 54.5 -28s45.333 -10 72 -10c28 0 52.833 2.83301 74.5 8.5s40.167 14 55.5 25s26.833 24.5 34.5 40.5s11.5 34 11.5 54c0 18 -4 33.333 -12 46s-19 23.167 -33 31.5
s-30 15.166 -48 20.499s-39 10 -63 14l-44 8c-34 6 -63.667 12.667 -89 20s-48.833 17.833 -70.5 31.5s-38.834 31.667 -51.501 54s-19 49.833 -19 82.5c0 28.667 6 55.334 18 80.001s29.167 46 51.5 64s49.166 31.833 80.499 41.5s66 14.5 104 14.5
c36.667 0 70.5 -4.5 101.5 -13.5s57.667 -22 80 -39s39.666 -37.667 51.999 -62s18.5 -51.5 18.5 -81.5h-92c0 18.667 -4 35.5 -12 50.5s-19.167 27.667 -33.5 38s-31.166 18.166 -50.499 23.499s-40.666 8 -63.999 8c-22.667 0 -43.667 -2.5 -63 -7.5
s-36.333 -12.333 -51 -22s-26 -21.834 -34 -36.501s-12 -31.334 -12 -50.001s4.33301 -34.334 13 -47.001s20.5 -23 35.5 -31s32 -14.5 51 -19.5s41.833 -9.83301 68.5 -14.5l44 -8c32.667 -6 61.334 -12.833 86.001 -20.5s47.167 -18.5 67.5 -32.5s36.5 -32.333 48.5 -55
s18 -50.667 18 -84c0 -30.667 -6.16699 -58.834 -18.5 -84.501s-30.166 -47.667 -53.499 -66s-51.833 -32.5 -85.5 -42.5s-71.834 -15 -114.501 -15c-41.333 0 -78.5 5 -111.5 15s-60.833 24.167 -83.5 42.5s-39.834 40.333 -51.501 66s-17.5 53.834 -17.5 84.501v0z" />
    <glyph glyph-name="T" unicode="T" horiz-adv-x="588" 
d="M8 610v78h572v-78h-240v-610h-92v610h-240z" />
    <glyph glyph-name="U" unicode="U" horiz-adv-x="696" 
d="M72 272v416h92v-416c0 -32 3.83301 -60.333 11.5 -85s19 -45.5 34 -62.5s34.167 -30 57.5 -39s50.333 -13.5 81 -13.5s57.667 4.5 81 13.5s42.5 22 57.5 39s26.333 37.833 34 62.5s11.5 53 11.5 85v416h92v-416c0 -50 -6.5 -93.167 -19.5 -129.5
s-31.833 -65.833 -56.5 -88.5s-53.667 -39.334 -87 -50.001s-71 -16 -113 -16s-79.667 5.33301 -113 16s-62.333 27.334 -87 50.001s-43.5 52.167 -56.5 88.5s-19.5 79.5 -19.5 129.5v0z" />
    <glyph glyph-name="V" unicode="V" horiz-adv-x="620" 
d="M258 0l-250 688h96l206 -592h4l206 592h92l-252 -688h-102z" />
    <glyph glyph-name="W" unicode="W" horiz-adv-x="936" 
d="M196 0l-184 688h96l146 -592h4l158 592h112l158 -592h4l142 592h92l-180 -688h-116l-156 584h-4l-156 -584h-116z" />
    <glyph glyph-name="X" unicode="X" horiz-adv-x="596" 
d="M8 0l237 351l-229 337h104l177 -264l175 264h100l-225 -334l241 -354h-104l-189 281l-187 -281h-100z" />
    <glyph glyph-name="Y" unicode="Y" horiz-adv-x="608" 
d="M256 0v270l-244 418h104l186 -324h4l194 324h96l-248 -411v-277h-92z" />
    <glyph glyph-name="Z" unicode="Z" horiz-adv-x="584" 
d="M56 610v78h492v-60l-397 -550h393v-78h-508v60l397 550h-377z" />
    <glyph glyph-name="bracketleft" unicode="[" horiz-adv-x="332" 
d="M168 -156h148v-72h-228v972h228v-72h-148v-828z" />
    <glyph glyph-name="backslash" unicode="\" horiz-adv-x="400" 
d="M316 -12l-308 712h76l308 -712h-76z" />
    <glyph glyph-name="bracketright" unicode="]" horiz-adv-x="332" 
d="M16 -156h148v828h-148v72h228v-972h-228v72z" />
    <glyph glyph-name="asciicircum" unicode="^" 
d="M54 352l188 336h88l188 -336h-92l-142 265l-142 -265h-88z" />
    <glyph glyph-name="underscore" unicode="_" horiz-adv-x="500" 
d="M0 -72h500v-68h-500v68z" />
    <glyph glyph-name="grave" unicode="`" horiz-adv-x="560" 
d="M248 568l-144 164h104l104 -164h-64z" />
    <glyph glyph-name="a" unicode="a" horiz-adv-x="524" 
d="M48 124c0 20.667 3.00195 38.9932 9.00195 54.9932s15.5 30.333 28.5 43s29.5 23.334 49.5 32.001s44.333 15.334 73 20.001l96 16c14 2.66699 25 5 33 7s14.167 4.33301 18.5 7s7.5 5.83398 9.5 9.50098s3 8.5 3 14.5c0 14.667 -2.16699 28.167 -6.5 40.5
s-10.833 23 -19.5 32s-19.667 15.833 -33 20.5s-28.333 7 -45 7c-17.333 0 -32.833 -2.16699 -46.5 -6.5s-25.167 -10.666 -34.5 -18.999s-16.5 -18.166 -21.5 -29.499s-8.16699 -23.666 -9.5 -36.999h-84c1.33301 23.333 6.5 45 15.5 65s21.833 37.333 38.5 52
s37 26.167 61 34.5s51 12.5 81 12.5c31.333 0 59.166 -4 83.499 -12s44.5 -19.833 60.5 -35.5s28 -34.667 36 -57s12 -47.5 12 -75.5v-320h-84v65h-4c-6.66699 -12.667 -15.334 -23.834 -26.001 -33.501s-22.667 -17.667 -36 -24s-27.833 -11.166 -43.5 -14.499
s-32.5 -5 -50.5 -5c-25.333 0 -48.333 3.16699 -69 9.5s-38 15.5 -52 27.5s-24.667 26.333 -32 43s-11 35.334 -11 56.001v0zM368.002 203.993l-0.00390625 47.0068c-2.66699 -2.66699 -5.66699 -5.33398 -9 -8.00098s-7.16602 -4.83398 -11.499 -6.50098
s-9.16602 -3.16699 -14.499 -4.5s-11 -2.66602 -17 -3.99902l-92 -16c-16 -2.66699 -29.5 -6.33398 -40.5 -11.001s-20 -10.334 -27 -17.001s-12.167 -14.334 -15.5 -23.001s-5 -18.334 -5 -29.001s1.83301 -20.334 5.5 -29.001s9.33398 -16.334 17.001 -23.001
s17.334 -11.667 29.001 -15s25.167 -5 40.5 -5c19.333 0 37.5 3 54.5 9s31.833 15.167 44.5 27.5s22.667 27.5 30 45.5s11 38.667 11 62v0z" />
    <glyph glyph-name="b" unicode="b" horiz-adv-x="584" 
d="M76 0l0.00292969 732h88v-156v-35c0 -10.667 -0.166992 -23.167 -0.5 -37.5s-0.833008 -29.5 -1.5 -45.5l-2 -46h4c8 15.333 17.667 28.666 29 39.999s24.166 20.5 38.499 27.5s29.666 12.167 45.999 15.5s33.166 5 50.499 5c31.333 0 60.166 -5.66699 86.499 -17
s49.166 -27.833 68.499 -49.5s34.333 -48.167 45 -79.5s16 -66.666 16 -105.999s-5.66699 -75 -17 -107s-27.333 -59.5 -48 -82.5s-44.667 -40.5 -72 -52.5s-56.333 -18 -87 -18c-17.333 0 -33.666 1.66699 -48.999 5s-29.666 8.5 -42.999 15.5s-25.333 16 -36 27
s-20 24.5 -28 40.5h-4v-76h-84zM164.003 244c0 -28 3.66699 -53.334 11 -76.001s17.5 -41.667 30.5 -57s28.333 -27 46 -35s36.5 -12 56.5 -12s38.833 4.16699 56.5 12.5s33 20.5 46 36.5s23.167 35.5 30.5 58.5s11 48.5 11 76.5s-3.66699 53.167 -11 75.5
s-17.5 40.833 -30.5 55.5s-28.333 25.834 -46 33.501s-36.5 11.5 -56.5 11.5c-19.333 0 -37.666 -3.83301 -54.999 -11.5s-32.5 -18.834 -45.5 -33.501s-23.333 -32.667 -31 -54s-11.834 -45.666 -12.501 -72.999v-8z" />
    <glyph glyph-name="c" unicode="c" horiz-adv-x="516" 
d="M40 244c0 38 5.83301 72.835 17.5 104.502s28 58.834 49 81.501s45.667 40 74 52s58.833 18 91.5 18c30.667 0 58.5 -4.33301 83.5 -13s46.5 -20.834 64.5 -36.501s32.333 -34.334 43 -56.001s17.667 -45.167 21 -70.5h-88c-2.66699 14.667 -7 28 -13 40
s-14.167 22.5 -24.5 31.5s-22.666 16 -36.999 21s-30.833 7.5 -49.5 7.5c-20 0 -38.5 -4.33301 -55.5 -13s-31.833 -21 -44.5 -37s-22.5 -35 -29.5 -57s-10.5 -46.333 -10.5 -73s3.5 -51 10.5 -73s16.833 -41 29.5 -57s27.5 -28.333 44.5 -37s35.5 -13 55.5 -13
c18.667 0 35.167 2.5 49.5 7.5s26.666 12 36.999 21s18.5 19.5 24.5 31.5s10.333 25.333 13 40h88c-3.33301 -25.333 -10.333 -48.833 -21 -70.5s-25 -40.334 -43 -56.001s-39.5 -27.834 -64.5 -36.501s-52.833 -13 -83.5 -13c-35.333 0 -67.5 6 -96.5 18
s-53.5 29.167 -73.5 51.5s-35.333 49.333 -46 81s-16 66.834 -16 105.501v0z" />
    <glyph glyph-name="d" unicode="d" horiz-adv-x="584" 
d="M40 240c0 39.333 5.66406 75 16.9971 107s27.333 59.5 48 82.5s44.667 40.5 72 52.5s56.333 18 87 18c17.333 0 33.666 -1.66699 48.999 -5s29.666 -8.5 42.999 -15.5s25.333 -16 36 -27s20 -24.5 28 -40.5h4l-2 46c-0.666992 16 -1.16699 31.167 -1.5 45.5
s-0.5 26.833 -0.5 37.5v35v156h88v-732h-84v76h-4c-8 -15.333 -17.667 -28.666 -29 -39.999s-24.166 -20.5 -38.499 -27.5s-29.666 -12.167 -45.999 -15.5s-33.166 -5 -50.499 -5c-31.333 0 -60.166 5.66699 -86.499 17s-49.166 27.833 -68.499 49.5
s-34.333 48.167 -45 79.5s-16 66.666 -16 105.999v0zM131.997 240c0 -28 3.66699 -53.166 11 -75.499s17.5 -40.833 30.5 -55.5s28.333 -25.834 46 -33.501s36.5 -11.5 56.5 -11.5s38.833 4 56.5 12s33 19.667 46 35s23.167 34.333 30.5 57s11 48 11 76
s-3.66699 53.333 -11 76s-17.5 41.667 -30.5 57s-28.333 27 -46 35s-36.5 12 -56.5 12s-38.833 -4.16699 -56.5 -12.5s-33 -20.5 -46 -36.5s-23.167 -35.5 -30.5 -58.5s-11 -48.5 -11 -76.5v0z" />
    <glyph glyph-name="e" unicode="e" horiz-adv-x="524" 
d="M40 244c0 37.333 5.83301 71.8311 17.5 103.498s28 58.834 49 81.501s45.667 40.167 74 52.5s58.833 18.5 91.5 18.5c32 0 61.167 -5.16699 87.5 -15.5s49.166 -25.666 68.499 -45.999s34.166 -44.833 44.499 -73.5s15.5 -61 15.5 -97v-36h-356
c0.666992 -25.333 4.66699 -48.333 12 -69s17.333 -38.334 30 -53.001s27.5 -26 44.5 -34s36.167 -12 57.5 -12c17.333 0 33 2.16699 47 6.5s26 10.5 36 18.5s18 17 24 27s10.333 20.667 13 32h88c-3.33301 -22 -10.666 -42.667 -21.999 -62s-26.166 -36.333 -44.499 -51
s-39.5 -26.167 -63.5 -34.5s-50 -12.5 -78 -12.5c-37.333 0 -70.833 6 -100.5 18s-54.5 29.167 -74.5 51.5s-35.167 49.333 -45.5 81s-15.5 66.834 -15.5 105.501v0zM272 423.998c-16.667 0 -32.3301 -2.83301 -46.9971 -8.5s-27.834 -14 -39.501 -25
s-21.667 -24.333 -30 -40s-14.5 -33.167 -18.5 -52.5h261c-2 22 -6.16699 40.833 -12.5 56.5s-14.833 28.667 -25.5 39s-23.334 18 -38.001 23s-31.334 7.5 -50.001 7.5v0z" />
    <glyph glyph-name="f" unicode="f" horiz-adv-x="308" 
d="M96 0l-0.00195312 415.997h-92v72h92v80c0 26.667 3.5 50.334 10.5 71.001s17.333 37.834 31 51.501s30.834 24 51.501 31s44.334 10.5 71.001 10.5h60v-76h-52c-16 0 -29.333 -2 -40 -6s-19.167 -9.83301 -25.5 -17.5s-11 -17.167 -14 -28.5s-4.5 -24.666 -4.5 -39.999
v-76h120v-72h-120v-416h-88z" />
    <glyph glyph-name="g" unicode="g" horiz-adv-x="584" 
d="M52 -60l83.9961 0.000976562c0 -14.667 3.33301 -28 10 -40s15.834 -22.167 27.501 -30.5s25.667 -14.666 42 -18.999s33.833 -6.5 52.5 -6.5c22.667 0 43.334 3.16699 62.001 9.5s35 16.333 49 30s25 32.167 33 55.5s12 51.666 12 84.999v52h-4
c-8 -15.333 -17.667 -28.666 -29 -39.999s-24.166 -20.5 -38.499 -27.5s-29.666 -12.167 -45.999 -15.5s-33.166 -5 -50.499 -5c-31.333 0 -60.166 5.66699 -86.499 17s-49.166 27.833 -68.499 49.5s-34.333 48.167 -45 79.5s-16 66.666 -16 105.999s5.66699 75 17 107
s27.333 59.5 48 82.5s44.667 40.5 72 52.5s56.333 18 87 18c17.333 0 33.666 -1.66699 48.999 -5s29.666 -8.5 42.999 -15.5s25.333 -16 36 -27s20 -24.5 28 -40.5h4v76h84v-464c0 -44.667 -6.16699 -83.167 -18.5 -115.5s-29.5 -58.5 -51.5 -78.5s-47.333 -34.667 -76 -44
s-60 -14 -94 -14c-30.667 0 -59.167 3.66699 -85.5 11s-49.333 18.166 -69 32.499s-34.834 32 -45.501 53s-16 44.833 -16 71.5v0zM131.996 240.001c0 -28 3.66699 -53.166 11 -75.499s17.5 -40.833 30.5 -55.5s28.333 -25.834 46 -33.501s36.5 -11.5 56.5 -11.5
s38.833 4 56.5 12s33 19.667 46 35s23.167 34.333 30.5 57s11 48 11 76s-3.66699 53.333 -11 76s-17.5 41.667 -30.5 57s-28.333 27 -46 35s-36.5 12 -56.5 12s-38.833 -4.16699 -56.5 -12.5s-33 -20.5 -46 -36.5s-23.167 -35.5 -30.5 -58.5s-11 -48.5 -11 -76.5v0z" />
    <glyph glyph-name="h" unicode="h" horiz-adv-x="564" 
d="M76 0l0.00195312 732h88v-152v-35c0 -10.667 -0.166992 -23.167 -0.5 -37.5s-0.833008 -29.5 -1.5 -45.5l-2 -46h4c6.66699 14 15 26.167 25 36.5s21.5 19 34.5 26s27.167 12.333 42.5 16s32 5.5 50 5.5c25.333 0 48.666 -3.66699 69.999 -11s40.333 -19 57 -35
s29.667 -37.167 39 -63.5s14 -57.833 14 -94.5v-296h-88v284c0 25.333 -2.66699 47 -8 65s-12.833 32.5 -22.5 43.5s-21.334 19 -35.001 24s-29.167 7.5 -46.5 7.5c-18.667 0 -36 -3.83301 -52 -11.5s-30 -19 -42 -34s-21.333 -33 -28 -54s-10 -44.167 -10 -69.5v-255h-88z
" />
    <glyph glyph-name="i" unicode="i" horiz-adv-x="240" 
d="M72 632v100h96v-100h-96zM76 0v488h88v-488h-88z" />
    <glyph glyph-name="j" unicode="j" horiz-adv-x="240" 
d="M72 632v100h96v-100h-96zM76 -72v559.999h88v-576c0 -19.333 -2.5 -37 -7.5 -53s-12.833 -30 -23.5 -42s-24.667 -21.167 -42 -27.5s-38.333 -9.5 -63 -9.5h-32v76h24c10.667 0 19.5 1.5 26.5 4.5s12.667 7.5 17 13.5s7.5 13.333 9.5 22s3 19.334 3 32.001v0z" />
    <glyph glyph-name="k" unicode="k" horiz-adv-x="504" 
d="M76 0v732h88v-479l212 235h104l-181 -195l201 -293h-104l-157 229l-75 -82v-147h-88z" />
    <glyph glyph-name="l" unicode="l" horiz-adv-x="240" 
d="M76 0v732h88v-732h-88z" />
    <glyph glyph-name="m" unicode="m" horiz-adv-x="864" 
d="M76 0l0.000976562 488h84v-72h4c6.66699 14 15 26.167 25 36.5s21.333 19 34 26s26.334 12.333 41.001 16s30.667 5.5 48 5.5s33.666 -1.83301 48.999 -5.5s29.5 -9.5 42.5 -17.5s24.667 -18.333 35 -31s18.833 -27.667 25.5 -45c8 17.333 17.5 32.166 28.5 44.499
s23.167 22.5 36.5 30.5s28.166 14 44.499 18s34.5 6 54.5 6c24 0 46 -3.5 66 -10.5s37.667 -18.333 53 -34s27.333 -36.167 36 -61.5s13 -55.333 13 -90v-304h-88v292c0 24 -2 44.333 -6 61s-10.167 30.167 -18.5 40.5s-18.666 18 -30.999 23s-27.166 7.5 -44.499 7.5
s-33.833 -4 -49.5 -12s-29.334 -19.333 -41.001 -34s-20.834 -32.667 -27.501 -54s-10 -44.666 -10 -69.999v-254h-88v292c0 24 -2.16699 44.333 -6.5 61s-10.666 30.167 -18.999 40.5s-18.666 18 -30.999 23s-26.833 7.5 -43.5 7.5c-17.333 0 -33.833 -4 -49.5 -12
s-29.334 -19.5 -41.001 -34.5s-20.834 -33 -27.501 -54s-10 -44.5 -10 -70.5v-253h-88z" />
    <glyph glyph-name="n" unicode="n" horiz-adv-x="564" 
d="M76 0l0.00195312 488h84v-72h4c6.66699 14 15 26.167 25 36.5s21.5 19 34.5 26s27.167 12.333 42.5 16s32 5.5 50 5.5c25.333 0 48.666 -3.66699 69.999 -11s40.333 -19 57 -35s29.667 -37.167 39 -63.5s14 -57.833 14 -94.5v-296h-88v284c0 25.333 -2.66699 47 -8 65
s-12.833 32.5 -22.5 43.5s-21.334 19 -35.001 24s-29.167 7.5 -46.5 7.5c-18.667 0 -36 -4 -52 -12s-30 -19.333 -42 -34s-21.333 -32.667 -28 -54s-10 -45 -10 -71v-253h-88z" />
    <glyph glyph-name="o" unicode="o" horiz-adv-x="560" 
d="M40 244c0 38.667 5.83301 73.834 17.5 105.501s28.334 58.667 50.001 81s47.167 39.5 76.5 51.5s61.333 18 96 18c36.667 0 69.834 -6 99.501 -18s55 -29.167 76 -51.5s37 -49.333 48 -81s16.5 -66.834 16.5 -105.501s-5.83301 -73.834 -17.5 -105.501
s-28.334 -58.667 -50.001 -81s-47.167 -39.5 -76.5 -51.5s-61.333 -18 -96 -18c-36.667 0 -69.834 6 -99.501 18s-55 29.167 -76 51.5s-37 49.333 -48 81s-16.5 66.834 -16.5 105.501v0zM132 244c0 -26.667 3.5 -51.165 10.5 -73.498s17.167 -41.333 30.5 -57
s29 -27.834 47 -36.501s38 -13 60 -13s42 4.33301 60 13s33.667 20.834 47 36.501s23.5 34.667 30.5 57s10.5 46.833 10.5 73.5c0 27.333 -3.5 52.166 -10.5 74.499s-17.167 41.333 -30.5 57s-29 27.667 -47 36s-38 12.5 -60 12.5s-42 -4.33301 -60 -13
s-33.667 -20.834 -47 -36.501s-23.5 -34.667 -30.5 -57s-10.5 -46.833 -10.5 -73.5v0z" />
    <glyph glyph-name="p" unicode="p" horiz-adv-x="584" 
d="M164 -88l0.00292969 -132h-88v708h84v-76h4c8 15.333 17.667 28.666 29 39.999s24.166 20.5 38.499 27.5s29.666 12.167 45.999 15.5s33.166 5 50.499 5c31.333 0 60.166 -5.66699 86.499 -17s49.166 -27.833 68.499 -49.5s34.333 -48.167 45 -79.5
s16 -66.666 16 -105.999s-5.66699 -75 -17 -107s-27.333 -59.5 -48 -82.5s-44.667 -40.5 -72 -52.5s-56.333 -18 -87 -18c-17.333 0 -33.666 1.66699 -48.999 5s-29.666 8.5 -42.999 15.5s-25.333 16 -36 27s-20 24.5 -28 40.5h-4l2 -46
c0.666992 -16 1.16699 -31.167 1.5 -45.5s0.5 -26.833 0.5 -37.5v-35v0zM452.003 248c0 28 -3.66699 53.166 -11 75.499s-17.5 40.833 -30.5 55.5s-28.333 25.834 -46 33.501s-36.5 11.5 -56.5 11.5c-19.333 0 -37.666 -3.83301 -54.999 -11.5s-32.5 -18.834 -45.5 -33.501
s-23.333 -32.667 -31 -54s-11.834 -45.666 -12.501 -72.999v-8c0 -28 3.66699 -53.333 11 -76s17.5 -41.667 30.5 -57s28.333 -27 46 -35s36.5 -12 56.5 -12s38.833 4.16699 56.5 12.5s33 20.5 46 36.5s23.167 35.5 30.5 58.5s11 48.5 11 76.5v0z" />
    <glyph glyph-name="q" unicode="q" horiz-adv-x="580" 
d="M420 -88l-0.00292969 35c0 10.667 0.166992 23.167 0.5 37.5s0.833008 29.5 1.5 45.5l2 46h-4c-8 -15.333 -17.667 -28.666 -29 -39.999s-24.166 -20.5 -38.499 -27.5s-29.666 -12.167 -45.999 -15.5s-33.166 -5 -50.499 -5c-31.333 0 -60.166 5.66699 -86.499 17
s-49.166 27.833 -68.499 49.5s-34.333 48.167 -45 79.5s-16 66.666 -16 105.999s5.66699 75 17 107s27.333 59.5 48 82.5s44.667 40.5 72 52.5s56.333 18 87 18c17.333 0 33.666 -1.66699 48.999 -5s29.666 -8.5 42.999 -15.5s25.333 -16 36 -27s20 -24.5 28 -40.5h4v76h84
v-708h-88v132zM131.997 240c0 -28 3.66699 -53.167 11 -75.5s17.5 -40.833 30.5 -55.5s28.333 -25.834 46 -33.501s36.5 -11.5 56.5 -11.5c19.333 0 37.666 3.83301 54.999 11.5s32.5 18.834 45.5 33.501s23.333 32.667 31 54s11.834 45.333 12.501 72v17
c-0.666992 27.333 -4.83398 51.666 -12.501 72.999s-18 39.333 -31 54s-28.167 25.834 -45.5 33.501s-35.666 11.5 -54.999 11.5c-20 0 -38.833 -4.16699 -56.5 -12.5s-33 -20.5 -46 -36.5s-23.167 -35.5 -30.5 -58.5s-11 -48.5 -11 -76.5v0z" />
    <glyph glyph-name="r" unicode="r" horiz-adv-x="360" 
d="M76 0l-0.00195312 488.002h84v-71h3c6 13.333 13.167 25 21.5 35s18 18.667 29 26s23 12.833 36 16.5s27.167 5.5 42.5 5.5c5.33301 0 10.666 -0.333008 15.999 -1s10.833 -1.66699 16.5 -3s11.5 -3.33301 17.5 -6s12 -6 18 -10l-28 -80
c-5.33301 2.66699 -10.666 5 -15.999 7s-10.333 3.66699 -15 5s-9.5 2.33301 -14.5 3s-9.83301 1 -14.5 1c-18 0 -33.667 -4.33301 -47 -13s-24.666 -20.334 -33.999 -35.001s-16.166 -31.834 -20.499 -51.501s-6.5 -40.167 -6.5 -61.5v-255h-88z" />
    <glyph glyph-name="s" unicode="s" horiz-adv-x="492" 
d="M40 140l83.9941 -0.00195312c0 -14 3.16699 -26.333 9.5 -37s15.166 -19.5 26.499 -26.5s23.833 -12.167 37.5 -15.5s27.834 -5 42.501 -5c20 0 37.5 1.83301 52.5 5.5s27.5 8.83398 37.5 15.501s17.5 15 22.5 25s7.5 21.333 7.5 34c0 9.33301 -1.66699 17.5 -5 24.5
s-8.16602 13 -14.499 18s-14.166 9.33301 -23.499 13s-20.333 6.5 -33 8.5l-92 16c-18.667 3.33301 -36.167 7.66602 -52.5 12.999s-31.333 13 -45 23s-24.5 22.833 -32.5 38.5s-12 34.834 -12 57.501c0 23.333 5 44.5 15 63.5s23.833 35 41.5 48s38.167 23 61.5 30
s48.666 10.5 75.999 10.5c26.667 0 51.5 -2.83301 74.5 -8.5s43.333 -14.667 61 -27s31.5 -27.833 41.5 -46.5s15 -40.667 15 -66h-84c0 12.667 -2.5 24 -7.5 34s-12.333 18.5 -22 25.5s-21.167 12.167 -34.5 15.5s-28 5 -44 5c-15.333 0 -29.5 -1.66699 -42.5 -5
s-24.5 -8.16602 -34.5 -14.499s-17.667 -14.333 -23 -24s-8 -20.5 -8 -32.5c0 -9.33301 1.66699 -17.333 5 -24s8.33301 -12.667 15 -18s15.334 -9.83301 26.001 -13.5s23.334 -6.83398 38.001 -9.50098l92 -16c20 -3.33301 38 -8 54 -14s30.167 -14 42.5 -24
s22 -22.667 29 -38s10.5 -33.666 10.5 -54.999c0 -25.333 -5 -47.833 -15 -67.5s-24.167 -36 -42.5 -49s-40.166 -22.833 -65.499 -29.5s-53.666 -10 -84.999 -10c-29.333 0 -56.166 3.16699 -80.499 9.5s-45.5 16 -63.5 29s-31.833 29 -41.5 48s-14.5 40.833 -14.5 65.5v0z
" />
    <glyph glyph-name="t" unicode="t" horiz-adv-x="328" 
d="M88 144v272.001h-92v72h92v148h88v-148h128v-72h-128v-268c0 -13.333 1.33301 -24.5 4 -33.5s6.66699 -16.333 12 -22s12.333 -9.83398 21 -12.501s19 -4 31 -4h60v-76h-72c-24 0 -45 3 -63 9s-33 15 -45 27s-21 27 -27 45s-9 39 -9 63v0z" />
    <glyph glyph-name="u" unicode="u" horiz-adv-x="560" 
d="M68 192l-0.00585938 296.002h88v-284c0 -25.333 2.66699 -47 8 -65s12.833 -32.5 22.5 -43.5s21.334 -19 35.001 -24s29.167 -7.5 46.5 -7.5c18.667 0 35.834 4 51.501 12s29.334 19.667 41.001 35s20.5 33.666 26.5 54.999s9 44.666 9 69.999v252h88v-488h-84v72h-4
c-7.33301 -14 -15.666 -26.333 -24.999 -37s-20.166 -19.5 -32.499 -26.5s-26 -12.167 -41 -15.5s-31.5 -5 -49.5 -5c-25.333 0 -48.666 3.66699 -69.999 11s-40.333 19 -57 35s-29.667 37.167 -39 63.5s-14 57.833 -14 94.5v0z" />
    <glyph glyph-name="v" unicode="v" horiz-adv-x="468" 
d="M188 0l-184 488h96l136 -392h4l136 392h88l-180 -488h-96z" />
    <glyph glyph-name="w" unicode="w" horiz-adv-x="724" 
d="M144 0l-140 488h92l100 -396h4l112 396h104l112 -396h4l100 396h88l-140 -488h-108l-108 400h-4l-108 -400h-108z" />
    <glyph glyph-name="x" unicode="x" horiz-adv-x="464" 
d="M12 0l172 246l-168 242h104l117 -175l115 175h96l-169 -241l173 -247h-104l-121 181l-119 -181h-96z" />
    <glyph glyph-name="y" unicode="y" horiz-adv-x="468" 
d="M33 -152l31.999 0.00195312c14 0 27 2.16699 39 6.5s23 10.666 33 18.999s19 18.666 27 30.999s15 26.833 21 43.5l11 31l-192 509h96l136 -392h4l136 392h88l-207 -564c-7.33301 -20 -16 -38.833 -26 -56.5s-22 -33.667 -36 -48s-30.667 -25.833 -50 -34.5
s-40.666 -13 -63.999 -13h-48v76z" />
    <glyph glyph-name="z" unicode="z" horiz-adv-x="444" 
d="M32 416v72h376v-60l-259 -356h263v-72h-376v52l264 364h-268z" />
    <glyph glyph-name="braceleft" unicode="{" horiz-adv-x="356" 
d="M132 -76v175.996c0 26 -1.66699 47.167 -5 63.5s-9 29.5 -17 39.5s-19.167 17.333 -33.5 22s-33.166 7 -56.499 7v60c23.333 0 42.166 2.33301 56.499 7s25.5 12 33.5 22s13.667 23.167 17 39.5s5 37.5 5 63.5v168c0 24.667 2.66699 46.334 8 65.001
s13.833 34.5 25.5 47.5s27.667 22.833 48 29.5s45.166 10 74.499 10h52v-68h-48c-15.333 0 -28.166 -1.5 -38.499 -4.5s-18.5 -7.66699 -24.5 -14s-10.333 -14.5 -13 -24.5s-4 -22.333 -4 -37v-196c0 -18.667 -1.83301 -35.167 -5.5 -49.5s-9.33398 -27.166 -17.001 -38.499
s-17.834 -21 -30.501 -29s-28.334 -14.333 -47.001 -19v-4c18.667 -4.66699 34.334 -11 47.001 -19s22.834 -17.667 30.501 -29s13.334 -24.166 17.001 -38.499s5.5 -30.833 5.5 -49.5v-204c0 -14.667 1.33301 -27 4 -37s7 -18.167 13 -24.5s14.167 -11 24.5 -14
s23.166 -4.5 38.499 -4.5h48v-68h-52c-29.333 0 -54.166 3.33301 -74.499 10s-36.333 16.5 -48 29.5s-20.167 28.833 -25.5 47.5s-8 40.334 -8 65.001v0z" />
    <glyph glyph-name="bar" unicode="|" horiz-adv-x="256" 
d="M88 -240v1000h80v-1000h-80z" />
    <glyph glyph-name="braceright" unicode="}" horiz-adv-x="356" 
d="M16 -160l48 0.00390625c15.333 0 28.166 1.5 38.499 4.5s18.5 7.66699 24.5 14s10.333 14.5 13 24.5s4 22.333 4 37v204c0 18.667 1.83301 35.167 5.5 49.5s9.33398 27.166 17.001 38.499s17.834 21 30.501 29s28.334 14.333 47.001 19v4
c-18.667 4.66699 -34.334 11 -47.001 19s-22.834 17.667 -30.501 29s-13.334 24.166 -17.001 38.499s-5.5 30.833 -5.5 49.5v196c0 14.667 -1.33301 27 -4 37s-7 18.167 -13 24.5s-14.167 11 -24.5 14s-23.166 4.5 -38.499 4.5h-48v68h52
c29.333 0 54.166 -3.33301 74.499 -10s36.333 -16.5 48 -29.5s20.167 -28.833 25.5 -47.5s8 -40.334 8 -65.001v-168c0 -26 1.66699 -47.167 5 -63.5s9 -29.5 17 -39.5s19.167 -17.333 33.5 -22s33.166 -7 56.499 -7v-60c-23.333 0 -42.166 -2.33301 -56.499 -7
s-25.5 -12 -33.5 -22s-13.667 -23.167 -17 -39.5s-5 -37.5 -5 -63.5v-176c0 -24.667 -2.66699 -46.334 -8 -65.001s-13.833 -34.5 -25.5 -47.5s-27.667 -22.833 -48 -29.5s-45.166 -10 -74.499 -10h-52v68z" />
    <glyph glyph-name="asciitilde" unicode="~" 
d="M56 184c0 25.333 3.33105 47.6689 9.99805 67.002s15.834 35.166 27.501 47.499s25.334 21.666 41.001 27.999s32.167 9.5 49.5 9.5c20.667 0 39.5 -3.33301 56.5 -10s36.333 -16.5 58 -29.5s38 -22.333 49 -28s23.167 -8.5 36.5 -8.5c8 0 15.167 1.33301 21.5 4
s11.833 7 16.5 13s8.16699 13.833 10.5 23.5s3.5 21.5 3.5 35.5h76c0 -25.333 -3.33301 -47.5 -10 -66.5s-15.667 -34.833 -27 -47.5s-24.5 -22.167 -39.5 -28.5s-30.833 -9.5 -47.5 -9.5c-20.667 0 -39.834 3.5 -57.501 10.5s-37.667 17.5 -60 31.5
s-39.166 23.833 -50.499 29.5s-23.333 8.5 -36 8.5c-8 0 -15.167 -1.5 -21.5 -4.5s-11.833 -7.83301 -16.5 -14.5s-8.16699 -15 -10.5 -25s-3.5 -22 -3.5 -36h-76z" />
    <glyph glyph-name="uni00A0" unicode="&#xa0;" horiz-adv-x="220" 
 />
    <glyph glyph-name="exclamdown" unicode="&#xa1;" horiz-adv-x="280" 
d="M88 380v108h104v-108h-104zM88 -8l28 304h48l28 -304v-192h-104v192z" />
    <glyph glyph-name="cent" unicode="&#xa2;" 
d="M252 -12l-0.000976562 106.998c-30 4.66699 -57.167 13.834 -81.5 27.501s-45 31.5 -62 53.5s-30 47.5 -39 76.5s-13.5 60.833 -13.5 95.5c0 34 5 65.667 15 95s24.167 55 42.5 77s39.666 39.833 63.999 53.5s50.5 22.834 78.5 27.501v99h88v-100
c24.667 -4 47 -11.167 67 -21.5s37.333 -23 52 -38s26.334 -32 35.001 -51s14.667 -39.5 18 -61.5h-88c-2.66699 14 -7.33398 27.167 -14.001 39.5s-15.5 23 -26.5 32s-24.167 16 -39.5 21s-32.666 7.5 -51.999 7.5c-20.667 0 -40 -4.33301 -58 -13s-33.833 -21 -47.5 -37
s-24.167 -35 -31.5 -57s-11 -46.333 -11 -73s3.66699 -51 11 -73s17.833 -41 31.5 -57s29.5 -28.333 47.5 -37s37.333 -13 58 -13c19.333 0 36.666 2.5 51.999 7.5s28.5 12 39.5 21s19.833 19.667 26.5 32s11.334 25.5 14.001 39.5h88
c-3.33301 -22.667 -9.5 -43.667 -18.5 -63s-21 -36.5 -36 -51.5s-32.667 -27.5 -53 -37.5s-43.166 -17 -68.499 -21v-107h-88z" />
    <glyph glyph-name="sterling" unicode="&#xa3;" 
d="M60 326l0.000976562 62.0078h87c-4 12.667 -7.5 24.334 -10.5 35.001s-5.83301 21.667 -8.5 33s-4.66699 22.666 -6 33.999s-2 22.666 -2 33.999c0 26.667 4.33301 50.834 13 72.501s21.167 40.167 37.5 55.5s35.833 27.166 58.5 35.499s47.667 12.5 75 12.5
c26.667 0 50.834 -3.83301 72.501 -11.5s40 -19 55 -34s27 -33.333 36 -55s14.5 -46.834 16.5 -75.501h-88c-2 18 -5.33301 33.5 -10 46.5s-10.834 23.833 -18.501 32.5s-17.167 15 -28.5 19s-24.333 6 -39 6c-12.667 0 -24.5 -2.16699 -35.5 -6.5
s-20.833 -10.666 -29.5 -18.999s-15.334 -18.5 -20.001 -30.5s-7 -25.333 -7 -40c0 -12 0.833008 -23.833 2.5 -35.5s4 -23.334 7 -35.001s6.33301 -23.167 10 -34.5s8.16699 -24.333 13.5 -39h159v-62h-138c2 -8 3.83301 -15.667 5.5 -23s3.16699 -14.666 4.5 -21.999
s2.33301 -14.833 3 -22.5s1 -15.167 1 -22.5c0 -9.33301 -0.333008 -18.5 -1 -27.5s-1.5 -17.833 -2.5 -26.5s-2.5 -17.334 -4.5 -26.001l-6 -25l48.5 -33c5 -3.33301 13.167 -8 24.5 -14s22.833 -10.833 34.5 -14.5s23.167 -5.5 34.5 -5.5c10.667 0 20 1.83301 28 5.5
s14.833 9.5 20.5 17.5s10.167 18.333 13.5 31s5.33301 28 6 46h76c-1.33301 -23.333 -4.83301 -45.166 -10.5 -65.499s-14 -38.833 -25 -55.5s-25.833 -30 -44.5 -40s-41.334 -15 -68.001 -15c-14 0 -28.167 2.16699 -42.5 6.5s-28.166 10.166 -41.499 17.499
s-25.833 15.166 -37.5 23.499l-42.5 31.5c-6.66699 -12 -14.5 -22.833 -23.5 -32.5s-18.833 -18 -29.5 -25s-22.334 -12.333 -35.001 -16s-26 -5.5 -40 -5.5c-16 0 -30.5 2.33301 -43.5 7s-24 11.167 -33 19.5s-15.833 18.166 -20.5 29.499s-7 23.333 -7 36
c0 17.333 2.83301 32.666 8.5 45.999s13.834 24.666 24.501 33.999s23 16.333 37 21s29.333 7 46 7c6 0 12 -0.333008 18 -1s11.833 -1.83398 17.5 -3.50098l17 -5c5.66699 -1.66699 11.5 -3.83398 17.5 -6.50098c0.666992 4 1 7.16699 1 9.5s0.166992 4.83301 0.5 7.5
s0.5 5.16699 0.5 7.5v7.5c0 10 -0.666992 20 -2 30s-3 20.167 -5 30.5s-4.5 20.333 -7.5 30l-9.5 31.5h-108zM110.001 40.0078c8.66699 0 16.5 1.66992 23.5 5.00293s13.333 8.16602 19 14.499s10.5 13.5 14.5 21.5s7.66699 17 11 27l-17 9.5
c-5.33301 3 -10.833 5.66699 -16.5 8s-11.167 4 -16.5 5s-10.666 1.5 -15.999 1.5c-6.66699 0 -12.834 -1.16699 -18.501 -3.5s-10.667 -5.5 -15 -9.5s-7.83301 -8.83301 -10.5 -14.5s-4 -11.834 -4 -18.501s1 -12.834 3 -18.501s5 -10.5 9 -14.5
s8.83301 -7.16699 14.5 -9.5s12.167 -3.5 19.5 -3.5v0z" />
    <glyph glyph-name="currency" unicode="&#xa4;" 
d="M132 148l-43.998 44l58 59c-4.66699 6.66699 -8.66699 13.667 -12 21s-6.5 14.833 -9.5 22.5s-5.16699 15.667 -6.5 24s-2 16.833 -2 25.5s0.833008 17.334 2.5 26.001s3.83398 17 6.50098 25s6 15.667 10 23s8.33301 14.333 13 21l-60 61l44 44l60 -62
c6.66699 4 13.5 7.66699 20.5 11s14.333 6.16602 22 8.49902s15.667 4 24 5s16.833 1.5 25.5 1.5s17 -0.5 25 -1.5s15.833 -2.66699 23.5 -5s15 -5.16602 22 -8.49902s13.833 -7 20.5 -11l61 62l44 -44l-60 -61c4.66699 -6.66699 9 -13.667 13 -21s7.33301 -15 10 -23
s4.83398 -16.333 6.50098 -25s2.5 -17.334 2.5 -26.001s-0.833008 -17.167 -2.5 -25.5s-3.83398 -16.333 -6.50098 -24s-5.83398 -15.167 -9.50098 -22.5s-7.83398 -14.333 -12.501 -21l59 -59l-44 -44l-58 59c-6.66699 -4.66699 -13.667 -8.66699 -21 -12
s-14.833 -6.16602 -22.5 -8.49902s-15.834 -4 -24.501 -5s-17.334 -1.5 -26.001 -1.5c-9.33301 0 -18.166 0.5 -26.499 1.5s-16.5 2.66699 -24.5 5s-15.5 5.16602 -22.5 8.49902s-13.833 7.33301 -20.5 12zM284.002 244c13.333 0 25.833 2.33301 37.5 7
s21.834 11.334 30.501 20.001s15.5 19.334 20.5 32.001s7.5 26.334 7.5 41.001s-2.5 28.334 -7.5 41.001s-11.833 23.334 -20.5 32.001s-18.834 15.334 -30.501 20.001s-24.167 7 -37.5 7s-25.833 -2.33301 -37.5 -7s-21.834 -11.334 -30.501 -20.001
s-15.5 -19.334 -20.5 -32.001s-7.5 -26.334 -7.5 -41.001s2.5 -28.334 7.5 -41.001s11.833 -23.334 20.5 -32.001s18.834 -15.334 30.501 -20.001s24.167 -7 37.5 -7v0z" />
    <glyph glyph-name="yen" unicode="&#xa5;" 
d="M88 248v56h152v6l-224 378h100l170 -296h4l170 296h92l-224 -381v-3h152v-56h-152v-76h152v-56h-152v-116h-88v116h-152v56h152v76h-152z" />
    <glyph glyph-name="brokenbar" unicode="&#xa6;" horiz-adv-x="256" 
d="M88 336v352h80v-352h-80zM88 -164v352h80v-352h-80z" />
    <glyph glyph-name="section" unicode="&#xa7;" horiz-adv-x="572" 
d="M68 -68l84 -0.000976562c1.33301 -16 5.33301 -29.833 12 -41.5s15.667 -21.167 27 -28.5s24.5 -12.833 39.5 -16.5s31.5 -5.5 49.5 -5.5c20 0 37.667 2.16699 53 6.5s28.333 10.666 39 18.999s18.667 18.5 24 30.5s8 25.333 8 40c0 12.667 -2.16699 23.834 -6.5 33.501
s-10.5 17.834 -18.5 24.501s-17.667 12.667 -29 18s-25.333 10.666 -42 15.999l-92 28c-27.333 8 -50.833 17.5 -70.5 28.5s-35.834 23.667 -48.501 38s-22 30.5 -28 48.5s-9 38.333 -9 61c0 17.333 2.66699 34 8 50s13.166 30.667 23.499 44s22.666 25.166 36.999 35.499
s30.5 18.833 48.5 25.5c-15.333 6.66699 -28.833 14.334 -40.5 23.001s-21.667 18.5 -30 29.5s-14.833 23.833 -19.5 38.5s-7 31.334 -7 50.001c0 26.667 5.16699 50.667 15.5 72s25 39.5 44 54.5s41.5 26.333 67.5 34s54.333 11.5 85 11.5s58.5 -3.16699 83.5 -9.5
s46.667 -16 65 -29s33 -29.667 44 -50s17.5 -44.166 19.5 -71.499h-84c-1.33301 16 -5.33301 29.833 -12 41.5s-15.667 21.167 -27 28.5s-24.5 12.833 -39.5 16.5s-31.5 5.5 -49.5 5.5c-20 0 -37.667 -2.16699 -53 -6.5s-28.333 -10.666 -39 -18.999
s-18.667 -18.5 -24 -30.5s-8 -25.333 -8 -40c0 -12.667 2.16699 -23.834 6.5 -33.501s10.5 -17.834 18.5 -24.501s17.667 -12.667 29 -18s25.333 -10.666 42 -15.999l92 -28c27.333 -8 50.833 -17.5 70.5 -28.5s35.834 -23.667 48.501 -38s22 -30.5 28 -48.5
s9 -38.333 9 -61c0 -18 -2.66699 -34.833 -8 -50.5s-13.166 -30.167 -23.499 -43.5s-22.666 -25.166 -36.999 -35.499s-30.5 -18.833 -48.5 -25.5c14.667 -6.66699 28 -14.334 40 -23.001s22.167 -18.667 30.5 -30s14.833 -24.333 19.5 -39s7 -31 7 -49
c0 -26.667 -5.16699 -50.667 -15.5 -72s-25 -39.5 -44 -54.5s-41.5 -26.333 -67.5 -34s-54.333 -11.5 -85 -11.5s-58.5 3.16699 -83.5 9.5s-46.667 16 -65 29s-33 29.667 -44 50s-17.5 44.166 -19.5 71.499v0zM320 339.999l-65 19c-18 -4.66699 -34 -10.834 -48 -18.501
s-25.667 -16.667 -35 -27s-16.333 -21.333 -21 -33s-7 -23.834 -7 -36.501c0 -16.667 2.33301 -30.834 7 -42.501s11.334 -21.667 20.001 -30s19.5 -15.666 32.5 -21.999s29.167 -12.166 48.5 -17.499l57 -18c19.333 4 36.5 9.83301 51.5 17.5s27.5 16.5 37.5 26.5
s17.5 20.833 22.5 32.5s7.5 24.167 7.5 37.5c0 16.667 -2.33301 30.834 -7 42.501s-11.334 21.667 -20.001 30s-19.5 15.5 -32.5 21.5s-29.167 12 -48.5 18v0z" />
    <glyph glyph-name="dieresis" unicode="&#xa8;" horiz-adv-x="560" 
d="M336 604v92h88v-92h-88zM136 604v92h88v-92h-88z" />
    <glyph glyph-name="copyright" unicode="&#xa9;" horiz-adv-x="776" 
d="M36 348c0 49.333 8.66699 95.666 26 138.999s42 80.833 74 112.5s69.5 56.334 112.5 74.001s89.5 26.5 139.5 26.5c49.333 0 95.5 -8.83301 138.5 -26.5s80.5 -42.5 112.5 -74.5s56.833 -69.5 74.5 -112.5s26.5 -89.167 26.5 -138.5s-8.66699 -96 -26 -140
s-42 -82.5 -74 -115.5s-69.5 -58.667 -112.5 -77s-89.5 -27.5 -139.5 -27.5s-96.5 9.16699 -139.5 27.5s-80.5 44 -112.5 77s-56.667 71.5 -74 115.5s-26 90.667 -26 140v0zM108 348c0 -40.667 6.83496 -79.167 20.502 -115.5s33 -68.333 58 -96s54.667 -49.334 89 -65.001
s71.833 -23.5 112.5 -23.5c39.333 0 76.166 7.83301 110.499 23.5s64.166 37.334 89.499 65.001s45 59.667 59 96s21 74.833 21 115.5s-6.83301 78.5 -20.5 113.5s-33 65.667 -58 92s-54.667 46.666 -89 60.999s-71.833 21.5 -112.5 21.5s-78.167 -7.16699 -112.5 -21.5
s-64 -34.666 -89 -60.999s-44.333 -57 -58 -92s-20.5 -72.833 -20.5 -113.5v0zM216.002 348c0 24 4 46.6611 12 67.9941s19.5 40.166 34.5 56.499s33.167 29 54.5 38s45 13.5 71 13.5c20.667 0 39.5 -2.66699 56.5 -8s31.833 -13.166 44.5 -23.499
s23.167 -22.666 31.5 -36.999s14.166 -30.166 17.499 -47.499h-70c-2.66699 8.66699 -6.16699 16.5 -10.5 23.5s-9.66602 12.833 -15.999 17.5s-14 8.33398 -23 11.001s-19.167 4 -30.5 4c-14.667 0 -28.167 -3 -40.5 -9s-23 -14.333 -32 -25s-15.833 -23 -20.5 -37
s-7 -29 -7 -45s2.33301 -31 7 -45s11.5 -26.333 20.5 -37s19.667 -19 32 -25s25.833 -9 40.5 -9c11.333 0 21.5 1.33301 30.5 4s16.667 6.33398 23 11.001s11.666 10.5 15.999 17.5s7.83301 14.833 10.5 23.5h70c-3.33301 -17.333 -9.16602 -33.166 -17.499 -47.499
s-18.833 -26.666 -31.5 -36.999s-27.5 -18.166 -44.5 -23.499s-35.833 -8 -56.5 -8c-26 0 -49.667 4.5 -71 13.5s-39.5 21.667 -54.5 38s-26.5 35.166 -34.5 56.499s-12 44 -12 68v0z" />
    <glyph glyph-name="ordfeminine" unicode="&#xaa;" horiz-adv-x="386" 
d="M151 336c-18 0 -34.1641 2.33105 -48.4971 6.99805s-26.5 11.334 -36.5 20.001s-17.5 19 -22.5 31s-7.5 25.333 -7.5 40c0 14 2.33301 26.833 7 38.5s11.667 22 21 31s21.166 16.5 35.499 22.5s31.5 10.333 51.5 13l65 8c8.66699 1.33301 15.667 2.5 21 3.5
s9.66602 2.66699 12.999 5s5.83301 5 7.5 8s2.5 7.16699 2.5 12.5c0 8.66699 -1.33301 16.667 -4 24s-6.66699 13.833 -12 19.5s-12.166 10.167 -20.499 13.5s-17.833 5 -28.5 5c-9.33301 0 -18 -1.16699 -26 -3.5s-15 -6 -21 -11s-10.833 -11.333 -14.5 -19
s-5.83398 -16.5 -6.50098 -26.5h-75c1.33301 20.667 5.83301 38.5 13.5 53.5s18.167 27.333 31.5 37s28.166 16.834 44.499 21.501s34.166 7 53.499 7c22.667 0 43 -2.5 61 -7.5s33.167 -12.833 45.5 -23.5s21.833 -23.667 28.5 -39s10 -33.333 10 -54v-229h-77v42h-3
c-4.66699 -8 -10.667 -15.167 -18 -21.5s-15.666 -11.5 -24.999 -15.5s-19.5 -7.16699 -30.5 -9.5s-22.833 -3.5 -35.5 -3.5v0zM173.003 391.998c12 0 23.165 1.83496 33.498 5.50195s19.5 9.16699 27.5 16.5s14.333 16.666 19 27.999s7 24.666 7 39.999v31
c-1.33301 -2 -3.16602 -4 -5.49902 -6s-5 -3.66699 -8 -5s-6.16699 -2.33301 -9.5 -3s-7 -1.33398 -11 -2.00098l-56 -7c-9.33301 -1.33301 -17.5 -3.5 -24.5 -6.5s-12.667 -6.66699 -17 -11s-7.5 -9.16602 -9.5 -14.499s-3 -11.333 -3 -18c0 -7.33301 1.33301 -14 4 -20
s6.33398 -11 11.001 -15s10.667 -7.16699 18 -9.5s15.333 -3.5 24 -3.5v0z" />
    <glyph glyph-name="guillemotleft" unicode="&#xab;" horiz-adv-x="512" 
d="M244 252l144 204h72l-116 -204l116 -204h-72zM196 48l-144 204l144 204h72l-116 -204l116 -204h-72z" />
    <glyph glyph-name="logicalnot" unicode="&#xac;" 
d="M56 216v76h456v-264h-80v188h-376z" />
    <glyph glyph-name="uni00AD" unicode="&#xad;" horiz-adv-x="396" 
d="M60 212v80h276v-80h-276z" />
    <glyph glyph-name="registered" unicode="&#xae;" horiz-adv-x="776" 
d="M36 348c0 49.333 8.66699 95.666 26 138.999s42 80.833 74 112.5s69.5 56.334 112.5 74.001s89.5 26.5 139.5 26.5c49.333 0 95.5 -8.83301 138.5 -26.5s80.5 -42.5 112.5 -74.5s56.833 -69.5 74.5 -112.5s26.5 -89.167 26.5 -138.5s-8.66699 -96 -26 -140
s-42 -82.5 -74 -115.5s-69.5 -58.667 -112.5 -77s-89.5 -27.5 -139.5 -27.5s-96.5 9.16699 -139.5 27.5s-80.5 44 -112.5 77s-56.667 71.5 -74 115.5s-26 90.667 -26 140v0zM108 348c0 -40.667 6.83496 -79.167 20.502 -115.5s33 -68.333 58 -96s54.667 -49.334 89 -65.001
s71.833 -23.5 112.5 -23.5c39.333 0 76.166 7.83301 110.499 23.5s64.166 37.334 89.499 65.001s45 59.667 59 96s21 74.833 21 115.5s-6.83301 78.5 -20.5 113.5s-33 65.667 -58 92s-54.667 46.666 -89 60.999s-71.833 21.5 -112.5 21.5s-78.167 -7.16699 -112.5 -21.5
s-64 -34.666 -89 -60.999s-44.333 -57 -58 -92s-20.5 -72.833 -20.5 -113.5v0zM248.002 176v343.999h158c21.333 0 40 -2.5 56 -7.5s29.5 -12.167 40.5 -21.5s19.333 -20.666 25 -33.999s8.5 -28.333 8.5 -45c0 -11.333 -1.83301 -22.333 -5.5 -33
s-8.83398 -20.5 -15.501 -29.5s-14.667 -17 -24 -24s-19.666 -12.5 -30.999 -16.5l88 -133h-78l-77 124h-73v-124h-72zM404.002 459.999h-84v-100h84c10 0 18.667 1.16699 26 3.5s13.5 5.83301 18.5 10.5s8.83301 10.167 11.5 16.5s4 13.5 4 21.5s-1.33301 15 -4 21
s-6.5 11 -11.5 15s-11.167 7 -18.5 9s-16 3 -26 3v0z" />
    <glyph glyph-name="macron" unicode="&#xaf;" horiz-adv-x="560" 
d="M140 616v68h276v-68h-276z" />
    <glyph glyph-name="degree" unicode="&#xb0;" horiz-adv-x="360" 
d="M180 428c-19.333 0 -37.666 3.33301 -54.999 10s-32.333 16 -45 28s-22.5 26.333 -29.5 43s-10.5 35 -10.5 55s3.5 38.333 10.5 55s16.833 31 29.5 43s27.667 21.333 45 28s35.666 10 54.999 10s37.666 -3.33301 54.999 -10s32.333 -16 45 -28s22.5 -26.333 29.5 -43
s10.5 -35 10.5 -55s-3.5 -38.333 -10.5 -55s-16.833 -31 -29.5 -43s-27.667 -21.333 -45 -28s-35.666 -10 -54.999 -10v0zM180 636c-9.33301 0 -18.166 -1.66699 -26.499 -5s-15.666 -8.33301 -21.999 -15s-11.166 -14.334 -14.499 -23.001s-5 -18.334 -5 -29.001
s1.66699 -20.334 5 -29.001s8.16602 -16.334 14.499 -23.001s13.666 -11.667 21.999 -15s17.166 -5 26.499 -5s18.166 1.66699 26.499 5s15.666 8.33301 21.999 15s11.166 14.334 14.499 23.001s5 18.334 5 29.001s-1.66699 20.334 -5 29.001
s-8.16602 16.334 -14.499 23.001s-13.666 11.667 -21.999 15s-17.166 5 -26.499 5v0z" />
    <glyph glyph-name="plusminus" unicode="&#xb1;" 
d="M56 316v76h188v174h80v-174h188v-76h-188v-174h-80v174h-188zM56 0v76h456v-76h-456z" />
    <glyph glyph-name="twosuperior" unicode="&#xb2;" horiz-adv-x="352" 
d="M32 496c0 24.667 3.16504 46.334 9.49805 65.001s14.833 34.334 25.5 47.001s22.167 23.334 34.5 32.001s26.5 17 42.5 25l24 12l27.5 15c8.33301 4.66699 15.5 9.66699 21.5 15s10.667 10.666 14 15.999s5 11 5 17c0 7.33301 -1.16699 14 -3.5 20s-6 11 -11 15
s-11.333 7.16699 -19 9.5s-16.5 3.5 -26.5 3.5s-19 -1.33301 -27 -4s-15 -6.83398 -21 -12.501s-10.667 -12.5 -14 -20.5s-5.33301 -17 -6 -27h-72c0.666992 22 4.83398 40.833 12.501 56.5s18 28.5 31 38.5s27.667 17.333 44 22s33.833 7 52.5 7
c20 0 38.333 -2.33301 55 -7s31 -11.5 43 -20.5s21.333 -20.167 28 -33.5s10 -28.333 10 -45c0 -15.333 -3.16699 -29 -9.5 -41s-14.666 -22.5 -24.999 -31.5s-21.333 -16.833 -33 -23.5s-26.5 -14.334 -44.5 -23.001l-24 -12c-7.33301 -3.33301 -14.333 -7.33301 -21 -12
s-12.667 -9.33398 -18 -14.001s-9.5 -9.16699 -12.5 -13.5s-4.5 -8.16602 -4.5 -11.499h192v-64h-280z" />
    <glyph glyph-name="threesuperior" unicode="&#xb3;" horiz-adv-x="352" 
d="M34 600l72.002 0.00195312c0 -8.66699 1.66699 -16.5 5 -23.5s8.16602 -13 14.499 -18s13.833 -8.66699 22.5 -11s18 -3.5 28 -3.5s19.333 1 28 3s16.167 5.16699 22.5 9.5s11.166 9.83301 14.499 16.5s5 14.334 5 23.001s-1.66699 16.334 -5 23.001
s-8.16602 12.167 -14.499 16.5s-13.833 7.5 -22.5 9.5s-18 3 -28 3h-28v52h28c9.33301 0 17.833 1 25.5 3s14.167 5 19.5 9s9.5 8.83301 12.5 14.5s4.5 12.167 4.5 19.5s-1.5 13.833 -4.5 19.5s-7.16699 10.5 -12.5 14.5s-11.833 7 -19.5 9s-16.167 3 -25.5 3
s-17.833 -1.16699 -25.5 -3.5s-14.167 -5.83301 -19.5 -10.5s-9.5 -10.167 -12.5 -16.5s-4.5 -13.5 -4.5 -21.5h-72c0 17.333 3.16699 32.666 9.5 45.999s15.666 24.666 27.999 33.999s27 16.333 44 21s35.833 7 56.5 7c20 0 38 -2.33301 54 -7s29.833 -11.334 41.5 -20.001
s20.667 -18.834 27 -30.501s9.5 -24.5 9.5 -38.5c0 -9.33301 -1.16699 -18 -3.5 -26s-6 -15.5 -11 -22.5s-11 -12.833 -18 -17.5s-14.833 -8 -23.5 -10v-3c10 -2 19.167 -5.5 27.5 -10.5s15.5 -11.333 21.5 -19s10.667 -16.167 14 -25.5s5 -19.333 5 -30
c0 -16 -3.33301 -30.167 -10 -42.5s-16.5 -22.833 -29.5 -31.5s-28.667 -15.167 -47 -19.5s-38.833 -6.5 -61.5 -6.5c-21.333 0 -40.666 2.16699 -57.999 6.5s-32.333 10.833 -45 19.5s-22.334 20.167 -29.001 34.5s-10 31.5 -10 51.5v0z" />
    <glyph glyph-name="acute" unicode="&#xb4;" horiz-adv-x="560" 
d="M248 568l104 164h104l-144 -164h-64z" />
    <glyph glyph-name="mu" unicode="&#xb5;" 
d="M152 16c2.66699 -18.667 4.66211 -33.998 5.99512 -45.998s2.5 -24 3.5 -36s1.66699 -24.333 2 -37s0.5 -26.334 0.5 -41.001v-76h-88v708h88v-284c0 -26 2.5 -47.833 7.5 -65.5s12.167 -32 21.5 -43s20.833 -19 34.5 -24s29.834 -7.5 48.501 -7.5s35.834 4 51.501 12
s29.334 19.667 41.001 35s20.5 33.666 26.5 54.999s9 44.666 9 69.999v252h88v-488h-84v72h-4c-7.33301 -14 -15.666 -26.333 -24.999 -37s-20.166 -19.5 -32.499 -26.5s-26 -12.167 -41 -15.5s-31.5 -5 -49.5 -5c-9.33301 0 -18.333 0.5 -27 1.5s-17 2.66699 -25 5
s-16 5.33301 -24 9s-15.333 7.83398 -22 12.501h-6z" />
    <glyph glyph-name="paragraph" unicode="&#xb6;" horiz-adv-x="628" 
d="M436 0v688h88v-688h-88zM264 0v249.001c-34.667 2.66699 -65.834 9.66699 -93.501 21s-51.167 26.5 -70.5 45.5s-34.166 41.333 -44.499 67s-15.5 54.167 -15.5 85.5c0 33.333 5.66699 63.5 17 90.5s28 50.167 50 69.5s48.667 34.166 80 44.499s66.333 15.5 105 15.5h60
v-688h-88z" />
    <glyph glyph-name="periodcentered" unicode="&#xb7;" horiz-adv-x="264" 
d="M76 196v112h112v-112h-112z" />
    <glyph glyph-name="cedilla" unicode="&#xb8;" horiz-adv-x="560" 
d="M236 -84l28.002 84.002h32v-36c14.667 -0.666992 27.834 -3.5 39.501 -8.5s21.334 -11.5 29.001 -19.5s13.5 -17 17.5 -27s6 -21 6 -33c0 -14 -2.5 -26.833 -7.5 -38.5s-12.333 -21.834 -22 -30.501s-21.834 -15.334 -36.501 -20.001s-31.334 -7 -50.001 -7h-56v56h52
c8.66699 0 16.167 0.666992 22.5 2s11.666 3.5 15.999 6.5s7.66602 7 9.99902 12s3.5 11.5 3.5 19.5c0 6.66699 -1.16699 12.667 -3.5 18s-5.83301 9.5 -10.5 12.5s-10.167 5.33301 -16.5 7s-13.5 2.5 -21.5 2.5h-32z" />
    <glyph glyph-name="onesuperior" unicode="&#xb9;" horiz-adv-x="352" 
d="M72 702l-32 54l140 84h48v-280h92v-64h-268v64h100v188z" />
    <glyph glyph-name="ordmasculine" unicode="&#xba;" horiz-adv-x="413" 
d="M206 336c-26.667 0 -50.833 4.16797 -72.5 12.501s-40.334 20.333 -56.001 36s-27.5 34.667 -35.5 57s-12 47.166 -12 74.499s4.16699 52.166 12.5 74.499s20.333 41.5 36 57.5s34.334 28.167 56.001 36.5s45.5 12.5 71.5 12.5c26.667 0 51 -4.16699 73 -12.5
s40.833 -20.5 56.5 -36.5s27.5 -35.167 35.5 -57.5s12 -47.166 12 -74.499s-4.16699 -52 -12.5 -74s-20.5 -41 -36.5 -57s-34.833 -28.167 -56.5 -36.5s-45.5 -12.5 -71.5 -12.5v0zM206.001 400.001c14 0 26.833 2.83301 38.5 8.5s21.667 13.667 30 24
s14.666 22.5 18.999 36.5s6.5 29.667 6.5 47s-2.16699 33.166 -6.5 47.499s-10.666 26.666 -18.999 36.999s-18.333 18.166 -30 23.499s-24.5 8 -38.5 8s-26.667 -2.66699 -38 -8s-21.166 -13.166 -29.499 -23.499s-14.666 -22.666 -18.999 -36.999
s-6.5 -30.166 -6.5 -47.499s2.16699 -33 6.5 -47s10.666 -26.167 18.999 -36.5s18.166 -18.333 29.499 -24s24 -8.5 38 -8.5v0z" />
    <glyph glyph-name="guillemotright" unicode="&#xbb;" horiz-adv-x="512" 
d="M244 48l116 204l-116 204h72l144 -204l-144 -204h-72zM52 48l116 204l-116 204h72l144 -204l-144 -204h-72z" />
    <glyph glyph-name="onequarter" unicode="&#xbc;" horiz-adv-x="776" 
d="M448 64v48l188 232h64v-220h48v-60h-48v-64h-76v64h-176zM216 -12l348 712h68l-348 -712h-68zM72 550l-32 54l140 84h48v-280h92v-64h-268v64h100v188zM531 124h93v117z" />
    <glyph glyph-name="onehalf" unicode="&#xbd;" horiz-adv-x="776" 
d="M456 0c0 24.667 3.16504 46.334 9.49805 65.001s14.833 34.334 25.5 47.001s22.167 23.334 34.5 32.001s26.5 17 42.5 25l24 12l27.5 15c8.33301 4.66699 15.5 9.66699 21.5 15s10.667 10.666 14 15.999s5 11 5 17c0 7.33301 -1.16699 14 -3.5 20s-6 11 -11 15
s-11.333 7.16699 -19 9.5s-16.5 3.5 -26.5 3.5s-19 -1.33301 -27 -4s-15 -6.83398 -21 -12.501s-10.667 -12.5 -14 -20.5s-5.33301 -17 -6 -27h-72c0.666992 22 4.83398 40.833 12.501 56.5s18 28.5 31 38.5s27.667 17.333 44 22s33.833 7 52.5 7
c20 0 38.333 -2.33301 55 -7s31 -11.5 43 -20.5s21.333 -20.167 28 -33.5s10 -28.333 10 -45c0 -15.333 -3.16699 -29 -9.5 -41s-14.666 -22.5 -24.999 -31.5s-21.333 -16.833 -33 -23.5s-26.5 -14.334 -44.5 -23.001l-24 -12c-7.33301 -3.33301 -14.333 -7.33301 -21 -12
s-12.667 -9.33398 -18 -14.001s-9.5 -9.16699 -12.5 -13.5s-4.5 -8.16602 -4.5 -11.499h192v-64h-280zM191.998 -12l348 712h68l-348 -712h-68zM71.998 550l-32 54l140 84h48v-280h92v-64h-268v64h100v188z" />
    <glyph glyph-name="threequarters" unicode="&#xbe;" horiz-adv-x="776" 
d="M448 64v48l188 232h64v-220h48v-60h-48v-64h-76v64h-176zM34 448l72.002 0.00195312c0 -8.66699 1.66699 -16.5 5 -23.5s8.16602 -13 14.499 -18s13.833 -8.66699 22.5 -11s18 -3.5 28 -3.5s19.333 1 28 3s16.167 5.16699 22.5 9.5s11.166 9.83301 14.499 16.5
s5 14.334 5 23.001s-1.66699 16.334 -5 23.001s-8.16602 12.167 -14.499 16.5s-13.833 7.5 -22.5 9.5s-18 3 -28 3h-28v52h28c9.33301 0 17.833 1 25.5 3s14.167 5 19.5 9s9.5 8.83301 12.5 14.5s4.5 12.167 4.5 19.5s-1.5 13.833 -4.5 19.5s-7.16699 10.5 -12.5 14.5
s-11.833 7 -19.5 9s-16.167 3 -25.5 3s-17.833 -1.16699 -25.5 -3.5s-14.167 -5.83301 -19.5 -10.5s-9.5 -10.167 -12.5 -16.5s-4.5 -13.5 -4.5 -21.5h-72c0 17.333 3.16699 32.666 9.5 45.999s15.666 24.666 27.999 33.999s27 16.333 44 21s35.833 7 56.5 7
c20 0 38 -2.33301 54 -7s29.833 -11.334 41.5 -20.001s20.667 -18.834 27 -30.501s9.5 -24.5 9.5 -38.5c0 -9.33301 -1.16699 -18 -3.5 -26s-6 -15.5 -11 -22.5s-11 -12.833 -18 -17.5s-14.833 -8 -23.5 -10v-3c10 -2 19.167 -5.5 27.5 -10.5s15.5 -11.333 21.5 -19
s10.667 -16.167 14 -25.5s5 -19.333 5 -30c0 -16 -3.33301 -30.167 -10 -42.5s-16.5 -22.833 -29.5 -31.5s-28.667 -15.167 -47 -19.5s-38.833 -6.5 -61.5 -6.5c-21.333 0 -40.666 2.16699 -57.999 6.5s-32.333 10.833 -45 19.5s-22.334 20.167 -29.001 34.5
s-10 31.5 -10 51.5v0zM204.002 -11.998l348 712h68l-348 -712h-68zM531.002 124.002h93v117z" />
    <glyph glyph-name="questiondown" unicode="&#xbf;" horiz-adv-x="504" 
d="M208 380v108h104v-108h-104zM40 -32c0 36.667 7.6709 66.1709 23.0039 88.5039s37.833 45.166 67.5 68.499s51.334 43.333 65.001 60s20.5 39 20.5 67v40h88v-28c0 -42 -7.5 -75.667 -22.5 -101s-37.5 -50 -67.5 -74s-51.167 -43 -63.5 -57s-18.5 -34 -18.5 -60
c0 -15.333 2.66699 -29.5 8 -42.5s13.166 -24.5 23.499 -34.5s22.666 -17.667 36.999 -23s30.166 -8 47.499 -8c22 0 41.333 3.66699 58 11s30.5 17.666 41.5 30.999s19.167 28.666 24.5 45.999s8 36 8 56h88c0 -28.667 -4.5 -56.167 -13.5 -82.5s-22.667 -49.833 -41 -70.5
s-41.333 -37 -69 -49s-59.834 -18 -96.501 -18c-30 0 -57.833 4.16699 -83.5 12.5s-47.834 20.333 -66.501 36s-33 34.667 -43 57s-15 47.166 -15 74.499v0z" />
    <glyph glyph-name="Agrave" unicode="&#xc0;" horiz-adv-x="644" 
d="M12 0l256 688h108l256 -688h-96l-65 180h-302l-65 -180h-92zM322 592h-4l-120 -332h244zM288 768l-144 164h104l104 -164h-64z" />
    <glyph glyph-name="Aacute" unicode="&#xc1;" horiz-adv-x="644" 
d="M12 0l256 688h108l256 -688h-96l-65 180h-302l-65 -180h-92zM322 592h-4l-120 -332h244zM288 768l104 164h104l-144 -164h-64z" />
    <glyph glyph-name="Acircumflex" unicode="&#xc2;" horiz-adv-x="644" 
d="M12 0l256 688h108l256 -688h-96l-65 180h-302l-65 -180h-92zM322 592h-4l-120 -332h244zM152 768l128 164h80l128 -164h-84l-84 112l-84 -112h-84z" />
    <glyph glyph-name="Atilde" unicode="&#xc3;" horiz-adv-x="644" 
d="M12 0l256 688h108l256 -688h-96l-65 180h-302l-65 -180h-92zM322 592h-4l-120 -332h244zM156 768c0.666992 15.333 3.16699 29.5 7.5 42.5s10.666 24.5 18.999 34.5s18.333 17.667 30 23s24.834 8 39.501 8c13.333 0 26.166 -2.16699 38.499 -6.5
s26.833 -10.666 43.5 -18.999s28.667 -14.166 36 -17.499s14.666 -5 21.999 -5c6.66699 0 12.5 1.33301 17.5 4s9.33301 6.33398 13 11.001s6.5 9.83398 8.5 15.501s3.66699 11.5 5 17.5h48c-0.666992 -15.333 -3.16699 -29.5 -7.5 -42.5s-10.666 -24.5 -18.999 -34.5
s-18.333 -17.667 -30 -23s-24.834 -8 -39.501 -8c-13.333 0 -26.166 2.16699 -38.499 6.5s-26.833 10.666 -43.5 18.999s-28.667 14.166 -36 17.499s-14.666 5 -21.999 5c-6.66699 0 -12.5 -1.33301 -17.5 -4s-9.33301 -6.33398 -13 -11.001s-6.5 -9.83398 -8.5 -15.501
s-3.66699 -11.5 -5 -17.5h-48z" />
    <glyph glyph-name="Adieresis" unicode="&#xc4;" horiz-adv-x="644" 
d="M12 0l256 688h108l256 -688h-96l-65 180h-302l-65 -180h-92zM322 592h-4l-120 -332h244zM376 768v92h88v-92h-88zM176 768v92h88v-92h-88z" />
    <glyph glyph-name="Aring" unicode="&#xc5;" horiz-adv-x="644" 
d="M12 0l256 688h108l256 -688h-96l-65 180h-302l-65 -180h-92zM322 592h-4l-120 -332h244zM320 764c-13.333 0 -26 2.33301 -38 7s-22.667 11.334 -32 20.001s-16.666 18.834 -21.999 30.501s-8 24.5 -8 38.5s2.66699 26.833 8 38.5s12.666 21.834 21.999 30.501
s20 15.334 32 20.001s24.667 7 38 7s26 -2.33301 38 -7s22.667 -11.334 32 -20.001s16.666 -18.834 21.999 -30.501s8 -24.5 8 -38.5s-2.66699 -26.833 -8 -38.5s-12.666 -21.834 -21.999 -30.501s-20 -15.334 -32 -20.001s-24.667 -7 -38 -7v0zM320 808
c7.33301 0 14.166 1.33301 20.499 4s11.833 6.33398 16.5 11.001s8.33398 10.167 11.001 16.5s4 13.166 4 20.499s-1.33301 14.166 -4 20.499s-6.33398 11.833 -11.001 16.5s-10.167 8.33398 -16.5 11.001s-13.166 4 -20.499 4s-14.166 -1.33301 -20.499 -4
s-11.833 -6.33398 -16.5 -11.001s-8.33398 -10.167 -11.001 -16.5s-4 -13.166 -4 -20.499s1.33301 -14.166 4 -20.499s6.33398 -11.833 11.001 -16.5s10.167 -8.33398 16.5 -11.001s13.166 -4 20.499 -4v0z" />
    <glyph glyph-name="AE" unicode="&#xc6;" horiz-adv-x="1064" 
d="M12 0l496 688h496v-80h-372v-218h296v-80h-296v-230h380v-80h-472v160h-305l-115 -160h-108zM536 580l-244 -340h248v340h-4z" />
    <glyph glyph-name="Ccedilla" unicode="&#xc7;" horiz-adv-x="712" 
d="M328 -84l24.001 73.001c-45.333 2.66699 -87 13 -125 31s-70.667 42.833 -98 74.5s-48.333 68.667 -63 111s-22 88.5 -22 138.5c0 50.667 8 97.834 24 141.501s38.833 81.5 68.5 113.5s64.834 56.833 105.501 74.5s85.334 26.5 134.001 26.5
c39.333 0 75.5 -5.5 108.5 -16.5s62 -26.5 87 -46.5s45.5 -44 61.5 -72s27.667 -59 35 -93h-95c-6.66699 23.333 -15.667 44 -27 62s-25.166 33 -41.499 45s-35.333 21.167 -57 27.5s-45.5 9.5 -71.5 9.5c-34.667 0 -66.5 -6.5 -95.5 -19.5s-54 -31.667 -75 -56
s-37.167 -53.333 -48.5 -87s-17 -70.167 -17 -109.5c0 -38.667 5.66699 -74.667 17 -108s27.333 -62.333 48 -87s45.167 -43.667 73.5 -57s59.5 -20 93.5 -20c28 0 53.167 3.16699 75.5 9.5s41.666 15.5 57.999 27.5s30 27 41 45s19.833 38.667 26.5 62h95
c-6.66699 -32.667 -17.834 -62.667 -33.501 -90s-35.5 -51 -59.5 -71s-51.833 -35.833 -83.5 -47.5s-66.167 -18.167 -103.5 -19.5v-24c14.667 -0.666992 27.834 -3.5 39.501 -8.5s21.334 -11.5 29.001 -19.5s13.5 -17 17.5 -27s6 -21 6 -33c0 -14 -2.5 -26.833 -7.5 -38.5
s-12.333 -21.834 -22 -30.501s-21.834 -15.334 -36.501 -20.001s-31.334 -7 -50.001 -7h-56v56h52c8.66699 0 16.167 0.666992 22.5 2s11.666 3.5 15.999 6.5s7.66602 7 9.99902 12s3.5 11.5 3.5 19.5c0 6.66699 -1.16699 12.667 -3.5 18s-5.83301 9.5 -10.5 12.5
s-10.167 5.33301 -16.5 7s-13.5 2.5 -21.5 2.5h-32z" />
    <glyph glyph-name="Egrave" unicode="&#xc8;" horiz-adv-x="612" 
d="M88 0v688h464v-80h-372v-218h296v-80h-296v-230h380v-80h-472zM288 768l-144 164h104l104 -164h-64z" />
    <glyph glyph-name="Eacute" unicode="&#xc9;" horiz-adv-x="612" 
d="M88 0v688h464v-80h-372v-218h296v-80h-296v-230h380v-80h-472zM288 768l104 164h104l-144 -164h-64z" />
    <glyph glyph-name="Ecircumflex" unicode="&#xca;" horiz-adv-x="612" 
d="M88 0v688h464v-80h-372v-218h296v-80h-296v-230h380v-80h-472zM152 768l128 164h80l128 -164h-84l-84 112l-84 -112h-84z" />
    <glyph glyph-name="Edieresis" unicode="&#xcb;" horiz-adv-x="612" 
d="M88 0v688h464v-80h-372v-218h296v-80h-296v-230h380v-80h-472zM376 768v92h88v-92h-88zM176 768v92h88v-92h-88z" />
    <glyph glyph-name="Igrave" unicode="&#xcc;" horiz-adv-x="268" 
d="M88 0v688h92v-688h-92zM102 768l-144 164h104l104 -164h-64z" />
    <glyph glyph-name="Iacute" unicode="&#xcd;" horiz-adv-x="268" 
d="M88 0v688h92v-688h-92zM102 768l104 164h104l-144 -164h-64z" />
    <glyph glyph-name="Icircumflex" unicode="&#xce;" horiz-adv-x="268" 
d="M88 0v688h92v-688h-92zM-34 768l128 164h80l128 -164h-84l-84 112l-84 -112h-84z" />
    <glyph glyph-name="Idieresis" unicode="&#xcf;" horiz-adv-x="268" 
d="M88 0v688h92v-688h-92zM190 768v92h88v-92h-88zM-10 768v92h88v-92h-88z" />
    <glyph glyph-name="Eth" unicode="&#xd0;" horiz-adv-x="704" 
d="M4 308v76.002h84v304h212c58 0 109.667 -8.33301 155 -25s83.166 -40.334 113.499 -71.001s53.166 -67 68.499 -109s23 -88.333 23 -139s-7.66699 -97 -23 -139s-38.166 -78.333 -68.499 -109s-68.166 -54.334 -113.499 -71.001s-97 -25 -155 -25h-212v308h-84z
M300 608.002l-120 0.00195312v-224h160v-76h-160v-228h120c46.667 0 87 7 121 21s61.5 33.167 82.5 57.5s36.333 52.166 46 83.499s14.5 65.333 14.5 102s-4.83301 70.667 -14.5 102s-25 59.166 -46 83.499s-48.5 43.5 -82.5 57.5s-74.333 21 -121 21v0z" />
    <glyph glyph-name="Ntilde" unicode="&#xd1;" horiz-adv-x="736" 
d="M88 0v688h88l380 -532h4l-4 532h92v-688h-88l-380 528h-4l4 -528h-92zM204 768c0.666992 15.333 3.16699 29.5 7.5 42.5s10.666 24.5 18.999 34.5s18.333 17.667 30 23s24.834 8 39.501 8c13.333 0 26.166 -2.16699 38.499 -6.5s26.833 -10.666 43.5 -18.999
s28.667 -14.166 36 -17.499s14.666 -5 21.999 -5c6.66699 0 12.5 1.33301 17.5 4s9.33301 6.33398 13 11.001s6.5 9.83398 8.5 15.501s3.66699 11.5 5 17.5h48c-0.666992 -15.333 -3.16699 -29.5 -7.5 -42.5s-10.666 -24.5 -18.999 -34.5s-18.333 -17.667 -30 -23
s-24.834 -8 -39.501 -8c-13.333 0 -26.166 2.16699 -38.499 6.5s-26.833 10.666 -43.5 18.999s-28.667 14.166 -36 17.499s-14.666 5 -21.999 5c-6.66699 0 -12.5 -1.33301 -17.5 -4s-9.33301 -6.33398 -13 -11.001s-6.5 -9.83398 -8.5 -15.501s-3.66699 -11.5 -5 -17.5h-48
z" />
    <glyph glyph-name="Ograve" unicode="&#xd2;" horiz-adv-x="760" 
d="M44 344c0 50.667 8 97.834 24 141.501s39 81.5 69 113.5s65.667 56.833 107 74.5s86.666 26.5 135.999 26.5c48.667 0 93.667 -8.83301 135 -26.5s77 -42.5 107 -74.5s53.167 -69.833 69.5 -113.5s24.5 -90.834 24.5 -141.501s-8.16699 -97.834 -24.5 -141.501
s-39.5 -81.5 -69.5 -113.5s-65.667 -56.833 -107 -74.5s-86.333 -26.5 -135 -26.5c-49.333 0 -94.666 8.83301 -135.999 26.5s-77 42.5 -107 74.5s-53 69.833 -69 113.5s-24 90.834 -24 141.501v0zM140 344c0 -38.667 5.66699 -74.667 17 -108s27.666 -62.333 48.999 -87
s46.833 -43.667 76.5 -57s62.167 -20 97.5 -20s67.833 6.66699 97.5 20s55.167 32.333 76.5 57s37.666 53.667 48.999 87s17 69.333 17 108s-5.66699 74.667 -17 108s-27.666 62.333 -48.999 87s-46.833 43.667 -76.5 57s-62.167 20 -97.5 20s-67.833 -6.66699 -97.5 -20
s-55.167 -32.333 -76.5 -57s-37.666 -53.667 -48.999 -87s-17 -69.333 -17 -108v0zM348 768l-144 164h104l104 -164h-64z" />
    <glyph glyph-name="Oacute" unicode="&#xd3;" horiz-adv-x="760" 
d="M44 344c0 50.667 8 97.834 24 141.501s39 81.5 69 113.5s65.667 56.833 107 74.5s86.666 26.5 135.999 26.5c48.667 0 93.667 -8.83301 135 -26.5s77 -42.5 107 -74.5s53.167 -69.833 69.5 -113.5s24.5 -90.834 24.5 -141.501s-8.16699 -97.834 -24.5 -141.501
s-39.5 -81.5 -69.5 -113.5s-65.667 -56.833 -107 -74.5s-86.333 -26.5 -135 -26.5c-49.333 0 -94.666 8.83301 -135.999 26.5s-77 42.5 -107 74.5s-53 69.833 -69 113.5s-24 90.834 -24 141.501v0zM140 344c0 -38.667 5.66699 -74.667 17 -108s27.666 -62.333 48.999 -87
s46.833 -43.667 76.5 -57s62.167 -20 97.5 -20s67.833 6.66699 97.5 20s55.167 32.333 76.5 57s37.666 53.667 48.999 87s17 69.333 17 108s-5.66699 74.667 -17 108s-27.666 62.333 -48.999 87s-46.833 43.667 -76.5 57s-62.167 20 -97.5 20s-67.833 -6.66699 -97.5 -20
s-55.167 -32.333 -76.5 -57s-37.666 -53.667 -48.999 -87s-17 -69.333 -17 -108v0zM348 768l104 164h104l-144 -164h-64z" />
    <glyph glyph-name="Ocircumflex" unicode="&#xd4;" horiz-adv-x="760" 
d="M44 344c0 50.667 8 97.834 24 141.501s39 81.5 69 113.5s65.667 56.833 107 74.5s86.666 26.5 135.999 26.5c48.667 0 93.667 -8.83301 135 -26.5s77 -42.5 107 -74.5s53.167 -69.833 69.5 -113.5s24.5 -90.834 24.5 -141.501s-8.16699 -97.834 -24.5 -141.501
s-39.5 -81.5 -69.5 -113.5s-65.667 -56.833 -107 -74.5s-86.333 -26.5 -135 -26.5c-49.333 0 -94.666 8.83301 -135.999 26.5s-77 42.5 -107 74.5s-53 69.833 -69 113.5s-24 90.834 -24 141.501v0zM140 344c0 -38.667 5.66699 -74.667 17 -108s27.666 -62.333 48.999 -87
s46.833 -43.667 76.5 -57s62.167 -20 97.5 -20s67.833 6.66699 97.5 20s55.167 32.333 76.5 57s37.666 53.667 48.999 87s17 69.333 17 108s-5.66699 74.667 -17 108s-27.666 62.333 -48.999 87s-46.833 43.667 -76.5 57s-62.167 20 -97.5 20s-67.833 -6.66699 -97.5 -20
s-55.167 -32.333 -76.5 -57s-37.666 -53.667 -48.999 -87s-17 -69.333 -17 -108v0zM212 768l128 164h80l128 -164h-84l-84 112l-84 -112h-84z" />
    <glyph glyph-name="Otilde" unicode="&#xd5;" horiz-adv-x="760" 
d="M44 344c0 50.667 8 97.834 24 141.501s39 81.5 69 113.5s65.667 56.833 107 74.5s86.666 26.5 135.999 26.5c48.667 0 93.667 -8.83301 135 -26.5s77 -42.5 107 -74.5s53.167 -69.833 69.5 -113.5s24.5 -90.834 24.5 -141.501s-8.16699 -97.834 -24.5 -141.501
s-39.5 -81.5 -69.5 -113.5s-65.667 -56.833 -107 -74.5s-86.333 -26.5 -135 -26.5c-49.333 0 -94.666 8.83301 -135.999 26.5s-77 42.5 -107 74.5s-53 69.833 -69 113.5s-24 90.834 -24 141.501v0zM140 344c0 -38.667 5.66699 -74.667 17 -108s27.666 -62.333 48.999 -87
s46.833 -43.667 76.5 -57s62.167 -20 97.5 -20s67.833 6.66699 97.5 20s55.167 32.333 76.5 57s37.666 53.667 48.999 87s17 69.333 17 108s-5.66699 74.667 -17 108s-27.666 62.333 -48.999 87s-46.833 43.667 -76.5 57s-62.167 20 -97.5 20s-67.833 -6.66699 -97.5 -20
s-55.167 -32.333 -76.5 -57s-37.666 -53.667 -48.999 -87s-17 -69.333 -17 -108v0zM216 768c0.666992 15.333 3.16699 29.5 7.5 42.5s10.666 24.5 18.999 34.5s18.333 17.667 30 23s24.834 8 39.501 8c13.333 0 26.166 -2.16699 38.499 -6.5s26.833 -10.666 43.5 -18.999
s28.667 -14.166 36 -17.499s14.666 -5 21.999 -5c6.66699 0 12.5 1.33301 17.5 4s9.33301 6.33398 13 11.001s6.5 9.83398 8.5 15.501s3.66699 11.5 5 17.5h48c-0.666992 -15.333 -3.16699 -29.5 -7.5 -42.5s-10.666 -24.5 -18.999 -34.5s-18.333 -17.667 -30 -23
s-24.834 -8 -39.501 -8c-13.333 0 -26.166 2.16699 -38.499 6.5s-26.833 10.666 -43.5 18.999s-28.667 14.166 -36 17.499s-14.666 5 -21.999 5c-6.66699 0 -12.5 -1.33301 -17.5 -4s-9.33301 -6.33398 -13 -11.001s-6.5 -9.83398 -8.5 -15.501s-3.66699 -11.5 -5 -17.5h-48
z" />
    <glyph glyph-name="Odieresis" unicode="&#xd6;" horiz-adv-x="760" 
d="M44 344c0 50.667 8 97.834 24 141.501s39 81.5 69 113.5s65.667 56.833 107 74.5s86.666 26.5 135.999 26.5c48.667 0 93.667 -8.83301 135 -26.5s77 -42.5 107 -74.5s53.167 -69.833 69.5 -113.5s24.5 -90.834 24.5 -141.501s-8.16699 -97.834 -24.5 -141.501
s-39.5 -81.5 -69.5 -113.5s-65.667 -56.833 -107 -74.5s-86.333 -26.5 -135 -26.5c-49.333 0 -94.666 8.83301 -135.999 26.5s-77 42.5 -107 74.5s-53 69.833 -69 113.5s-24 90.834 -24 141.501v0zM140 344c0 -38.667 5.66699 -74.667 17 -108s27.666 -62.333 48.999 -87
s46.833 -43.667 76.5 -57s62.167 -20 97.5 -20s67.833 6.66699 97.5 20s55.167 32.333 76.5 57s37.666 53.667 48.999 87s17 69.333 17 108s-5.66699 74.667 -17 108s-27.666 62.333 -48.999 87s-46.833 43.667 -76.5 57s-62.167 20 -97.5 20s-67.833 -6.66699 -97.5 -20
s-55.167 -32.333 -76.5 -57s-37.666 -53.667 -48.999 -87s-17 -69.333 -17 -108v0zM436 768v92h88v-92h-88zM236 768v92h88v-92h-88z" />
    <glyph glyph-name="multiply" unicode="&#xd7;" 
d="M76 412l52 52l156 -158l156 158l52 -52l-157 -158l157 -158l-52 -52l-156 158l-156 -158l-52 52l156 158z" />
    <glyph glyph-name="Oslash" unicode="&#xd8;" horiz-adv-x="760" 
d="M56 -12l80.9961 100.999c-14.667 16 -27.834 33.5 -39.501 52.5s-21.5 39.333 -29.5 61s-14 44.334 -18 68.001s-6 48.167 -6 73.5c0 50.667 8.16699 97.834 24.5 141.501s39.5 81.5 69.5 113.5s65.667 56.833 107 74.5s86.333 26.5 135 26.5
c18.667 0 36.834 -1.5 54.501 -4.5s34.834 -7.16699 51.501 -12.5s32.5 -12 47.5 -20s29.5 -17 43.5 -27l51 64h76l-82 -103c14.667 -16 27.834 -33.333 39.501 -52s21.5 -38.834 29.5 -60.501s14.167 -44.167 18.5 -67.5s6.5 -47.666 6.5 -72.999
c0 -50.667 -8.33301 -97.834 -25 -141.501s-40.167 -81.5 -70.5 -113.5s-66.166 -56.833 -107.499 -74.5s-85.666 -26.5 -132.999 -26.5c-19.333 0 -37.833 1.33301 -55.5 4s-34.834 6.66699 -51.501 12s-32.667 11.833 -48 19.5s-29.666 16.5 -42.999 26.5l-50 -62h-76z
M619.996 343.999c0 17.333 -1.16602 34.5 -3.49902 51.5s-6 33.167 -11 48.5s-10.833 29.833 -17.5 43.5s-14.667 26.5 -24 38.5l-327 -407c10 -7.33301 20.333 -14 31 -20s22 -11 34 -15s24.5 -7 37.5 -9s26.5 -3 40.5 -3c35.333 0 67.833 6.66699 97.5 20
s55.167 32.333 76.5 57s37.666 53.667 48.999 87s17 69.333 17 108v0zM139.997 343.999c0 -18 1.16602 -35.333 3.49902 -52s5.83301 -32.667 10.5 -48s10.5 -29.833 17.5 -43.5s14.833 -26.5 23.5 -38.5l327 406c-9.33301 7.33301 -19.5 14 -30.5 20
s-22.333 11.167 -34 15.5s-24 7.5 -37 9.5s-26.5 3 -40.5 3c-35.333 0 -67.833 -6.66699 -97.5 -20s-55.167 -32.333 -76.5 -57s-37.666 -53.667 -48.999 -87s-17 -69.333 -17 -108v0z" />
    <glyph glyph-name="Ugrave" unicode="&#xd9;" horiz-adv-x="696" 
d="M72 272v416h92v-416c0 -32 3.83301 -60.333 11.5 -85s19 -45.5 34 -62.5s34.167 -30 57.5 -39s50.333 -13.5 81 -13.5s57.667 4.5 81 13.5s42.5 22 57.5 39s26.333 37.833 34 62.5s11.5 53 11.5 85v416h92v-416c0 -50 -6.5 -93.167 -19.5 -129.5
s-31.833 -65.833 -56.5 -88.5s-53.667 -39.334 -87 -50.001s-71 -16 -113 -16s-79.667 5.33301 -113 16s-62.333 27.334 -87 50.001s-43.5 52.167 -56.5 88.5s-19.5 79.5 -19.5 129.5v0zM316 768l-144 164h104l104 -164h-64z" />
    <glyph glyph-name="Uacute" unicode="&#xda;" horiz-adv-x="696" 
d="M72 272v416h92v-416c0 -32 3.83301 -60.333 11.5 -85s19 -45.5 34 -62.5s34.167 -30 57.5 -39s50.333 -13.5 81 -13.5s57.667 4.5 81 13.5s42.5 22 57.5 39s26.333 37.833 34 62.5s11.5 53 11.5 85v416h92v-416c0 -50 -6.5 -93.167 -19.5 -129.5
s-31.833 -65.833 -56.5 -88.5s-53.667 -39.334 -87 -50.001s-71 -16 -113 -16s-79.667 5.33301 -113 16s-62.333 27.334 -87 50.001s-43.5 52.167 -56.5 88.5s-19.5 79.5 -19.5 129.5v0zM316 768l104 164h104l-144 -164h-64z" />
    <glyph glyph-name="Ucircumflex" unicode="&#xdb;" horiz-adv-x="696" 
d="M72 272v416h92v-416c0 -32 3.83301 -60.333 11.5 -85s19 -45.5 34 -62.5s34.167 -30 57.5 -39s50.333 -13.5 81 -13.5s57.667 4.5 81 13.5s42.5 22 57.5 39s26.333 37.833 34 62.5s11.5 53 11.5 85v416h92v-416c0 -50 -6.5 -93.167 -19.5 -129.5
s-31.833 -65.833 -56.5 -88.5s-53.667 -39.334 -87 -50.001s-71 -16 -113 -16s-79.667 5.33301 -113 16s-62.333 27.334 -87 50.001s-43.5 52.167 -56.5 88.5s-19.5 79.5 -19.5 129.5v0zM180 768l128 164h80l128 -164h-84l-84 112l-84 -112h-84z" />
    <glyph glyph-name="Udieresis" unicode="&#xdc;" horiz-adv-x="696" 
d="M72 272v416h92v-416c0 -32 3.83301 -60.333 11.5 -85s19 -45.5 34 -62.5s34.167 -30 57.5 -39s50.333 -13.5 81 -13.5s57.667 4.5 81 13.5s42.5 22 57.5 39s26.333 37.833 34 62.5s11.5 53 11.5 85v416h92v-416c0 -50 -6.5 -93.167 -19.5 -129.5
s-31.833 -65.833 -56.5 -88.5s-53.667 -39.334 -87 -50.001s-71 -16 -113 -16s-79.667 5.33301 -113 16s-62.333 27.334 -87 50.001s-43.5 52.167 -56.5 88.5s-19.5 79.5 -19.5 129.5v0zM404 768v92h88v-92h-88zM204 768v92h88v-92h-88z" />
    <glyph glyph-name="Yacute" unicode="&#xdd;" horiz-adv-x="608" 
d="M256 0v270l-244 418h104l186 -324h4l194 324h96l-248 -411v-277h-92zM272 768l104 164h104l-144 -164h-64z" />
    <glyph glyph-name="Thorn" unicode="&#xde;" horiz-adv-x="636" 
d="M88 0v688.003h92v-112h168c38.667 0 73.167 -5.33301 103.5 -16s56 -25.834 77 -45.501s36.833 -43 47.5 -70s16 -56.5 16 -88.5c0 -32.667 -5.33301 -62.834 -16 -90.501s-26.5 -51.834 -47.5 -72.501s-46.667 -36.667 -77 -48s-64.833 -17 -103.5 -17h-168v-128h-92z
M352 496.003l-172 -0.00292969v-288h172c24 0 45.333 3.83301 64 11.5s34.334 18.334 47.001 32.001s22 29.334 28 47.001s9 36.834 9 57.501c0 20 -3 38.5 -9 55.5s-15.167 31.833 -27.5 44.5s-27.833 22.5 -46.5 29.5s-40.334 10.5 -65.001 10.5v0z" />
    <glyph glyph-name="germandbls" unicode="&#xdf;" 
d="M76 0l0.000976562 511.994c0 39.333 5.33301 73.833 16 103.5s25.667 54 45 73s42.166 33 68.499 42s55.166 13.5 86.499 13.5c30.667 0 57.667 -4.16699 81 -12.5s42.666 -19.666 57.999 -33.999s26.666 -30.5 33.999 -48.5s11 -37 11 -57
c0 -23.333 -4.66699 -43.166 -14 -59.499s-23.166 -33.666 -41.499 -51.999s-31 -31.666 -38 -39.999s-10.5 -19.166 -10.5 -32.499c0 -16.667 4.66699 -29.167 14 -37.5s29.833 -24.166 61.5 -47.499s55 -46 70 -68s22.5 -49.667 22.5 -83
c0 -27.333 -4.83301 -51.666 -14.5 -72.999s-23.5 -39.333 -41.5 -54s-39.167 -25.834 -63.5 -33.501s-51.166 -11.5 -80.499 -11.5h-84v72h84c16.667 0 31.834 2 45.501 6s25.5 9.83301 35.5 17.5s17.667 17.334 23 29.001s8 24.834 8 39.501
c0 25.333 -6.33301 45.166 -19 59.499s-32.5 30.5 -59.5 48.5s-47.333 36 -61 54s-20.5 42.667 -20.5 74c0 23.333 4.5 42.666 13.5 57.999s22.333 31.5 40 48.5s30.5 31.167 38.5 42.5s12 25.666 12 42.999c0 10 -2.16699 19.833 -6.5 29.5s-10.833 18.334 -19.5 26.001
s-20 13.667 -34 18s-30 6.5 -48 6.5c-19.333 0 -36.5 -3 -51.5 -9s-28 -15.5 -39 -28.5s-19.333 -29.667 -25 -50s-8.5 -44.5 -8.5 -72.5v-512h-88z" />
    <glyph glyph-name="agrave" unicode="&#xe0;" horiz-adv-x="524" 
d="M48 124c0 20.667 3.00195 38.9932 9.00195 54.9932s15.5 30.333 28.5 43s29.5 23.334 49.5 32.001s44.333 15.334 73 20.001l96 16c14 2.66699 25 5 33 7s14.167 4.33301 18.5 7s7.5 5.83398 9.5 9.50098s3 8.5 3 14.5c0 14.667 -2.16699 28.167 -6.5 40.5
s-10.833 23 -19.5 32s-19.667 15.833 -33 20.5s-28.333 7 -45 7c-17.333 0 -32.833 -2.16699 -46.5 -6.5s-25.167 -10.666 -34.5 -18.999s-16.5 -18.166 -21.5 -29.499s-8.16699 -23.666 -9.5 -36.999h-84c1.33301 23.333 6.5 45 15.5 65s21.833 37.333 38.5 52
s37 26.167 61 34.5s51 12.5 81 12.5c31.333 0 59.166 -4 83.499 -12s44.5 -19.833 60.5 -35.5s28 -34.667 36 -57s12 -47.5 12 -75.5v-320h-84v65h-4c-6.66699 -12.667 -15.334 -23.834 -26.001 -33.501s-22.667 -17.667 -36 -24s-27.833 -11.166 -43.5 -14.499
s-32.5 -5 -50.5 -5c-25.333 0 -48.333 3.16699 -69 9.5s-38 15.5 -52 27.5s-24.667 26.333 -32 43s-11 35.334 -11 56.001v0zM368.002 203.993l-0.00390625 47.0068c-2.66699 -2.66699 -5.66699 -5.33398 -9 -8.00098s-7.16602 -4.83398 -11.499 -6.50098
s-9.16602 -3.16699 -14.499 -4.5s-11 -2.66602 -17 -3.99902l-92 -16c-16 -2.66699 -29.5 -6.33398 -40.5 -11.001s-20 -10.334 -27 -17.001s-12.167 -14.334 -15.5 -23.001s-5 -18.334 -5 -29.001s1.83301 -20.334 5.5 -29.001s9.33398 -16.334 17.001 -23.001
s17.334 -11.667 29.001 -15s25.167 -5 40.5 -5c19.333 0 37.5 3 54.5 9s31.833 15.167 44.5 27.5s22.667 27.5 30 45.5s11 38.667 11 62v0zM235.998 568l-144 164h104l104 -164h-64z" />
    <glyph glyph-name="aacute" unicode="&#xe1;" horiz-adv-x="524" 
d="M48 124c0 20.667 3.00195 38.9932 9.00195 54.9932s15.5 30.333 28.5 43s29.5 23.334 49.5 32.001s44.333 15.334 73 20.001l96 16c14 2.66699 25 5 33 7s14.167 4.33301 18.5 7s7.5 5.83398 9.5 9.50098s3 8.5 3 14.5c0 14.667 -2.16699 28.167 -6.5 40.5
s-10.833 23 -19.5 32s-19.667 15.833 -33 20.5s-28.333 7 -45 7c-17.333 0 -32.833 -2.16699 -46.5 -6.5s-25.167 -10.666 -34.5 -18.999s-16.5 -18.166 -21.5 -29.499s-8.16699 -23.666 -9.5 -36.999h-84c1.33301 23.333 6.5 45 15.5 65s21.833 37.333 38.5 52
s37 26.167 61 34.5s51 12.5 81 12.5c31.333 0 59.166 -4 83.499 -12s44.5 -19.833 60.5 -35.5s28 -34.667 36 -57s12 -47.5 12 -75.5v-320h-84v65h-4c-6.66699 -12.667 -15.334 -23.834 -26.001 -33.501s-22.667 -17.667 -36 -24s-27.833 -11.166 -43.5 -14.499
s-32.5 -5 -50.5 -5c-25.333 0 -48.333 3.16699 -69 9.5s-38 15.5 -52 27.5s-24.667 26.333 -32 43s-11 35.334 -11 56.001v0zM368.002 203.993l-0.00390625 47.0068c-2.66699 -2.66699 -5.66699 -5.33398 -9 -8.00098s-7.16602 -4.83398 -11.499 -6.50098
s-9.16602 -3.16699 -14.499 -4.5s-11 -2.66602 -17 -3.99902l-92 -16c-16 -2.66699 -29.5 -6.33398 -40.5 -11.001s-20 -10.334 -27 -17.001s-12.167 -14.334 -15.5 -23.001s-5 -18.334 -5 -29.001s1.83301 -20.334 5.5 -29.001s9.33398 -16.334 17.001 -23.001
s17.334 -11.667 29.001 -15s25.167 -5 40.5 -5c19.333 0 37.5 3 54.5 9s31.833 15.167 44.5 27.5s22.667 27.5 30 45.5s11 38.667 11 62v0zM219.998 568l104 164h104l-144 -164h-64z" />
    <glyph glyph-name="acircumflex" unicode="&#xe2;" horiz-adv-x="524" 
d="M48 124c0 20.667 3.00195 38.9932 9.00195 54.9932s15.5 30.333 28.5 43s29.5 23.334 49.5 32.001s44.333 15.334 73 20.001l96 16c14 2.66699 25 5 33 7s14.167 4.33301 18.5 7s7.5 5.83398 9.5 9.50098s3 8.5 3 14.5c0 14.667 -2.16699 28.167 -6.5 40.5
s-10.833 23 -19.5 32s-19.667 15.833 -33 20.5s-28.333 7 -45 7c-17.333 0 -32.833 -2.16699 -46.5 -6.5s-25.167 -10.666 -34.5 -18.999s-16.5 -18.166 -21.5 -29.499s-8.16699 -23.666 -9.5 -36.999h-84c1.33301 23.333 6.5 45 15.5 65s21.833 37.333 38.5 52
s37 26.167 61 34.5s51 12.5 81 12.5c31.333 0 59.166 -4 83.499 -12s44.5 -19.833 60.5 -35.5s28 -34.667 36 -57s12 -47.5 12 -75.5v-320h-84v65h-4c-6.66699 -12.667 -15.334 -23.834 -26.001 -33.501s-22.667 -17.667 -36 -24s-27.833 -11.166 -43.5 -14.499
s-32.5 -5 -50.5 -5c-25.333 0 -48.333 3.16699 -69 9.5s-38 15.5 -52 27.5s-24.667 26.333 -32 43s-11 35.334 -11 56.001v0zM368.002 203.993l-0.00390625 47.0068c-2.66699 -2.66699 -5.66699 -5.33398 -9 -8.00098s-7.16602 -4.83398 -11.499 -6.50098
s-9.16602 -3.16699 -14.499 -4.5s-11 -2.66602 -17 -3.99902l-92 -16c-16 -2.66699 -29.5 -6.33398 -40.5 -11.001s-20 -10.334 -27 -17.001s-12.167 -14.334 -15.5 -23.001s-5 -18.334 -5 -29.001s1.83301 -20.334 5.5 -29.001s9.33398 -16.334 17.001 -23.001
s17.334 -11.667 29.001 -15s25.167 -5 40.5 -5c19.333 0 37.5 3 54.5 9s31.833 15.167 44.5 27.5s22.667 27.5 30 45.5s11 38.667 11 62v0zM91.998 568l128 164h80l128 -164h-84l-84 112l-84 -112h-84z" />
    <glyph glyph-name="atilde" unicode="&#xe3;" horiz-adv-x="524" 
d="M48 124c0 20.667 3.00195 38.9932 9.00195 54.9932s15.5 30.333 28.5 43s29.5 23.334 49.5 32.001s44.333 15.334 73 20.001l96 16c14 2.66699 25 5 33 7s14.167 4.33301 18.5 7s7.5 5.83398 9.5 9.50098s3 8.5 3 14.5c0 14.667 -2.16699 28.167 -6.5 40.5
s-10.833 23 -19.5 32s-19.667 15.833 -33 20.5s-28.333 7 -45 7c-17.333 0 -32.833 -2.16699 -46.5 -6.5s-25.167 -10.666 -34.5 -18.999s-16.5 -18.166 -21.5 -29.499s-8.16699 -23.666 -9.5 -36.999h-84c1.33301 23.333 6.5 45 15.5 65s21.833 37.333 38.5 52
s37 26.167 61 34.5s51 12.5 81 12.5c31.333 0 59.166 -4 83.499 -12s44.5 -19.833 60.5 -35.5s28 -34.667 36 -57s12 -47.5 12 -75.5v-320h-84v65h-4c-6.66699 -12.667 -15.334 -23.834 -26.001 -33.501s-22.667 -17.667 -36 -24s-27.833 -11.166 -43.5 -14.499
s-32.5 -5 -50.5 -5c-25.333 0 -48.333 3.16699 -69 9.5s-38 15.5 -52 27.5s-24.667 26.333 -32 43s-11 35.334 -11 56.001v0zM368.002 203.993l-0.00390625 47.0068c-2.66699 -2.66699 -5.66699 -5.33398 -9 -8.00098s-7.16602 -4.83398 -11.499 -6.50098
s-9.16602 -3.16699 -14.499 -4.5s-11 -2.66602 -17 -3.99902l-92 -16c-16 -2.66699 -29.5 -6.33398 -40.5 -11.001s-20 -10.334 -27 -17.001s-12.167 -14.334 -15.5 -23.001s-5 -18.334 -5 -29.001s1.83301 -20.334 5.5 -29.001s9.33398 -16.334 17.001 -23.001
s17.334 -11.667 29.001 -15s25.167 -5 40.5 -5c19.333 0 37.5 3 54.5 9s31.833 15.167 44.5 27.5s22.667 27.5 30 45.5s11 38.667 11 62v0zM95.998 596c0.666992 15.333 3.16699 29.5 7.5 42.5s10.666 24.5 18.999 34.5s18.333 17.667 30 23s24.834 8 39.501 8
c13.333 0 26.166 -2.16699 38.499 -6.5s26.833 -10.666 43.5 -18.999s28.667 -14.166 36 -17.499s14.666 -5 21.999 -5c6.66699 0 12.5 1.33301 17.5 4s9.33301 6.33398 13 11.001s6.5 9.83398 8.5 15.501s3.66699 11.5 5 17.5h48
c-0.666992 -15.333 -3.16699 -29.5 -7.5 -42.5s-10.666 -24.5 -18.999 -34.5s-18.333 -17.667 -30 -23s-24.834 -8 -39.501 -8c-13.333 0 -26.166 2.16699 -38.499 6.5s-26.833 10.666 -43.5 18.999s-28.667 14.166 -36 17.499s-14.666 5 -21.999 5
c-6.66699 0 -12.5 -1.33301 -17.5 -4s-9.33301 -6.33398 -13 -11.001s-6.5 -9.83398 -8.5 -15.501s-3.66699 -11.5 -5 -17.5h-48z" />
    <glyph glyph-name="adieresis" unicode="&#xe4;" horiz-adv-x="524" 
d="M48 124c0 20.667 3.00195 38.9932 9.00195 54.9932s15.5 30.333 28.5 43s29.5 23.334 49.5 32.001s44.333 15.334 73 20.001l96 16c14 2.66699 25 5 33 7s14.167 4.33301 18.5 7s7.5 5.83398 9.5 9.50098s3 8.5 3 14.5c0 14.667 -2.16699 28.167 -6.5 40.5
s-10.833 23 -19.5 32s-19.667 15.833 -33 20.5s-28.333 7 -45 7c-17.333 0 -32.833 -2.16699 -46.5 -6.5s-25.167 -10.666 -34.5 -18.999s-16.5 -18.166 -21.5 -29.499s-8.16699 -23.666 -9.5 -36.999h-84c1.33301 23.333 6.5 45 15.5 65s21.833 37.333 38.5 52
s37 26.167 61 34.5s51 12.5 81 12.5c31.333 0 59.166 -4 83.499 -12s44.5 -19.833 60.5 -35.5s28 -34.667 36 -57s12 -47.5 12 -75.5v-320h-84v65h-4c-6.66699 -12.667 -15.334 -23.834 -26.001 -33.501s-22.667 -17.667 -36 -24s-27.833 -11.166 -43.5 -14.499
s-32.5 -5 -50.5 -5c-25.333 0 -48.333 3.16699 -69 9.5s-38 15.5 -52 27.5s-24.667 26.333 -32 43s-11 35.334 -11 56.001v0zM368.002 203.993l-0.00390625 47.0068c-2.66699 -2.66699 -5.66699 -5.33398 -9 -8.00098s-7.16602 -4.83398 -11.499 -6.50098
s-9.16602 -3.16699 -14.499 -4.5s-11 -2.66602 -17 -3.99902l-92 -16c-16 -2.66699 -29.5 -6.33398 -40.5 -11.001s-20 -10.334 -27 -17.001s-12.167 -14.334 -15.5 -23.001s-5 -18.334 -5 -29.001s1.83301 -20.334 5.5 -29.001s9.33398 -16.334 17.001 -23.001
s17.334 -11.667 29.001 -15s25.167 -5 40.5 -5c19.333 0 37.5 3 54.5 9s31.833 15.167 44.5 27.5s22.667 27.5 30 45.5s11 38.667 11 62v0zM315.998 604v92h88v-92h-88zM115.998 604v92h88v-92h-88z" />
    <glyph glyph-name="aring" unicode="&#xe5;" horiz-adv-x="524" 
d="M48 124c0 20.667 3.00195 38.9932 9.00195 54.9932s15.5 30.333 28.5 43s29.5 23.334 49.5 32.001s44.333 15.334 73 20.001l96 16c14 2.66699 25 5 33 7s14.167 4.33301 18.5 7s7.5 5.83398 9.5 9.50098s3 8.5 3 14.5c0 14.667 -2.16699 28.167 -6.5 40.5
s-10.833 23 -19.5 32s-19.667 15.833 -33 20.5s-28.333 7 -45 7c-17.333 0 -32.833 -2.16699 -46.5 -6.5s-25.167 -10.666 -34.5 -18.999s-16.5 -18.166 -21.5 -29.499s-8.16699 -23.666 -9.5 -36.999h-84c1.33301 23.333 6.5 45 15.5 65s21.833 37.333 38.5 52
s37 26.167 61 34.5s51 12.5 81 12.5c31.333 0 59.166 -4 83.499 -12s44.5 -19.833 60.5 -35.5s28 -34.667 36 -57s12 -47.5 12 -75.5v-320h-84v65h-4c-6.66699 -12.667 -15.334 -23.834 -26.001 -33.501s-22.667 -17.667 -36 -24s-27.833 -11.166 -43.5 -14.499
s-32.5 -5 -50.5 -5c-25.333 0 -48.333 3.16699 -69 9.5s-38 15.5 -52 27.5s-24.667 26.333 -32 43s-11 35.334 -11 56.001v0zM368.002 203.993l-0.00390625 47.0068c-2.66699 -2.66699 -5.66699 -5.33398 -9 -8.00098s-7.16602 -4.83398 -11.499 -6.50098
s-9.16602 -3.16699 -14.499 -4.5s-11 -2.66602 -17 -3.99902l-92 -16c-16 -2.66699 -29.5 -6.33398 -40.5 -11.001s-20 -10.334 -27 -17.001s-12.167 -14.334 -15.5 -23.001s-5 -18.334 -5 -29.001s1.83301 -20.334 5.5 -29.001s9.33398 -16.334 17.001 -23.001
s17.334 -11.667 29.001 -15s25.167 -5 40.5 -5c19.333 0 37.5 3 54.5 9s31.833 15.167 44.5 27.5s22.667 27.5 30 45.5s11 38.667 11 62v0zM259.998 564c-13.333 0 -26 2.33301 -38 7s-22.667 11.334 -32 20.001s-16.666 18.834 -21.999 30.501s-8 24.5 -8 38.5
s2.66699 26.833 8 38.5s12.666 21.834 21.999 30.501s20 15.334 32 20.001s24.667 7 38 7s26 -2.33301 38 -7s22.667 -11.334 32 -20.001s16.666 -18.834 21.999 -30.501s8 -24.5 8 -38.5s-2.66699 -26.833 -8 -38.5s-12.666 -21.834 -21.999 -30.501
s-20 -15.334 -32 -20.001s-24.667 -7 -38 -7v0zM259.998 608c7.33301 0 14.166 1.33301 20.499 4s11.833 6.33398 16.5 11.001s8.33398 10.167 11.001 16.5s4 13.166 4 20.499s-1.33301 14.166 -4 20.499s-6.33398 11.833 -11.001 16.5s-10.167 8.33398 -16.5 11.001
s-13.166 4 -20.499 4s-14.166 -1.33301 -20.499 -4s-11.833 -6.33398 -16.5 -11.001s-8.33398 -10.167 -11.001 -16.5s-4 -13.166 -4 -20.499s1.33301 -14.166 4 -20.499s6.33398 -11.833 11.001 -16.5s10.167 -8.33398 16.5 -11.001s13.166 -4 20.499 -4v0z" />
    <glyph glyph-name="ae" unicode="&#xe6;" horiz-adv-x="844" 
d="M68 336c2 28 8.50098 52.498 19.501 73.498s25.5 38.167 43.5 51.5s38.333 23.166 61 29.499s46.667 9.5 72 9.5c19.333 0 37.166 -1.5 53.499 -4.5s31.5 -7.66699 45.5 -14s26.5 -14.166 37.5 -23.499s20.167 -20 27.5 -32c9.33301 12 20 22.5 32 31.5s25 16.667 39 23
s29.167 11.166 45.5 14.499s33.5 5 51.5 5c30.667 0 59 -5.16699 85 -15.5s48.5 -25.666 67.5 -45.999s33.667 -44.833 44 -73.5s15.5 -61 15.5 -97v-36h-348c0.666992 -26 4.66699 -49.333 12 -70s17.166 -38.334 29.499 -53.001s26.833 -25.834 43.5 -33.501
s35 -11.5 55 -11.5c18 0 33.833 2.16699 47.5 6.5s25.167 10.5 34.5 18.5s16.666 16.833 21.999 26.5s9.33301 20.5 12 32.5h88c-3.33301 -22 -10.666 -42.667 -21.999 -62s-26 -36.333 -44 -51s-38.833 -26.167 -62.5 -34.5s-48.834 -12.5 -75.501 -12.5
c-22.667 0 -43.667 2.16699 -63 6.5s-37.166 11 -53.499 20s-30.833 19.667 -43.5 32s-23.667 26.833 -33 43.5c-11.333 -19.333 -24.333 -35.666 -39 -48.999s-30.5 -23.833 -47.5 -31.5s-34.5 -13.167 -52.5 -16.5s-36.667 -5 -56 -5c-25.333 0 -48.333 3.16699 -69 9.5
s-38 15.5 -52 27.5s-24.667 26.333 -32 43s-11 35.334 -11 56.001c0 20 3 38 9 54s15.5 30.333 28.5 43s29.667 23.5 50 32.5s44.5 15.833 72.5 20.5l96 16c14 2.66699 25 5 33 7s14.167 4.33301 18.5 7s7.5 5.83398 9.5 9.50098s3 8.5 3 14.5c0 14 -2 27.167 -6 39.5
s-10.333 23 -19 32s-19.667 16 -33 21s-28.666 7.5 -45.999 7.5c-14.667 0 -28.667 -1.83301 -42 -5.5s-25 -9.5 -35 -17.5s-18.167 -17.667 -24.5 -29s-9.83301 -24.666 -10.5 -39.999h-84zM228.001 59.998c19.333 0 37.4971 2.83789 54.4971 8.50488
s31.833 14.5 44.5 26.5s22.667 27.167 30 45.5s11 39.5 11 63.5v47c-2.66699 -2.66699 -5.66699 -5.33398 -9 -8.00098s-7.16602 -4.83398 -11.499 -6.50098s-9.16602 -3.16699 -14.499 -4.5s-11 -2.66602 -17 -3.99902l-92 -16
c-15.333 -2.66699 -28.5 -6.33398 -39.5 -11.001s-20.167 -10.334 -27.5 -17.001s-12.666 -14.334 -15.999 -23.001s-5 -18.334 -5 -29.001c0 -11.333 2 -21.5 6 -30.5s10 -16.5 18 -22.5s17.667 -10.667 29 -14s24.333 -5 39 -5v0zM595.998 424.003
c-17.333 0 -33.1699 -3.00098 -47.5029 -9.00098s-27.166 -14.5 -38.499 -25.5s-20.833 -24.167 -28.5 -39.5s-13.5 -32.666 -17.5 -51.999h251c-1.33301 20 -5.16602 38 -11.499 54s-14.666 29.333 -24.999 40s-22.333 18.667 -36 24s-29.167 8 -46.5 8v0z" />
    <glyph glyph-name="ccedilla" unicode="&#xe7;" horiz-adv-x="516" 
d="M228 -84l24.0029 73.001c-32.667 2 -62.167 9.5 -88.5 22.5s-48.666 30.5 -66.999 52.5s-32.333 48.333 -42 79s-14.5 64.334 -14.5 101.001c0 38 5.83301 72.833 17.5 104.5s28 58.834 49 81.501s45.667 40 74 52s58.833 18 91.5 18c30.667 0 58.5 -4.33301 83.5 -13
s46.5 -20.834 64.5 -36.501s32.333 -34.334 43 -56.001s17.667 -45.167 21 -70.5h-88c-2.66699 14.667 -7 28 -13 40s-14.167 22.5 -24.5 31.5s-22.666 16 -36.999 21s-30.833 7.5 -49.5 7.5c-20 0 -38.5 -4.33301 -55.5 -13s-31.833 -21 -44.5 -37s-22.5 -35 -29.5 -57
s-10.5 -46.333 -10.5 -73s3.5 -51 10.5 -73s16.833 -41 29.5 -57s27.5 -28.333 44.5 -37s35.5 -13 55.5 -13c18.667 0 35.167 2.5 49.5 7.5s26.666 12 36.999 21s18.5 19.5 24.5 31.5s10.333 25.333 13 40h88c-3.33301 -24.667 -10 -47.334 -20 -68.001
s-23.333 -38.667 -40 -54s-36.334 -27.666 -59.001 -36.999s-48.334 -14.666 -77.001 -15.999v-25c14.667 -0.666992 27.834 -3.5 39.501 -8.5s21.334 -11.5 29.001 -19.5s13.5 -17 17.5 -27s6 -21 6 -33c0 -14 -2.5 -26.833 -7.5 -38.5s-12.333 -21.834 -22 -30.501
s-21.834 -15.334 -36.501 -20.001s-31.334 -7 -50.001 -7h-56v56h52c8.66699 0 16.167 0.666992 22.5 2s11.666 3.5 15.999 6.5s7.66602 7 9.99902 12s3.5 11.5 3.5 19.5c0 6.66699 -1.16699 12.667 -3.5 18s-5.83301 9.5 -10.5 12.5s-10.167 5.33301 -16.5 7
s-13.5 2.5 -21.5 2.5h-32z" />
    <glyph glyph-name="egrave" unicode="&#xe8;" horiz-adv-x="524" 
d="M40 244c0 37.333 5.83301 71.8311 17.5 103.498s28 58.834 49 81.501s45.667 40.167 74 52.5s58.833 18.5 91.5 18.5c32 0 61.167 -5.16699 87.5 -15.5s49.166 -25.666 68.499 -45.999s34.166 -44.833 44.499 -73.5s15.5 -61 15.5 -97v-36h-356
c0.666992 -25.333 4.66699 -48.333 12 -69s17.333 -38.334 30 -53.001s27.5 -26 44.5 -34s36.167 -12 57.5 -12c17.333 0 33 2.16699 47 6.5s26 10.5 36 18.5s18 17 24 27s10.333 20.667 13 32h88c-3.33301 -22 -10.666 -42.667 -21.999 -62s-26.166 -36.333 -44.499 -51
s-39.5 -26.167 -63.5 -34.5s-50 -12.5 -78 -12.5c-37.333 0 -70.833 6 -100.5 18s-54.5 29.167 -74.5 51.5s-35.167 49.333 -45.5 81s-15.5 66.834 -15.5 105.501v0zM272 423.998c-16.667 0 -32.3301 -2.83301 -46.9971 -8.5s-27.834 -14 -39.501 -25
s-21.667 -24.333 -30 -40s-14.5 -33.167 -18.5 -52.5h261c-2 22 -6.16699 40.833 -12.5 56.5s-14.833 28.667 -25.5 39s-23.334 18 -38.001 23s-31.334 7.5 -50.001 7.5v0zM240.004 567.998l-144 164h104l104 -164h-64z" />
    <glyph glyph-name="eacute" unicode="&#xe9;" horiz-adv-x="524" 
d="M40 244c0 37.333 5.83301 71.8311 17.5 103.498s28 58.834 49 81.501s45.667 40.167 74 52.5s58.833 18.5 91.5 18.5c32 0 61.167 -5.16699 87.5 -15.5s49.166 -25.666 68.499 -45.999s34.166 -44.833 44.499 -73.5s15.5 -61 15.5 -97v-36h-356
c0.666992 -25.333 4.66699 -48.333 12 -69s17.333 -38.334 30 -53.001s27.5 -26 44.5 -34s36.167 -12 57.5 -12c17.333 0 33 2.16699 47 6.5s26 10.5 36 18.5s18 17 24 27s10.333 20.667 13 32h88c-3.33301 -22 -10.666 -42.667 -21.999 -62s-26.166 -36.333 -44.499 -51
s-39.5 -26.167 -63.5 -34.5s-50 -12.5 -78 -12.5c-37.333 0 -70.833 6 -100.5 18s-54.5 29.167 -74.5 51.5s-35.167 49.333 -45.5 81s-15.5 66.834 -15.5 105.501v0zM272 423.998c-16.667 0 -32.3301 -2.83301 -46.9971 -8.5s-27.834 -14 -39.501 -25
s-21.667 -24.333 -30 -40s-14.5 -33.167 -18.5 -52.5h261c-2 22 -6.16699 40.833 -12.5 56.5s-14.833 28.667 -25.5 39s-23.334 18 -38.001 23s-31.334 7.5 -50.001 7.5v0zM240.004 567.998l104 164h104l-144 -164h-64z" />
    <glyph glyph-name="ecircumflex" unicode="&#xea;" horiz-adv-x="524" 
d="M40 244c0 37.333 5.83301 71.8311 17.5 103.498s28 58.834 49 81.501s45.667 40.167 74 52.5s58.833 18.5 91.5 18.5c32 0 61.167 -5.16699 87.5 -15.5s49.166 -25.666 68.499 -45.999s34.166 -44.833 44.499 -73.5s15.5 -61 15.5 -97v-36h-356
c0.666992 -25.333 4.66699 -48.333 12 -69s17.333 -38.334 30 -53.001s27.5 -26 44.5 -34s36.167 -12 57.5 -12c17.333 0 33 2.16699 47 6.5s26 10.5 36 18.5s18 17 24 27s10.333 20.667 13 32h88c-3.33301 -22 -10.666 -42.667 -21.999 -62s-26.166 -36.333 -44.499 -51
s-39.5 -26.167 -63.5 -34.5s-50 -12.5 -78 -12.5c-37.333 0 -70.833 6 -100.5 18s-54.5 29.167 -74.5 51.5s-35.167 49.333 -45.5 81s-15.5 66.834 -15.5 105.501v0zM272 423.998c-16.667 0 -32.3301 -2.83301 -46.9971 -8.5s-27.834 -14 -39.501 -25
s-21.667 -24.333 -30 -40s-14.5 -33.167 -18.5 -52.5h261c-2 22 -6.16699 40.833 -12.5 56.5s-14.833 28.667 -25.5 39s-23.334 18 -38.001 23s-31.334 7.5 -50.001 7.5v0zM104.004 567.998l128 164h80l128 -164h-84l-84 112l-84 -112h-84z" />
    <glyph glyph-name="edieresis" unicode="&#xeb;" horiz-adv-x="524" 
d="M40 244c0 37.333 5.83301 71.8311 17.5 103.498s28 58.834 49 81.501s45.667 40.167 74 52.5s58.833 18.5 91.5 18.5c32 0 61.167 -5.16699 87.5 -15.5s49.166 -25.666 68.499 -45.999s34.166 -44.833 44.499 -73.5s15.5 -61 15.5 -97v-36h-356
c0.666992 -25.333 4.66699 -48.333 12 -69s17.333 -38.334 30 -53.001s27.5 -26 44.5 -34s36.167 -12 57.5 -12c17.333 0 33 2.16699 47 6.5s26 10.5 36 18.5s18 17 24 27s10.333 20.667 13 32h88c-3.33301 -22 -10.666 -42.667 -21.999 -62s-26.166 -36.333 -44.499 -51
s-39.5 -26.167 -63.5 -34.5s-50 -12.5 -78 -12.5c-37.333 0 -70.833 6 -100.5 18s-54.5 29.167 -74.5 51.5s-35.167 49.333 -45.5 81s-15.5 66.834 -15.5 105.501v0zM272 423.998c-16.667 0 -32.3301 -2.83301 -46.9971 -8.5s-27.834 -14 -39.501 -25
s-21.667 -24.333 -30 -40s-14.5 -33.167 -18.5 -52.5h261c-2 22 -6.16699 40.833 -12.5 56.5s-14.833 28.667 -25.5 39s-23.334 18 -38.001 23s-31.334 7.5 -50.001 7.5v0zM328.004 603.998v92h88v-92h-88zM128.004 603.998v92h88v-92h-88z" />
    <glyph glyph-name="igrave" unicode="&#xec;" horiz-adv-x="240" 
d="M76 0v488h88v-488h-88zM88 568l-144 164h104l104 -164h-64z" />
    <glyph glyph-name="iacute" unicode="&#xed;" horiz-adv-x="240" 
d="M76 0v488h88v-488h-88zM88 568l104 164h104l-144 -164h-64z" />
    <glyph glyph-name="icircumflex" unicode="&#xee;" horiz-adv-x="240" 
d="M76 0v488h88v-488h-88zM-48 568l128 164h80l128 -164h-84l-84 112l-84 -112h-84z" />
    <glyph glyph-name="idieresis" unicode="&#xef;" horiz-adv-x="240" 
d="M76 0v488h88v-488h-88zM176 604v92h88v-92h-88zM-24 604v92h88v-92h-88z" />
    <glyph glyph-name="eth" unicode="&#xf0;" horiz-adv-x="576" 
d="M204 520l-32 48l90 62c-8.66699 4.66699 -18 9.16699 -28 13.5l-31 13c-10.667 4.33301 -22 8.33301 -34 12l-37 11.5l20 64c16.667 -4.66699 32.834 -9.5 48.501 -14.5s30.834 -10.333 45.501 -16s28.667 -11.667 42 -18s26.333 -13.166 39 -20.499l101 69l32 -48
l-81 -56c24 -18.667 45.333 -39.5 64 -62.5s34.667 -49.167 48 -78.5s23.5 -63 30.5 -101s10.5 -80.333 10.5 -127v-3c0 -44 -6 -83.5 -18 -118.5s-29 -64.5 -51 -88.5s-47.833 -42.167 -77.5 -54.5s-62.167 -18.5 -97.5 -18.5c-36.667 0 -70 5.83301 -100 17.5
s-55.833 28.334 -77.5 50.001s-38.167 47.167 -49.5 76.5s-17 61.333 -17 96c0 34 6.16699 65.833 18.5 95.5s29.5 55.334 51.5 77.001s47.167 38.334 75.5 50.001s58.5 17.5 90.5 17.5c12.667 0 25.667 -1.16699 39 -3.5s26.666 -5.83301 39.999 -10.5
s26 -10.834 38 -18.501s22.333 -16.834 31 -27.501h5c-6 20.667 -12.833 40 -20.5 58s-16.334 34.667 -26.001 50s-20.5 29.666 -32.5 42.999s-25.333 25.666 -40 36.999zM136 228c0 -23.333 3.66797 -45.166 11.001 -65.499s18 -37.833 32 -52.5s30.167 -26 48.5 -34
s38.5 -12 60.5 -12s42.167 4 60.5 12s34.5 19.333 48.5 34s24.667 32.167 32 52.5s11 42.166 11 65.499c0 24.667 -3.66699 47.167 -11 67.5s-17.833 37.666 -31.5 51.999s-29.834 25.333 -48.501 33s-39 11.5 -61 11.5s-42.167 -4 -60.5 -12s-34.5 -19.333 -48.5 -34
s-24.667 -32.167 -32 -52.5s-11 -42.166 -11 -65.499v0z" />
    <glyph glyph-name="ntilde" unicode="&#xf1;" horiz-adv-x="564" 
d="M76 0l0.00195312 488h84v-72h4c6.66699 14 15 26.167 25 36.5s21.5 19 34.5 26s27.167 12.333 42.5 16s32 5.5 50 5.5c25.333 0 48.666 -3.66699 69.999 -11s40.333 -19 57 -35s29.667 -37.167 39 -63.5s14 -57.833 14 -94.5v-296h-88v284c0 25.333 -2.66699 47 -8 65
s-12.833 32.5 -22.5 43.5s-21.334 19 -35.001 24s-29.167 7.5 -46.5 7.5c-18.667 0 -36 -4 -52 -12s-30 -19.333 -42 -34s-21.333 -32.667 -28 -54s-10 -45 -10 -71v-253h-88zM120.002 596c0.666992 15.333 3.16699 29.5 7.5 42.5s10.666 24.5 18.999 34.5
s18.333 17.667 30 23s24.834 8 39.501 8c13.333 0 26.166 -2.16699 38.499 -6.5s26.833 -10.666 43.5 -18.999s28.667 -14.166 36 -17.499s14.666 -5 21.999 -5c6.66699 0 12.5 1.33301 17.5 4s9.33301 6.33398 13 11.001s6.5 9.83398 8.5 15.501s3.66699 11.5 5 17.5h48
c-0.666992 -15.333 -3.16699 -29.5 -7.5 -42.5s-10.666 -24.5 -18.999 -34.5s-18.333 -17.667 -30 -23s-24.834 -8 -39.501 -8c-13.333 0 -26.166 2.16699 -38.499 6.5s-26.833 10.666 -43.5 18.999s-28.667 14.166 -36 17.499s-14.666 5 -21.999 5
c-6.66699 0 -12.5 -1.33301 -17.5 -4s-9.33301 -6.33398 -13 -11.001s-6.5 -9.83398 -8.5 -15.501s-3.66699 -11.5 -5 -17.5h-48z" />
    <glyph glyph-name="ograve" unicode="&#xf2;" horiz-adv-x="560" 
d="M40 244c0 38.667 5.83301 73.834 17.5 105.501s28.334 58.667 50.001 81s47.167 39.5 76.5 51.5s61.333 18 96 18c36.667 0 69.834 -6 99.501 -18s55 -29.167 76 -51.5s37 -49.333 48 -81s16.5 -66.834 16.5 -105.501s-5.83301 -73.834 -17.5 -105.501
s-28.334 -58.667 -50.001 -81s-47.167 -39.5 -76.5 -51.5s-61.333 -18 -96 -18c-36.667 0 -69.834 6 -99.501 18s-55 29.167 -76 51.5s-37 49.333 -48 81s-16.5 66.834 -16.5 105.501v0zM132 244c0 -26.667 3.5 -51.165 10.5 -73.498s17.167 -41.333 30.5 -57
s29 -27.834 47 -36.501s38 -13 60 -13s42 4.33301 60 13s33.667 20.834 47 36.501s23.5 34.667 30.5 57s10.5 46.833 10.5 73.5c0 27.333 -3.5 52.166 -10.5 74.499s-17.167 41.333 -30.5 57s-29 27.667 -47 36s-38 12.5 -60 12.5s-42 -4.33301 -60 -13
s-33.667 -20.834 -47 -36.501s-23.5 -34.667 -30.5 -57s-10.5 -46.833 -10.5 -73.5v0zM248 568.002l-144 164h104l104 -164h-64z" />
    <glyph glyph-name="oacute" unicode="&#xf3;" horiz-adv-x="560" 
d="M40 244c0 38.667 5.83301 73.834 17.5 105.501s28.334 58.667 50.001 81s47.167 39.5 76.5 51.5s61.333 18 96 18c36.667 0 69.834 -6 99.501 -18s55 -29.167 76 -51.5s37 -49.333 48 -81s16.5 -66.834 16.5 -105.501s-5.83301 -73.834 -17.5 -105.501
s-28.334 -58.667 -50.001 -81s-47.167 -39.5 -76.5 -51.5s-61.333 -18 -96 -18c-36.667 0 -69.834 6 -99.501 18s-55 29.167 -76 51.5s-37 49.333 -48 81s-16.5 66.834 -16.5 105.501v0zM132 244c0 -26.667 3.5 -51.165 10.5 -73.498s17.167 -41.333 30.5 -57
s29 -27.834 47 -36.501s38 -13 60 -13s42 4.33301 60 13s33.667 20.834 47 36.501s23.5 34.667 30.5 57s10.5 46.833 10.5 73.5c0 27.333 -3.5 52.166 -10.5 74.499s-17.167 41.333 -30.5 57s-29 27.667 -47 36s-38 12.5 -60 12.5s-42 -4.33301 -60 -13
s-33.667 -20.834 -47 -36.501s-23.5 -34.667 -30.5 -57s-10.5 -46.833 -10.5 -73.5v0zM248 568.002l104 164h104l-144 -164h-64z" />
    <glyph glyph-name="ocircumflex" unicode="&#xf4;" horiz-adv-x="560" 
d="M40 244c0 38.667 5.83301 73.834 17.5 105.501s28.334 58.667 50.001 81s47.167 39.5 76.5 51.5s61.333 18 96 18c36.667 0 69.834 -6 99.501 -18s55 -29.167 76 -51.5s37 -49.333 48 -81s16.5 -66.834 16.5 -105.501s-5.83301 -73.834 -17.5 -105.501
s-28.334 -58.667 -50.001 -81s-47.167 -39.5 -76.5 -51.5s-61.333 -18 -96 -18c-36.667 0 -69.834 6 -99.501 18s-55 29.167 -76 51.5s-37 49.333 -48 81s-16.5 66.834 -16.5 105.501v0zM132 244c0 -26.667 3.5 -51.165 10.5 -73.498s17.167 -41.333 30.5 -57
s29 -27.834 47 -36.501s38 -13 60 -13s42 4.33301 60 13s33.667 20.834 47 36.501s23.5 34.667 30.5 57s10.5 46.833 10.5 73.5c0 27.333 -3.5 52.166 -10.5 74.499s-17.167 41.333 -30.5 57s-29 27.667 -47 36s-38 12.5 -60 12.5s-42 -4.33301 -60 -13
s-33.667 -20.834 -47 -36.501s-23.5 -34.667 -30.5 -57s-10.5 -46.833 -10.5 -73.5v0zM112 568.002l128 164h80l128 -164h-84l-84 112l-84 -112h-84z" />
    <glyph glyph-name="otilde" unicode="&#xf5;" horiz-adv-x="560" 
d="M40 244c0 38.667 5.83301 73.834 17.5 105.501s28.334 58.667 50.001 81s47.167 39.5 76.5 51.5s61.333 18 96 18c36.667 0 69.834 -6 99.501 -18s55 -29.167 76 -51.5s37 -49.333 48 -81s16.5 -66.834 16.5 -105.501s-5.83301 -73.834 -17.5 -105.501
s-28.334 -58.667 -50.001 -81s-47.167 -39.5 -76.5 -51.5s-61.333 -18 -96 -18c-36.667 0 -69.834 6 -99.501 18s-55 29.167 -76 51.5s-37 49.333 -48 81s-16.5 66.834 -16.5 105.501v0zM132 244c0 -26.667 3.5 -51.165 10.5 -73.498s17.167 -41.333 30.5 -57
s29 -27.834 47 -36.501s38 -13 60 -13s42 4.33301 60 13s33.667 20.834 47 36.501s23.5 34.667 30.5 57s10.5 46.833 10.5 73.5c0 27.333 -3.5 52.166 -10.5 74.499s-17.167 41.333 -30.5 57s-29 27.667 -47 36s-38 12.5 -60 12.5s-42 -4.33301 -60 -13
s-33.667 -20.834 -47 -36.501s-23.5 -34.667 -30.5 -57s-10.5 -46.833 -10.5 -73.5v0zM116 596.002c0.666992 15.333 3.16699 29.5 7.5 42.5s10.666 24.5 18.999 34.5s18.333 17.667 30 23s24.834 8 39.501 8c13.333 0 26.166 -2.16699 38.499 -6.5
s26.833 -10.666 43.5 -18.999s28.667 -14.166 36 -17.499s14.666 -5 21.999 -5c6.66699 0 12.5 1.33301 17.5 4s9.33301 6.33398 13 11.001s6.5 9.83398 8.5 15.501s3.66699 11.5 5 17.5h48c-0.666992 -15.333 -3.16699 -29.5 -7.5 -42.5s-10.666 -24.5 -18.999 -34.5
s-18.333 -17.667 -30 -23s-24.834 -8 -39.501 -8c-13.333 0 -26.166 2.16699 -38.499 6.5s-26.833 10.666 -43.5 18.999s-28.667 14.166 -36 17.499s-14.666 5 -21.999 5c-6.66699 0 -12.5 -1.33301 -17.5 -4s-9.33301 -6.33398 -13 -11.001s-6.5 -9.83398 -8.5 -15.501
s-3.66699 -11.5 -5 -17.5h-48z" />
    <glyph glyph-name="odieresis" unicode="&#xf6;" horiz-adv-x="560" 
d="M40 244c0 38.667 5.83301 73.834 17.5 105.501s28.334 58.667 50.001 81s47.167 39.5 76.5 51.5s61.333 18 96 18c36.667 0 69.834 -6 99.501 -18s55 -29.167 76 -51.5s37 -49.333 48 -81s16.5 -66.834 16.5 -105.501s-5.83301 -73.834 -17.5 -105.501
s-28.334 -58.667 -50.001 -81s-47.167 -39.5 -76.5 -51.5s-61.333 -18 -96 -18c-36.667 0 -69.834 6 -99.501 18s-55 29.167 -76 51.5s-37 49.333 -48 81s-16.5 66.834 -16.5 105.501v0zM132 244c0 -26.667 3.5 -51.165 10.5 -73.498s17.167 -41.333 30.5 -57
s29 -27.834 47 -36.501s38 -13 60 -13s42 4.33301 60 13s33.667 20.834 47 36.501s23.5 34.667 30.5 57s10.5 46.833 10.5 73.5c0 27.333 -3.5 52.166 -10.5 74.499s-17.167 41.333 -30.5 57s-29 27.667 -47 36s-38 12.5 -60 12.5s-42 -4.33301 -60 -13
s-33.667 -20.834 -47 -36.501s-23.5 -34.667 -30.5 -57s-10.5 -46.833 -10.5 -73.5v0zM336 604.002v92h88v-92h-88zM136 604.002v92h88v-92h-88z" />
    <glyph glyph-name="divide" unicode="&#xf7;" 
d="M236 380v100h96v-100h-96zM56 216v76h456v-76h-456zM236 26v100h96v-100h-96z" />
    <glyph glyph-name="oslash" unicode="&#xf8;" horiz-adv-x="560" 
d="M40 -12l60.001 74.001c-10 11.333 -18.667 23.666 -26 36.999s-13.5 27.5 -18.5 42.5s-8.83301 31.167 -11.5 48.5s-4 35.333 -4 54c0 38.667 5.83301 73.834 17.5 105.501s28.334 58.667 50.001 81s47.167 39.5 76.5 51.5s61.333 18 96 18
c14 0 27.5 -0.833008 40.5 -2.5s25.333 -4.33398 37 -8.00098s23 -8 34 -13s21.167 -10.833 30.5 -17.5l34 41h64l-61 -75c10 -11.333 18.667 -23.5 26 -36.5s13.666 -27.167 18.999 -42.5s9.33301 -31.5 12 -48.5s4 -34.833 4 -53.5
c0 -38.667 -5.83301 -73.834 -17.5 -105.501s-28.334 -58.667 -50.001 -81s-47.167 -39.5 -76.5 -51.5s-61.333 -18 -96 -18c-14 0 -27.5 0.833008 -40.5 2.5s-25.5 4.33398 -37.5 8.00098s-23.5 8 -34.5 13s-21.167 10.833 -30.5 17.5l-33 -41h-64zM132.001 244.001
c0 -10.667 0.501953 -21.002 1.50195 -31.002s2.66699 -19.667 5 -29s5.16602 -18.166 8.49902 -26.499s7 -16.166 11 -23.499l211 259c-6 5.33301 -12.333 9.83301 -19 13.5s-13.834 6.83398 -21.501 9.50098s-15.5 4.66699 -23.5 6s-16.333 2 -25 2
c-22 0 -42 -4.33301 -60 -13s-33.667 -20.834 -47 -36.501s-23.5 -34.667 -30.5 -57s-10.5 -46.833 -10.5 -73.5v0zM428.003 243.999c0 10.667 -0.501953 21.168 -1.50195 31.501s-2.66699 20 -5 29s-5.16602 17.667 -8.49902 26s-7 16.166 -11 23.499l-211 -259
c6 -5.33301 12.333 -9.83301 19 -13.5s13.834 -6.83398 21.501 -9.50098s15.5 -4.66699 23.5 -6s16.333 -2 25 -2c22 0 42 4.33301 60 13s33.667 20.834 47 36.501s23.5 34.667 30.5 57s10.5 46.833 10.5 73.5v0z" />
    <glyph glyph-name="ugrave" unicode="&#xf9;" horiz-adv-x="560" 
d="M68 192l-0.00585938 296.002h88v-284c0 -25.333 2.66699 -47 8 -65s12.833 -32.5 22.5 -43.5s21.334 -19 35.001 -24s29.167 -7.5 46.5 -7.5c18.667 0 35.834 4 51.501 12s29.334 19.667 41.001 35s20.5 33.666 26.5 54.999s9 44.666 9 69.999v252h88v-488h-84v72h-4
c-7.33301 -14 -15.666 -26.333 -24.999 -37s-20.166 -19.5 -32.499 -26.5s-26 -12.167 -41 -15.5s-31.5 -5 -49.5 -5c-25.333 0 -48.666 3.66699 -69.999 11s-40.333 19 -57 35s-29.667 37.167 -39 63.5s-14 57.833 -14 94.5v0zM249.994 568.002l-144 164h104l104 -164h-64z
" />
    <glyph glyph-name="uacute" unicode="&#xfa;" horiz-adv-x="560" 
d="M68 192l-0.00585938 296.002h88v-284c0 -25.333 2.66699 -47 8 -65s12.833 -32.5 22.5 -43.5s21.334 -19 35.001 -24s29.167 -7.5 46.5 -7.5c18.667 0 35.834 4 51.501 12s29.334 19.667 41.001 35s20.5 33.666 26.5 54.999s9 44.666 9 69.999v252h88v-488h-84v72h-4
c-7.33301 -14 -15.666 -26.333 -24.999 -37s-20.166 -19.5 -32.499 -26.5s-26 -12.167 -41 -15.5s-31.5 -5 -49.5 -5c-25.333 0 -48.666 3.66699 -69.999 11s-40.333 19 -57 35s-29.667 37.167 -39 63.5s-14 57.833 -14 94.5v0zM249.994 568.002l104 164h104l-144 -164h-64z
" />
    <glyph glyph-name="ucircumflex" unicode="&#xfb;" horiz-adv-x="560" 
d="M68 192l-0.00585938 296.002h88v-284c0 -25.333 2.66699 -47 8 -65s12.833 -32.5 22.5 -43.5s21.334 -19 35.001 -24s29.167 -7.5 46.5 -7.5c18.667 0 35.834 4 51.501 12s29.334 19.667 41.001 35s20.5 33.666 26.5 54.999s9 44.666 9 69.999v252h88v-488h-84v72h-4
c-7.33301 -14 -15.666 -26.333 -24.999 -37s-20.166 -19.5 -32.499 -26.5s-26 -12.167 -41 -15.5s-31.5 -5 -49.5 -5c-25.333 0 -48.666 3.66699 -69.999 11s-40.333 19 -57 35s-29.667 37.167 -39 63.5s-14 57.833 -14 94.5v0zM113.994 568.002l128 164h80l128 -164h-84
l-84 112l-84 -112h-84z" />
    <glyph glyph-name="udieresis" unicode="&#xfc;" horiz-adv-x="560" 
d="M68 192l-0.00585938 296.002h88v-284c0 -25.333 2.66699 -47 8 -65s12.833 -32.5 22.5 -43.5s21.334 -19 35.001 -24s29.167 -7.5 46.5 -7.5c18.667 0 35.834 4 51.501 12s29.334 19.667 41.001 35s20.5 33.666 26.5 54.999s9 44.666 9 69.999v252h88v-488h-84v72h-4
c-7.33301 -14 -15.666 -26.333 -24.999 -37s-20.166 -19.5 -32.499 -26.5s-26 -12.167 -41 -15.5s-31.5 -5 -49.5 -5c-25.333 0 -48.666 3.66699 -69.999 11s-40.333 19 -57 35s-29.667 37.167 -39 63.5s-14 57.833 -14 94.5v0zM337.994 604.002v92h88v-92h-88z
M137.994 604.002v92h88v-92h-88z" />
    <glyph glyph-name="yacute" unicode="&#xfd;" horiz-adv-x="468" 
d="M33 -152l31.999 0.00195312c14 0 27 2.16699 39 6.5s23 10.666 33 18.999s19 18.666 27 30.999s15 26.833 21 43.5l11 31l-192 509h96l136 -392h4l136 392h88l-207 -564c-7.33301 -20 -16 -38.833 -26 -56.5s-22 -33.667 -36 -48s-30.667 -25.833 -50 -34.5
s-40.666 -13 -63.999 -13h-48v76zM199.999 568.002l104 164h104l-144 -164h-64z" />
    <glyph glyph-name="thorn" unicode="&#xfe;" horiz-adv-x="584" 
d="M544 248c0 -39.333 -5.66406 -75 -16.9971 -107s-27.333 -59.5 -48 -82.5s-44.667 -40.5 -72 -52.5s-56.333 -18 -87 -18c-17.333 0 -33.666 1.66699 -48.999 5s-29.666 8.5 -42.999 15.5s-25.333 16 -36 27s-20 24.5 -28 40.5h-4l2 -46
c0.666992 -16 1.16699 -31.167 1.5 -45.5s0.5 -26.833 0.5 -37.5v-35v-132h-88v952h88v-156v-35c0 -10.667 -0.166992 -23.167 -0.5 -37.5s-0.833008 -29.5 -1.5 -45.5l-2 -46h4c8 15.333 17.667 28.666 29 39.999s24.166 20.5 38.499 27.5s29.666 12.167 45.999 15.5
s33.166 5 50.499 5c31.333 0 60.166 -5.66699 86.499 -17s49.166 -27.833 68.499 -49.5s34.333 -48.167 45 -79.5s16 -66.666 16 -105.999v0zM452.003 248c0 28 -3.66699 53.166 -11 75.499s-17.5 40.833 -30.5 55.5s-28.333 25.834 -46 33.501s-36.5 11.5 -56.5 11.5
c-19.333 0 -37.666 -3.83301 -54.999 -11.5s-32.5 -18.834 -45.5 -33.501s-23.333 -32.667 -31 -54s-11.834 -45.666 -12.501 -72.999v-8c0 -28 3.66699 -53.333 11 -76s17.5 -41.667 30.5 -57s28.333 -27 46 -35s36.5 -12 56.5 -12s38.833 4.16699 56.5 12.5
s33 20.5 46 36.5s23.167 35.5 30.5 58.5s11 48.5 11 76.5v0z" />
    <glyph glyph-name="ydieresis" unicode="&#xff;" horiz-adv-x="468" 
d="M33 -152l31.999 0.00195312c14 0 27 2.16699 39 6.5s23 10.666 33 18.999s19 18.666 27 30.999s15 26.833 21 43.5l11 31l-192 509h96l136 -392h4l136 392h88l-207 -564c-7.33301 -20 -16 -38.833 -26 -56.5s-22 -33.667 -36 -48s-30.667 -25.833 -50 -34.5
s-40.666 -13 -63.999 -13h-48v76zM287.999 604.002v92h88v-92h-88zM87.999 604.002v92h88v-92h-88z" />
    <glyph glyph-name="Amacron" unicode="&#x100;" horiz-adv-x="644" 
d="M12 0l256 688h108l256 -688h-96l-65 180h-302l-65 -180h-92zM322 592h-4l-120 -332h244zM180 776v68h276v-68h-276z" />
    <glyph glyph-name="amacron" unicode="&#x101;" horiz-adv-x="524" 
d="M48 124c0 20.667 3.00195 38.9932 9.00195 54.9932s15.5 30.333 28.5 43s29.5 23.334 49.5 32.001s44.333 15.334 73 20.001l96 16c14 2.66699 25 5 33 7s14.167 4.33301 18.5 7s7.5 5.83398 9.5 9.50098s3 8.5 3 14.5c0 14.667 -2.16699 28.167 -6.5 40.5
s-10.833 23 -19.5 32s-19.667 15.833 -33 20.5s-28.333 7 -45 7c-17.333 0 -32.833 -2.16699 -46.5 -6.5s-25.167 -10.666 -34.5 -18.999s-16.5 -18.166 -21.5 -29.499s-8.16699 -23.666 -9.5 -36.999h-84c1.33301 23.333 6.5 45 15.5 65s21.833 37.333 38.5 52
s37 26.167 61 34.5s51 12.5 81 12.5c31.333 0 59.166 -4 83.499 -12s44.5 -19.833 60.5 -35.5s28 -34.667 36 -57s12 -47.5 12 -75.5v-320h-84v65h-4c-6.66699 -12.667 -15.334 -23.834 -26.001 -33.501s-22.667 -17.667 -36 -24s-27.833 -11.166 -43.5 -14.499
s-32.5 -5 -50.5 -5c-25.333 0 -48.333 3.16699 -69 9.5s-38 15.5 -52 27.5s-24.667 26.333 -32 43s-11 35.334 -11 56.001v0zM368.002 203.993l-0.00390625 47.0068c-2.66699 -2.66699 -5.66699 -5.33398 -9 -8.00098s-7.16602 -4.83398 -11.499 -6.50098
s-9.16602 -3.16699 -14.499 -4.5s-11 -2.66602 -17 -3.99902l-92 -16c-16 -2.66699 -29.5 -6.33398 -40.5 -11.001s-20 -10.334 -27 -17.001s-12.167 -14.334 -15.5 -23.001s-5 -18.334 -5 -29.001s1.83301 -20.334 5.5 -29.001s9.33398 -16.334 17.001 -23.001
s17.334 -11.667 29.001 -15s25.167 -5 40.5 -5c19.333 0 37.5 3 54.5 9s31.833 15.167 44.5 27.5s22.667 27.5 30 45.5s11 38.667 11 62v0zM119.998 616v68h276v-68h-276z" />
    <glyph glyph-name="Abreve" unicode="&#x102;" horiz-adv-x="644" 
d="M12 0l256 688h108l256 -688h-96l-65 180h-302l-65 -180h-92zM322 592h-4l-120 -332h244zM320 768c-16.667 0 -32.834 2.5 -48.501 7.5s-30.167 13 -43.5 24s-24.666 25.5 -33.999 43.5s-15.333 39.667 -18 65h56c2 -13.333 5.33301 -25.166 10 -35.499
s10.667 -19.166 18 -26.499s16 -12.833 26 -16.5s21.333 -5.5 34 -5.5s24 1.83301 34 5.5s18.667 9.16699 26 16.5s13.333 16.166 18 26.499s8 22.166 10 35.499h56c-2.66699 -25.333 -8.66699 -47 -18 -65s-20.666 -32.5 -33.999 -43.5s-27.833 -19 -43.5 -24
s-31.834 -7.5 -48.501 -7.5v0z" />
    <glyph glyph-name="abreve" unicode="&#x103;" horiz-adv-x="524" 
d="M48 124c0 20.667 3.00195 38.9932 9.00195 54.9932s15.5 30.333 28.5 43s29.5 23.334 49.5 32.001s44.333 15.334 73 20.001l96 16c14 2.66699 25 5 33 7s14.167 4.33301 18.5 7s7.5 5.83398 9.5 9.50098s3 8.5 3 14.5c0 14.667 -2.16699 28.167 -6.5 40.5
s-10.833 23 -19.5 32s-19.667 15.833 -33 20.5s-28.333 7 -45 7c-17.333 0 -32.833 -2.16699 -46.5 -6.5s-25.167 -10.666 -34.5 -18.999s-16.5 -18.166 -21.5 -29.499s-8.16699 -23.666 -9.5 -36.999h-84c1.33301 23.333 6.5 45 15.5 65s21.833 37.333 38.5 52
s37 26.167 61 34.5s51 12.5 81 12.5c31.333 0 59.166 -4 83.499 -12s44.5 -19.833 60.5 -35.5s28 -34.667 36 -57s12 -47.5 12 -75.5v-320h-84v65h-4c-6.66699 -12.667 -15.334 -23.834 -26.001 -33.501s-22.667 -17.667 -36 -24s-27.833 -11.166 -43.5 -14.499
s-32.5 -5 -50.5 -5c-25.333 0 -48.333 3.16699 -69 9.5s-38 15.5 -52 27.5s-24.667 26.333 -32 43s-11 35.334 -11 56.001v0zM368.002 203.993l-0.00390625 47.0068c-2.66699 -2.66699 -5.66699 -5.33398 -9 -8.00098s-7.16602 -4.83398 -11.499 -6.50098
s-9.16602 -3.16699 -14.499 -4.5s-11 -2.66602 -17 -3.99902l-92 -16c-16 -2.66699 -29.5 -6.33398 -40.5 -11.001s-20 -10.334 -27 -17.001s-12.167 -14.334 -15.5 -23.001s-5 -18.334 -5 -29.001s1.83301 -20.334 5.5 -29.001s9.33398 -16.334 17.001 -23.001
s17.334 -11.667 29.001 -15s25.167 -5 40.5 -5c19.333 0 37.5 3 54.5 9s31.833 15.167 44.5 27.5s22.667 27.5 30 45.5s11 38.667 11 62v0zM259.998 580c-16.667 0 -32.834 2.5 -48.501 7.5s-30.167 13 -43.5 24s-24.666 25.5 -33.999 43.5s-15.333 39.667 -18 65h56
c2 -13.333 5.33301 -25.166 10 -35.499s10.667 -19.166 18 -26.499s16 -12.833 26 -16.5s21.333 -5.5 34 -5.5s24 1.83301 34 5.5s18.667 9.16699 26 16.5s13.333 16.166 18 26.499s8 22.166 10 35.499h56c-2.66699 -25.333 -8.66699 -47 -18 -65
s-20.666 -32.5 -33.999 -43.5s-27.833 -19 -43.5 -24s-31.834 -7.5 -48.501 -7.5v0z" />
    <glyph glyph-name="Aogonek" unicode="&#x104;" horiz-adv-x="644" 
d="M504 -128c0 10.667 1.50293 21 4.50293 31s7.66699 20.333 14 31s14.5 21.5 24.5 32.5s22.333 22.167 37 33.5h-48l-65 180h-302l-65 -180h-92l256 688h108l256 -688c-10.667 -10.667 -19.834 -21.334 -27.501 -32.001s-13.834 -20.667 -18.501 -30
s-8.16699 -18.166 -10.5 -26.499s-3.5 -16.166 -3.5 -23.499s1 -14 3 -20s5.16699 -11 9.5 -15s10.166 -7.16699 17.499 -9.5s16 -3.5 26 -3.5h28v-60h-40c-18 0 -34 2.33301 -48 7s-25.667 11 -35 19s-16.5 17.667 -21.5 29s-7.5 23.666 -7.5 36.999v0zM322.003 592h-4
l-120 -332h244z" />
    <glyph glyph-name="aogonek" unicode="&#x105;" horiz-adv-x="524" 
d="M328 -128c0 10.667 1.50488 20.9932 4.50488 30.9932s7.66699 20.333 14 31s14.5 21.5 24.5 32.5s22.333 22.167 37 33.5h-36v65h-4c-6.66699 -12.667 -15.334 -23.834 -26.001 -33.501s-22.667 -17.667 -36 -24s-27.833 -11.166 -43.5 -14.499s-32.5 -5 -50.5 -5
c-25.333 0 -48.333 3.16699 -69 9.5s-38 15.5 -52 27.5s-24.667 26.333 -32 43s-11 35.334 -11 56.001s3 39 9 55s15.5 30.333 28.5 43s29.5 23.334 49.5 32.001s44.333 15.334 73 20.001l96 16c14 2.66699 25 5 33 7s14.167 4.33301 18.5 7s7.5 5.83398 9.5 9.50098
s3 8.5 3 14.5c0 14.667 -2.16699 28.167 -6.5 40.5s-10.833 23 -19.5 32s-19.667 15.833 -33 20.5s-28.333 7 -45 7c-17.333 0 -32.833 -2.16699 -46.5 -6.5s-25.167 -10.666 -34.5 -18.999s-16.5 -18.166 -21.5 -29.499s-8.16699 -23.666 -9.5 -36.999h-84
c1.33301 23.333 6.5 45 15.5 65s21.833 37.333 38.5 52s37 26.167 61 34.5s51 12.5 81 12.5c31.333 0 59.166 -4 83.499 -12s44.5 -19.833 60.5 -35.5s28 -34.667 36 -57s12 -47.5 12 -75.5v-320c-10.667 -10.667 -19.834 -21.334 -27.501 -32.001
s-13.834 -20.667 -18.501 -30s-8.16699 -18.166 -10.5 -26.499s-3.5 -16.166 -3.5 -23.499s1 -14 3 -20s5.16699 -11 9.5 -15s10.166 -7.16699 17.499 -9.5s16 -3.5 26 -3.5h28v-60h-40c-18 0 -34 2.33301 -48 7s-25.667 11 -35 19s-16.5 17.667 -21.5 29
s-7.5 23.666 -7.5 36.999v0zM368.005 203.993l-0.00390625 47.0068c-2.66699 -2.66699 -5.66699 -5.33398 -9 -8.00098s-7.16602 -4.83398 -11.499 -6.50098s-9.16602 -3.16699 -14.499 -4.5s-11 -2.66602 -17 -3.99902l-92 -16c-16 -2.66699 -29.5 -6.33398 -40.5 -11.001
s-20 -10.334 -27 -17.001s-12.167 -14.334 -15.5 -23.001s-5 -18.334 -5 -29.001s1.83301 -20.334 5.5 -29.001s9.33398 -16.334 17.001 -23.001s17.334 -11.667 29.001 -15s25.167 -5 40.5 -5c19.333 0 37.5 3 54.5 9s31.833 15.167 44.5 27.5s22.667 27.5 30 45.5
s11 38.667 11 62v0z" />
    <glyph glyph-name="Cacute" unicode="&#x106;" horiz-adv-x="712" 
d="M44 344c0 50.667 7.99414 97.833 23.9941 141.5s38.833 81.5 68.5 113.5s64.834 56.833 105.501 74.5s85.334 26.5 134.001 26.5c39.333 0 75.5 -5.5 108.5 -16.5s62 -26.5 87 -46.5s45.5 -44 61.5 -72s27.667 -59 35 -93h-95c-6.66699 23.333 -15.667 44 -27 62
s-25.166 33 -41.499 45s-35.333 21.167 -57 27.5s-45.5 9.5 -71.5 9.5c-34.667 0 -66.5 -6.5 -95.5 -19.5s-54 -31.667 -75 -56s-37.167 -53.333 -48.5 -87s-17 -70.167 -17 -109.5c0 -38.667 5.66699 -74.667 17 -108s27.333 -62.333 48 -87s45.167 -43.667 73.5 -57
s59.5 -20 93.5 -20c28 0 53.167 3.16699 75.5 9.5s41.666 15.5 57.999 27.5s30 27 41 45s19.833 38.667 26.5 62h95c-7.33301 -34 -19.166 -65 -35.499 -93s-37.333 -52 -63 -72s-55.167 -35.5 -88.5 -46.5s-69.666 -16.5 -108.999 -16.5
c-47.333 0 -91.166 8.66699 -131.499 26s-75.166 41.833 -104.499 73.5s-52 69.5 -68 113.5s-24 91.667 -24 143v0zM343.994 767.999l104 164h104l-144 -164h-64z" />
    <glyph glyph-name="cacute" unicode="&#x107;" horiz-adv-x="516" 
d="M40 244c0 38 5.83301 72.835 17.5 104.502s28 58.834 49 81.501s45.667 40 74 52s58.833 18 91.5 18c30.667 0 58.5 -4.33301 83.5 -13s46.5 -20.834 64.5 -36.501s32.333 -34.334 43 -56.001s17.667 -45.167 21 -70.5h-88c-2.66699 14.667 -7 28 -13 40
s-14.167 22.5 -24.5 31.5s-22.666 16 -36.999 21s-30.833 7.5 -49.5 7.5c-20 0 -38.5 -4.33301 -55.5 -13s-31.833 -21 -44.5 -37s-22.5 -35 -29.5 -57s-10.5 -46.333 -10.5 -73s3.5 -51 10.5 -73s16.833 -41 29.5 -57s27.5 -28.333 44.5 -37s35.5 -13 55.5 -13
c18.667 0 35.167 2.5 49.5 7.5s26.666 12 36.999 21s18.5 19.5 24.5 31.5s10.333 25.333 13 40h88c-3.33301 -25.333 -10.333 -48.833 -21 -70.5s-25 -40.334 -43 -56.001s-39.5 -27.834 -64.5 -36.501s-52.833 -13 -83.5 -13c-35.333 0 -67.5 6 -96.5 18
s-53.5 29.167 -73.5 51.5s-35.333 49.333 -46 81s-16 66.834 -16 105.501v0zM240 568.002l104 164h104l-144 -164h-64z" />
    <glyph glyph-name="Ccircumflex" unicode="&#x108;" horiz-adv-x="712" 
d="M44 344c0 50.667 7.99414 97.833 23.9941 141.5s38.833 81.5 68.5 113.5s64.834 56.833 105.501 74.5s85.334 26.5 134.001 26.5c39.333 0 75.5 -5.5 108.5 -16.5s62 -26.5 87 -46.5s45.5 -44 61.5 -72s27.667 -59 35 -93h-95c-6.66699 23.333 -15.667 44 -27 62
s-25.166 33 -41.499 45s-35.333 21.167 -57 27.5s-45.5 9.5 -71.5 9.5c-34.667 0 -66.5 -6.5 -95.5 -19.5s-54 -31.667 -75 -56s-37.167 -53.333 -48.5 -87s-17 -70.167 -17 -109.5c0 -38.667 5.66699 -74.667 17 -108s27.333 -62.333 48 -87s45.167 -43.667 73.5 -57
s59.5 -20 93.5 -20c28 0 53.167 3.16699 75.5 9.5s41.666 15.5 57.999 27.5s30 27 41 45s19.833 38.667 26.5 62h95c-7.33301 -34 -19.166 -65 -35.499 -93s-37.333 -52 -63 -72s-55.167 -35.5 -88.5 -46.5s-69.666 -16.5 -108.999 -16.5
c-47.333 0 -91.166 8.66699 -131.499 26s-75.166 41.833 -104.499 73.5s-52 69.5 -68 113.5s-24 91.667 -24 143v0zM207.994 767.999l128 164h80l128 -164h-84l-84 112l-84 -112h-84z" />
    <glyph glyph-name="ccircumflex" unicode="&#x109;" horiz-adv-x="516" 
d="M40 244c0 38 5.83301 72.835 17.5 104.502s28 58.834 49 81.501s45.667 40 74 52s58.833 18 91.5 18c30.667 0 58.5 -4.33301 83.5 -13s46.5 -20.834 64.5 -36.501s32.333 -34.334 43 -56.001s17.667 -45.167 21 -70.5h-88c-2.66699 14.667 -7 28 -13 40
s-14.167 22.5 -24.5 31.5s-22.666 16 -36.999 21s-30.833 7.5 -49.5 7.5c-20 0 -38.5 -4.33301 -55.5 -13s-31.833 -21 -44.5 -37s-22.5 -35 -29.5 -57s-10.5 -46.333 -10.5 -73s3.5 -51 10.5 -73s16.833 -41 29.5 -57s27.5 -28.333 44.5 -37s35.5 -13 55.5 -13
c18.667 0 35.167 2.5 49.5 7.5s26.666 12 36.999 21s18.5 19.5 24.5 31.5s10.333 25.333 13 40h88c-3.33301 -25.333 -10.333 -48.833 -21 -70.5s-25 -40.334 -43 -56.001s-39.5 -27.834 -64.5 -36.501s-52.833 -13 -83.5 -13c-35.333 0 -67.5 6 -96.5 18
s-53.5 29.167 -73.5 51.5s-35.333 49.333 -46 81s-16 66.834 -16 105.501v0zM104 568.002l128 164h80l128 -164h-84l-84 112l-84 -112h-84z" />
    <glyph glyph-name="Cdotaccent" unicode="&#x10a;" horiz-adv-x="712" 
d="M44 344c0 50.667 7.99414 97.833 23.9941 141.5s38.833 81.5 68.5 113.5s64.834 56.833 105.501 74.5s85.334 26.5 134.001 26.5c39.333 0 75.5 -5.5 108.5 -16.5s62 -26.5 87 -46.5s45.5 -44 61.5 -72s27.667 -59 35 -93h-95c-6.66699 23.333 -15.667 44 -27 62
s-25.166 33 -41.499 45s-35.333 21.167 -57 27.5s-45.5 9.5 -71.5 9.5c-34.667 0 -66.5 -6.5 -95.5 -19.5s-54 -31.667 -75 -56s-37.167 -53.333 -48.5 -87s-17 -70.167 -17 -109.5c0 -38.667 5.66699 -74.667 17 -108s27.333 -62.333 48 -87s45.167 -43.667 73.5 -57
s59.5 -20 93.5 -20c28 0 53.167 3.16699 75.5 9.5s41.666 15.5 57.999 27.5s30 27 41 45s19.833 38.667 26.5 62h95c-7.33301 -34 -19.166 -65 -35.499 -93s-37.333 -52 -63 -72s-55.167 -35.5 -88.5 -46.5s-69.666 -16.5 -108.999 -16.5
c-47.333 0 -91.166 8.66699 -131.499 26s-75.166 41.833 -104.499 73.5s-52 69.5 -68 113.5s-24 91.667 -24 143v0zM331.994 767.999v92h88v-92h-88z" />
    <glyph glyph-name="cdotaccent" unicode="&#x10b;" horiz-adv-x="516" 
d="M40 244c0 38 5.83301 72.835 17.5 104.502s28 58.834 49 81.501s45.667 40 74 52s58.833 18 91.5 18c30.667 0 58.5 -4.33301 83.5 -13s46.5 -20.834 64.5 -36.501s32.333 -34.334 43 -56.001s17.667 -45.167 21 -70.5h-88c-2.66699 14.667 -7 28 -13 40
s-14.167 22.5 -24.5 31.5s-22.666 16 -36.999 21s-30.833 7.5 -49.5 7.5c-20 0 -38.5 -4.33301 -55.5 -13s-31.833 -21 -44.5 -37s-22.5 -35 -29.5 -57s-10.5 -46.333 -10.5 -73s3.5 -51 10.5 -73s16.833 -41 29.5 -57s27.5 -28.333 44.5 -37s35.5 -13 55.5 -13
c18.667 0 35.167 2.5 49.5 7.5s26.666 12 36.999 21s18.5 19.5 24.5 31.5s10.333 25.333 13 40h88c-3.33301 -25.333 -10.333 -48.833 -21 -70.5s-25 -40.334 -43 -56.001s-39.5 -27.834 -64.5 -36.501s-52.833 -13 -83.5 -13c-35.333 0 -67.5 6 -96.5 18
s-53.5 29.167 -73.5 51.5s-35.333 49.333 -46 81s-16 66.834 -16 105.501v0zM228 604.002v92h88v-92h-88z" />
    <glyph glyph-name="Ccaron" unicode="&#x10c;" horiz-adv-x="712" 
d="M44 344c0 50.667 7.99414 97.833 23.9941 141.5s38.833 81.5 68.5 113.5s64.834 56.833 105.501 74.5s85.334 26.5 134.001 26.5c39.333 0 75.5 -5.5 108.5 -16.5s62 -26.5 87 -46.5s45.5 -44 61.5 -72s27.667 -59 35 -93h-95c-6.66699 23.333 -15.667 44 -27 62
s-25.166 33 -41.499 45s-35.333 21.167 -57 27.5s-45.5 9.5 -71.5 9.5c-34.667 0 -66.5 -6.5 -95.5 -19.5s-54 -31.667 -75 -56s-37.167 -53.333 -48.5 -87s-17 -70.167 -17 -109.5c0 -38.667 5.66699 -74.667 17 -108s27.333 -62.333 48 -87s45.167 -43.667 73.5 -57
s59.5 -20 93.5 -20c28 0 53.167 3.16699 75.5 9.5s41.666 15.5 57.999 27.5s30 27 41 45s19.833 38.667 26.5 62h95c-7.33301 -34 -19.166 -65 -35.499 -93s-37.333 -52 -63 -72s-55.167 -35.5 -88.5 -46.5s-69.666 -16.5 -108.999 -16.5
c-47.333 0 -91.166 8.66699 -131.499 26s-75.166 41.833 -104.499 73.5s-52 69.5 -68 113.5s-24 91.667 -24 143v0zM335.994 767.999l-128 164h84l84 -112l84 112h84l-128 -164h-80z" />
    <glyph glyph-name="ccaron" unicode="&#x10d;" horiz-adv-x="516" 
d="M40 244c0 38 5.83301 72.835 17.5 104.502s28 58.834 49 81.501s45.667 40 74 52s58.833 18 91.5 18c30.667 0 58.5 -4.33301 83.5 -13s46.5 -20.834 64.5 -36.501s32.333 -34.334 43 -56.001s17.667 -45.167 21 -70.5h-88c-2.66699 14.667 -7 28 -13 40
s-14.167 22.5 -24.5 31.5s-22.666 16 -36.999 21s-30.833 7.5 -49.5 7.5c-20 0 -38.5 -4.33301 -55.5 -13s-31.833 -21 -44.5 -37s-22.5 -35 -29.5 -57s-10.5 -46.333 -10.5 -73s3.5 -51 10.5 -73s16.833 -41 29.5 -57s27.5 -28.333 44.5 -37s35.5 -13 55.5 -13
c18.667 0 35.167 2.5 49.5 7.5s26.666 12 36.999 21s18.5 19.5 24.5 31.5s10.333 25.333 13 40h88c-3.33301 -25.333 -10.333 -48.833 -21 -70.5s-25 -40.334 -43 -56.001s-39.5 -27.834 -64.5 -36.501s-52.833 -13 -83.5 -13c-35.333 0 -67.5 6 -96.5 18
s-53.5 29.167 -73.5 51.5s-35.333 49.333 -46 81s-16 66.834 -16 105.501v0zM232 568.002l-128 164h84l84 -112l84 112h84l-128 -164h-80z" />
    <glyph glyph-name="Dcaron" unicode="&#x10e;" horiz-adv-x="704" 
d="M88 0v688.002h212c58 0 109.667 -8.33301 155 -25s83.166 -40.334 113.499 -71.001s53.166 -67 68.499 -109s23 -88.333 23 -139s-7.66699 -97 -23 -139s-38.166 -78.333 -68.499 -109s-68.166 -54.334 -113.499 -71.001s-97 -25 -155 -25h-212zM300 608.002
l-120 0.00195312v-528h120c46.667 0 87 7 121 21s61.5 33.167 82.5 57.5s36.333 52.166 46 83.499s14.5 65.333 14.5 102s-4.83301 70.667 -14.5 102s-25 59.166 -46 83.499s-48.5 43.5 -82.5 57.5s-74.333 21 -121 21v0zM284 768.004l-128 164h84l84 -112l84 112h84
l-128 -164h-80z" />
    <glyph glyph-name="dcaron" unicode="&#x10f;" horiz-adv-x="584" 
d="M40 240c0 39.333 5.66406 75 16.9971 107s27.333 59.5 48 82.5s44.667 40.5 72 52.5s56.333 18 87 18c17.333 0 33.666 -1.66699 48.999 -5s29.666 -8.5 42.999 -15.5s25.333 -16 36 -27s20 -24.5 28 -40.5h4l-2 46c-0.666992 16 -1.16699 31.167 -1.5 45.5
s-0.5 26.833 -0.5 37.5v35v156h88v-732h-84v76h-4c-8 -15.333 -17.667 -28.666 -29 -39.999s-24.166 -20.5 -38.499 -27.5s-29.666 -12.167 -45.999 -15.5s-33.166 -5 -50.499 -5c-31.333 0 -60.166 5.66699 -86.499 17s-49.166 27.833 -68.499 49.5
s-34.333 48.167 -45 79.5s-16 66.666 -16 105.999v0zM131.997 240c0 -28 3.66699 -53.167 11 -75.5s17.5 -40.833 30.5 -55.5s28.333 -25.834 46 -33.501s36.5 -11.5 56.5 -11.5c19.333 0 37.666 3.83301 54.999 11.5s32.5 18.834 45.5 33.501s23.333 32.667 31 54
s11.834 45.333 12.501 72v17c-0.666992 27.333 -4.83398 51.666 -12.501 72.999s-18 39.333 -31 54s-28.167 25.834 -45.5 33.501s-35.666 11.5 -54.999 11.5c-20 0 -38.833 -4.16699 -56.5 -12.5s-33 -20.5 -46 -36.5s-23.167 -35.5 -30.5 -58.5s-11 -48.5 -11 -76.5v0z
M595.997 516l28 116h-40v100h96v-92l-40 -124h-44z" />
    <glyph glyph-name="Dcroat" unicode="&#x110;" horiz-adv-x="704" 
d="M4 308v76.002h84v304h212c58 0 109.667 -8.33301 155 -25s83.166 -40.334 113.499 -71.001s53.166 -67 68.499 -109s23 -88.333 23 -139s-7.66699 -97 -23 -139s-38.166 -78.333 -68.499 -109s-68.166 -54.334 -113.499 -71.001s-97 -25 -155 -25h-212v308h-84z
M300 608.002l-120 0.00195312v-224h160v-76h-160v-228h120c46.667 0 87 7 121 21s61.5 33.167 82.5 57.5s36.333 52.166 46 83.499s14.5 65.333 14.5 102s-4.83301 70.667 -14.5 102s-25 59.166 -46 83.499s-48.5 43.5 -82.5 57.5s-74.333 21 -121 21v0z" />
    <glyph glyph-name="dcroat" unicode="&#x111;" horiz-adv-x="584" 
d="M276 592l-0.00292969 60h144v80h88v-80h76v-60h-76v-592h-84v76h-4c-8 -15.333 -17.667 -28.666 -29 -39.999s-24.166 -20.5 -38.499 -27.5s-29.666 -12.167 -45.999 -15.5s-33.166 -5 -50.499 -5c-31.333 0 -60.166 5.66699 -86.499 17s-49.166 27.833 -68.499 49.5
s-34.333 48.167 -45 79.5s-16 66.666 -16 105.999s5.66699 75 17 107s27.333 59.5 48 82.5s44.667 40.5 72 52.5s56.333 18 87 18c17.333 0 33.666 -1.66699 48.999 -5s29.666 -8.5 42.999 -15.5s25.333 -16 36 -27s20 -24.5 28 -40.5h4l-2 46
c-0.666992 16 -1.16699 31.167 -1.5 45.5s-0.5 26.833 -0.5 37.5v35v16h-144zM131.997 240c0 -28 3.66699 -53.167 11 -75.5s17.5 -40.833 30.5 -55.5s28.333 -25.834 46 -33.501s36.5 -11.5 56.5 -11.5c19.333 0 37.666 3.83301 54.999 11.5s32.5 18.834 45.5 33.501
s23.333 32.667 31 54s11.834 45.333 12.501 72v9c0 28 -3.66699 53.333 -11 76s-17.5 41.667 -30.5 57s-28.333 27 -46 35s-36.5 12 -56.5 12s-38.833 -4.16699 -56.5 -12.5s-33 -20.5 -46 -36.5s-23.167 -35.5 -30.5 -58.5s-11 -48.5 -11 -76.5v0z" />
    <glyph glyph-name="Emacron" unicode="&#x112;" horiz-adv-x="612" 
d="M88 0v688h464v-80h-372v-218h296v-80h-296v-230h380v-80h-472zM180 776v68h276v-68h-276z" />
    <glyph glyph-name="emacron" unicode="&#x113;" horiz-adv-x="524" 
d="M40 244c0 37.333 5.83301 71.8311 17.5 103.498s28 58.834 49 81.501s45.667 40.167 74 52.5s58.833 18.5 91.5 18.5c32 0 61.167 -5.16699 87.5 -15.5s49.166 -25.666 68.499 -45.999s34.166 -44.833 44.499 -73.5s15.5 -61 15.5 -97v-36h-356
c0.666992 -25.333 4.66699 -48.333 12 -69s17.333 -38.334 30 -53.001s27.5 -26 44.5 -34s36.167 -12 57.5 -12c17.333 0 33 2.16699 47 6.5s26 10.5 36 18.5s18 17 24 27s10.333 20.667 13 32h88c-3.33301 -22 -10.666 -42.667 -21.999 -62s-26.166 -36.333 -44.499 -51
s-39.5 -26.167 -63.5 -34.5s-50 -12.5 -78 -12.5c-37.333 0 -70.833 6 -100.5 18s-54.5 29.167 -74.5 51.5s-35.167 49.333 -45.5 81s-15.5 66.834 -15.5 105.501v0zM272 423.998c-16.667 0 -32.3301 -2.83301 -46.9971 -8.5s-27.834 -14 -39.501 -25
s-21.667 -24.333 -30 -40s-14.5 -33.167 -18.5 -52.5h261c-2 22 -6.16699 40.833 -12.5 56.5s-14.833 28.667 -25.5 39s-23.334 18 -38.001 23s-31.334 7.5 -50.001 7.5v0zM132.004 615.998v68h276v-68h-276z" />
    <glyph glyph-name="Ebreve" unicode="&#x114;" horiz-adv-x="612" 
d="M88 0v688h464v-80h-372v-218h296v-80h-296v-230h380v-80h-472zM320 768c-16.667 0 -32.834 2.5 -48.501 7.5s-30.167 13 -43.5 24s-24.666 25.5 -33.999 43.5s-15.333 39.667 -18 65h56c2 -13.333 5.33301 -25.166 10 -35.499s10.667 -19.166 18 -26.499
s16 -12.833 26 -16.5s21.333 -5.5 34 -5.5s24 1.83301 34 5.5s18.667 9.16699 26 16.5s13.333 16.166 18 26.499s8 22.166 10 35.499h56c-2.66699 -25.333 -8.66699 -47 -18 -65s-20.666 -32.5 -33.999 -43.5s-27.833 -19 -43.5 -24s-31.834 -7.5 -48.501 -7.5v0z" />
    <glyph glyph-name="ebreve" unicode="&#x115;" horiz-adv-x="524" 
d="M40 244c0 37.333 5.83301 71.8311 17.5 103.498s28 58.834 49 81.501s45.667 40.167 74 52.5s58.833 18.5 91.5 18.5c32 0 61.167 -5.16699 87.5 -15.5s49.166 -25.666 68.499 -45.999s34.166 -44.833 44.499 -73.5s15.5 -61 15.5 -97v-36h-356
c0.666992 -25.333 4.66699 -48.333 12 -69s17.333 -38.334 30 -53.001s27.5 -26 44.5 -34s36.167 -12 57.5 -12c17.333 0 33 2.16699 47 6.5s26 10.5 36 18.5s18 17 24 27s10.333 20.667 13 32h88c-3.33301 -22 -10.666 -42.667 -21.999 -62s-26.166 -36.333 -44.499 -51
s-39.5 -26.167 -63.5 -34.5s-50 -12.5 -78 -12.5c-37.333 0 -70.833 6 -100.5 18s-54.5 29.167 -74.5 51.5s-35.167 49.333 -45.5 81s-15.5 66.834 -15.5 105.501v0zM272 423.998c-16.667 0 -32.3301 -2.83301 -46.9971 -8.5s-27.834 -14 -39.501 -25
s-21.667 -24.333 -30 -40s-14.5 -33.167 -18.5 -52.5h261c-2 22 -6.16699 40.833 -12.5 56.5s-14.833 28.667 -25.5 39s-23.334 18 -38.001 23s-31.334 7.5 -50.001 7.5v0zM272.004 579.998c-16.667 0 -32.834 2.5 -48.501 7.5s-30.167 13 -43.5 24
s-24.666 25.5 -33.999 43.5s-15.333 39.667 -18 65h56c2 -13.333 5.33301 -25.166 10 -35.499s10.667 -19.166 18 -26.499s16 -12.833 26 -16.5s21.333 -5.5 34 -5.5s24 1.83301 34 5.5s18.667 9.16699 26 16.5s13.333 16.166 18 26.499s8 22.166 10 35.499h56
c-2.66699 -25.333 -8.66699 -47 -18 -65s-20.666 -32.5 -33.999 -43.5s-27.833 -19 -43.5 -24s-31.834 -7.5 -48.501 -7.5v0z" />
    <glyph glyph-name="Edotaccent" unicode="&#x116;" horiz-adv-x="612" 
d="M88 0v688h464v-80h-372v-218h296v-80h-296v-230h380v-80h-472zM276 768v92h88v-92h-88z" />
    <glyph glyph-name="edotaccent" unicode="&#x117;" horiz-adv-x="524" 
d="M40 244c0 37.333 5.83301 71.8311 17.5 103.498s28 58.834 49 81.501s45.667 40.167 74 52.5s58.833 18.5 91.5 18.5c32 0 61.167 -5.16699 87.5 -15.5s49.166 -25.666 68.499 -45.999s34.166 -44.833 44.499 -73.5s15.5 -61 15.5 -97v-36h-356
c0.666992 -25.333 4.66699 -48.333 12 -69s17.333 -38.334 30 -53.001s27.5 -26 44.5 -34s36.167 -12 57.5 -12c17.333 0 33 2.16699 47 6.5s26 10.5 36 18.5s18 17 24 27s10.333 20.667 13 32h88c-3.33301 -22 -10.666 -42.667 -21.999 -62s-26.166 -36.333 -44.499 -51
s-39.5 -26.167 -63.5 -34.5s-50 -12.5 -78 -12.5c-37.333 0 -70.833 6 -100.5 18s-54.5 29.167 -74.5 51.5s-35.167 49.333 -45.5 81s-15.5 66.834 -15.5 105.501v0zM272 423.998c-16.667 0 -32.3301 -2.83301 -46.9971 -8.5s-27.834 -14 -39.501 -25
s-21.667 -24.333 -30 -40s-14.5 -33.167 -18.5 -52.5h261c-2 22 -6.16699 40.833 -12.5 56.5s-14.833 28.667 -25.5 39s-23.334 18 -38.001 23s-31.334 7.5 -50.001 7.5v0zM228.004 603.998v92h88v-92h-88z" />
    <glyph glyph-name="Eogonek" unicode="&#x118;" horiz-adv-x="612" 
d="M88 0l0.00292969 688h464v-80h-372v-218h296v-80h-296v-230h380v-80c-10.667 -10.667 -19.834 -21.334 -27.501 -32.001s-13.834 -20.667 -18.501 -30s-8.16699 -18.166 -10.5 -26.499s-3.5 -16.166 -3.5 -23.499s1 -14 3 -20s5.16699 -11 9.5 -15
s10.166 -7.16699 17.499 -9.5s16 -3.5 26 -3.5h28v-60h-40c-18 0 -34 2.33301 -48 7s-25.667 11 -35 19s-16.5 17.667 -21.5 29s-7.5 23.666 -7.5 36.999c0 10.667 1.5 21 4.5 31s7.66699 20.333 14 31s14.5 21.5 24.5 32.5s22.333 22.167 37 33.5h-424z" />
    <glyph glyph-name="eogonek" unicode="&#x119;" horiz-adv-x="524" 
d="M215 -136c0 12 2.16797 23.832 6.50098 35.499s10 22.667 17 33s14.833 20 23.5 29s18.334 18.167 29.001 27.5c-1.33301 0 -2.5 -0.166992 -3.5 -0.5s-2.16699 -0.5 -3.5 -0.5h-3.5h-4.5c-37.333 0 -70.833 6 -100.5 18s-54.5 29.167 -74.5 51.5
s-35.167 49.333 -45.5 81s-15.5 66.834 -15.5 105.501c0 37.333 5.83301 71.833 17.5 103.5s28 58.834 49 81.501s45.667 40.167 74 52.5s58.833 18.5 91.5 18.5c32 0 61.167 -5.16699 87.5 -15.5s49.166 -25.666 68.499 -45.999s34.166 -44.833 44.499 -73.5
s15.5 -61 15.5 -97v-36h-356c0.666992 -25.333 4.66699 -48.333 12 -69s17.333 -38.334 30 -53.001s27.5 -26 44.5 -34s36.167 -12 57.5 -12c17.333 0 33 2.16699 47 6.5s26 10.5 36 18.5s18 17 24 27s10.333 20.667 13 32h88c-2 -12.667 -5.5 -24.834 -10.5 -36.501
s-11.167 -23 -18.5 -34s-15.833 -21.167 -25.5 -30.5s-20.167 -18 -31.5 -26c-13.333 -9.33301 -26.666 -19.666 -39.999 -30.999s-25.666 -23.333 -36.999 -36s-20.5 -25.334 -27.5 -38.001s-10.5 -24 -10.5 -34c0 -7.33301 1 -13.666 3 -18.999
s5.16699 -9.66602 9.5 -12.999s10.166 -5.83301 17.499 -7.5s16 -2.5 26 -2.5h28v-60h-40c-18 0 -34 1.83301 -48 5.5s-25.833 9.16699 -35.5 16.5s-16.834 16.166 -21.501 26.499s-7 22.166 -7 35.499v0zM272.001 423.999c-16.667 0 -32.3301 -2.83301 -46.9971 -8.5
s-27.834 -14 -39.501 -25s-21.667 -24.333 -30 -40s-14.5 -33.167 -18.5 -52.5h261c-2 22 -6.16699 40.833 -12.5 56.5s-14.833 28.667 -25.5 39s-23.334 18 -38.001 23s-31.334 7.5 -50.001 7.5v0z" />
    <glyph glyph-name="Ecaron" unicode="&#x11a;" horiz-adv-x="612" 
d="M88 0v688h464v-80h-372v-218h296v-80h-296v-230h380v-80h-472zM280 768l-128 164h84l84 -112l84 112h84l-128 -164h-80z" />
    <glyph glyph-name="ecaron" unicode="&#x11b;" horiz-adv-x="524" 
d="M40 244c0 37.333 5.83301 71.8311 17.5 103.498s28 58.834 49 81.501s45.667 40.167 74 52.5s58.833 18.5 91.5 18.5c32 0 61.167 -5.16699 87.5 -15.5s49.166 -25.666 68.499 -45.999s34.166 -44.833 44.499 -73.5s15.5 -61 15.5 -97v-36h-356
c0.666992 -25.333 4.66699 -48.333 12 -69s17.333 -38.334 30 -53.001s27.5 -26 44.5 -34s36.167 -12 57.5 -12c17.333 0 33 2.16699 47 6.5s26 10.5 36 18.5s18 17 24 27s10.333 20.667 13 32h88c-3.33301 -22 -10.666 -42.667 -21.999 -62s-26.166 -36.333 -44.499 -51
s-39.5 -26.167 -63.5 -34.5s-50 -12.5 -78 -12.5c-37.333 0 -70.833 6 -100.5 18s-54.5 29.167 -74.5 51.5s-35.167 49.333 -45.5 81s-15.5 66.834 -15.5 105.501v0zM272 423.998c-16.667 0 -32.3301 -2.83301 -46.9971 -8.5s-27.834 -14 -39.501 -25
s-21.667 -24.333 -30 -40s-14.5 -33.167 -18.5 -52.5h261c-2 22 -6.16699 40.833 -12.5 56.5s-14.833 28.667 -25.5 39s-23.334 18 -38.001 23s-31.334 7.5 -50.001 7.5v0zM232.004 567.998l-128 164h84l84 -112l84 112h84l-128 -164h-80z" />
    <glyph glyph-name="Gcircumflex" unicode="&#x11c;" horiz-adv-x="760" 
d="M624 0l-16.001 99.9971h-3c-12 -19.333 -25.667 -36 -41 -50s-32.333 -25.667 -51 -35s-39 -16.166 -61 -20.499s-46 -6.5 -72 -6.5c-48.667 0 -93.667 8.83301 -135 26.5s-77 42.5 -107 74.5s-53.167 69.833 -69.5 113.5s-24.5 90.834 -24.5 141.501
s8.16699 97.834 24.5 141.501s39.666 81.5 69.999 113.5s66.5 56.833 108.5 74.5s87.667 26.5 137 26.5c40 0 76.833 -5.33301 110.5 -16s63.334 -25.834 89.001 -45.501s47 -42.667 64 -69s29.167 -54.833 36.5 -85.5h-96c-6 18.667 -14.5 35.834 -25.5 51.501
s-25 29.5 -42 41.5s-37 21.5 -60 28.5s-48.5 10.5 -76.5 10.5c-36.667 0 -70 -6.66699 -100 -20s-55.833 -32.333 -77.5 -57s-38.167 -53.667 -49.5 -87s-17 -69.333 -17 -108s5.83301 -74.667 17.5 -108s28.167 -62.333 49.5 -87s46.833 -43.667 76.5 -57
s61.834 -20 96.501 -20c29.333 0 57.166 4.16699 83.499 12.5s49.833 20.833 70.5 37.5s36.834 37 48.501 61s17.5 51 17.5 81v20h-216v80h300v-364h-60zM215.999 767.997l128 164h80l128 -164h-84l-84 112l-84 -112h-84z" />
    <glyph glyph-name="gcircumflex" unicode="&#x11d;" horiz-adv-x="584" 
d="M52 -60l83.9961 0.000976562c0 -14.667 3.33301 -28 10 -40s15.834 -22.167 27.501 -30.5s25.667 -14.666 42 -18.999s33.833 -6.5 52.5 -6.5c22.667 0 43.334 3.16699 62.001 9.5s35 16.333 49 30s25 32.167 33 55.5s12 51.666 12 84.999v52h-4
c-8 -15.333 -17.667 -28.666 -29 -39.999s-24.166 -20.5 -38.499 -27.5s-29.666 -12.167 -45.999 -15.5s-33.166 -5 -50.499 -5c-31.333 0 -60.166 5.66699 -86.499 17s-49.166 27.833 -68.499 49.5s-34.333 48.167 -45 79.5s-16 66.666 -16 105.999s5.66699 75 17 107
s27.333 59.5 48 82.5s44.667 40.5 72 52.5s56.333 18 87 18c17.333 0 33.666 -1.66699 48.999 -5s29.666 -8.5 42.999 -15.5s25.333 -16 36 -27s20 -24.5 28 -40.5h4v76h84v-464c0 -44.667 -6.16699 -83.167 -18.5 -115.5s-29.5 -58.5 -51.5 -78.5s-47.333 -34.667 -76 -44
s-60 -14 -94 -14c-30.667 0 -59.167 3.66699 -85.5 11s-49.333 18.166 -69 32.499s-34.834 32 -45.501 53s-16 44.833 -16 71.5v0zM131.996 240.001c0 -28 3.66699 -53.166 11 -75.499s17.5 -40.833 30.5 -55.5s28.333 -25.834 46 -33.501s36.5 -11.5 56.5 -11.5
s38.833 4 56.5 12s33 19.667 46 35s23.167 34.333 30.5 57s11 48 11 76s-3.66699 53.333 -11 76s-17.5 41.667 -30.5 57s-28.333 27 -46 35s-36.5 12 -56.5 12s-38.833 -4.16699 -56.5 -12.5s-33 -20.5 -46 -36.5s-23.167 -35.5 -30.5 -58.5s-11 -48.5 -11 -76.5v0z
M107.996 568.002l128 164h80l128 -164h-84l-84 112l-84 -112h-84z" />
    <glyph glyph-name="Gbreve" unicode="&#x11e;" horiz-adv-x="760" 
d="M624 0l-16.001 99.9971h-3c-12 -19.333 -25.667 -36 -41 -50s-32.333 -25.667 -51 -35s-39 -16.166 -61 -20.499s-46 -6.5 -72 -6.5c-48.667 0 -93.667 8.83301 -135 26.5s-77 42.5 -107 74.5s-53.167 69.833 -69.5 113.5s-24.5 90.834 -24.5 141.501
s8.16699 97.834 24.5 141.501s39.666 81.5 69.999 113.5s66.5 56.833 108.5 74.5s87.667 26.5 137 26.5c40 0 76.833 -5.33301 110.5 -16s63.334 -25.834 89.001 -45.501s47 -42.667 64 -69s29.167 -54.833 36.5 -85.5h-96c-6 18.667 -14.5 35.834 -25.5 51.501
s-25 29.5 -42 41.5s-37 21.5 -60 28.5s-48.5 10.5 -76.5 10.5c-36.667 0 -70 -6.66699 -100 -20s-55.833 -32.333 -77.5 -57s-38.167 -53.667 -49.5 -87s-17 -69.333 -17 -108s5.83301 -74.667 17.5 -108s28.167 -62.333 49.5 -87s46.833 -43.667 76.5 -57
s61.834 -20 96.501 -20c29.333 0 57.166 4.16699 83.499 12.5s49.833 20.833 70.5 37.5s36.834 37 48.501 61s17.5 51 17.5 81v20h-216v80h300v-364h-60zM383.999 767.997c-16.667 0 -32.834 2.5 -48.501 7.5s-30.167 13 -43.5 24s-24.666 25.5 -33.999 43.5
s-15.333 39.667 -18 65h56c2 -13.333 5.33301 -25.166 10 -35.499s10.667 -19.166 18 -26.499s16 -12.833 26 -16.5s21.333 -5.5 34 -5.5s24 1.83301 34 5.5s18.667 9.16699 26 16.5s13.333 16.166 18 26.499s8 22.166 10 35.499h56c-2.66699 -25.333 -8.66699 -47 -18 -65
s-20.666 -32.5 -33.999 -43.5s-27.833 -19 -43.5 -24s-31.834 -7.5 -48.501 -7.5v0z" />
    <glyph glyph-name="gbreve" unicode="&#x11f;" horiz-adv-x="584" 
d="M52 -60l83.9961 0.000976562c0 -14.667 3.33301 -28 10 -40s15.834 -22.167 27.501 -30.5s25.667 -14.666 42 -18.999s33.833 -6.5 52.5 -6.5c22.667 0 43.334 3.16699 62.001 9.5s35 16.333 49 30s25 32.167 33 55.5s12 51.666 12 84.999v52h-4
c-8 -15.333 -17.667 -28.666 -29 -39.999s-24.166 -20.5 -38.499 -27.5s-29.666 -12.167 -45.999 -15.5s-33.166 -5 -50.499 -5c-31.333 0 -60.166 5.66699 -86.499 17s-49.166 27.833 -68.499 49.5s-34.333 48.167 -45 79.5s-16 66.666 -16 105.999s5.66699 75 17 107
s27.333 59.5 48 82.5s44.667 40.5 72 52.5s56.333 18 87 18c17.333 0 33.666 -1.66699 48.999 -5s29.666 -8.5 42.999 -15.5s25.333 -16 36 -27s20 -24.5 28 -40.5h4v76h84v-464c0 -44.667 -6.16699 -83.167 -18.5 -115.5s-29.5 -58.5 -51.5 -78.5s-47.333 -34.667 -76 -44
s-60 -14 -94 -14c-30.667 0 -59.167 3.66699 -85.5 11s-49.333 18.166 -69 32.499s-34.834 32 -45.501 53s-16 44.833 -16 71.5v0zM131.996 240.001c0 -28 3.66699 -53.166 11 -75.499s17.5 -40.833 30.5 -55.5s28.333 -25.834 46 -33.501s36.5 -11.5 56.5 -11.5
s38.833 4 56.5 12s33 19.667 46 35s23.167 34.333 30.5 57s11 48 11 76s-3.66699 53.333 -11 76s-17.5 41.667 -30.5 57s-28.333 27 -46 35s-36.5 12 -56.5 12s-38.833 -4.16699 -56.5 -12.5s-33 -20.5 -46 -36.5s-23.167 -35.5 -30.5 -58.5s-11 -48.5 -11 -76.5v0z
M275.996 580.002c-16.667 0 -32.834 2.5 -48.501 7.5s-30.167 13 -43.5 24s-24.666 25.5 -33.999 43.5s-15.333 39.667 -18 65h56c2 -13.333 5.33301 -25.166 10 -35.499s10.667 -19.166 18 -26.499s16 -12.833 26 -16.5s21.333 -5.5 34 -5.5s24 1.83301 34 5.5
s18.667 9.16699 26 16.5s13.333 16.166 18 26.499s8 22.166 10 35.499h56c-2.66699 -25.333 -8.66699 -47 -18 -65s-20.666 -32.5 -33.999 -43.5s-27.833 -19 -43.5 -24s-31.834 -7.5 -48.501 -7.5v0z" />
    <glyph glyph-name="Gdotaccent" unicode="&#x120;" horiz-adv-x="760" 
d="M624 0l-16.001 99.9971h-3c-12 -19.333 -25.667 -36 -41 -50s-32.333 -25.667 -51 -35s-39 -16.166 -61 -20.499s-46 -6.5 -72 -6.5c-48.667 0 -93.667 8.83301 -135 26.5s-77 42.5 -107 74.5s-53.167 69.833 -69.5 113.5s-24.5 90.834 -24.5 141.501
s8.16699 97.834 24.5 141.501s39.666 81.5 69.999 113.5s66.5 56.833 108.5 74.5s87.667 26.5 137 26.5c40 0 76.833 -5.33301 110.5 -16s63.334 -25.834 89.001 -45.501s47 -42.667 64 -69s29.167 -54.833 36.5 -85.5h-96c-6 18.667 -14.5 35.834 -25.5 51.501
s-25 29.5 -42 41.5s-37 21.5 -60 28.5s-48.5 10.5 -76.5 10.5c-36.667 0 -70 -6.66699 -100 -20s-55.833 -32.333 -77.5 -57s-38.167 -53.667 -49.5 -87s-17 -69.333 -17 -108s5.83301 -74.667 17.5 -108s28.167 -62.333 49.5 -87s46.833 -43.667 76.5 -57
s61.834 -20 96.501 -20c29.333 0 57.166 4.16699 83.499 12.5s49.833 20.833 70.5 37.5s36.834 37 48.501 61s17.5 51 17.5 81v20h-216v80h300v-364h-60zM339.999 767.997v92h88v-92h-88z" />
    <glyph glyph-name="gdotaccent" unicode="&#x121;" horiz-adv-x="584" 
d="M52 -60l83.9961 0.000976562c0 -14.667 3.33301 -28 10 -40s15.834 -22.167 27.501 -30.5s25.667 -14.666 42 -18.999s33.833 -6.5 52.5 -6.5c22.667 0 43.334 3.16699 62.001 9.5s35 16.333 49 30s25 32.167 33 55.5s12 51.666 12 84.999v52h-4
c-8 -15.333 -17.667 -28.666 -29 -39.999s-24.166 -20.5 -38.499 -27.5s-29.666 -12.167 -45.999 -15.5s-33.166 -5 -50.499 -5c-31.333 0 -60.166 5.66699 -86.499 17s-49.166 27.833 -68.499 49.5s-34.333 48.167 -45 79.5s-16 66.666 -16 105.999s5.66699 75 17 107
s27.333 59.5 48 82.5s44.667 40.5 72 52.5s56.333 18 87 18c17.333 0 33.666 -1.66699 48.999 -5s29.666 -8.5 42.999 -15.5s25.333 -16 36 -27s20 -24.5 28 -40.5h4v76h84v-464c0 -44.667 -6.16699 -83.167 -18.5 -115.5s-29.5 -58.5 -51.5 -78.5s-47.333 -34.667 -76 -44
s-60 -14 -94 -14c-30.667 0 -59.167 3.66699 -85.5 11s-49.333 18.166 -69 32.499s-34.834 32 -45.501 53s-16 44.833 -16 71.5v0zM131.996 240.001c0 -28 3.66699 -53.166 11 -75.499s17.5 -40.833 30.5 -55.5s28.333 -25.834 46 -33.501s36.5 -11.5 56.5 -11.5
s38.833 4 56.5 12s33 19.667 46 35s23.167 34.333 30.5 57s11 48 11 76s-3.66699 53.333 -11 76s-17.5 41.667 -30.5 57s-28.333 27 -46 35s-36.5 12 -56.5 12s-38.833 -4.16699 -56.5 -12.5s-33 -20.5 -46 -36.5s-23.167 -35.5 -30.5 -58.5s-11 -48.5 -11 -76.5v0z
M231.996 604.002v92h88v-92h-88z" />
    <glyph glyph-name="Gcommaaccent" unicode="&#x122;" horiz-adv-x="760" 
d="M624 0l-16.001 99.9971h-3c-12 -19.333 -25.667 -36 -41 -50s-32.333 -25.667 -51 -35s-39 -16.166 -61 -20.499s-46 -6.5 -72 -6.5c-48.667 0 -93.667 8.83301 -135 26.5s-77 42.5 -107 74.5s-53.167 69.833 -69.5 113.5s-24.5 90.834 -24.5 141.501
s8.16699 97.834 24.5 141.501s39.666 81.5 69.999 113.5s66.5 56.833 108.5 74.5s87.667 26.5 137 26.5c40 0 76.833 -5.33301 110.5 -16s63.334 -25.834 89.001 -45.501s47 -42.667 64 -69s29.167 -54.833 36.5 -85.5h-96c-6 18.667 -14.5 35.834 -25.5 51.501
s-25 29.5 -42 41.5s-37 21.5 -60 28.5s-48.5 10.5 -76.5 10.5c-36.667 0 -70 -6.66699 -100 -20s-55.833 -32.333 -77.5 -57s-38.167 -53.667 -49.5 -87s-17 -69.333 -17 -108s5.83301 -74.667 17.5 -108s28.167 -62.333 49.5 -87s46.833 -43.667 76.5 -57
s61.834 -20 96.501 -20c29.333 0 57.166 4.16699 83.499 12.5s49.833 20.833 70.5 37.5s36.834 37 48.501 61s17.5 51 17.5 81v20h-216v80h300v-364h-60zM335.999 -68.0029h88v-78l-37 -102h-40l26 92h-37v88z" />
    <glyph glyph-name="gcommaaccent" unicode="&#x123;" horiz-adv-x="584" 
d="M52 -60l83.9961 0.000976562c0 -14.667 3.33301 -28 10 -40s15.834 -22.167 27.501 -30.5s25.667 -14.666 42 -18.999s33.833 -6.5 52.5 -6.5c22.667 0 43.334 3.16699 62.001 9.5s35 16.333 49 30s25 32.167 33 55.5s12 51.666 12 84.999v52h-4
c-8 -15.333 -17.667 -28.666 -29 -39.999s-24.166 -20.5 -38.499 -27.5s-29.666 -12.167 -45.999 -15.5s-33.166 -5 -50.499 -5c-31.333 0 -60.166 5.66699 -86.499 17s-49.166 27.833 -68.499 49.5s-34.333 48.167 -45 79.5s-16 66.666 -16 105.999s5.66699 75 17 107
s27.333 59.5 48 82.5s44.667 40.5 72 52.5s56.333 18 87 18c17.333 0 33.666 -1.66699 48.999 -5s29.666 -8.5 42.999 -15.5s25.333 -16 36 -27s20 -24.5 28 -40.5h4v76h84v-464c0 -44.667 -6.16699 -83.167 -18.5 -115.5s-29.5 -58.5 -51.5 -78.5s-47.333 -34.667 -76 -44
s-60 -14 -94 -14c-30.667 0 -59.167 3.66699 -85.5 11s-49.333 18.166 -69 32.499s-34.834 32 -45.501 53s-16 44.833 -16 71.5v0zM131.996 240.001c0 -28 3.66699 -53.166 11 -75.499s17.5 -40.833 30.5 -55.5s28.333 -25.834 46 -33.501s36.5 -11.5 56.5 -11.5
s38.833 4 56.5 12s33 19.667 46 35s23.167 34.333 30.5 57s11 48 11 76s-3.66699 53.333 -11 76s-17.5 41.667 -30.5 57s-28.333 27 -46 35s-36.5 12 -56.5 12s-38.833 -4.16699 -56.5 -12.5s-33 -20.5 -46 -36.5s-23.167 -35.5 -30.5 -58.5s-11 -48.5 -11 -76.5v0z
M231.996 568.002v78l37 102h40l-26 -92h37v-88h-88z" />
    <glyph glyph-name="Hcircumflex" unicode="&#x124;" horiz-adv-x="728" 
d="M88 0v688h92v-300h368v300h92v-688h-92v308h-368v-308h-92zM196 768l128 164h80l128 -164h-84l-84 112l-84 -112h-84z" />
    <glyph glyph-name="hcircumflex" unicode="&#x125;" horiz-adv-x="564" 
d="M76 0l0.00195312 732h88v-152v-35c0 -10.667 -0.166992 -23.167 -0.5 -37.5s-0.833008 -29.5 -1.5 -45.5l-2 -46h4c6.66699 14 15 26.167 25 36.5s21.5 19 34.5 26s27.167 12.333 42.5 16s32 5.5 50 5.5c25.333 0 48.666 -3.66699 69.999 -11s40.333 -19 57 -35
s29.667 -37.167 39 -63.5s14 -57.833 14 -94.5v-296h-88v284c0 25.333 -2.66699 47 -8 65s-12.833 32.5 -22.5 43.5s-21.334 19 -35.001 24s-29.167 7.5 -46.5 7.5c-18.667 0 -36 -3.83301 -52 -11.5s-30 -19 -42 -34s-21.333 -33 -28 -54s-10 -44.167 -10 -69.5v-255h-88z
M-47.998 812l128 164h80l128 -164h-84l-84 112l-84 -112h-84z" />
    <glyph glyph-name="Hbar" unicode="&#x126;" horiz-adv-x="728" 
d="M0 504v76h88v108h92v-108h368v108h92v-108h88v-76h-88v-504h-92v308h-368v-308h-92v504h-88zM180 504v-116h368v116h-368z" />
    <glyph glyph-name="hbar" unicode="&#x127;" horiz-adv-x="564" 
d="M0 592l0.00195312 60h76v80h88v-80h144v-60h-144v-12v-35c0 -10.667 -0.166992 -23.167 -0.5 -37.5s-0.833008 -29.5 -1.5 -45.5l-2 -46h4c6.66699 14 15 26.167 25 36.5s21.5 19 34.5 26s27.167 12.333 42.5 16s32 5.5 50 5.5c25.333 0 48.666 -3.66699 69.999 -11
s40.333 -19 57 -35s29.667 -37.167 39 -63.5s14 -57.833 14 -94.5v-296h-88v284c0 25.333 -2.66699 47 -8 65s-12.833 32.5 -22.5 43.5s-21.334 19 -35.001 24s-29.167 7.5 -46.5 7.5c-18.667 0 -36 -4 -52 -12s-30 -19.333 -42 -34s-21.333 -32.5 -28 -53.5
s-10 -44.5 -10 -70.5v-254h-88v592h-76z" />
    <glyph glyph-name="Itilde" unicode="&#x128;" horiz-adv-x="268" 
d="M88 0v688h92v-688h-92zM-30 768c0.666992 15.333 3.16699 29.5 7.5 42.5s10.666 24.5 18.999 34.5s18.333 17.667 30 23s24.834 8 39.501 8c13.333 0 26.166 -2.16699 38.499 -6.5s26.833 -10.666 43.5 -18.999s28.667 -14.166 36 -17.499s14.666 -5 21.999 -5
c6.66699 0 12.5 1.33301 17.5 4s9.33301 6.33398 13 11.001s6.5 9.83398 8.5 15.501s3.66699 11.5 5 17.5h48c-0.666992 -15.333 -3.16699 -29.5 -7.5 -42.5s-10.666 -24.5 -18.999 -34.5s-18.333 -17.667 -30 -23s-24.834 -8 -39.501 -8
c-13.333 0 -26.166 2.16699 -38.499 6.5s-26.833 10.666 -43.5 18.999s-28.667 14.166 -36 17.499s-14.666 5 -21.999 5c-6.66699 0 -12.5 -1.33301 -17.5 -4s-9.33301 -6.33398 -13 -11.001s-6.5 -9.83398 -8.5 -15.501s-3.66699 -11.5 -5 -17.5h-48z" />
    <glyph glyph-name="itilde" unicode="&#x129;" horiz-adv-x="240" 
d="M76 0v488h88v-488h-88zM-44 596c0.666992 15.333 3.16699 29.5 7.5 42.5s10.666 24.5 18.999 34.5s18.333 17.667 30 23s24.834 8 39.501 8c13.333 0 26.166 -2.16699 38.499 -6.5s26.833 -10.666 43.5 -18.999s28.667 -14.166 36 -17.499s14.666 -5 21.999 -5
c6.66699 0 12.5 1.33301 17.5 4s9.33301 6.33398 13 11.001s6.5 9.83398 8.5 15.501s3.66699 11.5 5 17.5h48c-0.666992 -15.333 -3.16699 -29.5 -7.5 -42.5s-10.666 -24.5 -18.999 -34.5s-18.333 -17.667 -30 -23s-24.834 -8 -39.501 -8
c-13.333 0 -26.166 2.16699 -38.499 6.5s-26.833 10.666 -43.5 18.999s-28.667 14.166 -36 17.499s-14.666 5 -21.999 5c-6.66699 0 -12.5 -1.33301 -17.5 -4s-9.33301 -6.33398 -13 -11.001s-6.5 -9.83398 -8.5 -15.501s-3.66699 -11.5 -5 -17.5h-48z" />
    <glyph glyph-name="Imacron" unicode="&#x12a;" horiz-adv-x="268" 
d="M88 0v688h92v-688h-92zM-6 776v68h276v-68h-276z" />
    <glyph glyph-name="imacron" unicode="&#x12b;" horiz-adv-x="240" 
d="M76 0v488h88v-488h-88zM-20 616v68h276v-68h-276z" />
    <glyph glyph-name="Ibreve" unicode="&#x12c;" horiz-adv-x="268" 
d="M88 0v688h92v-688h-92zM134 768c-16.667 0 -32.834 2.5 -48.501 7.5s-30.167 13 -43.5 24s-24.666 25.5 -33.999 43.5s-15.333 39.667 -18 65h56c2 -13.333 5.33301 -25.166 10 -35.499s10.667 -19.166 18 -26.499s16 -12.833 26 -16.5s21.333 -5.5 34 -5.5
s24 1.83301 34 5.5s18.667 9.16699 26 16.5s13.333 16.166 18 26.499s8 22.166 10 35.499h56c-2.66699 -25.333 -8.66699 -47 -18 -65s-20.666 -32.5 -33.999 -43.5s-27.833 -19 -43.5 -24s-31.834 -7.5 -48.501 -7.5v0z" />
    <glyph glyph-name="ibreve" unicode="&#x12d;" horiz-adv-x="240" 
d="M76 0v488h88v-488h-88zM120 580c-16.667 0 -32.834 2.5 -48.501 7.5s-30.167 13 -43.5 24s-24.666 25.5 -33.999 43.5s-15.333 39.667 -18 65h56c2 -13.333 5.33301 -25.166 10 -35.499s10.667 -19.166 18 -26.499s16 -12.833 26 -16.5s21.333 -5.5 34 -5.5
s24 1.83301 34 5.5s18.667 9.16699 26 16.5s13.333 16.166 18 26.499s8 22.166 10 35.499h56c-2.66699 -25.333 -8.66699 -47 -18 -65s-20.666 -32.5 -33.999 -43.5s-27.833 -19 -43.5 -24s-31.834 -7.5 -48.501 -7.5v0z" />
    <glyph glyph-name="Iogonek" unicode="&#x12e;" horiz-adv-x="268" 
d="M88 0l0.00292969 688h92v-688h-2c-10.667 -10.667 -19.834 -21.334 -27.501 -32.001s-13.834 -20.667 -18.501 -30s-8.16699 -18.166 -10.5 -26.499s-3.5 -16.166 -3.5 -23.499s1 -14 3 -20s5.16699 -11 9.5 -15s10.166 -7.16699 17.499 -9.5s16 -3.5 26 -3.5h28v-60h-40
c-18 0 -34 2.33301 -48 7s-25.667 11 -35 19s-16.5 17.667 -21.5 29s-7.5 23.666 -7.5 36.999c0 10.667 1.5 21 4.5 31s7.66699 20.333 14 31s14.5 21.5 24.5 32.5s22.333 22.167 37 33.5h-42z" />
    <glyph glyph-name="iogonek" unicode="&#x12f;" horiz-adv-x="240" 
d="M76 0l0.00292969 488h88v-488c-10.667 -10.667 -19.834 -21.334 -27.501 -32.001s-13.834 -20.667 -18.501 -30s-8.16699 -18.166 -10.5 -26.499s-3.5 -16.166 -3.5 -23.499s1 -14 3 -20s5.16699 -11 9.5 -15s10.166 -7.16699 17.499 -9.5s16 -3.5 26 -3.5h28v-60h-40
c-18 0 -34 2.33301 -48 7s-25.667 11 -35 19s-16.5 17.667 -21.5 29s-7.5 23.666 -7.5 36.999c0 10.667 1.5 21 4.5 31s7.66699 20.333 14 31s14.5 21.5 24.5 32.5s22.333 22.167 37 33.5h-40zM72.0029 632v100h96v-100h-96z" />
    <glyph glyph-name="Idotaccent" unicode="&#x130;" horiz-adv-x="268" 
d="M88 0v688h92v-688h-92zM90 768v92h88v-92h-88z" />
    <glyph glyph-name="dotlessi" unicode="&#x131;" horiz-adv-x="240" 
d="M76 0v488h88v-488h-88z" />
    <glyph glyph-name="IJ" unicode="&#x132;" horiz-adv-x="784" 
d="M88 0v688h92v-688h-92zM308 196l0.00195312 32h92v-28c0 -24 2.66699 -44.5 8 -61.5s12.833 -30.667 22.5 -41s21 -17.833 34 -22.5s27.5 -7 43.5 -7s30.5 2.33301 43.5 7s24.333 12.167 34 22.5s17.167 24 22.5 41s8 37.5 8 61.5v488h92v-492
c0 -36.667 -4.83301 -68.334 -14.5 -95.001s-23.334 -48.334 -41.001 -65.001s-38.667 -28.834 -63 -36.501s-51.5 -11.5 -81.5 -11.5s-57.167 3.83301 -81.5 11.5s-45.333 19.834 -63 36.501s-31.334 38.334 -41.001 65.001s-14.5 58.334 -14.5 95.001v0z" />
    <glyph glyph-name="ij" unicode="&#x133;" horiz-adv-x="480" 
d="M72 632v100h96v-100h-96zM76 0v488h88v-488h-88zM312 632v100h96v-100h-96zM316 -72v559.999h88v-576c0 -19.333 -2.5 -37 -7.5 -53s-12.833 -30 -23.5 -42s-24.667 -21.167 -42 -27.5s-38.333 -9.5 -63 -9.5h-32v76h24c10.667 0 19.5 1.5 26.5 4.5s12.667 7.5 17 13.5
s7.5 13.333 9.5 22s3 19.334 3 32.001v0z" />
    <glyph glyph-name="Jcircumflex" unicode="&#x134;" horiz-adv-x="512" 
d="M36 196l0.00195312 32h92v-24c0 -24 2.66699 -44.667 8 -62s12.833 -31.5 22.5 -42.5s21 -19 34 -24s27.5 -7.5 43.5 -7.5s30.5 2.5 43.5 7.5s24.333 13 34 24s17.167 25.167 22.5 42.5s8 38 8 62v484h92v-492c0 -36.667 -4.83301 -68.334 -14.5 -95.001
s-23.334 -48.334 -41.001 -65.001s-38.667 -28.834 -63 -36.501s-51.5 -11.5 -81.5 -11.5s-57.167 3.83301 -81.5 11.5s-45.333 19.834 -63 36.501s-31.334 38.334 -41.001 65.001s-14.5 58.334 -14.5 95.001v0zM226.002 768l128 164h80l128 -164h-84l-84 112l-84 -112h-84z
" />
    <glyph glyph-name="jcircumflex" unicode="&#x135;" horiz-adv-x="240" 
d="M76 -72v559.999h88v-576c0 -19.333 -2.5 -37 -7.5 -53s-12.833 -30 -23.5 -42s-24.667 -21.167 -42 -27.5s-38.333 -9.5 -63 -9.5h-32v76h24c10.667 0 19.5 1.5 26.5 4.5s12.667 7.5 17 13.5s7.5 13.333 9.5 22s3 19.334 3 32.001v0zM-48 567.999l128 164h80l128 -164
h-84l-84 112l-84 -112h-84z" />
    <glyph glyph-name="Kcommaaccent" unicode="&#x136;" horiz-adv-x="652" 
d="M88 0v688h92v-370l344 370h108l-283 -299l295 -389h-104l-252 325l-108 -115v-210h-92zM296 -68h88v-78l-37 -102h-40l26 92h-37v88z" />
    <glyph glyph-name="kcommaaccent" unicode="&#x137;" horiz-adv-x="504" 
d="M76 0v732h88v-479l212 235h104l-181 -195l201 -293h-104l-157 229l-75 -82v-147h-88zM224 -68h88v-78l-37 -102h-40l26 92h-37v88z" />
    <glyph glyph-name="Lacute" unicode="&#x139;" horiz-adv-x="544" 
d="M88 0v688h92v-608h336v-80h-428zM100 768l104 164h104l-144 -164h-64z" />
    <glyph glyph-name="lacute" unicode="&#x13a;" horiz-adv-x="240" 
d="M76 0v732h88v-732h-88zM88 812l104 164h104l-144 -164h-64z" />
    <glyph glyph-name="Lcommaaccent" unicode="&#x13b;" horiz-adv-x="544" 
d="M88 0v688h92v-608h336v-80h-428zM252 -68h88v-78l-37 -102h-40l26 92h-37v88z" />
    <glyph glyph-name="lcommaaccent" unicode="&#x13c;" horiz-adv-x="240" 
d="M76 0v732h88v-732h-88zM76 -68h88v-78l-37 -102h-40l26 92h-37v88z" />
    <glyph glyph-name="Lcaron" unicode="&#x13d;" horiz-adv-x="544" 
d="M88 0v688h92v-608h336v-80h-428zM328 472l28 116h-40v100h96v-92l-40 -124h-44z" />
    <glyph glyph-name="lcaron" unicode="&#x13e;" horiz-adv-x="240" 
d="M252 516l28 116h-40v100h96v-92l-40 -124h-44zM76 0v732h88v-732h-88z" />
    <glyph glyph-name="Ldot" unicode="&#x13f;" horiz-adv-x="544" 
d="M88 0v688h92v-608h336v-80h-428zM304 304v100h96v-100h-96z" />
    <glyph glyph-name="ldot" unicode="&#x140;" horiz-adv-x="332" 
d="M76 0v732h88v-732h-88zM236 288v100h96v-100h-96z" />
    <glyph glyph-name="Lslash" unicode="&#x141;" horiz-adv-x="544" 
d="M4 168v84l84 62v374h92v-308l158 116v-84l-158 -115v-217h336v-80h-428v231z" />
    <glyph glyph-name="lslash" unicode="&#x142;" horiz-adv-x="240" 
d="M4 280l72 67v385h88v-301l72 65v-80l-72 -67v-349h-88v265l-72 -65v80z" />
    <glyph glyph-name="Nacute" unicode="&#x143;" horiz-adv-x="736" 
d="M88 0v688h88l380 -532h4l-4 532h92v-688h-88l-380 528h-4l4 -528h-92zM336 768l104 164h104l-144 -164h-64z" />
    <glyph glyph-name="nacute" unicode="&#x144;" horiz-adv-x="564" 
d="M76 0l0.00195312 488h84v-72h4c6.66699 14 15 26.167 25 36.5s21.5 19 34.5 26s27.167 12.333 42.5 16s32 5.5 50 5.5c25.333 0 48.666 -3.66699 69.999 -11s40.333 -19 57 -35s29.667 -37.167 39 -63.5s14 -57.833 14 -94.5v-296h-88v284c0 25.333 -2.66699 47 -8 65
s-12.833 32.5 -22.5 43.5s-21.334 19 -35.001 24s-29.167 7.5 -46.5 7.5c-18.667 0 -36 -4 -52 -12s-30 -19.333 -42 -34s-21.333 -32.667 -28 -54s-10 -45 -10 -71v-253h-88zM252.002 568l104 164h104l-144 -164h-64z" />
    <glyph glyph-name="Ncommaaccent" unicode="&#x145;" horiz-adv-x="736" 
d="M88 0v688h88l380 -532h4l-4 532h92v-688h-88l-380 528h-4l4 -528h-92zM324 -68h88v-78l-37 -102h-40l26 92h-37v88z" />
    <glyph glyph-name="ncommaaccent" unicode="&#x146;" horiz-adv-x="564" 
d="M76 0l0.00195312 488h84v-72h4c6.66699 14 15 26.167 25 36.5s21.5 19 34.5 26s27.167 12.333 42.5 16s32 5.5 50 5.5c25.333 0 48.666 -3.66699 69.999 -11s40.333 -19 57 -35s29.667 -37.167 39 -63.5s14 -57.833 14 -94.5v-296h-88v284c0 25.333 -2.66699 47 -8 65
s-12.833 32.5 -22.5 43.5s-21.334 19 -35.001 24s-29.167 7.5 -46.5 7.5c-18.667 0 -36 -4 -52 -12s-30 -19.333 -42 -34s-21.333 -32.667 -28 -54s-10 -45 -10 -71v-253h-88zM236.002 -68h88v-78l-37 -102h-40l26 92h-37v88z" />
    <glyph glyph-name="Ncaron" unicode="&#x147;" horiz-adv-x="736" 
d="M88 0v688h88l380 -532h4l-4 532h92v-688h-88l-380 528h-4l4 -528h-92zM328 768l-128 164h84l84 -112l84 112h84l-128 -164h-80z" />
    <glyph glyph-name="ncaron" unicode="&#x148;" horiz-adv-x="564" 
d="M76 0l0.00195312 488h84v-72h4c6.66699 14 15 26.167 25 36.5s21.5 19 34.5 26s27.167 12.333 42.5 16s32 5.5 50 5.5c25.333 0 48.666 -3.66699 69.999 -11s40.333 -19 57 -35s29.667 -37.167 39 -63.5s14 -57.833 14 -94.5v-296h-88v284c0 25.333 -2.66699 47 -8 65
s-12.833 32.5 -22.5 43.5s-21.334 19 -35.001 24s-29.167 7.5 -46.5 7.5c-18.667 0 -36 -4 -52 -12s-30 -19.333 -42 -34s-21.333 -32.667 -28 -54s-10 -45 -10 -71v-253h-88zM244.002 568l-128 164h84l84 -112l84 112h84l-128 -164h-80z" />
    <glyph glyph-name="napostrophe" unicode="&#x149;" horiz-adv-x="564" 
d="M76 0l0.00195312 488h84v-72h4c6.66699 14 15 26.167 25 36.5s21.5 19 34.5 26s27.167 12.333 42.5 16s32 5.5 50 5.5c25.333 0 48.666 -3.66699 69.999 -11s40.333 -19 57 -35s29.667 -37.167 39 -63.5s14 -57.833 14 -94.5v-296h-88v284c0 25.333 -2.66699 47 -8 65
s-12.833 32.5 -22.5 43.5s-21.334 19 -35.001 24s-29.167 7.5 -46.5 7.5c-18.667 0 -36 -4 -52 -12s-30 -19.333 -42 -34s-21.333 -32.667 -28 -54s-10 -45 -10 -71v-253h-88zM83.002 568l26 92h-37v88h88v-78l-37 -102h-40z" />
    <glyph glyph-name="Eng" unicode="&#x14a;" horiz-adv-x="736" 
d="M88 0l-0.000976562 687.999h88l380 -532h4l-4 532h92v-720c0 -36 -4 -66.167 -12 -90.5s-19.667 -43.666 -35 -57.999s-34 -24.5 -56 -30.5s-47.667 -9 -77 -9h-48v84h44c16 0 29.667 2 41 6s20.833 10.5 28.5 19.5s13.334 20.5 17.001 34.5s5.5 31.333 5.5 52v29
l-376 523h-4l4 -528h-92z" />
    <glyph glyph-name="eng" unicode="&#x14b;" horiz-adv-x="564" 
d="M408 -72l0.00195312 355.999c0 25.333 -2.66699 47 -8 65s-12.833 32.5 -22.5 43.5s-21.334 19 -35.001 24s-29.167 7.5 -46.5 7.5c-18.667 0 -36 -3.83301 -52 -11.5s-30 -19 -42 -34s-21.333 -33 -28 -54s-10 -44.167 -10 -69.5v-255h-88v488h84v-72h4
c6.66699 14 15 26.167 25 36.5s21.5 19 34.5 26s27.167 12.333 42.5 16s32 5.5 50 5.5c25.333 0 48.666 -3.66699 69.999 -11s40.333 -19 57 -35s29.667 -37.167 39 -63.5s14 -57.833 14 -94.5v-384c0 -19.333 -2.5 -37 -7.5 -53s-12.833 -30 -23.5 -42
s-24.667 -21.167 -42 -27.5s-38.333 -9.5 -63 -9.5h-32v76h24c10.667 0 19.5 1.5 26.5 4.5s12.667 7.5 17 13.5s7.5 13.333 9.5 22s3 19.334 3 32.001v0z" />
    <glyph glyph-name="Omacron" unicode="&#x14c;" horiz-adv-x="760" 
d="M44 344c0 50.667 8 97.834 24 141.501s39 81.5 69 113.5s65.667 56.833 107 74.5s86.666 26.5 135.999 26.5c48.667 0 93.667 -8.83301 135 -26.5s77 -42.5 107 -74.5s53.167 -69.833 69.5 -113.5s24.5 -90.834 24.5 -141.501s-8.16699 -97.834 -24.5 -141.501
s-39.5 -81.5 -69.5 -113.5s-65.667 -56.833 -107 -74.5s-86.333 -26.5 -135 -26.5c-49.333 0 -94.666 8.83301 -135.999 26.5s-77 42.5 -107 74.5s-53 69.833 -69 113.5s-24 90.834 -24 141.501v0zM140 344c0 -38.667 5.66699 -74.667 17 -108s27.666 -62.333 48.999 -87
s46.833 -43.667 76.5 -57s62.167 -20 97.5 -20s67.833 6.66699 97.5 20s55.167 32.333 76.5 57s37.666 53.667 48.999 87s17 69.333 17 108s-5.66699 74.667 -17 108s-27.666 62.333 -48.999 87s-46.833 43.667 -76.5 57s-62.167 20 -97.5 20s-67.833 -6.66699 -97.5 -20
s-55.167 -32.333 -76.5 -57s-37.666 -53.667 -48.999 -87s-17 -69.333 -17 -108v0zM240 776v68h276v-68h-276z" />
    <glyph glyph-name="omacron" unicode="&#x14d;" horiz-adv-x="560" 
d="M40 244c0 38.667 5.83301 73.834 17.5 105.501s28.334 58.667 50.001 81s47.167 39.5 76.5 51.5s61.333 18 96 18c36.667 0 69.834 -6 99.501 -18s55 -29.167 76 -51.5s37 -49.333 48 -81s16.5 -66.834 16.5 -105.501s-5.83301 -73.834 -17.5 -105.501
s-28.334 -58.667 -50.001 -81s-47.167 -39.5 -76.5 -51.5s-61.333 -18 -96 -18c-36.667 0 -69.834 6 -99.501 18s-55 29.167 -76 51.5s-37 49.333 -48 81s-16.5 66.834 -16.5 105.501v0zM132 244c0 -26.667 3.5 -51.165 10.5 -73.498s17.167 -41.333 30.5 -57
s29 -27.834 47 -36.501s38 -13 60 -13s42 4.33301 60 13s33.667 20.834 47 36.501s23.5 34.667 30.5 57s10.5 46.833 10.5 73.5c0 27.333 -3.5 52.166 -10.5 74.499s-17.167 41.333 -30.5 57s-29 27.667 -47 36s-38 12.5 -60 12.5s-42 -4.33301 -60 -13
s-33.667 -20.834 -47 -36.501s-23.5 -34.667 -30.5 -57s-10.5 -46.833 -10.5 -73.5v0zM140 616.002v68h276v-68h-276z" />
    <glyph glyph-name="Obreve" unicode="&#x14e;" horiz-adv-x="760" 
d="M44 344c0 50.667 8 97.834 24 141.501s39 81.5 69 113.5s65.667 56.833 107 74.5s86.666 26.5 135.999 26.5c48.667 0 93.667 -8.83301 135 -26.5s77 -42.5 107 -74.5s53.167 -69.833 69.5 -113.5s24.5 -90.834 24.5 -141.501s-8.16699 -97.834 -24.5 -141.501
s-39.5 -81.5 -69.5 -113.5s-65.667 -56.833 -107 -74.5s-86.333 -26.5 -135 -26.5c-49.333 0 -94.666 8.83301 -135.999 26.5s-77 42.5 -107 74.5s-53 69.833 -69 113.5s-24 90.834 -24 141.501v0zM140 344c0 -38.667 5.66699 -74.667 17 -108s27.666 -62.333 48.999 -87
s46.833 -43.667 76.5 -57s62.167 -20 97.5 -20s67.833 6.66699 97.5 20s55.167 32.333 76.5 57s37.666 53.667 48.999 87s17 69.333 17 108s-5.66699 74.667 -17 108s-27.666 62.333 -48.999 87s-46.833 43.667 -76.5 57s-62.167 20 -97.5 20s-67.833 -6.66699 -97.5 -20
s-55.167 -32.333 -76.5 -57s-37.666 -53.667 -48.999 -87s-17 -69.333 -17 -108v0zM380 768c-16.667 0 -32.834 2.5 -48.501 7.5s-30.167 13 -43.5 24s-24.666 25.5 -33.999 43.5s-15.333 39.667 -18 65h56c2 -13.333 5.33301 -25.166 10 -35.499s10.667 -19.166 18 -26.499
s16 -12.833 26 -16.5s21.333 -5.5 34 -5.5s24 1.83301 34 5.5s18.667 9.16699 26 16.5s13.333 16.166 18 26.499s8 22.166 10 35.499h56c-2.66699 -25.333 -8.66699 -47 -18 -65s-20.666 -32.5 -33.999 -43.5s-27.833 -19 -43.5 -24s-31.834 -7.5 -48.501 -7.5v0z" />
    <glyph glyph-name="obreve" unicode="&#x14f;" horiz-adv-x="560" 
d="M40 244c0 38.667 5.83301 73.834 17.5 105.501s28.334 58.667 50.001 81s47.167 39.5 76.5 51.5s61.333 18 96 18c36.667 0 69.834 -6 99.501 -18s55 -29.167 76 -51.5s37 -49.333 48 -81s16.5 -66.834 16.5 -105.501s-5.83301 -73.834 -17.5 -105.501
s-28.334 -58.667 -50.001 -81s-47.167 -39.5 -76.5 -51.5s-61.333 -18 -96 -18c-36.667 0 -69.834 6 -99.501 18s-55 29.167 -76 51.5s-37 49.333 -48 81s-16.5 66.834 -16.5 105.501v0zM132 244c0 -26.667 3.5 -51.165 10.5 -73.498s17.167 -41.333 30.5 -57
s29 -27.834 47 -36.501s38 -13 60 -13s42 4.33301 60 13s33.667 20.834 47 36.501s23.5 34.667 30.5 57s10.5 46.833 10.5 73.5c0 27.333 -3.5 52.166 -10.5 74.499s-17.167 41.333 -30.5 57s-29 27.667 -47 36s-38 12.5 -60 12.5s-42 -4.33301 -60 -13
s-33.667 -20.834 -47 -36.501s-23.5 -34.667 -30.5 -57s-10.5 -46.833 -10.5 -73.5v0zM280 580.002c-16.667 0 -32.834 2.5 -48.501 7.5s-30.167 13 -43.5 24s-24.666 25.5 -33.999 43.5s-15.333 39.667 -18 65h56c2 -13.333 5.33301 -25.166 10 -35.499
s10.667 -19.166 18 -26.499s16 -12.833 26 -16.5s21.333 -5.5 34 -5.5s24 1.83301 34 5.5s18.667 9.16699 26 16.5s13.333 16.166 18 26.499s8 22.166 10 35.499h56c-2.66699 -25.333 -8.66699 -47 -18 -65s-20.666 -32.5 -33.999 -43.5s-27.833 -19 -43.5 -24
s-31.834 -7.5 -48.501 -7.5v0z" />
    <glyph glyph-name="Ohungarumlaut" unicode="&#x150;" horiz-adv-x="760" 
d="M44 344c0 50.667 8 97.834 24 141.501s39 81.5 69 113.5s65.667 56.833 107 74.5s86.666 26.5 135.999 26.5c48.667 0 93.667 -8.83301 135 -26.5s77 -42.5 107 -74.5s53.167 -69.833 69.5 -113.5s24.5 -90.834 24.5 -141.501s-8.16699 -97.834 -24.5 -141.501
s-39.5 -81.5 -69.5 -113.5s-65.667 -56.833 -107 -74.5s-86.333 -26.5 -135 -26.5c-49.333 0 -94.666 8.83301 -135.999 26.5s-77 42.5 -107 74.5s-53 69.833 -69 113.5s-24 90.834 -24 141.501v0zM140 344c0 -38.667 5.66699 -74.667 17 -108s27.666 -62.333 48.999 -87
s46.833 -43.667 76.5 -57s62.167 -20 97.5 -20s67.833 6.66699 97.5 20s55.167 32.333 76.5 57s37.666 53.667 48.999 87s17 69.333 17 108s-5.66699 74.667 -17 108s-27.666 62.333 -48.999 87s-46.833 43.667 -76.5 57s-62.167 20 -97.5 20s-67.833 -6.66699 -97.5 -20
s-55.167 -32.333 -76.5 -57s-37.666 -53.667 -48.999 -87s-17 -69.333 -17 -108v0zM436 768l104 164h104l-144 -164h-64zM256 768l104 164h104l-144 -164h-64z" />
    <glyph glyph-name="ohungarumlaut" unicode="&#x151;" horiz-adv-x="560" 
d="M40 244c0 38.667 5.83301 73.834 17.5 105.501s28.334 58.667 50.001 81s47.167 39.5 76.5 51.5s61.333 18 96 18c36.667 0 69.834 -6 99.501 -18s55 -29.167 76 -51.5s37 -49.333 48 -81s16.5 -66.834 16.5 -105.501s-5.83301 -73.834 -17.5 -105.501
s-28.334 -58.667 -50.001 -81s-47.167 -39.5 -76.5 -51.5s-61.333 -18 -96 -18c-36.667 0 -69.834 6 -99.501 18s-55 29.167 -76 51.5s-37 49.333 -48 81s-16.5 66.834 -16.5 105.501v0zM132 244c0 -26.667 3.5 -51.165 10.5 -73.498s17.167 -41.333 30.5 -57
s29 -27.834 47 -36.501s38 -13 60 -13s42 4.33301 60 13s33.667 20.834 47 36.501s23.5 34.667 30.5 57s10.5 46.833 10.5 73.5c0 27.333 -3.5 52.166 -10.5 74.499s-17.167 41.333 -30.5 57s-29 27.667 -47 36s-38 12.5 -60 12.5s-42 -4.33301 -60 -13
s-33.667 -20.834 -47 -36.501s-23.5 -34.667 -30.5 -57s-10.5 -46.833 -10.5 -73.5v0zM336 568.002l104 164h104l-144 -164h-64zM156 568.002l104 164h104l-144 -164h-64z" />
    <glyph glyph-name="OE" unicode="&#x152;" horiz-adv-x="1032" 
d="M972 608l-372 -0.00195312v-218h296v-80h-296v-230h380v-80h-576c-58 0 -109.667 8.33301 -155 25s-83.166 40.334 -113.499 71.001s-53.166 67 -68.499 109s-23 88.333 -23 139s7.66699 97 23 139s38.166 78.333 68.499 109s68.166 54.334 113.499 71.001s97 25 155 25
h568v-80zM140 343.998c0 -36.667 4.83301 -70.6689 14.5 -102.002s25 -59.166 46 -83.499s48.5 -43.5 82.5 -57.5s74.333 -21 121 -21h104v528h-104c-46.667 0 -87 -7 -121 -21s-61.5 -33.167 -82.5 -57.5s-36.333 -52.166 -46 -83.499s-14.5 -65.333 -14.5 -102v0z" />
    <glyph glyph-name="oe" unicode="&#x153;" horiz-adv-x="908" 
d="M40 244c0 38.667 5.83398 73.832 17.501 105.499s28.334 58.667 50.001 81s47.167 39.5 76.5 51.5s61.333 18 96 18c21.333 0 41.666 -2.16699 60.999 -6.5s37.166 -10.833 53.499 -19.5s31 -19.167 44 -31.5s24.5 -26.5 34.5 -42.5c10 16 21.5 30.167 34.5 42.5
s27.333 22.833 43 31.5s32.334 15.167 50.001 19.5s36.167 6.5 55.5 6.5c32 0 61.167 -5.16699 87.5 -15.5s49.166 -25.666 68.499 -45.999s34.166 -44.833 44.499 -73.5s15.5 -61 15.5 -97v-36h-356c0.666992 -25.333 4.66699 -48.333 12 -69s17.333 -38.334 30 -53.001
s27.5 -26 44.5 -34s36.167 -12 57.5 -12c17.333 0 33 2.16699 47 6.5s26 10.5 36 18.5s18 17 24 27s10.333 20.667 13 32h88c-3.33301 -22 -10.666 -42.667 -21.999 -62s-26.166 -36.333 -44.499 -51s-39.5 -26.167 -63.5 -34.5s-50 -12.5 -78 -12.5
c-22 0 -42.667 2.16699 -62 6.5s-37 10.666 -53 18.999s-30.333 18.666 -43 30.999s-23.667 26.166 -33 41.499c-10 -15.333 -21.667 -29.166 -35 -41.499s-28 -22.666 -44 -30.999s-33.333 -14.666 -52 -18.999s-38 -6.5 -58 -6.5c-36.667 0 -69.834 6 -99.501 18
s-55 29.167 -76 51.5s-37 49.333 -48 81s-16.5 66.834 -16.5 105.501v0zM132.001 243.998c0 -26.667 3.5 -51.165 10.5 -73.498s17.167 -41.333 30.5 -57s29 -27.834 47 -36.501s38 -13 60 -13s42 4.33301 60 13s33.667 20.834 47 36.501s23.5 34.667 30.5 57
s10.5 46.833 10.5 73.5c0 27.333 -3.5 52.166 -10.5 74.499s-17.167 41.333 -30.5 57s-29 27.667 -47 36s-38 12.5 -60 12.5s-42 -4.33301 -60 -13s-33.667 -20.834 -47 -36.501s-23.5 -34.667 -30.5 -57s-10.5 -46.833 -10.5 -73.5v0zM656.001 424
c-16.667 0 -32.165 -3.00098 -46.498 -9.00098s-27.5 -14.5 -39.5 -25.5s-22.167 -24.167 -30.5 -39.5s-14.5 -32.666 -18.5 -51.999h261c-2 22 -6.16699 40.833 -12.5 56.5s-14.833 28.667 -25.5 39s-23.334 18 -38.001 23s-31.334 7.5 -50.001 7.5v0z" />
    <glyph glyph-name="Racute" unicode="&#x154;" horiz-adv-x="652" 
d="M88 0l0.00195312 688.002h260c38.667 0 73 -4.5 103 -13.5s55.167 -22.333 75.5 -40s35.666 -39.167 45.999 -64.5s15.5 -54 15.5 -86c0 -25.333 -3.16699 -49 -9.5 -71s-16 -41.833 -29 -59.5s-28.833 -32.834 -47.5 -45.501s-40.334 -22.334 -65.001 -29.001l175 -279
h-100l-171 268h-161v-268h-92zM352.002 608.002l-172.001 0.00195312v-260h172c23.333 0 44 3.5 62 10.5s33.167 16.667 45.5 29s21.5 26.666 27.5 42.999s9 34.166 9 53.499c0 18.667 -3.16699 35.667 -9.5 51s-15.666 28.5 -27.999 39.5s-27.5 19.333 -45.5 25
s-38.333 8.5 -61 8.5v0zM280.001 768.004l104 164h104l-144 -164h-64z" />
    <glyph glyph-name="racute" unicode="&#x155;" horiz-adv-x="360" 
d="M76 0l-0.00195312 488.002h84v-71h3c6 13.333 13.167 25 21.5 35s18 18.667 29 26s23 12.833 36 16.5s27.167 5.5 42.5 5.5c5.33301 0 10.666 -0.333008 15.999 -1s10.833 -1.66699 16.5 -3s11.5 -3.33301 17.5 -6s12 -6 18 -10l-28 -80
c-5.33301 2.66699 -10.666 5 -15.999 7s-10.333 3.66699 -15 5s-9.5 2.33301 -14.5 3s-9.83301 1 -14.5 1c-18 0 -33.667 -4.33301 -47 -13s-24.666 -20.334 -33.999 -35.001s-16.166 -31.834 -20.499 -51.501s-6.5 -40.167 -6.5 -61.5v-255h-88zM187.998 568.002l104 164
h104l-144 -164h-64z" />
    <glyph glyph-name="Rcommaaccent" unicode="&#x156;" horiz-adv-x="652" 
d="M88 0l0.00195312 688.002h260c38.667 0 73 -4.5 103 -13.5s55.167 -22.333 75.5 -40s35.666 -39.167 45.999 -64.5s15.5 -54 15.5 -86c0 -25.333 -3.16699 -49 -9.5 -71s-16 -41.833 -29 -59.5s-28.833 -32.834 -47.5 -45.501s-40.334 -22.334 -65.001 -29.001l175 -279
h-100l-171 268h-161v-268h-92zM352.002 608.002l-172.001 0.00195312v-260h172c23.333 0 44 3.5 62 10.5s33.167 16.667 45.5 29s21.5 26.666 27.5 42.999s9 34.166 9 53.499c0 18.667 -3.16699 35.667 -9.5 51s-15.666 28.5 -27.999 39.5s-27.5 19.333 -45.5 25
s-38.333 8.5 -61 8.5v0zM282.001 -67.9961h88v-78l-37 -102h-40l26 92h-37v88z" />
    <glyph glyph-name="rcommaaccent" unicode="&#x157;" horiz-adv-x="360" 
d="M76 0l-0.00195312 488.002h84v-71h3c6 13.333 13.167 25 21.5 35s18 18.667 29 26s23 12.833 36 16.5s27.167 5.5 42.5 5.5c5.33301 0 10.666 -0.333008 15.999 -1s10.833 -1.66699 16.5 -3s11.5 -3.33301 17.5 -6s12 -6 18 -10l-28 -80
c-5.33301 2.66699 -10.666 5 -15.999 7s-10.333 3.66699 -15 5s-9.5 2.33301 -14.5 3s-9.83301 1 -14.5 1c-18 0 -33.667 -4.33301 -47 -13s-24.666 -20.334 -33.999 -35.001s-16.166 -31.834 -20.499 -51.501s-6.5 -40.167 -6.5 -61.5v-255h-88zM75.998 -67.998h88v-78
l-37 -102h-40l26 92h-37v88z" />
    <glyph glyph-name="Rcaron" unicode="&#x158;" horiz-adv-x="652" 
d="M88 0l0.00195312 688.002h260c38.667 0 73 -4.5 103 -13.5s55.167 -22.333 75.5 -40s35.666 -39.167 45.999 -64.5s15.5 -54 15.5 -86c0 -25.333 -3.16699 -49 -9.5 -71s-16 -41.833 -29 -59.5s-28.833 -32.834 -47.5 -45.501s-40.334 -22.334 -65.001 -29.001l175 -279
h-100l-171 268h-161v-268h-92zM352.002 608.002l-172.001 0.00195312v-260h172c23.333 0 44 3.5 62 10.5s33.167 16.667 45.5 29s21.5 26.666 27.5 42.999s9 34.166 9 53.499c0 18.667 -3.16699 35.667 -9.5 51s-15.666 28.5 -27.999 39.5s-27.5 19.333 -45.5 25
s-38.333 8.5 -61 8.5v0zM272.001 768.004l-128 164h84l84 -112l84 112h84l-128 -164h-80z" />
    <glyph glyph-name="rcaron" unicode="&#x159;" horiz-adv-x="360" 
d="M76 0l-0.00195312 488.002h84v-71h3c6 13.333 13.167 25 21.5 35s18 18.667 29 26s23 12.833 36 16.5s27.167 5.5 42.5 5.5c5.33301 0 10.666 -0.333008 15.999 -1s10.833 -1.66699 16.5 -3s11.5 -3.33301 17.5 -6s12 -6 18 -10l-28 -80
c-5.33301 2.66699 -10.666 5 -15.999 7s-10.333 3.66699 -15 5s-9.5 2.33301 -14.5 3s-9.83301 1 -14.5 1c-18 0 -33.667 -4.33301 -47 -13s-24.666 -20.334 -33.999 -35.001s-16.166 -31.834 -20.499 -51.501s-6.5 -40.167 -6.5 -61.5v-255h-88zM179.998 568.002l-128 164
h84l84 -112l84 112h84l-128 -164h-80z" />
    <glyph glyph-name="Sacute" unicode="&#x15a;" horiz-adv-x="648" 
d="M56 196l92.001 0.00390625c0 -18.667 3.83301 -36 11.5 -52s19 -30 34 -42s33.167 -21.333 54.5 -28s45.333 -10 72 -10c28 0 52.833 2.83301 74.5 8.5s40.167 14 55.5 25s26.833 24.5 34.5 40.5s11.5 34 11.5 54c0 18 -4 33.333 -12 46s-19 23.167 -33 31.5
s-30 15.166 -48 20.499s-39 10 -63 14l-44 8c-34 6 -63.667 12.667 -89 20s-48.833 17.833 -70.5 31.5s-38.834 31.667 -51.501 54s-19 49.833 -19 82.5c0 28.667 6 55.334 18 80.001s29.167 46 51.5 64s49.166 31.833 80.499 41.5s66 14.5 104 14.5
c36.667 0 70.5 -4.5 101.5 -13.5s57.667 -22 80 -39s39.666 -37.667 51.999 -62s18.5 -51.5 18.5 -81.5h-92c0 18.667 -4 35.5 -12 50.5s-19.167 27.667 -33.5 38s-31.166 18.166 -50.499 23.499s-40.666 8 -63.999 8c-22.667 0 -43.667 -2.5 -63 -7.5
s-36.333 -12.333 -51 -22s-26 -21.834 -34 -36.501s-12 -31.334 -12 -50.001s4.33301 -34.334 13 -47.001s20.5 -23 35.5 -31s32 -14.5 51 -19.5s41.833 -9.83301 68.5 -14.5l44 -8c32.667 -6 61.334 -12.833 86.001 -20.5s47.167 -18.5 67.5 -32.5s36.5 -32.333 48.5 -55
s18 -50.667 18 -84c0 -30.667 -6.16699 -58.834 -18.5 -84.501s-30.166 -47.667 -53.499 -66s-51.833 -32.5 -85.5 -42.5s-71.834 -15 -114.501 -15c-41.333 0 -78.5 5 -111.5 15s-60.833 24.167 -83.5 42.5s-39.834 40.333 -51.501 66s-17.5 53.834 -17.5 84.501v0z
M288.001 768.004l104 164h104l-144 -164h-64z" />
    <glyph glyph-name="sacute" unicode="&#x15b;" horiz-adv-x="492" 
d="M40 140l83.9941 -0.00195312c0 -14 3.16699 -26.333 9.5 -37s15.166 -19.5 26.499 -26.5s23.833 -12.167 37.5 -15.5s27.834 -5 42.501 -5c20 0 37.5 1.83301 52.5 5.5s27.5 8.83398 37.5 15.501s17.5 15 22.5 25s7.5 21.333 7.5 34c0 9.33301 -1.66699 17.5 -5 24.5
s-8.16602 13 -14.499 18s-14.166 9.33301 -23.499 13s-20.333 6.5 -33 8.5l-92 16c-18.667 3.33301 -36.167 7.66602 -52.5 12.999s-31.333 13 -45 23s-24.5 22.833 -32.5 38.5s-12 34.834 -12 57.501c0 23.333 5 44.5 15 63.5s23.833 35 41.5 48s38.167 23 61.5 30
s48.666 10.5 75.999 10.5c26.667 0 51.5 -2.83301 74.5 -8.5s43.333 -14.667 61 -27s31.5 -27.833 41.5 -46.5s15 -40.667 15 -66h-84c0 12.667 -2.5 24 -7.5 34s-12.333 18.5 -22 25.5s-21.167 12.167 -34.5 15.5s-28 5 -44 5c-15.333 0 -29.5 -1.66699 -42.5 -5
s-24.5 -8.16602 -34.5 -14.499s-17.667 -14.333 -23 -24s-8 -20.5 -8 -32.5c0 -9.33301 1.66699 -17.333 5 -24s8.33301 -12.667 15 -18s15.334 -9.83301 26.001 -13.5s23.334 -6.83398 38.001 -9.50098l92 -16c20 -3.33301 38 -8 54 -14s30.167 -14 42.5 -24
s22 -22.667 29 -38s10.5 -33.666 10.5 -54.999c0 -25.333 -5 -47.833 -15 -67.5s-24.167 -36 -42.5 -49s-40.166 -22.833 -65.499 -29.5s-53.666 -10 -84.999 -10c-29.333 0 -56.166 3.16699 -80.499 9.5s-45.5 16 -63.5 29s-31.833 29 -41.5 48s-14.5 40.833 -14.5 65.5v0z
M211.994 567.998l104 164h104l-144 -164h-64z" />
    <glyph glyph-name="Scircumflex" unicode="&#x15c;" horiz-adv-x="648" 
d="M56 196l92.001 0.00390625c0 -18.667 3.83301 -36 11.5 -52s19 -30 34 -42s33.167 -21.333 54.5 -28s45.333 -10 72 -10c28 0 52.833 2.83301 74.5 8.5s40.167 14 55.5 25s26.833 24.5 34.5 40.5s11.5 34 11.5 54c0 18 -4 33.333 -12 46s-19 23.167 -33 31.5
s-30 15.166 -48 20.499s-39 10 -63 14l-44 8c-34 6 -63.667 12.667 -89 20s-48.833 17.833 -70.5 31.5s-38.834 31.667 -51.501 54s-19 49.833 -19 82.5c0 28.667 6 55.334 18 80.001s29.167 46 51.5 64s49.166 31.833 80.499 41.5s66 14.5 104 14.5
c36.667 0 70.5 -4.5 101.5 -13.5s57.667 -22 80 -39s39.666 -37.667 51.999 -62s18.5 -51.5 18.5 -81.5h-92c0 18.667 -4 35.5 -12 50.5s-19.167 27.667 -33.5 38s-31.166 18.166 -50.499 23.499s-40.666 8 -63.999 8c-22.667 0 -43.667 -2.5 -63 -7.5
s-36.333 -12.333 -51 -22s-26 -21.834 -34 -36.501s-12 -31.334 -12 -50.001s4.33301 -34.334 13 -47.001s20.5 -23 35.5 -31s32 -14.5 51 -19.5s41.833 -9.83301 68.5 -14.5l44 -8c32.667 -6 61.334 -12.833 86.001 -20.5s47.167 -18.5 67.5 -32.5s36.5 -32.333 48.5 -55
s18 -50.667 18 -84c0 -30.667 -6.16699 -58.834 -18.5 -84.501s-30.166 -47.667 -53.499 -66s-51.833 -32.5 -85.5 -42.5s-71.834 -15 -114.501 -15c-41.333 0 -78.5 5 -111.5 15s-60.833 24.167 -83.5 42.5s-39.834 40.333 -51.501 66s-17.5 53.834 -17.5 84.501v0z
M152.001 768.004l128 164h80l128 -164h-84l-84 112l-84 -112h-84z" />
    <glyph glyph-name="scircumflex" unicode="&#x15d;" horiz-adv-x="492" 
d="M40 140l83.9941 -0.00195312c0 -14 3.16699 -26.333 9.5 -37s15.166 -19.5 26.499 -26.5s23.833 -12.167 37.5 -15.5s27.834 -5 42.501 -5c20 0 37.5 1.83301 52.5 5.5s27.5 8.83398 37.5 15.501s17.5 15 22.5 25s7.5 21.333 7.5 34c0 9.33301 -1.66699 17.5 -5 24.5
s-8.16602 13 -14.499 18s-14.166 9.33301 -23.499 13s-20.333 6.5 -33 8.5l-92 16c-18.667 3.33301 -36.167 7.66602 -52.5 12.999s-31.333 13 -45 23s-24.5 22.833 -32.5 38.5s-12 34.834 -12 57.501c0 23.333 5 44.5 15 63.5s23.833 35 41.5 48s38.167 23 61.5 30
s48.666 10.5 75.999 10.5c26.667 0 51.5 -2.83301 74.5 -8.5s43.333 -14.667 61 -27s31.5 -27.833 41.5 -46.5s15 -40.667 15 -66h-84c0 12.667 -2.5 24 -7.5 34s-12.333 18.5 -22 25.5s-21.167 12.167 -34.5 15.5s-28 5 -44 5c-15.333 0 -29.5 -1.66699 -42.5 -5
s-24.5 -8.16602 -34.5 -14.499s-17.667 -14.333 -23 -24s-8 -20.5 -8 -32.5c0 -9.33301 1.66699 -17.333 5 -24s8.33301 -12.667 15 -18s15.334 -9.83301 26.001 -13.5s23.334 -6.83398 38.001 -9.50098l92 -16c20 -3.33301 38 -8 54 -14s30.167 -14 42.5 -24
s22 -22.667 29 -38s10.5 -33.666 10.5 -54.999c0 -25.333 -5 -47.833 -15 -67.5s-24.167 -36 -42.5 -49s-40.166 -22.833 -65.499 -29.5s-53.666 -10 -84.999 -10c-29.333 0 -56.166 3.16699 -80.499 9.5s-45.5 16 -63.5 29s-31.833 29 -41.5 48s-14.5 40.833 -14.5 65.5v0z
M75.9941 567.998l128 164h80l128 -164h-84l-84 112l-84 -112h-84z" />
    <glyph glyph-name="Scedilla" unicode="&#x15e;" horiz-adv-x="648" 
d="M276 -84l24.001 73.0039c-38.667 1.33301 -73.167 7.33301 -103.5 18s-56 25 -77 43s-36.833 39.333 -47.5 64s-16 52 -16 82h92c0 -18.667 3.83301 -36 11.5 -52s19 -30 34 -42s33.167 -21.333 54.5 -28s45.333 -10 72 -10c28 0 52.833 2.83301 74.5 8.5
s40.167 14 55.5 25s26.833 24.5 34.5 40.5s11.5 34 11.5 54c0 18 -4 33.333 -12 46s-19 23.167 -33 31.5s-30 15.166 -48 20.499s-39 10 -63 14l-44 8c-34 6 -63.667 12.667 -89 20s-48.833 17.833 -70.5 31.5s-38.834 31.667 -51.501 54s-19 49.833 -19 82.5
c0 28.667 6 55.334 18 80.001s29.167 46 51.5 64s49.166 31.833 80.499 41.5s66 14.5 104 14.5c36.667 0 70.5 -4.5 101.5 -13.5s57.667 -22 80 -39s39.666 -37.667 51.999 -62s18.5 -51.5 18.5 -81.5h-92c0 18.667 -4 35.5 -12 50.5s-19.167 27.667 -33.5 38
s-31.166 18.166 -50.499 23.499s-40.666 8 -63.999 8c-22.667 0 -43.667 -2.5 -63 -7.5s-36.333 -12.333 -51 -22s-26 -21.834 -34 -36.501s-12 -31.334 -12 -50.001s4.33301 -34.334 13 -47.001s20.5 -23 35.5 -31s32 -14.5 51 -19.5s41.833 -9.83301 68.5 -14.5l44 -8
c32.667 -6 61.334 -12.833 86.001 -20.5s47.167 -18.5 67.5 -32.5s36.5 -32.333 48.5 -55s18 -50.667 18 -84c0 -30 -5.66699 -57.5 -17 -82.5s-28.166 -46.667 -50.499 -65s-49.333 -32.666 -81 -42.999s-67.5 -16.166 -107.5 -17.499v-24
c14.667 -0.666992 27.834 -3.5 39.501 -8.5s21.334 -11.5 29.001 -19.5s13.5 -17 17.5 -27s6 -21 6 -33c0 -14 -2.5 -26.833 -7.5 -38.5s-12.333 -21.834 -22 -30.501s-21.834 -15.334 -36.501 -20.001s-31.334 -7 -50.001 -7h-56v56h52c8.66699 0 16.167 0.666992 22.5 2
s11.666 3.5 15.999 6.5s7.66602 7 9.99902 12s3.5 11.5 3.5 19.5c0 6.66699 -1.16699 12.667 -3.5 18s-5.83301 9.5 -10.5 12.5s-10.167 5.33301 -16.5 7s-13.5 2.5 -21.5 2.5h-32z" />
    </font>
</defs>
</svg>
