<?xml version="1.0" standalone="no"?>
<!DOCTYPE svg PUBLIC "-//W3C//DTD SVG 1.1//EN" "http://www.w3.org/Graphics/SVG/1.1/DTD/svg11.dtd" >
<svg>
<metadata>
Created by FontForge 20090914 at Wed Feb 22 16:54:07 2017
 By www-data
&#194;&#169; Copyright (c) 2010. All rights reserved. Fakt is a design by Thomas Thiemich, published by OurType. www.ourtype.com
</metadata>
<defs>
<font id="FaktPro-Blond" horiz-adv-x="720" >
  <font-face 
    font-family="FaktPro-Blond"
    font-weight="350"
    font-stretch="normal"
    units-per-em="2048"
    panose-1="2 0 0 0 0 0 0 0 0 0"
    ascent="1532"
    descent="-516"
    x-height="998.999"
    cap-height="1409"
    bbox="-350 -641 2308 2073"
    underline-thickness="0"
    underline-position="0"
    unicode-range="U+0020-U+FB04"
  />
<missing-glyph horiz-adv-x="1458" 
d="M475 377l258 264l258 -264l107 106l-260 267l260 266l-107 106l-258 -264l-258 264l-106 -106l258 -266l-258 -267zM0 0v1475h1458v-1475h-1458z" />
    <glyph glyph-name="ff" unicode="ff" horiz-adv-x="1193" 
d="M793 1176c0 215.333 105.667 323 317 323h109v-121h-97c-99.333 0 -159.333 -38.667 -180 -116c-6.66699 -26 -10 -57 -10 -93v-170h254v-112h-254v-887h-139v887h-449v-887h-139v887h-199v112h199v177c0 159.333 60 260.333 180 303c39.333 13.333 85 20 137 20h103
v-121h-90c-100 0 -160.333 -38.667 -181 -116c-6.66699 -26 -10 -57 -10 -93v-170h449v177z" />
    <glyph glyph-name="fi" unicode="fi" horiz-adv-x="1095" 
d="M786 1303v196h152v-196h-152zM793 0v887h-449v-887h-139v887h-199v112h199v177c0 159.333 60 260.333 180 303c39.333 13.333 85 20 137 20h103v-121h-90c-100 0 -160.333 -38.667 -181 -116c-6.66699 -26 -10 -57 -10 -93v-170h588v-999h-139z" />
    <glyph glyph-name="fl" unicode="fl" horiz-adv-x="1095" 
d="M205 0v887h-199v112h199v177c0 159.333 60 260.333 180 303c39.333 13.333 85 20 137 20h410v-1499h-139v1378h-258c-100 0 -160.333 -38.667 -181 -116c-6.66699 -26 -10 -57 -10 -93v-170h227v-112h-227v-887h-139z" />
    <glyph glyph-name="ffi" unicode="ffi" horiz-adv-x="1683" 
d="M1374 1303v196h152v-196h-152zM793 1176c0 215.333 105.667 323 317 323h102v-121h-90c-99.333 0 -159.333 -38.667 -180 -116c-6.66699 -26 -10 -57 -10 -93v-170h588v-999h-140v887h-448v-887h-139v887h-449v-887h-139v887h-199v112h199v177
c0 159.333 60 260.333 180 303c39.333 13.333 85 20 137 20h115v-121h-102c-100 0 -160.333 -38.667 -181 -116c-6.66699 -26 -10 -57 -10 -93v-170h449v177z" />
    <glyph glyph-name="ffl" unicode="ffl" horiz-adv-x="1677" 
d="M793 1176c0 215.333 105.667 323 317 323h403v-1499h-139v1378h-252c-99.333 0 -159.333 -38.667 -180 -116c-6.66699 -26 -10 -57 -10 -93v-170h264v-112h-264v-887h-139v887h-449v-887h-139v887h-199v112h199v177c0 159.333 60 260.333 180 303
c39.333 13.333 85 20 137 20h103v-121h-90c-100 0 -160.333 -38.667 -181 -116c-6.66699 -26 -10 -57 -10 -93v-170h449v177z" />
    <glyph glyph-name="f_b" unicode="fb" horiz-adv-x="1808" 
d="M932 500c0 -124 30.335 -222 91.002 -294s136.667 -108 228 -108s168.333 37 231 111c62 74.667 93 173.334 93 296.001s-30.333 219.667 -91 291s-137.334 106.666 -230.001 105.999s-169.334 -36 -230.001 -106c-60 -70 -90.667 -162.667 -92 -278v-18zM932.002 1114
c0 -125.333 -2.00098 -223 -6.00098 -293h6c60.667 134 178 201 352 201c126.667 0 231.334 -47.333 314.001 -142s123.667 -219.667 123 -375c-0.666992 -156 -44 -283 -130 -381s-190.333 -147 -313 -147c-122 0 -218.333 37.333 -289 112
c-23.333 25.333 -42.333 55 -57 89h-6v-178h-133v1378h-258c-100 0 -160.333 -38.667 -181 -116c-6.66699 -26 -10 -57 -10 -93v-170h227v-112h-227v-887h-139v887h-199v112h199v177c0 159.333 60 260.333 180 303c39.333 13.333 85 20 137 20h410v-385z" />
    <glyph glyph-name="f_h" unicode="fh" horiz-adv-x="1771" 
d="M1483 594c0 204.667 -83.999 307.002 -251.999 307.002c-86 0 -157.667 -34.333 -215 -103s-85.333 -161.334 -84 -278.001v-520h-139v1378h-258c-100 0 -160.333 -38.667 -181 -116c-6.66699 -26 -10 -57 -10 -93v-170h227v-112h-227v-887h-139v887h-199v112h199v177
c0 159.333 60 260.333 180 303c39.333 13.333 85 20 137 20h410v-379c0 -120.667 -2 -216 -6 -286h4c61.333 125.333 174.666 188 339.999 188s273.333 -74 324 -222c18.667 -52.667 28 -115.334 28 -188.001v-612h-139v594z" />
    <glyph glyph-name="f_j" unicode="fj" horiz-adv-x="1095" 
d="M786 1303v196h152v-196h-152zM932 -193c0 -169.333 -85.333 -255.333 -256 -258h-62v121h50c67.333 0 107.666 30 120.999 90c4.66699 20.667 7.33398 44.667 8.00098 72v1055h-449v-887h-139v887h-199v112h199v177c0 159.333 60 260.333 180 303
c39.333 13.333 85 20 137 20h103v-121h-90c-100 0 -160.333 -38.667 -181 -116c-6.66699 -26 -10 -57 -10 -93v-170h588v-1192z" />
    <glyph glyph-name="f_k" unicode="fk" horiz-adv-x="1644" 
d="M793 0v1378h-258c-100 0 -160.333 -38.667 -181 -116c-6.66699 -26 -10 -57 -10 -93v-170h227v-112h-227v-887h-139v887h-199v112h199v177c0 159.333 60 260.333 180 303c39.333 13.333 85 20 137 20h410v-1040l487 540h166l-373 -403l416 -596h-164l-346 494l-186 -203
v-291h-139z" />
    <glyph glyph-name="f_t" unicode="ft" horiz-adv-x="1234" 
d="M774 287v600h-430v-887h-139v887h-199v112h199v177c0 159.333 60 260.333 180 303c39.333 13.333 85 20 137 20h96v-121h-83c-100 0 -160.333 -38.667 -181 -116c-6.66699 -26 -10 -57 -10 -93v-170h430v304h139v-304h273v-112h-273v-594c0 -88.667 29.333 -143 88 -163
c19.333 -6 41.333 -9 66 -9h119v-121h-131c-187.333 0 -281 95.667 -281 287z" />
    <glyph glyph-name="f_f_b" unicode="ffb" horiz-adv-x="2396" 
d="M2070 209c62 74.667 92.999 173.332 92.999 295.999s-30.667 219.334 -92 290.001s-138 106 -230 106s-168.333 -35 -229 -105c-60 -70 -90.667 -162.667 -92 -278v-37c2.66699 -119.333 34 -213 94 -281s135.333 -102 226 -102s167.334 37 230.001 111zM1520 1124
c0 -147.333 -2.33301 -248.333 -7 -303h7c60.667 134 178 201 352 201c126.667 0 231 -47 313 -141s123 -218.667 123 -374c0 -156 -43 -283.333 -129 -382s-190.333 -148 -313 -148c-122 0 -218.333 37.333 -289 112c-23.333 25.333 -42.333 55 -57 89h-7v-178h-133v1378
h-258c-99.333 0 -159.333 -38.667 -180 -116c-6.66699 -26 -10 -57 -10 -93v-170h264v-112h-264v-887h-139v887h-449v-887h-139v887h-199v112h199v177c0 159.333 60 260.333 180 303c39.333 13.333 85 20 137 20h103v-121h-90c-100 0 -160.333 -38.667 -181 -116
c-6.66699 -26 -10 -57 -10 -93v-170h449v177c0 215.333 105.667 323 317 323h410v-375z" />
    <glyph glyph-name="f_f_h" unicode="ffh" horiz-adv-x="2359" 
d="M2071 594c0 204.667 -84 307.002 -252 307.002c-86 0 -157.667 -34.333 -215 -103s-85.333 -161.334 -84 -278.001v-520h-140v1378h-258c-99.333 0 -159.333 -38.667 -180 -116c-6.66699 -26 -10 -57 -10 -93v-170h264v-112h-264v-887h-139v887h-449v-887h-139v887h-199
v112h199v177c0 159.333 60 260.333 180 303c39.333 13.333 85 20 137 20h103v-121h-90c-100 0 -160.333 -38.667 -181 -116c-6.66699 -26 -10 -57 -10 -93v-170h449v177c0 215.333 105.667 323 317 323h410v-366c0 -143.333 -2.33301 -242.333 -7 -297h7
c60.667 124 173 186 337 186s272.333 -74 325 -222c18.667 -52.667 28 -115.334 28 -188.001v-612h-139v594z" />
    <glyph glyph-name="f_f_j" unicode="ffj" horiz-adv-x="1683" 
d="M1374 1303v196h152v-196h-152zM1520 -197c0 -166.667 -85.333 -251.333 -256 -254h-62v121h49c68 0 108.667 29 122 87c4.66699 20 7 43.667 7 71v1059h-448v-887h-139v887h-449v-887h-139v887h-199v112h199v177c0 159.333 60 260.333 180 303
c39.333 13.333 85 20 137 20h115v-121h-102c-100 0 -160.333 -38.667 -181 -116c-6.66699 -26 -10 -57 -10 -93v-170h449v177c0 215.333 105.667 323 317 323h102v-121h-90c-99.333 0 -159.333 -38.667 -180 -116c-6.66699 -26 -10 -57 -10 -93v-170h588v-1196z" />
    <glyph glyph-name="f_f_k" unicode="ffk" horiz-adv-x="2232" 
d="M793 1176c0 215.333 105.667 323 317 323h410v-1040l487 540h166l-373 -403l416 -596h-166l-344 494l-186 -203v-291h-140v1378h-258c-99.333 0 -159.333 -38.667 -180 -116c-6.66699 -26 -10 -57 -10 -93v-170h264v-112h-264v-887h-139v887h-449v-887h-139v887h-199v112
h199v177c0 159.333 60 260.333 180 303c39.333 13.333 85 20 137 20h103v-121h-90c-100 0 -160.333 -38.667 -181 -116c-6.66699 -26 -10 -57 -10 -93v-170h449v177z" />
    <glyph glyph-name="f_f_t" unicode="fft" horiz-adv-x="1822" 
d="M793 1176c0 215.333 105.667 323 317 323h102v-121h-90c-99.333 0 -159.333 -38.667 -180 -116c-6.66699 -26 -10 -57 -10 -93v-170h430v304h139v-304h273v-112h-273v-594c0 -88.667 29.333 -143 88 -163c19.333 -6 41.333 -9 66 -9h119v-121h-132
c-186.667 0 -280 95.667 -280 287v600h-430v-887h-139v887h-449v-887h-139v887h-199v112h199v177c0 159.333 60 260.333 180 303c39.333 13.333 85 20 137 20h103v-121h-90c-100 0 -160.333 -38.667 -181 -116c-6.66699 -26 -10 -57 -10 -93v-170h449v177z" />
    <glyph glyph-name=".notdef" horiz-adv-x="1458" 
d="M475 377l258 264l258 -264l107 106l-260 267l260 266l-107 106l-258 -264l-258 264l-106 -106l258 -266l-258 -267zM0 0v1475h1458v-1475h-1458z" />
    <glyph glyph-name="space" unicode=" " horiz-adv-x="442" 
 />
    <glyph glyph-name="exclam" unicode="!" horiz-adv-x="524" 
d="M180 0v209h164v-209h-164zM180 1409h164v-377l-43 -645h-78l-43 645v377z" />
    <glyph glyph-name="quotedbl" unicode="&#x22;" horiz-adv-x="786" 
d="M504 1409h139v-178l-25 -338h-90l-24 338v178zM143 1409h140v-178l-25 -338h-90l-25 338v178z" />
    <glyph glyph-name="numbersign" unicode="#" horiz-adv-x="1241" 
d="M494 952l-86 -485h337l86 485h-337zM127 952v109h258l61 348h127l-61 -348h338l61 348h127l-61 -348h225v-109h-244l-86 -485h242v-109h-260l-61 -358h-127l61 358h-338l-61 -358h-127l61 358h-223v109h242l86 485h-240z" />
    <glyph glyph-name="dollar" unicode="$" horiz-adv-x="1163" 
d="M127 1054c0 103.333 35.001 188.999 105.001 256.999s160 106.667 270 116v220h139v-220c163.333 -21.333 276 -96.333 338 -225c20.667 -42 33 -87.667 37 -137h-139c-10.667 82 -43.667 144 -99 186c-55.333 42.667 -125.333 64.334 -210 65.001
c-85.333 0 -156 -22 -212 -66s-84 -103.333 -84 -178s19.667 -129 59 -163c39.333 -34.667 103 -66 191 -94l199 -61c168 -48.667 270.667 -129.667 308 -243c12.667 -38.667 19 -84 19 -136s-9.66699 -101.667 -29 -149c-39.333 -93.333 -110.333 -161.333 -213 -204
c-50 -21.333 -104.333 -34.666 -163 -39.999v-228h-139v228c-118 10.667 -214.667 51.667 -290 123c-74.667 72 -114.667 165.333 -120 280h139c5.33301 -89.333 39 -160 101 -212s142 -78.667 240 -80c98 -0.666992 177.667 24.666 239 75.999s91.666 116.333 90.999 195
s-22.667 137 -66 175s-110.333 70 -201 96l-201 59c-206 60.667 -309 180.667 -309 360z" />
    <glyph glyph-name="percent" unicode="%" horiz-adv-x="1564" 
d="M1335 152c28.667 48 42.999 114.668 42.999 200.001c0 179.333 -58 270.333 -174 273c-85.333 0 -139.666 -53 -162.999 -159c-7.33301 -33.333 -11 -71.333 -11 -114s3.66699 -80.334 11 -113.001c7.33301 -33.333 18.666 -62 33.999 -86
c31.333 -48.667 75.333 -73 132 -73s99.334 24 128.001 72zM1204 -15.999c-96.667 0 -169.666 33.333 -218.999 100s-74.666 156 -75.999 268c0 172 55 285.667 165 341c37.333 18.667 80.666 28 129.999 28s92.666 -9.33301 129.999 -28
c73.333 -36.667 122.666 -101.667 147.999 -195c11.333 -45.333 17 -94 17 -146c0 -172 -55 -285.667 -165 -341c-37.333 -18 -80.666 -27 -129.999 -27zM371 -24.999l714 1459h109l-715 -1459h-108zM360 1329c-113.333 0 -171.333 -90.666 -174 -271.999
c0 -132.667 33.667 -217.334 101 -254.001c21.333 -12.667 46 -19 74 -19c113.333 0 171.333 91 174 273c0 130 -33 214.667 -99 254c-22 12 -47.333 18 -76 18zM360 688.002c-49.333 0 -92.667 9.33105 -130 27.998c-109.333 54.667 -164 168.334 -164 341.001
s54.667 286.334 164 341.001c37.333 18.667 80.666 28 129.999 28c96.667 -0.666992 170 -34.667 220 -102c50 -66.667 75 -155.667 75 -267c0 -173.333 -55 -287 -165 -341c-37.333 -18.667 -80.666 -28 -129.999 -28z" />
    <glyph glyph-name="ampersand" unicode="&#x26;" horiz-adv-x="1425" 
d="M631 1323c-75.333 0 -135 -20 -179 -60c-43.333 -40 -65 -87 -65 -141s13.333 -99.333 40 -136c26.667 -37.333 72.667 -90.333 138 -159c94.667 42 161 78.667 199 110c38 30.667 65 60 81 88c15.333 28 23 57.667 23 89c-0.666992 62 -21.334 112.333 -62.001 151
c-41.333 38.667 -99.666 58 -174.999 58zM600 92c166.667 0 293.668 49.332 381.001 147.999l-455 452c-93.333 -46 -156 -85 -188 -117c-62.667 -62.667 -93.334 -130 -92.001 -202c0 -44 8.33301 -83.333 25 -118c35.333 -71.333 99 -119.666 191 -144.999
c44 -12 90 -18 138 -18zM106.001 359.999c0 140.667 68.6689 253.669 206.002 339.002c38.667 24 83.334 48.333 134.001 73c-70 73.333 -118.667 132.666 -146 177.999c-26.667 45.333 -40 93.666 -40 144.999c0 94.667 33.667 174.667 101 240
c67.333 64.667 157.333 97 270 97s203 -29 271 -87c67.333 -58.667 100.666 -133.667 99.999 -225s-36.334 -167.333 -107.001 -228c-50.667 -43.333 -134 -91.333 -250 -144l404 -408c51.333 100 77 214 77 342v23h127v-41c0 -150 -38 -288 -114 -414l247 -250h-165
l-156 154c-109.333 -115.333 -261 -174.333 -455 -177c-158.667 0 -282.334 34.333 -371.001 103s-133 162 -133 280z" />
    <glyph glyph-name="quotesingle" unicode="'" horiz-adv-x="425" 
d="M143 1409h140v-178l-25 -338h-90l-25 338v178z" />
    <glyph glyph-name="parenleft" unicode="(" horiz-adv-x="563" 
d="M63 532c0 104 10.334 205.333 31.001 304c53.333 252.667 155 482 305 688h127c-79.333 -106 -154.333 -251 -225 -435c-70.667 -183.333 -105.334 -369 -104.001 -557c0 -273.333 75 -549.333 225 -828c36.667 -68.667 71.334 -125.667 104.001 -171h-127
c-148.667 201.333 -250.334 433 -305.001 695c-20.667 98.667 -31 200 -31 304z" />
    <glyph glyph-name="parenright" unicode=")" horiz-adv-x="563" 
d="M367 532c0 190.667 -34.6689 376.668 -104.002 558.001s-144.666 326 -225.999 434h127c149.333 -202.667 251 -432 305 -688c20.667 -98.667 31 -200 31 -304s-10.333 -205.333 -31 -304c-56 -266.667 -157.667 -498.334 -305 -695.001h-127
c32.667 45.333 67.334 102.333 104.001 171c150.667 282 226 558 226 828z" />
    <glyph glyph-name="asterisk" unicode="*" horiz-adv-x="921" 
d="M403 1425h115l-26 -288l264 116l35 -108l-281 -66l188 -213l-92 -65l-147 246l-146 -246l-90 65l187 215l-279 64l35 108l262 -112z" />
    <glyph glyph-name="plus" unicode="+" horiz-adv-x="1163" 
d="M117 459v121h401v403h127v-403h402v-121h-402v-402h-127v402h-401z" />
    <glyph glyph-name="comma" unicode="," horiz-adv-x="499" 
d="M162 0v229h176v-217l-86 -331h-82l66 319h-74z" />
    <glyph glyph-name="hyphen" unicode="-" horiz-adv-x="811" 
d="M123 453v127h565v-127h-565z" />
    <glyph glyph-name="period" unicode="." horiz-adv-x="499" 
d="M162 0v229h176v-229h-176z" />
    <glyph glyph-name="slash" unicode="/" horiz-adv-x="821" 
d="M35 -25l631 1459h120l-630 -1459h-121z" />
    <glyph glyph-name="zero" unicode="0" horiz-adv-x="1163" 
d="M582 104c224 0 337.335 200.333 340.002 601c0 292.667 -63.333 479 -190 559c-42.667 27.333 -92.667 41 -150 41c-168.667 0 -275.334 -117 -320.001 -351c-13.333 -74.667 -20 -158 -20 -250c0 -292 63 -478.333 189 -559c43.333 -27.333 93.666 -41 150.999 -41z
M96.002 704c0 219.333 39.667 394.999 119 526.999c79.333 132.667 201.333 199.334 366 200.001c164 0.666992 286 -65.333 366 -198s120 -308.667 120 -528s-40 -395.333 -120 -528c-80 -133.333 -201.333 -200 -364 -200c-163.333 0 -285.333 66.333 -366 199
s-121 308.667 -121 528z" />
    <glyph glyph-name="one" unicode="1" horiz-adv-x="1163" 
d="M692 1409v-1288h359v-121h-879v121h381v1116l-356 -246l-62 107l451 311h106z" />
    <glyph glyph-name="two" unicode="2" horiz-adv-x="1163" 
d="M367 1232c-56.667 -52.667 -88.998 -132.334 -96.998 -239.001h-127c8 156.667 54.333 269 139 337s189.667 102 315 102s228.333 -35.667 309 -107c81.333 -71.333 122 -163.666 122 -276.999c0 -150.667 -59.667 -267 -179 -349l-140 -93l-156 -102
c-144 -92 -228.667 -186 -254 -282c-8 -30.667 -13.333 -64.334 -16 -101.001h759v-121h-917c5.33301 148 35.666 267.333 90.999 358c28 45.333 61.667 86 101 122s88.666 73.333 147.999 112l156 102c59.333 38 100.333 65.333 123 82s45.667 37.334 69 62.001
c49.333 52 74.333 117 75 195c0.666992 77.333 -24.666 143 -75.999 197s-124 81 -218 81c-94.667 0 -170.334 -26.333 -227.001 -79z" />
    <glyph glyph-name="three" unicode="3" horiz-adv-x="1163" 
d="M104 420l133.997 0.00195312c0 -102.667 30 -181.667 90 -237s141 -83.333 243 -84s184.667 24.666 248 75.999c64 51.333 95.667 120.333 95 207s-33.667 156.334 -99 209.001s-146 79.667 -242 81h-106v121h106c84 0 153.333 24.667 208 74s82 113 82 191
c-0.666992 78 -28 139.333 -82 184s-123.333 67.667 -208 69c-131.333 0 -220 -52.667 -266 -158c-15.333 -35.333 -22.666 -77 -21.999 -125h-127c0 124 38.333 222.333 115 295s176.667 109 300 109s225 -34.333 305 -103c79.333 -69.333 118.333 -159.333 117 -270
c0 -73.333 -22.667 -140.333 -68 -201s-99.666 -100.334 -162.999 -119.001v-8c82.667 -18.667 151.334 -60.334 206.001 -125.001c55.333 -64.667 83 -141.667 83 -231c0 -121.333 -45.667 -218 -137 -290s-207.333 -108 -348 -108c-140 0 -252.333 38 -337 114
c-84.667 75.333 -127 185 -127 329z" />
    <glyph glyph-name="four" unicode="4" horiz-adv-x="1163" 
d="M735 494v698l-520 -698h520zM70 373v100l692 938h112v-917h216v-121h-216v-373h-139v373h-665z" />
    <glyph glyph-name="five" unicode="5" horiz-adv-x="1163" 
d="M301 774c68 84.667 168 127.001 300 127.001s241.333 -41.667 328 -125s130 -195.333 130 -336s-46.667 -253 -140 -337s-207 -126 -341 -126c-134.667 0 -242.667 36 -324 108c-82 72 -129.667 166.667 -143 284h139c11.333 -73.333 45 -137 101 -191
c56 -53.333 131.667 -80 227 -80c96 0 177 30.667 243 92s99 143.666 99 246.999c0 104 -31.667 187.667 -95 251s-143 94 -239 92c-120 0 -220.333 -55.333 -301 -166l-129 7l41 788h780v-127h-653l-29 -508h6z" />
    <glyph glyph-name="six" unicode="6" horiz-adv-x="1163" 
d="M281 432c0.666992 -97.333 32.3301 -177.333 94.9971 -240s140.334 -94 233.001 -94s172 30.333 238 91c66 63.333 98.667 146 98 248s-31.667 185 -93 249s-137.666 95.333 -228.999 94c-49.333 0 -95 -8.33301 -137 -25c-86.667 -35.333 -146.667 -96.333 -180 -183
c-17.333 -44 -25.666 -90.667 -24.999 -140zM108.996 680c0 254.667 51.998 448 155.998 580c93.333 114.667 214.666 172 363.999 172c190 0 317.333 -74.333 382 -223c20 -46 33.333 -96.667 40 -152h-140c-13.333 119.333 -68.666 197.333 -165.999 234
c-34 12.667 -74.333 19 -121 19c-106 0.666992 -194.333 -50.666 -265 -153.999c-70 -103.333 -105 -264.666 -105 -483.999c28.667 68 78.334 123.333 149.001 166c70.667 42 144.334 63 221.001 63c142.667 0 255.334 -42 338.001 -126
c82 -84.667 122.667 -196.334 122 -335.001s-47.334 -250.667 -140.001 -336c-92.667 -84.667 -202.667 -127 -330 -127c-238.667 0.666992 -394 125.667 -466 375c-25.333 89.333 -38.333 198.666 -39 327.999z" />
    <glyph glyph-name="seven" unicode="7" horiz-adv-x="1163" 
d="M113 1282v127h954v-100l-598 -1309h-145l591 1282h-802z" />
    <glyph glyph-name="eight" unicode="8" horiz-adv-x="1163" 
d="M581 793c85.333 0 156.002 24.3301 212.002 72.9971s84 112 84 190c0 78.667 -27.333 141.334 -82 188.001s-125.334 70.667 -212.001 72c-86.667 0.666992 -158 -22.666 -214 -69.999s-83.667 -110.666 -83 -189.999c0.666992 -78.667 28.667 -142 84 -190
c55.333 -48.667 125.666 -73 210.999 -73zM236.002 381.997c0 -86.667 31.333 -155.331 94 -205.998s146 -76.334 250 -77.001c103.333 -0.666992 187.333 24.666 252 75.999c64 51.333 96 120.333 96 207c0 86 -32.667 155.667 -98 209c-65.333 52.667 -148 79.667 -248 81
c-48 0 -93.333 -7 -136 -21c-86.667 -27.333 -148 -77 -184 -149c-17.333 -36 -26 -76 -26 -120zM96.002 362c0 93.333 27.332 173.335 81.999 240.002s123.667 109.667 207 129v8c-66.667 19.333 -121.667 59 -165 119c-44 60 -66 122 -66 186
c0 183.333 85 303.666 255 360.999c52.667 18 110.334 27 173.001 27c126 0 229 -34.333 309 -103c79.333 -68.667 119 -158.667 119 -270c0 -73.333 -22 -140.333 -66 -201s-99.333 -100.334 -166 -119.001v-8c84 -20 153.333 -62.667 208 -128
c54 -65.333 81 -141.333 81 -228c0 -122.667 -45 -219.667 -135 -291c-89.333 -71.333 -206 -107 -350 -107s-261 35.333 -351 106c-44 34.667 -77.333 76.667 -100 126c-23.333 49.333 -35 100.333 -35 153z" />
    <glyph glyph-name="nine" unicode="9" horiz-adv-x="1163" 
d="M883 974c0 91.333 -30.999 170.333 -92.999 237s-139.667 100 -233 100s-173 -30.333 -239 -91c-66 -63.333 -99 -145.666 -99 -246.999s30.667 -184.333 92 -249s138 -96.334 230 -95.001c49.333 0 94.666 8.33301 135.999 25c86 36 146 97.333 180 184
c17.333 44 26 89.333 26 136zM908.001 1274c98 -116.667 147.001 -301.332 147.001 -553.999s-45.667 -439.667 -137 -561s-214.333 -182 -369 -182c-192.667 0 -323.334 74.333 -392.001 223c-21.333 46 -36 96.667 -44 152h139
c31.333 -166.667 130.333 -251.334 297 -254.001c174.667 0 286.334 114 335.001 342c17.333 82 25.666 181 24.999 297c-28 -70 -78 -125.667 -150 -167c-71.333 -41.333 -145 -62 -221 -62c-142.667 0 -254.667 42 -336 126s-122 195.333 -122 334s46.333 250.667 139 336
s202.667 128 330 128c152 0 271.667 -52.667 359 -158z" />
    <glyph glyph-name="colon" unicode=":" horiz-adv-x="499" 
d="M162 0v229h176v-229h-176zM162 770v229h176v-229h-176z" />
    <glyph glyph-name="semicolon" unicode=";" horiz-adv-x="499" 
d="M162 0v229h176v-217l-86 -331h-82l66 319h-74zM162 770v229h176v-229h-176z" />
    <glyph glyph-name="less" unicode="&#x3c;" horiz-adv-x="1163" 
d="M150 461v121l864 368v-127l-723 -299l723 -299v-133z" />
    <glyph glyph-name="equal" unicode="=" horiz-adv-x="1163" 
d="M117 246v121h930v-121h-930zM117 674v121h930v-121h-930z" />
    <glyph glyph-name="greater" unicode="&#x3e;" horiz-adv-x="1163" 
d="M1014 582v-121l-864 -369v127l727 299l-727 299v133z" />
    <glyph glyph-name="question" unicode="?" horiz-adv-x="993" 
d="M408 0v209h161v-209h-161zM420 401l-0.00195312 57.9971c0 84.667 15.333 152.334 46 203.001s76.334 100.667 137.001 150s104.334 89.666 131.001 120.999c26.667 32.667 40 72.334 40 119.001c0 82.667 -24 146 -72 190c-48 44.667 -114.667 67.334 -200 68.001
s-154 -27.666 -206 -84.999c-51.333 -57.333 -77.666 -135.333 -78.999 -234h-139c0 127.333 38 232.666 114 315.999s178 125 306 125s230.333 -32 307 -96s115 -151 115 -261c0 -75.333 -15.333 -135.666 -46 -180.999s-76.667 -92 -138 -140
c-60.667 -48 -105.334 -90.333 -134.001 -127s-43 -86.667 -43 -150v-76h-139z" />
    <glyph glyph-name="at" unicode="@" horiz-adv-x="2113" 
d="M1292 410l-0.000976562 126.997c-16 -20 -35.667 -33 -59 -39c-23.333 -5.33301 -41.666 -9.66602 -54.999 -12.999l-217 -34c-100 -16 -162 -55.333 -186 -118c-7.33301 -20 -11 -43.333 -11 -70c0 -55.333 18.667 -98.666 56 -129.999s83.333 -47 138 -47
c152 0 255 62.333 309 187c16.667 40.667 25 86.334 25 137.001zM1432 308.997c0 -152.667 60.6689 -228.995 182.002 -228.995c75.333 0 139.666 41 192.999 123s79.666 200 78.999 354c0 236 -78 423.667 -234 563s-351.667 209 -587 209
c-122.667 0 -235.667 -21 -339 -63c-102.667 -42.667 -191.334 -102.667 -266.001 -180c-153.333 -160.667 -231 -363.667 -233 -609c-0.666992 -120 19 -231.667 59 -335c40 -102.667 96.333 -192 169 -268s159 -134.667 259 -176s214.667 -62 344 -62
c130 0 250 33.333 360 100c34.667 22 65.667 48 93 78h158c-67.333 -89.333 -156 -158.333 -266 -207c-110 -49.333 -231.667 -74 -365 -74c-134.667 0 -258.667 23.333 -372 70c-113.333 47.333 -212 113.666 -296 198.999s-149 185.666 -195 300.999s-69 240 -69 374
s23.333 259.333 70 376s112.667 218.334 198 305.001s187 154 305 202s245 72 381 72s261.333 -20.667 376 -62s215 -100.333 301 -177c86 -77.333 152.333 -170 199 -278c46.667 -107.333 70.334 -218.333 71.001 -333c0 -206.667 -39 -358.334 -117 -455.001
s-174 -144.334 -288 -143.001c-72.667 0 -126.334 10.667 -161.001 32c-64.667 40 -105.334 91.333 -122.001 154c-32 -62.667 -79 -110 -141 -142s-128.333 -48.667 -199 -50c-174.667 -2 -285.667 53.333 -333 166c-14 35.333 -21 73 -21 113
c0 122.667 58.333 208 175 256c40 17.333 87.333 30.666 142 39.999l217 35c54.667 8 90.334 17.333 107.001 28c17.333 11.333 26 29.333 26 54c0 158 -79.667 237 -239 237s-244.666 -73 -255.999 -219h-133c5.33301 100.667 43 181.667 113 243
c70 60.667 160.667 91 272 91c188 0 307.333 -71 358 -213c16.667 -46.667 25 -99.334 25 -158.001v-342z" />
    <glyph glyph-name="A" unicode="A" horiz-adv-x="1292" 
d="M647 1257h-8l-268 -727h542zM31 0l530 1409h170l531 -1409h-152l-149 406h-635l-150 -406h-145z" />
    <glyph glyph-name="B" unicode="B" horiz-adv-x="1341" 
d="M1036 1055c0 151.333 -97 227.001 -291 227.001h-419v-485h424c89.333 0 159.333 23.667 210 71s76 109.666 76 186.999zM780 670.001l-454.002 0.000976562v-543h454c102 0 179 25.667 231 77s78.667 117.666 80 198.999c0.666992 82 -25.666 147 -78.999 195
s-130.666 72 -231.999 72zM1182 1068c0 -167.333 -79.999 -275 -239.999 -323v-6c89.333 -12.667 160.666 -49 213.999 -109c54 -60 81 -126.333 81 -199c0 -134 -39.667 -239.333 -119 -316s-192 -115 -338 -115h-600v1409h565c218 0 354.667 -68.667 410 -206
c18 -44.667 27 -89.667 27 -135z" />
    <glyph glyph-name="C" unicode="C" horiz-adv-x="1449" 
d="M96 704c0 208.667 62 382.002 186 520.002c124 137.333 285.333 206.666 484 207.999c155.333 0 285 -41 389 -123c103.333 -82 171 -193.333 203 -334h-150c-64 218 -211.333 325.667 -442 323c-154.667 0 -279.667 -56 -375 -168s-143 -253.333 -143 -424
s47.333 -312.334 142 -425.001c94.667 -113.333 218 -170 370 -170c238 0 387.333 107.667 448 323h150c-34 -139.333 -103 -250.333 -207 -333s-234.333 -124 -391 -124c-96.667 0.666992 -186 19 -268 55c-165.333 73.333 -281.333 201.333 -348 384
c-32 88.667 -48 184.667 -48 288z" />
    <glyph glyph-name="D" unicode="D" horiz-adv-x="1425" 
d="M590 1282l-258 0.000976562v-1155h258c199.333 0 347 54 443 162c96.667 107.333 145 245.666 145 414.999s-48.667 308 -146 416c-96.667 108 -244 162 -442 162zM186 0.000976562v1409h404c238 0 420.667 -64.333 548 -193c127.333 -129.333 191 -300 191 -512
s-63.667 -382.333 -191 -511s-310 -193 -548 -193h-404z" />
    <glyph glyph-name="E" unicode="E" horiz-adv-x="1241" 
d="M186 0v1409h934v-127h-788v-500h633v-127h-633v-528h805v-127h-951z" />
    <glyph glyph-name="F" unicode="F" horiz-adv-x="1167" 
d="M186 0v1409h918v-127h-772v-534h616v-127h-616v-621h-146z" />
    <glyph glyph-name="G" unicode="G" horiz-adv-x="1546" 
d="M96 706c0 210 63.334 383 190.001 519c126.667 136.667 292 205.667 496 207c160.667 0 293 -40.333 397 -121s171.667 -186 203 -316h-151c-22 86.667 -72.333 159 -151 217s-178 86.667 -298 86c-159.333 0 -288 -55.333 -386 -166
c-98.667 -110.667 -148 -252 -148 -424s48.667 -314.333 146 -427c97.333 -113.333 218 -170 362 -170c143.333 0 261.666 37 354.999 111s140 180.333 140 319v69h-471v127h604v-737h-96l-24 242h-2c-74 -136 -184.333 -219 -331 -249c-48.667 -10 -111.667 -15 -189 -15
s-158 18 -242 54c-168 73.333 -286 202 -354 386c-33.333 89.333 -50 185.333 -50 288z" />
    <glyph glyph-name="H" unicode="H" horiz-adv-x="1466" 
d="M186 0v1409h146v-631h803v631h145v-1409h-145v651h-803v-651h-146z" />
    <glyph glyph-name="I" unicode="I" horiz-adv-x="518" 
d="M186 0v1409h146v-1409h-146z" />
    <glyph glyph-name="J" unicode="J" horiz-adv-x="1050" 
d="M238 408c0 -200 84.668 -301.333 254.001 -304c74.667 0 135 24.667 181 74c46.667 49.333 70 126 70 230v1001h146v-1014c0 -141.333 -35.667 -246.333 -107 -315s-168 -103 -290 -103c-192.667 0 -316.334 76.333 -371.001 229c-19.333 53.333 -29 116.333 -29 189v72
h146v-59z" />
    <glyph glyph-name="K" unicode="K" horiz-adv-x="1323" 
d="M186 0v1409h146v-821l758 821h172l-574 -610l602 -799h-164l-534 696l-260 -278v-418h-146z" />
    <glyph glyph-name="L" unicode="L" horiz-adv-x="1107" 
d="M186 0v1409h146v-1282h719v-127h-865z" />
    <glyph glyph-name="M" unicode="M" horiz-adv-x="1816" 
d="M186 0v1409h176l547 -1212h4l541 1212h176v-1409h-145l12 1180h-6l-526 -1180h-113l-526 1161h-7l13 -1161h-146z" />
    <glyph glyph-name="N" unicode="N" horiz-adv-x="1480" 
d="M186 0v1409h140l823 -1163h6l-6 1163h145v-1409h-139l-823 1157h-6l6 -1157h-146z" />
    <glyph glyph-name="O" unicode="O" horiz-adv-x="1544" 
d="M772 111c155.333 0 281.333 56 378 168c97.333 112 146 253.667 146 425s-48.667 313 -146 425c-97.333 112.667 -223.333 169 -378 169c-155.333 0 -281.333 -56 -378 -168c-97.333 -112 -146 -253.667 -146 -425s48.667 -313 146 -425
c96.667 -112.667 222.667 -169 378 -169zM1448 704c0 -210.667 -63.332 -383.999 -189.999 -519.999c-126.667 -136.667 -289.334 -205.334 -488.001 -206.001c-198 -0.666992 -359.667 67.333 -485 204c-126 136.667 -189 311 -189 523c0 211.333 62.667 385 188 521
s288 204.667 488 206c96.667 0 186.667 -18 270 -54c170 -74 289 -202.333 357 -385c32.667 -88.667 49 -185 49 -289z" />
    <glyph glyph-name="P" unicode="P" horiz-adv-x="1282" 
d="M715 1282h-383.001v-643h383c103.333 0 184 30.333 242 91s87 139.667 87 237c0 148.667 -62.333 245.667 -187 291c-41.333 16 -88.666 24 -141.999 24zM185.999 0v1409h523c151.333 0 269.333 -40.667 354 -122s127 -188.333 127 -321
c0 -133.333 -42.333 -242.333 -127 -327s-202.667 -127 -354 -127h-377v-512h-146z" />
    <glyph glyph-name="Q" unicode="Q" horiz-adv-x="1550" 
d="M772 111c155.333 0 281.333 56 378 168c97.333 112 146 253.667 146 425s-48.667 313 -146 425c-97.333 112.667 -223.333 169 -378 169c-155.333 0 -281.333 -56 -378 -168c-97.333 -112 -146 -253.667 -146 -425s48.667 -313 146 -425
c96.667 -112.667 222.667 -169 378 -169zM1448 705c0 -229.333 -76.332 -416 -228.999 -560l274 -282l-100 -101l-287 301c-101.333 -54.667 -207.333 -82.667 -318 -84c-110.667 -0.666992 -207.334 17 -290.001 53c-168.667 74 -286.667 202 -354 384
c-32 88.667 -48 185 -48 289c0 211.333 62.667 385 188 521s288 204.667 488 206c96.667 0 186.667 -18 270 -54c170 -74 289 -202.333 357 -385c32.667 -88.667 49 -184.667 49 -288z" />
    <glyph glyph-name="R" unicode="R" horiz-adv-x="1320" 
d="M721 1282h-389v-580h389c100 0 180 28.667 240 86c54 54 81 126 81 216c0 132.667 -61 219 -183 259c-40 12.667 -86 19 -138 19zM186 0l-0.000976562 1409h529c230 0 377.333 -78 442 -234c20.667 -50 31 -104.333 31 -163c0 -172.667 -63.333 -296.334 -190 -371.001
c-41.333 -24.667 -88.666 -42.334 -141.999 -53.001l373 -588h-158l-371 575h-368v-575h-146z" />
    <glyph glyph-name="S" unicode="S" horiz-adv-x="1306" 
d="M121 393l145.003 -0.00195312c0 -89.333 34 -160.333 102 -213c68 -53.333 161.667 -80.666 281 -81.999c184 0 303.333 56 358 168c16.667 34.667 25 74 25 118c-0.666992 114.667 -68.667 191.667 -204 231c-38.667 11.333 -84 21.333 -136 30l-92 17
c-142.667 24.667 -249 58.667 -319 102c-93.333 58 -140 147 -140 267s46.667 217 140 291c93.333 73.333 214.666 110 363.999 110c150 0 271.333 -34.333 364 -103c92 -68.667 138 -164.334 138 -287.001h-146c0 83.333 -32.333 148.666 -97 195.999
s-150.334 71.333 -257.001 72s-193.334 -22.666 -260.001 -69.999s-99.667 -111.666 -99 -192.999s35.667 -141 105 -179c54 -29.333 139.333 -53.666 256 -72.999l92 -17c138.667 -24.667 242 -59.667 310 -105c88.667 -61.333 133 -155 133 -281s-48 -226.667 -144 -302
s-226 -113 -390 -113s-293 37 -387 111c-94.667 74 -142 175.667 -142 305z" />
    <glyph glyph-name="T" unicode="T" horiz-adv-x="1185" 
d="M16 1286v123h1153v-123h-503v-1286h-146v1286h-504z" />
    <glyph glyph-name="U" unicode="U" horiz-adv-x="1409" 
d="M156 555v853.996h145v-854c0 -143.333 34 -253.666 102 -330.999c70 -76.667 170.333 -114.667 301 -114s230.667 38.334 300 113.001s104 185.334 104 332.001v854h145v-854c0 -289.333 -107.667 -470.666 -323 -543.999c-66.667 -22.667 -141.667 -34 -225 -34
s-158.333 11.333 -225 34c-216 72.667 -324 254 -324 544z" />
    <glyph glyph-name="V" unicode="V" horiz-adv-x="1247" 
d="M541 0l-521 1409h152l451 -1257h8l450 1257h146l-525 -1409h-161z" />
    <glyph glyph-name="W" unicode="W" horiz-adv-x="1880" 
d="M408 0l-381 1409h151l320 -1257h8l352 1257h176l352 -1257h7l315 1257h145l-374 -1409h-183l-350 1241h-6l-350 -1241h-182z" />
    <glyph glyph-name="X" unicode="X" horiz-adv-x="1198" 
d="M23 0l491 719l-475 690h164l393 -575l389 575h158l-467 -684l500 -725h-164l-418 608l-414 -608h-157z" />
    <glyph glyph-name="Y" unicode="Y" horiz-adv-x="1216" 
d="M532 0v561l-505 848h163l414 -698h6l428 698h152l-512 -838v-571h-146z" />
    <glyph glyph-name="Z" unicode="Z" horiz-adv-x="1177" 
d="M117 1286v123h985v-94l-846 -1192h838v-123h-1018v94l846 1192h-805z" />
    <glyph glyph-name="bracketleft" unicode="[" horiz-adv-x="651" 
d="M313 -352h301v-115h-428v1991h428v-115h-301v-1761z" />
    <glyph glyph-name="backslash" unicode="\" horiz-adv-x="821" 
d="M666 -25l-631 1459h121l630 -1459h-120z" />
    <glyph glyph-name="bracketright" unicode="]" horiz-adv-x="651" 
d="M37 -352h301v1761h-301v115h428v-1991h-428v115z" />
    <glyph glyph-name="asciicircum" unicode="^" horiz-adv-x="1163" 
d="M123 721l391 688h139l391 -688h-145l-319 577l-318 -577h-139z" />
    <glyph glyph-name="underscore" unicode="_" horiz-adv-x="1024" 
d="M0 -147h1024v-109h-1024v109z" />
    <glyph glyph-name="grave" unicode="`" horiz-adv-x="1126" 
d="M514 1163l-281 336h166l217 -336h-102z" />
    <glyph glyph-name="a" unicode="a" horiz-adv-x="1058" 
d="M242 264c0 -114.667 72.667 -172 218 -172c84 0 156.667 28 218 84s92 138.667 92 248v113c-16 -20 -35.667 -33 -59 -39l-56 -13l-211 -34c-134.667 -20 -202 -82.333 -202 -187zM909 0h-133.003v160h-6c-40.667 -87.333 -116.667 -144 -228 -170
c-90 -20.667 -175 -18 -255 8s-134.333 73.333 -163 142c-14.667 34 -22 71.333 -22 112c0 126 58.667 212 176 258c40 16.667 87.333 29.667 142 39l215 37c70.667 10.667 113.334 27.667 128.001 51c4.66699 8 7 19 7 33c-5.33301 158 -85.666 237 -240.999 237
s-240.333 -73 -255 -219h-133c5.33301 100 43 180.667 113 242s163.667 92 281 92c116.667 0 208.667 -31.667 276 -95c66.667 -63.333 99.334 -153.333 98.001 -270v-657z" />
    <glyph glyph-name="b" unicode="b" horiz-adv-x="1179" 
d="M303 500c0 -122.667 30.332 -220.333 90.999 -293s137 -109 229 -109s169 37.667 231 113c62.667 75.333 93.667 174.333 93 297s-31.667 219 -93 289c-61.333 69.333 -137.666 104 -228.999 104s-167.333 -34.667 -228 -104c-60 -69.333 -91.333 -162.333 -94 -279v-18z
M302.999 1124c0 -132 -1.99902 -233 -5.99902 -303h6c60.667 134 178 201 352 201c126 0 230 -45.667 312 -137c83.333 -96 125 -222 125 -378s-43 -283.333 -129 -382s-190.333 -148 -313 -148s-219.334 37.333 -290.001 112c-23.333 25.333 -42.333 55 -57 89h-6v-178
h-133v1499h139v-375z" />
    <glyph glyph-name="c" unicode="c" horiz-adv-x="1046" 
d="M88 500c0 78 11.666 149 34.999 213c48 132 130 222.667 246 272c56 24.667 115 37 177 37c179.333 0 305.666 -70 378.999 -210c22.667 -43.333 38 -90.666 46 -141.999h-140c-13.333 69.333 -44 125.333 -92 168c-47.333 42 -113 63 -197 63
s-156.333 -37.333 -217 -112c-61.333 -74.667 -92 -171.334 -92 -290.001s30.333 -215 91 -289c60.667 -74.667 136.334 -112 227.001 -112c114.667 0 197.334 46.333 248.001 139c15.333 28 26 59 32 93h140c-16.667 -106.667 -61.667 -192 -135 -256
c-73.333 -64.667 -168.333 -97 -285 -97c-142 0 -254.667 48 -338 144s-125 222.333 -125 379z" />
    <glyph glyph-name="d" unicode="d" horiz-adv-x="1179" 
d="M324 204c60.667 -70.667 136.667 -105.998 228 -105.998c90.667 0 167 34.333 229 103c61.333 68.667 93.333 162 96 280v37c-2.66699 116.667 -34.667 210 -96 280s-137 104.667 -227 104c-89.333 -0.666992 -165 -38.334 -227 -113.001
c-62.667 -74.667 -94 -173 -94 -295c0 -122.667 30.333 -219.334 91 -290.001zM524 -22.998c-127.333 0 -231.999 47.001 -313.999 141.001c-81.333 94 -122 219 -122 375s43 283 129 381c86 98.667 190.333 148 313 148s219 -38 289 -114
c23.333 -25.333 42.666 -54.333 57.999 -87h6c-4 70 -6 168.333 -6 295v383h139v-1499h-133v180h-6c-60 -132.667 -177.667 -200.334 -353 -203.001z" />
    <glyph glyph-name="e" unicode="e" horiz-adv-x="1062" 
d="M809 729c-46 114.667 -132 172 -258 172c-78.667 0 -146 -27.333 -202 -82s-92.333 -129.667 -109 -225h598c-4 52 -13.667 97 -29 135zM88 498c0 78 11.666 149 34.999 213c48 132.667 129.667 223.667 245 273c56.667 25.333 116.667 38 180 38
s121.333 -10.667 174 -32c106.667 -43.333 181.667 -125 225 -245c21.333 -58.667 32 -124.667 32 -198v-58h-746c2.66699 -118 33 -212.667 91 -284s139.667 -107 245 -107c106 0 183.667 41.333 233 124c14.667 25.333 24.334 52.333 29.001 81h140
c-13.333 -92.667 -58.333 -170 -135 -232c-76 -62.667 -169 -94 -279 -94c-148.667 0 -264 47.333 -346 142c-82 94 -123 220.333 -123 379z" />
    <glyph glyph-name="f" unicode="f" horiz-adv-x="606" 
d="M205 0v887h-199v112h199v177c0 159.333 60 260.333 180 303c39.333 13.333 85 20 137 20h109v-121h-96c-100 0 -160.333 -38.667 -181 -116c-6.66699 -26 -10 -57 -10 -93v-170h254v-112h-254v-887h-139z" />
    <glyph glyph-name="g" unicode="g" horiz-adv-x="1179" 
d="M324 204c60.667 -70.667 136.667 -105.998 228 -105.998c90.667 0 167 34.333 229 103c61.333 68.667 93.333 162 96 280v37c-2.66699 116.667 -34.667 210 -96 280s-137 104.667 -227 104c-89.333 -0.666992 -165 -38.334 -227 -113.001
c-62.667 -74.667 -94 -173 -94 -295c0 -122.667 30.333 -219.334 91 -290.001zM524 -22.998c-127.333 0 -232.001 47 -314.001 141c-81.333 94 -122 219 -122 375s43 283 129 381c86 98.667 190.333 148 313 148s219 -38 289 -114c23.333 -25.333 42.666 -54.333 57.999 -87
h6v178h133v-956c0 -174 -45.333 -305 -136 -393c-83.333 -78 -191.333 -117 -324 -117c-133.333 0 -240.666 29.667 -321.999 89c-80.667 61.333 -121 146.333 -121 255h133c0 -71.333 27.333 -127.333 82 -168s126.334 -61 215.001 -61c161.333 0 266 70.333 314 211
c17.333 50.667 26 112 26 184v135h-6c-64 -131.333 -181.667 -198.333 -353 -201z" />
    <glyph glyph-name="h" unicode="h" horiz-adv-x="1142" 
d="M631 1022c106 0 193.333 -33 262 -99c68 -66 101.333 -169.667 100 -311v-612h-139v594c0 156.667 -49.333 253.667 -148 291c-30.667 10.667 -66 16 -106 16c-40 -0.666992 -78 -9 -114 -25c-76 -34 -129 -98 -159 -192c-16 -48 -24 -101.333 -24 -160v-524h-139v1499
h139v-366c0 -128 -2 -227 -6 -297h6c60.667 124 170 186 328 186z" />
    <glyph glyph-name="i" unicode="i" horiz-adv-x="466" 
d="M164 0v999h139v-999h-139zM158 1303v196h151v-196h-151z" />
    <glyph glyph-name="j" unicode="j" horiz-adv-x="466" 
d="M164 -172v1171h139v-1196c0 -166.667 -85.333 -251.334 -256 -254.001h-61v121h49c66 0 106.667 29 122 87c4.66699 20 7 43.667 7 71zM158 1303v196h151v-196h-151z" />
    <glyph glyph-name="k" unicode="k" horiz-adv-x="1015" 
d="M164 0v1499h139v-1040l488 540h165l-372 -403l415 -596h-165l-345 494l-186 -203v-291h-139z" />
    <glyph glyph-name="l" unicode="l" horiz-adv-x="466" 
d="M164 0v1499h139v-1499h-139z" />
    <glyph glyph-name="m" unicode="m" horiz-adv-x="1767" 
d="M821 606c0 196.667 -76.334 295.001 -229.001 295.001c-80.667 0 -149 -33.333 -205 -100s-84 -160.334 -84 -281.001v-520h-139v999h133v-163h6c63.333 124 171.333 186 324 186s255 -71 307 -213c64.667 142 179.334 213 344.001 213c97.333 0 178.333 -31.667 243 -95
s97 -164 97 -302v-625h-139v606c0 152.667 -43.667 245.667 -131 279c-29.333 10.667 -62.666 16 -99.999 16c-80 0 -148 -34 -204 -102c-56.667 -68 -84.334 -161.667 -83.001 -281v-518h-140v606z" />
    <glyph glyph-name="n" unicode="n" horiz-adv-x="1142" 
d="M631 1022c106 0 193.333 -33 262 -99c68 -66 101.333 -169.667 100 -311v-612h-139v594c0 156.667 -49.333 253.667 -148 291c-30.667 10.667 -66 16 -106 16c-40 -0.666992 -78 -9 -114 -25c-76 -34 -129 -98.667 -159 -194c-16 -48 -24 -102 -24 -162v-520h-139v999
h133v-163h6c60.667 124 170 186 328 186z" />
    <glyph glyph-name="o" unicode="o" horiz-adv-x="1126" 
d="M325 209c61.333 -74 140 -110.999 236 -110.999s175.667 37 239 111c62 74.667 93 172 93 292s-30 216.667 -90 290s-139 110 -237 110c-97.333 0 -177 -37.333 -239 -112c-62.667 -74.667 -94 -171.334 -94 -290.001c0 -119.333 30.667 -216 92 -290zM88 499.001
c0 156 44.335 282 133.002 378c88.667 96.667 204 145 346 145c141.333 0 255.333 -48 342 -144c87.333 -96 130.666 -222.333 129.999 -379c-0.666992 -156 -45.667 -282 -135 -378s-204.333 -144 -345 -144s-254.334 47.667 -341.001 143
c-86.667 96.667 -130 223 -130 379z" />
    <glyph glyph-name="p" unicode="p" horiz-adv-x="1179" 
d="M303 500c0 -122.667 30.332 -220.333 90.999 -293s137 -109 229 -109s168.667 37.333 230 112c62 74.667 93 173.667 93 297c0 124 -30.667 220.667 -92 290s-137.666 104 -228.999 104s-167.333 -34.667 -228 -104c-60 -69.333 -91.333 -162.333 -94 -279v-18z
M302.999 -124.999l0.000976562 -326h-139v1450h133v-178h6c60.667 134 178 201 352 201c126 0 230 -45.667 312 -137c83.333 -96 125 -222 125 -378s-43 -283.333 -129 -382s-190.333 -148 -313 -148s-219.334 37.333 -290.001 112c-23.333 25.333 -42.333 55 -57 89h-6
c4 -70 6 -171 6 -303z" />
    <glyph glyph-name="q" unicode="q" horiz-adv-x="1173" 
d="M785 207c61.333 72.667 92 170.335 92 293.002v18c-2.66699 116.667 -34.667 210 -96 280s-137 104.667 -227 104c-89.333 -0.666992 -165 -38.334 -227 -113.001c-62.667 -74.667 -94 -173 -94 -295c0 -122.667 30.333 -219.334 91 -290.001s137.667 -106 231 -106
c92 0 168.667 36.333 230 109zM524 -22.999c-127.333 0 -231.999 47 -313.999 141c-81.333 94 -122 219 -122 375s43 283 129 381c86 98.667 190.333 148 313 148s219 -38 289 -114c23.333 -25.333 42.666 -54.333 57.999 -87h6v178h133v-1450h-139v336
c0 125.333 2 223 6 293h-6c-64 -131.333 -181.667 -198.333 -353 -201z" />
    <glyph glyph-name="r" unicode="r" horiz-adv-x="716" 
d="M544 889c-78 0 -137.666 -35.001 -178.999 -105.001s-62 -155.333 -62 -256v-528h-139v999h133v-163h6c36.667 88.667 96.667 146.334 180 173.001c27.333 8.66699 59.666 13 96.999 13s65.333 -4.66699 84 -14c20 -9.33301 36.333 -18.333 49 -27l-45 -125
c-44 22 -85.333 33 -124 33z" />
    <glyph glyph-name="s" unicode="s" horiz-adv-x="985" 
d="M82 283l133 -0.00292969c0 -63.333 25.333 -112 76 -146s105.667 -51 165 -51c194.667 0 293.334 62.667 296.001 188c0 65.333 -33.333 110.666 -100 135.999c-22.667 8 -49 14.667 -79 20l-188 33c-86.667 15.333 -147.334 36.333 -182.001 63
c-34 26.667 -59 55.334 -75 86.001s-24 68.334 -24 113.001c0 89.333 35.667 161 107 215c71.333 53.333 163 80.333 275 81s204 -23.666 276 -72.999s107.333 -123 106 -221h-133c0 62 -22.667 108.333 -68 139c-45.333 31.333 -105.333 47 -180 47
c-116 0 -192.333 -33.667 -229 -101c-12 -22.667 -18 -47 -18 -73c0 -64.667 29 -107.667 87 -129c36 -13.333 69.667 -22.666 101 -27.999l188 -33c92 -17.333 160.667 -45.333 206 -84s68 -103 68 -193c0.666992 -89.333 -36 -160.333 -110 -213
c-74 -53.333 -171.667 -80.333 -293 -81s-219 25.333 -293 78c-74.667 52 -112 127.667 -112 227z" />
    <glyph glyph-name="t" unicode="t" horiz-adv-x="649" 
d="M188 287v599.999h-196v112h196v304h140v-304h272v-112h-272v-594c0 -89.333 29 -143.666 87 -162.999c20 -6 44 -9 72 -9h113v-121h-131c-187.333 0 -281 95.667 -281 287z" />
    <glyph glyph-name="u" unicode="u" horiz-adv-x="1132" 
d="M147 387v612.001h140v-593c0 -160 48.667 -257 146 -291c77.333 -26.667 151.333 -23.334 222 9.99902s121.334 97.333 152.001 192c15.333 48 22.666 102.667 21.999 164v518h140v-999h-133v164h-7c-59.333 -122 -166.333 -184.333 -321 -187
c-169.333 0 -280.333 74.333 -333 223c-18.667 52 -28 114.333 -28 187z" />
    <glyph glyph-name="v" unicode="v" horiz-adv-x="942" 
d="M399 0l-383 999h152l307 -847h6l305 847h140l-375 -999h-152z" />
    <glyph glyph-name="w" unicode="w" horiz-adv-x="1456" 
d="M313 0l-297 999h146l231 -854h8l248 854h164l248 -854h8l231 854h140l-297 -999h-168l-244 860h-6l-244 -860h-168z" />
    <glyph glyph-name="x" unicode="x" horiz-adv-x="919" 
d="M29 0l354 502l-348 497h164l268 -391l266 391h152l-350 -495l356 -504h-166l-272 399l-271 -399h-153z" />
    <glyph glyph-name="y" unicode="y" horiz-adv-x="942" 
d="M68 -346l54.999 -0.000976562c118 0 201.333 71.667 250 215l37 100l-394 1030h152l307 -847h6l305 847h140l-439 -1169c-33.333 -89.333 -68.666 -152.666 -105.999 -189.999c-69.333 -70 -147.333 -105 -234 -105h-79v119z" />
    <glyph glyph-name="z" unicode="z" horiz-adv-x="886" 
d="M63 887v112h752v-94l-567 -792h575v-113h-751v82l575 805h-584z" />
    <glyph glyph-name="braceleft" unicode="{" horiz-adv-x="733" 
d="M291 -160l-0.00195312 385c0 94.667 -15.667 160.667 -47 198s-91.666 58.666 -180.999 63.999v97c90 5.33301 150.333 27.333 181 66c31.333 38.667 47 104 47 196v371c0 102.667 24 179.334 72 230.001c48 50 125.667 75.667 233 77h100v-109h-94
c-68 0 -115.667 -15.333 -143 -46s-41 -79.334 -41 -146.001v-414c0 -112 -37 -189 -111 -231c-26 -15.333 -57.333 -28.333 -94 -39v-7c74 -21.333 126.667 -52.666 158 -93.999s47 -100 47 -176v-428c0 -100 33 -160.333 99 -181c24 -7.33301 52.333 -11 85 -11h94v-109
h-100c-159.333 0 -255.666 58.333 -288.999 175c-10.667 37.333 -16 81.333 -16 132z" />
    <glyph glyph-name="bar" unicode="|" horiz-adv-x="524" 
d="M199 -492v2048h127v-2048h-127z" />
    <glyph glyph-name="braceright" unicode="}" horiz-adv-x="733" 
d="M37 -358l94.002 -0.000976562c68 0 115.667 15.333 143 46s41 79.334 41 146.001v428c0 109.333 37.667 186.666 113 231.999c26 15.333 57.333 28 94 38v7c-109.333 32 -174.333 88.667 -195 170c-7.33301 28.667 -11.333 62 -12 100v414c0 100 -33 160.333 -99 181
c-24 7.33301 -52.333 11 -85 11h-94v109h100c159.333 0 255.666 -58.333 288.999 -175c10.667 -37.333 16 -81.333 16 -132v-371c0 -90.667 15.667 -155.667 47 -195s91.666 -61.666 180.999 -66.999v-97c-89.333 -5.33301 -149.333 -26.333 -180 -63s-46.667 -103 -48 -199
v-385c0 -152.667 -54.667 -248 -164 -286c-38.667 -13.333 -85.667 -20.333 -141 -21h-100v109z" />
    <glyph glyph-name="asciitilde" unicode="~" horiz-adv-x="1163" 
d="M373 559c-82 0 -122.998 -59.3311 -122.998 -177.998h-121c0 142 49.667 233.333 149 274c68 28 137.333 27 208 -3c34.667 -14.667 74 -36 118 -64s79 -48.667 105 -62s53.333 -20 82 -20c81.333 0 122 57.333 122 172h121c0 -140.667 -48.333 -232.334 -145 -275.001
c-28.667 -12 -61.334 -18 -98.001 -18c-60.667 0 -137.334 30 -230.001 90c-46 30 -81.667 51.667 -107 65s-52.333 19.666 -81 18.999z" />
    <glyph glyph-name="uni00A0" unicode="&#xa0;" horiz-adv-x="442" 
 />
    <glyph glyph-name="exclamdown" unicode="&#xa1;" horiz-adv-x="524" 
d="M344 -410h-164v377l43 645h78l43 -645v-377zM180 791v208h164v-208h-164z" />
    <glyph glyph-name="cent" unicode="&#xa2;" horiz-adv-x="1163" 
d="M537 -23v218.002c-127.333 16 -228.333 69.667 -303 161c-74 93.333 -111 211 -111 353s39 260.333 117 355s179 150.334 303 167.001v201h139v-201c98.667 -12.667 180.667 -50.334 246 -113.001c65.333 -62 105 -140.333 119 -235h-140c-13.333 68 -45 123.667 -95 167
c-50.667 42.667 -121.334 64 -212.001 64s-168.667 -37 -234 -111s-98 -170.667 -98 -290c0 -118.667 32.333 -215.334 97 -290.001s145 -112 241 -112c127.333 0 216.333 46.333 267 139c16 28 27.333 59 34 93h140c-20.667 -146.667 -97 -250.334 -229 -311.001
c-43.333 -20 -90.666 -32.333 -141.999 -37v-218h-139z" />
    <glyph glyph-name="sterling" unicode="&#xa3;" horiz-adv-x="1163" 
d="M387 225c-59.333 41.333 -113.667 62 -163 62s-84 -23.333 -104 -70c-6 -13.333 -9 -28 -9 -44c0 -52 21.667 -86.333 65 -103c13.333 -6 30 -9 50 -9c72 0 125.667 54.667 161 164zM405.999 332c4 20 6 40.3369 6 61.0039v21c0 80 -20 169.333 -60 268h-221v98h184
c-34.667 96 -54.334 162.667 -59.001 200c-5.33301 37.333 -8 75.333 -8 114s8.66699 80.667 26 126c36 89.333 101 151.333 195 186c46.667 17.333 97.667 26 153 26c54.667 0 104 -8 148 -24c133.333 -48.667 206.333 -160.334 219 -335.001h-139
c-8 118.667 -54.333 195 -139 229c-27.333 10 -58.333 15 -93 15c-70.667 0 -126.667 -20.667 -168 -62c-42 -41.333 -63 -100 -63 -176c0 -75.333 26.667 -175 80 -299h348v-98h-311l24 -84c10.667 -36.667 16.334 -84.334 17.001 -143.001c0 -59.333 -9 -125 -27 -197
c82 -60 142 -101.333 180 -124s76.667 -34.334 116 -35.001c38.667 -0.666992 68 4.33301 88 15c52 28.667 82.333 102.667 91 222h121c-9.33301 -106 -28.333 -182 -57 -228s-61.667 -79.333 -99 -100s-76.666 -31 -117.999 -31s-82 7 -122 21s-79.333 35.667 -118 65
l-119 93c-56.667 -116.667 -143.334 -176.334 -260.001 -179.001c-64 0 -114 17.667 -150 53s-54.667 74.666 -56 117.999c-1.33301 74.667 18.667 131.334 60 170.001c41.333 38 91.333 57.333 150 58c58 0.666992 118.333 -14 181 -44z" />
    <glyph glyph-name="currency" unicode="&#xa4;" horiz-adv-x="1163" 
d="M807 707c0 68.667 -21 124.334 -63 167.001s-96.333 64 -163 64c-66 0 -119.667 -21.333 -161 -64s-62.333 -99 -63 -169s20 -126.333 62 -169s96.667 -64.334 164 -65.001c66.667 0 120.667 22 162 66s62 100.667 62 170zM309 504
c-44.667 73.333 -67.001 142.333 -67.001 207s23 130 69 196l-121 125l70 70l123 -125c52.667 42 119.334 63 200.001 63s145.667 -21 195 -63l123 125l72 -70l-123 -123c45.333 -56.667 69.333 -124.667 72 -204c0 -65.333 -23.333 -132.333 -70 -201l121 -123l-70 -70
l-121 121c-60 -42 -128.667 -63 -206 -63s-143 21.667 -197 65l-119 -123l-72 70z" />
    <glyph glyph-name="yen" unicode="&#xa5;" horiz-adv-x="1163" 
d="M186 526v90h326v7l-471 786h158l385 -655h8l385 655h145l-471 -791v-2h326v-90h-326v-180h326v-90h-326v-256h-139v256h-326v90h326v180h-326z" />
    <glyph glyph-name="brokenbar" unicode="&#xa6;" horiz-adv-x="524" 
d="M199 -336v721h127v-721h-127zM199 688v721h127v-721h-127z" />
    <glyph glyph-name="section" unicode="&#xa7;" horiz-adv-x="1146" 
d="M409 720c-100.667 -50.667 -151 -124.331 -151 -220.998s43.667 -165.334 131 -206.001c28.667 -13.333 63.667 -26.333 105 -39l129 -39c80.667 13.333 144.667 42.666 192 87.999c48 46 72.667 100.667 74 164c0 96.667 -43.667 165.667 -131 207
c-29.333 14 -64.333 27.667 -105 41l-137 41c-39.333 -8 -75 -20 -107 -36zM981 -126.997c0 -101.333 -39.333 -183.332 -118 -245.999s-179.334 -94 -302.001 -94c-190.667 0 -318.334 59 -383.001 177c-22 40.667 -35 88.334 -39 143.001h133
c5.33301 -70 33.666 -122.667 84.999 -158s119.666 -53 204.999 -53c86 0 153.667 19.333 203 58c50 38.667 75.333 96 76 172c0.666992 75.333 -40.333 132 -123 170c-25.333 11.333 -55.666 22.666 -90.999 33.999l-189 57c-160.667 49.333 -259 124.666 -295 225.999
c-12 36.667 -18 75.667 -18 117c0 117.333 49.667 209.333 149 276c31.333 20.667 66.333 37 105 49c-106 43.333 -172 105.333 -198 186c-10 31.333 -15 70 -15 116c0 96 39.333 175.333 118 238c78.667 62 179.334 93 302.001 93c191.333 0 319 -59.333 383 -178
c22 -40 35 -87.333 39 -142h-134c-5.33301 70 -33.666 122.667 -84.999 158s-119.666 53 -204.999 53s-152.666 -19.333 -201.999 -58c-50 -38.667 -75.333 -96 -76 -172c-0.666992 -75.333 40.333 -132 123 -170c25.333 -11.333 55.666 -22.666 90.999 -33.999l189 -57
c160.667 -48.667 259 -124.334 295 -227.001c12 -36.667 18 -75.667 18 -117c0 -118 -50 -209.667 -150 -275c-31.333 -20.667 -66 -37 -104 -49c142 -58 213 -155.667 213 -293z" />
    <glyph glyph-name="dieresis" unicode="&#xa8;" horiz-adv-x="1126" 
d="M293 1239v184h139v-184h-139zM696 1239v184h140v-184h-140z" />
    <glyph glyph-name="copyright" unicode="&#xa9;" horiz-adv-x="1589" 
d="M449 713c0.666992 48.667 9 95.002 25 139.002c34.667 92 93.334 156.333 176.001 193c83.333 36 164.333 41.333 243 16c117.333 -38 186.333 -112.333 207 -223h-113c-16.667 64 -56.667 107 -120 129c-20.667 6.66699 -46.334 10 -77.001 10
c-66 0 -120 -25.333 -162 -76s-63.333 -113 -64 -187s20.333 -136.667 63 -188s98.667 -77 168 -77c104 0 168 46.333 192 139h113c-13.333 -70.667 -47 -127.334 -101 -170.001s-114.333 -64.334 -181 -65.001c-172.667 -2 -287.667 71.333 -345 220
c-16 44 -24 90.667 -24 140zM362 261.002c112.667 -124.667 256.333 -186.998 431 -186.998s319 62 433 186s171 274.667 171 452s-56.333 324.333 -169 441c-112.667 117.333 -257.667 176 -435 176c-176.667 0 -321 -58.667 -433 -176
c-111.333 -116.667 -167 -263.334 -167 -440.001s56.333 -327.334 169 -452.001zM77.999 713.004c0 205.333 67.332 376.001 201.999 512.001c134.667 136.667 306.334 205.667 515.001 207c99.333 0 193 -18 281 -54c180.667 -74.667 307.667 -202 381 -382
c36 -88 54 -182.667 54 -284c0 -204.667 -67.333 -378.334 -202 -521.001c-64.667 -67.333 -141 -119.666 -229 -156.999s-183.333 -56 -286 -56s-197.667 18.667 -285 56c-177.333 76 -303.333 207 -378 393c-35.333 89.333 -53 184.666 -53 285.999z" />
    <glyph glyph-name="ordfeminine" unicode="&#xaa;" horiz-adv-x="778" 
d="M549 995v72.001c-16 -16 -30.333 -25.333 -43 -28l-31 -5l-141 -18c-87.333 -10 -131 -50.333 -131 -121c0 -53.333 26.333 -89 79 -107c17.333 -5.33301 38 -8 62 -8c56 0 104.333 18.333 145 55c40 37.333 60 90.666 60 159.999zM307 688.001
c-71.333 0 -127.666 18.001 -168.999 54.001s-62 84.333 -62 145c0 115.333 75.667 185 227 209l156 20c35.333 5.33301 59.333 12 72 20c12 8 18 23 18 45c0 69.333 -29.667 115.666 -89 138.999c-20 7.33301 -48 11 -84 11s-69 -12 -99 -36
c-30.667 -24 -48 -60.333 -52 -109h-119c8 118.667 68 193.667 180 225c33.333 9.33301 70.666 14 111.999 14c87.333 0 155 -21 203 -63c48.667 -42 73.667 -104.667 75 -188v-469h-123v106h-4c-45.333 -82 -126 -123 -242 -123z" />
    <glyph glyph-name="guillemotleft" unicode="&#xab;" horiz-adv-x="1034" 
d="M410 98l-297 418l297 418h114l-254 -418l254 -418h-114zM510 516l297 418h115l-254 -418l254 -418h-115z" />
    <glyph glyph-name="logicalnot" unicode="&#xac;" horiz-adv-x="1163" 
d="M117 459v121h930v-523h-127v402h-803z" />
    <glyph glyph-name="uni00AD" unicode="&#xad;" horiz-adv-x="811" 
d="M123 453v127h565v-127h-565z" />
    <glyph glyph-name="registered" unicode="&#xae;" horiz-adv-x="1589" 
d="M836 969h-203.001v-244h203c66.667 0 110.667 24.667 132 74c6 15.333 9 32.333 9 51c0 56 -26.667 93 -80 111c-17.333 5.33301 -37.666 8 -60.999 8zM517.999 360l0.000976562 705.001h322c123.333 0 201.666 -42 234.999 -126c22 -54.667 23.667 -108 5 -160
c-22 -68.667 -73.333 -115.334 -154 -140.001l184 -279h-125l-170 267h-182v-267h-115zM362 261.001c112.667 -124.667 256.333 -186.998 431 -186.998s319 62 433 186s171 274.667 171 452s-56.333 324.333 -169 441c-112.667 117.333 -257.667 176 -435 176
c-176.667 0 -321 -58.667 -433 -176c-111.333 -116.667 -167 -263.334 -167 -440.001s56.333 -327.334 169 -452.001zM77.999 713.003c0 205.333 67.332 376.001 201.999 512.001c134.667 136.667 306.334 205.667 515.001 207c99.333 0 193 -18 281 -54
c180.667 -74.667 307.667 -202 381 -382c36 -88 54 -182.667 54 -284c0 -204.667 -67.333 -378.334 -202 -521.001c-64.667 -67.333 -141 -119.666 -229 -156.999s-183.333 -56 -286 -56s-197.667 18.667 -285 56c-177.333 76 -303.333 207 -378 393
c-35.333 89.333 -53 184.666 -53 285.999z" />
    <glyph glyph-name="macron" unicode="&#xaf;" horiz-adv-x="1126" 
d="M279 1276v108h565v-108h-565z" />
    <glyph glyph-name="degree" unicode="&#xb0;" horiz-adv-x="729" 
d="M363 1329c-49.333 0 -89.333 -16.667 -120 -50s-46 -75.666 -46 -126.999c0 -52 15.667 -94 47 -126c31.333 -32.667 72 -49 122 -49c49.333 0 89.333 16.667 120 50s46 75.666 46 126.999c0 52 -15.667 94 -47 126c-32 32 -72.667 48.333 -122 49zM162 957
c-54.667 53.333 -81.666 119.331 -80.999 197.998s27.667 144.334 81 197.001c53.333 52 120.333 78.333 201 79c80 0.666992 147.667 -25.666 203 -78.999s82.666 -119.666 81.999 -198.999c-0.666992 -78.667 -28 -144.334 -82 -197.001
c-54.667 -52.667 -122 -79 -202 -79s-147.333 26.667 -202 80z" />
    <glyph glyph-name="plusminus" unicode="&#xb1;" horiz-adv-x="1163" 
d="M117 0v121h930v-121h-930zM117 625v120h401v373h127v-373h402v-120h-402v-373h-127v373h-401z" />
    <glyph glyph-name="twosuperior" unicode="&#xb2;" 
d="M80 1016c0 124.667 45.334 218 136.001 280c25.333 18 54.333 35.333 87 52l59 30c73.333 33.333 119.666 67 138.999 101c7.33301 13.333 11 28.333 11 45c0 76 -49 114 -147 114c-78 0 -129 -29 -153 -87c-8.66699 -20 -13.667 -42.667 -15 -68h-115
c2.66699 84.667 30.667 147.667 84 189c54 40.667 120.333 61.667 199 63c126.667 0 209.334 -40 248.001 -120c12.667 -26.667 19 -55.667 19 -87c0.666992 -78 -42.333 -142 -129 -192c-22.667 -12.667 -52.334 -28 -89.001 -46l-60 -28
c-60 -27.333 -101.667 -62 -125 -104c-6.66699 -12.667 -10 -26 -10 -40h418v-102h-557z" />
    <glyph glyph-name="threesuperior" unicode="&#xb3;" 
d="M76 1225h113.999c0 -67.333 34 -109.666 102 -126.999c21.333 -5.33301 44 -8 68 -8c81.333 0 134 23.333 158 70c8 16 12 34 12 54s-4 38.333 -12 55c-23.333 46.667 -76 70 -158 70h-59v84h59c70.667 0 117.334 21.333 140.001 64c6.66699 13.333 10 29 10 47
c0 70.667 -50 107.667 -150 111c-68 0 -114.667 -25 -140 -75c-7.33301 -16 -11 -33.333 -11 -52h-115c0 71.333 24.667 125.333 74 162s115.666 55.667 198.999 57c118.667 0 199.334 -38.333 242.001 -115c22.667 -41.333 28 -82 16 -122
c-18.667 -62 -59 -100.667 -121 -116v-4c66 -12 112 -49.667 138 -113c7.33301 -20 11 -43.667 11 -71c0 -60 -25.333 -107.667 -76 -143c-50.667 -34.667 -123 -52.667 -217 -54c-134.667 0 -222.667 41 -264 123c-13.333 29.333 -20 63.666 -20 102.999z" />
    <glyph glyph-name="acute" unicode="&#xb4;" horiz-adv-x="1126" 
d="M510 1163l217 336h166l-281 -336h-102z" />
    <glyph glyph-name="mu" unicode="&#xb5;" horiz-adv-x="1150" 
d="M303 -293v-157.999h-139v1450h139v-593c0 -160 49 -257 147 -291c77.333 -26.667 152 -23.334 224 9.99902s122.333 96.333 151 189c15.333 47.333 23 101 23 161v524h137v-999h-131v164h-6c-59.333 -122 -166.666 -184.333 -321.999 -187c-75.333 0 -138.333 16 -189 48
c-18.667 10.667 -35.334 23.334 -50.001 38.001c10.667 -98.667 16 -217.334 16 -356.001z" />
    <glyph glyph-name="paragraph" unicode="&#xb6;" horiz-adv-x="1239" 
d="M555 0v539c-142 8 -253.667 51 -335 129s-122 181.667 -122 311s45 233.333 135 312s211.667 118 365 118h96v-1409h-139zM889 0v1409h139v-1409h-139z" />
    <glyph glyph-name="periodcentered" unicode="&#xb7;" horiz-adv-x="499" 
d="M162 406v221h176v-221h-176z" />
    <glyph glyph-name="cedilla" unicode="&#xb8;" horiz-adv-x="1126" 
d="M657 -256c0 64 -40.666 96.001 -121.999 96.001h-56l58 160h53l-12 -82c90 -4 148.667 -40 176 -108c8 -20.667 12 -43.334 12 -68.001c0 -86 -41.667 -142.667 -125 -170c-28.667 -9.33301 -61.334 -14 -98.001 -14h-109v90h103c80 0 120 32 120 96z" />
    <glyph glyph-name="onesuperior" unicode="&#xb9;" 
d="M451 1720v-602h200v-102h-538v102h217v457l-185 -107l-51 86l281 166h76z" />
    <glyph glyph-name="ordmasculine" unicode="&#xba;" horiz-adv-x="833" 
d="M416 793c100.667 0 167.999 52.332 201.999 156.999c23.333 71.333 24.333 141.333 3 210s-59.666 116.334 -114.999 143.001c-27.333 12 -57 18 -89 18c-65.333 0 -118 -23.667 -158 -71s-60 -111.333 -60 -192s20 -145 60 -193s92.333 -72 157 -72zM667.999 789.999
c-65.333 -66.667 -150.334 -100 -255.001 -100s-188.667 33.667 -252 101s-94.666 156 -93.999 266c0.666992 110.667 33.667 200 99 268s150 101.667 254 101c104.667 -0.666992 188.667 -34.667 252 -102c62.667 -67.333 94 -156.333 94 -267
c0 -111.333 -32.667 -200.333 -98 -267z" />
    <glyph glyph-name="guillemotright" unicode="&#xbb;" horiz-adv-x="1034" 
d="M113 98l254 418l-254 418h112l299 -418l-299 -418h-112zM510 98l254 418l-254 418h115l297 -418l-297 -418h-115z" />
    <glyph glyph-name="onequarter" unicode="&#xbc;" horiz-adv-x="1564" 
d="M1274 246v297l-242 -297h242zM451 1409v-602h200v-102h-538v102h217v457l-185 -107l-51 86l281 166h76zM440 -25l713 1459h111l-715 -1459h-109zM899 150v77l393 480h103v-461h108v-96h-108v-150h-121v150h-375z" />
    <glyph glyph-name="onehalf" unicode="&#xbd;" horiz-adv-x="1564" 
d="M451 1409v-602h200v-102h-538v102h217v457l-185 -107l-51 86l281 166h76zM399 -25l715 1459h109l-713 -1459h-111zM1356 506c0 75.333 -49.332 114.335 -147.999 117.002c-104 0 -160 -52 -168 -156h-114c3.33301 123.333 62.666 202.666 177.999 237.999
c32.667 9.33301 68 14 106 14c82.667 0 147.667 -18 195 -54c46.667 -36 70.334 -90 71.001 -162c0.666992 -71.333 -42.333 -132 -129 -182c-22.667 -12.667 -52.667 -28.334 -90 -47.001l-59 -28c-60 -27.333 -101.667 -62 -125 -104c-6.66699 -12.667 -10 -26 -10 -40
h418v-102h-557c0 122.667 45.333 216.334 136 281.001c25.333 18 54.333 35 87 51l59 30c73.333 33.333 119.666 67 138.999 101c7.33301 13.333 11 27.666 11 42.999z" />
    <glyph glyph-name="threequarters" unicode="&#xbe;" horiz-adv-x="1564" 
d="M1274 246v297l-242 -297h242zM418 -25l715 1459h108l-715 -1459h-108zM76 913l113.998 -0.000976562c0 -64.667 34 -107 102 -127c21.333 -5.33301 51.333 -8 90 -8c37.333 0 71.333 10.333 102 31s46 52 46 94c0 58.667 -33.667 97.667 -101 117
c-21.333 5.33301 -44.333 8 -69 8h-59v84h59c70.667 0 117.334 21.333 140.001 64c6.66699 13.333 10 29 10 47c0 54 -29.667 88.333 -89 103c-18.667 4.66699 -39 7 -61 7c-68 0 -114.667 -25 -140 -75c-7.33301 -16 -11 -33.333 -11 -52h-115c0 70 25 124 75 162
s116 57 198 57c118.667 0 199.334 -38 242.001 -114c22.667 -41.333 26.667 -85.666 12 -132.999c-16 -54.667 -55 -89.667 -117 -105v-4c66.667 -12 112.667 -50 138 -114c7.33301 -20.667 11 -44.334 11 -71.001c0 -59.333 -25.667 -106.666 -77 -141.999
c-51.333 -36 -123.333 -54 -216 -54c-136 0 -224 41 -264 123c-13.333 28.667 -20 62.667 -20 102zM898.998 149.999v77l393 480h103v-461h108v-96h-108v-150h-121v150h-375z" />
    <glyph glyph-name="questiondown" unicode="&#xbf;" horiz-adv-x="993" 
d="M80 -60c0 65.333 15.3311 119.999 45.998 163.999c30.667 45.333 76.334 92.333 137.001 141s105.334 91.334 134.001 128.001s43 86.334 43 149.001v76h140v-57c0 -84.667 -15.333 -152.334 -46 -203.001s-76.667 -100.667 -138 -150s-105 -90 -131 -122
c-26.667 -32 -40 -71.333 -40 -118c0 -81.333 24.333 -145 73 -191c48.667 -45.333 111.667 -68 189 -68c142.667 0 234.667 63 276 189c12.667 38.667 19 82 19 130h140c0 -127.333 -38 -232.333 -114 -315c-76 -83.333 -183 -125 -321 -125c-58.667 0 -112.667 8 -162 24
c-163.333 54.667 -245 170.667 -245 348zM427.998 790.999v208h162v-208h-162z" />
    <glyph glyph-name="Agrave" unicode="&#xc0;" horiz-adv-x="1292" 
d="M594 1573l-281 336h166l217 -336h-102zM647 1257h-8l-268 -727h542zM31 0l530 1409h170l531 -1409h-152l-149 406h-635l-150 -406h-145z" />
    <glyph glyph-name="Aacute" unicode="&#xc1;" horiz-adv-x="1292" 
d="M590 1573l217 336h166l-281 -336h-102zM647 1257h-8l-268 -727h542zM31 0l530 1409h170l531 -1409h-152l-149 406h-635l-150 -406h-145z" />
    <glyph glyph-name="Acircumflex" unicode="&#xc2;" horiz-adv-x="1292" 
d="M317 1573l263 336h127l262 -336h-133l-193 252l-192 -252h-134zM647 1257h-8l-268 -727h542zM31 0l530 1409h170l531 -1409h-152l-149 406h-635l-150 -406h-145z" />
    <glyph glyph-name="Atilde" unicode="&#xc3;" horiz-adv-x="1292" 
d="M793 1671c49.333 0 80.665 35.667 93.998 107h78c-4.66699 -92 -39.667 -154.333 -105 -187c-22 -10.667 -46.333 -16 -73 -16c-44.667 0 -97.667 17.333 -159 52c-62 34.667 -103 52 -123 52c-46.667 0 -77 -22.333 -91 -67c-4 -12 -7.66699 -25 -11 -39h-77
c4.66699 94 39.334 156.333 104.001 187c47.333 21.333 97.333 22 150 2c24.667 -8.66699 60.334 -26 107.001 -52c46 -26 81.333 -39 106 -39zM646.999 1257h-8l-268 -727h542zM30.999 0l530 1409h170l531 -1409h-152l-149 406h-635l-150 -406h-145z" />
    <glyph glyph-name="Adieresis" unicode="&#xc4;" horiz-adv-x="1292" 
d="M373 1573v184h139v-184h-139zM776 1573v184h139v-184h-139zM647 1257h-8l-268 -727h542zM31 0l530 1409h170l531 -1409h-152l-149 406h-635l-150 -406h-145z" />
    <glyph glyph-name="Aring" unicode="&#xc5;" horiz-adv-x="1292" 
d="M643 1642c52.667 0 89.332 24 109.999 72c6 16 9 32 9 48c0 54 -24.333 90.667 -73 110c-15.333 5.33301 -31 8 -47 8c-53.333 0 -89.333 -24 -108 -72c-13.333 -34 -15 -62 -5 -84c16.667 -38 39.334 -62.333 68.001 -73c14 -6 29.333 -9 46 -9zM641.998 1571
c-53.333 0 -99.0029 17.332 -137.003 51.999s-57.333 80.667 -58 138s18.333 103 57 137c38.667 34.667 84.667 52.334 138 53.001s99.333 -16.333 138 -51s58.334 -81 59.001 -139s-18.666 -104 -57.999 -138c-39.333 -34.667 -85.666 -52 -138.999 -52zM646.995 1257h-8
l-268 -727h542zM30.9951 -0.000976562l530 1409h170l531 -1409h-152l-149 406h-635l-150 -406h-145z" />
    <glyph glyph-name="AE" unicode="&#xc6;" horiz-adv-x="2152" 
d="M1098 463v778h-2l-566 -778h568zM2032 1409v-127h-789v-500h633v-127h-633v-528h805v-127h-950v336h-660l-243 -336h-172l1026 1409h983z" />
    <glyph glyph-name="Ccedilla" unicode="&#xc7;" horiz-adv-x="1449" 
d="M854 -256c0 64 -41 96.002 -123 96.002h-55l49 140c-188.667 8 -340.667 79.667 -456 215s-173 306.333 -173 513s62 378.667 186 516s285.333 206.666 484 207.999c155.333 0 285 -41 389 -123c103.333 -82 171 -193.333 203 -334h-150
c-64 218 -211.333 325.667 -442 323c-154.667 0 -279.667 -56 -375 -168s-143 -253.333 -143 -424s47.333 -312.334 142 -425.001c94.667 -113.333 218 -170 370 -170c238 0 387.333 107.667 448 323h150c-31.333 -136 -97.333 -245 -198 -327s-226.667 -125.333 -378 -130
l-8 -59c90 -4 148.667 -40 176 -108c18 -46.667 17.667 -93 -1 -139c-28.667 -75.333 -98.667 -113 -210 -113h-108v90h102c80.667 0 121 32 121 96z" />
    <glyph glyph-name="Egrave" unicode="&#xc8;" horiz-adv-x="1241" 
d="M606 1573l-280 336h166l217 -336h-103zM186 0v1409h934v-127h-788v-500h633v-127h-633v-528h805v-127h-951z" />
    <glyph glyph-name="Eacute" unicode="&#xc9;" horiz-adv-x="1241" 
d="M602 1573l217 336h166l-280 -336h-103zM186 0v1409h934v-127h-788v-500h633v-127h-633v-528h805v-127h-951z" />
    <glyph glyph-name="Ecircumflex" unicode="&#xca;" horiz-adv-x="1241" 
d="M330 1573l262 336h127l262 -336h-133l-193 252l-192 -252h-133zM186 0v1409h934v-127h-788v-500h633v-127h-633v-528h805v-127h-951z" />
    <glyph glyph-name="Edieresis" unicode="&#xcb;" horiz-adv-x="1241" 
d="M385 1573v184h139v-184h-139zM788 1573v184h140v-184h-140zM186 0v1409h934v-127h-788v-500h633v-127h-633v-528h805v-127h-951z" />
    <glyph glyph-name="Igrave" unicode="&#xcc;" horiz-adv-x="518" 
d="M209 1573l-281 336h166l217 -336h-102zM186 0v1409h146v-1409h-146z" />
    <glyph glyph-name="Iacute" unicode="&#xcd;" horiz-adv-x="518" 
d="M205 1573l217 336h166l-281 -336h-102zM186 0v1409h146v-1409h-146z" />
    <glyph glyph-name="Icircumflex" unicode="&#xce;" horiz-adv-x="518" 
d="M-68 1573l263 336h127l262 -336h-133l-193 252l-192 -252h-134zM186 0v1409h146v-1409h-146z" />
    <glyph glyph-name="Idieresis" unicode="&#xcf;" horiz-adv-x="518" 
d="M-12 1573v184h139v-184h-139zM391 1573v184h139v-184h-139zM186 0v1409h146v-1409h-146z" />
    <glyph glyph-name="Eth" unicode="&#xd0;" horiz-adv-x="1425" 
d="M590 1282l-258 0.000976562v-514h332v-119h-332v-522h258c199.333 0 347 54 443 162c96.667 107.333 145 245.666 145 414.999s-48.667 308 -146 416c-96.667 108 -244 162 -442 162zM8 649.001v119h178v641h404c238 0 420.667 -64.333 548 -193
c127.333 -129.333 191 -300 191 -512s-63.667 -382.333 -191 -511s-310 -193 -548 -193h-404v649h-178z" />
    <glyph glyph-name="Ntilde" unicode="&#xd1;" horiz-adv-x="1480" 
d="M594 1679c-49.333 0 -80.668 -35.333 -94.001 -106h-78c4.66699 94 39.334 156.333 104.001 187c47.333 21.333 97.333 22 150 2c24.667 -8.66699 60.334 -26 107.001 -52s82 -39 106 -39c49.333 0 80.666 35.667 93.999 107h78c-4.66699 -92.667 -39.667 -155 -105 -187
c-21.333 -10.667 -45.333 -16 -72 -16c-44.667 0 -98 17.333 -160 52s-105.333 52 -130 52zM185.998 0v1409h140l823 -1163h6l-6 1163h145v-1409h-139l-823 1157h-6l6 -1157h-146z" />
    <glyph glyph-name="Ograve" unicode="&#xd2;" horiz-adv-x="1544" 
d="M723 1573l-281 336h166l217 -336h-102zM772 111c155.333 0 281.333 56 378 168c97.333 112 146 253.667 146 425s-48.667 313 -146 425c-97.333 112.667 -223.333 169 -378 169c-155.333 0 -281.333 -56 -378 -168c-97.333 -112 -146 -253.667 -146 -425
s48.667 -313 146 -425c96.667 -112.667 222.667 -169 378 -169zM1448 704c0 -210.667 -63.332 -383.999 -189.999 -519.999c-126.667 -136.667 -289.334 -205.334 -488.001 -206.001c-198 -0.666992 -359.667 67.333 -485 204c-126 136.667 -189 311 -189 523
c0 211.333 62.667 385 188 521s288 204.667 488 206c96.667 0 186.667 -18 270 -54c170 -74 289 -202.333 357 -385c32.667 -88.667 49 -185 49 -289z" />
    <glyph glyph-name="Oacute" unicode="&#xd3;" horiz-adv-x="1544" 
d="M719 1573l217 336h166l-281 -336h-102zM772 111c155.333 0 281.333 56 378 168c97.333 112 146 253.667 146 425s-48.667 313 -146 425c-97.333 112.667 -223.333 169 -378 169c-155.333 0 -281.333 -56 -378 -168c-97.333 -112 -146 -253.667 -146 -425
s48.667 -313 146 -425c96.667 -112.667 222.667 -169 378 -169zM1448 704c0 -210.667 -63.332 -383.999 -189.999 -519.999c-126.667 -136.667 -289.334 -205.334 -488.001 -206.001c-198 -0.666992 -359.667 67.333 -485 204c-126 136.667 -189 311 -189 523
c0 211.333 62.667 385 188 521s288 204.667 488 206c96.667 0 186.667 -18 270 -54c170 -74 289 -202.333 357 -385c32.667 -88.667 49 -185 49 -289z" />
    <glyph glyph-name="Ocircumflex" unicode="&#xd4;" horiz-adv-x="1544" 
d="M446 1573l263 336h127l262 -336h-133l-193 252l-192 -252h-134zM772 111c155.333 0 281.333 56 378 168c97.333 112 146 253.667 146 425s-48.667 313 -146 425c-97.333 112.667 -223.333 169 -378 169c-155.333 0 -281.333 -56 -378 -168
c-97.333 -112 -146 -253.667 -146 -425s48.667 -313 146 -425c96.667 -112.667 222.667 -169 378 -169zM1448 704c0 -210.667 -63.332 -383.999 -189.999 -519.999c-126.667 -136.667 -289.334 -205.334 -488.001 -206.001c-198 -0.666992 -359.667 67.333 -485 204
c-126 136.667 -189 311 -189 523c0 211.333 62.667 385 188 521s288 204.667 488 206c96.667 0 186.667 -18 270 -54c170 -74 289 -202.333 357 -385c32.667 -88.667 49 -185 49 -289z" />
    <glyph glyph-name="Otilde" unicode="&#xd5;" horiz-adv-x="1544" 
d="M757 1627c-62 34.667 -103.001 52 -123.001 52c-46.667 0 -77 -22.333 -91 -67c-4 -12 -7.66699 -25 -11 -39h-77c4.66699 94 39.334 156.333 104.001 187c47.333 21.333 97.333 22 150 2c24.667 -8.66699 60.334 -26 107.001 -52s82 -39 106 -39
c49.333 0 80.666 35.667 93.999 107h78c-4.66699 -92 -39.667 -154.333 -105 -187c-22 -10.667 -50.667 -16 -86 -16s-84 17.333 -146 52zM771.999 111c155.333 0 281.333 56 378 168c97.333 112 146 253.667 146 425s-48.667 313 -146 425
c-97.333 112.667 -223.333 169 -378 169c-155.333 0 -281.333 -56 -378 -168c-97.333 -112 -146 -253.667 -146 -425s48.667 -313 146 -425c96.667 -112.667 222.667 -169 378 -169zM1448 704c0 -210.667 -63.332 -383.999 -189.999 -519.999
c-126.667 -136.667 -289.334 -205.334 -488.001 -206.001c-198 -0.666992 -359.667 67.333 -485 204c-126 136.667 -189 311 -189 523c0 211.333 62.667 385 188 521s288 204.667 488 206c96.667 0 186.667 -18 270 -54c170 -74 289 -202.333 357 -385
c32.667 -88.667 49 -185 49 -289z" />
    <glyph glyph-name="Odieresis" unicode="&#xd6;" horiz-adv-x="1544" 
d="M502 1573v184h139v-184h-139zM905 1573v184h139v-184h-139zM772 111c155.333 0 281.333 56 378 168c97.333 112 146 253.667 146 425s-48.667 313 -146 425c-97.333 112.667 -223.333 169 -378 169c-155.333 0 -281.333 -56 -378 -168
c-97.333 -112 -146 -253.667 -146 -425s48.667 -313 146 -425c96.667 -112.667 222.667 -169 378 -169zM1448 704c0 -210.667 -63.332 -383.999 -189.999 -519.999c-126.667 -136.667 -289.334 -205.334 -488.001 -206.001c-198 -0.666992 -359.667 67.333 -485 204
c-126 136.667 -189 311 -189 523c0 211.333 62.667 385 188 521s288 204.667 488 206c96.667 0 186.667 -18 270 -54c170 -74 289 -202.333 357 -385c32.667 -88.667 49 -185 49 -289z" />
    <glyph glyph-name="multiply" unicode="&#xd7;" horiz-adv-x="1163" 
d="M168 858l84 82l330 -334l331 334l84 -84l-331 -336l331 -334l-84 -82l-329 332l-332 -334l-84 84l332 336z" />
    <glyph glyph-name="Oslash" unicode="&#xd8;" horiz-adv-x="1544" 
d="M772 111c155.333 0 281.333 56 378 168c97.333 112 146 251 146 417c0 165.333 -44.333 304 -133 416l-717 -885c88 -77.333 196.667 -116 326 -116zM772 1298c-155.333 0 -281.333 -56.001 -378 -168.001c-97.333 -112 -146 -251 -146 -417
c0 -165.333 43.667 -304.666 131 -417.999l719 887c-88 77.333 -196.667 116 -326 116zM1255 1225c128.667 -140 192.999 -314.332 192.999 -522.999s-64.333 -381.334 -193 -518.001s-289.667 -205.667 -483 -207c-156 0 -294.667 46.667 -416 140l-112 -142h-123l166 205
c-124.667 135.333 -187.667 309.333 -189 522s61.334 387 188.001 523c126.667 136.667 288.667 205.667 486 207c158 0 296 -48 414 -144l117 146h120z" />
    <glyph glyph-name="Ugrave" unicode="&#xd9;" horiz-adv-x="1409" 
d="M655 1573l-280 336h166l217 -336h-103zM156 555v853.996h145v-854c0 -143.333 34 -253.666 102 -330.999c70 -76.667 170.333 -114.667 301 -114s230.667 38.334 300 113.001s104 185.334 104 332.001v854h145v-854c0 -289.333 -107.667 -470.666 -323 -543.999
c-66.667 -22.667 -141.667 -34 -225 -34s-158.333 11.333 -225 34c-216 72.667 -324 254 -324 544z" />
    <glyph glyph-name="Uacute" unicode="&#xda;" horiz-adv-x="1409" 
d="M651 1573l217 336h166l-280 -336h-103zM156 555v853.996h145v-854c0 -143.333 34 -253.666 102 -330.999c70 -76.667 170.333 -114.667 301 -114s230.667 38.334 300 113.001s104 185.334 104 332.001v854h145v-854c0 -289.333 -107.667 -470.666 -323 -543.999
c-66.667 -22.667 -141.667 -34 -225 -34s-158.333 11.333 -225 34c-216 72.667 -324 254 -324 544z" />
    <glyph glyph-name="Ucircumflex" unicode="&#xdb;" horiz-adv-x="1409" 
d="M379 1573l262 336h127l262 -336h-133l-192 252l-193 -252h-133zM156 555v853.996h145v-854c0 -143.333 34 -253.666 102 -330.999c70 -76.667 170.333 -114.667 301 -114s230.667 38.334 300 113.001s104 185.334 104 332.001v854h145v-854
c0 -289.333 -107.667 -470.666 -323 -543.999c-66.667 -22.667 -141.667 -34 -225 -34s-158.333 11.333 -225 34c-216 72.667 -324 254 -324 544z" />
    <glyph glyph-name="Udieresis" unicode="&#xdc;" horiz-adv-x="1409" 
d="M434 1573v184h139v-184h-139zM838 1573v184h139v-184h-139zM156 555v853.996h145v-854c0 -143.333 34 -253.666 102 -330.999c70 -76.667 170.333 -114.667 301 -114s230.667 38.334 300 113.001s104 185.334 104 332.001v854h145v-854
c0 -289.333 -107.667 -470.666 -323 -543.999c-66.667 -22.667 -141.667 -34 -225 -34s-158.333 11.333 -225 34c-216 72.667 -324 254 -324 544z" />
    <glyph glyph-name="Yacute" unicode="&#xdd;" horiz-adv-x="1216" 
d="M555 1573l217 336h166l-281 -336h-102zM532 0v561l-505 848h163l414 -698h6l428 698h152l-512 -838v-571h-146z" />
    <glyph glyph-name="Thorn" unicode="&#xde;" horiz-adv-x="1282" 
d="M715 1049h-383.001v-646h383c104 0 185 30.333 243 91c57.333 60.667 86 139.667 86 237c0 148.667 -62.333 246.667 -187 294c-41.333 16 -88.666 24 -141.999 24zM185.999 0v1409h146v-235h377c151.333 0 269.333 -40.667 354 -122s127 -188.333 127 -321
s-42.667 -241.667 -128 -327s-203 -128 -353 -128h-377v-276h-146z" />
    <glyph glyph-name="germandbls" unicode="&#xdf;" horiz-adv-x="1126" 
d="M152 0l-0.000976562 1047c0 157.333 38.333 275.666 115 354.999c76.667 80 176 120 298 120c122.667 0 214.667 -28.667 276 -86c62 -57.333 93 -128.333 93 -213c0 -48 -10 -88.667 -30 -122c-20 -32.667 -49 -67.667 -87 -105s-65 -66 -81 -86s-24 -46 -24 -78
s10.667 -58.333 32 -79c21.333 -20 64 -53.667 128 -101s111.667 -93.333 143 -138c30.667 -45.333 46 -98.666 46 -159.999s-10 -113.333 -30 -156c-40 -86 -109 -144.333 -207 -175c-47.333 -15.333 -98.666 -23 -153.999 -23h-162v115h162c116.667 0 194 41 232 123
c13.333 28 20 64.667 20 110s-14 84 -42 116s-70 67.667 -126 107s-98 76.333 -126 111s-42 78.334 -42 131.001c0 52 9.33301 93.333 28 124c19.333 30.667 47.333 63.334 84 98.001s64 64.667 82 90c18 26 27 55 27 87c0 58.667 -20 105.667 -60 141
c-40 36 -99.333 54 -178 54c-185.333 0 -278 -120 -278 -360v-1047h-139z" />
    <glyph glyph-name="agrave" unicode="&#xe0;" horiz-adv-x="1058" 
d="M494 1163l-281 336h166l217 -336h-102zM242 264c0 -114.667 72.667 -172 218 -172c84 0 156.667 28 218 84s92 138.667 92 248v113c-16 -20 -35.667 -33 -59 -39l-56 -13l-211 -34c-134.667 -20 -202 -82.333 -202 -187zM909 0h-133.003v160h-6
c-40.667 -87.333 -116.667 -144 -228 -170c-90 -20.667 -175 -18 -255 8s-134.333 73.333 -163 142c-14.667 34 -22 71.333 -22 112c0 126 58.667 212 176 258c40 16.667 87.333 29.667 142 39l215 37c70.667 10.667 113.334 27.667 128.001 51c4.66699 8 7 19 7 33
c-5.33301 158 -85.666 237 -240.999 237s-240.333 -73 -255 -219h-133c5.33301 100 43 180.667 113 242s163.667 92 281 92c116.667 0 208.667 -31.667 276 -95c66.667 -63.333 99.334 -153.333 98.001 -270v-657z" />
    <glyph glyph-name="aacute" unicode="&#xe1;" horiz-adv-x="1058" 
d="M457 1163l217 336h166l-281 -336h-102zM242 264c0 -114.667 72.667 -172 218 -172c84 0 156.667 28 218 84s92 138.667 92 248v113c-16 -20 -35.667 -33 -59 -39l-56 -13l-211 -34c-134.667 -20 -202 -82.333 -202 -187zM909 0h-133.003v160h-6
c-40.667 -87.333 -116.667 -144 -228 -170c-90 -20.667 -175 -18 -255 8s-134.333 73.333 -163 142c-14.667 34 -22 71.333 -22 112c0 126 58.667 212 176 258c40 16.667 87.333 29.667 142 39l215 37c70.667 10.667 113.334 27.667 128.001 51c4.66699 8 7 19 7 33
c-5.33301 158 -85.666 237 -240.999 237s-240.333 -73 -255 -219h-133c5.33301 100 43 180.667 113 242s163.667 92 281 92c116.667 0 208.667 -31.667 276 -95c66.667 -63.333 99.334 -153.333 98.001 -270v-657z" />
    <glyph glyph-name="acircumflex" unicode="&#xe2;" horiz-adv-x="1058" 
d="M201 1163l262 336h127l262 -336h-133l-193 252l-192 -252h-133zM242 264c0 -114.667 72.667 -172 218 -172c84 0 156.667 28 218 84s92 138.667 92 248v113c-16 -20 -35.667 -33 -59 -39l-56 -13l-211 -34c-134.667 -20 -202 -82.333 -202 -187zM909 0h-133.003v160h-6
c-40.667 -87.333 -116.667 -144 -228 -170c-90 -20.667 -175 -18 -255 8s-134.333 73.333 -163 142c-14.667 34 -22 71.333 -22 112c0 126 58.667 212 176 258c40 16.667 87.333 29.667 142 39l215 37c70.667 10.667 113.334 27.667 128.001 51c4.66699 8 7 19 7 33
c-5.33301 158 -85.666 237 -240.999 237s-240.333 -73 -255 -219h-133c5.33301 100 43 180.667 113 242s163.667 92 281 92c116.667 0 208.667 -31.667 276 -95c66.667 -63.333 99.334 -153.333 98.001 -270v-657z" />
    <glyph glyph-name="atilde" unicode="&#xe3;" horiz-adv-x="1058" 
d="M381 1335c-49.333 0 -80.668 -35.333 -94.001 -106h-78c4.66699 94 39.334 156.333 104.001 187c47.333 21.333 97.333 22 150 2c24.667 -8.66699 60.334 -26 107.001 -52s82 -39 106 -39c49.333 0 80.666 35.667 93.999 107h78c-4.66699 -92.667 -39.667 -155 -105 -187
c-22 -10.667 -46.333 -16 -73 -16c-44.667 0 -97.667 17.333 -159 52c-62 34.667 -105.333 52 -130 52zM241.998 264c0 -114.667 72.667 -172 218 -172c84 0 156.667 28 218 84s92 138.667 92 248v113c-16 -20 -35.667 -33 -59 -39l-56 -13l-211 -34
c-134.667 -20 -202 -82.333 -202 -187zM908.998 0h-133.003v160h-6c-40.667 -87.333 -116.667 -144 -228 -170c-90 -20.667 -175 -18 -255 8s-134.333 73.333 -163 142c-14.667 34 -22 71.333 -22 112c0 126 58.667 212 176 258c40 16.667 87.333 29.667 142 39l215 37
c70.667 10.667 113.334 27.667 128.001 51c4.66699 8 7 19 7 33c-5.33301 158 -85.666 237 -240.999 237s-240.333 -73 -255 -219h-133c5.33301 100 43 180.667 113 242s163.667 92 281 92c116.667 0 208.667 -31.667 276 -95c66.667 -63.333 99.334 -153.333 98.001 -270
v-657z" />
    <glyph glyph-name="adieresis" unicode="&#xe4;" horiz-adv-x="1058" 
d="M256 1239v184h139v-184h-139zM659 1239v184h140v-184h-140zM242 264c0 -114.667 72.667 -172 218 -172c84 0 156.667 28 218 84s92 138.667 92 248v113c-16 -20 -35.667 -33 -59 -39l-56 -13l-211 -34c-134.667 -20 -202 -82.333 -202 -187zM909 0h-133.003v160h-6
c-40.667 -87.333 -116.667 -144 -228 -170c-90 -20.667 -175 -18 -255 8s-134.333 73.333 -163 142c-14.667 34 -22 71.333 -22 112c0 126 58.667 212 176 258c40 16.667 87.333 29.667 142 39l215 37c70.667 10.667 113.334 27.667 128.001 51c4.66699 8 7 19 7 33
c-5.33301 158 -85.666 237 -240.999 237s-240.333 -73 -255 -219h-133c5.33301 100 43 180.667 113 242s163.667 92 281 92c116.667 0 208.667 -31.667 276 -95c66.667 -63.333 99.334 -153.333 98.001 -270v-657z" />
    <glyph glyph-name="aring" unicode="&#xe5;" horiz-adv-x="1058" 
d="M636 1305c6 15.333 9 36 9 62c0.666992 26 -10.333 49.667 -33 71s-46.667 32 -72 32c-44 0 -77 -11 -99 -33s-33 -45.667 -33 -71s3 -46 9 -62c19.333 -48 55.333 -71.667 108 -71c53.333 0 90.333 24 111 72zM389 1213c-39.333 35.333 -59.001 81.666 -59.001 138.999
s19.333 103.333 58 138s84.667 52 138 52s99.333 -17.333 138 -52s58.334 -80.667 59.001 -138c-0.666992 -57.333 -20.334 -103.666 -59.001 -138.999c-39.333 -34.667 -84.666 -52 -135.999 -52c-52.667 0 -99 17.333 -139 52zM241.999 264
c0 -114.667 72.667 -172 218 -172c84 0 156.667 28 218 84s92 138.667 92 248v113c-16 -20 -35.667 -33 -59 -39l-56 -13l-211 -34c-134.667 -20 -202 -82.333 -202 -187zM908.999 0h-133.003v160h-6c-40.667 -87.333 -116.667 -144 -228 -170c-90 -20.667 -175 -18 -255 8
s-134.333 73.333 -163 142c-14.667 34 -22 71.333 -22 112c0 126 58.667 212 176 258c40 16.667 87.333 29.667 142 39l215 37c70.667 10.667 113.334 27.667 128.001 51c4.66699 8 7 19 7 33c-5.33301 158 -85.666 237 -240.999 237s-240.333 -73 -255 -219h-133
c5.33301 100 43 180.667 113 242s163.667 92 281 92c116.667 0 208.667 -31.667 276 -95c66.667 -63.333 99.334 -153.333 98.001 -270v-657z" />
    <glyph glyph-name="ae" unicode="&#xe6;" horiz-adv-x="1728" 
d="M1471 725c-45.333 117.333 -128.333 176 -249 176c-78 0 -144.667 -28.333 -200 -85s-88.666 -130.667 -99.999 -222h575c-2.66699 49.333 -11.334 93 -26.001 131zM770 430v107c-16 -20 -35.667 -33 -59 -39l-56 -13l-211 -34
c-134.667 -21.333 -202 -83.666 -202 -186.999c0 -54.667 18 -97 54 -127s82 -45 138 -45c162 0 265.667 62.333 311 187c16.667 43.333 25 93.666 25 150.999zM1645 547l-0.00292969 -58.001h-730c0 -117.333 29 -212 87 -284c58.667 -71.333 135 -107 229 -107
c113.333 0 192.333 41.333 237 124c13.333 25.333 23 52.333 29 81h137c-10.667 -90.667 -54 -167.667 -130 -231s-167 -95 -273 -95c-140.667 0 -252 46.333 -334 139c-26 29.333 -48 63 -66 101c-77.333 -157.333 -211.666 -237.333 -402.999 -240
c-102 0 -181.667 25 -239 75c-58 50 -87 116.667 -87 200c0 162 106 261 318 297l215 37c70.667 10.667 113.334 27.667 128.001 51c4.66699 8 7 24.333 7 49c0 62 -20 114.333 -60 157s-99.333 64 -178 64c-116 0 -193.667 -41.333 -233 -124
c-13.333 -28 -21.666 -59.667 -24.999 -95h-133c8 109.333 48 192 120 248s166 84.333 282 85c115.333 0.666992 206.666 -32.666 273.999 -99.999c22 -22.667 39.667 -49 53 -79c80.667 120 198.334 180 353.001 180c125.333 0 227 -43 305 -129
c78 -86.667 117 -202 117 -346z" />
    <glyph glyph-name="ccedilla" unicode="&#xe7;" horiz-adv-x="1046" 
d="M645 -256c0 64 -41.002 96.001 -123.002 96.001h-55l49 140c-131.333 8 -235.333 59 -312 153c-77.333 94 -116 217.333 -116 370c0 152 43.667 276.667 131 374c87.333 96.667 193.333 145 318 145c125.333 0 225 -32.333 299 -97s119 -149.667 135 -255h-140
c-13.333 69.333 -44 125.333 -92 168c-47.333 42 -113 63 -197 63s-156.333 -37.333 -217 -112c-61.333 -74.667 -92 -171.334 -92 -290.001s30.333 -215 91 -289c60.667 -74.667 136.334 -112 227.001 -112c114.667 0 197.334 46.333 248.001 139c15.333 28 26 59 32 93
h140c-16 -101.333 -58.333 -184.333 -127 -249c-68.667 -64 -159 -98.667 -271 -104l-8 -59c60.667 -2.66699 107 -20 139 -52s48.333 -66.667 49 -104c2 -98 -39.333 -161.333 -124 -190c-28.667 -9.33301 -61.667 -14 -99 -14h-108v90h102c80.667 0 121 32 121 96z" />
    <glyph glyph-name="egrave" unicode="&#xe8;" horiz-adv-x="1062" 
d="M500 1163l-281 336h166l217 -336h-102zM809 729c-46 114.667 -132 172 -258 172c-78.667 0 -146 -27.333 -202 -82s-92.333 -129.667 -109 -225h598c-4 52 -13.667 97 -29 135zM88 498c0 78 11.666 149 34.999 213c48 132.667 129.667 223.667 245 273
c56.667 25.333 116.667 38 180 38s121.333 -10.667 174 -32c106.667 -43.333 181.667 -125 225 -245c21.333 -58.667 32 -124.667 32 -198v-58h-746c2.66699 -118 33 -212.667 91 -284s139.667 -107 245 -107c106 0 183.667 41.333 233 124
c14.667 25.333 24.334 52.333 29.001 81h140c-13.333 -92.667 -58.333 -170 -135 -232c-76 -62.667 -169 -94 -279 -94c-148.667 0 -264 47.333 -346 142c-82 94 -123 220.333 -123 379z" />
    <glyph glyph-name="eacute" unicode="&#xe9;" horiz-adv-x="1062" 
d="M496 1163l217 336h166l-281 -336h-102zM809 729c-46 114.667 -132 172 -258 172c-78.667 0 -146 -27.333 -202 -82s-92.333 -129.667 -109 -225h598c-4 52 -13.667 97 -29 135zM88 498c0 78 11.666 149 34.999 213c48 132.667 129.667 223.667 245 273
c56.667 25.333 116.667 38 180 38s121.333 -10.667 174 -32c106.667 -43.333 181.667 -125 225 -245c21.333 -58.667 32 -124.667 32 -198v-58h-746c2.66699 -118 33 -212.667 91 -284s139.667 -107 245 -107c106 0 183.667 41.333 233 124
c14.667 25.333 24.334 52.333 29.001 81h140c-13.333 -92.667 -58.333 -170 -135 -232c-76 -62.667 -169 -94 -279 -94c-148.667 0 -264 47.333 -346 142c-82 94 -123 220.333 -123 379z" />
    <glyph glyph-name="ecircumflex" unicode="&#xea;" horiz-adv-x="1062" 
d="M223 1163l262 336h127l262 -336h-133l-192 252l-193 -252h-133zM809 729c-46 114.667 -132 172 -258 172c-78.667 0 -146 -27.333 -202 -82s-92.333 -129.667 -109 -225h598c-4 52 -13.667 97 -29 135zM88 498c0 78 11.666 149 34.999 213
c48 132.667 129.667 223.667 245 273c56.667 25.333 116.667 38 180 38s121.333 -10.667 174 -32c106.667 -43.333 181.667 -125 225 -245c21.333 -58.667 32 -124.667 32 -198v-58h-746c2.66699 -118 33 -212.667 91 -284s139.667 -107 245 -107
c106 0 183.667 41.333 233 124c14.667 25.333 24.334 52.333 29.001 81h140c-13.333 -92.667 -58.333 -170 -135 -232c-76 -62.667 -169 -94 -279 -94c-148.667 0 -264 47.333 -346 142c-82 94 -123 220.333 -123 379z" />
    <glyph glyph-name="edieresis" unicode="&#xeb;" horiz-adv-x="1062" 
d="M279 1239v184h139v-184h-139zM682 1239v184h139v-184h-139zM809 729c-46 114.667 -132 172 -258 172c-78.667 0 -146 -27.333 -202 -82s-92.333 -129.667 -109 -225h598c-4 52 -13.667 97 -29 135zM88 498c0 78 11.666 149 34.999 213
c48 132.667 129.667 223.667 245 273c56.667 25.333 116.667 38 180 38s121.333 -10.667 174 -32c106.667 -43.333 181.667 -125 225 -245c21.333 -58.667 32 -124.667 32 -198v-58h-746c2.66699 -118 33 -212.667 91 -284s139.667 -107 245 -107
c106 0 183.667 41.333 233 124c14.667 25.333 24.334 52.333 29.001 81h140c-13.333 -92.667 -58.333 -170 -135 -232c-76 -62.667 -169 -94 -279 -94c-148.667 0 -264 47.333 -346 142c-82 94 -123 220.333 -123 379z" />
    <glyph glyph-name="igrave" unicode="&#xec;" horiz-adv-x="466" 
d="M184 1163l-280 336h166l217 -336h-103zM164 0v999h139v-999h-139z" />
    <glyph glyph-name="iacute" unicode="&#xed;" horiz-adv-x="466" 
d="M180 1163l217 336h166l-280 -336h-103zM164 0v999h139v-999h-139z" />
    <glyph glyph-name="icircumflex" unicode="&#xee;" horiz-adv-x="466" 
d="M-92 1163l262 336h127l262 -336h-133l-193 252l-192 -252h-133zM164 0v999h139v-999h-139z" />
    <glyph glyph-name="idieresis" unicode="&#xef;" horiz-adv-x="466" 
d="M-37 1239v184h139v-184h-139zM367 1239v184h139v-184h-139zM164 0v999h139v-999h-139z" />
    <glyph glyph-name="eth" unicode="&#xf0;" horiz-adv-x="1146" 
d="M808 201c64.667 68.667 96.666 157.999 95.999 267.999c-0.666992 109.333 -32 197.666 -94 264.999c-62 68 -142.333 102 -241 102c-98 0 -178.667 -34.667 -242 -104c-64 -69.333 -96 -157.666 -96 -264.999s31.333 -195.666 94 -264.999s142.334 -104 239.001 -104
s178 34.333 244 103zM1049 531.999v-4.00195c0 -169.333 -45.333 -303.666 -136 -402.999c-90.667 -98.667 -206.334 -148 -347.001 -148c-141.333 0 -256.666 45.333 -345.999 136s-134 207 -134 349s45.667 260.333 137 355c91.333 94 206 140.667 344 140
s243.333 -52 316 -154h6c-41.333 197.333 -127.333 346 -258 446l-234 -157l-51 77l203 138c-82 45.333 -175.667 83.333 -281 114l31 103c136 -37.333 253.333 -86.666 352 -147.999l207 140l51 -76l-176 -121c157.333 -122 255.333 -294 294 -516
c14.667 -80.667 22 -171 22 -271z" />
    <glyph glyph-name="ntilde" unicode="&#xf1;" horiz-adv-x="1142" 
d="M428 1335c-49.333 0 -80.668 -35.333 -94.001 -106h-78c4.66699 94 39.334 156.333 104.001 187c47.333 21.333 97.333 22 150 2c24.667 -8.66699 60.334 -26 107.001 -52s82 -39 106 -39c49.333 0 80.666 35.667 93.999 107h78
c-4.66699 -92 -39.334 -154.333 -104.001 -187c-22 -10.667 -46.333 -16 -73 -16c-45.333 0 -98.666 17.333 -159.999 52c-62 34.667 -105.333 52 -130 52zM630.998 1022c106 0 193.333 -33 262 -99c68 -66 101.333 -169.667 100 -311v-612h-139v594
c0 156.667 -49.333 253.667 -148 291c-30.667 10.667 -66 16 -106 16c-40 -0.666992 -78 -9 -114 -25c-76 -34 -129 -98.667 -159 -194c-16 -48 -24 -102 -24 -162v-520h-139v999h133v-163h6c60.667 124 170 186 328 186z" />
    <glyph glyph-name="ograve" unicode="&#xf2;" horiz-adv-x="1126" 
d="M514 1163l-281 336h166l217 -336h-102zM325 209c61.333 -74 140 -110.999 236 -110.999s175.667 37 239 111c62 74.667 93 172 93 292s-30 216.667 -90 290s-139 110 -237 110c-97.333 0 -177 -37.333 -239 -112c-62.667 -74.667 -94 -171.334 -94 -290.001
c0 -119.333 30.667 -216 92 -290zM88 499.001c0 156 44.335 282 133.002 378c88.667 96.667 204 145 346 145c141.333 0 255.333 -48 342 -144c87.333 -96 130.666 -222.333 129.999 -379c-0.666992 -156 -45.667 -282 -135 -378s-204.333 -144 -345 -144
s-254.334 47.667 -341.001 143c-86.667 96.667 -130 223 -130 379z" />
    <glyph glyph-name="oacute" unicode="&#xf3;" horiz-adv-x="1126" 
d="M510 1163l217 336h166l-281 -336h-102zM325 209c61.333 -74 140 -110.999 236 -110.999s175.667 37 239 111c62 74.667 93 172 93 292s-30 216.667 -90 290s-139 110 -237 110c-97.333 0 -177 -37.333 -239 -112c-62.667 -74.667 -94 -171.334 -94 -290.001
c0 -119.333 30.667 -216 92 -290zM88 499.001c0 156 44.335 282 133.002 378c88.667 96.667 204 145 346 145c141.333 0 255.333 -48 342 -144c87.333 -96 130.666 -222.333 129.999 -379c-0.666992 -156 -45.667 -282 -135 -378s-204.333 -144 -345 -144
s-254.334 47.667 -341.001 143c-86.667 96.667 -130 223 -130 379z" />
    <glyph glyph-name="ocircumflex" unicode="&#xf4;" horiz-adv-x="1126" 
d="M238 1163l262 336h127l262 -336h-133l-193 252l-192 -252h-133zM325 209c61.333 -74 140 -110.999 236 -110.999s175.667 37 239 111c62 74.667 93 172 93 292s-30 216.667 -90 290s-139 110 -237 110c-97.333 0 -177 -37.333 -239 -112
c-62.667 -74.667 -94 -171.334 -94 -290.001c0 -119.333 30.667 -216 92 -290zM88 499.001c0 156 44.335 282 133.002 378c88.667 96.667 204 145 346 145c141.333 0 255.333 -48 342 -144c87.333 -96 130.666 -222.333 129.999 -379c-0.666992 -156 -45.667 -282 -135 -378
s-204.333 -144 -345 -144s-254.334 47.667 -341.001 143c-86.667 96.667 -130 223 -130 379z" />
    <glyph glyph-name="otilde" unicode="&#xf5;" horiz-adv-x="1126" 
d="M418 1335c-49.333 0 -80.668 -35.332 -94.001 -105.999h-78c4.66699 94 39.334 156.333 104.001 187c47.333 21.333 97.333 22 150 2c24.667 -8.66699 60.334 -26 107.001 -52s82 -39 106 -39c49.333 0 80.666 35.667 93.999 107h78
c-2.66699 -57.333 -15.334 -100 -38.001 -128c-39.333 -50 -83.666 -75 -132.999 -75s-98.333 13.667 -147 41s-81.667 44.666 -99 51.999s-34 11 -50 11zM324.998 209.001c61.333 -74 140 -110.999 236 -110.999s175.667 37 239 111c62 74.667 93 172 93 292
s-30 216.667 -90 290s-139 110 -237 110c-97.333 0 -177 -37.333 -239 -112c-62.667 -74.667 -94 -171.334 -94 -290.001c0 -119.333 30.667 -216 92 -290zM87.998 499.002c0 156 44.335 282 133.002 378c88.667 96.667 204 145 346 145c141.333 0 255.333 -48 342 -144
c87.333 -96 130.666 -222.333 129.999 -379c-0.666992 -156 -45.667 -282 -135 -378s-204.333 -144 -345 -144s-254.334 47.667 -341.001 143c-86.667 96.667 -130 223 -130 379z" />
    <glyph glyph-name="odieresis" unicode="&#xf6;" horiz-adv-x="1126" 
d="M293 1239v184h139v-184h-139zM696 1239v184h140v-184h-140zM325 209c61.333 -74 140 -110.999 236 -110.999s175.667 37 239 111c62 74.667 93 172 93 292s-30 216.667 -90 290s-139 110 -237 110c-97.333 0 -177 -37.333 -239 -112
c-62.667 -74.667 -94 -171.334 -94 -290.001c0 -119.333 30.667 -216 92 -290zM88 499.001c0 156 44.335 282 133.002 378c88.667 96.667 204 145 346 145c141.333 0 255.333 -48 342 -144c87.333 -96 130.666 -222.333 129.999 -379c-0.666992 -156 -45.667 -282 -135 -378
s-204.333 -144 -345 -144s-254.334 47.667 -341.001 143c-86.667 96.667 -130 223 -130 379z" />
    <glyph glyph-name="divide" unicode="&#xf7;" horiz-adv-x="1163" 
d="M506 59v201h151v-201h-151zM117 459v121h930v-121h-930zM506 778v201h151v-201h-151z" />
    <glyph glyph-name="oslash" unicode="&#xf8;" horiz-adv-x="1126" 
d="M800 209c62 74.667 92.999 168.667 92.999 282s-23.333 203 -70 269l-469 -584c58 -52 131 -78 219 -78c88.667 0 164.334 37 227.001 111zM771.999 823c-58 52 -131 78.001 -219 78.001c-88.667 0 -164 -37.333 -226 -112c-62.667 -74.667 -94 -168.334 -94 -281.001
s23.333 -202 70 -268zM210.999 127.001c-82 98.667 -123.001 224.332 -123.001 376.999c0 152 44.333 276.333 133 373s202.667 145 342 145c82 0 159 -18 231 -54c22.667 -11.333 43.334 -24.666 62.001 -39.999l78 96h102l-123 -152c83.333 -94 125 -218.667 125 -374
s-44.667 -281 -134 -377s-203 -144 -341 -144c-115.333 0 -213 31.667 -293 95l-77 -97h-103z" />
    <glyph glyph-name="ugrave" unicode="&#xf9;" horiz-adv-x="1132" 
d="M520 1163l-280 336h166l217 -336h-103zM147 387v612.001h140v-593c0 -160 48.667 -257 146 -291c77.333 -26.667 151.333 -23.334 222 9.99902s121.334 97.333 152.001 192c15.333 48 22.666 102.667 21.999 164v518h140v-999h-133v164h-7
c-59.333 -122 -166.333 -184.333 -321 -187c-169.333 0 -280.333 74.333 -333 223c-18.667 52 -28 114.333 -28 187z" />
    <glyph glyph-name="uacute" unicode="&#xfa;" horiz-adv-x="1132" 
d="M516 1163l217 336h166l-281 -336h-102zM147 387v612.001h140v-593c0 -160 48.667 -257 146 -291c77.333 -26.667 151.333 -23.334 222 9.99902s121.334 97.333 152.001 192c15.333 48 22.666 102.667 21.999 164v518h140v-999h-133v164h-7
c-59.333 -122 -166.333 -184.333 -321 -187c-169.333 0 -280.333 74.333 -333 223c-18.667 52 -28 114.333 -28 187z" />
    <glyph glyph-name="ucircumflex" unicode="&#xfb;" horiz-adv-x="1132" 
d="M244 1163l262 336h127l262 -336h-133l-193 252l-192 -252h-133zM147 387v612.001h140v-593c0 -160 48.667 -257 146 -291c77.333 -26.667 151.333 -23.334 222 9.99902s121.334 97.333 152.001 192c15.333 48 22.666 102.667 21.999 164v518h140v-999h-133v164h-7
c-59.333 -122 -166.333 -184.333 -321 -187c-169.333 0 -280.333 74.333 -333 223c-18.667 52 -28 114.333 -28 187z" />
    <glyph glyph-name="udieresis" unicode="&#xfc;" horiz-adv-x="1132" 
d="M299 1239v184h139v-184h-139zM702 1239v184h140v-184h-140zM147 387v612.001h140v-593c0 -160 48.667 -257 146 -291c77.333 -26.667 151.333 -23.334 222 9.99902s121.334 97.333 152.001 192c15.333 48 22.666 102.667 21.999 164v518h140v-999h-133v164h-7
c-59.333 -122 -166.333 -184.333 -321 -187c-169.333 0 -280.333 74.333 -333 223c-18.667 52 -28 114.333 -28 187z" />
    <glyph glyph-name="yacute" unicode="&#xfd;" horiz-adv-x="942" 
d="M416 1163l217 336h166l-281 -336h-102zM68 -346l54.999 -0.000976562c118 0 201.333 71.667 250 215l37 100l-394 1030h152l307 -847h6l305 847h140l-439 -1169c-33.333 -89.333 -68.666 -152.666 -105.999 -189.999c-69.333 -70 -147.333 -105 -234 -105h-79v119z" />
    <glyph glyph-name="thorn" unicode="&#xfe;" horiz-adv-x="1179" 
d="M303 500c0 -122.667 30.332 -220.333 90.999 -293s137 -109 229 -109s168.667 37.333 230 112c62 74.667 93 173.667 93 297c0 124 -30.667 220.667 -92 290s-137.666 104 -228.999 104s-167.333 -34.667 -228 -104c-60 -69.333 -91.333 -162.333 -94 -279v-18z
M302.999 1124c0 -132 -2 -233 -6 -303h6c66 134 183.333 201 352 201c126 0 230 -45.667 312 -137c83.333 -96 125 -222 125 -378s-43 -283.333 -129 -382s-189.667 -148 -311 -148s-218.333 37.333 -291 112c-24 25.333 -43.333 55 -58 89h-6c4 -66 6 -167.667 6 -305v-324
h-139v1950h139v-375z" />
    <glyph glyph-name="ydieresis" unicode="&#xff;" horiz-adv-x="942" 
d="M199 1239v184h139v-184h-139zM602 1239v184h139v-184h-139zM68 -346l54.999 -0.000976562c118 0 201.333 71.667 250 215l37 100l-394 1030h152l307 -847h6l305 847h140l-439 -1169c-33.333 -89.333 -68.666 -152.666 -105.999 -189.999
c-69.333 -70 -147.333 -105 -234 -105h-79v119z" />
    <glyph glyph-name="Amacron" unicode="&#x100;" horiz-adv-x="1292" 
d="M358 1589v109h566v-109h-566zM647 1257h-8l-268 -727h542zM31 0l530 1409h170l531 -1409h-152l-149 406h-635l-150 -406h-145z" />
    <glyph glyph-name="amacron" unicode="&#x101;" horiz-adv-x="1058" 
d="M242 1276v108h565v-108h-565zM242 264c0 -114.667 72.667 -172 218 -172c84 0 156.667 28 218 84s92 138.667 92 248v113c-16 -20 -35.667 -33 -59 -39l-56 -13l-211 -34c-134.667 -20 -202 -82.333 -202 -187zM909 0h-133.003v160h-6
c-40.667 -87.333 -116.667 -144 -228 -170c-90 -20.667 -175 -18 -255 8s-134.333 73.333 -163 142c-14.667 34 -22 71.333 -22 112c0 126 58.667 212 176 258c40 16.667 87.333 29.667 142 39l215 37c70.667 10.667 113.334 27.667 128.001 51c4.66699 8 7 19 7 33
c-5.33301 158 -85.666 237 -240.999 237s-240.333 -73 -255 -219h-133c5.33301 100 43 180.667 113 242s163.667 92 281 92c116.667 0 208.667 -31.667 276 -95c66.667 -63.333 99.334 -153.333 98.001 -270v-657z" />
    <glyph glyph-name="Abreve" unicode="&#x102;" horiz-adv-x="1292" 
d="M643 1573c-72.667 0 -135.668 21.999 -189.001 65.999s-85.333 113.333 -96 208h91c12 -89.333 52 -146.666 120 -171.999c22 -8 46.667 -12 74 -12c80.667 0 138 35 172 105c10.667 22.667 18.334 49 23.001 79h90c-10 -94 -42 -163.333 -96 -208
c-53.333 -44 -116.333 -66 -189 -66zM646.999 1257h-8l-268 -727h542zM30.999 -0.000976562l530 1409h170l531 -1409h-152l-149 406h-635l-150 -406h-145z" />
    <glyph glyph-name="abreve" unicode="&#x103;" horiz-adv-x="1058" 
d="M336 1263c-54 44.667 -85.335 113.667 -94.002 207h90c12 -90 52.333 -147.333 121 -172c22 -8 46.333 -12 73 -12c81.333 0 138.666 35.333 171.999 106c10.667 22.667 18.334 48.667 23.001 78h90c-10 -93.333 -41.667 -162.333 -95 -207s-116.666 -67 -189.999 -67
s-136.666 22.333 -189.999 67zM241.998 264c0 -114.667 72.667 -172 218 -172c84 0 156.667 28 218 84s92 138.667 92 248v113c-16 -20 -35.667 -33 -59 -39l-56 -13l-211 -34c-134.667 -20 -202 -82.333 -202 -187zM908.998 0h-133.003v160h-6
c-40.667 -87.333 -116.667 -144 -228 -170c-90 -20.667 -175 -18 -255 8s-134.333 73.333 -163 142c-14.667 34 -22 71.333 -22 112c0 126 58.667 212 176 258c40 16.667 87.333 29.667 142 39l215 37c70.667 10.667 113.334 27.667 128.001 51c4.66699 8 7 19 7 33
c-5.33301 158 -85.666 237 -240.999 237s-240.333 -73 -255 -219h-133c5.33301 100 43 180.667 113 242s163.667 92 281 92c116.667 0 208.667 -31.667 276 -95c66.667 -63.333 99.334 -153.333 98.001 -270v-657z" />
    <glyph glyph-name="Aogonek" unicode="&#x104;" horiz-adv-x="1292" 
d="M647 1257h-8l-268 -727h542zM1135 -238c0 -72 41.667 -108 125 -108h61v-96h-80c-69.333 0 -122.333 16.667 -159 50c-37.333 33.333 -56 80.333 -56 141c0 61.333 28.333 122.333 85 183c20 22 43 44.667 69 68h-70l-149 406h-635l-150 -406h-145l530 1409h170
l531 -1409h-2c-83.333 -94 -125 -173.333 -125 -238z" />
    <glyph glyph-name="aogonek" unicode="&#x105;" horiz-adv-x="1058" 
d="M242 264c0 -114.667 72.667 -172 218 -172c84 0 156.667 28 218 84s92 138.667 92 248v113c-16 -20 -35.667 -33 -59 -39l-56 -13l-211 -34c-134.667 -20 -202 -82.333 -202 -187zM909 -346l61.998 0.000976562v-96h-80c-69.333 0 -122.333 16.667 -159 50
c-37.333 33.333 -56 80.333 -56 141c0 61.333 28.333 122.333 85 183c20 22 42.667 44.667 68 68h-53v160h-6c-40.667 -87.333 -116.667 -144 -228 -170c-90 -20.667 -175 -18 -255 8s-134.333 73.333 -163 142c-14.667 33.333 -22 70.666 -22 111.999
c0 126 58.667 212 176 258c40 16.667 87.333 29.667 142 39l215 37c70.667 10.667 113.334 27.667 128.001 51c4.66699 8 7 19 7 33c-5.33301 158 -85.666 237 -240.999 237s-240.333 -73 -255 -219h-133c5.33301 100 43 180.667 113 242s163.667 92 281 92
c116.667 0 208.667 -31.667 276 -95c66.667 -63.333 99.334 -153.333 98.001 -270v-657c-80.667 -90.667 -122.334 -170 -125.001 -238c0 -72 41.667 -108 125 -108z" />
    <glyph glyph-name="Cacute" unicode="&#x106;" horiz-adv-x="1449" 
d="M713 1573l217 336h166l-281 -336h-102zM96 704c0 208.667 62 382.002 186 520.002c124 137.333 285.333 206.666 484 207.999c155.333 0 285 -41 389 -123c103.333 -82 171 -193.333 203 -334h-150c-64 218 -211.333 325.667 -442 323c-154.667 0 -279.667 -56 -375 -168
s-143 -253.333 -143 -424s47.333 -312.334 142 -425.001c94.667 -113.333 218 -170 370 -170c238 0 387.333 107.667 448 323h150c-34 -139.333 -103 -250.333 -207 -333s-234.333 -124 -391 -124c-96.667 0.666992 -186 19 -268 55
c-165.333 73.333 -281.333 201.333 -348 384c-32 88.667 -48 184.667 -48 288z" />
    <glyph glyph-name="cacute" unicode="&#x107;" horiz-adv-x="1046" 
d="M498 1163l217 336h166l-281 -336h-102zM88 500c0 78 11.666 149 34.999 213c48 132 130 222.667 246 272c56 24.667 115 37 177 37c179.333 0 305.666 -70 378.999 -210c22.667 -43.333 38 -90.666 46 -141.999h-140c-13.333 69.333 -44 125.333 -92 168
c-47.333 42 -113 63 -197 63s-156.333 -37.333 -217 -112c-61.333 -74.667 -92 -171.334 -92 -290.001s30.333 -215 91 -289c60.667 -74.667 136.334 -112 227.001 -112c114.667 0 197.334 46.333 248.001 139c15.333 28 26 59 32 93h140
c-16.667 -106.667 -61.667 -192 -135 -256c-73.333 -64.667 -168.333 -97 -285 -97c-142 0 -254.667 48 -338 144s-125 222.333 -125 379z" />
    <glyph glyph-name="Ccircumflex" unicode="&#x108;" horiz-adv-x="1449" 
d="M440 1573l262 336h127l263 -336h-134l-192 252l-193 -252h-133zM96 704c0 208.667 62 382.002 186 520.002c124 137.333 285.333 206.666 484 207.999c155.333 0 285 -41 389 -123c103.333 -82 171 -193.333 203 -334h-150c-64 218 -211.333 325.667 -442 323
c-154.667 0 -279.667 -56 -375 -168s-143 -253.333 -143 -424s47.333 -312.334 142 -425.001c94.667 -113.333 218 -170 370 -170c238 0 387.333 107.667 448 323h150c-34 -139.333 -103 -250.333 -207 -333s-234.333 -124 -391 -124c-96.667 0.666992 -186 19 -268 55
c-165.333 73.333 -281.333 201.333 -348 384c-32 88.667 -48 184.667 -48 288z" />
    <glyph glyph-name="ccircumflex" unicode="&#x109;" horiz-adv-x="1046" 
d="M225 1163l262 336h127l263 -336h-134l-192 252l-193 -252h-133zM88 500c0 78 11.666 149 34.999 213c48 132 130 222.667 246 272c56 24.667 115 37 177 37c179.333 0 305.666 -70 378.999 -210c22.667 -43.333 38 -90.666 46 -141.999h-140
c-13.333 69.333 -44 125.333 -92 168c-47.333 42 -113 63 -197 63s-156.333 -37.333 -217 -112c-61.333 -74.667 -92 -171.334 -92 -290.001s30.333 -215 91 -289c60.667 -74.667 136.334 -112 227.001 -112c114.667 0 197.334 46.333 248.001 139c15.333 28 26 59 32 93
h140c-16.667 -106.667 -61.667 -192 -135 -256c-73.333 -64.667 -168.333 -97 -285 -97c-142 0 -254.667 48 -338 144s-125 222.333 -125 379z" />
    <glyph glyph-name="Cdotaccent" unicode="&#x10a;" horiz-adv-x="1449" 
d="M696 1573v184h140v-184h-140zM96 704c0 208.667 62 382.002 186 520.002c124 137.333 285.333 206.666 484 207.999c155.333 0 285 -41 389 -123c103.333 -82 171 -193.333 203 -334h-150c-64 218 -211.333 325.667 -442 323c-154.667 0 -279.667 -56 -375 -168
s-143 -253.333 -143 -424s47.333 -312.334 142 -425.001c94.667 -113.333 218 -170 370 -170c238 0 387.333 107.667 448 323h150c-34 -139.333 -103 -250.333 -207 -333s-234.333 -124 -391 -124c-96.667 0.666992 -186 19 -268 55
c-165.333 73.333 -281.333 201.333 -348 384c-32 88.667 -48 184.667 -48 288z" />
    <glyph glyph-name="cdotaccent" unicode="&#x10b;" horiz-adv-x="1046" 
d="M481 1239v184h140v-184h-140zM88 500c0 78 11.666 149 34.999 213c48 132 130 222.667 246 272c56 24.667 115 37 177 37c179.333 0 305.666 -70 378.999 -210c22.667 -43.333 38 -90.666 46 -141.999h-140c-13.333 69.333 -44 125.333 -92 168
c-47.333 42 -113 63 -197 63s-156.333 -37.333 -217 -112c-61.333 -74.667 -92 -171.334 -92 -290.001s30.333 -215 91 -289c60.667 -74.667 136.334 -112 227.001 -112c114.667 0 197.334 46.333 248.001 139c15.333 28 26 59 32 93h140
c-16.667 -106.667 -61.667 -192 -135 -256c-73.333 -64.667 -168.333 -97 -285 -97c-142 0 -254.667 48 -338 144s-125 222.333 -125 379z" />
    <glyph glyph-name="Ccaron" unicode="&#x10c;" horiz-adv-x="1449" 
d="M702 1573l-262 336h133l193 -252l192 252h134l-263 -336h-127zM96 704c0 208.667 62 382.002 186 520.002c124 137.333 285.333 206.666 484 207.999c155.333 0 285 -41 389 -123c103.333 -82 171 -193.333 203 -334h-150c-64 218 -211.333 325.667 -442 323
c-154.667 0 -279.667 -56 -375 -168s-143 -253.333 -143 -424s47.333 -312.334 142 -425.001c94.667 -113.333 218 -170 370 -170c238 0 387.333 107.667 448 323h150c-34 -139.333 -103 -250.333 -207 -333s-234.333 -124 -391 -124c-96.667 0.666992 -186 19 -268 55
c-165.333 73.333 -281.333 201.333 -348 384c-32 88.667 -48 184.667 -48 288z" />
    <glyph glyph-name="ccaron" unicode="&#x10d;" horiz-adv-x="1046" 
d="M487 1163l-262 336h133l193 -252l192 252h134l-263 -336h-127zM88 500c0 78 11.666 149 34.999 213c48 132 130 222.667 246 272c56 24.667 115 37 177 37c179.333 0 305.666 -70 378.999 -210c22.667 -43.333 38 -90.666 46 -141.999h-140
c-13.333 69.333 -44 125.333 -92 168c-47.333 42 -113 63 -197 63s-156.333 -37.333 -217 -112c-61.333 -74.667 -92 -171.334 -92 -290.001s30.333 -215 91 -289c60.667 -74.667 136.334 -112 227.001 -112c114.667 0 197.334 46.333 248.001 139c15.333 28 26 59 32 93
h140c-16.667 -106.667 -61.667 -192 -135 -256c-73.333 -64.667 -168.333 -97 -285 -97c-142 0 -254.667 48 -338 144s-125 222.333 -125 379z" />
    <glyph glyph-name="Dcaron" unicode="&#x10e;" horiz-adv-x="1425" 
d="M588 1573l-262 336h133l192 -252l193 252h133l-262 -336h-127zM590 1282l-258 0.000976562v-1155h258c199.333 0 347 54 443 162c96.667 107.333 145 245.666 145 414.999s-48.667 308 -146 416c-96.667 108 -244 162 -442 162zM186 0.000976562v1409h404
c238 0 420.667 -64.333 548 -193c127.333 -129.333 191 -300 191 -512s-63.667 -382.333 -191 -511s-310 -193 -548 -193h-404z" />
    <glyph glyph-name="dcaron" unicode="&#x10f;" horiz-adv-x="1179" 
d="M1188 1317v182h151v-172l-77 -246h-70l57 236h-61zM324 204c60.667 -70.667 136.667 -105.998 228 -105.998c90.667 0 167 34.333 229 103c61.333 68.667 93.333 162 96 280v37c-2.66699 116.667 -34.667 210 -96 280s-137 104.667 -227 104
c-89.333 -0.666992 -165 -38.334 -227 -113.001c-62.667 -74.667 -94 -173 -94 -295c0 -122.667 30.333 -219.334 91 -290.001zM524 -22.998c-127.333 0 -231.999 47 -313.999 141c-81.333 94 -122 219 -122 375s43 283 129 381c86 98.667 190.333 148 313 148
s219 -38 289 -114c23.333 -25.333 42.666 -54.333 57.999 -87h6c-4 70 -6 167.667 -6 293v385h139v-1499h-133v178h-6c-64 -131.333 -181.667 -198.333 -353 -201z" />
    <glyph glyph-name="Dcroat" unicode="&#x110;" horiz-adv-x="1425" 
d="M590 1282l-258 0.000976562v-514h332v-119h-332v-522h258c199.333 0 347 54 443 162c96.667 107.333 145 245.666 145 414.999s-48.667 308 -146 416c-96.667 108 -244 162 -442 162zM8 649.001v119h178v641h404c238 0 420.667 -64.333 548 -193
c127.333 -129.333 191 -300 191 -512s-63.667 -382.333 -191 -511s-310 -193 -548 -193h-404v649h-178z" />
    <glyph glyph-name="dcroat" unicode="&#x111;" horiz-adv-x="1179" 
d="M324 204c60.667 -70.667 136.667 -105.998 228 -105.998c90.667 0 167 34.333 229 103c61.333 68.667 93.333 162 96 280v37c-2.66699 116.667 -34.667 210 -96 280s-137 104.667 -227 104c-89.333 -0.666992 -165 -38.334 -227 -113.001
c-62.667 -74.667 -94 -173 -94 -295c0 -122.667 30.333 -219.334 91 -290.001zM877 1114l0.000976562 113.001h-318v96h318v176h139v-176h164v-96h-164v-1227h-133v180h-6c-60 -132.667 -177.667 -200.334 -353 -203.001c-127.333 0 -232 47 -314 141
c-81.333 94 -122 219 -122 375s43 283 129 381c86 98.667 190.333 148 313 148s219 -38 289 -114c23.333 -25.333 42.666 -54.333 57.999 -87h6c-4 70 -6 167.667 -6 293z" />
    <glyph glyph-name="Emacron" unicode="&#x112;" horiz-adv-x="1241" 
d="M371 1589v109h565v-109h-565zM186 0v1409h934v-127h-788v-500h633v-127h-633v-528h805v-127h-951z" />
    <glyph glyph-name="emacron" unicode="&#x113;" horiz-adv-x="1062" 
d="M264 1276v108h565v-108h-565zM809 729c-46 114.667 -132 172 -258 172c-78.667 0 -146 -27.333 -202 -82s-92.333 -129.667 -109 -225h598c-4 52 -13.667 97 -29 135zM88 498c0 78 11.666 149 34.999 213c48 132.667 129.667 223.667 245 273
c56.667 25.333 116.667 38 180 38s121.333 -10.667 174 -32c106.667 -43.333 181.667 -125 225 -245c21.333 -58.667 32 -124.667 32 -198v-58h-746c2.66699 -118 33 -212.667 91 -284s139.667 -107 245 -107c106 0 183.667 41.333 233 124
c14.667 25.333 24.334 52.333 29.001 81h140c-13.333 -92.667 -58.333 -170 -135 -232c-76 -62.667 -169 -94 -279 -94c-148.667 0 -264 47.333 -346 142c-82 94 -123 220.333 -123 379z" />
    <glyph glyph-name="Ebreve" unicode="&#x114;" horiz-adv-x="1241" 
d="M655 1573c-118 0 -201.003 49.001 -249.003 147.001c-18 35.333 -29.667 77.666 -35 126.999h90c12 -90 52.333 -147.333 121 -172c22.667 -8 47.334 -12 74.001 -12c80.667 0 137.667 35 171 105c10.667 22.667 18.334 49 23.001 79h90
c-10 -93.333 -41.667 -162.333 -95 -207s-116.666 -67 -189.999 -67zM185.997 0.000976562v1409h934v-127h-788v-500h633v-127h-633v-528h805v-127h-951z" />
    <glyph glyph-name="ebreve" unicode="&#x115;" horiz-adv-x="1062" 
d="M549 1196c-72.667 0 -135.666 22 -188.999 66s-85.333 113.333 -96 208h90c7.33301 -57.333 28.333 -102.333 63 -135c34 -32.667 78 -49 132 -49c81.333 0 138.666 35.333 171.999 106c10.667 22.667 18 48.667 22 78h91c-10 -94 -42 -163.333 -96 -208
c-53.333 -44 -116.333 -66 -189 -66zM809.001 729c-46 114.667 -132 172 -258 172c-78.667 0 -146 -27.333 -202 -82s-92.333 -129.667 -109 -225h598c-4 52 -13.667 97 -29 135zM88.001 498c0 78 11.666 149 34.999 213c48 132.667 129.667 223.667 245 273
c56.667 25.333 116.667 38 180 38s121.333 -10.667 174 -32c106.667 -43.333 181.667 -125 225 -245c21.333 -58.667 32 -124.667 32 -198v-58h-746c2.66699 -118 33 -212.667 91 -284s139.667 -107 245 -107c106 0 183.667 41.333 233 124
c14.667 25.333 24.334 52.333 29.001 81h140c-13.333 -92.667 -58.333 -170 -135 -232c-76 -62.667 -169 -94 -279 -94c-148.667 0 -264 47.333 -346 142c-82 94 -123 220.333 -123 379z" />
    <glyph glyph-name="Edotaccent" unicode="&#x116;" horiz-adv-x="1241" 
d="M586 1573v184h139v-184h-139zM186 0v1409h934v-127h-788v-500h633v-127h-633v-528h805v-127h-951z" />
    <glyph glyph-name="edotaccent" unicode="&#x117;" horiz-adv-x="1062" 
d="M479 1239v184h139v-184h-139zM809 729c-46 114.667 -132 172 -258 172c-78.667 0 -146 -27.333 -202 -82s-92.333 -129.667 -109 -225h598c-4 52 -13.667 97 -29 135zM88 498c0 78 11.666 149 34.999 213c48 132.667 129.667 223.667 245 273
c56.667 25.333 116.667 38 180 38s121.333 -10.667 174 -32c106.667 -43.333 181.667 -125 225 -245c21.333 -58.667 32 -124.667 32 -198v-58h-746c2.66699 -118 33 -212.667 91 -284s139.667 -107 245 -107c106 0 183.667 41.333 233 124
c14.667 25.333 24.334 52.333 29.001 81h140c-13.333 -92.667 -58.333 -170 -135 -232c-76 -62.667 -169 -94 -279 -94c-148.667 0 -264 47.333 -346 142c-82 94 -123 220.333 -123 379z" />
    <glyph glyph-name="Eogonek" unicode="&#x118;" horiz-adv-x="1241" 
d="M1014 -238c0 -72 41.668 -108 125.001 -108h61v-96h-80c-69.333 0 -122 16.333 -158 49c-36.667 32.667 -55.334 79.667 -56.001 141c-0.666992 62 27.333 123.333 84 184c20 22 43 44.667 69 68h-873v1409h934v-127h-788v-500h633v-127h-633v-528h805v-127h2
c-83.333 -94 -125 -173.333 -125 -238z" />
    <glyph glyph-name="eogonek" unicode="&#x119;" horiz-adv-x="1062" 
d="M809 729c-46 114.667 -132 172 -258 172c-78.667 0 -146 -27.333 -202 -82s-92.333 -129.667 -109 -225h598c-4 52 -13.667 97 -29 135zM561 -250c0 -64 41.666 -95.999 124.999 -95.999h64v-96h-82c-143.333 0 -215 55.333 -215 166c0 63.333 33.667 130 101 200
c18.667 19.333 38.667 38.666 60 57.999c-5.33301 0 -14.666 -1.66699 -27.999 -5h-29c-148.667 0 -264 47.333 -346 142s-123 219.667 -123 375c0 156 43.333 283 130 381s195.667 147 327 147s236.666 -43 315.999 -129c78.667 -86 118 -201.333 118 -346v-58h-746
c2.66699 -118 33 -212.667 91 -284s139.667 -107 245 -107c106 0 183.667 41.333 233 124c14.667 25.333 24.334 52.333 29.001 81h140c-16.667 -101.333 -68.667 -184 -156 -248c-169.333 -132 -254 -233.667 -254 -305z" />
    <glyph glyph-name="Ecaron" unicode="&#x11a;" horiz-adv-x="1241" 
d="M592 1573l-262 336h133l192 -252l193 252h133l-262 -336h-127zM186 0v1409h934v-127h-788v-500h633v-127h-633v-528h805v-127h-951z" />
    <glyph glyph-name="ecaron" unicode="&#x11b;" horiz-adv-x="1062" 
d="M485 1163l-262 336h133l193 -252l192 252h133l-262 -336h-127zM809 729c-46 114.667 -132 172 -258 172c-78.667 0 -146 -27.333 -202 -82s-92.333 -129.667 -109 -225h598c-4 52 -13.667 97 -29 135zM88 498c0 78 11.666 149 34.999 213
c48 132.667 129.667 223.667 245 273c56.667 25.333 116.667 38 180 38s121.333 -10.667 174 -32c106.667 -43.333 181.667 -125 225 -245c21.333 -58.667 32 -124.667 32 -198v-58h-746c2.66699 -118 33 -212.667 91 -284s139.667 -107 245 -107
c106 0 183.667 41.333 233 124c14.667 25.333 24.334 52.333 29.001 81h140c-13.333 -92.667 -58.333 -170 -135 -232c-76 -62.667 -169 -94 -279 -94c-148.667 0 -264 47.333 -346 142c-82 94 -123 220.333 -123 379z" />
    <glyph glyph-name="Gcircumflex" unicode="&#x11c;" horiz-adv-x="1546" 
d="M457 1573l262 336h127l262 -336h-133l-193 252l-192 -252h-133zM96 706c0 210 63.334 383 190.001 519c126.667 136.667 292 205.667 496 207c160.667 0 293 -40.333 397 -121s171.667 -186 203 -316h-151c-22 86.667 -72.333 159 -151 217s-178 86.667 -298 86
c-159.333 0 -288 -55.333 -386 -166c-98.667 -110.667 -148 -252 -148 -424s48.667 -314.333 146 -427c97.333 -113.333 218 -170 362 -170c143.333 0 261.666 37 354.999 111s140 180.333 140 319v69h-471v127h604v-737h-96l-24 242h-2c-74 -136 -184.333 -219 -331 -249
c-48.667 -10 -111.667 -15 -189 -15s-158 18 -242 54c-168 73.333 -286 202 -354 386c-33.333 89.333 -50 185.333 -50 288z" />
    <glyph glyph-name="gcircumflex" unicode="&#x11d;" horiz-adv-x="1179" 
d="M231 1163l263 336h127l262 -336h-133l-193 252l-192 -252h-134zM324 204c60.667 -70.667 136.667 -105.998 228 -105.998c90.667 0 167 34.333 229 103c61.333 68.667 93.333 162 96 280v37c-2.66699 116.667 -34.667 210 -96 280s-137 104.667 -227 104
c-89.333 -0.666992 -165 -38.334 -227 -113.001c-62.667 -74.667 -94 -173 -94 -295c0 -122.667 30.333 -219.334 91 -290.001zM524 -22.998c-127.333 0 -232.001 47 -314.001 141c-81.333 94 -122 219 -122 375s43 283 129 381c86 98.667 190.333 148 313 148
s219 -38 289 -114c23.333 -25.333 42.666 -54.333 57.999 -87h6v178h133v-956c0 -174 -45.333 -305 -136 -393c-83.333 -78 -191.333 -117 -324 -117c-133.333 0 -240.666 29.667 -321.999 89c-80.667 61.333 -121 146.333 -121 255h133c0 -71.333 27.333 -127.333 82 -168
s126.334 -61 215.001 -61c161.333 0 266 70.333 314 211c17.333 50.667 26 112 26 184v135h-6c-64 -131.333 -181.667 -198.333 -353 -201z" />
    <glyph glyph-name="Gbreve" unicode="&#x11e;" horiz-adv-x="1546" 
d="M592 1640c-54 44.667 -85.3359 113.667 -94.0029 207h90c12 -90 52.333 -147.333 121 -172c22 -8 46.333 -12 73 -12c80.667 0 138 35 172 105c10.667 22.667 18.334 49 23.001 79h90c-10 -93.333 -41.667 -162.333 -95 -207s-116.666 -67 -189.999 -67
s-136.666 22.333 -189.999 67zM95.9971 706c0 210 63.334 383 190.001 519c126.667 136.667 292 205.667 496 207c160.667 0 293 -40.333 397 -121s171.667 -186 203 -316h-151c-22 86.667 -72.333 159 -151 217s-178 86.667 -298 86c-159.333 0 -288 -55.333 -386 -166
c-98.667 -110.667 -148 -252 -148 -424s48.667 -314.333 146 -427c97.333 -113.333 218 -170 362 -170c143.333 0 261.666 37 354.999 111s140 180.333 140 319v69h-471v127h604v-737h-96l-24 242h-2c-74 -136 -184.333 -219 -331 -249c-48.667 -10 -111.667 -15 -189 -15
s-158 18 -242 54c-168 73.333 -286 202 -354 386c-33.333 89.333 -50 185.333 -50 288z" />
    <glyph glyph-name="gbreve" unicode="&#x11f;" horiz-adv-x="1179" 
d="M557 1196c-72.667 0 -135.667 22 -189 66s-85.333 113.333 -96 208h90c7.33301 -57.333 28.333 -102.333 63 -135c34 -32.667 78 -49 132 -49c81.333 0 138.666 35.333 171.999 106c10.667 22.667 18.334 48.667 23.001 78h90c-10 -94 -42 -163.333 -96 -208
c-53.333 -44 -116.333 -66 -189 -66zM324 204c60.667 -70.667 136.667 -105.998 228 -105.998c90.667 0 167 34.333 229 103c61.333 68.667 93.333 162 96 280v37c-2.66699 116.667 -34.667 210 -96 280s-137 104.667 -227 104
c-89.333 -0.666992 -165 -38.334 -227 -113.001c-62.667 -74.667 -94 -173 -94 -295c0 -122.667 30.333 -219.334 91 -290.001zM524 -22.998c-127.333 0 -232.001 47 -314.001 141c-81.333 94 -122 219 -122 375s43 283 129 381c86 98.667 190.333 148 313 148
s219 -38 289 -114c23.333 -25.333 42.666 -54.333 57.999 -87h6v178h133v-956c0 -174 -45.333 -305 -136 -393c-83.333 -78 -191.333 -117 -324 -117c-133.333 0 -240.666 29.667 -321.999 89c-80.667 61.333 -121 146.333 -121 255h133c0 -71.333 27.333 -127.333 82 -168
s126.334 -61 215.001 -61c161.333 0 266 70.333 314 211c17.333 50.667 26 112 26 184v135h-6c-64 -131.333 -181.667 -198.333 -353 -201z" />
    <glyph glyph-name="Gdotaccent" unicode="&#x120;" horiz-adv-x="1546" 
d="M713 1573v184h139v-184h-139zM96 706c0 210 63.334 383 190.001 519c126.667 136.667 292 205.667 496 207c160.667 0 293 -40.333 397 -121s171.667 -186 203 -316h-151c-22 86.667 -72.333 159 -151 217s-178 86.667 -298 86c-159.333 0 -288 -55.333 -386 -166
c-98.667 -110.667 -148 -252 -148 -424s48.667 -314.333 146 -427c97.333 -113.333 218 -170 362 -170c143.333 0 261.666 37 354.999 111s140 180.333 140 319v69h-471v127h604v-737h-96l-24 242h-2c-74 -136 -184.333 -219 -331 -249c-48.667 -10 -111.667 -15 -189 -15
s-158 18 -242 54c-168 73.333 -286 202 -354 386c-33.333 89.333 -50 185.333 -50 288z" />
    <glyph glyph-name="gdotaccent" unicode="&#x121;" horiz-adv-x="1179" 
d="M487 1239v184h140v-184h-140zM324 204c60.667 -70.667 136.667 -105.998 228 -105.998c90.667 0 167 34.333 229 103c61.333 68.667 93.333 162 96 280v37c-2.66699 116.667 -34.667 210 -96 280s-137 104.667 -227 104c-89.333 -0.666992 -165 -38.334 -227 -113.001
c-62.667 -74.667 -94 -173 -94 -295c0 -122.667 30.333 -219.334 91 -290.001zM524 -22.998c-127.333 0 -232.001 47 -314.001 141c-81.333 94 -122 219 -122 375s43 283 129 381c86 98.667 190.333 148 313 148s219 -38 289 -114c23.333 -25.333 42.666 -54.333 57.999 -87
h6v178h133v-956c0 -174 -45.333 -305 -136 -393c-83.333 -78 -191.333 -117 -324 -117c-133.333 0 -240.666 29.667 -321.999 89c-80.667 61.333 -121 146.333 -121 255h133c0 -71.333 27.333 -127.333 82 -168s126.334 -61 215.001 -61c161.333 0 266 70.333 314 211
c17.333 50.667 26 112 26 184v135h-6c-64 -131.333 -181.667 -198.333 -353 -201z" />
    <glyph glyph-name="Gcommaaccent" unicode="&#x122;" horiz-adv-x="1546" 
d="M702 -135h140v-152l-74 -211h-63l55 199h-58v164zM96 706c0 210 63.334 383 190.001 519c126.667 136.667 292 205.667 496 207c160.667 0 293 -40.333 397 -121s171.667 -186 203 -316h-151c-22 86.667 -72.333 159 -151 217s-178 86.667 -298 86
c-159.333 0 -288 -55.333 -386 -166c-98.667 -110.667 -148 -252 -148 -424s48.667 -314.333 146 -427c97.333 -113.333 218 -170 362 -170c143.333 0 261.666 37 354.999 111s140 180.333 140 319v69h-471v127h604v-737h-96l-24 242h-2c-74 -136 -184.333 -219 -331 -249
c-48.667 -10 -111.667 -15 -189 -15s-158 18 -242 54c-168 73.333 -286 202 -354 386c-33.333 89.333 -50 185.333 -50 288z" />
    <glyph glyph-name="gcommaaccent" unicode="&#x123;" horiz-adv-x="1179" 
d="M487 1163v152l74 211h64l-56 -199h58v-164h-140zM324 204c60.667 -70.667 136.667 -105.998 228 -105.998c90.667 0 167 34.333 229 103c61.333 68.667 93.333 162 96 280v37c-2.66699 116.667 -34.667 210 -96 280s-137 104.667 -227 104
c-89.333 -0.666992 -165 -38.334 -227 -113.001c-62.667 -74.667 -94 -173 -94 -295c0 -122.667 30.333 -219.334 91 -290.001zM524 -22.998c-127.333 0 -232.001 47 -314.001 141c-81.333 94 -122 219 -122 375s43 283 129 381c86 98.667 190.333 148 313 148
s219 -38 289 -114c23.333 -25.333 42.666 -54.333 57.999 -87h6v178h133v-956c0 -174 -45.333 -305 -136 -393c-83.333 -78 -191.333 -117 -324 -117c-133.333 0 -240.666 29.667 -321.999 89c-80.667 61.333 -121 146.333 -121 255h133c0 -71.333 27.333 -127.333 82 -168
s126.334 -61 215.001 -61c161.333 0 266 70.333 314 211c17.333 50.667 26 112 26 184v135h-6c-64 -131.333 -181.667 -198.333 -353 -201z" />
    <glyph glyph-name="Hcircumflex" unicode="&#x124;" horiz-adv-x="1466" 
d="M408 1573l262 336h127l262 -336h-133l-193 252l-192 -252h-133zM186 0v1409h146v-631h803v631h145v-1409h-145v651h-803v-651h-146z" />
    <glyph glyph-name="hcircumflex" unicode="&#x125;" horiz-adv-x="1142" 
d="M-92 1657l262 336h127l262 -336h-133l-193 252l-192 -252h-133zM631 1022c106 0 193.333 -33 262 -99c68 -66 101.333 -169.667 100 -311v-612h-139v594c0 156.667 -49.333 253.667 -148 291c-30.667 10.667 -66 16 -106 16c-40 -0.666992 -78 -9 -114 -25
c-76 -34 -129 -98 -159 -192c-16 -48 -24 -101.333 -24 -160v-524h-139v1499h139v-366c0 -128 -2 -227 -6 -297h6c60.667 124 170 186 328 186z" />
    <glyph glyph-name="Hbar" unicode="&#x126;" horiz-adv-x="1466" 
d="M332 1044v-266h803v266h-803zM2 1044v119h184v246h146v-246h803v246h145v-246h184v-119h-184v-1044h-145v653h-803v-653h-146v1044h-184z" />
    <glyph glyph-name="hbar" unicode="&#x127;" horiz-adv-x="1142" 
d="M631 1022c106 0 193.333 -33 262 -99c68 -66 101.333 -169.667 100 -311v-612h-139v594c0 156.667 -49.333 253.667 -148 291c-30.667 10.667 -66 16 -106 16c-40 -0.666992 -78 -9 -114 -25c-75.333 -34 -128.333 -98.333 -159 -193c-16 -47.333 -24 -101 -24 -161v-522
h-139v1227h-164v96h164v176h139v-176h318v-96h-318v-94c0 -128 -2 -227 -6 -297h6c60.667 124 170 186 328 186z" />
    <glyph glyph-name="Itilde" unicode="&#x128;" horiz-adv-x="518" 
d="M408 1671c49.333 0 80.665 35.667 93.998 107h78c-4.66699 -92 -39.667 -154.333 -105 -187c-22 -10.667 -46.333 -16 -73 -16c-44.667 0 -97.667 17.333 -159 52c-62 34.667 -103 52 -123 52c-46.667 0 -77 -22.333 -91 -67c-4 -12 -7.66699 -25 -11 -39h-77
c4.66699 94 39.334 156.333 104.001 187c47.333 21.333 97.333 22 150 2c24.667 -8.66699 60.334 -26 107.001 -52c46 -26 81.333 -39 106 -39zM185.999 0v1409h146v-1409h-146z" />
    <glyph glyph-name="itilde" unicode="&#x129;" horiz-adv-x="466" 
d="M88 1335c-49.333 0 -80.668 -35.333 -94.001 -106h-78c4.66699 94 39.334 156.333 104.001 187c47.333 21.333 97.333 22 150 2c24.667 -8.66699 60.334 -26 107.001 -52s82 -39 106 -39c49.333 0 80.666 35.667 93.999 107h78
c-4.66699 -92 -39.334 -154.333 -104.001 -187c-22 -10.667 -46.333 -16 -73 -16c-45.333 0 -98.666 17.333 -159.999 52c-62 34.667 -105.333 52 -130 52zM163.998 0v999h139v-999h-139z" />
    <glyph glyph-name="Imacron" unicode="&#x12a;" horiz-adv-x="518" 
d="M-27 1589v109h566v-109h-566zM186 0v1409h146v-1409h-146z" />
    <glyph glyph-name="imacron" unicode="&#x12b;" horiz-adv-x="466" 
d="M-51 1276v108h565v-108h-565zM164 0v999h139v-999h-139z" />
    <glyph glyph-name="Ibreve" unicode="&#x12c;" horiz-adv-x="518" 
d="M258 1573c-72.667 0 -135.668 22 -189.001 66s-85.333 113.333 -96 208h90c12 -88.667 52.333 -146 121 -172c22 -8 46.667 -12 74 -12c80.667 0 138 35 172 105c10.667 22.667 18.334 49 23.001 79h90c-10 -94 -42 -163.333 -96 -208c-53.333 -44 -116.333 -66 -189 -66
zM185.999 0v1409h146v-1409h-146z" />
    <glyph glyph-name="ibreve" unicode="&#x12d;" horiz-adv-x="466" 
d="M233 1196c-118 0 -201.002 49.001 -249.002 147.001c-18 35.333 -29.667 77.666 -35 126.999h90c12 -90 52.333 -147.333 121 -172c22.667 -8 47.334 -12 74.001 -12c54.667 0 98.667 16.333 132 49c34 32.667 54.667 77.667 62 135h90
c-10 -93.333 -41.667 -162.333 -95 -207s-116.666 -67 -189.999 -67zM163.998 0.000976562v999h139v-999h-139z" />
    <glyph glyph-name="Iogonek" unicode="&#x12e;" horiz-adv-x="518" 
d="M203 -238c0 -72 41.668 -108 125.001 -108h61v-96h-80c-69.333 0 -122 16.333 -158 49c-36.667 32.667 -55.334 79.667 -56.001 141c-0.666992 62 27.333 123.333 84 184c20 22 43 44.667 69 68h-62v1409h146v-1409h-4c-83.333 -94 -125 -173.333 -125 -238z" />
    <glyph glyph-name="iogonek" unicode="&#x12f;" horiz-adv-x="466" 
d="M158 1303v196h151v-196h-151zM178 -238c0 -72 41.667 -108 125 -108h62v-96h-80c-69.333 0 -122.333 16.667 -159 50c-37.333 33.333 -56 81 -56 143c0 62.667 28.333 123 85 181c20 22 42.667 44.667 68 68h-59v999h139v-999c-83.333 -94 -125 -173.333 -125 -238z" />
    <glyph glyph-name="Idotaccent" unicode="&#x130;" horiz-adv-x="518" 
d="M188 1573v184h140v-184h-140zM186 0v1409h146v-1409h-146z" />
    <glyph glyph-name="dotlessi" unicode="&#x131;" horiz-adv-x="466" 
d="M164 0v999h139v-999h-139z" />
    <glyph glyph-name="IJ" unicode="&#x132;" horiz-adv-x="1574" 
d="M762 401c0 -195.333 84.667 -294.333 254 -297c165.333 0 249.333 99 252 297v1008h145v-1014c0 -210.667 -78.667 -342 -236 -394c-48.667 -16 -102.667 -24 -162 -24s-113.333 8 -162 24c-158 52 -237 183.333 -237 394v72h146v-66zM186 0v1409h146v-1409h-146z" />
    <glyph glyph-name="ij" unicode="&#x133;" horiz-adv-x="933" 
d="M631 -172v1171h139v-1196c0 -166.667 -85.333 -251.334 -256 -254.001h-61v121h49c66 0 106.667 29 122 87c4.66699 20 7 43.667 7 71zM625 1303v196h151v-196h-151zM164 0.000976562v999h139v-999h-139zM158 1303v196h151v-196h-151z" />
    <glyph glyph-name="Jcircumflex" unicode="&#x134;" horiz-adv-x="1050" 
d="M496 1573l262 336h127l262 -336h-133l-193 252l-192 -252h-133zM238 408c0 -200 84.668 -301.333 254.001 -304c74.667 0 135 24.667 181 74c46.667 49.333 70 126 70 230v1001h146v-1014c0 -141.333 -35.667 -246.333 -107 -315s-168 -103 -290 -103
c-192.667 0 -316.334 76.333 -371.001 229c-19.333 53.333 -29 116.333 -29 189v72h146v-59z" />
    <glyph glyph-name="jcircumflex" unicode="&#x135;" horiz-adv-x="466" 
d="M-92 1163l262 336h127l262 -336h-133l-193 252l-192 -252h-133zM164 -172v1171h139v-1196c0 -166.667 -85.333 -251.334 -256 -254.001h-61v121h49c66 0 106.667 29 122 87c4.66699 20 7 43.667 7 71z" />
    <glyph glyph-name="Kcommaaccent" unicode="&#x136;" horiz-adv-x="1323" 
d="M614 -135h140v-152l-74 -211h-64l56 199h-58v164zM186 0v1409h146v-821l758 821h172l-574 -610l602 -799h-164l-534 696l-260 -278v-418h-146z" />
    <glyph glyph-name="kcommaaccent" unicode="&#x137;" horiz-adv-x="1015" 
d="M471 -135h139v-152l-73 -211h-64l55 199h-57v164zM164 0v1499h139v-1040l488 540h165l-372 -403l415 -596h-165l-345 494l-186 -203v-291h-139z" />
    <glyph glyph-name="Lacute" unicode="&#x139;" horiz-adv-x="1107" 
d="M203 1573l217 336h166l-281 -336h-102zM186 0v1409h146v-1282h719v-127h-865z" />
    <glyph glyph-name="lacute" unicode="&#x13a;" horiz-adv-x="466" 
d="M180 1663l217 336h166l-280 -336h-103zM164 0v1499h139v-1499h-139z" />
    <glyph glyph-name="Lcommaaccent" unicode="&#x13b;" horiz-adv-x="1107" 
d="M535 -135h139v-152l-74 -211h-63l55 199h-57v164zM186 0v1409h146v-1282h719v-127h-865z" />
    <glyph glyph-name="lcommaaccent" unicode="&#x13c;" horiz-adv-x="466" 
d="M164 -135h139v-152l-74 -211h-63l55 199h-57v164zM164 0v1499h139v-1499h-139z" />
    <glyph glyph-name="Lcaron" unicode="&#x13d;" horiz-adv-x="1107" 
d="M666 1227v182h151v-172l-78 -246h-69l57 236h-61zM186 0v1409h146v-1282h719v-127h-865z" />
    <glyph glyph-name="lcaron" unicode="&#x13e;" horiz-adv-x="466" 
d="M164 0v1499h139v-1499h-139zM475 1317v182h152v-172l-78 -246h-70l58 236h-62z" />
    <glyph glyph-name="Ldot" unicode="&#x13f;" horiz-adv-x="1107" 
d="M616 623v196h152v-196h-152zM186 0v1409h146v-1282h719v-127h-865z" />
    <glyph glyph-name="ldot" unicode="&#x140;" horiz-adv-x="593" 
d="M461 598v197h151v-197h-151zM164 0v1499h139v-1499h-139z" />
    <glyph glyph-name="Lslash" unicode="&#x141;" horiz-adv-x="1107" 
d="M186 1409h146v-666l346 252v-133l-346 -250v-485h719v-127h-865v508l-184 -135v133l184 133v770z" />
    <glyph glyph-name="lslash" unicode="&#x142;" horiz-adv-x="466" 
d="M164 1499h139v-637l154 148v-127l-154 -152v-731h-139v598l-154 -147v129l154 149v770z" />
    <glyph glyph-name="Nacute" unicode="&#x143;" horiz-adv-x="1480" 
d="M686 1573l217 336h166l-281 -336h-102zM186 0v1409h140l823 -1163h6l-6 1163h145v-1409h-139l-823 1157h-6l6 -1157h-146z" />
    <glyph glyph-name="nacute" unicode="&#x144;" horiz-adv-x="1142" 
d="M520 1163l217 336h166l-280 -336h-103zM631 1022c106 0 193.333 -33 262 -99c68 -66 101.333 -169.667 100 -311v-612h-139v594c0 156.667 -49.333 253.667 -148 291c-30.667 10.667 -66 16 -106 16c-40 -0.666992 -78 -9 -114 -25c-76 -34 -129 -98.667 -159 -194
c-16 -48 -24 -102 -24 -162v-520h-139v999h133v-163h6c60.667 124 170 186 328 186z" />
    <glyph glyph-name="Ncommaaccent" unicode="&#x145;" horiz-adv-x="1480" 
d="M670 -135h139v-152l-74 -211h-63l55 199h-57v164zM186 0v1409h140l823 -1163h6l-6 1163h145v-1409h-139l-823 1157h-6l6 -1157h-146z" />
    <glyph glyph-name="ncommaaccent" unicode="&#x146;" horiz-adv-x="1142" 
d="M498 -135h139v-152l-74 -211h-63l55 199h-57v164zM631 1022c106 0 193.333 -33 262 -99c68 -66 101.333 -169.667 100 -311v-612h-139v594c0 156.667 -49.333 253.667 -148 291c-30.667 10.667 -66 16 -106 16c-40 -0.666992 -78 -9 -114 -25
c-76 -34 -129 -98.667 -159 -194c-16 -48 -24 -102 -24 -162v-520h-139v999h133v-163h6c60.667 124 170 186 328 186z" />
    <glyph glyph-name="Ncaron" unicode="&#x147;" horiz-adv-x="1480" 
d="M676 1573l-262 336h133l192 -252l193 252h133l-262 -336h-127zM186 0v1409h140l823 -1163h6l-6 1163h145v-1409h-139l-823 1157h-6l6 -1157h-146z" />
    <glyph glyph-name="ncaron" unicode="&#x148;" horiz-adv-x="1142" 
d="M510 1163l-262 336h133l192 -252l193 252h133l-262 -336h-127zM631 1022c106 0 193.333 -33 262 -99c68 -66 101.333 -169.667 100 -311v-612h-139v594c0 156.667 -49.333 253.667 -148 291c-30.667 10.667 -66 16 -106 16c-40 -0.666992 -78 -9 -114 -25
c-76 -34 -129 -98.667 -159 -194c-16 -48 -24 -102 -24 -162v-520h-139v999h133v-163h6c60.667 124 170 186 328 186z" />
    <glyph glyph-name="napostrophe" unicode="&#x149;" horiz-adv-x="1142" 
d="M156 1362v164h139v-152l-74 -211h-63l55 199h-57zM631 1022c106 0 193.333 -33 262 -99c68 -66 101.333 -169.667 100 -311v-612h-139v594c0 156.667 -49.333 253.667 -148 291c-30.667 10.667 -66 16 -106 16c-40 -0.666992 -78 -9 -114 -25
c-76 -34 -129 -98.667 -159 -194c-16 -48 -24 -102 -24 -162v-520h-139v999h133v-163h6c60.667 124 170 186 328 186z" />
    <glyph glyph-name="Eng" unicode="&#x14a;" horiz-adv-x="1480" 
d="M186 0v1409h140l823 -1161h4l-4 1161h145v-1505c0 -186 -63 -298 -189 -336c-40 -12 -87.333 -18.333 -142 -19h-99v134h92c98 0 158.333 42 181 126c8 29.333 12 65 12 107v92l-817 1149h-6l6 -1157h-146z" />
    <glyph glyph-name="eng" unicode="&#x14b;" horiz-adv-x="1142" 
d="M631 1022c106 0 193.333 -32.999 262 -98.999c68 -66 101.333 -169.667 100 -311v-809c0 -166.667 -85.333 -251.334 -256 -254.001h-61v121h49c66 0 106.667 29 122 87c4.66699 20 7 43.667 7 71v766c0 156.667 -49.333 253.667 -148 291c-30.667 10.667 -66 16 -106 16
c-40 -0.666992 -78 -9 -114 -25c-76 -34 -129 -98 -159 -192c-16 -48 -24 -101.333 -24 -160v-524h-139v999h133v-163h6c60.667 124 170 186 328 186z" />
    <glyph glyph-name="Omacron" unicode="&#x14c;" horiz-adv-x="1544" 
d="M487 1589v109h566v-109h-566zM772 111c155.333 0 281.333 56 378 168c97.333 112 146 253.667 146 425s-48.667 313 -146 425c-97.333 112.667 -223.333 169 -378 169c-155.333 0 -281.333 -56 -378 -168c-97.333 -112 -146 -253.667 -146 -425s48.667 -313 146 -425
c96.667 -112.667 222.667 -169 378 -169zM1448 704c0 -210.667 -63.332 -383.999 -189.999 -519.999c-126.667 -136.667 -289.334 -205.334 -488.001 -206.001c-198 -0.666992 -359.667 67.333 -485 204c-126 136.667 -189 311 -189 523c0 211.333 62.667 385 188 521
s288 204.667 488 206c96.667 0 186.667 -18 270 -54c170 -74 289 -202.333 357 -385c32.667 -88.667 49 -185 49 -289z" />
    <glyph glyph-name="omacron" unicode="&#x14d;" horiz-adv-x="1126" 
d="M279 1276v108h565v-108h-565zM325 209c61.333 -74 140 -110.999 236 -110.999s175.667 37 239 111c62 74.667 93 172 93 292s-30 216.667 -90 290s-139 110 -237 110c-97.333 0 -177 -37.333 -239 -112c-62.667 -74.667 -94 -171.334 -94 -290.001
c0 -119.333 30.667 -216 92 -290zM88 499.001c0 156 44.335 282 133.002 378c88.667 96.667 204 145 346 145c141.333 0 255.333 -48 342 -144c87.333 -96 130.666 -222.333 129.999 -379c-0.666992 -156 -45.667 -282 -135 -378s-204.333 -144 -345 -144
s-254.334 47.667 -341.001 143c-86.667 96.667 -130 223 -130 379z" />
    <glyph glyph-name="Obreve" unicode="&#x14e;" horiz-adv-x="1544" 
d="M772 1573c-72.667 0 -135.668 21.999 -189.001 65.999s-85.333 113.333 -96 208h91c12 -89.333 52 -146.666 120 -171.999c22 -8 46.667 -12 74 -12c80.667 0 138 35 172 105c10.667 22.667 18.334 49 23.001 79h90c-10 -94 -42 -163.333 -96 -208
c-53.333 -44 -116.333 -66 -189 -66zM771.999 110.999c155.333 0 281.333 56 378 168c97.333 112 146 253.667 146 425s-48.667 313 -146 425c-97.333 112.667 -223.333 169 -378 169c-155.333 0 -281.333 -56 -378 -168c-97.333 -112 -146 -253.667 -146 -425
s48.667 -313 146 -425c96.667 -112.667 222.667 -169 378 -169zM1448 703.999c0 -210.667 -63.332 -383.999 -189.999 -519.999c-126.667 -136.667 -289.334 -205.334 -488.001 -206.001c-198 -0.666992 -359.667 67.333 -485 204c-126 136.667 -189 311 -189 523
c0 211.333 62.667 385 188 521s288 204.667 488 206c96.667 0 186.667 -18 270 -54c170 -74 289 -202.333 357 -385c32.667 -88.667 49 -185 49 -289z" />
    <glyph glyph-name="obreve" unicode="&#x14f;" horiz-adv-x="1126" 
d="M563 1196c-72.667 0 -136 22.332 -190 66.999s-85.333 113.667 -94 207h90c12 -89.333 52 -146.666 120 -171.999c22 -8 46.667 -12 74 -12c81.333 0 138.666 35.333 171.999 106c10.667 22.667 18.334 48.667 23.001 78h90c-10 -94 -42 -163.333 -96 -208
c-53.333 -44 -116.333 -66 -189 -66zM325 208.999c61.333 -74 140 -110.999 236 -110.999s175.667 37 239 111c62 74.667 93 172 93 292s-30 216.667 -90 290s-139 110 -237 110c-97.333 0 -177 -37.333 -239 -112c-62.667 -74.667 -94 -171.334 -94 -290.001
c0 -119.333 30.667 -216 92 -290zM88 499c0 156 44.335 282 133.002 378c88.667 96.667 204 145 346 145c141.333 0 255.333 -48 342 -144c87.333 -96 130.666 -222.333 129.999 -379c-0.666992 -156 -45.667 -282 -135 -378s-204.333 -144 -345 -144
s-254.334 47.667 -341.001 143c-86.667 96.667 -130 223 -130 379z" />
    <glyph glyph-name="Ohungarumlaut" unicode="&#x150;" horiz-adv-x="1544" 
d="M537 1573l217 336h164l-279 -336h-102zM899 1573l217 336h164l-279 -336h-102zM772 111c155.333 0 281.333 56 378 168c97.333 112 146 253.667 146 425s-48.667 313 -146 425c-97.333 112.667 -223.333 169 -378 169c-155.333 0 -281.333 -56 -378 -168
c-97.333 -112 -146 -253.667 -146 -425s48.667 -313 146 -425c96.667 -112.667 222.667 -169 378 -169zM1448 704c0 -210.667 -63.332 -383.999 -189.999 -519.999c-126.667 -136.667 -289.334 -205.334 -488.001 -206.001c-198 -0.666992 -359.667 67.333 -485 204
c-126 136.667 -189 311 -189 523c0 211.333 62.667 385 188 521s288 204.667 488 206c96.667 0 186.667 -18 270 -54c170 -74 289 -202.333 357 -385c32.667 -88.667 49 -185 49 -289z" />
    <glyph glyph-name="ohungarumlaut" unicode="&#x151;" horiz-adv-x="1126" 
d="M328 1163l217 336h164l-279 -336h-102zM690 1163l217 336h164l-278 -336h-103zM325 209c61.333 -74 140 -110.999 236 -110.999s175.667 37 239 111c62 74.667 93 172 93 292s-30 216.667 -90 290s-139 110 -237 110c-97.333 0 -177 -37.333 -239 -112
c-62.667 -74.667 -94 -171.334 -94 -290.001c0 -119.333 30.667 -216 92 -290zM88 499.001c0 156 44.335 282 133.002 378c88.667 96.667 204 145 346 145c141.333 0 255.333 -48 342 -144c87.333 -96 130.666 -222.333 129.999 -379c-0.666992 -156 -45.667 -282 -135 -378
s-204.333 -144 -345 -144s-254.334 47.667 -341.001 143c-86.667 96.667 -130 223 -130 379z" />
    <glyph glyph-name="OE" unicode="&#x152;" horiz-adv-x="2117" 
d="M1063 127l-0.000976562 1155h-227c-200 0 -348 -53.667 -444 -161s-144 -245.666 -144 -414.999s48.333 -308.333 145 -417c96.667 -108 244.334 -162 443.001 -162h227zM835.999 -0.000976562c-239.333 0 -422.667 64.667 -550 194c-126.667 129.333 -190 300 -190 512
s63.667 382 191 510s310.333 192.333 549 193h1161v-127h-789v-500h633v-127h-633v-528h805v-127h-1177z" />
    <glyph glyph-name="oe" unicode="&#x153;" horiz-adv-x="1861" 
d="M1350 901c-79.333 0 -147.333 -28.333 -204 -85s-92.667 -130.667 -108 -222h598c-12 153.333 -70.667 249.333 -176 288c-34 12 -70.667 18.333 -110 19zM325 209c61.333 -74 140 -110.999 236 -110.999s175.667 37 239 111c62 74.667 93 172 93 292
s-30 216.667 -90 290s-139 110 -237 110c-97.333 0 -177 -37.333 -239 -112c-62.667 -74.667 -94 -171.334 -94 -290.001c0 -119.333 30.667 -216 92 -290zM963 784.001c83.333 158.667 217.001 237.998 401.001 237.998c52 0 104.333 -10.667 157 -32
c106.667 -43.333 181.667 -125 225 -245c21.333 -58.667 32 -124.667 32 -198v-58h-746c2.66699 -116.667 32.667 -211 90 -283s135.333 -108 234 -108c74 0 135.667 19.333 185 58s79 87.667 89 147h139c-13.333 -92.667 -58.333 -170 -135 -232
c-76 -62.667 -168.667 -94 -278 -94c-139.333 0 -250 45.333 -332 136c-26 28.667 -48 61.334 -66 98.001c-86.667 -153.333 -218.334 -231.333 -395.001 -234c-142.667 0 -257.667 47.667 -345 143c-86.667 96.667 -130 223 -130 379s44.333 282 133 378
c88.667 96.667 201.667 145 339 145c136.667 0 248 -46 334 -138c26.667 -29.333 49.667 -62.666 69 -99.999z" />
    <glyph glyph-name="Racute" unicode="&#x154;" horiz-adv-x="1320" 
d="M582 1573l217 336h166l-281 -336h-102zM721 1282h-389v-580h389c100 0 180 28.667 240 86c54 54 81 126 81 216c0 132.667 -61 219 -183 259c-40 12.667 -86 19 -138 19zM186 0l-0.000976562 1409h529c230 0 377.333 -78 442 -234c20.667 -50 31 -104.333 31 -163
c0 -172.667 -63.333 -296.334 -190 -371.001c-41.333 -24.667 -88.666 -42.334 -141.999 -53.001l373 -588h-158l-371 575h-368v-575h-146z" />
    <glyph glyph-name="racute" unicode="&#x155;" horiz-adv-x="716" 
d="M387 1163l217 336h166l-281 -336h-102zM544 889c-78 0 -137.666 -35.001 -178.999 -105.001s-62 -155.333 -62 -256v-528h-139v999h133v-163h6c36.667 88.667 96.667 146.334 180 173.001c27.333 8.66699 59.666 13 96.999 13s65.333 -4.66699 84 -14
c20 -9.33301 36.333 -18.333 49 -27l-45 -125c-44 22 -85.333 33 -124 33z" />
    <glyph glyph-name="Rcommaaccent" unicode="&#x156;" horiz-adv-x="1320" 
d="M588 -135h139v-152l-74 -211h-63l55 199h-57v164zM721 1282h-389v-580h389c100 0 180 28.667 240 86c54 54 81 126 81 216c0 132.667 -61 219 -183 259c-40 12.667 -86 19 -138 19zM186 0l-0.000976562 1409h529c230 0 377.333 -78 442 -234
c20.667 -50 31 -104.333 31 -163c0 -172.667 -63.333 -296.334 -190 -371.001c-41.333 -24.667 -88.666 -42.334 -141.999 -53.001l373 -588h-158l-371 575h-368v-575h-146z" />
    <glyph glyph-name="rcommaaccent" unicode="&#x157;" horiz-adv-x="716" 
d="M164 -135h139v-152l-74 -211h-63l55 199h-57v164zM544 889c-78 0 -137.666 -35.001 -178.999 -105.001s-62 -155.333 -62 -256v-528h-139v999h133v-163h6c36.667 88.667 96.667 146.334 180 173.001c27.333 8.66699 59.666 13 96.999 13s65.333 -4.66699 84 -14
c20 -9.33301 36.333 -18.333 49 -27l-45 -125c-44 22 -85.333 33 -124 33z" />
    <glyph glyph-name="Rcaron" unicode="&#x158;" horiz-adv-x="1320" 
d="M571 1573l-262 336h133l193 -252l192 252h134l-263 -336h-127zM721 1282h-389v-580h389c100 0 180 28.667 240 86c54 54 81 126 81 216c0 132.667 -61 219 -183 259c-40 12.667 -86 19 -138 19zM186 0l-0.000976562 1409h529c230 0 377.333 -78 442 -234
c20.667 -50 31 -104.333 31 -163c0 -172.667 -63.333 -296.334 -190 -371.001c-41.333 -24.667 -88.666 -42.334 -141.999 -53.001l373 -588h-158l-371 575h-368v-575h-146z" />
    <glyph glyph-name="rcaron" unicode="&#x159;" horiz-adv-x="716" 
d="M377 1163l-262 336h133l192 -252l193 252h133l-262 -336h-127zM544 889c-78 0 -137.666 -35.001 -178.999 -105.001s-62 -155.333 -62 -256v-528h-139v999h133v-163h6c36.667 88.667 96.667 146.334 180 173.001c27.333 8.66699 59.666 13 96.999 13
s65.333 -4.66699 84 -14c20 -9.33301 36.333 -18.333 49 -27l-45 -125c-44 22 -85.333 33 -124 33z" />
    <glyph glyph-name="Sacute" unicode="&#x15a;" horiz-adv-x="1306" 
d="M592 1573l217 336h166l-281 -336h-102zM121 393l145.003 -0.00195312c0 -89.333 34 -160.333 102 -213c68 -53.333 161.667 -80.666 281 -81.999c184 0 303.333 56 358 168c16.667 34.667 25 74 25 118c-0.666992 114.667 -68.667 191.667 -204 231
c-38.667 11.333 -84 21.333 -136 30l-92 17c-142.667 24.667 -249 58.667 -319 102c-93.333 58 -140 147 -140 267s46.667 217 140 291c93.333 73.333 214.666 110 363.999 110c150 0 271.333 -34.333 364 -103c92 -68.667 138 -164.334 138 -287.001h-146
c0 83.333 -32.333 148.666 -97 195.999s-150.334 71.333 -257.001 72s-193.334 -22.666 -260.001 -69.999s-99.667 -111.666 -99 -192.999s35.667 -141 105 -179c54 -29.333 139.333 -53.666 256 -72.999l92 -17c138.667 -24.667 242 -59.667 310 -105
c88.667 -61.333 133 -155 133 -281s-48 -226.667 -144 -302s-226 -113 -390 -113s-293 37 -387 111c-94.667 74 -142 175.667 -142 305z" />
    <glyph glyph-name="sacute" unicode="&#x15b;" horiz-adv-x="985" 
d="M434 1163l217 336h166l-280 -336h-103zM82 283l133 -0.00292969c0 -63.333 25.333 -112 76 -146s105.667 -51 165 -51c194.667 0 293.334 62.667 296.001 188c0 65.333 -33.333 110.666 -100 135.999c-22.667 8 -49 14.667 -79 20l-188 33
c-86.667 15.333 -147.334 36.333 -182.001 63c-34 26.667 -59 55.334 -75 86.001s-24 68.334 -24 113.001c0 89.333 35.667 161 107 215c71.333 53.333 163 80.333 275 81s204 -23.666 276 -72.999s107.333 -123 106 -221h-133c0 62 -22.667 108.333 -68 139
c-45.333 31.333 -105.333 47 -180 47c-116 0 -192.333 -33.667 -229 -101c-12 -22.667 -18 -47 -18 -73c0 -64.667 29 -107.667 87 -129c36 -13.333 69.667 -22.666 101 -27.999l188 -33c92 -17.333 160.667 -45.333 206 -84s68 -103 68 -193
c0.666992 -89.333 -36 -160.333 -110 -213c-74 -53.333 -171.667 -80.333 -293 -81s-219 25.333 -293 78c-74.667 52 -112 127.667 -112 227z" />
    <glyph glyph-name="Scircumflex" unicode="&#x15c;" horiz-adv-x="1306" 
d="M319 1573l263 336h127l262 -336h-133l-193 252l-192 -252h-134zM121 393l145.003 -0.00195312c0 -89.333 34 -160.333 102 -213c68 -53.333 161.667 -80.666 281 -81.999c184 0 303.333 56 358 168c16.667 34.667 25 74 25 118
c-0.666992 114.667 -68.667 191.667 -204 231c-38.667 11.333 -84 21.333 -136 30l-92 17c-142.667 24.667 -249 58.667 -319 102c-93.333 58 -140 147 -140 267s46.667 217 140 291c93.333 73.333 214.666 110 363.999 110c150 0 271.333 -34.333 364 -103
c92 -68.667 138 -164.334 138 -287.001h-146c0 83.333 -32.333 148.666 -97 195.999s-150.334 71.333 -257.001 72s-193.334 -22.666 -260.001 -69.999s-99.667 -111.666 -99 -192.999s35.667 -141 105 -179c54 -29.333 139.333 -53.666 256 -72.999l92 -17
c138.667 -24.667 242 -59.667 310 -105c88.667 -61.333 133 -155 133 -281s-48 -226.667 -144 -302s-226 -113 -390 -113s-293 37 -387 111c-94.667 74 -142 175.667 -142 305z" />
    <glyph glyph-name="scircumflex" unicode="&#x15d;" horiz-adv-x="985" 
d="M162 1163l262 336h127l262 -336h-133l-193 252l-192 -252h-133zM82 283l133 -0.00292969c0 -63.333 25.333 -112 76 -146s105.667 -51 165 -51c194.667 0 293.334 62.667 296.001 188c0 65.333 -33.333 110.666 -100 135.999c-22.667 8 -49 14.667 -79 20l-188 33
c-86.667 15.333 -147.334 36.333 -182.001 63c-34 26.667 -59 55.334 -75 86.001s-24 68.334 -24 113.001c0 89.333 35.667 161 107 215c71.333 53.333 163 80.333 275 81s204 -23.666 276 -72.999s107.333 -123 106 -221h-133c0 62 -22.667 108.333 -68 139
c-45.333 31.333 -105.333 47 -180 47c-116 0 -192.333 -33.667 -229 -101c-12 -22.667 -18 -47 -18 -73c0 -64.667 29 -107.667 87 -129c36 -13.333 69.667 -22.666 101 -27.999l188 -33c92 -17.333 160.667 -45.333 206 -84s68 -103 68 -193
c0.666992 -89.333 -36 -160.333 -110 -213c-74 -53.333 -171.667 -80.333 -293 -81s-219 25.333 -293 78c-74.667 52 -112 127.667 -112 227z" />
    <glyph glyph-name="Scedilla" unicode="&#x15e;" horiz-adv-x="1306" 
d="M741 -256c0 64 -40.9961 95.999 -122.996 95.999h-55l49 140c-234 8 -386.333 90 -457 246c-22.667 50 -34 105.667 -34 167h145c0 -89.333 34 -160.333 102 -213c68 -53.333 161.667 -80.666 281 -81.999c184 0 303.333 56 358 168c16.667 34.667 25 74 25 118
c-0.666992 114.667 -68.667 191.667 -204 231c-38.667 11.333 -84 21.333 -136 30l-92 17c-142.667 24.667 -249 58.667 -319 102c-93.333 58 -140 147 -140 267s46.667 217 140 291c93.333 73.333 214.666 110 363.999 110c150 0 271.333 -34.333 364 -103
c92 -68.667 138 -164.334 138 -287.001h-146c0 83.333 -32.333 148.666 -97 195.999s-150.334 71.333 -257.001 72s-193.334 -22.666 -260.001 -69.999s-99.667 -111.666 -99 -192.999s35.667 -141 105 -179c54 -29.333 139.333 -53.666 256 -72.999l92 -17
c138.667 -24.667 242 -59.667 310 -105c88.667 -61.333 133 -153.666 133 -276.999c0 -124 -45.667 -224 -137 -300c-91.333 -76.667 -217 -116.334 -377 -119.001l-8 -59c90 -4 148.667 -40 176 -108c8 -20.667 12 -43.334 12 -68.001c0 -86 -41.667 -142.667 -125 -170
c-28.667 -9.33301 -61.334 -14 -98.001 -14h-109v90h103c80 0 120 32 120 96z" />
    <glyph glyph-name="scedilla" unicode="&#x15f;" horiz-adv-x="985" 
d="M575 -256c0 64 -40.666 95.998 -121.999 95.998h-56l49 140c-174 8.66699 -286.333 67.334 -337 176.001c-18 36.667 -27 79 -27 127h133c0 -63.333 25.333 -112 76 -146s105.667 -51 165 -51c194.667 0 293.334 62.667 296.001 188
c0 65.333 -33.333 110.666 -100 135.999c-22.667 8 -49 14.667 -79 20l-188 33c-86.667 15.333 -147.334 36.333 -182.001 63c-34 26.667 -59 55.334 -75 86.001s-24 68.334 -24 113.001c0 89.333 35.667 161 107 215c71.333 53.333 163 80.333 275 81
s204 -23.666 276 -72.999s107.333 -123 106 -221h-133c0 62 -22.667 108.333 -68 139c-45.333 31.333 -105.333 47 -180 47c-116 0 -192.333 -33.667 -229 -101c-12 -22.667 -18 -47 -18 -73c0 -64.667 29 -107.667 87 -129c36 -13.333 69.667 -22.666 101 -27.999l188 -33
c92 -17.333 160.667 -45.333 206 -84s68 -101.667 68 -189c0.666992 -86.667 -33 -156.334 -101 -209.001s-163 -82.667 -285 -90l-8 -59c90 -4 148.667 -40 176 -108c8 -20.667 12 -43.334 12 -68.001c0 -86 -41.667 -142.667 -125 -170
c-28.667 -9.33301 -61.334 -14 -98.001 -14h-109v90h103c80 0 120 32 120 96z" />
    <glyph glyph-name="Scaron" unicode="&#x160;" horiz-adv-x="1306" 
d="M582 1573l-263 336h134l192 -252l193 252h133l-262 -336h-127zM121 393l145.003 -0.00195312c0 -89.333 34 -160.333 102 -213c68 -53.333 161.667 -80.666 281 -81.999c184 0 303.333 56 358 168c16.667 34.667 25 74 25 118
c-0.666992 114.667 -68.667 191.667 -204 231c-38.667 11.333 -84 21.333 -136 30l-92 17c-142.667 24.667 -249 58.667 -319 102c-93.333 58 -140 147 -140 267s46.667 217 140 291c93.333 73.333 214.666 110 363.999 110c150 0 271.333 -34.333 364 -103
c92 -68.667 138 -164.334 138 -287.001h-146c0 83.333 -32.333 148.666 -97 195.999s-150.334 71.333 -257.001 72s-193.334 -22.666 -260.001 -69.999s-99.667 -111.666 -99 -192.999s35.667 -141 105 -179c54 -29.333 139.333 -53.666 256 -72.999l92 -17
c138.667 -24.667 242 -59.667 310 -105c88.667 -61.333 133 -155 133 -281s-48 -226.667 -144 -302s-226 -113 -390 -113s-293 37 -387 111c-94.667 74 -142 175.667 -142 305z" />
    <glyph glyph-name="scaron" unicode="&#x161;" horiz-adv-x="985" 
d="M424 1163l-262 336h133l192 -252l193 252h133l-262 -336h-127zM82 283l133 -0.00292969c0 -63.333 25.333 -112 76 -146s105.667 -51 165 -51c194.667 0 293.334 62.667 296.001 188c0 65.333 -33.333 110.666 -100 135.999c-22.667 8 -49 14.667 -79 20l-188 33
c-86.667 15.333 -147.334 36.333 -182.001 63c-34 26.667 -59 55.334 -75 86.001s-24 68.334 -24 113.001c0 89.333 35.667 161 107 215c71.333 53.333 163 80.333 275 81s204 -23.666 276 -72.999s107.333 -123 106 -221h-133c0 62 -22.667 108.333 -68 139
c-45.333 31.333 -105.333 47 -180 47c-116 0 -192.333 -33.667 -229 -101c-12 -22.667 -18 -47 -18 -73c0 -64.667 29 -107.667 87 -129c36 -13.333 69.667 -22.666 101 -27.999l188 -33c92 -17.333 160.667 -45.333 206 -84s68 -103 68 -193
c0.666992 -89.333 -36 -160.333 -110 -213c-74 -53.333 -171.667 -80.333 -293 -81s-219 25.333 -293 78c-74.667 52 -112 127.667 -112 227z" />
    <glyph glyph-name="Tcommaaccent" unicode="&#x162;" horiz-adv-x="1185" 
d="M690 -256c0 64 -41 96 -123 96h-55l57 160h-49v1286h-504v123h1153v-123h-503v-1286h-43l-13 -82c60.667 -2.66699 107 -20 139 -52s48.333 -66.667 49 -104c2 -98 -39.333 -161.333 -124 -190c-28.667 -9.33301 -61.667 -14 -99 -14h-108v90h102c80.667 0 121 32 121 96
z" />
    <glyph glyph-name="tcommaaccent" unicode="&#x163;" horiz-adv-x="649" 
d="M188 887l-196 -0.000976562v112h196v304h140v-304h272v-112h-272v-594c0 -89.333 29 -143.666 87 -162.999c20 -6 44 -9 72 -9h113v-121h-168c-8.66699 -0 -19 1.33301 -31 4l-10 -86c90 -4 148.667 -40 176 -108c18 -46.667 17.667 -93 -1 -139
c-28.667 -75.333 -98.667 -113 -210 -113h-108v90h102c80.667 0 121 32 121 96s-41 96 -123 96h-55l55 176c-104 30.667 -157.333 121 -160 271v600z" />
    <glyph glyph-name="Tcaron" unicode="&#x164;" horiz-adv-x="1185" 
d="M526 1573l-262 336h133l193 -252l192 252h133l-262 -336h-127zM16 1286v123h1153v-123h-503v-1286h-146v1286h-504z" />
    <glyph glyph-name="tcaron" unicode="&#x165;" horiz-adv-x="649" 
d="M453 1360v182h151v-172l-78 -246h-69l57 236h-61zM188 287v599.999h-200v112h200v304h140v-304h272v-112h-272v-594c0 -89.333 29 -143.666 87 -162.999c20 -6 44 -9 72 -9h113v-121h-131c-187.333 0 -281 95.667 -281 287z" />
    <glyph glyph-name="Tbar" unicode="&#x166;" horiz-adv-x="1185" 
d="M16 1286v123h1153v-123h-503v-557h381v-113h-381v-616h-146v616h-381v113h381v557h-504z" />
    <glyph glyph-name="tbar" unicode="&#x167;" horiz-adv-x="649" 
d="M-12 475v95.999h200v316h-200v112h200v304h140v-304h272v-112h-272v-316h272v-96h-272v-182c0 -89.333 29 -143.666 87 -162.999c20 -6 44 -9 72 -9h113v-121h-131c-142 0 -229.667 53 -263 159c-11.333 36 -17.333 78.667 -18 128v188h-200z" />
    <glyph glyph-name="Utilde" unicode="&#x168;" horiz-adv-x="1409" 
d="M559 1679c-49.333 0 -80.668 -35.333 -94.001 -106h-78c4.66699 94.667 39.667 157 105 187c46.667 21.333 96.334 22 149.001 2c24.667 -8.66699 60.334 -26 107.001 -52s82 -39 106 -39c49.333 0 80.666 35.667 93.999 107h78
c-4.66699 -92 -39.334 -154.333 -104.001 -187c-22 -10.667 -46.333 -16 -73 -16c-45.333 0 -98.666 17.333 -159.999 52c-62 34.667 -105.333 52 -130 52zM155.998 555v853.996h145v-854c0 -143.333 34 -253.666 102 -330.999c70 -76.667 170.333 -114.667 301 -114
s230.667 38.334 300 113.001s104 185.334 104 332.001v854h145v-854c0 -289.333 -107.667 -470.666 -323 -543.999c-66.667 -22.667 -141.667 -34 -225 -34s-158.333 11.333 -225 34c-216 72.667 -324 254 -324 544z" />
    <glyph glyph-name="utilde" unicode="&#x169;" horiz-adv-x="1132" 
d="M424 1335c-49.333 0 -80.668 -35.333 -94.001 -106h-78c4.66699 94 39.334 156.333 104.001 187c47.333 21.333 97.333 22 150 2c24.667 -8.66699 60.334 -26 107.001 -52s82 -39 106 -39c49.333 0 80.666 35.667 93.999 107h78c-4.66699 -92.667 -39.667 -155 -105 -187
c-21.333 -10.667 -45.333 -16 -72 -16c-44.667 0 -98 17.333 -160 52s-105.333 52 -130 52zM146.998 387v612.001h140v-593c0 -160 48.667 -257 146 -291c77.333 -26.667 151.333 -23.334 222 9.99902s121.334 97.333 152.001 192c15.333 48 22.666 102.667 21.999 164v518
h140v-999h-133v164h-7c-59.333 -122 -166.333 -184.333 -321 -187c-169.333 0 -280.333 74.333 -333 223c-18.667 52 -28 114.333 -28 187z" />
    <glyph glyph-name="Umacron" unicode="&#x16a;" horiz-adv-x="1409" 
d="M420 1589v109h565v-109h-565zM156 555v853.996h145v-854c0 -143.333 34 -253.666 102 -330.999c70 -76.667 170.333 -114.667 301 -114s230.667 38.334 300 113.001s104 185.334 104 332.001v854h145v-854c0 -289.333 -107.667 -470.666 -323 -543.999
c-66.667 -22.667 -141.667 -34 -225 -34s-158.333 11.333 -225 34c-216 72.667 -324 254 -324 544z" />
    <glyph glyph-name="umacron" unicode="&#x16b;" horiz-adv-x="1132" 
d="M285 1276v108h565v-108h-565zM147 387v612.001h140v-593c0 -160 48.667 -257 146 -291c77.333 -26.667 151.333 -23.334 222 9.99902s121.334 97.333 152.001 192c15.333 48 22.666 102.667 21.999 164v518h140v-999h-133v164h-7
c-59.333 -122 -166.333 -184.333 -321 -187c-169.333 0 -280.333 74.333 -333 223c-18.667 52 -28 114.333 -28 187z" />
    <glyph glyph-name="Ubreve" unicode="&#x16c;" horiz-adv-x="1409" 
d="M705 1573c-118.667 0 -201.999 49.002 -249.999 147.002c-18 35.333 -29.667 77.666 -35 126.999h90c12 -90 52.333 -147.333 121 -172c22 -8 46.667 -12 74 -12s51.666 4 72.999 12c68.667 25.333 109 82.666 121 171.999h90c-10 -93.333 -41.667 -162.333 -95 -207
s-116.333 -67 -189 -67zM156.001 555.002v853.996h145v-854c0 -143.333 34 -253.666 102 -330.999c70 -76.667 170.333 -114.667 301 -114s230.667 38.334 300 113.001s104 185.334 104 332.001v854h145v-854c0 -289.333 -107.667 -470.666 -323 -543.999
c-66.667 -22.667 -141.667 -34 -225 -34s-158.333 11.333 -225 34c-216 72.667 -324 254 -324 544z" />
    <glyph glyph-name="ubreve" unicode="&#x16d;" horiz-adv-x="1132" 
d="M379 1263c-54 44.667 -85.335 113.667 -94.002 207h90c12 -90 52.333 -147.333 121 -172c22.667 -8 47.334 -12 74.001 -12c81.333 0 138.333 35.333 171 106c10.667 22.667 18.334 48.667 23.001 78h90c-10 -93.333 -41.667 -162.333 -95 -207
c-52.667 -44.667 -115.667 -67 -189 -67s-137 22.333 -191 67zM146.998 387v612.001h140v-593c0 -160 48.667 -257 146 -291c77.333 -26.667 151.333 -23.334 222 9.99902s121.334 97.333 152.001 192c15.333 48 22.666 102.667 21.999 164v518h140v-999h-133v164h-7
c-59.333 -122 -166.333 -184.333 -321 -187c-169.333 0 -280.333 74.333 -333 223c-18.667 52 -28 114.333 -28 187z" />
    <glyph glyph-name="Uring" unicode="&#x16e;" horiz-adv-x="1409" 
d="M705 1642c52 0 88.332 24 108.999 72c6 16 9 32 9 48c0 53.333 -24 90 -72 110c-14.667 5.33301 -35 8 -61 8s-50 -11.333 -72 -34c-21.333 -22.667 -32 -46.667 -32 -72c0 -64 24 -105 72 -123c14.667 -6 30.334 -9 47.001 -9zM704.999 1571
c-26 0 -50.6641 4.33105 -73.9971 12.998c-51.333 19.333 -87.333 52.666 -108 99.999c-10 24 -15 49.667 -15 77s5 53 15 77c20.667 48.667 56.667 82.334 108 101.001s101.666 18.334 150.999 -0.999023s84 -52.666 104 -99.999c10 -24 15 -49.667 15 -77
c-0.666992 -58 -20.334 -104.333 -59.001 -139c-38.667 -34 -84.334 -51 -137.001 -51zM156.002 554.998v853.996h145v-854c0 -143.333 34 -253.666 102 -330.999c70 -76.667 170.333 -114.667 301 -114s230.667 38.334 300 113.001s104 185.334 104 332.001v854h145v-854
c0 -289.333 -107.667 -470.666 -323 -543.999c-66.667 -22.667 -141.667 -34 -225 -34s-158.333 11.333 -225 34c-216 72.667 -324 254 -324 544z" />
    <glyph glyph-name="uring" unicode="&#x16f;" horiz-adv-x="1132" 
d="M679 1305c6 15.333 9 36 9 62s-11.333 49.667 -34 71s-46.667 32 -72 32c-44 0 -76.667 -11 -98 -33c-22 -22 -33 -45.667 -33 -71s3 -46 9 -62c19.333 -48 55.333 -71.667 108 -71c53.333 0 90.333 24 111 72zM432 1213c-39.333 35.333 -59 81.666 -59 138.999
c0.666992 57.333 20.334 103.333 59.001 138c40 34.667 86 52 138 52c53.333 0 99.333 -17.333 138 -52s58 -80.667 58 -138s-19.333 -103.666 -58 -138.999c-38.667 -34.667 -84.334 -52 -137.001 -52s-99 17.333 -139 52zM147 387v612.001h140v-593
c0 -160 48.667 -257 146 -291c77.333 -26.667 151.333 -23.334 222 9.99902s121.334 97.333 152.001 192c15.333 48 22.666 102.667 21.999 164v518h140v-999h-133v164h-7c-59.333 -122 -166.333 -184.333 -321 -187c-169.333 0 -280.333 74.333 -333 223
c-18.667 52 -28 114.333 -28 187z" />
    <glyph glyph-name="Uhungarumlaut" unicode="&#x170;" horiz-adv-x="1409" 
d="M469 1573l217 336h164l-279 -336h-102zM831 1573l218 336h163l-278 -336h-103zM156 555v853.996h145v-854c0 -143.333 34 -253.666 102 -330.999c70 -76.667 170.333 -114.667 301 -114s230.667 38.334 300 113.001s104 185.334 104 332.001v854h145v-854
c0 -289.333 -107.667 -470.666 -323 -543.999c-66.667 -22.667 -141.667 -34 -225 -34s-158.333 11.333 -225 34c-216 72.667 -324 254 -324 544z" />
    <glyph glyph-name="uhungarumlaut" unicode="&#x171;" horiz-adv-x="1132" 
d="M334 1163l217 336h164l-279 -336h-102zM696 1163l217 336h164l-278 -336h-103zM147 387v612.001h140v-593c0 -160 48.667 -257 146 -291c77.333 -26.667 151.333 -23.334 222 9.99902s121.334 97.333 152.001 192c15.333 48 22.666 102.667 21.999 164v518h140v-999h-133
v164h-7c-59.333 -122 -166.333 -184.333 -321 -187c-169.333 0 -280.333 74.333 -333 223c-18.667 52 -28 114.333 -28 187z" />
    <glyph glyph-name="Uogonek" unicode="&#x172;" horiz-adv-x="1409" 
d="M774 -233c0 -75.333 41.666 -113.002 124.999 -113.002h62v-96h-80c-109.333 0 -178.333 34.667 -207 104c-10 23.333 -15 48.333 -15 75c0 84 56.667 167.667 170 251c-51.333 -7.33301 -105.666 -11 -162.999 -11s-119.333 11.333 -186 34
c-216 74 -324 255.333 -324 544v854h145v-854c0 -143.333 34 -253.666 102 -330.999c70 -76.667 170.333 -114.667 301 -114s230.667 38.334 300 113.001s104 185.334 104 332.001v854h145v-854c0 -234.667 -73 -399.334 -219 -494.001c-80 -54.667 -135.333 -98 -166 -130
c-62.667 -64 -94 -118.667 -94 -164z" />
    <glyph glyph-name="uogonek" unicode="&#x173;" horiz-adv-x="1132" 
d="M844 -238c0 -72 41.667 -107.998 125 -107.998h61v-96h-80c-70 0 -123.333 16.667 -160 50s-55 80.666 -55 141.999s28.333 122 85 182c20 22 43 44.667 69 68h-53v164h-7c-59.333 -122 -166.333 -184.333 -321 -187c-169.333 0 -280.333 74.333 -333 223
c-18.667 52.667 -28 115 -28 187v612h140v-593c0 -160 48.667 -257 146 -291c77.333 -26.667 151.333 -23.334 222 9.99902s121.334 97.333 152.001 192c15.333 48 22.666 102.667 21.999 164v518h140v-999c-83.333 -94 -125 -173.333 -125 -238z" />
    <glyph glyph-name="Wcircumflex" unicode="&#x174;" horiz-adv-x="1880" 
d="M616 1573l263 336h127l262 -336h-133l-193 252l-192 -252h-134zM408 0l-381 1409h151l320 -1257h8l352 1257h176l352 -1257h7l315 1257h145l-374 -1409h-183l-350 1241h-6l-350 -1241h-182z" />
    <glyph glyph-name="wcircumflex" unicode="&#x175;" horiz-adv-x="1456" 
d="M403 1163l263 336h127l262 -336h-133l-193 252l-192 -252h-134zM313 0l-297 999h146l231 -854h8l248 854h164l248 -854h8l231 854h140l-297 -999h-168l-244 860h-6l-244 -860h-168z" />
    <glyph glyph-name="Ycircumflex" unicode="&#x176;" horiz-adv-x="1216" 
d="M283 1573l262 336h127l262 -336h-133l-193 252l-192 -252h-133zM532 0v561l-505 848h163l414 -698h6l428 698h152l-512 -838v-571h-146z" />
    <glyph glyph-name="ycircumflex" unicode="&#x177;" horiz-adv-x="942" 
d="M143 1163l263 336h126l263 -336h-133l-193 252l-193 -252h-133zM68 -346l54.999 -0.000976562c118 0 201.333 71.667 250 215l37 100l-394 1030h152l307 -847h6l305 847h140l-439 -1169c-33.333 -89.333 -68.666 -152.666 -105.999 -189.999
c-69.333 -70 -147.333 -105 -234 -105h-79v119z" />
    <glyph glyph-name="Ydieresis" unicode="&#x178;" horiz-adv-x="1216" 
d="M338 1573v184h139v-184h-139zM741 1573v184h140v-184h-140zM532 0v561l-505 848h163l414 -698h6l428 698h152l-512 -838v-571h-146z" />
    <glyph glyph-name="Zacute" unicode="&#x179;" horiz-adv-x="1177" 
d="M537 1573l217 336h166l-281 -336h-102zM117 1286v123h985v-94l-846 -1192h838v-123h-1018v94l846 1192h-805z" />
    <glyph glyph-name="zacute" unicode="&#x17a;" horiz-adv-x="886" 
d="M385 1163l217 336h166l-281 -336h-102zM63 887v112h752v-94l-567 -792h575v-113h-751v82l575 805h-584z" />
    <glyph glyph-name="Zdotaccent" unicode="&#x17b;" horiz-adv-x="1177" 
d="M520 1573v184h139v-184h-139zM117 1286v123h985v-94l-846 -1192h838v-123h-1018v94l846 1192h-805z" />
    <glyph glyph-name="zdotaccent" unicode="&#x17c;" horiz-adv-x="886" 
d="M369 1239v184h139v-184h-139zM63 887v112h752v-94l-567 -792h575v-113h-751v82l575 805h-584z" />
    <glyph glyph-name="Zcaron" unicode="&#x17d;" horiz-adv-x="1177" 
d="M526 1573l-262 336h133l193 -252l192 252h133l-262 -336h-127zM117 1286v123h985v-94l-846 -1192h838v-123h-1018v94l846 1192h-805z" />
    <glyph glyph-name="zcaron" unicode="&#x17e;" horiz-adv-x="886" 
d="M375 1163l-262 336h133l192 -252l193 252h133l-262 -336h-127zM63 887v112h752v-94l-567 -792h575v-113h-751v82l575 805h-584z" />
    <glyph glyph-name="longs" unicode="&#x17f;" horiz-adv-x="589" 
d="M205 0v887h-199v112h199v177c0 159.333 60 260.333 180 303c39.333 13.333 85 20 137 20h109v-121h-96c-100 0 -160.333 -38.667 -181 -116c-6.66699 -26 -10 -57 -10 -93v-1169h-139z" />
    <glyph glyph-name="florin" unicode="&#x192;" horiz-adv-x="1163" 
d="M225 -393c-180.667 0 -264.667 103.001 -252 309.001l7 82h126l-6 -82c-5.33301 -67.333 2.66699 -116.333 24 -147s57 -46.667 107 -48c75.333 0 125.333 41 150 123c8 27.333 14 59.666 18 96.999l72 684h-254v102h264l39 371c10 109.333 42.667 192 98 248
s127.333 84.667 216 86c182 0 265.667 -103.333 251 -310l-6 -82h-127l6 82c10.667 130 -33 195 -131 195c-75.333 0 -125 -41 -149 -123c-8 -27.333 -14.333 -59.333 -19 -96l-38 -371h317v-102h-328l-71 -684c-15.333 -166 -81 -271 -197 -315
c-35.333 -12.667 -74.333 -19 -117 -19z" />
    <glyph glyph-name="AEacute" unicode="&#x1fc;" horiz-adv-x="2152" 
d="M1120 1573l217 336h166l-280 -336h-103zM1098 463v778h-2l-566 -778h568zM2032 1409v-127h-789v-500h633v-127h-633v-528h805v-127h-950v336h-660l-243 -336h-172l1026 1409h983z" />
    <glyph glyph-name="aeacute" unicode="&#x1fd;" horiz-adv-x="1728" 
d="M793 1163l217 336h166l-281 -336h-102zM1471 725c-45.333 117.333 -128.333 176 -249 176c-78 0 -144.667 -28.333 -200 -85s-88.666 -130.667 -99.999 -222h575c-2.66699 49.333 -11.334 93 -26.001 131zM770 430v107c-16 -20 -35.667 -33 -59 -39l-56 -13l-211 -34
c-134.667 -21.333 -202 -83.666 -202 -186.999c0 -54.667 18 -97 54 -127s82 -45 138 -45c162 0 265.667 62.333 311 187c16.667 43.333 25 93.666 25 150.999zM1645 547l-0.00292969 -58.001h-730c0 -117.333 29 -212 87 -284c58.667 -71.333 135 -107 229 -107
c113.333 0 192.333 41.333 237 124c13.333 25.333 23 52.333 29 81h137c-10.667 -90.667 -54 -167.667 -130 -231s-167 -95 -273 -95c-140.667 0 -252 46.333 -334 139c-26 29.333 -48 63 -66 101c-77.333 -157.333 -211.666 -237.333 -402.999 -240
c-102 0 -181.667 25 -239 75c-58 50 -87 116.667 -87 200c0 162 106 261 318 297l215 37c70.667 10.667 113.334 27.667 128.001 51c4.66699 8 7 24.333 7 49c0 62 -20 114.333 -60 157s-99.333 64 -178 64c-116 0 -193.667 -41.333 -233 -124
c-13.333 -28 -21.666 -59.667 -24.999 -95h-133c8 109.333 48 192 120 248s166 84.333 282 85c115.333 0.666992 206.666 -32.666 273.999 -99.999c22 -22.667 39.667 -49 53 -79c80.667 120 198.334 180 353.001 180c125.333 0 227 -43 305 -129
c78 -86.667 117 -202 117 -346z" />
    <glyph glyph-name="Oslashacute" unicode="&#x1fe;" horiz-adv-x="1544" 
d="M719 1573l217 336h166l-281 -336h-102zM772 111c155.333 0 281.333 56 378 168c97.333 112 146 251 146 417c0 165.333 -44.333 304 -133 416l-717 -885c88 -77.333 196.667 -116 326 -116zM772 1298c-155.333 0 -281.333 -56.001 -378 -168.001
c-97.333 -112 -146 -251 -146 -417c0 -165.333 43.667 -304.666 131 -417.999l719 887c-88 77.333 -196.667 116 -326 116zM1255 1225c128.667 -140 192.999 -314.332 192.999 -522.999s-64.333 -381.334 -193 -518.001s-289.667 -205.667 -483 -207
c-156 0 -294.667 46.667 -416 140l-112 -142h-123l166 205c-124.667 135.333 -187.667 309.333 -189 522s61.334 387 188.001 523c126.667 136.667 288.667 205.667 486 207c158 0 296 -48 414 -144l117 146h120z" />
    <glyph glyph-name="oslashacute" unicode="&#x1ff;" horiz-adv-x="1126" 
d="M510 1163l217 336h166l-281 -336h-102zM800 209c62 74.667 92.999 168.667 92.999 282s-23.333 203 -70 269l-469 -584c58 -52 131 -78 219 -78c88.667 0 164.334 37 227.001 111zM771.999 823c-58 52 -131 78.001 -219 78.001c-88.667 0 -164 -37.333 -226 -112
c-62.667 -74.667 -94 -168.334 -94 -281.001s23.333 -202 70 -268zM210.999 127.001c-82 98.667 -123.001 224.332 -123.001 376.999c0 152 44.333 276.333 133 373s202.667 145 342 145c82 0 159 -18 231 -54c22.667 -11.333 43.334 -24.666 62.001 -39.999l78 96h102
l-123 -152c83.333 -94 125 -218.667 125 -374s-44.667 -281 -134 -377s-203 -144 -341 -144c-115.333 0 -213 31.667 -293 95l-77 -97h-103z" />
    <glyph glyph-name="Scommaaccent" unicode="&#x218;" horiz-adv-x="1306" 
d="M578 -135h139v-152l-74 -211h-63l55 199h-57v164zM121 393l145.003 -0.00195312c0 -89.333 34 -160.333 102 -213c68 -53.333 161.667 -80.666 281 -81.999c184 0 303.333 56 358 168c16.667 34.667 25 74 25 118c-0.666992 114.667 -68.667 191.667 -204 231
c-38.667 11.333 -84 21.333 -136 30l-92 17c-142.667 24.667 -249 58.667 -319 102c-93.333 58 -140 147 -140 267s46.667 217 140 291c93.333 73.333 214.666 110 363.999 110c150 0 271.333 -34.333 364 -103c92 -68.667 138 -164.334 138 -287.001h-146
c0 83.333 -32.333 148.666 -97 195.999s-150.334 71.333 -257.001 72s-193.334 -22.666 -260.001 -69.999s-99.667 -111.666 -99 -192.999s35.667 -141 105 -179c54 -29.333 139.333 -53.666 256 -72.999l92 -17c138.667 -24.667 242 -59.667 310 -105
c88.667 -61.333 133 -155 133 -281s-48 -226.667 -144 -302s-226 -113 -390 -113s-293 37 -387 111c-94.667 74 -142 175.667 -142 305z" />
    <glyph glyph-name="scommaaccent" unicode="&#x219;" horiz-adv-x="985" 
d="M412 -135h139v-152l-74 -211h-63l55 199h-57v164zM82 283l133 -0.00292969c0 -63.333 25.333 -112 76 -146s105.667 -51 165 -51c194.667 0 293.334 62.667 296.001 188c0 65.333 -33.333 110.666 -100 135.999c-22.667 8 -49 14.667 -79 20l-188 33
c-86.667 15.333 -147.334 36.333 -182.001 63c-34 26.667 -59 55.334 -75 86.001s-24 68.334 -24 113.001c0 89.333 35.667 161 107 215c71.333 53.333 163 80.333 275 81s204 -23.666 276 -72.999s107.333 -123 106 -221h-133c0 62 -22.667 108.333 -68 139
c-45.333 31.333 -105.333 47 -180 47c-116 0 -192.333 -33.667 -229 -101c-12 -22.667 -18 -47 -18 -73c0 -64.667 29 -107.667 87 -129c36 -13.333 69.667 -22.666 101 -27.999l188 -33c92 -17.333 160.667 -45.333 206 -84s68 -103 68 -193
c0.666992 -89.333 -36 -160.333 -110 -213c-74 -53.333 -171.667 -80.333 -293 -81s-219 25.333 -293 78c-74.667 52 -112 127.667 -112 227z" />
    <glyph glyph-name="uni021A" unicode="&#x21a;" horiz-adv-x="1185" 
d="M526 -135h140v-152l-74 -211h-64l56 199h-58v164zM16 1286v123h1153v-123h-503v-1286h-146v1286h-504z" />
    <glyph glyph-name="uni021B" unicode="&#x21b;" horiz-adv-x="649" 
d="M303 -135h139v-152l-73 -211h-64l55 199h-57v164zM188 287v599.999h-196v112h196v304h140v-304h272v-112h-272v-594c0 -89.333 29 -143.666 87 -162.999c20 -6 44 -9 72 -9h113v-121h-131c-187.333 0 -281 95.667 -281 287z" />
    <glyph glyph-name="circumflex" unicode="&#x2c6;" horiz-adv-x="1126" 
d="M238 1163l262 336h127l262 -336h-133l-193 252l-192 -252h-133z" />
    <glyph glyph-name="caron" unicode="&#x2c7;" horiz-adv-x="1126" 
d="M500 1163l-262 336h133l192 -252l193 252h133l-262 -336h-127z" />
    <glyph glyph-name="uni02C9" unicode="&#x2c9;" horiz-adv-x="1126" 
d="M279 1276v108h565v-108h-565z" />
    <glyph glyph-name="breve" unicode="&#x2d8;" horiz-adv-x="1126" 
d="M563 1196c-72.667 0 -136 22.332 -190 66.999s-85.333 113.667 -94 207h90c12 -89.333 52 -146.666 120 -171.999c22 -8 46.667 -12 74 -12c81.333 0 138.666 35.333 171.999 106c10.667 22.667 18.334 48.667 23.001 78h90c-10 -94 -42 -163.333 -96 -208
c-53.333 -44 -116.333 -66 -189 -66z" />
    <glyph glyph-name="dotaccent" unicode="&#x2d9;" horiz-adv-x="1126" 
d="M494 1239v184h139v-184h-139z" />
    <glyph glyph-name="ring" unicode="&#x2da;" horiz-adv-x="1126" 
d="M673 1305c6 15.333 8.99805 36.001 8.99805 62.001s-11.333 49.667 -34 71s-46.667 32 -72 32c-44 0 -76.333 -10.667 -97 -32c-21.333 -21.333 -32.666 -45.333 -33.999 -72c-0.666992 -26.667 2.33301 -47.334 9 -62.001c20 -47.333 56.333 -71 109 -71
s89.334 24 110.001 72zM562.998 1161c-52.667 0 -98.335 17.334 -137.002 52.001c-39.333 35.333 -59 81.666 -59 138.999c0.666992 57.333 20.334 103.333 59.001 138s84.667 52 138 52s99 -17.333 137 -52s57.333 -80.667 58 -138s-18.666 -103.333 -57.999 -138
c-39.333 -35.333 -85.333 -53 -138 -53z" />
    <glyph glyph-name="ogonek" unicode="&#x2db;" horiz-adv-x="1126" 
d="M508 -238c0 -72 41.667 -107.999 125 -107.999h61v-96h-80c-70 0 -123.333 16.667 -160 50s-55 80.666 -55 141.999s28.333 122 85 182c20 22 43 44.667 69 68h80c-83.333 -94 -125 -173.333 -125 -238z" />
    <glyph glyph-name="tilde" unicode="&#x2dc;" horiz-adv-x="1126" 
d="M418 1335c-49.333 0 -80.668 -35.332 -94.001 -105.999h-78c4.66699 94 39.334 156.333 104.001 187c47.333 21.333 97.333 22 150 2c24.667 -8.66699 60.334 -26 107.001 -52s82 -39 106 -39c49.333 0 80.666 35.667 93.999 107h78
c-2.66699 -57.333 -15.334 -100 -38.001 -128c-39.333 -50 -83.666 -75 -132.999 -75s-98.333 13.667 -147 41s-81.667 44.666 -99 51.999s-34 11 -50 11z" />
    <glyph glyph-name="hungarumlaut" unicode="&#x2dd;" horiz-adv-x="1126" 
d="M328 1163l217 336h164l-279 -336h-102zM690 1163l217 336h164l-278 -336h-103z" />
    <glyph glyph-name="uni0394" unicode="&#x394;" horiz-adv-x="1288" 
d="M643 1278h-4l-399 -1157h800zM59 0l500 1409h170l500 -1409h-1170z" />
    <glyph glyph-name="uni03A9" unicode="&#x3a9;" horiz-adv-x="1425" 
d="M846 0v410c80.667 23.333 154.667 74 222 152s100.666 179.667 99.999 305s-43.667 230.666 -129 315.999c-86 85.333 -195 128 -327 128s-240.667 -42.667 -326 -128s-128 -191 -128 -317s33.333 -227.667 100 -305s140.667 -127.666 222 -150.999v-410h-443v121h309
v213c-94.667 42 -174 109.333 -238 202c-64.667 93.333 -96.334 199.333 -95.001 318c0 164 56.333 301.667 169 413c112.667 110 256.334 165 431.001 165s318.334 -55 431.001 -165s169 -247.667 169 -413c0 -119.333 -31.667 -225.333 -95 -318
c-63.333 -92 -143 -159.333 -239 -202v-213h309v-121h-442z" />
    <glyph glyph-name="uni03BC" unicode="&#x3bc;" horiz-adv-x="1150" 
d="M303 -293v-157.999h-139v1450h139v-593c0 -160 49 -257 147 -291c77.333 -26.667 152 -23.334 224 9.99902s122.333 96.333 151 189c15.333 47.333 23 101 23 161v524h137v-999h-131v164h-6c-59.333 -122 -166.666 -184.333 -321.999 -187c-75.333 0 -138.333 16 -189 48
c-18.667 10.667 -35.334 23.334 -50.001 38.001c10.667 -98.667 16 -217.334 16 -356.001z" />
    <glyph glyph-name="pi" unicode="&#x3c0;" horiz-adv-x="1185" 
d="M176 0v999h834v-999h-140v879h-555v-879h-139z" />
    <glyph glyph-name="Wgrave" unicode="&#x1e80;" horiz-adv-x="1880" 
d="M893 1573l-281 336h166l217 -336h-102zM408 0l-381 1409h151l320 -1257h8l352 1257h176l352 -1257h7l315 1257h145l-374 -1409h-183l-350 1241h-6l-350 -1241h-182z" />
    <glyph glyph-name="wgrave" unicode="&#x1e81;" horiz-adv-x="1456" 
d="M680 1163l-281 336h166l217 -336h-102zM313 0l-297 999h146l231 -854h8l248 854h164l248 -854h8l231 854h140l-297 -999h-168l-244 860h-6l-244 -860h-168z" />
    <glyph glyph-name="Wacute" unicode="&#x1e82;" horiz-adv-x="1880" 
d="M889 1573l217 336h166l-281 -336h-102zM408 0l-381 1409h151l320 -1257h8l352 1257h176l352 -1257h7l315 1257h145l-374 -1409h-183l-350 1241h-6l-350 -1241h-182z" />
    <glyph glyph-name="wacute" unicode="&#x1e83;" horiz-adv-x="1456" 
d="M676 1163l217 336h166l-281 -336h-102zM313 0l-297 999h146l231 -854h8l248 854h164l248 -854h8l231 854h140l-297 -999h-168l-244 860h-6l-244 -860h-168z" />
    <glyph glyph-name="Wdieresis" unicode="&#x1e84;" horiz-adv-x="1880" 
d="M672 1573v184h139v-184h-139zM1075 1573v184h139v-184h-139zM408 0l-381 1409h151l320 -1257h8l352 1257h176l352 -1257h7l315 1257h145l-374 -1409h-183l-350 1241h-6l-350 -1241h-182z" />
    <glyph glyph-name="wdieresis" unicode="&#x1e85;" horiz-adv-x="1456" 
d="M459 1239v184h139v-184h-139zM862 1239v184h139v-184h-139zM313 0l-297 999h146l231 -854h8l248 854h164l248 -854h8l231 854h140l-297 -999h-168l-244 860h-6l-244 -860h-168z" />
    <glyph glyph-name="Ygrave" unicode="&#x1ef2;" horiz-adv-x="1216" 
d="M559 1573l-280 336h165l218 -336h-103zM532 0v561l-505 848h163l414 -698h6l428 698h152l-512 -838v-571h-146z" />
    <glyph glyph-name="ygrave" unicode="&#x1ef3;" horiz-adv-x="942" 
d="M420 1163l-281 336h166l217 -336h-102zM68 -346l54.999 -0.000976562c118 0 201.333 71.667 250 215l37 100l-394 1030h152l307 -847h6l305 847h140l-439 -1169c-33.333 -89.333 -68.666 -152.666 -105.999 -189.999c-69.333 -70 -147.333 -105 -234 -105h-79v119z" />
    <glyph glyph-name="endash" unicode="&#x2013;" horiz-adv-x="1138" 
d="M123 453v127h893v-127h-893z" />
    <glyph glyph-name="emdash" unicode="&#x2014;" horiz-adv-x="1720" 
d="M123 453v127h1474v-127h-1474z" />
    <glyph glyph-name="quoteleft" unicode="&#x2018;" horiz-adv-x="473" 
d="M156 893v205l80 311h75l-59 -299h67v-217h-163z" />
    <glyph glyph-name="quoteright" unicode="&#x2019;" horiz-adv-x="473" 
d="M154 1192v217h163v-205l-79 -311h-76l59 299h-67z" />
    <glyph glyph-name="quotesinglbase" unicode="&#x201a;" horiz-adv-x="473" 
d="M154 0v217h163v-205l-79 -311h-76l59 299h-67z" />
    <glyph glyph-name="quotedblleft" unicode="&#x201c;" horiz-adv-x="825" 
d="M508 893v205l78 311h78l-60 -299h68v-217h-164zM156 893v205l80 311h75l-59 -299h67v-217h-163z" />
    <glyph glyph-name="quotedblright" unicode="&#x201d;" horiz-adv-x="825" 
d="M506 1192v217h164v-205l-80 -311h-76l59 299h-67zM154 1192v217h163v-205l-79 -311h-76l59 299h-67z" />
    <glyph glyph-name="quotedblbase" unicode="&#x201e;" horiz-adv-x="825" 
d="M506 0v217h164v-205l-80 -311h-76l59 299h-67zM154 0v217h163v-205l-79 -311h-76l59 299h-67z" />
    <glyph glyph-name="dagger" unicode="&#x2020;" horiz-adv-x="880" 
d="M90 936v115h287v358h127v-358h287v-115h-287v-936h-127v936h-287z" />
    <glyph glyph-name="daggerdbl" unicode="&#x2021;" horiz-adv-x="880" 
d="M90 936v115h287v358h127v-358h287v-115h-287v-469h287v-115h-287v-352h-127v352h-287v115h287v469h-287z" />
    <glyph glyph-name="bullet" unicode="&#x2022;" horiz-adv-x="999" 
d="M147 516c0.666992 100 35.001 183.999 103.001 251.999s151.667 101.667 251 101s182.666 -34.667 249.999 -102s101 -150.666 101 -249.999s-33.667 -183 -101 -251s-151.333 -102 -252 -102s-184.667 34 -252 102c-66.667 68 -100 151.333 -100 250z" />
    <glyph glyph-name="ellipsis" unicode="&#x2026;" horiz-adv-x="1472" 
d="M162 0v227h176v-227h-176zM649 0v227h176v-227h-176zM1137 0v227h176v-227h-176z" />
    <glyph glyph-name="perthousand" unicode="&#x2030;" horiz-adv-x="2285" 
d="M2056 152c28.667 48 42.999 114.668 42.999 200.001c0 179.333 -58 270.333 -174 273c-85.333 0 -139.666 -53 -162.999 -159c-7.33301 -33.333 -11 -71.333 -11 -114s3.66699 -80.334 11 -113.001c7.33301 -33.333 18.666 -62 33.999 -86
c31.333 -48.667 75.333 -73 132 -73s99.334 24 128.001 72zM1925 -15.999c-96.667 0 -169.667 33.333 -219 100s-74.666 156 -75.999 268c0 172 55 285.667 165 341c37.333 18.667 80.666 28 129.999 28s92.666 -9.33301 129.999 -28
c73.333 -36.667 122.666 -101.667 148 -195c11.333 -45.333 17 -94 17 -146c0 -172 -55 -285.667 -165 -341c-37.333 -18 -80.666 -27 -129.999 -27zM1335 152.001c28.667 48 42.999 114.668 42.999 200.001c0 179.333 -58 270.333 -174 273
c-85.333 0 -139.666 -53 -162.999 -159c-7.33301 -33.333 -11 -71.333 -11 -114s3.66699 -80.334 11 -113.001c7.33301 -33.333 18.666 -62 33.999 -86c31.333 -48.667 75.333 -73 132 -73s99.334 24 128.001 72zM1204 -15.998c-96.667 0 -169.666 33.333 -218.999 100
s-74.666 156 -75.999 268c0 172 55 285.667 165 341c37.333 18.667 80.666 28 129.999 28s92.666 -9.33301 129.999 -28c73.333 -36.667 122.666 -101.667 147.999 -195c11.333 -45.333 17 -94 17 -146c0 -172 -55 -285.667 -165 -341c-37.333 -18 -80.666 -27 -129.999 -27
zM370.999 -24.998l714 1459h109l-715 -1459h-108zM359.999 1329c-113.333 0 -171.333 -90.666 -174 -271.999c0 -132.667 33.667 -217.334 101 -254.001c21.333 -12.667 46 -19 74 -19c113.333 0 171.333 91 174 273c0 130 -33 214.667 -99 254c-22 12 -47.333 18 -76 18z
M359.999 688.003c-49.333 0 -92.667 9.33105 -130 27.998c-109.333 54.667 -164 168.334 -164 341.001s54.667 286.334 164 341.001c37.333 18.667 80.666 28 129.999 28c96.667 -0.666992 170 -34.667 220 -102c50 -66.667 75 -155.667 75 -267
c0 -173.333 -55 -287 -165 -341c-37.333 -18.667 -80.666 -28 -129.999 -28z" />
    <glyph glyph-name="guilsinglleft" unicode="&#x2039;" horiz-adv-x="636" 
d="M410 98l-297 418l297 418h114l-254 -418l254 -418h-114z" />
    <glyph glyph-name="guilsinglright" unicode="&#x203a;" horiz-adv-x="636" 
d="M113 98l254 418l-254 418h112l299 -418l-299 -418h-112z" />
    <glyph glyph-name="fraction" unicode="&#x2044;" horiz-adv-x="122" 
d="M-350 -25l715 1459h108l-715 -1459h-108z" />
    <glyph glyph-name="uni2070" unicode="&#x2070;" 
d="M360 1640c-113.333 0 -171.332 -90.666 -173.999 -271.999c0 -132.667 33.667 -217.334 101 -254.001c21.333 -12 45.666 -18 72.999 -18c114 0 172.333 90.667 175 272c0 132 -33 216.667 -99 254c-22 12 -47.333 18 -76 18zM360.001 999.001
c-96.667 0 -169.667 33.666 -219 100.999c-50 67.333 -75 156.666 -75 267.999c0 172.667 54.667 286.334 164 341.001c37.333 18.667 80.666 28 129.999 28c95.333 0 168.333 -33.667 219 -101s76 -156.666 76 -267.999c0 -173.333 -55 -287 -165 -341
c-37.333 -18.667 -80.666 -28 -129.999 -28z" />
    <glyph glyph-name="uni2074" unicode="&#x2074;" 
d="M430 1262v297l-242 -297h242zM55 1165v78l394 479h102v-460h108v-97h-108v-149h-121v149h-375z" />
    <glyph glyph-name="uni2075" unicode="&#x2075;" 
d="M393 1475c76 0 137.333 -19.668 184 -59.001s70 -97 70 -173s-26 -135.333 -78 -178s-116.667 -64.667 -194 -66c-125.333 0 -208.666 41 -249.999 123c-12.667 24.667 -20.334 51.334 -23.001 80.001h117c8.66699 -51.333 38.667 -85.666 90 -102.999
c18 -6 43.667 -9 77 -9s65 13 95 39s45 62.667 45 110c0 69.333 -31.667 114.666 -95 135.999c-18 6 -36.333 9 -55 9c-52 0 -92 -14.667 -120 -44c-9.33301 -10 -18.333 -21 -27 -33l-116 6l24 407h469v-102h-360l-19 -207h6c34 40 87.333 61.333 160 64z" />
    <glyph glyph-name="uni2076" unicode="&#x2076;" 
d="M307 1375c-64 -20 -96 -65.666 -96 -136.999s30.667 -117.333 92 -138c19.333 -6.66699 45.333 -10 78 -10s64 13 94 39s45 62.667 45 110c0 69.333 -31.667 114.666 -95 135.999c-19.333 6 -39 9 -59 9s-39.667 -3 -59 -9zM369 999.001
c-194 0 -290.331 119.001 -288.998 357.001c0.666992 132 27.667 228 81 288c54 60 122.333 90.667 205 92c82.667 0.666992 145 -17.333 187 -54s66 -85.334 72 -146.001h-121c-6 70 -48.333 106.333 -127 109c-112.667 0 -171.334 -87.667 -176.001 -263
c20.667 42 62.667 70.333 126 85c20 4.66699 40.667 7.33398 62 8.00098c119.333 0 197 -44 233 -132c12 -30 18.333 -64 19 -102c0 -74.667 -26 -133.334 -78 -176.001c-52.667 -42.667 -117.334 -64.667 -194.001 -66z" />
    <glyph glyph-name="uni2077" unicode="&#x2077;" 
d="M76 1612v108h573v-75l-334 -629h-133l322 596h-428z" />
    <glyph glyph-name="uni2078" unicode="&#x2078;" 
d="M211 1534c0 -71.333 49.666 -108.333 148.999 -111c70.667 0 117.334 21.333 140.001 64c6.66699 13.333 10 29 10 47c0 70.667 -50 107.667 -150 111c-69.333 0 -115.333 -21 -138 -63c-7.33301 -14 -11 -30 -11 -48zM189.999 1214c0 -20 4 -38 12 -54
c24.667 -46.667 77.667 -70 159 -70s133.666 23.333 156.999 70c8 16 12 34 12 54s-4 38.333 -12 55c-23.333 46.667 -75.666 70 -156.999 70c-82 0 -134.667 -23.333 -158 -70c-8.66699 -16 -13 -34.333 -13 -55zM91.999 1535c0 62.667 24.001 111.666 72.001 146.999
s113.333 53.666 196 54.999c123.333 0 206.333 -38.333 249 -115c22.667 -41.333 28 -82 16 -122c-18.667 -62 -59 -100.667 -121 -116v-6c66.667 -12 112.667 -49 138 -111c7.33301 -20 11 -43.667 11 -71c0 -60 -25.333 -107.667 -76 -143
c-50.667 -34.667 -122.334 -52.334 -215.001 -53.001c-92 -0.666992 -164 17.333 -216 54s-78 82.334 -78 137.001s14 97.334 42 128.001c25.333 30.667 61 50.334 107 59.001v6c-38 8 -68.333 26.333 -91 55c-22.667 29.333 -34 61.333 -34 96z" />
    <glyph glyph-name="uni2079" unicode="&#x2079;" 
d="M197 1495c0 -66 31.666 -110.669 94.999 -134.002c18.667 -6 44.667 -9 78 -9s64.333 12.333 93 37s43 59 43 103c0 43.333 -12.667 79.333 -38 108s-61.666 43.334 -108.999 44.001s-86 -11.666 -116 -36.999c-30.667 -26 -46 -63.333 -46 -112zM636.999 1384
c0 -254 -94.999 -382.329 -284.999 -384.996c-76.667 0 -137.667 18.667 -183 56s-71 85.666 -77 144.999h121c2.66699 -32.667 17 -59 43 -79c25.333 -20.667 53.666 -31 84.999 -31c58.667 0 101.667 19.333 129 58c28 38.667 43.333 106 46 202
c-10.667 -24 -33 -44.667 -67 -62s-71.333 -26 -112 -26c-39.333 0 -75 4.66699 -107 14s-59.667 23.666 -83 42.999c-47.333 39.333 -71 95.666 -71 168.999s26 133 78 179c52 45.333 116.667 68.666 194 69.999c192.667 0 289 -117.667 289 -353z" />
    <glyph glyph-name="uni2080" unicode="&#x2080;" 
d="M360 313c-113.333 0 -171.332 -90.666 -173.999 -271.999c0 -132.667 33.667 -217.334 101 -254.001c21.333 -12 45.666 -18 72.999 -18c114 0 172.333 90.667 175 272c0 132 -33 216.667 -99 254c-22 12 -47.333 18 -76 18zM360.001 -327.999
c-96.667 0 -169.667 33.666 -219 100.999c-50 67.333 -75 156.666 -75 267.999c0 172.667 54.667 286.334 164 341.001c37.333 18.667 80.666 28 129.999 28c95.333 0 168.333 -33.667 219 -101s76 -156.666 76 -267.999c0 -173.333 -55 -287 -165 -341
c-37.333 -18.667 -80.666 -28 -129.999 -28z" />
    <glyph glyph-name="uni2081" unicode="&#x2081;" 
d="M451 393v-602h200v-102h-538v102h217v457l-185 -107l-51 86l281 166h76z" />
    <glyph glyph-name="uni2082" unicode="&#x2082;" 
d="M80 -311c0 124.667 45.333 218 136 280c25.333 18 54.333 35 87 51l59 31c73.333 33.333 119.666 67 138.999 101c7.33301 13.333 11 28.333 11 45c0 76 -49 114 -147 114c-50 0 -90 -12.667 -120 -38c-29.333 -25.333 -45.333 -64.333 -48 -117h-115
c2.66699 84.667 30.667 147.667 84 189c54 40.667 120.333 61.667 199 63c126.667 0 209.334 -40 248.001 -120c12.667 -26.667 19 -55.667 19 -87c0.666992 -78 -42.333 -142 -129 -192c-22.667 -12.667 -52.334 -28 -89.001 -46l-60 -29
c-43.333 -19.333 -76.666 -42 -99.999 -68c-23.333 -25.333 -35 -50.333 -35 -75h418v-102h-557z" />
    <glyph glyph-name="uni2083" unicode="&#x2083;" 
d="M76 -102h114c0 -87.333 56.667 -132.666 170 -135.999c81.333 0 134 23.667 158 71c8 16.667 12 35 12 55s-4 38 -12 54c-23.333 46.667 -76 70 -158 70h-59v84h59c70.667 0 117.334 21.333 140.001 64c6.66699 13.333 10 29 10 47c0 54 -29.667 88.333 -89 103
c-18.667 4.66699 -39 7 -61 7c-68.667 0 -115.334 -24.667 -140.001 -74c-7.33301 -16 -11 -33.667 -11 -53h-115c0 72 24.667 126.333 74 163s115.666 55.667 198.999 57c118.667 0 199.334 -38.333 242.001 -115c22.667 -41.333 28 -82 16 -122
c-18.667 -62 -59 -100.667 -121 -116v-4c66 -12 112 -49.667 138 -113c7.33301 -20 11 -43.667 11 -71c0 -60 -25.333 -107.667 -76 -143c-50.667 -34.667 -123 -52.667 -217 -54c-134.667 0 -222.667 41 -264 123c-13.333 29.333 -20 63.666 -20 102.999z" />
    <glyph glyph-name="uni2084" unicode="&#x2084;" 
d="M430 -66v297l-242 -297h242zM55 -162v78l394 479h102v-461h108v-96h-108v-149h-121v149h-375z" />
    <glyph glyph-name="uni2085" unicode="&#x2085;" 
d="M393 147c120.667 0 199.332 -43.666 235.999 -130.999c12 -30 18 -64 18 -102c0 -74.667 -26 -133.334 -78 -176.001s-116.667 -64.667 -194 -66c-125.333 0 -208.666 41 -249.999 123c-12.667 24.667 -20.334 51.334 -23.001 80.001h117
c12.667 -72.667 63.334 -110.334 152.001 -113.001c43.333 0 80 13.333 110 40s45 63.334 45 110.001c0 69.333 -31.667 114.666 -95 135.999c-18 6 -36.333 9 -55 9c-52 0 -92 -14.667 -120 -44c-9.33301 -10 -18.333 -21 -27 -33l-116 6l24 407h469v-102h-360l-19 -207h6
c36 42 89.333 63 160 63z" />
    <glyph glyph-name="uni2086" unicode="&#x2086;" 
d="M211 -87c0 -72 30.667 -118.667 92 -140c44 -15.333 84.667 -15.333 122 0c63.333 22.667 95 69 95 139s-31.667 115.333 -95 136c-18.667 6 -44.667 9 -78 9s-64.333 -12.333 -93 -37c-28.667 -25.333 -43 -61 -43 -107zM369 -328
c-194 0 -290.332 119.003 -288.999 357.003c0.666992 132 27.667 228 81 288c54 60 122.333 90.667 205 92c82.667 0.666992 145 -17.333 187 -54s66 -85.334 72 -146.001h-121c-1.33301 15.333 -5 29.666 -11 42.999c-19.333 43.333 -59 65 -119 65
c-110 0 -167.667 -87.333 -173 -262c30 61.333 96.333 92 199 92c29.333 0 59.333 -4.66699 90 -14c100.667 -30.667 151 -104.334 151 -221.001c0 -73.333 -26 -131.333 -78 -174c-52.667 -42.667 -117.334 -64.667 -194.001 -66z" />
    <glyph glyph-name="uni2087" unicode="&#x2087;" 
d="M76 285v108h573v-76l-334 -628h-133l322 596h-428z" />
    <glyph glyph-name="uni2088" unicode="&#x2088;" 
d="M360 96c70.667 0 117.334 21.333 140.001 64c6.66699 13.333 10 29 10 47c0 54 -29.667 88.333 -89 103c-18.667 4.66699 -39 7 -61 7c-21.333 0 -41.333 -2.33301 -60 -7c-58.667 -15.333 -88.334 -49.333 -89.001 -102c0 -52.667 29.333 -87.667 88 -105
c18 -4.66699 38.333 -7 61 -7zM190 -113c0 -20.667 3.99902 -38.999 11.999 -54.999c24 -44.667 76.667 -67.334 158 -68.001c81.333 -1.33301 134 21.667 158 69c8 16.667 12 35 12 55s-4 38 -12 54c-24 46.667 -76.667 70 -158 70s-133.666 -23.333 -156.999 -70
c-8.66699 -16 -13 -34.333 -13 -55zM91.999 208.001c0 62.667 24.001 111.666 72.001 146.999s113.333 53.666 196 54.999c123.333 0 206.333 -38.333 249 -115c22.667 -41.333 28 -82 16 -122c-18.667 -62 -59 -100.667 -121 -116v-6c66.667 -12 112.667 -49 138 -111
c7.33301 -20 11 -43.667 11 -71c0 -60 -25.333 -107.667 -76 -143c-50.667 -34.667 -122.334 -52.334 -215.001 -53.001c-92 -0.666992 -164 17.333 -216 54s-78 82.334 -78 137.001s14 97.334 42 128.001c25.333 30.667 61 50.334 107 59.001v6
c-38 8 -68.333 26.333 -91 55c-22.667 29.333 -34 61.333 -34 96z" />
    <glyph glyph-name="uni2089" unicode="&#x2089;" 
d="M197 168c0 -68 31.667 -112.667 95 -134c18.667 -6 44.334 -9 77.001 -9s63.667 12.333 93 37s44 59 44 103s-13 80.333 -39 109s-62.333 43 -109 43s-85.334 -12.667 -116.001 -38c-30 -25.333 -45 -62.333 -45 -111zM637 57c0 -254 -95 -382.327 -285 -384.994
c-76.667 0 -137.667 18.667 -183 56s-71 85.666 -77 144.999h121c2.66699 -32.667 16.667 -59 42 -79s53.666 -30.333 84.999 -31c58 -1.33301 101.333 18 130 58c28.667 39.333 44 106.666 46 201.999c-10.667 -24 -32.667 -44.333 -66 -61s-70.666 -25.667 -111.999 -27
c-40 -0.666992 -76 3.66602 -108 12.999c-102.667 31.333 -154 102.666 -154 213.999c0 73.333 26 132.666 78 177.999s116.667 68.666 194 69.999c192.667 0 289 -117.667 289 -353z" />
    <glyph glyph-name="Euro" unicode="&#x20ac;" horiz-adv-x="1163" 
d="M690 1432c235.333 0 378.668 -122.332 430.001 -366.999h-135c-42.667 161.333 -139 243.333 -289 246c-192.667 0 -312 -132 -358 -396h434l-24 -90h-422l-4 -90v-82l2 -47h409l-22 -90h-377c28.667 -200.667 104 -330.334 226 -389.001c40 -19.333 82 -29 126 -29
c112 0 193 38.667 243 116c16 25.333 30 55 42 89h135c-54.667 -217.333 -190 -326 -406 -326s-367.667 106.667 -455 320c-26.667 65.333 -45.667 138.333 -57 219h-184l25 90h151l-4 74v53l4 92h-137l25 90h125c24.667 158 79 283.667 163 377
c83.333 93.333 194.666 140 333.999 140z" />
    <glyph glyph-name="afii61289" unicode="&#x2113;" horiz-adv-x="843" 
d="M445 795c102 118 153 241.332 153 369.999s-37.667 193 -113 193c-92.667 0 -139 -122.333 -139 -367v-289l4 -2c34 28.667 65.667 60.334 95 95.001zM186 337.999v151.001l-4 3l-121 -84l-24 49c11.333 10.667 23.666 21 36.999 31s26.333 20.667 39 32l37 31
c12 9.33301 24 19.666 36 30.999v278c0 202.667 26 341.667 78 417c52 76 103.667 122.333 155 139c68.667 22.667 127.667 22 177 -2c78.667 -37.333 118.334 -117 119.001 -239c1.33301 -121.333 -40.667 -235.333 -126 -342c-57.333 -72.667 -138.333 -149.667 -243 -231
v-223c0 -149.333 37.667 -239 113 -269c111.333 -44 216.333 6 315 150l45 -33c-70 -165.333 -185.333 -249.333 -346 -252c-87.333 0 -157 26 -209 78c-52 60 -78 155 -78 285z" />
    <glyph glyph-name="afii61352" unicode="&#x2116;" horiz-adv-x="2410" 
d="M1577 367v102h702v-102h-702zM1577 0v102h702v-102h-702zM1770 863c40 -48 92.333 -72 157 -72c65.333 0 118.333 25 159 75c40 50 60 114.333 60 193c0 79.333 -20 143 -60 191c-40 48.667 -92.667 73 -158 73c-64.667 0 -117 -24 -157 -72
c-40.667 -48 -61 -112.667 -61 -194s20 -146 60 -194zM1579 1056c0 110 32.6689 199.333 98.002 268s150.666 102.667 255.999 102s189.333 -35 251.999 -103c62.667 -68 93.667 -157.333 93 -268c-0.666992 -111.333 -33.667 -200 -99 -266s-149.333 -99 -252 -99
c-53.333 0 -101.333 8.66699 -144 26c-86 34.667 -145.667 98 -179 190c-16 45.333 -24.333 95.333 -25 150zM186.002 0v1409h146l817 -1169h6l-6 1169h145v-1409h-145l-817 1163h-6l6 -1163h-146z" />
    <glyph glyph-name="trademark" unicode="&#x2122;" horiz-adv-x="1605" 
d="M10 1313v96h613v-96h-246v-608h-115v608h-252zM723 705v704h158l237 -553h6l240 553h158v-704h-115l6 546h-6l-238 -546h-96l-235 546h-7l7 -546h-115z" />
    <glyph glyph-name="Omega" unicode="&#x2126;" horiz-adv-x="1425" 
d="M846 0v410c80.667 23.333 154.667 74 222 152s100.666 179.667 99.999 305s-43.667 230.666 -129 315.999c-86 85.333 -195 128 -327 128s-240.667 -42.667 -326 -128s-128 -191 -128 -317s33.333 -227.667 100 -305s140.667 -127.666 222 -150.999v-410h-443v121h309
v213c-94.667 42 -174 109.333 -238 202c-64.667 93.333 -96.334 199.333 -95.001 318c0 164 56.333 301.667 169 413c112.667 110 256.334 165 431.001 165s318.334 -55 431.001 -165s169 -247.667 169 -413c0 -119.333 -31.667 -225.333 -95 -318
c-63.333 -92 -143 -159.333 -239 -202v-213h309v-121h-442z" />
    <glyph glyph-name="estimated" unicode="&#x212e;" horiz-adv-x="1740" 
d="M356 739c0 -8 5 -11.998 15 -11.998h1007c5.33301 0 8 4 8 12v396c0 17.333 -6.66699 33.666 -20 48.999c-66.667 66.667 -141 117 -223 151c-132.667 55.333 -269.667 68.333 -411 39c-85.333 -18 -164 -51.667 -236 -101c-72 -50 -114.333 -86 -127 -108
c-8.66699 -12.667 -13 -26.334 -13 -41.001v-385zM1683 705.002l0.00195312 -21.001h-1318c-6 0 -9 -2.66699 -9 -8v-397c0 -15.333 2.66699 -26.333 8 -33s16.666 -18.667 33.999 -36c17.333 -18.667 44.333 -41 81 -67c112.667 -80 244.334 -121 395.001 -123
c209.333 0 383.666 80 522.999 240h119c-112 -134.667 -259.333 -221.667 -442 -261c-182.667 -40 -354.667 -29 -516 33c-98.667 37.333 -185.667 89.333 -261 156s-133.666 144.667 -174.999 234s-62.333 183.666 -63 282.999c0.666992 100.667 21.667 195 63 283
s99.666 165.333 174.999 232s162.333 119 261 157s203 57 313 57s214.333 -18.667 313 -56s186 -89.666 262 -156.999c75.333 -66 133.666 -143.667 174.999 -233s62 -183.666 62 -282.999z" />
    <glyph glyph-name="uni2153" unicode="&#x2153;" horiz-adv-x="1564" 
d="M451 1409v-602h200v-102h-538v102h217v457l-185 -107l-51 86l281 166h76zM406 -25l714 1459h109l-715 -1459h-108zM1204 408c97.333 0 147.333 36.667 150 110c0 52.667 -29.667 87.334 -89 104.001c-18.667 4.66699 -39 7 -61 7c-68 0 -114.667 -25 -140 -75
c-7.33301 -16 -11 -33.333 -11 -52h-115c0 71.333 25 125.666 75 162.999s115.667 56 197 56c120.667 0 201.667 -38.333 243 -115c23.333 -42.667 28.333 -84 15 -124c-20.667 -62.667 -60.667 -100.334 -120 -113.001v-4c65.333 -12 111.333 -50 138 -114
c7.33301 -20 11 -43.667 11 -71c0 -60 -25.667 -107.667 -77 -143s-123.333 -53 -216 -53c-189.333 0 -284 75 -284 225h114c0 -65.333 34 -107.666 102 -126.999c21.333 -5.33301 44 -8 68 -8c81.333 0 134 23.333 158 70c8 16 12 34.333 12 55
c0 80 -56.667 121.667 -170 125h-59v84h59z" />
    <glyph glyph-name="uni2154" unicode="&#x2154;" horiz-adv-x="1564" 
d="M406 -25l714 1459h109l-715 -1459h-108zM1204 408c97.333 0 147.333 36.667 150 110c0 52.667 -29.667 87.334 -89 104.001c-18.667 4.66699 -39 7 -61 7c-68 0 -114.667 -25 -140 -75c-7.33301 -16 -11 -33.333 -11 -52h-115c0 71.333 25 125.666 75 162.999
s115.667 56 197 56c120.667 0 201.667 -38.333 243 -115c23.333 -42.667 28.333 -84 15 -124c-20.667 -62.667 -60.667 -100.334 -120 -113.001v-4c65.333 -12 111.333 -50 138 -114c7.33301 -20 11 -43.667 11 -71c0 -60 -25.667 -107.667 -77 -143s-123.333 -53 -216 -53
c-189.333 0 -284 75 -284 225h114c0 -65.333 34 -107.666 102 -126.999c21.333 -5.33301 44 -8 68 -8c81.333 0 134 23.333 158 70c8 16 12 34.333 12 55c0 80 -56.667 121.667 -170 125h-59v84h59zM80 705c0 124.667 45.3311 218 135.998 280c25.333 18 54.333 35 87 51
l59 31c74 34 120.333 67.333 139 100c7.33301 13.333 11 28.333 11 45c0 53.333 -27.667 89 -83 107c-18.667 5.33301 -46.667 8 -84 8s-70.666 -12.667 -99.999 -38s-45.333 -64.666 -48 -117.999h-115c2.66699 85.333 31 148.666 85 189.999s120 62 198 62
c126.667 0 209.334 -39.667 248.001 -119c12.667 -26.667 19 -56 19 -88c0.666992 -77.333 -42.333 -141 -129 -191c-22.667 -12.667 -52.334 -28 -89.001 -46l-60 -29c-43.333 -19.333 -76.666 -42 -99.999 -68c-23.333 -25.333 -35 -50.333 -35 -75h418v-102h-557z" />
    <glyph glyph-name="uni2155" unicode="&#x2155;" horiz-adv-x="1564" 
d="M451 1409v-602h200v-102h-538v102h217v457l-185 -107l-51 86l281 166h76zM399 -25l715 1459h109l-713 -1459h-111zM1077 395c36.667 42.667 91.001 63.998 163.001 63.998c72.667 0 132.667 -19.667 180 -59s71 -96.666 71 -171.999s-26.333 -135 -79 -179
c-52.667 -43.333 -117 -65 -193 -65c-126 0 -209.333 40.667 -250 122c-12.667 24.667 -20.334 51.334 -23.001 80.001h117c8.66699 -49.333 38.667 -83.666 90 -102.999c18 -6 44 -9 78 -9s65.667 13.333 95 40s44 63 44 109c0 69.333 -31.667 114.666 -95 135.999
c-18.667 6 -39 9.33301 -61 10c-58.667 0 -105.667 -26 -141 -78l-117 6l25 408h469v-103h-360l-19 -207h6z" />
    <glyph glyph-name="uni2156" unicode="&#x2156;" horiz-adv-x="1564" 
d="M399 -25l715 1459h109l-713 -1459h-111zM80 705c0 124.667 45.3311 218 135.998 280c25.333 18 54.333 35 87 51l59 31c74 34 120.333 67.333 139 100c7.33301 13.333 11 28.333 11 45c0 53.333 -27.667 89 -83 107c-18.667 5.33301 -46.667 8 -84 8
s-70.666 -12.667 -99.999 -38s-45.333 -64.666 -48 -117.999h-115c2.66699 85.333 31 148.666 85 189.999s120 62 198 62c126.667 0 209.334 -39.667 248.001 -119c12.667 -26.667 19 -56 19 -88c0.666992 -77.333 -42.333 -141 -129 -191
c-22.667 -12.667 -52.334 -28 -89.001 -46l-60 -29c-43.333 -19.333 -76.666 -42 -99.999 -68c-23.333 -25.333 -35 -50.333 -35 -75h418v-102h-557zM1077 397c35.333 41.333 89.668 61.998 163.001 61.998c72.667 0 132.667 -19.667 180 -59s71 -96.666 71 -171.999
s-26.333 -135 -79 -179c-52.667 -43.333 -117 -65 -193 -65c-126 0 -209.333 40.667 -250 122c-12.667 24.667 -20.334 51.334 -23.001 80.001h117c8.66699 -49.333 38.667 -83.666 90 -102.999c18 -6 44 -9 78 -9s65.667 13.333 95 40s44 63 44 109
c0 69.333 -31.667 114.666 -95 135.999c-18.667 6 -39 9.33301 -61 10c-58.667 0 -105.667 -26 -141 -78l-117 6l25 408h469v-103h-360l-19 -205h6z" />
    <glyph glyph-name="uni2157" unicode="&#x2157;" horiz-adv-x="1564" 
d="M375 -25l712 1459h111l-715 -1459h-108zM76 913l113.998 -0.000976562c0 -64.667 34 -107 102 -127c21.333 -5.33301 51.333 -8 90 -8c37.333 0 71.333 10.333 102 31s46 52 46 94c0 58.667 -33.667 97.667 -101 117c-21.333 5.33301 -44.333 8 -69 8h-59v84h59
c70.667 0 117.334 21.333 140.001 64c6.66699 13.333 10 29 10 47c0 54 -29.667 88.333 -89 103c-18.667 4.66699 -39 7 -61 7c-68 0 -114.667 -25 -140 -75c-7.33301 -16 -11 -33.333 -11 -52h-115c0 70 25 124 75 162s116 57 198 57c118.667 0 199.334 -38 242.001 -114
c22.667 -41.333 26.667 -85.666 12 -132.999c-16 -54.667 -55 -89.667 -117 -105v-4c66.667 -12 112.667 -50 138 -114c7.33301 -20.667 11 -44.334 11 -71.001c0 -59.333 -25.667 -106.666 -77 -141.999c-51.333 -36 -123.333 -54 -216 -54c-136 0 -224 41 -264 123
c-13.333 28.667 -20 62.667 -20 102zM1077 396.999c35.333 41.333 89.668 61.998 163.001 61.998c72.667 0 132.667 -19.667 180 -59s71 -96.666 71 -171.999s-26.333 -135 -79 -179c-52.667 -43.333 -117 -65 -193 -65c-126 0 -209.333 40.667 -250 122
c-12.667 24.667 -20.334 51.334 -23.001 80.001h117c8.66699 -49.333 38.667 -83.666 90 -102.999c18 -6 44 -9 78 -9s65.667 13.333 95 40s44 63 44 109c0 69.333 -31.667 114.666 -95 135.999c-18.667 6 -39 9.33301 -61 10c-58.667 0 -105.667 -26 -141 -78l-117 6
l25 408h469v-103h-360l-19 -205h6z" />
    <glyph glyph-name="uni2158" unicode="&#x2158;" horiz-adv-x="1564" 
d="M430 950v297l-242 -297h242zM377 -25l715 1459h108l-715 -1459h-108zM1077 397c35.333 41.333 89.668 61.998 163.001 61.998c72.667 0 132.667 -19.667 180 -59s71 -96.666 71 -171.999s-26.333 -135 -79 -179c-52.667 -43.333 -117 -65 -193 -65
c-126 0 -209.333 40.667 -250 122c-12.667 24.667 -20.334 51.334 -23.001 80.001h117c8.66699 -49.333 38.667 -83.666 90 -102.999c18 -6 44 -9 78 -9s65.667 13.333 95 40s44 63 44 109c0 69.333 -31.667 114.666 -95 135.999c-18.667 6 -39 9.33301 -61 10
c-58.667 0 -105.667 -26 -141 -78l-117 6l25 408h469v-103h-360l-19 -205h6zM55.002 853.998v78l394 479h102v-461h108v-96h-108v-149h-121v149h-375z" />
    <glyph glyph-name="uni2159" unicode="&#x2159;" horiz-adv-x="1564" 
d="M1101 332c-30.667 -25.333 -46.002 -60.332 -46.002 -104.999c0.666992 -46 14.334 -83 41.001 -111s63.334 -42 110.001 -42s84.667 13.333 114 40s44 63 44 109c0 69.333 -31.667 114.666 -95 135.999c-66 21.333 -122 12.333 -168 -27zM450.998 1409v-602h200v-102
h-538v102h217v457l-185 -107l-51 86l281 166h76zM415.998 -24.999l714 1459h109l-713 -1459h-110zM1212 -15.999c-193.333 0 -289.334 118.669 -288.001 356.002c0.666992 132 27.667 228 81 288c54 60 126 91 216 93c116.667 0 192.334 -40.333 227.001 -121
c10.667 -24.667 17.334 -51.334 20.001 -80.001h-120c-1.33301 15.333 -5.33301 29.666 -12 42.999c-20 44 -59.333 66 -118 66c-108.667 0 -166.667 -87.333 -174 -262c19.333 38.667 62 67 128 85c20 4.66699 44.667 7 74 7c29.333 -0.666992 59 -5.66699 89 -15
c98 -31.333 148 -105 150 -221c0 -72 -26.333 -130 -79 -174c-52.667 -43.333 -117.334 -65 -194.001 -65z" />
    <glyph glyph-name="uni215A" unicode="&#x215a;" horiz-adv-x="1564" 
d="M1151 359c-64 -20 -96 -65.666 -96 -136.999s33 -118 99 -140c18.667 -5.33301 43.667 -8 75 -8s61.666 13.333 90.999 40s44 63 44 109c0 69.333 -31.667 114.666 -95 135.999c-41.333 13.333 -80.666 13.333 -117.999 0zM371 -24.999l714 1459h109l-715 -1459h-108z
M393 1163c120.667 0 199.334 -43.667 236.001 -131c12 -30 18 -64 18 -102c0 -76 -26 -135 -78 -177s-116.667 -63.667 -194 -65c-126.667 0 -210 41 -250 123c-12.667 24.667 -20.334 51.334 -23.001 80.001h117c8.66699 -50.667 38.667 -85.334 90 -104.001
c18 -6 44 -9 78 -9s65.667 13.333 95 40s44 63.334 44 110.001c0 67.333 -31.667 112.666 -95 135.999c-18 6 -36.333 9 -55 9c-52 0 -92 -14.667 -120 -44c-9.33301 -10 -18.333 -21.333 -27 -34l-116 6l24 408h469v-102h-360l-19 -203h6c34 39.333 87.333 59 160 59z
M1212 -15.999c-193.333 0 -289.334 118.669 -288.001 356.002c0.666992 132 27.667 228 81 288c54 60 126 91 216 93c116.667 0 192.334 -40.333 227.001 -121c10.667 -24.667 17.334 -51.334 20.001 -80.001h-120c-1.33301 15.333 -5.33301 29.666 -12 42.999
c-20 44 -59.333 66 -118 66c-108.667 0 -166.667 -87.333 -174 -262c19.333 38.667 62 67 128 85c20 4.66699 44.667 7 74 7c29.333 -0.666992 59 -5.66699 89 -15c98 -31.333 148 -105 150 -221c0 -72 -26.333 -130 -79 -174c-52.667 -43.333 -117.334 -65 -194.001 -65z
" />
    <glyph glyph-name="uni215B" unicode="&#x215b;" horiz-adv-x="1564" 
d="M1204 408c97.333 0 147.334 36.666 150.001 109.999c0 52.667 -29.667 87.334 -89 104.001c-18.667 4.66699 -39 7 -61 7c-70.667 0 -117.334 -21 -140.001 -63c-7.33301 -14 -11 -34 -11 -60s13.333 -48.667 40 -68c26.667 -20 63.667 -30 111 -30zM1374 198.999
c0 80 -56.667 121.667 -170 125c-49.333 0 -86 -8 -110 -24c-40 -26 -60 -59.667 -60 -101c0 -61.333 34 -100.333 102 -117c21.333 -5.33301 44 -8 68 -8c81.333 0 134 23.333 158 70c8 16 12 34.333 12 55zM451.001 1409v-602h200v-102h-538v102h217v457l-185 -107l-51 86
l281 166h76zM406.001 -25.001l714 1459h109l-715 -1459h-108zM911.001 179.999c0 75.333 29.668 129.001 89.001 161.001c18.667 10 38.334 17 59.001 21v7c-36.667 7.33301 -66.334 25.666 -89.001 54.999c-22.667 28.667 -34 60.334 -34 95.001
c0 62.667 24.333 112 73 148s113.667 54 195 54c124.667 0 207.667 -38.333 249 -115c23.333 -42.667 28.333 -84 15 -124c-20.667 -62.667 -60.667 -100.334 -120 -113.001v-7c66.667 -12 112.667 -49 138 -111c7.33301 -20 11 -43.667 11 -71
c0 -60 -25.667 -107.667 -77 -143s-123.333 -53 -216 -53c-138.667 0 -229.334 39.333 -272.001 118c-13.333 25.333 -20.333 51.333 -21 78z" />
    <glyph glyph-name="uni215C" unicode="&#x215c;" horiz-adv-x="1564" 
d="M1204 408c97.333 0 147.334 36.666 150.001 109.999c0 52.667 -29.667 87.334 -89 104.001c-18.667 4.66699 -39 7 -61 7c-70.667 0 -117.334 -21 -140.001 -63c-7.33301 -14 -11 -34 -11 -60s13.333 -48.667 40 -68c26.667 -20 63.667 -30 111 -30zM1374 198.999
c0 80 -56.667 121.667 -170 125c-49.333 0 -86 -8 -110 -24c-40 -26 -60 -59.667 -60 -101c0 -61.333 34 -100.333 102 -117c21.333 -5.33301 44 -8 68 -8c81.333 0 134 23.333 158 70c8 16 12 34.333 12 55zM371.001 -25.001l714 1459h109l-715 -1459h-108zM76.001 912.999
l113.998 -0.000976562c0 -64.667 34 -107 102 -127c21.333 -5.33301 51.333 -8 90 -8c37.333 0 71.333 10.333 102 31s46 52 46 94c0 58.667 -33.667 97.667 -101 117c-21.333 5.33301 -44.333 8 -69 8h-59v84h59c70.667 0 117.334 21.333 140.001 64
c6.66699 13.333 10 29 10 47c0 54 -29.667 88.333 -89 103c-18.667 4.66699 -39 7 -61 7c-68 0 -114.667 -25 -140 -75c-7.33301 -16 -11 -33.333 -11 -52h-115c0 70 25 124 75 162s116 57 198 57c118.667 0 199.334 -38 242.001 -114
c22.667 -41.333 26.667 -85.666 12 -132.999c-16 -54.667 -55 -89.667 -117 -105v-4c66.667 -12 112.667 -50 138 -114c7.33301 -20.667 11 -44.334 11 -71.001c0 -59.333 -25.667 -106.666 -77 -141.999c-51.333 -36 -123.333 -54 -216 -54c-136 0 -224 41 -264 123
c-13.333 28.667 -20 62.667 -20 102zM910.999 179.998c0 75.333 29.668 129.001 89.001 161.001c18.667 10 38.334 17 59.001 21v7c-36.667 7.33301 -66.334 25.666 -89.001 54.999c-22.667 28.667 -34 60.334 -34 95.001c0 62.667 24.333 112 73 148s113.667 54 195 54
c124.667 0 207.667 -38.333 249 -115c23.333 -42.667 28.333 -84 15 -124c-20.667 -62.667 -60.667 -100.334 -120 -113.001v-7c66.667 -12 112.667 -49 138 -111c7.33301 -20 11 -43.667 11 -71c0 -60 -25.667 -107.667 -77 -143s-123.333 -53 -216 -53
c-138.667 0 -229.334 39.333 -272.001 118c-13.333 25.333 -20.333 51.333 -21 78z" />
    <glyph glyph-name="uni215D" unicode="&#x215d;" horiz-adv-x="1564" 
d="M1204 408c97.333 0 147.334 36.666 150.001 109.999c0 52.667 -29.667 87.334 -89 104.001c-18.667 4.66699 -39 7 -61 7c-70.667 0 -117.334 -21 -140.001 -63c-7.33301 -14 -11 -34 -11 -60s13.333 -48.667 40 -68c26.667 -20 63.667 -30 111 -30zM1374 198.999
c0 80 -56.667 121.667 -170 125c-49.333 0 -86 -8 -110 -24c-40 -26 -60 -59.667 -60 -101c0 -61.333 34 -100.333 102 -117c21.333 -5.33301 44 -8 68 -8c81.333 0 134 23.333 158 70c8 16 12 34.333 12 55zM371.001 -25.001l714 1459h109l-715 -1459h-108zM393.001 1163
c120.667 0 199.334 -43.667 236.001 -131c12 -30 18 -64 18 -102c0 -76 -26 -135 -78 -177s-116.667 -63.667 -194 -65c-126.667 0 -210 41 -250 123c-12.667 24.667 -20.334 51.334 -23.001 80.001h117c8.66699 -50.667 38.667 -85.334 90 -104.001c18 -6 44 -9 78 -9
s65.667 13.333 95 40s44 63.334 44 110.001c0 67.333 -31.667 112.666 -95 135.999c-18 6 -36.333 9 -55 9c-52 0 -92 -14.667 -120 -44c-9.33301 -10 -18.333 -21.333 -27 -34l-116 6l24 408h469v-102h-360l-19 -205h6c34.667 40.667 88 61 160 61zM911.001 179.999
c0 75.333 29.668 129.001 89.001 161.001c18.667 10 38.334 17 59.001 21v7c-36.667 7.33301 -66.334 25.666 -89.001 54.999c-22.667 28.667 -34 60.334 -34 95.001c0 62.667 24.333 112 73 148s113.667 54 195 54c124.667 0 207.667 -38.333 249 -115
c23.333 -42.667 28.333 -84 15 -124c-20.667 -62.667 -60.667 -100.334 -120 -113.001v-7c66.667 -12 112.667 -49 138 -111c7.33301 -20 11 -43.667 11 -71c0 -60 -25.667 -107.667 -77 -143s-123.333 -53 -216 -53c-138.667 0 -229.334 39.333 -272.001 118
c-13.333 25.333 -20.333 51.333 -21 78z" />
    <glyph glyph-name="uni215E" unicode="&#x215e;" horiz-adv-x="1564" 
d="M1204 408c97.333 0 147.334 36.666 150.001 109.999c0 52.667 -29.667 87.334 -89 104.001c-18.667 4.66699 -39 7 -61 7c-70.667 0 -117.334 -21 -140.001 -63c-7.33301 -14 -11 -34 -11 -60s13.333 -48.667 40 -68c26.667 -20 63.667 -30 111 -30zM1374 198.999
c0 80 -56.667 121.667 -170 125c-49.333 0 -86 -8 -110 -24c-40 -26 -60 -59.667 -60 -101c0 -61.333 34 -100.333 102 -117c21.333 -5.33301 44 -8 68 -8c81.333 0 134 23.333 158 70c8 16 12 34.333 12 55zM76.001 1300v109h573v-76l-334 -628h-133l322 595h-428z
M311.001 -25.001l715 1459h109l-715 -1459h-109zM911.001 179.999c0 75.333 29.668 129.001 89.001 161.001c18.667 10 38.334 17 59.001 21v7c-36.667 7.33301 -66.334 25.666 -89.001 54.999c-22.667 28.667 -34 60.334 -34 95.001c0 62.667 24.333 112 73 148
s113.667 54 195 54c124.667 0 207.667 -38.333 249 -115c23.333 -42.667 28.333 -84 15 -124c-20.667 -62.667 -60.667 -100.334 -120 -113.001v-7c66.667 -12 112.667 -49 138 -111c7.33301 -20 11 -43.667 11 -71c0 -60 -25.667 -107.667 -77 -143s-123.333 -53 -216 -53
c-138.667 0 -229.334 39.333 -272.001 118c-13.333 25.333 -20.333 51.333 -21 78z" />
    <glyph glyph-name="uni2190" unicode="&#x2190;" horiz-adv-x="1351" 
d="M500 567h794v-102h-794c-106.667 0 -194 2 -262 6l383 -377l-72 -67l-492 489l492 490l72 -68l-383 -377c70 4 157.333 6 262 6z" />
    <glyph glyph-name="uni2191" unicode="&#x2191;" horiz-adv-x="1351" 
d="M727 692v-794h-102v794c0 104.667 2 192 6 262l-377 -383l-68 72l490 492l489 -492l-67 -72l-377 383c4 -70 6 -157.333 6 -262z" />
    <glyph glyph-name="uni2192" unicode="&#x2192;" horiz-adv-x="1351" 
d="M852 465h-795v102h795c107.333 0 194 -2 260 -6l-381 377l72 68l491 -490l-491 -489l-72 67l381 377c-66 -4 -152.667 -6 -260 -6z" />
    <glyph glyph-name="uni2193" unicode="&#x2193;" horiz-adv-x="1351" 
d="M625 340v795h102v-795c0 -104.667 -2 -192 -6 -262l377 383l67 -72l-489 -491l-490 491l68 72l377 -383c-4 70 -6 157.333 -6 262z" />
    <glyph glyph-name="uni2196" unicode="&#x2196;" horiz-adv-x="1351" 
d="M238 987h691.999v-96h-533c52 -44 111 -100 177 -168c66.667 -68 101.334 -103.667 104.001 -107l467 -466l-70 -76l-610 614c-58 58 -101.667 104.333 -131 139v-532h-96v692z" />
    <glyph glyph-name="uni2197" unicode="&#x2197;" horiz-adv-x="1351" 
d="M453 891v96h692v-692h-96v532c-37.333 -44 -92 -101 -164 -171l-111 -109l-467 -473l-69 76l467 466l94 97c60 62 122 121.333 186 178h-532z" />
    <glyph glyph-name="uni2198" unicode="&#x2198;" horiz-adv-x="1351" 
d="M453 74v96.001h532c-18 14.667 -40.333 34.667 -67 60l-74 71l-606 610l69 76l467 -473l53 -51c89.333 -84.667 163.333 -161.334 222 -230.001v533h96v-692h-692z" />
    <glyph glyph-name="uni2199" unicode="&#x2199;" horiz-adv-x="1351" 
d="M930 170v-95.999h-692v692h96v-533c50.667 59.333 141.334 153 272.001 281l469 473l70 -76l-608 -610c-52.667 -52.667 -99.334 -96.334 -140.001 -131.001h533z" />
    <glyph glyph-name="partialdiff" unicode="&#x2202;" horiz-adv-x="1163" 
d="M753 209c75.333 74 112.668 160.667 112.001 260s-30.667 176 -90 230s-136.333 81 -231 81s-176.667 -35.333 -246 -106c-68.667 -70.667 -102.334 -162.334 -101.001 -275.001c0 -45.333 7.33301 -86.666 22 -123.999c48.667 -118 141.667 -177 279 -177
c94.667 0 179.667 37 255 111zM920.002 870c0 56 -8.33691 115.334 -25.0039 178.001s-40 113 -70 151c-58 74.667 -133 112 -225 112c-129.333 0 -220.666 -51 -273.999 -153c-16.667 -30.667 -29 -64.334 -37 -101.001h-137c38.667 180 133.334 296 284.001 348
c52 18 109.667 27 173 27c130.667 0 239.334 -50 326.001 -150s130 -252.333 130 -457c0 -274.667 -54 -484.334 -162 -629.001s-250.667 -217.667 -428 -219c-116.667 0 -216.667 37.333 -300 112c-82.667 74.667 -124 181.667 -124 321s47.667 256 143 350
s211 141 347 141s241.667 -41.667 317 -125c24.667 -27.333 42.334 -58.666 53.001 -93.999c6 69.333 9 132 9 188z" />
    <glyph glyph-name="Delta" unicode="&#x2206;" horiz-adv-x="1288" 
d="M643 1278h-4l-399 -1157h800zM59 0l500 1409h170l500 -1409h-1170z" />
    <glyph glyph-name="product" unicode="&#x220f;" horiz-adv-x="1456" 
d="M193 0v1409h1071v-1409h-140v1288h-792v-1288h-139z" />
    <glyph glyph-name="summation" unicode="&#x2211;" horiz-adv-x="1062" 
d="M53 0v84l459 614l-446 617v94h925v-121h-747l428 -583l-449 -584h797v-121h-967z" />
    <glyph glyph-name="minus" unicode="&#x2212;" horiz-adv-x="1163" 
d="M117 459v121h930v-121h-930z" />
    <glyph glyph-name="uni2215" unicode="&#x2215;" horiz-adv-x="147" 
d="M-336 -25l715 1459h108l-714 -1459h-109z" />
    <glyph glyph-name="uni2219" unicode="&#x2219;" horiz-adv-x="499" 
d="M162 406v221h176v-221h-176z" />
    <glyph glyph-name="radical" unicode="&#x221a;" horiz-adv-x="1204" 
d="M66 651v121l268 84l284 -702h7l450 1255h139l-509 -1409h-158l-299 709z" />
    </font>
</defs>
</svg>
